<?xml version="1.0" encoding="utf-8"?>
<!-- Generator: Adobe Illustrator 22.0.1, SVG Export Plug-In . SVG Version: 6.00 Build 0)  -->
<svg version="1.1" id="Слой_1" xmlns="http://www.w3.org/2000/svg" xmlns:xlink="http://www.w3.org/1999/xlink" x="0px" y="0px"
	 viewBox="0 0 120 120" style="enable-background:new 0 0 120 120;" xml:space="preserve">
<style type="text/css">
	.st0{fill:#993399;}
	.st1{fill:#FF0099;}
	.st2{fill:none;stroke:#663399;stroke-width:0.98;stroke-linecap:round;}
	.st3{fill:#212121;}
	.st4{fill:url(#SVGID_1_);}
	.st5{fill:url(#SVGID_2_);}
	.st6{fill:url(#SVGID_3_);}
	.st7{fill:url(#SVGID_4_);}
</style>
<path id="_x3C_Контур_x3E_" class="st0" d="M98.2,42.4c0.1,0,0.1-0.1,0.2-0.1c0.6-0.2,1,0.5,1.4,1.3c0.2,0.3,0.5,0.8,0.6,0.9
	c0.1-0.2,0-0.8,0-1.1c-0.1-0.9-0.1-1.7,0.5-1.9c0.2-0.1,0.4,0,0.4,0.2c0.1,0.2,0,0.3-0.2,0.4c-0.1,0.2,0,0.8,0,1.2
	c0.1,0.9,0.1,1.7-0.5,1.9c-0.6,0.2-1-0.5-1.4-1.3c-0.2-0.3-0.5-0.8-0.6-0.9c-0.1,0.2,0,0.8,0,1.1c0.1,0.9,0.1,1.7-0.5,1.9
	c-0.6,0.2-1-0.5-1.4-1.2c-0.1-0.2,0-0.4,0.1-0.5c0.2-0.1,0.4,0,0.5,0.1c0.1,0.2,0.4,0.6,0.6,0.8c0.1-0.2,0-0.8,0-1.1
	C97.9,43.4,97.8,42.7,98.2,42.4z"/>
<path id="_x3C_Контур_x3E__1_" class="st1" d="M102.6,61.9c0.1,0,0.2-0.1,0.3-0.1c0.9-0.1,1.2,1.1,1.6,2.3
	c0.1,0.5,0.4,1.2,0.6,1.5c0.2-0.3,0.3-1.1,0.4-1.6c0.2-1.2,0.4-2.4,1.3-2.5c0.3,0,0.5,0.2,0.5,0.5c0,0.3-0.2,0.5-0.4,0.5
	c-0.2,0.2-0.4,1.1-0.5,1.7c-0.2,1.2-0.4,2.4-1.3,2.4c-0.8,0-1.2-1-1.5-2.3c-0.1-0.5-0.4-1.2-0.6-1.5c-0.2,0.3-0.3,1.1-0.4,1.6
	c-0.2,1.2-0.5,2.4-1.3,2.4c-0.9,0-1.2-1.1-1.5-2.1c-0.1-0.3,0.1-0.5,0.3-0.6c0.3-0.1,0.5,0.1,0.6,0.3c0.1,0.3,0.3,1,0.5,1.3
	c0.2-0.3,0.3-1.1,0.4-1.6C101.8,63.2,102,62.2,102.6,61.9z"/>
<path id="_x3C_Контур_x3E__2_" class="st0" d="M16.8,62.1c-0.1,0-0.2,0-0.3-0.1c-0.8-0.4-0.5-1.5-0.3-2.8
	c0.1-0.5,0.3-1.3,0.2-1.6c-0.3,0.2-0.8,0.8-1.1,1.2c-0.8,1-1.6,1.9-2.3,1.5c-0.2-0.1-0.3-0.4-0.2-0.7c0.1-0.2,0.4-0.3,0.6-0.2
	c0.3-0.1,0.8-0.8,1.2-1.2c0.8-1,1.5-1.9,2.3-1.5c0.8,0.4,0.5,1.5,0.2,2.8c-0.1,0.5-0.3,1.3-0.2,1.6c0.3-0.2,0.8-0.8,1.1-1.2
	c0.8-1,1.6-1.9,2.3-1.5c0.8,0.4,0.5,1.5,0.3,2.5c-0.1,0.3-0.3,0.4-0.6,0.4c-0.3-0.1-0.4-0.3-0.4-0.6c0.1-0.3,0.2-1.1,0.2-1.4
	c-0.3,0.2-0.8,0.8-1.1,1.2C18.1,61.3,17.5,62.1,16.8,62.1z"/>
<path class="st2" d="M16.6,27c1,0.8-3.8,6.7-2.8,7.4c1,0.8,5.7-5.1,6.7-4.3c1,0.8-3.8,6.7-2.8,7.4c1,0.8,5.7-5.1,6.7-4.3
	c1,0.8-3.8,6.7-2.8,7.4c1,0.8,5.7-5.1,6.7-4.3"/>
<polygon class="st3" points="90.4,50.6 90.4,58.5 62.4,74.5 34.3,58.5 34.3,50.6 "/>
<polygon class="st3" points="90.4,63.6 90.4,86.7 76.1,71.7 "/>
<polygon class="st3" points="48.6,71.7 34.3,86.7 34.3,63.6 "/>
<polygon class="st3" points="90.4,93 34.3,93 52.5,74 62.4,79.6 72.2,74 "/>
<linearGradient id="SVGID_1_" gradientUnits="userSpaceOnUse" x1="31.5883" y1="58.3324" x2="87.6687" y2="58.3324">
	<stop  offset="0" style="stop-color:#FFAB00"/>
	<stop  offset="1" style="stop-color:#FFD740"/>
</linearGradient>
<polygon class="st4" points="87.7,46.4 87.7,54.3 59.6,70.3 31.6,54.3 31.6,46.4 "/>
<linearGradient id="SVGID_2_" gradientUnits="userSpaceOnUse" x1="73.3857" y1="70.882" x2="87.6687" y2="70.882">
	<stop  offset="0" style="stop-color:#FFAB00"/>
	<stop  offset="1" style="stop-color:#FFD740"/>
</linearGradient>
<polygon class="st5" points="87.7,59.3 87.7,82.4 73.4,67.5 "/>
<linearGradient id="SVGID_3_" gradientUnits="userSpaceOnUse" x1="31.5883" y1="70.882" x2="45.8713" y2="70.882">
	<stop  offset="0" style="stop-color:#FFAB00"/>
	<stop  offset="1" style="stop-color:#FFD740"/>
</linearGradient>
<polygon class="st6" points="45.9,67.5 31.6,82.4 31.6,59.3 "/>
<linearGradient id="SVGID_4_" gradientUnits="userSpaceOnUse" x1="31.5883" y1="79.2473" x2="87.6687" y2="79.2473">
	<stop  offset="0" style="stop-color:#FFAB00"/>
	<stop  offset="1" style="stop-color:#FFD740"/>
</linearGradient>
<polygon class="st7" points="87.7,88.8 31.6,88.8 49.8,69.7 59.6,75.3 69.5,69.7 "/>
</svg>
