<?xml version="1.0" encoding="UTF-8"?>
<!-- Generator: Adobe Illustrator 22.0.1, SVG Export Plug-In . SVG Version: 6.00 Build 0)  -->
<svg version="1.1" id="Слой_1" xmlns="http://www.w3.org/2000/svg" xmlns:xlink="http://www.w3.org/1999/xlink" x="0px" y="0px" viewBox="0 0 120 120" style="enable-background:new 0 0 120 120;" xml:space="preserve">
<style type="text/css">
	.st0{fill:#212121;}
	.st1{fill:url(#SVGID_1_);}
	.st2{fill:#FFC400;}
	.st3{fill:#FFAB00;}
	.st4{fill:#993399;}
	.st5{fill:#FF0099;}
	.st6{fill:none;stroke:#663399;stroke-width:0.98;stroke-linecap:round;}
</style>
<path class="st0" d="M93.3,86.8L70.1,46.7c-1-1.6-2.7-2.6-4.6-2.6c-1.9,0-3.7,1-4.6,2.6L37.7,86.8c0,0,0,0,0,0.1  c-0.1,0.2-0.2,0.4-0.3,0.6c0,0.1,0,0.1-0.1,0.2c0,0.1,0,0.1,0,0.2c0,0.1-0.1,0.2-0.1,0.3c-0.1,0.2-0.1,0.5-0.1,0.7  c-0.1,0.7-0.1,1.4,0.1,2c0,0.1,0.1,0.2,0.1,0.4c0.1,0.3,0.3,0.6,0.4,0.9c1,1.6,2.7,2.6,4.6,2.6h46.4c1.9,0,3.7-1,4.6-2.6  c0.1-0.1,0.1-0.2,0.2-0.3c0.1-0.3,0.2-0.6,0.3-0.9c0-0.2,0.1-0.5,0.1-0.7c0-0.1,0-0.2,0-0.3C94,88.8,93.8,87.8,93.3,86.8z   M67.3,85.4c-0.6,0.5-1.3,0.8-2.1,0.8h0c0,0,0,0-0.1,0c-1.7,0-3.1-1.4-3.1-3.2s1.3-3.2,3.1-3.2c0,0,0,0,0.1,0h0  c0.9,0,1.6,0.3,2.1,0.8c0.7,0.6,1.1,1.4,1.1,2.4S68,84.8,67.3,85.4z M67.4,75.7v0.2c0,0.6-0.3,1.1-0.7,1.5c-0.4,0.4-0.9,0.6-1.5,0.6  c-1.2,0-2.1-0.9-2.2-2.1l-1-15.5c-0.1-0.9,0.2-1.8,0.9-2.4c0.6-0.7,1.4-1,2.3-1c0.8,0,1.5,0.3,2.2,0.9l0.1,0.1  c0.7,0.6,1,1.5,0.9,2.4L67.4,75.7z"/>
<linearGradient id="SVGID_1_" gradientUnits="userSpaceOnUse" x1="79.9603" y1="63.2037" x2="32.8561" y2="87.849">
	<stop offset="0" style="stop-color:#FFAB00"/>
	<stop offset="1" style="stop-color:#FFD740"/>
</linearGradient>
<path class="st1" d="M89,84.4L65.8,44.2c-1-1.6-2.7-2.6-4.6-2.6c-1.9,0-3.7,1-4.6,2.6L33.4,84.4c-0.1,0.2-0.2,0.4-0.3,0.6  c0,0.1,0,0.1-0.1,0.2c0,0.1,0,0.1,0,0.2c0,0.1-0.1,0.2-0.1,0.3c-0.1,0.2-0.1,0.5-0.1,0.7c-0.1,0.7,0,1.4,0.1,2  c0,0.1,0.1,0.2,0.1,0.4c0.1,0.3,0.2,0.6,0.4,0.9c1,1.6,2.7,2.6,4.6,2.6h46.4c1.9,0,3.7-1,4.6-2.6c0,0,0,0,0,0  c0.1-0.1,0.1-0.2,0.2-0.3c0.1-0.3,0.2-0.6,0.3-0.9c0-0.2,0.1-0.5,0.1-0.7c0-0.1,0-0.2,0-0.3C89.7,86.4,89.5,85.3,89,84.4z   M58.6,55.5c0.6-0.7,1.4-1,2.3-1c0.8,0,1.5,0.3,2.2,0.9l0.1,0.1c0.7,0.6,1,1.5,0.9,2.4l-1,15.3v0.2c0,0.6-0.3,1.1-0.7,1.5  c-0.4,0.4-0.9,0.6-1.5,0.6c-1.2,0-2.1-0.9-2.2-2.1l-1-15.5C57.6,57,57.9,56.1,58.6,55.5z M60.8,77.3C60.8,77.3,60.8,77.3,60.8,77.3  l0.1,0c0.9,0,1.6,0.3,2.1,0.8c0.7,0.6,1.1,1.4,1.1,2.4s-0.4,1.8-1.1,2.4c-0.6,0.5-1.3,0.8-2.1,0.8h0c0,0,0,0-0.1,0  c-1.8,0-3.1-1.4-3.1-3.2S59,77.3,60.8,77.3z"/>
<path class="st2" d="M44.6,28.1l-8.4-10.4c-0.1-0.1-0.2-0.1-0.4-0.1c-0.1,0.1-0.2,0.2-0.2,0.3l2.8,12l-2.8,0.6  c-0.1,0-0.2,0.1-0.2,0.2s0,0.2,0,0.3l8.4,10.4c0.1,0.1,0.2,0.1,0.4,0.1c0.1-0.1,0.2-0.2,0.2-0.3l-2.8-12l2.8-0.6  c0.1,0,0.2-0.1,0.2-0.2C44.7,28.3,44.6,28.1,44.6,28.1z"/>
<path class="st3" d="M94.4,46.9l1.9-6.4c0-0.1,0-0.1-0.1-0.2s-0.1,0-0.2,0l-4.1,4.5l-1.1-1h-0.1l-0.1,0.1l-1.9,6.4  c0,0.1,0,0.1,0.1,0.2c0.1,0,0.1,0,0.2,0l4.1-4.6l1.1,1C94.2,47,94.3,47,94.4,46.9C94.3,46.9,94.4,46.9,94.4,46.9z"/>
<path id="_x3C_Контур_x3E_" class="st4" d="M30.3,70.4c-0.1,0-0.1,0.1-0.2,0.1c-0.6,0.1-0.9-0.7-1.1-1.6  c-0.1-0.3-0.3-0.9-0.4-1c-0.1,0.2-0.2,0.8-0.3,1.1c-0.1,0.9-0.3,1.7-0.9,1.7c-0.2,0-0.4-0.1-0.4-0.3c0-0.2,0.1-0.3,0.3-0.4  c0.1-0.1,0.2-0.8,0.3-1.2c0.1-0.9,0.3-1.7,0.9-1.7s0.8,0.7,1.1,1.6c0.1,0.3,0.3,0.9,0.4,1c0.1-0.2,0.2-0.8,0.3-1.1  c0.1-0.9,0.3-1.7,0.9-1.7s0.8,0.7,1.1,1.4c0.1,0.2,0,0.4-0.2,0.4c-0.2,0.1-0.4,0-0.4-0.2c-0.1-0.2-0.2-0.7-0.4-0.9  c-0.1,0.2-0.2,0.8-0.3,1.1C30.8,69.6,30.7,70.2,30.3,70.4z"/>
<path id="_x3C_Контур_x3E__1_" class="st5" d="M97.5,62.6c0.1,0,0.2-0.1,0.3-0.1c0.9-0.1,1.2,1.1,1.6,2.3  c0.1,0.5,0.4,1.2,0.6,1.5c0.2-0.3,0.3-1.1,0.4-1.6c0.2-1.2,0.4-2.4,1.3-2.5c0.3,0,0.5,0.2,0.5,0.5s-0.2,0.5-0.4,0.5  c-0.2,0.2-0.4,1.1-0.5,1.7c-0.2,1.2-0.4,2.4-1.3,2.4c-0.8,0-1.2-1-1.5-2.3c-0.1-0.5-0.4-1.2-0.6-1.5c-0.2,0.3-0.3,1.1-0.4,1.6  c-0.2,1.2-0.5,2.4-1.3,2.4c-0.9,0-1.2-1.1-1.5-2.1c-0.1-0.3,0.1-0.5,0.3-0.6c0.3-0.1,0.5,0.1,0.6,0.3c0.1,0.3,0.3,1,0.5,1.3  c0.2-0.3,0.3-1.1,0.4-1.6C96.8,63.9,97,62.9,97.5,62.6z"/>
<path id="_x3C_Контур_x3E__2_" class="st4" d="M76.5,41.2c0-0.1,0.1-0.2,0.2-0.3c0.6-0.6,1.6,0,2.7,0.6  c0.4,0.3,1.1,0.7,1.4,0.7c-0.1-0.3-0.5-1-0.8-1.4c-0.7-1.1-1.3-2.1-0.7-2.7c0.2-0.2,0.5-0.2,0.7,0s0.2,0.5,0,0.7  c0,0.3,0.5,1.1,0.8,1.5c0.7,1.1,1.3,2.1,0.7,2.7c-0.6,0.6-1.6,0-2.7-0.7c-0.4-0.3-1.1-0.7-1.4-0.7c0.1,0.3,0.5,1,0.8,1.4  c0.7,1.1,1.3,2.1,0.7,2.7c-0.6,0.6-1.6,0-2.5-0.5c-0.2-0.1-0.3-0.4-0.2-0.7c0.1-0.2,0.4-0.3,0.7-0.2c0.2,0.1,0.9,0.6,1.3,0.6  c-0.1-0.3-0.5-1-0.8-1.4C76.8,42.7,76.2,41.8,76.5,41.2z"/>
<path class="st6" d="M22.5,47.5c1.1,0.4-1.6,7.5-0.4,8c1.1,0.5,3.9-6.6,5-6.2c1.1,0.4-1.6,7.5-0.4,8s3.9-6.6,5-6.2  c1.1,0.4-1.6,7.5-0.4,8c1.1,0.4,3.9-6.6,5-6.2"/>
</svg>