<?xml version="1.0" encoding="utf-8"?>
<!-- Generator: Adobe Illustrator 22.0.1, SVG Export Plug-In . SVG Version: 6.00 Build 0)  -->
<svg version="1.1" id="Слой_3" xmlns="http://www.w3.org/2000/svg" xmlns:xlink="http://www.w3.org/1999/xlink" x="0px" y="0px"
	 viewBox="0 0 257 257" style="enable-background:new 0 0 257 257;" xml:space="preserve">
<style type="text/css">
	.st0{fill:#FF0099;}
	.st1{fill:#993399;}
	.st2{fill:#663399;}
</style>
<path class="st0" d="M103.9,257.1c-0.3,0-0.6,0-0.9,0l0,0H0V153.2c0-0.6,0-1.3,0-1.9C1,94.9,47.2,49.3,103.9,49.3V257.1z"/>
<path class="st0" d="M0,128.6V0.1h128.5C57.5,0.1,0,57.7,0,128.6z"/>
<path class="st1" d="M213.6,0v32.4C190.9,12.4,161.1,0,128.5,0H213.6z"/>
<path class="st1" d="M128.5,257.2c32.6,0,62.5-12.2,85.2-32.3v32.3H128.5z"/>
<path class="st2" d="M257,0.1v128.5c0-38.4-16.8-72.9-43.5-96.4V0.1H257z"/>
<path class="st2" d="M257,128.6v128.5h-43.5v-32.1C240.2,201.5,257,167,257,128.6z"/>
<path class="st1" d="M173.2,75.8v155c-18.7,16.1-43.3,26.4-70.2,26.4V49.3C129.9,49.3,154.5,59.6,173.2,75.8z"/>
<path class="st2" d="M207.8,153.2c0,31.1-13.6,58.9-35.2,78V75.3C194.2,94.3,207.8,122.1,207.8,153.2z"/>
</svg>
