<?xml version="1.0" encoding="utf-8"?>
<!-- Generator: Adobe Illustrator 22.0.1, SVG Export Plug-In . SVG Version: 6.00 Build 0)  -->
<svg version="1.1" id="Слой_2_1_" xmlns="http://www.w3.org/2000/svg" xmlns:xlink="http://www.w3.org/1999/xlink" x="0px"
	 y="0px" viewBox="0 0 1133.9 1133.9" style="enable-background:new 0 0 1133.9 1133.9;" xml:space="preserve">
<style type="text/css">
	.st0{fill:#5F2688;}
	.st1{fill:#E6008D;}
	.st2{fill:#8D2089;}
</style>
<path class="st0" d="M1115,172v586h-77V472H745l-79,259l-76,255V758h-87c0,0-18.2-70.9-36.4-142.6C466,613,430,471,430,471h-51v-68
	h230l57-231h78.5v230H1038l0.2-230C1038.2,172,1115,172,1115,172z"/>
<path class="st1" d="M666,172v559l-76,255V758h-87c0,0-18.2-70.9-36.4-142.6C466,613,430,471,430,471h-51v-68h34l-34-132L258.8,758
	H173L17,172h81l123,489l121-489h79l59,231h129L666,172z"/>
<path class="st2" d="M379,403v68h211v515l76-255V403L379,403L379,403z"/>
</svg>
