<?xml version="1.0" encoding="utf-8"?>
<!-- Generator: Adobe Illustrator 19.0.1, SVG Export Plug-In . SVG Version: 6.00 Build 0)  -->
<svg version="1.1" id="Слой_2" xmlns="http://www.w3.org/2000/svg" xmlns:xlink="http://www.w3.org/1999/xlink" x="0px" y="0px"
	 viewBox="87 -286.9 1133.9 1133.9" style="enable-background:new 87 -286.9 1133.9 1133.9;" xml:space="preserve">
<style type="text/css">
	.st0{fill:#141124;}
	.st1{fill:#8C508C;}
	.st2{fill:#271C3E;}
</style>
<path class="st0" d="M1202-114.9v586h-77v-286H832l-79,259l-76,255v-228h-87c0,0-18.2-70.9-36.4-142.6
	C553,326.1,517,184.1,517,184.1h-51v-68h230l57-231h78.5v230H1125l0.2-230H1202z"/>
<path class="st1" d="M753-114.9v559l-76,255v-228h-87c0,0-18.2-70.9-36.4-142.6C553,326.1,517,184.1,517,184.1h-51v-68h34l-34-132
	l-120.2,487H260l-156-586h81l123,489l121-489h79l59,231h129L753-114.9z"/>
<path class="st2" d="M466,116.1v68h211v515l76-255v-328H466z"/>
</svg>
