<?xml version="1.0" standalone="no"?>
<!DOCTYPE svg PUBLIC "-//W3C//DTD SVG 20010904//EN"
 "http://www.w3.org/TR/2001/REC-SVG-20010904/DTD/svg10.dtd">
<svg version="1.0" xmlns="http://www.w3.org/2000/svg"
 width="700.000000pt" height="700.000000pt" viewBox="0 0 700.000000 700.000000"
 preserveAspectRatio="xMidYMid meet">
<metadata>
Created by potrace 1.11, written by Peter Selinger 2001-2013
</metadata>
<g transform="translate(0.000000,700.000000) scale(0.100000,-0.100000)"
fill="#000000" stroke="none">
<path d="M110 5930 c0 -6 11 -52 24 -103 39 -144 66 -246 88 -327 11 -41 22
-82 24 -90 20 -76 38 -145 69 -260 20 -74 40 -152 46 -172 5 -20 41 -155 80
-300 39 -145 75 -279 79 -298 4 -19 17 -71 29 -115 13 -44 38 -138 57 -210 19
-71 43 -164 55 -205 11 -41 36 -133 55 -205 32 -123 82 -310 158 -595 18 -69
54 -204 80 -300 25 -96 61 -231 80 -300 l33 -125 265 -3 266 -2 82 332 c99
403 318 1290 366 1483 19 77 37 151 40 165 3 14 14 61 25 105 12 44 22 87 24
95 13 62 198 796 201 799 8 9 14 -8 57 -179 25 -96 67 -263 95 -370 28 -107
52 -204 54 -215 3 -23 6 -22 -114 -24 l-88 -1 0 -210 0 -209 646 0 c356 0 649
-2 652 -5 2 -3 5 -715 5 -1583 l0 -1578 22 70 c12 39 91 300 175 580 265 890
415 1391 525 1750 36 116 102 334 148 485 l83 275 895 1 c491 1 899 -2 904 -5
7 -4 11 -290 10 -881 l0 -875 238 -3 237 -2 0 1809 0 1810 -235 0 c-129 0
-235 -4 -236 -7 0 -4 -2 -321 -2 -704 -1 -383 -5 -699 -9 -703 -5 -5 -1379 -9
-1754 -6 l-51 1 0 708 0 707 -240 2 -241 2 -27 -107 c-15 -59 -28 -114 -30
-122 -2 -8 -42 -172 -90 -365 -47 -192 -111 -449 -140 -570 -30 -121 -57 -230
-61 -242 l-6 -21 -398 -1 -399 0 -11 47 c-5 26 -12 54 -14 62 -13 46 -59 227
-61 240 -2 8 -23 94 -48 190 -87 334 -159 615 -163 633 -2 10 -6 27 -9 37 -3
10 -8 27 -10 37 -2 10 -13 52 -24 93 -11 41 -21 78 -21 82 0 4 -110 7 -244 7
l-244 0 -12 -47 c-6 -26 -13 -54 -15 -62 -2 -8 -73 -296 -159 -640 -193 -779
-337 -1360 -341 -1380 -2 -8 -17 -71 -35 -140 -18 -69 -33 -132 -35 -140 -2
-8 -13 -53 -25 -100 -12 -47 -24 -96 -26 -110 -3 -14 -8 -34 -11 -45 -4 -11
-8 -24 -9 -30 -19 -94 -77 -315 -81 -311 -3 3 -9 22 -13 43 -5 21 -42 171 -83
333 -42 162 -206 817 -367 1454 -160 638 -293 1163 -296 1167 -7 12 -494 10
-494 -1z"/>
<path d="M2710 3882 c0 -8 27 -120 61 -250 33 -130 99 -388 145 -572 47 -184
99 -387 116 -450 16 -63 39 -154 51 -202 l20 -88 171 0 171 0 0 785 c0 432 -2
786 -5 786 -3 1 -168 2 -368 3 -295 1 -362 -1 -362 -12z"/>
</g>
</svg>
