<?xml version="1.0" encoding="utf-8"?>
<!-- Generator: Adobe Illustrator 22.0.1, SVG Export Plug-In . SVG Version: 6.00 Build 0)  -->
<svg version="1.1" id="Слой_1" xmlns="http://www.w3.org/2000/svg" xmlns:xlink="http://www.w3.org/1999/xlink" x="0px" y="0px"
	 viewBox="0 0 100 100" style="enable-background:new 0 0 100 100;" xml:space="preserve">
<g>
	<path d="M49.6,52.3c19.3,0,41.7-4.4,43.7-8.4c2-4-24.9-9.3-24.9-9.3c-6.4,3-18.9,3-18.9,3s-12.4,0-18.9-3c0,0-26.8,5.4-24.8,9.4
		C7.9,47.9,29.7,52.3,49.6,52.3z"/>
	<path d="M66.2,26.9c0,0-3.8-21.6-6.6-25.8s-7,5-11.3,5S43,0.2,39.1,0c-4-0.2-7.9,26.9-7.9,26.9S51.7,31.6,66.2,26.9z"/>
	<path d="M31.1,53.7c0,0-1.8,8.2,8.9,8.4c0,0,4.1,0,6.2-3.7c0.7-1.1,1.7-1.8,3-1.8h0.4c1.2,0,2.3,0.7,3,1.8c2.1,3.7,6.2,3.7,6.2,3.7
		c10.7-0.2,8.9-8.4,8.9-8.4c-4.9,1.7-12.6,1.6-15.2,1.4l0,0c-0.7,0-1,0-1,0l0,0h-4.2C47.4,55,37.1,55.6,31.1,53.7z"/>
	<path d="M26.9,53.7l-8.2-1.2L4.4,64.7c0.3,0,0.9,0,1.3,0c6.3,0,23.1,5.3,23.1,5.3L20,77.7c6.7,1.3,27.7,12.6,27.7,12.6l2-7.3
		C32.9,70.6,26.9,53.7,26.9,53.7z"/>
	<path d="M99,64.3l-17.2-12l-9.2,1.2c0.6,3-1.3,8.4-1.3,8.4C44.7,82.1,49,100,49,100c10.6-20.9,33.8-23.8,33.8-23.8l-10.6-5
		C79.1,66.9,99,64.3,99,64.3z"/>
</g>
</svg>
