<?xml version="1.0" encoding="UTF-8"?>
<!-- Generator: Adobe Illustrator 22.0.1, SVG Export Plug-In . SVG Version: 6.00 Build 0)  -->
<svg version="1.1" id="Слой_1" xmlns="http://www.w3.org/2000/svg" xmlns:xlink="http://www.w3.org/1999/xlink" x="0px" y="0px" viewBox="0 0 100 100" style="enable-background:new 0 0 100 100;" xml:space="preserve">
<path style="fill:#fff;" d="M63.8,24.6c0,5.5-4.4,9.9-9.9,9.9S44,30,44,24.6s4.4-9.9,9.9-9.9S63.8,19.1,63.8,24.6z M66.1,9.8l-6-0.2l2.8-6.8l-6.2,4.6  L55.2,0l-2.2,7.6l-4-5.5l0.2,7.5l-5.5-0.7l3.6,4.9l1.2-0.9L47.1,11l3.7,0.4l-0.1-4.3l2.9,4l1.3-4.6l0.7,3.6l3.8-2.8l-1.6,3.8  l3.8,0.1l-2,1.4l0.9,1.2L66.1,9.8z M96.4,19.4H73.7V2.2h-2v19.2h24.6v-2.1H96.4z M80.2,28.9c-0.4-2.1-2.4-3.4-4.4-3  c-1.2,0.2-2.1,1-2.7,2c0,0-7.1,10.3-8.8,12.8c-2.9,4.3-8.2,1.7-9.8,0.4c-2.7-2.2-17.9-15-19.5-16.7c-3.1-3.4,1.1-4.2,1.6-4.3  c0.4-0.1,4.6-0.9,4.6-0.9c2.1-0.4,3.4-2.4,3-4.4c-0.4-2.1-2.4-3.4-4.4-3c0,0-5.6,1.1-7.9,1.6c-4.4,0.9-9.1,7.2-4.9,13  c2.1,2.9,6,6.8,6,6.8s1.7,1.6,4.2,3.8L24.6,53.5c-1.6,2-1.9,5.8-1.4,8.2c0.6,2.4,2.2,14.3-1.8,19.9c-3.8,5.2-11.6,9.6-14.5,11.1  c-1.4,0.6-2.4,1.9-2.4,3.4c0,2,1.7,3.7,3.7,3.7c0.4,0,0.9-0.1,1.2-0.2l0.1,0.2c0,0,9.9-2,15.8-8.3c5.8-6.3,9.1-14.3,8.9-20  c0,0,6-0.8,9.3,3.7c3.3,4.4,4,9.7,0.7,14.2c-1.3,1.8-2.7,3.4-3.3,4.2c-0.7,0.7-1.1,1.6-1.1,2.7c0,2,1.7,3.7,3.7,3.7  c1,0,2-0.4,2.7-1.1l0,0c0,0,6.3-6.2,8-11.7c1.4-4.8,0.2-9.9-2.3-14.6c-2.6-4.7-6.1-7.1-9.5-8.9l9.9-13.9c1,0.8,1.9,1.3,2.3,1.7  c3.6,1.9,10.6,2.8,14.5-3c3.1-4.6,8.1-12.7,10-15.9c0.3-0.4,0.7-0.9,0.9-1.3l0,0C80.3,30.4,80.4,29.7,80.2,28.9z"/>
</svg>