<?xml version="1.0" encoding="UTF-8"?>
<!-- Generator: Adobe Illustrator 22.0.1, SVG Export Plug-In . SVG Version: 6.00 Build 0)  -->
<svg version="1.1" id="Слой_1" xmlns="http://www.w3.org/2000/svg" xmlns:xlink="http://www.w3.org/1999/xlink" x="0px" y="0px" viewBox="0 0 1000 1000" style="enable-background:new 0 0 1000 1000;" xml:space="preserve">
<style type="text/css">
	.st0{display:none;}
	.st1{opacity:0.8;}
	.st2{opacity:0.9;}
	.st3{opacity:0.55;}
	.st4{opacity:0.7;}
    
</style>
<path style="fill:#fff;" class="st0" d="M421.7,3.6c-1.1,1.1-3.3,3.3-3.3,6.7c0,6.7,3.3,8.9,8.9,8.9c6.7,0,8.9-3.3,8.9-8.9s-3.3-8.9-8.9-8.9  C423.9,0.2,422.8,0.2,421.7,3.6z M478.2,3.6c-6.7,6.7-1.1,13.3,7.8,13.3c6.7,0,11.1-3.3,11.1-8.9C494.9,0.2,483.8-3.1,478.2,3.6z   M534.8,3.6c-3.3,3.3-4.4,8.9,0,12.2c3.3,3.3,11.1,3.3,15.5,0C558.1,6.9,543.6-4.2,534.8,3.6z M591.3,3.6c-3.3,3.3-3.3,8.9,0,12.2  s12.2,3.3,13.3,0c3.3-3.3,3.3-8.9,0-12.2C602.4-0.9,594.6-0.9,591.3,3.6z M382.9,29.1c-3.3,3.3-3.3,11.1,0,15.5  c1.1,1.1,8.9,1.1,12.2-1.1c3.3-3.3,3.3-11.1,0-15.5C391.8,26.8,386.3,24.6,382.9,29.1z M631.2,29.1c-1.1,1.1-3.3,3.3-3.3,7.8  s0,6.7,3.3,8.9c1.1,1.1,3.3,3.3,4.4,3.3s3.3-1.1,4.4-3.3c3.3-3.3,4.4-3.3,4.4-8.9c0-4.4,0-6.7-3.3-7.8c-1.1-1.1-3.3-1.1-6.7-1.1  C632.3,28,632.3,28,631.2,29.1z M435,55.7c-6.7,3.3-6.7,12.2,1.1,15.5c6.7,3.3,15.5-3.3,15.5-8.9c0-1.1-1.1-3.3-3.3-4.4  C446.1,52.3,439.5,52.3,435,55.7z M506,53.4c-6.7,3.3-7.8,8.9-3.3,13.3c3.3,3.3,7.8,3.3,12.2,0c6.7-3.3,6.7-11.1,1.1-13.3  C511.5,52.3,510.4,52.3,506,53.4z M571.4,53.4c-8.9,3.3-7.8,16.6,1.1,16.6c8.9,0,15.5-8.9,8.9-15.5C579.1,52.3,578,52.3,571.4,53.4z   M459.4,72.3c-4.4,4.4-4.4,12.2,0,15.5c4.4,3.3,7.8,3.3,11.1,0c6.7-6.7,1.1-18.8-6.7-18.8C463.8,69,461.6,69,459.4,72.3z   M528.1,72.3c-3.3,3.3-3.3,12.2,0,15.5c3.3,3.3,8.9,3.3,11.1,0c1.1-1.1,3.3-4.4,3.3-6.7c0-4.4,0-4.4-1.1-7.8  C538.1,69,533.7,69,528.1,72.3z M595.7,72.3c-3.3,1.1-4.4,8.9-3.3,13.3c3.3,6.7,12.2,6.7,15.5,1.1c1.1-3.3,1.1-11.1-1.1-13.3  C603.5,69,599.1,69,595.7,72.3z M382.9,84.5c-6.7,6.7-1.1,18.8,6.7,18.8c7.8,0,11.1-12.2,4.4-18.8c-1.1-1.1-4.4-3.3-6.7-3.3  C387.4,83.4,384,83.4,382.9,84.5z M431.7,84.5c-1.1,1.1-4.4,4.4-4.4,7.8c0,3.3,7.8,8.9,11.1,8.9c7.8,0,11.1-11.1,4.4-15.5  C441.7,83.4,435,83.4,431.7,84.5z M499.3,85.6c-3.3,3.3-3.3,7.8,0,12.2c6.7,6.7,16.6,3.3,16.6-4.4c0-3.3-1.1-6.7-6.7-7.8  C507.1,83.4,503.7,83.4,499.3,85.6z M566.9,85.6c-6.7,4.4-1.1,15.5,7.8,15.5c8.9,0,12.2-7.8,4.4-13.3  C574.7,83.4,571.4,83.4,566.9,85.6z M634.5,84.5c-4.4,1.1-6.7,4.4-6.7,11.1c0,4.4,0,6.7,1.1,7.8c3.3,3.3,8.9,3.3,12.2,0  c3.3-3.3,3.3-12.2,0-15.5C640.1,84.5,635.6,83.4,634.5,84.5z M398.4,135.5c-6.7,4.4-3.3,12.2,4.4,13.3c7.8,1.1,12.2-1.1,12.2-7.8  c0-3.3-4.4-7.8-8.9-8.9C402.9,132.1,401.8,132.1,398.4,135.5z M614.6,133.2c-11.1,3.3-6.7,18.8,4.4,16.6c6.7-1.1,8.9-4.4,8.9-8.9  C626.8,135.5,620.1,132.1,614.6,133.2z M456.1,136.6c-5.5,4.4-1.1,15.5,7.8,15.5c4.4,0,7.8-3.3,7.8-8.9c0-4.4-4.4-8.9-8.9-8.9  C459.4,133.2,458.3,135.5,456.1,136.6z M498.2,136.6c-3.3,3.3-4.4,8.9,0,13.3c3.3,3.3,7.8,3.3,11.1,0c6.7-3.3,7.8-8.9,3.3-13.3  C507.1,132.1,502.6,132.1,498.2,136.6z M552.5,136.6c-1.1,1.1-3.3,3.3-3.3,6.7c0,4.4,3.3,8.9,8.9,8.9c6.7,0,11.1-3.3,11.1-8.9  c0-3.3,0-4.4-3.3-6.7C563.6,133.2,555.8,133.2,552.5,136.6z M478.2,159.8c-4.4,4.4-4.4,7.8,0,12.2c3.3,3.3,7.8,3.3,12.2,0  c4.4-3.3,4.4-8.9,0-12.2C487.1,155.4,482.7,156.5,478.2,159.8z M458.3,180.9c-6.7,4.4-2.2,15.5,5.5,15.5c4.4,0,8.9-6.7,8.9-8.9  C473.8,180.9,462.7,176.5,458.3,180.9z M545.9,195.3c-4.4,1.1-6.7,4.4-6.7,7.8c0,6.7,4.4,11.1,12.2,7.8c7.8-1.1,11.1-8.9,4.4-13.3  C554.7,193.1,551.4,192,545.9,195.3z M585.8,195.3c-3.3,3.3-4.4,8.9,0,12.2c3.3,3.3,11.1,3.3,15.5,0  C607.9,199.7,594.6,187.6,585.8,195.3z M626.8,195.3c-3.3,3.3-4.4,8.9,0,12.2c3.3,3.3,11.1,3.3,15.5,0  C650,199.7,635.6,187.6,626.8,195.3z M670,195.3c-6.7,4.4-1.1,15.5,6.7,15.5c6.7,0,11.1-3.3,11.1-8.9c0-3.3,0-4.4-3.3-6.7  C680,192,672.2,192,670,195.3z M711,195.3c-1.1,1.1-3.3,3.3-3.3,6.7c0,4.4,3.3,8.9,8.9,8.9c6.7,0,11.1-3.3,11.1-8.9  c0-3.3,0-4.4-3.3-6.7C722.1,192,715.4,192,711,195.3z M752,195.3c-3.3,3.3-3.3,8.9,0,12.2c3.3,3.3,11.1,3.3,13.3,1.1  c4.4-3.3,4.4-12.2,0-15.5C763.1,192,755.3,193.1,752,195.3z M791.9,205.3c-3.3,3.3-3.3,7.8,0,12.2c3.3,3.3,3.3,4.4,7.8,4.4  c7.8,0,11.1-6.7,7.8-12.2C803,203.1,796.4,199.7,791.9,205.3z M522.6,225.2c-1.1,1.1-1.1,4.4-1.1,7.8c0,4.4,0,6.7,3.3,7.8  c3.3,3.3,7.8,3.3,11.1-1.1c3.3-3.3,3.3-12.2,0-15.5C530.3,221.9,523.7,221.9,522.6,225.2z M798.6,245.2c-3.3,3.3-3.3,11.1,0,15.5  c1.1,1.1,3.3,3.3,6.7,3.3c6.7,0,8.9-3.3,8.9-8.9C813,244.1,804.1,239.7,798.6,245.2z M575.8,251.8c-3.3,1.1-3.3,3.3-3.3,6.7  s0,4.4,3.3,7.8s4.4,3.3,11.1,0c6.7-3.3,7.8-7.8,4.4-13.3C588,248.5,580.2,248.5,575.8,251.8z M655.6,249.6c-3.3,1.1-6.7,6.7-6.7,8.9  c0,3.3,4.4,7.8,7.8,7.8c11.1,0,15.5-8.9,8.9-15.5C663.3,248.5,660,248.5,655.6,249.6z M732.1,249.6c-4.4,3.3-6.7,4.4-6.7,8.9  c0,6.7,7.8,8.9,15.5,6.7c4.4-3.3,6.7-6.7,4.4-11.1C743.2,248.5,738.7,247.4,732.1,249.6z M522.6,268.5c-1.1,1.1-1.1,4.4-1.1,7.8  c0,6.7,3.3,8.9,7.8,8.9c4.4,0,7.8-3.3,7.8-8.9c0-4.4,0-6.7-1.1-7.8C530.3,265.1,523.7,265.1,522.6,268.5z M604.6,269.6  c-1.1,1.1-3.3,3.3-3.3,7.8c0,4.4,0,6.6,3.3,7.8c4.4,4.4,11.1,3.3,12.2-3.3c1.1-6.6,1.1-7.8-1.1-12.2  C614.6,267.4,607.9,265.1,604.6,269.6z M684.4,268.5c-3.3,1.1-4.4,3.3-6.7,8.9c0,6.6,3.3,11.1,7.8,11.1c6.7,0,7.8-3.3,7.8-8.9  c0-4.4,0-6.7-1.1-7.8C691.1,268.5,687.7,267.4,684.4,268.5z M760.9,268.5c-6.7,3.3-7.8,12.2-3.3,16.6c3.3,3.3,11.1,3.3,12.2,0  s3.3-12.2,0-15.5C767.5,267.4,764.2,267.4,760.9,268.5z M574.7,284c-6.7,3.3-6.7,8.9-1.1,13.3c6.7,6.7,15.5,4.4,15.5-4.4  c0-4.4-3.3-7.8-7.8-11.1C578,281.8,578,281.8,574.7,284z M650,285.1c-4.4,3.3-4.4,8.9,0,12.2c4.4,4.4,8.9,4.4,12.2,1.1  c6.7-4.4,4.4-11.1-1.1-15.5C655.6,281.8,652.3,281.8,650,285.1z M726.5,285.1c-3.3,3.3-3.3,8.9-1.1,12.2c3.3,3.3,7.8,6.7,8.9,6.7  c3.3,0,7.8-4.4,7.8-8.9c0-3.3-1.1-4.4-4.4-6.7C735.4,281.8,731,281.8,726.5,285.1z M798.6,288.4c-3.3,3.3-3.3,11.1,0,15.5  c1.1,1.1,3.3,3.3,6.7,3.3c6.7,0,8.9-3.3,8.9-8.9c0-6.7-3.3-8.9-8.9-8.9C800.8,285.1,799.7,287.3,798.6,288.4z M522.6,309.5  c-3.3,3.3-3.3,12.2,0,15.5c3.3,3.3,8.9,3.3,12.2,0c3.3-3.3,3.3-12.2,0-15.5S523.7,308.4,522.6,309.5z M798.6,328.3  c-3.3,1.1-6.7,8.9-6.7,13.3c3.3,7.8,11.1,7.8,15.5,1.1c3.3-4.4,3.3-11.1,0-13.3C803,326.1,800.8,326.1,798.6,328.3z M283.2,333.9  c-11.1,4.4-16.6,12.2-16.6,16.6c0,3.3,3.3,7.8,7.8,7.8c3.3,0,4.4,0,8.9-4.4c4.4-4.4,7.8-6.7,12.2-6.7c3.3-1.1,7.8-1.1,8.9-3.3  c3.3-1.1,3.3-8.9,0-12.2C299.8,331.6,290.9,331.6,283.2,333.9z M318.6,333.9c-3.3,3.3-3.3,7.8,0,11.1l3.3,3.3h16.6  c15.5,0,18.8,0,20-1.1c1.1-1.1,3.3-3.3,3.3-6.7c0-3.3-1.1-4.4-3.3-6.6c-1.1-1.1-3.3-1.1-20-1.1C323.1,332.8,319.7,332.8,318.6,333.9  z M371.8,333.9c-3.3,3.3-3.3,7.8,0,11.1c1.1,3.3,3.3,3.3,20,3.3c20,0,21.1,0,21.1-7.8c0-7.8-1.1-7.8-21.1-7.8  C377.4,332.8,375.2,332.8,371.8,333.9z M427.3,333.9c-1.1,1.1-3.3,3.3-3.3,4.4c0,1.1,3.3,6.7,3.3,7.8c0,0,8.9,1.1,18.8,1.1  c18.8,0,20,0,21.1-6.7c0-1.1,0-3.3-1.1-6.6c-1.1-3.3-1.1-3.3-20-3.3h-16.6L427.3,333.9z M481.6,333.9c-3.3,3.3-3.3,8.9,0,12.2  c1.1,1.1,4.4,1.1,20,1.1c16.6,0,18.8,0,20-3.3c3.3-3.3,3.3-7.8,0-11.1c-1.1-1.1-3.3-1.1-20-1.1C483.8,332.8,482.7,332.8,481.6,333.9  z M534.8,333.9c-1.1,1.1-3.3,3.3-3.3,6.6c0,1.1,1.1,4.4,3.3,6.7c1.1,1.1,3.3,3.3,20,3.3s16.6,0,20-3.3c1.1-1.1,1.1-3.3,1.1-6.7  c0-1.1-1.1-4.4-1.1-6.6c-1.1-1.1-3.3-1.1-20-1.1C539.2,332.8,538.1,332.8,534.8,333.9z M586.9,341.6c-1.1,0-1.1,1.1-3.3,4.4  c0,4.4,0,4.4,3.3,8.9c3.3,4.4,7.8,15.5,7.8,20c0,4.4,11.1,7.8,13.3,3.3c3.3-3.3,1.1-16.6-3.3-25.5  C600.2,343.8,594.6,340.5,586.9,341.6z M626.8,343.8c-3.3,3.3-3.3,7.8,0,11.1c1.1,3.3,3.3,3.3,7.8,3.3c7.8,0,8.9-1.1,8.9-7.8  c0-6.7-3.3-7.8-11.1-7.8C630.1,341.6,626.8,343.8,626.8,343.8z M667.8,344.9c-1.1,1.1-3.3,3.3-3.3,4.4c0,3.3,3.3,7.8,6.7,8.9  c3.3,1.1,4.4,1.1,7.8,0c8.9-4.4,6.7-16.6-4.4-16.6C671.1,341.6,670,343.8,667.8,344.9z M715.4,344.9c-7.8,8.9,4.4,20,12.2,12.2  c7.8-6.7,4.4-15.5-4.4-15.5C718.8,341.6,716.5,341.6,715.4,344.9z M755.3,344.9c-3.3,3.3-3.3,7.8,0,11.1c1.1,1.1,3.3,3.3,7.8,3.3  c8.9,0,13.3-6.7,7.8-13.3c-1.1-3.3-3.3-3.3-7.8-3.3C759.8,341.6,758.7,343.8,755.3,344.9z M691.1,369.3c-3.3,3.3-3.3,7.8,0,12.2  c3.3,3.3,3.3,3.3,7.8,3.3c6.7,0,7.8-3.3,7.8-7.8C706.6,369.3,696.6,364.9,691.1,369.3z M715.4,369.3c-3.3,3.3-3.3,11.1,0,13.3  c3.3,3.3,8.9,3.3,12.2,0c4.4-6.7,1.1-15.5-6.7-15.5C718.8,368.2,716.5,368.2,715.4,369.3z M261,371.5c-3.3,2.2-3.3,2.2-3.3,17.7  c0,20,1.1,23.3,8.9,23.3c7.8,0,7.8-1.1,7.8-21.1c0-15.5,0-16.6-3.3-18.8C269.9,368.2,263.2,368.2,261,371.5z M598,395.9l-3.3,1.1  v16.6c0,15.5,0,18.8,1.1,20c3.3,3.3,7.8,3.3,11.1,0c3.3-1.1,3.3-3.3,3.3-20v-17.7l-3.3-1.1c-1.1-1.1-3.3-3.3-4.4-3.3  C600.2,392.6,599.1,393.7,598,395.9z M714.3,395.9c-6.7,4.4-1.1,15.5,6.7,15.5c6.7,0,8.9-3.3,8.9-8.9  C728.7,393.7,722.1,389.3,714.3,395.9z M330.8,401.5c-4.4,1.1-8.9,6.6-8.9,8.9c0,7.8,6.7,11.1,13.3,7.8c3.3-1.1,6.7-1.1,8.9-1.1  c13.3,1.1,13.3,1.1,16.6,0c1.1-3.3,3.3-6.7,1.1-8.9C359.7,401.5,341.9,398.1,330.8,401.5z M423.9,403.7c-4.4,1.1-8.9,6.7-8.9,8.9  s3.3,7.8,4.4,7.8c1.1,0,4.4,0,6.7,0c4.4-1.1,13.3-1.1,20,0c3.3,0,6.7,0,7.8-1.1c3.3-3.3,3.3-8.9,0-12.2  C449.4,401.5,433.9,400.4,423.9,403.7z M518.1,403.7c-8.9,3.3-12.2,8.9-7.8,15.5c1.1,3.3,3.3,3.3,7.8,3.3c7.8-1.1,15.5-1.1,21.1,0  c3.3,0,4.4,0,7.8-1.1c3.3-3.3,3.3-8.9,0-12.2C542.5,401.5,527,400.4,518.1,403.7z M263.2,423.6c-4.4,1.1-4.4,6.7-4.4,23.3  c0,15.5,0,15.5,3.3,18.8c3.3,3.3,7.8,3.3,11.1,0s3.3-3.3,3.3-20c0-13.3,0-16.6-1.1-18.8C271,423.6,266.5,421.4,263.2,423.6z   M314.2,425.9c-3.3,1.1-3.3,3.3-3.3,7.8c0,13.3,11.1,27.7,21.1,27.7c3.3,0,4.4,0,6.7-3.3c3.3-4.4,1.1-7.8-3.3-13.3  c-4.4-4.4-6.7-6.7-6.7-11.1c0-3.3-1.1-6.6-3.3-7.8C319.7,423.6,317.5,423.6,314.2,425.9z M361.9,428.1c-1.1,1.1-3.3,4.4-3.3,6.7  c0,4.4-3.3,8.9-7.8,12.2c-3.3,3.3-4.4,3.3-4.4,7.8c0,6.7,3.3,7.8,7.8,7.8c3.3,0,4.4-1.1,11.1-6.7c6.7-6.7,8.9-13.3,8.9-23.3  C375.2,424.8,366.3,421.4,361.9,428.1z M407.3,428.1c-3.3,3.3-3.3,3.3-3.3,8.9c0,8.9,4.4,15.5,11.1,21.1c7.8,7.8,16.6,4.4,16.6-4.4  c0-3.3-1.1-4.4-4.4-7.8s-4.4-6.7-6.7-7.8c0-1.1,0-4.4-1.1-6.7C418.4,425.9,411.7,423.6,407.3,428.1z M453.9,428.1  c-1.1,1.1-3.3,4.4-3.3,6.7c0,4.4-3.3,8.9-7.8,12.2c-3.3,3.3-4.4,3.3-4.4,7.8c0,4.4,3.3,7.8,8.9,7.8c3.3,0,4.4-1.1,11.1-6.7  c12.2-12.2,13.3-32.1,1.1-32.1C458.3,425.9,456.1,425.9,453.9,428.1z M499.3,428.1c-6.7,4.4-3.3,20,7.8,28.8  c4.4,4.4,6.7,6.6,11.1,6.6c6.7,0,7.8-3.3,7.8-7.8c0-3.3,0-4.4-4.4-7.8c-4.4-3.3-7.8-7.8-7.8-13.3c0-4.4-4.4-8.9-7.8-8.9  C503.7,425.9,502.6,425.9,499.3,428.1z M548.1,428.1c-1.1,1.1-2.2,2.2-2.2,2.2c0,4.4-3.3,11.1-7.8,15.5c-6.7,6.7-6.7,11.1-3.3,13.3  c3.3,3.3,8.9,3.3,15.5-3.3c12.2-11.1,15.5-32.1,3.3-32.1C552.5,425.9,550.3,425.9,548.1,428.1z M595.7,449.1  c-1.1,1.1-3.3,3.3-3.3,15.5V478h-11.1c-8.9,0-11.1,0-12.2,3.3c-1.1,4.4-1.1,6.7,0,8.9c1.1,4.4,6.7,6.7,24.4,4.4  c15.5,0,16.6,0,18.8-3.3c3.3-3.3,3.3-7.8,0-11.1c-1.1-1.1-1.1-6.7-1.1-16.6c0-12.2,0-13.3-3.3-16.6  C604.6,445.8,599.1,445.8,595.7,449.1z M261,480.2c-2.2,1.1-3.3,4.4-3.3,5.5c0,8.9,4.4,23.3,11.1,28.8c3.3,3.3,8.9,3.3,13.3,0  c3.3-3.3,3.3-6.6,0-12.2c-3.3-4.4-6.7-12.2-6.7-18.8C275.4,476.8,265.4,473.5,261,480.2z M527,482.4c-12.2,6.7-15.5,13.3-8.9,20  c3.3,3.3,8.9,3.3,13.3-1.1c3.3-3.3,4.4-3.3,12.2-4.4c11.1,0,13.3-3.3,13.3-8.9c0-6.7-3.3-7.8-13.3-7.8  C535.9,480.2,533.7,480.2,527,482.4z M627.9,481.3c-3.3,3.3-3.3,7.8,0,11.1c1.1,3.3,3.3,3.3,20,3.3c18.8,0,18.8,0,21.1-3.3  c3.3-3.3,3.3-7.8,0-11.1s-3.3-3.3-20-3.3h-20L627.9,481.3z M684.4,481.3c-3.3,3.3-3.3,7.8,0,11.1c1.1,3.3,3.3,3.3,18.8,3.3  c16.6,0,20,0,23.3-3.3c3.3-3.3,3.3-7.8,0-11.1l-3.3-3.3h-18.8C687.7,480.2,686.6,480.2,684.4,481.3z M740.9,481.3  c-3.3,3.3-3.3,7.8,0,12.2c1.1,3.3,3.3,3.3,13.3,3.3c7.8,0,12.2,1.1,15.5,3.3c4.4,3.3,8.9,1.1,12.2-3.3c3.3-4.4,0-8.9-6.7-12.2  c-4.4-3.3-6.7-3.3-18.8-3.3C744.3,478,743.2,480.2,740.9,481.3z M779.7,510.1c-3.3,1.1-3.3,3.3-3.3,20c0,20,0,21.1,6.7,23.3  c1.1,0,3.3,0,6.7-1.1l3.3-1.1v-18.8c0-16.6,0-18.8-1.1-20C788.6,509,784.2,507.9,779.7,510.1z M294.3,514.5c-3.3,3.3-3.3,7.8,0,12.2  c3.3,3.3,3.3,3.3,18.8,3.3c20,0,23.3-1.1,23.3-8.9c0-1.1-1.1-4.4-1.1-6.6c-1.1-1.1-3.3-1.1-18.8-1.1  C297.6,512.3,295.4,512.3,294.3,514.5z M347.5,513.4c-1.1,1.1-3.3,3.3-3.3,6.7c0,1.1,0,4.4,1.1,6.7c1.1,1.1,6.7,3.3,8.9,3.3  c2.2,0,3.3,0,3.3,4.4c0,7.8,7.8,11.1,13.3,6.7c1.1-1.1,1.1-4.4,1.1-12.2c0-13.3,0-15.5-13.3-15.5  C354.1,512.3,350.8,512.3,347.5,513.4z M418.4,513.4c-1.1,0-4.4,4.4-7.8,7.8c-6.7,7.8-7.8,12.2-1.1,15.5c4.4,3.3,7.8,3.3,13.3-3.3  c4.4-4.4,4.4-4.4,11.1-4.4c8.9,0,12.2-3.3,12.2-8.9c0-6.7-3.3-7.8-15.5-7.8C423.9,512.3,419.5,512.3,418.4,513.4z M458.3,514.5  c-1.1,1.1-3.3,3.3-3.3,6.6s0,4.4,3.3,6.7c1.1,1.1,4.4,1.1,18.8,1.1c15.5,0,16.6,0,18.8-3.3c3.3-3.3,3.3-7.8,0-11.1  c-3.3-3.3-3.3-3.3-20-3.3C462.7,512.3,461.6,512.3,458.3,514.5z M513.7,513.4c0,0-3.3,3.3-3.3,4.4c-1.1,3.3-3.3,6.7-3.3,20  s0,16.6,3.3,18.8c3.3,3.3,8.9,4.4,12.2,0c1.1-1.1,3.3-3.3,3.3-20c0-18.8-1.1-21.1-6.7-23.3c-1.1,0-3.3-1.1-1.1-1.1  C515.9,512.3,515.9,512.3,513.7,513.4z M565.8,534.5c-8.9,4.4-15.5,13.3-15.5,24.4c0,4.4,0,6.7,3.3,7.8c6.7,4.4,12.2,1.1,13.3-6.7  c1.1-6.7,6.7-11.1,8.9-11.1c4.4,0,8.9-4.4,8.9-8.9C585.8,532.3,575.8,528.9,565.8,534.5z M640.1,534.5c-8.9,4.4-15.5,13.3-15.5,23.3  c0,6.7,1.1,8.9,7.8,8.9c4.4,0,7.8-3.3,7.8-8.9c0-3.3,1.1-6.7,3.3-7.8c1.1-1.1,4.4-3.3,7.8-3.3c3.3,0,4.4-1.1,6.7-3.3  c3.3-3.3,3.3-8.9,0-12.2C655.6,532.3,646.7,532.3,640.1,534.5z M715.4,534.5c-4.4,3.3-12.2,8.9-13.3,13.3c-3.3,6.7-1.1,13.3,0,16.6  c3.3,3.3,8.9,3.3,12.2,0c1.1-1.1,1.1-3.3,3.3-6.7c1.1-4.4,4.4-8.9,8.9-11.1c6.7-1.1,8.9-3.3,8.9-7.8c0-6.7-1.1-8.9-8.9-8.9  C723.2,532.3,718.8,533.4,715.4,534.5z M390.7,544.5c-11.1,12.2-12.2,15.5-7.8,21.1c4.4,4.4,7.8,3.3,15.5-3.3  c8.9-8.9,12.2-13.3,11.1-18.8c-1.1-4.4-3.3-6.7-8.9-6.7C398.4,536.7,397.3,537.8,390.7,544.5z M591.3,553.3  c-1.1,1.1-3.3,3.3-3.3,6.7c0,4.4-6.7,11.1-11.1,11.1c-7.8,0-11.1,11.1-4.4,15.5c3.3,1.1,3.3,1.1,8.9,1.1c3.3,0,7.8-3.3,11.1-4.4  c6.7-3.3,8.9-11.1,11.1-18.8c1.1-6.7,1.1-6.7-1.1-8.9C600.2,550,594.6,550,591.3,553.3z M667.8,552.2c-3.3,1.1-4.4,3.3-6.7,8.9  c-1.1,4.4-4.4,8.9-11.1,8.9c-6.7,1.1-7.8,3.3-7.8,7.8c0,6.7,3.3,7.8,8.9,7.8c7.8,0,12.2-3.3,18.8-7.8c8.9-8.9,12.2-24.4,4.4-27.7  C672.2,550,672.2,550,667.8,552.2z M744.3,552.2c-3.3,1.1-4.4,3.3-6.7,7.8c-1.1,6.7-4.4,8.9-11.1,11.1c-6.7,1.1-8.9,3.3-8.9,8.9  c0,6.7,3.3,7.8,8.9,7.8c12.2,0,24.4-8.9,25.5-23.3c0-6.7-1.1-11.1-4.4-12.2C747.6,550,747.6,550,744.3,552.2z M361.9,564.4  c-1.1,1.1-3.3,3.3-3.3,12.2c0,12.2,1.1,15.5,8.9,15.5c3.3,0,4.4-1.1,11.1-6.7c3.3-3.3,6.7-7.8,7.8-8.9c1.1-4.4-1.1-8.9-4.4-8.9  c-1.1,0-4.4-1.1-6.7-3.3C369.6,561.1,365.2,562.2,361.9,564.4z M779.7,566.6c-3.3,1.1-3.3,3.3-3.3,20v18.8l3.3,3.3  c3.3,3.3,7.8,3.3,11.1,0c1.1-1.1,1.1-4.4,1.1-20c0-16.6,0-18.8-3.3-20C788.6,565.5,784.2,565.5,779.7,566.6z M511.5,573.3  c-4.4,1.1-4.4,6.6-4.4,24.4c0,13.3,0,15.5,3.3,16.6c3.3,3.3,8.9,3.3,12.2,0c1.1-1.1,3.3-3.3,3.3-20c0-16.6,0-18.8-3.3-20  C519.3,572.2,515.9,569.9,511.5,573.3z M767.5,622c-3.3,1.1-6.7,1.1-13.3,1.1c-8.9,0-11.1,0-12.2,3.3c-3.3,3.3-3.3,8.9,1.1,12.2  c3.3,3.3,4.4,3.3,13.3,1.1c8.9,0,12.2-1.1,18.8-3.3c8.9-4.4,11.1-8.9,6.7-15.5C778.6,618.7,773.1,617.6,767.5,622z M530.3,622  c-3.3,1.1-6.7,4.4-6.7,7.8c0,8.9,4.4,11.1,23.3,11.1c13.3,0,15.5,0,18.8-1.1c3.3-3.3,4.4-7.8,1.1-12.2c-1.1-1.1-3.3-3.3-16.6-3.3  c-7.8,0-15.5-1.1-16.6-1.1C533.7,622,531.5,622,530.3,622z M585.8,625.4c-4.4,3.3-4.4,12.2,1.1,15.5c1.1,0,11.1,1.1,18.8,1.1  c15.5,0,15.5,0,18.8-3.3c3.3-3.3,3.3-8.9,0-12.2s-3.3-3.3-20-3.3C594.6,624.3,585.8,624.3,585.8,625.4z M640.1,626.5  c-1.1,1.1-3.3,4.4-3.3,6.7c0,2.2,1.1,4.4,3.3,6.7c3.3,3.3,3.3,3.3,8.9,3.3c6.7,0,6.7,0,11.1,4.4c6.7,6.7,8.9,6.7,13.3,3.3  c4.4-4.4,3.3-8.9-6.7-18.8l-4.4-4.4h-11.1C643.4,624.3,643.4,624.3,640.1,626.5z M698.8,625.4c-1.1,1.1-1.1,3.3-1.1,12.2  c0,7.8,0,11.1,1.1,12.2c6.7,6.7,13.3,1.1,13.3-6.7c0-4.4,0-4.4,3.3-4.4c3.3,0,7.8-1.1,8.9-3.3c0,0,1.1-3.3,1.1-6.6  c0-6.7-3.3-7.8-15.5-7.8C703.2,624.3,702.1,624.3,698.8,625.4z M193.4,649.8c-12.2,6.7-21.1,16.6-23.3,31  c-1.1,8.9-1.1,119.7,0,128.6c3.3,13.3,11.1,24.4,24.4,31l6.7,3.3h34.4H271v36.6c0,20,0,36.6,0,38.8c0,1.1,8.9-7.8,33.3-36.6  l33.3-38.8h70.9h70.9v17.7c0,21.1,1.1,28.8,6.7,38.8c4.4,7.8,11.1,13.3,18.8,18.8l6.7,3.3H588h76.5l32.1,38.8l33.3,38.8v-20  c0-11.1,1.1-28.8,1.1-38.8v-18.8h35.5h34.4l6.7-3.3c8.9-4.4,15.5-11.1,20-20l3.3-7.8v-67.6v-67.6l-1.1-6.6  c-3.3-7.8-11.1-15.5-18.8-20l-6.7-3.3H663.3H522.6v-24.4c0-23.3,0-24.4-3.3-31c-3.3-7.8-11.1-15.5-18.8-20l-6.7-3.3H347.5H201.2  L193.4,649.8z M487.1,663.1c7.8,1.1,13.3,8.9,16.6,16.6c1.1,4.4,1.1,16.6,1.1,65.4c0,65.4,0,64.3-6.7,72c-7.8,8.9-3.3,7.8-90.9,7.8  h-77.6l-20,25.5l-21.1,24.4v-11.1c0-6.7,0-16.6-1.1-24.4v-12.2h-41c-23.3,0-41,0-44.3-1.1c-1.1,0-6.7-3.3-8.9-6.7  c-7.8-7.8-7.8-7.8-6.7-77.6c0-59.9,0-61,3.3-65.4c3.3-6.6,7.8-11.1,13.3-12.2C208.9,663.1,478.2,661.9,487.1,663.1z M798.6,742.9  c7.8,1.1,13.3,8.9,16.6,16.6c1.1,4.4,1.1,16.6,1.1,65.4c0,65.4,0,64.3-6.7,72c-6.7,8.9-6.7,8.9-53.2,8.9h-41v24.4v24.4l-21.1-24.4  l-22.2-24.4h-76.5c-48.8,0-77.6,0-80.9-1.1c-1.1,0-6.7-3.3-8.9-6.7c-7.8-7.8-7.8-12.2-7.8-36.6v-20l4.4-3.3  c7.8-4.4,12.2-11.1,15.5-18.8l3.3-7.8v-33.3c0-18.8,0-35.5,0-35.5C522.6,740.6,790.8,740.6,798.6,742.9z M242.2,717.4  c-6.7,3.3-15.5,11.1-18.8,16.6c-1.1,4.4-3.3,7.8-3.3,13.3c0,13.3,6.7,24.4,20,31c7.8,3.3,21.1,3.3,28.8-1.1  c23.3-13.3,21.1-45.4-1.1-58.7C262.1,715.1,249.9,714,242.2,717.4z M262.1,734c7.8,4.4,11.1,13.3,6.7,21.1  c-7.8,12.2-24.4,8.9-28.8-4.4c-1.1-3.3-1.1-6.7,1.1-8.9C243.3,732.9,253.2,729.6,262.1,734z M337.5,717.4c-7.8,3.3-15.5,8.9-20,16.6  c-3.3,6.7-3.3,23.3,0,27.7c6.7,11.1,15.5,16.6,27.7,18.8c11.1,0,18.8-1.1,25.5-8.9c15.5-15.5,12.2-39.9-7.8-52.1  c-4.4-3.3-7.8-3.3-13.3-3.3C345.2,715.1,338.6,717.4,337.5,717.4z M355.2,735.1c11.1,6.7,11.1,21.1,0,27.7  c-11.1,6.7-23.3-1.1-23.3-13.3C331.9,737.3,345.2,729.6,355.2,735.1z M430.6,717.4c-23.3,7.8-28.8,36.6-12.2,53.2  c7.8,7.8,15.5,11.1,25.5,8.9c8.9,0,13.3-3.3,20-8.9c13.3-12.2,13.3-33.3,1.1-45.4c-6.7-6.7-12.2-8.9-21.1-8.9  C436.1,715.1,431.7,717.4,430.6,717.4z M449.4,735.1c13.3,7.8,7.8,28.8-7.8,28.8c-8.9,0-15.5-6.7-15.5-15.5  c0-8.9,6.7-15.5,15.5-15.5C442.8,732.9,447.2,734,449.4,735.1z M552.5,792.7c-6.7,3.3-15.5,11.1-18.8,16.6  c-1.1,4.4-3.3,7.8-3.3,13.3c0,13.3,6.7,24.4,20,31c7.8,3.3,21.1,3.3,28.8-1.1c23.3-13.3,21.1-45.4-1.1-58.7  C572.5,790.5,560.3,789.4,552.5,792.7z M650,792.7c-7.8,3.3-15.5,8.9-20,16.6c-3.3,6.7-3.3,23.3,0,27.7  c6.7,11.1,15.5,16.6,27.7,18.8c11.1,0,18.8-1.1,25.5-8.9c15.5-15.5,12.2-39.9-7.8-52.1c-4.4-3.3-7.8-3.3-13.3-3.3  C655.6,792.7,651.2,792.7,650,792.7z M740.9,792.7c-23.3,7.8-28.8,36.6-12.2,53.2c7.8,7.8,15.5,11.1,25.5,8.9c8.9,0,12.2-3.3,20-8.9  c13.3-12.2,13.3-33.3,1.1-45.4c-6.7-6.7-12.2-8.9-21.1-8.9C747.6,790.5,743.2,792.7,740.9,792.7z M698.8,663.1  c-1.1,1.1-3.3,1.1-4.4,1.1c-3.3,0-7.8,4.4-7.8,7.8s1.1,6.7,7.8,13.3c4.4,4.4,6.7,6.7,8.9,6.7c7.8,0,8.9-3.3,8.9-15.5  c0-8.9,0-11.1-3.3-12.2C707.7,660.8,702.1,660.8,698.8,663.1z"/>
<path style="fill:#fff;" d="M496.2,573.5H151.8c-22.6,0-41,18.3-41,40.9v155.3c0,22.6,18.3,41,41,41h81.9l0.2,91.5l83.8-91.5h178.4  c3.8,0,7.6-0.5,11.1-1.5c17.2-4.8,29.9-20.7,29.9-39.4V614.4C537.1,591.8,518.8,573.5,496.2,573.5z M517,766.5  c0,7.6-3.9,14.2-9.7,18.1c-3.4,2.3-7.5,3.6-11.9,3.6H312.3l-20.6,22.5l-39.5,43.1l-0.1-43.1l0-22.5h-98.5  c-11.9,0-21.6-9.7-21.6-21.6V615.6c0-11.9,9.7-21.6,21.6-21.6h341.9c11.9,0,21.6,9.7,21.6,21.6V766.5z"/>
<path style="fill:#fff;" d="M325.6,652.8c-23.3,0-42.3,18.9-42.3,42.3c0,23.4,18.9,42.3,42.3,42.3c23.4,0,42.3-18.9,42.3-42.3  C367.9,671.8,349,652.8,325.6,652.8z M325.6,719.2c-13.3,0-24-10.8-24-24c0-13.3,10.8-24,24-24c13.3,0,24,10.8,24,24  C349.7,708.4,338.9,719.2,325.6,719.2z"/>
<path style="fill:#fff;" d="M212.4,652.8c-23.3,0-42.3,18.9-42.3,42.3c0,23.4,18.9,42.3,42.3,42.3c23.4,0,42.3-18.9,42.3-42.3  C254.7,671.8,235.8,652.8,212.4,652.8z M212.4,719.2c-13.3,0-24-10.8-24-24c0-13.3,10.8-24,24-24c13.3,0,24,10.8,24,24  C236.5,708.4,225.7,719.2,212.4,719.2z"/>
<path style="fill:#fff;" d="M442.4,652.8c-23.3,0-42.3,18.9-42.3,42.3c0,23.4,18.9,42.3,42.3,42.3c23.4,0,42.3-18.9,42.3-42.3  C484.7,671.8,465.7,652.8,442.4,652.8z M442.4,719.2c-13.3,0-24-10.8-24-24c0-13.3,10.8-24,24-24c13.3,0,24,10.8,24,24  C466.4,708.4,455.7,719.2,442.4,719.2z"/>
<path style="fill:#fff;" d="M872.4,671.1H528.1c-3.8,0-7.6,0.5-11.1,1.5v22.6c3.4-2.3,7.5-3.6,11.9-3.6h341.9c11.9,0,21.6,9.7,21.6,21.6v150.9  c0,11.9-9.7,21.6-21.6,21.6h-98.5l0,22.5l-0.1,43.1l-39.5-43.1L712,885.7H528.9c-11.9,0-21.6-9.7-21.6-21.6v-79.5  c-3.4,2.3-7.5,3.6-11.9,3.6h-8.2v79.1c0,22.6,18.3,41,40.9,41h178.4l83.8,91.5l0.2-91.5h81.9c22.6,0,41-18.3,41-41V712  C913.4,689.4,895,671.1,872.4,671.1z"/>
<path style="fill:#fff;" d="M740.9,792.7c0,23.4-18.9,42.3-42.3,42.3c-23.4,0-42.3-18.9-42.3-42.3c0-23.3,18.9-42.3,42.3-42.3  C722,750.4,740.9,769.3,740.9,792.7z"/>
<path style="fill:#fff;" d="M854.1,792.7c0,23.4-18.9,42.3-42.3,42.3c-23.4,0-42.3-18.9-42.3-42.3c0-23.3,18.9-42.3,42.3-42.3  C835.2,750.4,854.1,769.3,854.1,792.7z"/>
<path style="fill:#fff;" d="M624.2,792.7c0,23.4-18.9,42.3-42.3,42.3c-23.4,0-42.3-18.9-42.3-42.3c0-23.3,18.9-42.3,42.3-42.3  C605.2,750.4,624.2,769.3,624.2,792.7z"/>
<path style="fill:#fff;" class="st1" d="M406.7,492.3L374,527.9l-0.1-35.6l0-18.6h-81.3c-9.9,0-17.9-8-17.9-17.9V331.1c0-9.9,8-17.9,17.9-17.9h238.3  c-4.9-4.3-8.3-10.2-9.3-17H291.2c-18.7,0-33.8,15.2-33.8,33.8v128.3c0,18.7,15.2,33.8,33.8,33.8h67.7l0.1,75.6l69.3-75.6h79.7v-18.6  h-84.3L406.7,492.3z M608,320.2h-18.9c2.4,3,3.8,6.8,3.8,10.9v113.3h16.6V330.2C609.5,326.7,609,323.4,608,320.2z"/>
<path style="fill:#fff;" class="st1" d="M434.8,361.9c-19.3,0-34.9,15.6-34.9,34.9c0,19.3,15.6,34.9,34.9,34.9c19.3,0,34.9-15.6,34.9-34.9  C469.7,377.5,454.1,361.9,434.8,361.9z M434.8,416.7c-11,0-19.9-8.9-19.9-19.9c0-11,8.9-19.9,19.9-19.9c11,0,19.9,8.9,19.9,19.9  C454.7,407.8,445.8,416.7,434.8,416.7z"/>
<path style="fill:#fff;" class="st1" d="M341.3,361.9c-19.3,0-34.9,15.6-34.9,34.9c0,19.3,15.6,34.9,34.9,34.9c19.3,0,34.9-15.6,34.9-34.9  C376.2,377.5,360.6,361.9,341.3,361.9z M341.3,416.7c-11,0-19.9-8.9-19.9-19.9c0-11,8.9-19.9,19.9-19.9c11,0,19.9,8.9,19.9,19.9  C361.1,407.8,352.2,416.7,341.3,416.7z"/>
<path style="fill:#fff;" class="st1" d="M531.3,361.9c-19.3,0-34.9,15.6-34.9,34.9c0,19.3,15.6,34.9,34.9,34.9c19.3,0,34.9-15.6,34.9-34.9  C566.2,377.5,550.6,361.9,531.3,361.9z M531.3,416.7c-11,0-19.9-8.9-19.9-19.9c0-11,8.9-19.9,19.9-19.9c11,0,19.9,8.9,19.9,19.9  C551.1,407.8,542.2,416.7,531.3,416.7z"/>
<path style="fill:#fff;" class="st2" d="M761.9,444.5H535c-14.9,0-27,12.1-27,27v102.3c0,14.9,12.1,27,27,27h117.5l55.2,60.3l0.1-60.3h54  c14.9,0,27-12.1,27-27V471.4C788.8,456.5,776.8,444.5,761.9,444.5z M775,571.6c0,7.9-6.4,14.3-14.2,14.3h-64.9l0,14.8l-0.1,28.4  l-26-28.4l-13.6-14.8H535.5c-7.9,0-14.2-6.4-14.2-14.3v-99.4c0-7.9,6.4-14.2,14.2-14.2h225.2c7.9,0,14.2,6.4,14.2,14.2V571.6z"/>
<path style="fill:#fff;" class="st2" d="M619.5,524.6c0,15.4,12.5,27.9,27.9,27.9c15.4,0,27.8-12.5,27.8-27.9c0-15.4-12.5-27.8-27.8-27.8  C632,496.7,619.5,509.2,619.5,524.6z M631.5,524.6c0-8.7,7.1-15.8,15.8-15.8c8.7,0,15.8,7.1,15.8,15.8s-7.1,15.8-15.8,15.8  C638.6,540.4,631.5,533.3,631.5,524.6z"/>
<path style="fill:#fff;" class="st2" d="M694.1,524.6c0,15.4,12.5,27.9,27.9,27.9c15.4,0,27.8-12.5,27.8-27.9c0-15.4-12.5-27.8-27.8-27.8  C706.6,496.7,694.1,509.2,694.1,524.6z M706.1,524.6c0-8.7,7.1-15.8,15.8-15.8c8.7,0,15.8,7.1,15.8,15.8s-7.1,15.8-15.8,15.8  C713.2,540.4,706.1,533.3,706.1,524.6z"/>
<path style="fill:#fff;" class="st2" d="M542.6,524.6c0,15.4,12.5,27.9,27.9,27.9c15.4,0,27.8-12.5,27.8-27.9c0-15.4-12.5-27.8-27.8-27.8  C555.1,496.7,542.6,509.2,542.6,524.6z M554.6,524.6c0-8.7,7.1-15.8,15.8-15.8c8.7,0,15.8,7.1,15.8,15.8s-7.1,15.8-15.8,15.8  C561.7,540.4,554.6,533.3,554.6,524.6z"/>
<path style="fill:#fff;" class="st3" d="M615.8-1.7H405.5c-13.8,0-25,11.2-25,25v94.8c0,13.8,11.2,25,25,25h50l0.1,55.9l51.2-55.9h109  c13.8,0,25-11.2,25-25V23.3C640.9,9.5,629.7-1.7,615.8-1.7z M628.6,116.2c0,7.3-5.9,13.2-13.2,13.2H503.5l-12.6,13.8l-24.2,26.4  l-0.1-26.4l0-13.8h-60.1c-7.3,0-13.2-5.9-13.2-13.2V24c0-7.3,5.9-13.2,13.2-13.2h208.8c7.3,0,13.2,5.9,13.2,13.2V116.2z"/>
<path style="fill:#fff;" class="st3" d="M511.7,46.8c-14.3,0-25.8,11.6-25.8,25.8c0,14.3,11.6,25.8,25.8,25.8c14.3,0,25.8-11.6,25.8-25.8  C537.5,58.3,525.9,46.8,511.7,46.8z M511.7,87.3c-8.1,0-14.7-6.6-14.7-14.7c0-8.1,6.6-14.7,14.7-14.7c8.1,0,14.7,6.6,14.7,14.7  C526.4,80.7,519.8,87.3,511.7,87.3z"/>
<path style="fill:#fff;" class="st3" d="M442.5,46.8c-14.3,0-25.8,11.6-25.8,25.8c0,14.3,11.6,25.8,25.8,25.8c14.3,0,25.8-11.6,25.8-25.8  C468.4,58.3,456.8,46.8,442.5,46.8z M442.5,87.3c-8.1,0-14.7-6.6-14.7-14.7c0-8.1,6.6-14.7,14.7-14.7c8.1,0,14.7,6.6,14.7,14.7  C457.2,80.7,450.6,87.3,442.5,87.3z"/>
<path style="fill:#fff;" class="st3" d="M583,46.8c-14.3,0-25.8,11.6-25.8,25.8c0,14.3,11.6,25.8,25.8,25.8c14.3,0,25.8-11.6,25.8-25.8  C608.8,58.3,597.3,46.8,583,46.8z M583,87.3c-8.1,0-14.7-6.6-14.7-14.7c0-8.1,6.6-14.7,14.7-14.7c8.1,0,14.7,6.6,14.7,14.7  C597.7,80.7,591.1,87.3,583,87.3z"/>
<path style="fill:#fff;" class="st4" d="M785.1,157.8H549.3c-15.5,0-28,12.6-28,28v106.3c0,1.4,0.1,2.8,0.3,4.2c1,6.7,4.4,12.7,9.3,17  c4.9,4.3,11.4,6.9,18.4,6.9h122.2l57.4,62.6l0.1-62.6h56.1c15.5,0,28-12.6,28-28V185.8C813.2,170.4,800.6,157.8,785.1,157.8z   M798.8,290c0,8.2-6.6,14.8-14.8,14.8h-67.4l0,15.4l-0.1,29.5l-27.1-29.5l-14.1-15.4H549.9c-5.9,0-11-3.5-13.4-8.5  c-0.9-1.9-1.4-4.1-1.4-6.4V186.7c0-8.2,6.6-14.8,14.8-14.8H784c8.2,0,14.8,6.6,14.8,14.8V290z"/>
<path style="fill:#fff;" class="st4" d="M637.2,241.1c0,16,13,29,29,29c16,0,28.9-13,28.9-29c0-16-13-28.9-28.9-28.9  C650.1,212.1,637.2,225.1,637.2,241.1z M649.7,241.1c0-9.1,7.4-16.5,16.5-16.5c9.1,0,16.5,7.4,16.5,16.5c0,9.1-7.4,16.5-16.5,16.5  C657,257.5,649.7,250.2,649.7,241.1z"/>
<path style="fill:#fff;" class="st4" d="M714.7,241.1c0,16,13,29,29,29c16,0,28.9-13,28.9-29c0-16-13-28.9-28.9-28.9  C727.6,212.1,714.7,225.1,714.7,241.1z M727.2,241.1c0-9.1,7.4-16.5,16.5-16.5c9.1,0,16.5,7.4,16.5,16.5c0,9.1-7.4,16.5-16.5,16.5  C734.5,257.5,727.2,250.2,727.2,241.1z"/>
<path style="fill:#fff;" class="st4" d="M557.2,241.1c0,16,13,29,29,29c16,0,28.9-13,28.9-29c0-16-13-28.9-28.9-28.9  C570.2,212.1,557.2,225.1,557.2,241.1z M569.7,241.1c0-9.1,7.4-16.5,16.5-16.5c9.1,0,16.5,7.4,16.5,16.5c0,9.1-7.4,16.5-16.5,16.5  C577.1,257.5,569.7,250.2,569.7,241.1z"/>
</svg>