<?xml version="1.0" encoding="UTF-8"?>
<!-- Generator: Adobe Illustrator 22.0.1, SVG Export Plug-In . SVG Version: 6.00 Build 0)  -->
<svg version="1.1" id="Слой_1" xmlns="http://www.w3.org/2000/svg" xmlns:xlink="http://www.w3.org/1999/xlink" x="0px" y="0px" viewBox="0 0 100 100" style="enable-background:new 0 0 100 100;" xml:space="preserve">
<path style="fill:#fff;" d="M94.1,67.3c-3.9-1.7-8.2-0.6-10.9,2.4L75,66.3c2.6-9.9-1.1-20.7-9.4-26.9l8.7-15.1c3.9,0.8,8.1-0.9,10.2-4.6  c2.7-4.6,1.1-10.3-3.4-13s-10.3-1.1-13,3.4c-2.1,3.7-1.6,8.1,1.1,11.1l-8.7,15.1c-5.6-2.4-11.6-2.7-17.1-1.1l-3.2-7.6  c3-2.7,4.2-7,2.6-10.9c-2-4.9-7.6-7.1-12.4-5.1s-7.1,7.6-5.1,12.4c1.7,3.9,5.6,6.1,9.6,5.8l3.1,7.6c-4,2.2-7.3,5.4-9.8,9.6  c-3.1,5.3-4,11.3-3.1,17l-7.3,1.9c-2.2-3.3-6.3-5.1-10.4-4C2,63.3-1,68.5,0.3,73.6s6.6,8.1,11.7,6.8c4.1-1.1,6.9-4.7,7.1-8.7l7.6-2  c2.1,5,5.8,9.4,10.9,12.3c0.9,0.6,1.8,1,2.8,1.3c-0.3,1.3-0.8,2.7-1.7,4c-2.8,4.4-6.9,7.2-6.9,7.2s15.3-0.4,19.3-9.2  c8.7-0.2,16.9-4.8,21.6-12.8c0.2-0.3,0.3-0.6,0.4-0.9l8,3.4c-0.3,4,1.9,7.9,5.8,9.6c4.9,2,10.4-0.2,12.4-5  C101.2,74.8,98.9,69.3,94.1,67.3z"/>
</svg>