<?xml version="1.0" encoding="utf-8"?>
<!-- Generator: Adobe Illustrator 22.0.1, SVG Export Plug-In . SVG Version: 6.00 Build 0)  -->
<svg version="1.1" id="Слой_1" xmlns:sketch="http://www.bohemiancoding.com/sketch/ns"
	 xmlns="http://www.w3.org/2000/svg" xmlns:xlink="http://www.w3.org/1999/xlink" x="0px" y="0px" viewBox="0 0 100 100"
	 style="enable-background:new 0 0 100 100;" xml:space="preserve">
<path style="fill:#fff;" d="M96.2,34.1v-23h-92v23h23v13.4L39,34.8c0.4-0.4,0.8-0.8,1.5-0.8H96.2z M100,7.6v30.3H41.3l-8.4,8.8l-6.5,6.9
	c-1.2,1.2-3.5,0.4-3.5-1.2V46v-7.7h-23V7.6L100,7.6z"/>
<path style="fill:#fff;" d="M100,45.2v31.1H77v14.2c0,1.9-1.9,2.7-3.5,1.2l-15-15.7H-0.1V45.2h19.2V49H3.7v23h55.6c0.4,0,1.2,0.4,1.5,0.8l11.9,12.7V72
	h23V49H35.2l3.8-3.8H100z"/>
</svg>
