<?xml version="1.0" encoding="UTF-8"?>
<!-- Generator: Adobe Illustrator 22.0.1, SVG Export Plug-In . SVG Version: 6.00 Build 0)  -->
<svg version="1.1" id="Слой_1" xmlns="http://www.w3.org/2000/svg" xmlns:xlink="http://www.w3.org/1999/xlink" x="0px" y="0px" viewBox="0 0 100 100" style="enable-background:new 0 0 100 100;" xml:space="preserve">
<path style="fill:#fff;" d="M100,50c0-27.7-22.3-50-50-50S0,22.3,0,50s22.3,50,50,50c10.3,0,19.9-3.1,27.9-8.4L100,100l-8-22.9C97.1,69.2,100,60,100,50  z M83,87.6l-6-2.3c-0.1,0-0.1,0.1-0.2,0.1c-0.9,0.7-1.8,1.2-2.7,1.9L74,87.3c-0.9,0.6-1.9,1.1-2.8,1.7c-3.1,1.7-6.6,3.1-10.1,4  s-7.2,1.4-11.1,1.4C25.4,94.4,5.6,74.6,5.6,50S25.4,5.6,50,5.6S94.4,25.4,94.4,50c0,7.2-1.8,14.1-4.9,20.1c-1.1,2.1-2.3,4.2-3.8,6.1  l2.1,6.2l2.8,8.1L83,87.6z"/>
<path style="fill:#fff;" d="M19.5,38.1L19,56.5h-2.8l-0.5-18.4H19.5z M19.4,62.1h-3.6v-3.7h3.6V62.1z"/>
<path d="M33.2,45.3c0,0.8-0.2,1.4-0.6,2L29.1,52v4.5h-3.5v-4.1c0-0.8,0.2-1.5,0.6-2.1l3.4-4.7v-4.6h-4v4.4h-3.5v-5.2  c0-1.5,0.7-2.2,2.2-2.2H31c1.5,0,2.2,0.7,2.2,2.2V45.3z M29.1,62.1h-3.6v-3.7h3.6V62.1z"/>
<path style="fill:#fff;" d="M50.6,47.1h-2.9l-1,6.1h2.8v2.9h-3.2l-1,6h-3.2l1-6h-2.5l-1,6h-3.2l1-6H35v-2.9h2.9l1-6.1h-2.7v-2.9h3.2l1-6.1h3.2l-1,6.1  H45l1-6.1h3.2l-1,6.1h2.4V47.1z M44.6,47.1H42l-1,6.1h2.5L44.6,47.1z"/>
<path style="fill:#fff;" d="M59.8,48.4c0,1.2-0.6,1.9-1.9,1.9h-4.1c-1.2,0-1.9-0.6-1.9-1.9v-8.5c0-1.2,0.6-1.9,1.9-1.9H58c1.2,0,1.9,0.6,1.9,1.9V48.4z   M69,38.5L56.2,62.1h-2.1v-0.4L67,38.1H69V38.5z M57.2,48.1v-7.7h-2.7v7.7H57.2z M71.1,60.2c0,1.2-0.6,1.9-1.9,1.9h-4.1  c-1.2,0-1.9-0.6-1.9-1.9v-8.5c0-1.2,0.6-1.9,1.9-1.9h4.1c1.2,0,1.9,0.6,1.9,1.9V60.2z M68.6,59.8v-7.7h-2.7v7.7H68.6z"/>
<path style="fill:#fff;" d="M86.5,51.1h-1.7v11h-9.4c-1.4,0-2.2-0.7-2.2-2.2v-7.3c0-0.8,0.3-1.4,0.8-1.8c0.6-0.4,1.2-0.8,1.8-1.2  c-0.6-0.4-1.2-0.8-1.7-1.2c-0.5-0.4-0.8-1-0.8-1.8v-6.3c0-1.5,0.7-2.2,2.2-2.2h7.3c1.4,0,2.2,0.7,2.2,2.2v5h-3.5v-4.1h-4.6v5.8  l1.6,1.1h8V51.1z M81.3,59.1v-7.9h-2.9l-1.6,1.2v6.8H81.3z"/>
</svg>