<?xml version="1.0" encoding="utf-8"?>
<!-- Generator: Adobe Illustrator 19.0.1, SVG Export Plug-In . SVG Version: 6.00 Build 0)  -->
<svg version="1.1" id="Слой_1" xmlns="http://www.w3.org/2000/svg" xmlns:xlink="http://www.w3.org/1999/xlink" x="0px" y="0px"
	 viewBox="-487 736 24 30" style="enable-background:new -487 736 24 30;" xml:space="preserve">
<g>
	<g>
		<path d="M-483.5,751c-1.7,0-3.5-1.4-3.5-4.5c0-2.6,1-3.5,2-3.5c0.7,0,1.5,0.2,2,1.9c0.1,0.3-0.1,0.5-0.4,0.6
			c-0.3,0.1-0.5-0.1-0.6-0.4c-0.3-1.1-0.7-1.1-1-1.1c-0.6,0-1,1-1,2.5c0,2.4,1.3,3.5,2.5,3.5c0.3,0,0.5,0.2,0.5,0.5
			S-483.2,751-483.5,751z"/>
	</g>
	<g>
		<path d="M-476.5,754c-0.1,0-0.3,0-0.4-0.1l-1-1c-0.2-0.2-0.2-0.5,0-0.7c0.2-0.2,0.5-0.2,0.7,0l1,1c0.2,0.2,0.2,0.5,0,0.7
			C-476.2,754-476.4,754-476.5,754z"/>
	</g>
	<g>
		<path d="M-478.5,749c-0.8,0-1.5-0.7-1.5-1.5s0.7-1.5,1.5-1.5s1.5,0.7,1.5,1.5S-477.7,749-478.5,749z M-478.5,747
			c-0.3,0-0.5,0.2-0.5,0.5s0.2,0.5,0.5,0.5s0.5-0.2,0.5-0.5S-478.2,747-478.5,747z"/>
	</g>
	<g>
		<path d="M-468.5,755c-0.2,0-0.3-0.1-0.4-0.2c-0.1-0.2-0.1-0.5,0.1-0.7c0,0,1.8-1.3,1.8-6.6c0-5.4-3.6-10.5-7.5-10.5h-1
			c-3.9,0-7.5,5.1-7.5,10.5c0,5.3,1.8,6.6,1.8,6.6c0.2,0.2,0.3,0.5,0.1,0.7c-0.2,0.2-0.5,0.3-0.7,0.1c-0.1-0.1-2.2-1.5-2.2-7.4
			c0-5.9,4.1-11.5,8.5-11.5h1c4.4,0,8.5,5.6,8.5,11.5c0,5.9-2.1,7.4-2.2,7.4C-468.3,755-468.4,755-468.5,755z"/>
	</g>
	<g>
		<path d="M-474.5,760h-1c-4.8,0-6.5-3-6.5-5c0-2.6,1.2-4.4,3.4-5c0.3-0.1,0.5,0.1,0.6,0.3c0.1,0.3-0.1,0.5-0.4,0.6
			c-2.3,0.6-2.6,2.8-2.6,4c0,1.6,1.5,4,5.5,4h1c4,0,5.5-2.4,5.5-4c0-1.2-0.3-3.4-2.6-4c-0.3-0.1-0.4-0.3-0.4-0.6
			c0.1-0.3,0.3-0.4,0.6-0.3c2.1,0.6,3.4,2.4,3.4,5C-468,757-469.7,760-474.5,760z"/>
	</g>
	<g>
		<path d="M-466.5,751c-0.3,0-0.5-0.2-0.5-0.5s0.2-0.5,0.5-0.5c1.2,0,2.5-1.1,2.5-3.5c0-1.5-0.4-2.5-1-2.5c-0.3,0-0.7,0-1,1.1
			c-0.1,0.3-0.3,0.4-0.6,0.4c-0.3-0.1-0.4-0.3-0.4-0.6c0.4-1.6,1.3-1.9,2-1.9c1,0,2,0.9,2,3.5C-463,749.6-464.8,751-466.5,751z"/>
	</g>
	<g>
		<path d="M-470,751.5c-0.1,0-0.3,0-0.4-0.1c-0.2-0.2-0.2-0.5,0-0.7c1-1,1.4-1.5,1.4-3.1c0-1.2-0.8-2.5-2-2.5c-1,0-1.5,0.3-1.9,0.5
			c-0.4,0.2-0.8,0.5-1.6,0.5h-1c-0.7,0-1.1-0.2-1.6-0.5c-0.5-0.3-0.9-0.5-1.9-0.5c-1.2,0-2,1.3-2,2.5c0,1.6,0.4,2.2,1.4,3.1
			c0.2,0.2,0.2,0.5,0,0.7c-0.2,0.2-0.5,0.2-0.7,0c-1.1-1.1-1.6-2-1.6-3.9c0-1.7,1.2-3.5,3-3.5c1.3,0,1.9,0.4,2.4,0.7
			c0.4,0.2,0.6,0.3,1.1,0.3h1c0.4,0,0.7-0.1,1.1-0.3c0.5-0.3,1.1-0.7,2.4-0.7c1.8,0,3,1.8,3,3.5c0,1.9-0.5,2.7-1.6,3.9
			C-469.7,751.5-469.9,751.5-470,751.5z"/>
	</g>
	<g>
		<path d="M-474.5,758h-1c-1.1,0-4.8-0.2-6.4-2.2c-0.2-0.2-0.1-0.5,0.1-0.7c0.2-0.2,0.5-0.1,0.7,0.1c1,1.3,3.6,1.8,5.6,1.8h1
			c2,0,4.6-0.5,5.6-1.8c0.2-0.2,0.5-0.3,0.7-0.1c0.2,0.2,0.3,0.5,0.1,0.7C-469.7,757.8-473.4,758-474.5,758z"/>
	</g>
	<g>
		<path d="M-473.5,754c-0.1,0-0.3,0-0.4-0.1c-0.2-0.2-0.2-0.5,0-0.7l1-1c0.2-0.2,0.5-0.2,0.7,0c0.2,0.2,0.2,0.5,0,0.7l-1,1
			C-473.2,754-473.4,754-473.5,754z"/>
	</g>
	<g>
		<path d="M-471.5,749c-0.8,0-1.5-0.7-1.5-1.5s0.7-1.5,1.5-1.5s1.5,0.7,1.5,1.5S-470.7,749-471.5,749z M-471.5,747
			c-0.3,0-0.5,0.2-0.5,0.5s0.2,0.5,0.5,0.5s0.5-0.2,0.5-0.5S-471.2,747-471.5,747z"/>
	</g>
	<g>
		<path d="M-474.5,748h-1c-0.3,0-0.5-0.2-0.5-0.5s0.2-0.5,0.5-0.5h1c0.3,0,0.5,0.2,0.5,0.5S-474.2,748-474.5,748z"/>
	</g>
	<g>
		<path d="M-474.5,750h-1c-0.3,0-0.5-0.2-0.5-0.5s0.2-0.5,0.5-0.5h1c0.3,0,0.5,0.2,0.5,0.5S-474.2,750-474.5,750z"/>
	</g>
</g>
</svg>
