<?xml version="1.0" encoding="utf-8"?>
<!-- Generator: Adobe Illustrator 19.0.1, SVG Export Plug-In . SVG Version: 6.00 Build 0)  -->
<svg version="1.1" id="Слой_1" xmlns="http://www.w3.org/2000/svg" xmlns:xlink="http://www.w3.org/1999/xlink" x="0px" y="0px"
	 viewBox="-487 736 24 30" style="enable-background:new -487 736 24 30;" xml:space="preserve">
<g>
	<g>
		<path d="M-473.5,752c-0.2,0-0.4-0.1-0.4-0.3c-0.1-0.2,0-0.5,0.2-0.7c0,0,2.1-1.1,2.9-1.9c0.8-0.8,2.3-0.5,3.1-0.3
			c0-0.1,0-0.2,0-0.3c-0.2-0.4-1.1-0.6-1.7-0.6c-0.1,0-0.3-0.1-0.4-0.2c-0.1-0.1-0.1-0.3-0.1-0.4l0,0c0,0,0-0.1-0.1-0.2
			c-0.1-0.1-0.3-0.2-0.9-0.2c-1.8,0-3.3,0.9-4.4,1.5c-0.3,0.2-0.6,0.4-0.9,0.5c-0.3,0.1-0.5,0-0.7-0.2c-0.1-0.3,0-0.5,0.2-0.7
			c0.2-0.1,0.5-0.3,0.8-0.4c1.1-0.6,2.9-1.6,4.9-1.6c0.8,0,1.4,0.2,1.7,0.6c0.1,0.1,0.2,0.3,0.2,0.4c0.6,0.1,1.7,0.3,2.1,1
			c0.2,0.3,0.3,0.9-0.1,1.7c-0.1,0.2-0.4,0.3-0.6,0.2c-0.6-0.2-2-0.6-2.5-0.1c-0.9,0.9-3,2-3.1,2.1C-473.3,752-473.4,752-473.5,752z
			"/>
	</g>
	<g>
		<path d="M-480.5,760c-2.9,0-6.2-3-6.3-3.1c-0.1-0.1-0.2-0.3-0.1-0.5c0-0.2,0.2-0.3,0.3-0.4c1.4-0.4,2.6-1.2,2.6-1.5
			c0-0.3,0.1-0.6,0.3-0.8c0.2-0.2,0.6-0.4,1-0.5c-1.6-0.7-3.3-1.7-3.3-2.7c0-0.8,0.3-1.3,0.5-1.7c-0.1-0.1-0.2-0.1-0.3-0.2
			c-0.8-0.7-1.2-2.1-1.2-4.1c0-0.2,0.1-0.3,0.2-0.4c0.1-0.1,0.3-0.1,0.5,0l0.5,0.2c-0.1-0.2-0.1-0.5-0.1-0.8c0-0.8,0.3-1.6,1.1-2.4
			c0.1-0.1,0.3-0.2,0.4-0.1c0.2,0,0.3,0.1,0.4,0.3l0.1,0.2c0.3-0.9,0.8-2.1,2.1-3.3c0.1-0.1,0.4-0.2,0.5-0.1
			c0.1,0.1,0.2,0.2,0.3,0.3c0.8-1.1,2.2-2.3,4.5-2.3c0.2,0,0.4,0.1,0.5,0.3c0.1,0.2,0,0.4-0.1,0.5c-0.1,0.1-0.3,0.3-0.5,0.5
			c-1,0.8-2.3,1.9-2.3,5.2c0,3.8,3.9,4.5,4.1,4.5c0.3,0,0.5,0.3,0.4,0.6c0,0.3-0.3,0.5-0.6,0.4c0,0-4.9-0.9-4.9-5.5
			c0-2.9,1-4.3,1.9-5.2c-2.3,0.8-2.8,3.2-2.9,3.3c-0.1,0.3-0.3,0.4-0.5,0.4c-0.3,0-0.5-0.2-0.5-0.5v-0.7c-1.5,2-1.1,3.4-1,3.5
			c0.1,0.2,0,0.5-0.3,0.6c-0.2,0.1-0.5,0-0.6-0.2l-0.7-1.3c-0.2,0.4-0.3,0.7-0.3,1.1c0,0.9,0.8,1.6,0.8,1.6c0.2,0.2,0.2,0.4,0.1,0.7
			c-0.1,0.2-0.4,0.3-0.6,0.2l-1.2-0.6c0.1,1.6,0.5,2.2,0.8,2.5c0.3,0.3,0.6,0.2,0.6,0.2c0.2,0,0.5,0.1,0.5,0.3
			c0.1,0.2,0,0.5-0.2,0.6c0,0-0.8,0.5-0.8,1.6c0,0.5,2.2,1.7,4.7,2.5c0.2,0.1,0.4,0.3,0.3,0.6c0,0.2-0.2,0.4-0.5,0.4
			c-0.1,0-0.1,0-0.1,0c-0.8,0-2,0.1-2.3,0.5c0,1-1.5,1.8-2.5,2.2c1,0.8,2.8,2.1,4.5,2.3c0.4-3,4.1-4.8,4.3-4.9
			c0.2-0.1,0.4,0,0.6,0.1c0,0,0.9,0.8,3.6,0.8c1,0,1.4-0.1,1.6-0.2c-0.1-0.2-0.1-0.4,0-0.6c0.1-0.2,0.4-0.3,0.6-0.2l1.9,0.9
			c1.3,0,1.9-0.3,2.2-0.5l-0.7-0.7c-0.1-0.1-0.2-0.4-0.1-0.5c0.1-0.2,0.3-0.3,0.5-0.3c1,0,1.6-0.5,2.1-1c-4.8-0.2-6.8-1.5-6.8-1.6
			c-0.2-0.2-0.3-0.5-0.1-0.7c0.2-0.2,0.5-0.3,0.7-0.1l0,0c0,0,2.1,1.4,7.2,1.4c0.2,0,0.3,0.1,0.4,0.2c0.1,0.1,0.1,0.3,0,0.5
			c0,0.1-0.8,1.6-2.4,2.1l0.3,0.3c0.1,0.1,0.2,0.4,0.1,0.5c-0.1,0.2-0.7,1.3-3.5,1.3c-0.1,0-0.2,0-0.2-0.1l-1.2-0.6
			c-0.3,0.5-1.1,0.7-2.5,0.7c-2.4,0-3.5-0.6-4.1-0.9c-0.9,0.5-3.4,2.1-3.4,4.4C-480,759.8-480.2,760-480.5,760z"/>
	</g>
	<g>
		<circle cx="-470.5" cy="747.5" r="0.5"/>
	</g>
</g>
</svg>
