<?xml version="1.0" encoding="utf-8"?>
<!-- Generator: Adobe Illustrator 19.0.1, SVG Export Plug-In . SVG Version: 6.00 Build 0)  -->
<svg version="1.1" id="Слой_1" xmlns="http://www.w3.org/2000/svg" xmlns:xlink="http://www.w3.org/1999/xlink" x="0px" y="0px"
	 viewBox="-487 736 24 30" style="enable-background:new -487 736 24 30;" xml:space="preserve">
<g>
	<g>
		<path d="M-468.1,759.5c-0.7,0-1.7-0.8-3.8-2.7c-1.1-0.9-2.6-2.3-3.1-2.4c-0.4,0.1-2,1.4-3.1,2.4c-2.4,2.1-3.4,2.9-4.1,2.6
			c-0.2-0.1-0.3-0.2-0.4-0.4c-0.3-0.7,0.1-2.2,1.3-5.7c0.3-1,0.8-2.2,0.8-2.4c-0.1-0.3-1.7-1.5-2.8-2.4c-2.3-1.8-3.2-2.5-3.2-3.1
			c0-0.2,0.1-0.3,0.2-0.5c0.4-0.4,1.6-0.4,4.3-0.3c1.3,0,3.3,0.1,3.6-0.1c0.2-0.2,0.5-1.7,0.8-2.8c1-3.7,1.5-5.3,2.5-5.3
			s1.5,1.6,2.5,5.3c0.3,1.1,0.7,2.6,0.9,2.8c0.3,0.2,2.3,0.1,3.6,0c2.7-0.1,3.9-0.1,4.3,0.3c0.1,0.1,0.2,0.3,0.2,0.5
			c0,0.6-0.9,1.4-3.2,3.1c-1.1,0.8-2.7,2.1-2.8,2.4c0,0.2,0.4,1.4,0.8,2.3c1.2,3.5,1.6,5,1.3,5.7c-0.1,0.2-0.2,0.3-0.4,0.4
			C-467.9,759.5-468,759.5-468.1,759.5z M-485.3,745.7c0.5,0.5,1.7,1.5,2.7,2.2c2.3,1.8,3.2,2.5,3.2,3.1c0,0.4-0.3,1.2-0.8,2.7
			c-0.5,1.4-1.4,3.9-1.4,4.7c0.5-0.3,2-1.5,3-2.4c2.1-1.8,3.1-2.6,3.7-2.6s1.6,0.8,3.7,2.6c1,0.8,2.3,2,3,2.3c0-0.9-0.9-3.3-1.4-4.7
			c-0.5-1.5-0.8-2.4-0.8-2.7c0-0.6,0.9-1.4,3.2-3.1c0.9-0.7,2.1-1.6,2.6-2.2c-0.7-0.1-2.2,0-3.3,0c-2.7,0.1-3.9,0.1-4.3-0.3
			c-0.3-0.3-0.6-1.2-1.1-3.3c-0.4-1.4-1-4-1.5-4.5c-0.5,0.5-1.1,3.1-1.5,4.5c-0.5,2.1-0.8,3-1.1,3.3c-0.4,0.4-1.6,0.4-4.3,0.3
			C-483.1,745.6-484.7,745.6-485.3,745.7z"/>
	</g>
	<g>
		<path d="M-475,751.5c-1.4,0-2.5-1.1-2.5-2.5s1.1-2.5,2.5-2.5s2.5,1.1,2.5,2.5S-473.6,751.5-475,751.5z M-475,747.5
			c-0.8,0-1.5,0.7-1.5,1.5c0,0.8,0.7,1.5,1.5,1.5s1.5-0.7,1.5-1.5C-473.5,748.2-474.2,747.5-475,747.5z"/>
	</g>
	<g>
		<path d="M-475,745.5c-0.8,0-1.5-0.7-1.5-1.5c0-0.8,0.7-1.5,1.5-1.5s1.5,0.7,1.5,1.5C-473.5,744.8-474.2,745.5-475,745.5z
			 M-475,743.5c-0.3,0-0.5,0.2-0.5,0.5s0.2,0.5,0.5,0.5s0.5-0.2,0.5-0.5S-474.7,743.5-475,743.5z"/>
	</g>
	<g>
		<path d="M-479.8,748.9c-0.2,0-0.3,0-0.5-0.1c-0.4-0.1-0.7-0.4-0.9-0.7c-0.2-0.4-0.2-0.8-0.1-1.1c0.1-0.4,0.4-0.7,0.7-0.9
			c0.4-0.2,0.8-0.2,1.1-0.1l0,0l0,0l0,0c0.4,0.1,0.7,0.4,0.9,0.7s0.2,0.8,0.1,1.1c-0.1,0.4-0.4,0.7-0.7,0.9
			C-479.3,748.9-479.5,748.9-479.8,748.9z M-479.8,746.9c-0.1,0-0.2,0-0.2,0.1c-0.1,0.1-0.2,0.2-0.2,0.3c0,0.1,0,0.3,0,0.4
			c0.1,0.1,0.2,0.2,0.3,0.2c0.1,0,0.3,0,0.4,0c0.1-0.1,0.2-0.2,0.2-0.3c0-0.1,0-0.3,0-0.4c-0.1-0.1-0.2-0.2-0.3-0.2l0,0
			C-479.7,747-479.7,746.9-479.8,746.9z"/>
	</g>
	<g>
		<path d="M-477.9,754.5c-0.3,0-0.6-0.1-0.9-0.3c-0.7-0.5-0.8-1.4-0.3-2.1l0,0c0.5-0.7,1.4-0.8,2.1-0.3c0.7,0.5,0.8,1.4,0.3,2.1
			c-0.2,0.3-0.6,0.5-1,0.6C-477.8,754.5-477.9,754.5-477.9,754.5z M-478.3,752.7c-0.2,0.2-0.1,0.5,0.1,0.7c0.1,0.1,0.2,0.1,0.4,0.1
			c0.1,0,0.2-0.1,0.3-0.2c0.2-0.2,0.1-0.5-0.1-0.7C-477.9,752.5-478.2,752.5-478.3,752.7L-478.3,752.7z"/>
	</g>
	<g>
		<path d="M-472.1,754.5c-0.1,0-0.2,0-0.2,0c-0.4-0.1-0.7-0.3-1-0.6c-0.5-0.7-0.3-1.6,0.3-2.1c0.7-0.5,1.6-0.3,2.1,0.3
			s0.3,1.6-0.3,2.1C-471.4,754.4-471.7,754.5-472.1,754.5z M-472.1,752.5c-0.1,0-0.2,0-0.3,0.1c-0.2,0.2-0.3,0.5-0.1,0.7
			c0.1,0.1,0.2,0.2,0.3,0.2c0.1,0,0.3,0,0.4-0.1c0.2-0.2,0.3-0.5,0.1-0.7C-471.8,752.6-471.9,752.5-472.1,752.5z"/>
	</g>
	<g>
		<path d="M-470.2,748.9c-0.2,0-0.5-0.1-0.7-0.2c-0.4-0.2-0.6-0.5-0.7-0.9c-0.1-0.4-0.1-0.8,0.1-1.1s0.5-0.6,0.9-0.7
			c0.4-0.1,0.8-0.1,1.1,0.1c0.4,0.2,0.6,0.5,0.7,0.9c0.1,0.4,0.1,0.8-0.1,1.1c-0.2,0.4-0.5,0.6-0.9,0.7l0,0l0,0l0,0
			C-469.9,748.9-470.1,748.9-470.2,748.9z M-470.2,746.9c-0.1,0-0.1,0-0.2,0c-0.1,0-0.2,0.1-0.3,0.2c-0.1,0.1-0.1,0.3,0,0.4
			c0,0.1,0.1,0.2,0.2,0.3c0.1,0.1,0.3,0.1,0.4,0l0,0c0.1,0,0.2-0.1,0.3-0.2s0.1-0.3,0-0.4c0-0.1-0.1-0.2-0.2-0.3
			C-470.1,747-470.2,746.9-470.2,746.9z"/>
	</g>
	<g>
		<circle cx="-475" cy="741" r="0.5"/>
	</g>
	<g>
		<circle cx="-482.6" cy="746.5" r="0.5"/>
	</g>
	<g>
		<circle cx="-479.7" cy="755.5" r="0.5"/>
	</g>
	<g>
		<circle cx="-470.3" cy="755.5" r="0.5"/>
	</g>
	<g>
		<circle cx="-467.4" cy="746.5" r="0.5"/>
	</g>
</g>
</svg>
