<?xml version="1.0" encoding="utf-8"?>
<!-- Generator: Adobe Illustrator 19.0.1, SVG Export Plug-In . SVG Version: 6.00 Build 0)  -->
<svg version="1.1" id="Слой_1" xmlns="http://www.w3.org/2000/svg" xmlns:xlink="http://www.w3.org/1999/xlink" x="0px" y="0px"
	 viewBox="-487 736 24 30" style="enable-background:new -487 736 24 30;" xml:space="preserve">
<g>
	<g>
		<path d="M-476,758c-0.1,0-0.2,0-0.2-0.1c-0.3-0.2-1.3-0.7-1.3-1.4c0-0.3,0.2-0.5,0.5-0.5c0.3,0,0.5,0.2,0.5,0.5
			c0,0.1,0.4,0.4,0.7,0.6c0.2,0.1,0.3,0.4,0.2,0.7C-475.6,757.9-475.8,758-476,758z"/>
	</g>
	<g>
		<path d="M-476,753c-0.3,0-0.5-0.2-0.5-0.5c0-3.8-1.9-6.7-1.9-6.7c-0.2-0.2-0.1-0.5,0.1-0.7c0.2-0.2,0.5-0.1,0.7,0.1
			c0.1,0.1,2.1,3.2,2.1,7.3C-475.5,752.8-475.7,753-476,753z"/>
	</g>
	<g>
		<path d="M-480,742.5C-480,742.5-480,742.5-480,742.5c-0.2,0-1.5-0.3-1.5-3c0-2.6,1.1-3.3,1.2-3.4c0.1-0.1,0.3-0.1,0.4-0.1
			c0.1,0,0.3,0.1,0.3,0.3l2,4c0.1,0.2,0,0.5-0.2,0.7c-0.2,0.1-0.5,0-0.7-0.2l-1.6-3.3c-0.2,0.4-0.4,1-0.4,2.1c0,1.5,0.4,2,0.6,2
			c0.3,0,0.4,0.3,0.4,0.6C-479.5,742.3-479.8,742.5-480,742.5z"/>
	</g>
	<g>
		<path d="M-475,747c-0.3,0-0.5-0.2-0.5-0.5c0-1-0.5-1.9-1-2.8c-0.5-0.8-1-1.7-1-2.7c0-2.5,1.8-2.5,2.5-2.5s2.5,0,2.5,2.5
			c0,1-0.5,1.8-1,2.7c-0.5,0.9-1,1.8-1,2.8C-474.5,746.8-474.7,747-475,747z M-475,739.5c-0.9,0-1.5,0.1-1.5,1.5
			c0,0.7,0.4,1.4,0.9,2.2c0.2,0.4,0.5,0.8,0.6,1.2c0.2-0.4,0.4-0.8,0.6-1.2c0.4-0.8,0.9-1.5,0.9-2.2
			C-473.5,739.6-474.1,739.5-475,739.5z"/>
	</g>
	<g>
		<path d="M-473,760h-4c0,0-0.1,0-0.1,0c-0.1,0-2.4-0.7-2.4-2.5c0-0.6,0.1-0.9,0.2-1.3c0.2-0.6,0.4-1.1-0.2-3.1
			c-0.3-1.1-0.7-1.9-1-2.7c-0.5-1.3-1-2.3-1-4c0-4.6,2.9-6.5,4.5-6.5c0.3,0,0.5,0.2,0.5,0.5s-0.2,0.5-0.5,0.5
			c-1.2,0-3.5,1.7-3.5,5.5c0,1.4,0.4,2.3,0.9,3.6c0.3,0.8,0.7,1.6,1.1,2.8c0.7,2.1,0.5,2.9,0.2,3.7c-0.1,0.3-0.2,0.5-0.2,0.9
			c0,0.9,1.3,1.4,1.6,1.5h3.9c0.3-0.1,1.6-0.6,1.6-1.5c0-0.4-0.1-0.7-0.2-0.9c-0.3-0.8-0.4-1.6,0.2-3.7c0.4-1.1,0.7-2,1.1-2.8
			c0.5-1.2,0.9-2.1,0.9-3.6c0-3.8-2.3-5.5-3.5-5.5c-0.3,0-0.5-0.2-0.5-0.5s0.2-0.5,0.5-0.5c1.6,0,4.5,1.9,4.5,6.5c0,1.6-0.5,2.7-1,4
			c-0.3,0.7-0.7,1.6-1,2.7c-0.6,2-0.4,2.5-0.2,3.1c0.1,0.3,0.2,0.7,0.2,1.3c0,1.8-2.3,2.5-2.4,2.5C-472.9,760-473,760-473,760z"/>
	</g>
	<g>
		<path d="M-474,758c-0.2,0-0.4-0.1-0.4-0.3c-0.1-0.2,0-0.5,0.2-0.7c0.3-0.2,0.7-0.5,0.7-0.6c0-0.3,0.2-0.5,0.5-0.5s0.5,0.2,0.5,0.5
			c0,0.8-1,1.3-1.3,1.4C-473.8,758-473.9,758-474,758z"/>
	</g>
	<g>
		<path d="M-474,753c-0.3,0-0.5-0.2-0.5-0.5c0-4.1,2-7.1,2.1-7.3c0.2-0.2,0.5-0.3,0.7-0.1c0.2,0.2,0.3,0.5,0.1,0.7
			c0,0-1.9,3-1.9,6.7C-473.5,752.8-473.7,753-474,753z"/>
	</g>
	<g>
		<path d="M-470,742.5c-0.2,0-0.5-0.2-0.5-0.4c0-0.3,0.1-0.5,0.4-0.6c0.1,0,0.6-0.5,0.6-2c0-1-0.2-1.7-0.4-2.1l-1.6,3.3
			c-0.1,0.2-0.4,0.3-0.7,0.2c-0.2-0.1-0.3-0.4-0.2-0.7l2-4c0.1-0.1,0.2-0.2,0.3-0.3c0.1,0,0.3,0,0.4,0.1c0.1,0.1,1.2,0.9,1.2,3.4
			C-468.5,742.2-469.8,742.5-470,742.5C-470,742.5-470,742.5-470,742.5z"/>
	</g>
	<g>
		<circle cx="-479" cy="748.5" r="0.5"/>
	</g>
	<g>
		<circle cx="-471" cy="748.5" r="0.5"/>
	</g>
</g>
</svg>
