<?xml version="1.0" encoding="utf-8"?>
<!-- Generator: Adobe Illustrator 19.0.1, SVG Export Plug-In . SVG Version: 6.00 Build 0)  -->
<svg version="1.1" id="Слой_1" xmlns="http://www.w3.org/2000/svg" xmlns:xlink="http://www.w3.org/1999/xlink" x="0px" y="0px"
	 viewBox="-487 736 24 30" style="enable-background:new -487 736 24 30;" xml:space="preserve">
<g>
	<g>
		<path d="M-477.5,755c-0.8,0-1.5-0.3-2-0.8c-1-1-1-2.6-1-2.7c0-0.3,0.3-0.5,0.5-0.5c0.3,0,0.5,0.2,0.5,0.5c0,0,0,1.3,0.7,2
			c0.3,0.3,0.7,0.5,1.3,0.5c0.9,0,1.4-0.4,1.7-1.2c0.3-0.8,0.3-1.7,0.3-2.2l0.5-0.1l0.5,0.1c0,0.6,0,1.6-0.3,2.6
			C-475.3,754.3-476.3,755-477.5,755z"/>
	</g>
	<g>
		<path d="M-475,751c-1.3,0-1.7-0.4-2.4-1.2c-0.2-0.2-0.1-0.5,0.1-0.7c0.2-0.2,0.5-0.1,0.7,0.1c0.5,0.6,0.7,0.8,1.6,0.8
			c0.3,0,0.5,0.2,0.5,0.5S-474.8,751-475,751z"/>
	</g>
	<g>
		<path d="M-475,757c-2.3,0-3-0.6-3-2.5c0-0.3,0.2-0.5,0.5-0.5s0.5,0.2,0.5,0.5c0,1.1,0,1.5,2,1.5c0.3,0,0.5,0.2,0.5,0.5
			S-474.8,757-475,757z"/>
	</g>
	<g>
		<path d="M-478.5,747c-0.8,0-1.6-0.5-1.9-1.3c0-0.1,0-0.2,0-0.3c0.3-0.8,1-1.3,1.9-1.3s1.6,0.5,1.9,1.3c0,0.1,0,0.2,0,0.3
			C-477,746.5-477.7,747-478.5,747z M-479.4,745.5c0.4,0.6,1.4,0.6,1.7,0C-478,744.9-479.1,744.9-479.4,745.5z"/>
	</g>
	<g>
		<path d="M-480,743c-0.1,0-0.2,0-0.3-0.1c-0.2-0.2-0.3-0.5-0.1-0.7c0.8-1.2,3.1-3,5.6-1.7c0.2,0.1,0.3,0.4,0.2,0.7
			c-0.1,0.2-0.4,0.3-0.7,0.2c-2.4-1.3-4.3,1.2-4.4,1.3C-479.7,742.9-479.9,743-480,743z"/>
	</g>
	<g>
		<path d="M-482,742c-0.1,0-0.2,0-0.3-0.1c-0.2-0.2-0.3-0.5-0.1-0.7c0.1-0.1,2.2-2.8,4.8-3c1.1-0.1,2.1,0.2,2.9,1
			c0.2,0.2,0.2,0.5,0.1,0.7c-0.2,0.2-0.5,0.2-0.7,0.1c-0.7-0.6-1.4-0.8-2.2-0.7c-2.1,0.2-4.1,2.6-4.1,2.7
			C-481.8,741.9-481.9,742-482,742z"/>
	</g>
	<g>
		<path d="M-475,745c-0.1,0-0.1,0-0.2,0c-0.2-0.1-0.4-0.3-0.3-0.5c0-0.3,0-4.6,0-7.4c0-0.3,0.2-0.5,0.5-0.5h0c0.3,0,0.5,0.2,0.5,0.5
			c0,7.5,0,7.6,0,7.7C-474.6,744.9-474.8,745-475,745z"/>
	</g>
	<g>
		<path d="M-483,752c-0.2,0-0.5-0.2-0.5-0.4c0-0.1-0.6-3.7,1.1-5.4c0.2-0.2,0.5-0.2,0.7,0c0.2,0.2,0.2,0.5,0,0.7
			c-1.2,1.2-1,3.7-0.9,4.6C-482.5,751.7-482.7,751.9-483,752C-483,752-483,752-483,752z"/>
	</g>
	<g>
		<path d="M-472.5,755c-1.3,0-2.2-0.7-2.7-1.9c-0.3-0.9-0.3-2-0.3-2.6c0-0.3,0.2-0.5,0.5-0.5l0,0c0.3,0,0.5,0.2,0.5,0.5v0.1
			c0,0.5,0,1.5,0.3,2.2c0.3,0.8,0.9,1.2,1.7,1.2c0.5,0,1-0.2,1.3-0.5c0.7-0.7,0.7-2,0.7-2c0-0.3,0.2-0.5,0.5-0.5c0,0,0,0,0,0
			c0.3,0,0.5,0.2,0.5,0.5c0,0.1,0,1.7-1,2.7C-471,754.7-471.6,755-472.5,755z"/>
	</g>
	<g>
		<path d="M-475,751c-0.3,0-0.5-0.2-0.5-0.5s0.2-0.5,0.5-0.5c0.9,0,1.1-0.2,1.6-0.8c0.2-0.2,0.5-0.2,0.7-0.1
			c0.2,0.2,0.2,0.5,0.1,0.7C-473.2,750.6-473.6,751-475,751z"/>
	</g>
	<g>
		<path d="M-475,757c-0.3,0-0.5-0.2-0.5-0.5s0.2-0.5,0.5-0.5c2,0,2-0.4,2-1.5c0-0.3,0.2-0.5,0.5-0.5s0.5,0.2,0.5,0.5
			C-472,756.4-472.7,757-475,757z"/>
	</g>
	<g>
		<path d="M-471,760c-0.1,0-0.1,0-0.2,0c-0.2-0.1-0.3-0.3-0.3-0.5v-1.2c-0.8,0.9-1.9,1.7-3.5,1.7c0,0,0,0,0,0c0,0,0,0,0,0
			c-1.6,0-2.8-0.8-3.5-1.7v1.2c0,0.2-0.1,0.4-0.3,0.5c-0.2,0.1-0.4,0-0.5-0.1c-1.2-1.1-1.8-2.9-2-4l-1.4,1c-0.2,0.1-0.5,0.1-0.7,0
			c-0.8-0.8-0.6-2.8-0.4-4.2c-0.4,0.4-0.7,0.9-0.8,1.1c-0.1,0.2-0.3,0.3-0.6,0.2c-0.2-0.1-0.4-0.3-0.4-0.5c0-1.3,0.4-3.4,0.7-4.8
			c-0.3,0.3-0.5,0.7-0.8,1.1c-0.1,0.2-0.3,0.3-0.6,0.2c-0.2-0.1-0.4-0.3-0.4-0.5c0-3.2,1.3-5.2,1.9-6c-0.6-0.8-1.9-2.7-1.9-5
			c0-0.8,0.2-1.2,0.7-1.4c0.9-0.4,2.4,0.8,3.2,1.7c1.2-1.4,3.8-2.7,5.6-2.7c0.9,0,1,0,1.5,0.2c0.1,0.1,0.3,0.1,0.6,0.2
			c0.3-0.1,0.4-0.2,0.6-0.2c0.4-0.2,0.6-0.2,1.5-0.2c1.8,0,4.3,1.3,5.6,2.7c0.9-0.8,2.3-2,3.2-1.7c0.5,0.2,0.7,0.7,0.7,1.4
			c0,2.3-1.3,4.2-1.9,5c0.6,0.8,1.9,2.8,1.9,6c0,0.2-0.1,0.4-0.4,0.5c-0.2,0.1-0.4,0-0.6-0.2c-0.2-0.4-0.5-0.8-0.8-1.1
			c0.3,1.4,0.7,3.5,0.7,4.8c0,0.2-0.1,0.4-0.4,0.5c-0.2,0.1-0.4,0-0.6-0.2c-0.2-0.3-0.5-0.7-0.8-1.1c0.2,1.4,0.4,3.4-0.4,4.2
			c-0.2,0.2-0.5,0.2-0.7,0l-1.4-1c-0.2,1-0.8,2.8-2,4C-470.7,760-470.8,760-471,760z M-479,756c0.2,0,0.4,0.1,0.5,0.3
			c0,0.1,0.9,2.7,3.5,2.7c0,0,0,0,0,0c0,0,0,0,0,0c2.6,0,3.5-2.6,3.5-2.7c0.1-0.2,0.3-0.4,0.6-0.3c0.2,0,0.4,0.2,0.4,0.5v1.5
			c0.8-1.4,1-3.1,1-3.1c0-0.2,0.1-0.3,0.3-0.4c0.2-0.1,0.4,0,0.5,0.1l1.5,1.1c0.2-0.8,0-2.6-0.3-4.1c0-0.2,0-0.4,0.2-0.5
			c0.1-0.1,0.3-0.2,0.5-0.1c0.4,0.1,0.8,0.5,1.2,0.8c-0.3-1.9-0.8-4.2-0.8-4.3c0-0.1,0-0.3,0.1-0.4c0.1-0.1,0.2-0.2,0.4-0.2
			c0.5,0,0.9,0.4,1.4,0.8c-0.4-2.6-1.7-4-1.7-4c-0.2-0.2-0.2-0.5,0-0.7c0,0,1.9-2.1,1.9-4.7c0-0.4-0.1-0.5-0.1-0.5
			c-0.3-0.1-1.5,0.7-2.5,1.8c-0.1,0.1-0.3,0.2-0.4,0.2c-0.2,0-0.3-0.1-0.4-0.2c-0.8-1.3-3.4-2.8-5.1-2.8c-0.7,0-0.8,0-1,0.1
			c-0.2,0.1-0.4,0.2-0.8,0.3c-0.1,0-0.1,0-0.2,0c-0.1,0-0.2,0-0.3,0c-0.4-0.1-0.6-0.2-0.8-0.3c-0.3-0.1-0.3-0.1-1-0.1
			c-1.6,0-4.2,1.4-5.1,2.8c-0.1,0.1-0.2,0.2-0.4,0.2c-0.2,0-0.3,0-0.4-0.2c-1.1-1.2-2.3-2-2.5-1.8c0,0-0.1,0.1-0.1,0.5
			c0,2.5,1.9,4.6,1.9,4.7c0.2,0.2,0.2,0.5,0,0.7c0,0-1.3,1.4-1.7,4c0.4-0.5,0.9-0.8,1.4-0.8c0.2,0,0.3,0.1,0.4,0.2
			c0.1,0.1,0.1,0.3,0.1,0.4c0,0-0.6,2.3-0.8,4.3c0.4-0.4,0.8-0.7,1.2-0.8c0.2-0.1,0.4,0,0.5,0.1c0.1,0.1,0.2,0.3,0.2,0.5
			c-0.3,1.5-0.5,3.3-0.3,4.1l1.5-1.1c0.1-0.1,0.3-0.1,0.5-0.1c0.2,0.1,0.3,0.2,0.3,0.4c0,0,0.2,1.7,1,3.1v-1.5
			C-479.5,756.3-479.4,756-479,756C-479.1,756-479.1,756-479,756z"/>
	</g>
	<g>
		<path d="M-471.5,747c-0.8,0-1.6-0.5-1.9-1.3c0-0.1,0-0.2,0-0.3c0.3-0.8,1-1.3,1.9-1.3s1.6,0.5,1.9,1.3c0,0.1,0,0.2,0,0.3
			C-469.9,746.5-470.6,747-471.5,747z M-472.3,745.5c0.4,0.6,1.4,0.6,1.7,0C-470.9,744.9-472,744.9-472.3,745.5z"/>
	</g>
	<g>
		<path d="M-470,743c-0.2,0-0.3-0.1-0.4-0.2c-0.1-0.1-1.9-2.7-4.4-1.4c-0.2,0.1-0.5,0-0.7-0.2c-0.1-0.2,0-0.5,0.2-0.7
			c2.6-1.4,4.8,0.5,5.6,1.7c0.2,0.2,0.1,0.5-0.1,0.7C-469.8,743-469.9,743-470,743z"/>
	</g>
	<g>
		<path d="M-468,742c-0.1,0-0.3-0.1-0.4-0.2c0,0-2-2.5-4.1-2.7c-0.8-0.1-1.5,0.2-2.2,0.7c-0.2,0.2-0.5,0.2-0.7-0.1
			c-0.2-0.2-0.2-0.5,0.1-0.7c0.9-0.8,1.9-1.1,2.9-1c2.6,0.3,4.7,2.9,4.8,3c0.2,0.2,0.1,0.5-0.1,0.7C-467.7,742-467.8,742-468,742z"
			/>
	</g>
	<g>
		<path d="M-467,752C-467,752-467,752-467,752c-0.4-0.1-0.5-0.3-0.5-0.6c0,0,0.5-3.2-0.9-4.6c-0.2-0.2-0.2-0.5,0-0.7
			c0.2-0.2,0.5-0.2,0.7,0c1.8,1.8,1.2,5.3,1.1,5.4C-466.5,751.8-466.7,752-467,752z"/>
	</g>
</g>
</svg>
