<?xml version="1.0" encoding="utf-8"?>
<!-- Generator: Adobe Illustrator 19.0.1, SVG Export Plug-In . SVG Version: 6.00 Build 0)  -->
<svg version="1.1" id="Слой_1" xmlns="http://www.w3.org/2000/svg" xmlns:xlink="http://www.w3.org/1999/xlink" x="0px" y="0px"
	 viewBox="-487 736 24 30" style="enable-background:new -487 736 24 30;" xml:space="preserve">
<g>
	<g>
		<path d="M-479,756.5c-0.1,0-0.1,0-0.2,0c-1.2-0.5-7.3-3.3-7.3-5.5c0-2,1-6.2,3.6-8.9c0.2-0.2,0.5-0.2,0.7,0s0.2,0.5,0,0.7
			c-2.3,2.3-3.4,6.2-3.4,8.1c0,1,3.5,3.1,6.7,4.5c0.3,0.1,0.4,0.4,0.3,0.7C-478.6,756.4-478.8,756.5-479,756.5z"/>
	</g>
	<g>
		<path d="M-479,749c-0.8,0-1.5-0.7-1.5-1.5s0.7-1.5,1.5-1.5s1.5,0.7,1.5,1.5S-478.2,749-479,749z M-479,747c-0.3,0-0.5,0.2-0.5,0.5
			s0.2,0.5,0.5,0.5s0.5-0.2,0.5-0.5S-478.7,747-479,747z"/>
	</g>
	<g>
		<path d="M-484,744c-0.1,0-0.3,0-0.4-0.1c-1.3-1.3-2.1-4.1-2.1-7.4c0-0.3,0.2-0.5,0.5-0.5c3.2,0,5.5,2.3,5.5,3.5
			c0,0.3-0.2,0.5-0.5,0.5s-0.5-0.2-0.5-0.5c0-0.5-1.4-2.3-4-2.5c0.1,3.2,1,5.3,1.8,6.1c0.2,0.2,0.2,0.5,0,0.7
			C-483.7,744-483.9,744-484,744z"/>
	</g>
	<g>
		<path d="M-478,740c-0.1,0-0.2,0-0.2-0.1c-1-0.6-2.7-1.4-3.3-1.4c-0.3,0-0.5-0.2-0.5-0.5s0.2-0.5,0.5-0.5c1,0,3.3,1.3,3.7,1.6
			c0.2,0.1,0.3,0.4,0.2,0.7C-477.7,739.9-477.8,740-478,740z"/>
	</g>
	<g>
		<path d="M-482.5,743c-0.3,0-0.5-0.2-0.5-0.5c0-0.1-0.2-2.7-2.7-3.6c-0.3-0.1-0.4-0.4-0.3-0.6c0.1-0.3,0.4-0.4,0.6-0.3
			c3.1,1.1,3.3,4.3,3.3,4.4C-482,742.7-482.2,743-482.5,743C-482.5,743-482.5,743-482.5,743z"/>
	</g>
	<g>
		<path d="M-475,760c-1.6,0-2.7-0.5-2.7-0.5c-0.1-0.1-0.2-0.1-0.2-0.3c-0.2-0.5-2-5-2-6.2c0-1.4,1.5-2.7,1.7-2.9
			c0.2-0.2,0.5-0.2,0.7,0c0.2,0.2,0.2,0.5,0,0.7c-0.3,0.3-1.3,1.4-1.3,2.1c0,0.8,1.1,3.8,1.9,5.6c0.3,0.1,1.1,0.4,2.1,0.4
			c1,0,1.8-0.3,2.1-0.4c0.8-1.9,1.9-4.9,1.9-5.6c0-0.8-1-1.8-1.3-2.1c-0.2-0.2-0.2-0.5,0-0.7c0.2-0.2,0.5-0.2,0.7,0
			c0.2,0.2,1.7,1.5,1.7,2.9c0,1.2-1.8,5.7-2,6.2c0,0.1-0.1,0.2-0.2,0.3C-472.3,759.5-473.4,760-475,760z"/>
	</g>
	<g>
		<path d="M-471,756.5c-0.2,0-0.4-0.1-0.5-0.3c-0.1-0.3,0-0.5,0.3-0.7c3.2-1.4,6.7-3.5,6.7-4.5c0-2-1-5.8-3.4-8.1
			c-0.2-0.2-0.2-0.5,0-0.7c0.2-0.2,0.5-0.2,0.7,0c2.7,2.7,3.6,6.8,3.6,8.9c0,2.2-6.1,4.9-7.3,5.5
			C-470.9,756.5-470.9,756.5-471,756.5z"/>
	</g>
	<g>
		<path d="M-471,749c-0.8,0-1.5-0.7-1.5-1.5s0.7-1.5,1.5-1.5s1.5,0.7,1.5,1.5S-470.2,749-471,749z M-471,747c-0.3,0-0.5,0.2-0.5,0.5
			s0.2,0.5,0.5,0.5s0.5-0.2,0.5-0.5S-470.7,747-471,747z"/>
	</g>
	<g>
		<path d="M-466,744c-0.1,0-0.3,0-0.4-0.1c-0.2-0.2-0.2-0.5,0-0.7c0.9-0.9,1.8-2.9,1.8-6.1c-2.5,0.2-4,2-4,2.5
			c0,0.3-0.2,0.5-0.5,0.5s-0.5-0.2-0.5-0.5c0-1.2,2.3-3.5,5.5-3.5c0.3,0,0.5,0.2,0.5,0.5c0,3.3-0.8,6-2.1,7.4
			C-465.7,744-465.9,744-466,744z"/>
	</g>
	<g>
		<path d="M-472,740c-0.2,0-0.3-0.1-0.4-0.3c-0.1-0.2-0.1-0.5,0.2-0.7c0.5-0.3,2.8-1.6,3.7-1.6c0.3,0,0.5,0.2,0.5,0.5
			s-0.2,0.5-0.5,0.5c-0.5,0-2.2,0.8-3.3,1.4C-471.8,740-471.9,740-472,740z"/>
	</g>
	<g>
		<path d="M-467.5,743C-467.5,743-467.5,743-467.5,743c-0.3,0-0.5-0.3-0.5-0.5c0-0.1,0.3-3.3,3.3-4.4c0.3-0.1,0.5,0,0.6,0.3
			c0.1,0.3,0,0.5-0.3,0.6c-2.4,0.9-2.7,3.5-2.7,3.6C-467,742.8-467.2,743-467.5,743z"/>
	</g>
	<g>
		<path d="M-470.5,739c-0.1,0-0.2,0-0.3-0.1c-1-0.6-2.4-0.9-4.2-0.9s-3.2,0.3-4.2,0.9c-0.2,0.1-0.5,0.1-0.7-0.2
			c-0.1-0.2-0.1-0.5,0.2-0.7c1.2-0.7,2.8-1.1,4.8-1.1s3.6,0.4,4.8,1.1c0.2,0.1,0.3,0.5,0.2,0.7C-470.2,738.9-470.3,739-470.5,739z"
			/>
	</g>
	<g>
		<path d="M-475,755.5c-0.1,0-0.1,0-0.2,0c-1-0.5-2.3-1.2-2.3-2c0-0.9,1-1.5,2.5-1.5s2.5,0.6,2.5,1.5c0,0.8-1.3,1.5-2.3,2
			C-474.9,755.5-474.9,755.5-475,755.5z M-475,753c-0.9,0-1.5,0.3-1.5,0.5c0.1,0.2,0.8,0.6,1.5,1c0.7-0.3,1.4-0.8,1.5-1
			C-473.5,753.3-474.1,753-475,753z"/>
	</g>
	<g>
		<path d="M-477.5,759c-0.2,0-0.3-0.1-0.4-0.2c-0.1-0.2-0.1-0.5,0.2-0.7l2.3-1.4V755c0-0.3,0.2-0.5,0.5-0.5s0.5,0.2,0.5,0.5v2
			c0,0.2-0.1,0.3-0.2,0.4l-2.5,1.5C-477.3,759-477.4,759-477.5,759z"/>
	</g>
	<g>
		<path d="M-472.5,759c-0.1,0-0.2,0-0.3-0.1l-2.5-1.5c-0.2-0.1-0.3-0.4-0.2-0.7c0.1-0.2,0.5-0.3,0.7-0.2l2.5,1.5
			c0.2,0.1,0.3,0.4,0.2,0.7C-472.2,758.9-472.3,759-472.5,759z"/>
	</g>
</g>
</svg>
