<?xml version="1.0" encoding="utf-8"?>
<!-- Generator: Adobe Illustrator 19.0.1, SVG Export Plug-In . SVG Version: 6.00 Build 0)  -->
<svg version="1.1" id="Слой_1" xmlns="http://www.w3.org/2000/svg" xmlns:xlink="http://www.w3.org/1999/xlink" x="0px" y="0px"
	 viewBox="-487 736 24 30" style="enable-background:new -487 736 24 30;" xml:space="preserve">
<g>
	<g>
		<path d="M-464.5,754C-464.5,754-464.5,754-464.5,754c-0.3,0-0.5-0.3-0.5-0.5c0-14.3-10.4-15-10.5-15c-0.3,0-0.5-0.2-0.5-0.5
			c0-0.2-0.5-1-1-1c-0.4,0-0.9,0.5-1.1,0.8c-0.1,0.1-0.3,0.2-0.4,0.2c-1.7-0.1-4.6,0-5.3,0.7c-0.1,0.1-0.1,0.2-0.1,0.3
			c0,1.6,2.6,5.5,5.6,6c0.3,0.1,0.4,0.3,0.4,0.6s-0.3,0.4-0.6,0.4c-3.3-0.6-6.4-4.8-6.4-7c0-0.4,0.2-0.7,0.4-1
			c1.2-1.1,4.8-1.1,5.8-1c0.3-0.4,1-1,1.7-1c0.9,0,1.7,0.8,1.9,1.5c0.9,0.1,3.1,0.6,5.4,2.2c0.4-0.7,1.1-1.8,2.2-1.8
			c1.5,0,4.5,2.6,4.5,7.5c0,4.5-1,8-1,8.1C-464.1,753.9-464.3,754-464.5,754z M-468.9,740.4c2,1.8,4,4.6,4.7,9.2
			c0.2-1.2,0.3-2.6,0.3-4.1c0-4.3-2.6-6.5-3.5-6.5C-468.2,739-468.7,739.9-468.9,740.4z"/>
	</g>
	<g>
		<path d="M-476.5,759c-0.1,0-0.2,0-0.3-0.1c-0.2-0.2-0.2-0.5-0.1-0.7c0.6-0.7,1.5-1.4,2.5-2c-1.3-0.5-3.6-1.6-3.6-3.2
			c0-1.9,2.3-4,6.5-4c4.6,0,7.5,3.6,7.5,5.5c0,0.5-0.2,0.8-0.4,0.9c-0.6,0.5-1.6,0.2-2.6-0.1c-0.5-0.2-1.1-0.3-1.4-0.3
			c-1.1,0-5.8,1.6-7.6,3.8C-476.2,758.9-476.4,759-476.5,759z M-471.5,750c-3.4,0-5.5,1.6-5.5,3c0,1,2.5,2.1,3.7,2.5
			c0,0,0.1,0,0.1,0c1.9-1,3.9-1.6,4.8-1.6c0.5,0,1.1,0.2,1.7,0.4c0.5,0.1,1.6,0.5,1.8,0.3l0,0c0,0,0,0,0-0.1
			C-465,753.3-467.2,750-471.5,750z"/>
	</g>
	<g>
		<path d="M-465,755.5c-0.1,0-0.3-0.1-0.4-0.2c0,0-2.4-2.8-4.6-2.8c-1.1,0-2.3,0.5-2.3,0.5c-0.3,0.1-0.5,0-0.6-0.3
			c-0.1-0.3,0-0.5,0.3-0.6c0.1,0,1.4-0.5,2.7-0.5c2.6,0,5.3,3,5.4,3.2c0.2,0.2,0.2,0.5-0.1,0.7C-464.8,755.5-464.9,755.5-465,755.5z
			"/>
	</g>
	<g>
		<path d="M-478.5,757.5c-0.1,0-0.3,0-0.4-0.1c-0.2-0.2-0.2-0.5,0-0.7c0.8-0.8,3.6-0.7,4.4-0.6c0.3,0,0.5,0.3,0.5,0.5
			c0,0.3-0.3,0.5-0.5,0.5c-1.5-0.1-3.3,0-3.6,0.4C-478.2,757.5-478.4,757.5-478.5,757.5z"/>
	</g>
	<g>
		<path d="M-474.5,757c-0.1,0-0.2,0-0.3-0.1c0,0-2.3-1.4-3.7-1.4c-0.3,0-0.5-0.2-0.5-0.5s0.2-0.5,0.5-0.5c1.8,0,4.2,1.5,4.3,1.6
			c0.2,0.1,0.3,0.5,0.2,0.7C-474.2,756.9-474.3,757-474.5,757z"/>
	</g>
	<g>
		<path d="M-478.5,743c-0.8,0-1.5-0.7-1.5-1.5s0.7-1.5,1.5-1.5s1.5,0.7,1.5,1.5S-477.7,743-478.5,743z M-478.5,741
			c-0.3,0-0.5,0.2-0.5,0.5s0.2,0.5,0.5,0.5s0.5-0.2,0.5-0.5S-478.2,741-478.5,741z"/>
	</g>
	<g>
		<path d="M-467.5,749c-0.2,0-0.3-0.1-0.4-0.2c-1.3-2-4.9-4.8-7.6-4.8c-0.3,0-0.5-0.2-0.5-0.5s0.2-0.5,0.5-0.5c3.1,0,7,3.1,8.4,5.2
			c0.2,0.2,0.1,0.5-0.1,0.7C-467.3,749-467.4,749-467.5,749z"/>
	</g>
	<g>
		<path d="M-479.5,748.5c-0.1,0-0.1,0-0.2,0c-2.3-0.8-5.3-4.1-5.3-5.5c0-0.6,0.2-0.9,0.4-1.1c0.4-0.4,1-0.4,1.1-0.4
			c0.3,0,0.5,0.2,0.5,0.5c0,0.3-0.2,0.5-0.5,0.5c-0.1,0-0.3,0-0.4,0.1c-0.1,0.1-0.1,0.2-0.1,0.4c0,0.7,2.5,3.8,4.7,4.5
			c0.3,0.1,0.4,0.4,0.3,0.6C-479.1,748.4-479.3,748.5-479.5,748.5z"/>
	</g>
	<g>
		<path d="M-480.5,751.5c-0.3,0-0.5-0.2-0.5-0.5c0-3,2.2-3.9,2.3-4c0.3-0.1,0.5,0,0.7,0.3c0.1,0.3,0,0.5-0.3,0.7
			c-0.1,0-1.7,0.8-1.7,3C-480,751.3-480.2,751.5-480.5,751.5z"/>
	</g>
	<g>
		<path d="M-479.5,753.5c0,0-0.1,0-0.1,0c-0.2,0-0.3-0.2-0.3-0.3c-0.7-1.7-2-4.2-3-4.2c-0.2,0-0.3-0.1-0.4-0.2
			c-0.2-0.3-0.9-1.3-1.6-1.3c-0.3,0-0.5-0.2-0.5-0.5s0.2-0.5,0.5-0.5c1.1,0,2,1,2.3,1.5c1.6,0.3,2.9,2.8,3.4,4.2
			c0.7-0.5,1.9-1.5,3-2.1c0.4-0.2,1-1.2,1.3-1.8c0.1-0.2,0.4-0.3,0.7-0.2c0.2,0.1,0.3,0.4,0.2,0.7c-0.1,0.3-0.9,1.8-1.7,2.2
			c-1.6,0.9-3.4,2.4-3.4,2.4C-479.3,753.5-479.4,753.5-479.5,753.5z"/>
	</g>
	<g>
		<path d="M-484.5,751c-0.3,0-0.5-0.2-0.5-0.5c0-0.4,0.2-0.8,0.4-1.2l-0.8,0.2c-0.3,0.1-0.5-0.1-0.6-0.4c-0.1-0.3,0.1-0.5,0.4-0.6
			l2.5-0.5c0.2,0,0.5,0.1,0.6,0.3c0.1,0.2,0,0.5-0.2,0.6c-0.5,0.4-1.3,1.1-1.3,1.6C-484,750.8-484.2,751-484.5,751z"/>
	</g>
	<g>
		<circle cx="-486" cy="749" r="1"/>
	</g>
	<g>
		<circle cx="-485.5" cy="747" r="1"/>
	</g>
	<g>
		<circle cx="-484.5" cy="751" r="1"/>
	</g>
	<g>
		<circle cx="-479" cy="755" r="1"/>
	</g>
	<g>
		<circle cx="-479" cy="757.5" r="1"/>
	</g>
	<g>
		<circle cx="-477" cy="759" r="1"/>
	</g>
</g>
</svg>
