<?xml version="1.0" encoding="utf-8"?>
<!-- Generator: Adobe Illustrator 19.0.1, SVG Export Plug-In . SVG Version: 6.00 Build 0)  -->
<svg version="1.1" id="Слой_1" xmlns="http://www.w3.org/2000/svg" xmlns:xlink="http://www.w3.org/1999/xlink" x="0px" y="0px"
	 viewBox="-487 736 24 30" style="enable-background:new -487 736 24 30;" xml:space="preserve">
<g>
	<g>
		<path d="M-471.5,758c-0.8,0-1.3-0.3-1.6-0.6c-0.3-0.2-0.5-0.4-0.9-0.4c-0.4,0-0.6,0.2-0.9,0.4c-0.3,0.3-0.8,0.6-1.6,0.6
			c-0.9,0-1.2-0.4-1.4-0.7c-0.2-0.2-0.2-0.3-0.6-0.3c-0.6,0-1.1-0.2-1.6-0.4c-0.7-0.3-1.6-0.6-2.9-0.6c-2.1,0-3.2,0.9-3.2,0.9
			c-0.1,0.1-0.4,0.2-0.5,0.1c-0.2-0.1-0.3-0.3-0.3-0.5c0-0.1,0.1-2.8,1.8-3.5c1.4-0.5,2.3-1.4,2.3-1.4c0.2-0.2,0.5-0.2,0.7,0
			c0.2,0.2,0.2,0.5,0,0.7c0,0-1.1,1-2.7,1.6c-0.6,0.2-0.9,0.9-1.1,1.6c0.6-0.3,1.6-0.6,2.9-0.6c1.5,0,2.4,0.4,3.2,0.7
			c0.5,0.2,0.9,0.3,1.3,0.3c0.8,0,1.1,0.4,1.4,0.7c0.2,0.2,0.2,0.3,0.6,0.3c0.5,0,0.7-0.2,1-0.4c0.3-0.3,0.7-0.6,1.5-0.6
			c0.8,0,1.2,0.3,1.5,0.6c0.3,0.2,0.5,0.4,1,0.4c0.4,0,0.4-0.1,0.6-0.6c0.1-0.4,0.2-0.9,0.6-1.2c0.6-0.6,1.3-0.3,1.8-0.1
			c0.5,0.2,0.6,0.2,0.7,0.1c0.3-0.3,0.3-0.5,0.4-0.8c0.1-0.3,0.2-0.8,0.6-1.2c0.7-0.7,1.6-0.5,2.2-0.3c0.2-0.3,0.6-0.8,0.6-1.4
			c0-0.6-0.1-1.5-1-1.5c-0.8,0-1.6,0.3-2.1,0.9c-0.2,0.2-0.5,0.2-0.7,0s-0.2-0.5,0-0.7c0.7-0.7,1.8-1.1,2.9-1.1c1.2,0,2,1,2,2.5
			c0,1.3-1.1,2.3-1.2,2.4c-0.2,0.1-0.4,0.2-0.6,0.1c0,0-1-0.5-1.4-0.1c-0.3,0.3-0.3,0.4-0.4,0.7c-0.1,0.3-0.2,0.8-0.6,1.3
			c-0.6,0.6-1.3,0.3-1.8,0.1c-0.5-0.2-0.6-0.2-0.7-0.1c-0.2,0.2-0.3,0.5-0.3,0.8C-470.1,757.2-470.3,758-471.5,758z"/>
	</g>
	<g>
		<path d="M-472.3,753c-1.7,0-2.9,0-4.1-1.1c-0.2-0.2-0.2-0.5,0-0.7c0.2-0.2,0.5-0.2,0.7,0c0.9,0.9,1.8,0.9,3.5,0.9h0.2
			c1.3,0,4.2-1.3,4.5-2.2c0-0.1,0.1-0.2-0.2-0.4c-0.2-0.1-0.3-0.5-0.1-0.7c0.2-0.2,0.5-0.3,0.7-0.1c0.6,0.4,0.8,0.9,0.6,1.5
			c-0.5,1.6-4,2.9-5.4,2.9h-0.2C-472.2,753-472.3,753-472.3,753z"/>
	</g>
	<g>
		<path d="M-465.5,750c-0.3,0-0.5-0.2-0.5-0.5l-0.5-5c0-0.3,0.2-0.5,0.4-0.5c0.3,0,0.5,0.2,0.5,0.4l0.5,5
			C-465,749.7-465.2,750-465.5,750C-465.5,750-465.5,750-465.5,750z"/>
	</g>
	<g>
		<path d="M-464.5,750C-464.5,750-464.6,750-464.5,750c-0.4-0.1-0.5-0.3-0.5-0.6l1-6c0-0.3,0.3-0.5,0.6-0.4c0.3,0,0.5,0.3,0.4,0.6
			l-1,6C-464,749.8-464.3,750-464.5,750z"/>
	</g>
	<g>
		<path d="M-479,753c-4.4,0-7-2.4-7-6.5c0-4.1,3-8.5,9.5-8.5c7.1,0,9.5,6.3,9.5,8c0,1.8,0,3.4-1.3,4c-0.3,0.1-0.5,0-0.7-0.3
			c-0.1-0.3,0-0.5,0.3-0.7c0.7-0.3,0.7-1.6,0.7-3c0-1.5-2.1-7-8.5-7c-6.7,0-8.5,4.7-8.5,7.5c0,3.5,2.1,5.5,6,5.5c4.9,0,5-5.9,5-6
			c0-1.7-1.2-4-4-4c-2.9,0-4,1.8-4,3.5c0,1.7,1.3,2.5,2.5,2.5c1.2,0,2.5-1.2,2.5-2c0-0.9-0.6-1.5-1.5-1.5c-0.8,0-1,0.2-1,1
			c0,0.3-0.2,0.5-0.5,0.5s-0.5-0.2-0.5-0.5c0-1.3,0.7-2,2-2c1.4,0,2.5,1.1,2.5,2.5c0,1.5-1.8,3-3.5,3c-1.7,0-3.5-1.2-3.5-3.5
			c0-2.1,1.3-4.5,5-4.5c3.4,0,5,2.9,5,5C-473,748.4-474.3,753-479,753z"/>
	</g>
</g>
</svg>
