<?xml version="1.0" encoding="utf-8"?>
<!-- Generator: Adobe Illustrator 19.0.1, SVG Export Plug-In . SVG Version: 6.00 Build 0)  -->
<svg version="1.1" id="Слой_1" xmlns="http://www.w3.org/2000/svg" xmlns:xlink="http://www.w3.org/1999/xlink" x="0px" y="0px"
	 viewBox="-487 736 24 30" style="enable-background:new -487 736 24 30;" xml:space="preserve">
<g>
	<g>
		<path d="M-480.5,746.5c-0.1,0-0.1,0-0.2,0c-1.3-0.4-3.3-3.3-3.3-4.5c0-1.4,3.2-3.5,4.5-3.5c1.3,0,3,1.8,3.4,2.2
			c0.2,0.2,0.2,0.5,0,0.7c-0.2,0.2-0.5,0.2-0.7,0c-0.7-0.8-2-1.8-2.6-1.8c-1,0-3.5,1.9-3.5,2.5c0,0.7,1.7,3.2,2.7,3.5
			c0.3,0.1,0.4,0.4,0.3,0.6C-480.1,746.4-480.3,746.5-480.5,746.5z"/>
	</g>
	<g>
		<path d="M-483.5,756.5c-0.2,0-0.4-0.1-0.4-0.3c-0.2-0.3-1.6-3.1-1.6-4.2c0-0.3,0.2-0.5,0.5-0.5s0.5,0.2,0.5,0.5
			c0,0.5,0.5,1.7,0.9,2.7l0.6-1.8c0.1-0.3,0.4-0.4,0.6-0.3c0.3,0.1,0.4,0.4,0.3,0.6l-1,3C-483.1,756.3-483.3,756.5-483.5,756.5
			C-483.5,756.5-483.5,756.5-483.5,756.5z"/>
	</g>
	<g>
		<path d="M-477.5,755.5c-0.2,0-0.4-0.1-0.4-0.3l-1-2c-0.1-0.2,0-0.5,0.2-0.7c0.2-0.1,0.5,0,0.7,0.2l0.5,1l0.6-1.5
			c0.1-0.3,0.4-0.4,0.6-0.3c0.3,0.1,0.4,0.4,0.3,0.6l-1,2.5C-477.1,755.4-477.3,755.5-477.5,755.5
			C-477.5,755.5-477.5,755.5-477.5,755.5z"/>
	</g>
	<g>
		<path d="M-477,748.5c-0.1,0-0.2,0-0.2-0.1l-1.7-0.8l-0.7,0.7c-0.2,0.2-0.5,0.2-0.7,0c-0.2-0.2-0.2-0.5,0-0.7l1-1
			c0.2-0.2,0.4-0.2,0.6-0.1l2,1c0.2,0.1,0.3,0.4,0.2,0.7C-476.6,748.4-476.8,748.5-477,748.5z"/>
	</g>
	<g>
		<path d="M-478.5,744.5c-0.8,0-1.5-0.7-1.5-1.5s0.7-1.5,1.5-1.5s1.5,0.7,1.5,1.5S-477.7,744.5-478.5,744.5z M-478.5,742.5
			c-0.3,0-0.5,0.2-0.5,0.5s0.2,0.5,0.5,0.5s0.5-0.2,0.5-0.5S-478.2,742.5-478.5,742.5z"/>
	</g>
	<g>
		<path d="M-472,740c-0.1,0-0.1,0-0.2,0l-1.3-0.4l-1.3,0.4c-0.1,0-0.2,0-0.3,0l-1.3-0.4l-1.3,0.4c-0.3,0.1-0.5-0.1-0.6-0.3
			c-0.1-0.3,0.1-0.5,0.3-0.6l1.5-0.5c0.1,0,0.2,0,0.3,0l1.3,0.4l1.3-0.4c0.1,0,0.2,0,0.3,0l1.5,0.5c0.3,0.1,0.4,0.4,0.3,0.6
			C-471.6,739.9-471.8,740-472,740z"/>
	</g>
	<g>
		<path d="M-469.5,746.5c-0.2,0-0.4-0.1-0.5-0.3c-0.1-0.3,0.1-0.5,0.3-0.6c1-0.3,2.7-2.8,2.7-3.5c0-0.6-2.5-2.5-3.5-2.5
			c-0.7,0-1.9,1.1-2.6,1.8c-0.2,0.2-0.5,0.2-0.7,0c-0.2-0.2-0.2-0.5,0-0.7c0.3-0.4,2-2.2,3.4-2.2c1.3,0,4.5,2.1,4.5,3.5
			c0,1.2-2,4-3.3,4.5C-469.4,746.5-469.4,746.5-469.5,746.5z"/>
	</g>
	<g>
		<path d="M-467.5,748.5c-0.1,0-0.3-0.1-0.4-0.2c-1.3-1.5-2.7-2.8-3.1-2.8c-0.4,0-1.3,0.6-1.9,1c-0.9,0.6-1.5,1-2.1,1
			s-1.1-0.4-2.1-1c-0.7-0.4-1.5-1-1.9-1c-0.4,0-1.8,1.3-3.1,2.8c-0.2,0.2-0.5,0.2-0.7,0c-0.2-0.2-0.2-0.5,0-0.7
			c0.8-1,2.9-3.2,3.9-3.2c0.7,0,1.6,0.6,2.5,1.2c0.5,0.3,1.3,0.8,1.5,0.8c0.2,0,1-0.5,1.5-0.8c0.9-0.6,1.8-1.2,2.5-1.2
			c1,0,3,2.2,3.9,3.2c0.2,0.2,0.2,0.5,0,0.7C-467.3,748.5-467.4,748.5-467.5,748.5z"/>
	</g>
	<g>
		<path d="M-469.5,754.5c-0.6,0-1-0.3-1.5-0.7c-0.7-0.6-1.7-1.3-4-1.3s-3.3,0.8-4,1.3c-0.5,0.4-0.9,0.7-1.5,0.7
			c-0.6,0-1.1-0.4-1.6-0.8c-0.7-0.6-1.6-1.2-3.4-1.2c-0.9,0-1.5-0.8-1.5-1.5c0-2.1,1.9-4.1,3.1-5.5c0.4-0.4,0.9-0.9,0.9-1.1
			c0-0.3,0.2-0.5,0.5-0.5c0.3,0,0.5,0.3,0.5,0.5c0,0.4-0.4,0.8-1.2,1.7c-1.1,1.2-2.8,3-2.8,4.8c0,0.1,0.1,0.5,0.5,0.5
			c2.1,0,3.2,0.8,4,1.4c0.4,0.3,0.7,0.6,1,0.6c0.2,0,0.5-0.2,0.9-0.5c0.8-0.6,2-1.5,4.6-1.5s3.8,0.9,4.6,1.5
			c0.4,0.3,0.6,0.5,0.9,0.5c0.3,0,0.6-0.2,1-0.6c0.8-0.6,1.9-1.4,4-1.4c0.4,0,0.5-0.4,0.5-0.5c0-1.7-1.7-3.6-2.8-4.8
			c-0.8-0.9-1.2-1.3-1.2-1.7c0-0.3,0.2-0.5,0.5-0.5c0.3,0,0.5,0.2,0.5,0.5c0.1,0.2,0.5,0.7,0.9,1.1c1.2,1.3,3.1,3.3,3.1,5.5
			c0,0.7-0.6,1.5-1.5,1.5c-1.7,0-2.6,0.7-3.4,1.2C-468.4,754.1-468.9,754.5-469.5,754.5z"/>
	</g>
	<g>
		<path d="M-466.5,756.5C-466.5,756.5-466.5,756.5-466.5,756.5c-0.2,0-0.4-0.2-0.5-0.3l-1-3c-0.1-0.3,0.1-0.5,0.3-0.6
			c0.3-0.1,0.5,0.1,0.6,0.3l0.6,1.8c0.5-1,0.9-2.2,0.9-2.7c0-0.3,0.2-0.5,0.5-0.5s0.5,0.2,0.5,0.5c0,1.2-1.4,3.9-1.6,4.2
			C-466.1,756.4-466.3,756.5-466.5,756.5z"/>
	</g>
	<g>
		<path d="M-472.5,755.5C-472.5,755.5-472.5,755.5-472.5,755.5c-0.2,0-0.4-0.1-0.5-0.3l-1-2.5c-0.1-0.3,0-0.5,0.3-0.6
			c0.3-0.1,0.5,0,0.6,0.3l0.6,1.5l0.5-1c0.1-0.2,0.4-0.3,0.7-0.2c0.2,0.1,0.3,0.4,0.2,0.7l-1,2
			C-472.1,755.4-472.3,755.5-472.5,755.5z"/>
	</g>
	<g>
		<path d="M-473,748.5c-0.2,0-0.4-0.1-0.4-0.3c-0.1-0.2,0-0.5,0.2-0.7l2-1c0.2-0.1,0.4-0.1,0.6,0.1l1,1c0.2,0.2,0.2,0.5,0,0.7
			s-0.5,0.2-0.7,0l-0.7-0.7l-1.7,0.8C-472.8,748.5-472.9,748.5-473,748.5z"/>
	</g>
	<g>
		<path d="M-471.5,744.5c-0.8,0-1.5-0.7-1.5-1.5s0.7-1.5,1.5-1.5s1.5,0.7,1.5,1.5S-470.7,744.5-471.5,744.5z M-471.5,742.5
			c-0.3,0-0.5,0.2-0.5,0.5s0.2,0.5,0.5,0.5s0.5-0.2,0.5-0.5S-471.2,742.5-471.5,742.5z"/>
	</g>
	<g>
		<path d="M-472.5,757.5c-1.1,0-1.5-0.4-1.9-0.7c-0.2-0.2-0.3-0.3-0.6-0.3s-0.4,0.1-0.6,0.3c-0.3,0.3-0.8,0.7-1.9,0.7
			c-1.4,0-3.4-0.9-4.8-1.6c-0.3-0.2-0.6-0.3-0.9-0.4c-0.3-0.1-0.4-0.4-0.3-0.7c0.1-0.3,0.4-0.4,0.7-0.3c0.3,0.1,0.6,0.3,0.9,0.4
			c1.3,0.6,3.2,1.5,4.4,1.5c0.7,0,0.9-0.2,1.2-0.4c0.3-0.2,0.6-0.6,1.3-0.6s1,0.3,1.3,0.6c0.3,0.2,0.5,0.4,1.2,0.4
			c1.2,0,3.1-0.9,4.4-1.5c0.3-0.2,0.7-0.3,0.9-0.4c0.3-0.1,0.5,0,0.7,0.3c0.1,0.3,0,0.5-0.3,0.7c-0.2,0.1-0.5,0.3-0.9,0.4
			C-469.1,756.6-471.1,757.5-472.5,757.5z"/>
	</g>
</g>
</svg>
