<?xml version="1.0" encoding="utf-8"?>
<!-- Generator: Adobe Illustrator 19.0.1, SVG Export Plug-In . SVG Version: 6.00 Build 0)  -->
<svg version="1.1" id="Слой_1" xmlns="http://www.w3.org/2000/svg" xmlns:xlink="http://www.w3.org/1999/xlink" x="0px" y="0px"
	 viewBox="-487 736 24 30" style="enable-background:new -487 736 24 30;" xml:space="preserve">
<g>
	<g>
		<path d="M-475,751.5c-3.1,0-5-1.3-5-3.5c0-1.8,1.5-2.8,2.4-3c1.7-0.5,7.5-0.6,13-0.5l1.1,0c0.3,0,0.5,0.2,0.5,0.5
			s-0.2,0.5-0.5,0.5c-2,0-4.4,1.8-6.5,3.3C-472,750.3-473.7,751.5-475,751.5z M-477.4,746c-0.1,0-1.6,0.5-1.6,2c0,2.3,3.1,2.5,4,2.5
			c1,0,2.7-1.2,4.4-2.5c1.2-0.9,2.5-1.9,3.8-2.5C-470.4,745.5-476,745.5-477.4,746C-477.4,746-477.4,746-477.4,746z"/>
	</g>
	<g>
		<path d="M-476,753.5c-3.7,0-7-2.4-7-5c0-2.5-0.4-5-3.5-5c-0.2,0-0.5-0.2-0.5-0.4c0-0.2,0.1-0.5,0.4-0.6c0.7-0.2,1.4-0.5,1.6-0.7
			c0.1-0.8,0.7-3.4,3-3.4c2.5,0,3,1.6,3,3c0,0.8-0.1,1.4-0.2,1.7c0,0.1,0,0.2-0.1,0.3c0.1,0,0.1,0,0.3,0c0.5,0,0.8-0.1,1.3-0.3
			c0.8-0.3,1.9-0.7,4.2-0.7c3.4,0,7.4,1.7,8.1,2h1.9c0.3,0,0.5,0.2,0.5,0.5v1c0,0.2-0.1,0.3-0.3,0.4l-4.4,2.5
			C-470.7,751.9-473.6,753.5-476,753.5z M-484.7,742.8c2.7,1.1,2.7,4.4,2.7,5.7c0,1.8,2.7,4,6,4c2.1,0,4.8-1.5,7.6-4.3
			c0,0,0.1-0.1,0.1-0.1l4.2-2.4v-0.2h-1.5c-0.1,0-0.1,0-0.2,0c0,0-4.4-2-7.8-2c-2.1,0-3.1,0.4-3.9,0.6c-0.5,0.2-1,0.4-1.6,0.4
			c-0.4,0-0.9,0-1.1-0.3c-0.3-0.3-0.2-0.7-0.1-1.1c0.1-0.4,0.2-0.9,0.2-1.5c0-1.4-0.6-2-2-2c-1.7,0-2,2.5-2,2.5
			C-484,742.2-484,742.4-484.7,742.8z"/>
	</g>
	<g>
		<path d="M-475.5,751.5c-0.3,0-0.5-0.2-0.5-0.5c0-0.3,0.2-0.5,0.4-0.5c0-0.1,0-0.2,0-0.3c-0.1-0.4-0.1-0.9,0.2-1.3
			c0.2-0.2,0.5-0.4,0.9-0.4c0.3,0,0.4-0.1,0.5-0.6c0.1-0.5,0.4-1.4,1.5-1.4c0.3,0,0.4-0.1,0.4-0.2c0.2-0.3,0.2-1,0.1-1.2
			c-0.1-0.3,0.1-0.5,0.4-0.6c0.3-0.1,0.5,0.1,0.6,0.4c0,0.1,0.3,1.3-0.3,2.1c-0.2,0.2-0.6,0.5-1.2,0.5c-0.3,0-0.4,0.1-0.5,0.6
			c-0.1,0.5-0.4,1.4-1.5,1.4c-0.1,0-0.2,0-0.2,0c0,0.1,0,0.3,0.1,0.5c0.1,0.4,0.1,0.8-0.2,1.2C-474.9,751.3-475.1,751.5-475.5,751.5
			z"/>
	</g>
	<g>
		<path d="M-474.5,757.5c-0.3,0-0.5-0.2-0.5-0.5v-4c0-0.3,0.2-0.5,0.5-0.5s0.5,0.2,0.5,0.5v4C-474,757.3-474.2,757.5-474.5,757.5z"
			/>
	</g>
	<g>
		<path d="M-476,757.5c-0.1,0-0.2,0-0.3-0.1c-0.2-0.2-0.3-0.5-0.1-0.7l1.5-2c0.2-0.2,0.5-0.3,0.7-0.1c0.2,0.2,0.3,0.5,0.1,0.7
			l-1.5,2C-475.7,757.4-475.8,757.5-476,757.5z"/>
	</g>
	<g>
		<path d="M-477.5,757.5c-0.3,0-0.5-0.2-0.5-0.5v-4c0-0.3,0.2-0.5,0.5-0.5s0.5,0.2,0.5,0.5v4C-477,757.3-477.2,757.5-477.5,757.5z"
			/>
	</g>
	<g>
		<path d="M-479,757.5c-0.1,0-0.2,0-0.3-0.1c-0.2-0.2-0.3-0.5-0.1-0.7l1.5-2c0.2-0.2,0.5-0.3,0.7-0.1c0.2,0.2,0.3,0.5,0.1,0.7
			l-1.5,2C-478.7,757.4-478.8,757.5-479,757.5z"/>
	</g>
</g>
</svg>
