<?xml version="1.0" encoding="utf-8"?>
<!-- Generator: Adobe Illustrator 19.0.1, SVG Export Plug-In . SVG Version: 6.00 Build 0)  -->
<svg version="1.1" id="Слой_1" xmlns="http://www.w3.org/2000/svg" xmlns:xlink="http://www.w3.org/1999/xlink" x="0px" y="0px"
	 viewBox="-487 736 24 30" style="enable-background:new -487 736 24 30;" xml:space="preserve">
<g>
	<g>
		<path d="M-479,745c-0.3,0-0.5-0.2-0.5-0.5c0-0.6-0.4-1.3-0.9-2c-0.5-0.9-1.1-1.9-1.1-3c0-2.1,1.9-3.5,3-3.5c0.9,0,1.7,1,1.9,1.2
			c0.1,0.2,0.1,0.4,0,0.6c-0.1,0.2-0.3,0.3-0.5,0.3c0,0-0.6-0.1-1,0.3c-0.3,0.2-0.4,0.7-0.4,1.2c0,0.7,0.4,1.1,0.9,1.6
			c0.5,0.5,1.1,1,1.1,1.9c0,0.3-0.2,0.5-0.5,0.5s-0.5-0.2-0.5-0.5c0-0.4-0.3-0.7-0.8-1.2c-0.5-0.5-1.2-1.2-1.2-2.3
			c0-0.9,0.3-1.5,0.8-2c0.2-0.2,0.4-0.3,0.6-0.4c-0.1-0.1-0.3-0.2-0.4-0.2c-0.4,0-2,0.9-2,2.5c0,0.8,0.5,1.7,1,2.5
			c0.5,0.8,1,1.7,1,2.5C-478.5,744.8-478.7,745-479,745z"/>
	</g>
	<g>
		<path d="M-480,749c-0.1,0-0.2,0-0.2-0.1l-4-2c-0.1,0-0.1-0.1-0.2-0.2l-2-3c-0.1-0.2-0.1-0.4,0-0.6c0.2-0.2,0.4-0.2,0.6-0.1
			l3.9,1.9h1.9c0.3,0,0.5,0.2,0.5,0.5s-0.2,0.5-0.5,0.5h-2c-0.1,0-0.2,0-0.2-0.1l-2.3-1.2l0.9,1.3l3.9,1.9c0.2,0.1,0.3,0.4,0.2,0.7
			C-479.6,748.9-479.8,749-480,749z"/>
	</g>
	<g>
		<path d="M-476.5,760c-1.6,0-2.5-1-2.5-2c0-1.3,0.6-2.1,1.3-2.4c0.2-0.1,0.5,0,0.7,0.2c0.1,0.2,0,0.5-0.2,0.7
			c-0.1,0.1-0.7,0.5-0.7,1.6c0,0.5,0.5,1,1.5,1c0.8,0,1-0.4,1-1c0-0.1-0.3-0.4-0.5-0.6c0,0,0,0,0,0.1c0,0.3-0.2,0.5-0.5,0.5
			s-0.5-0.2-0.5-0.5c0-0.3,0.1-0.6,0.2-0.8c0.2-0.2,0.4-0.3,0.7-0.3c0.7,0,1.6,0.9,1.6,1.6C-474.5,759.7-475.8,760-476.5,760z"/>
	</g>
	<g>
		<circle cx="-477.5" cy="748" r="1"/>
	</g>
	<g>
		<path d="M-476,756c-0.3,0-0.5-0.2-0.5-0.5c0-0.7-0.3-1.5-0.6-2.3c-0.2-0.7-0.4-1.2-0.4-1.7c0-0.3,0.2-0.5,0.5-0.5s0.5,0.2,0.5,0.5
			c0,0.3,0.2,0.8,0.4,1.4c0.3,0.8,0.6,1.7,0.6,2.6C-475.5,755.8-475.7,756-476,756z"/>
	</g>
	<g>
		<path d="M-471,745c-0.3,0-0.5-0.2-0.5-0.5c0-0.8,0.5-1.7,1-2.5c0.5-0.8,1-1.7,1-2.5c0-1.6-1.6-2.5-2-2.5c-0.1,0-0.3,0.1-0.4,0.2
			c0.2,0.1,0.4,0.2,0.6,0.4c0.5,0.4,0.8,1.1,0.8,2c0,1.1-0.7,1.8-1.2,2.3c-0.5,0.5-0.8,0.8-0.8,1.2c0,0.3-0.2,0.5-0.5,0.5
			s-0.5-0.2-0.5-0.5c0-0.9,0.6-1.4,1.1-1.9c0.5-0.5,0.9-0.9,0.9-1.6c0-0.6-0.1-1-0.4-1.2c-0.4-0.4-1-0.3-1-0.3
			c-0.2,0-0.4-0.1-0.5-0.3c-0.1-0.2-0.1-0.4,0-0.6c0.2-0.2,1-1.2,1.9-1.2c1.1,0,3,1.4,3,3.5c0,1.1-0.6,2.1-1.1,3
			c-0.4,0.7-0.9,1.4-0.9,2C-470.5,744.8-470.7,745-471,745z"/>
	</g>
	<g>
		<path d="M-472.5,756.5c-0.1,0-0.1,0-0.2,0c-0.3-0.1-0.4-0.4-0.3-0.6c0-0.1,2.5-6.7,2.5-8.8c0-1.5-2.8-4-4.5-4s-4.5,2.5-4.5,4
			c0,2.1,2.4,8.8,2.5,8.8c0.1,0.3,0,0.5-0.3,0.6c-0.3,0.1-0.5,0-0.6-0.3c-0.1-0.3-2.5-6.9-2.5-9.2c0-2.2,3.4-5,5.5-5s5.5,2.8,5.5,5
			c0,2.3-2.4,8.9-2.5,9.2C-472.1,756.4-472.3,756.5-472.5,756.5z"/>
	</g>
	<g>
		<path d="M-470,749c-0.2,0-0.4-0.1-0.4-0.3c-0.1-0.2,0-0.5,0.2-0.7l3.9-1.9l0.9-1.3l-2.3,1.2c-0.1,0-0.1,0.1-0.2,0.1h-2
			c-0.3,0-0.5-0.2-0.5-0.5s0.2-0.5,0.5-0.5h1.9l3.9-1.9c0.2-0.1,0.4-0.1,0.6,0.1c0.1,0.2,0.2,0.4,0,0.6l-2,3c0,0.1-0.1,0.1-0.2,0.2
			l-4,2C-469.8,749-469.9,749-470,749z"/>
	</g>
	<g>
		<path d="M-473.5,760c-0.7,0-2-0.3-2-2c0-0.7,0.9-1.6,1.6-1.6c0.3,0,0.5,0.1,0.7,0.3c0.1,0.2,0.2,0.4,0.2,0.8
			c0,0.3-0.2,0.5-0.5,0.5s-0.5-0.2-0.5-0.5c0,0,0,0,0-0.1c-0.2,0.1-0.5,0.4-0.5,0.6c0,0.6,0.2,1,1,1c1,0,1.5-0.5,1.5-1
			c0-1.1-0.6-1.5-0.7-1.6c-0.2-0.1-0.3-0.4-0.2-0.7c0.1-0.2,0.4-0.3,0.7-0.2c0.6,0.3,1.3,1.2,1.3,2.4C-471,759-471.9,760-473.5,760z
			"/>
	</g>
	<g>
		<path d="M-472.5,749c-0.6,0-1-0.4-1-1s0.4-1,1-1s1,0.4,1,1S-471.9,749-472.5,749z M-472.5,748h-0.5H-472.5L-472.5,748z"/>
	</g>
	<g>
		<path d="M-474,756c-0.3,0-0.5-0.2-0.5-0.5c0-0.9,0.3-1.8,0.6-2.6c0.2-0.6,0.4-1.1,0.4-1.4c0-0.3,0.2-0.5,0.5-0.5s0.5,0.2,0.5,0.5
			c0,0.5-0.2,1.1-0.4,1.7c-0.3,0.7-0.6,1.5-0.6,2.3C-473.5,755.8-473.7,756-474,756z"/>
	</g>
</g>
</svg>
