<?xml version="1.0" encoding="utf-8"?>
<!-- Generator: Adobe Illustrator 19.0.1, SVG Export Plug-In . SVG Version: 6.00 Build 0)  -->
<svg version="1.1" id="Слой_1" xmlns="http://www.w3.org/2000/svg" xmlns:xlink="http://www.w3.org/1999/xlink" x="0px" y="0px"
	 viewBox="-487 736 24 30" style="enable-background:new -487 736 24 30;" xml:space="preserve">
<g>
	<g>
		<path d="M-483,750c-1.4,0-2-0.7-2.2-1.3c-0.3-0.7-0.3-1.5-0.3-2.1c0-1.5,0.6-2.5,1.5-2.5c0.7,0,1.3,0.6,1.8,1.1l0.1,0.1
			c0.2,0.2,0.2,0.5,0,0.7c-0.2,0.2-0.5,0.2-0.7,0l-0.1-0.1c-0.3-0.3-0.8-0.8-1.1-0.8c-0.1,0-0.5,0.5-0.5,1.5c0,0.6,0,1.3,0.2,1.8
			c0.1,0.3,0.4,0.7,1.3,0.7c0.3,0,0.5,0.2,0.5,0.5S-482.7,750-483,750z"/>
	</g>
	<g>
		<circle cx="-477" cy="750.5" r="0.5"/>
	</g>
	<g>
		<path d="M-478,747c-0.8,0-1.5-0.7-1.5-1.5s0.7-1.5,1.5-1.5s1.5,0.7,1.5,1.5S-477.2,747-478,747z M-478,745c-0.3,0-0.5,0.2-0.5,0.5
			s0.2,0.5,0.5,0.5s0.5-0.2,0.5-0.5S-477.7,745-478,745z"/>
	</g>
	<g>
		<path d="M-475,760c-3.9,0-8.5-2.5-8.5-9.5c0-7.6,4.1-14.5,8.5-14.5s8.5,6.9,8.5,14.5C-466.5,757.5-471.1,760-475,760z M-475,737
			c-3.9,0-7.5,6.6-7.5,13.5c0,8.1,6.2,8.5,7.5,8.5s7.5-0.4,7.5-8.5C-467.5,743.6-471.1,737-475,737z"/>
	</g>
	<g>
		<path d="M-467,750c-0.3,0-0.5-0.2-0.5-0.5s0.2-0.5,0.5-0.5c0.9,0,1.1-0.4,1.3-0.7c0.2-0.5,0.2-1.2,0.2-1.7c0-1.1-0.4-1.5-0.5-1.5
			c-0.3,0-0.8,0.5-1.1,0.8l-0.1,0.1c-0.2,0.2-0.5,0.2-0.7,0s-0.2-0.5,0-0.7l0.1-0.1c0.4-0.5,1.1-1.1,1.8-1.1c0.9,0,1.5,1,1.5,2.5
			c0,0.7,0,1.5-0.3,2.2C-465,749.3-465.6,750-467,750z"/>
	</g>
	<g>
		<path d="M-471,750c-0.3,0-0.5-0.2-0.5-0.5s0.2-0.5,0.5-0.5c0.4,0,1.5-0.9,1.5-2c0-1.1-0.2-2-2.5-2c-1.3,0-1.5,0.3-1.7,0.5
			c-0.3,0.3-0.6,0.5-1.3,0.5s-1-0.2-1.3-0.5c-0.2-0.2-0.5-0.5-1.7-0.5c-2.3,0-2.5,0.9-2.5,2c0,1.1,1.1,2,1.5,2
			c0.3,0,0.5,0.2,0.5,0.5s-0.2,0.5-0.5,0.5c-1,0-2.5-1.4-2.5-3c0-2,1.1-3,3.5-3c1.6,0,2,0.4,2.5,0.8c0.2,0.2,0.2,0.2,0.5,0.2
			s0.4-0.1,0.5-0.2c0.4-0.4,0.9-0.8,2.5-0.8c2.4,0,3.5,1,3.5,3C-468.5,748.6-470,750-471,750z"/>
	</g>
	<g>
		<path d="M-475,758c-4.8,0-5.5-2.8-5.5-4.5c0-1.6,0.5-2.2,0.8-2.6c0.1-0.2,0.2-0.3,0.2-0.4c0-1.1,0.5-2.5,3-2.5
			c0.7,0,1.2,0.2,1.5,0.4c0.3-0.2,0.8-0.4,1.5-0.4c2.5,0,3,1.4,3,2.5c0,0.1,0.1,0.2,0.2,0.4c0.3,0.4,0.8,1.1,0.8,2.6
			C-469.5,755.2-470.2,758-475,758z M-476.5,749c-1.4,0-2,0.4-2,1.5c0,0.4-0.2,0.7-0.4,1c-0.3,0.4-0.6,0.8-0.6,2
			c0,2.3,1.5,3.5,4.5,3.5s4.5-1.2,4.5-3.5c0-1.2-0.3-1.7-0.6-2c-0.2-0.3-0.4-0.5-0.4-1c0-1.1-0.6-1.5-2-1.5c-0.7,0-1.1,0.4-1.2,0.4
			c-0.2,0.2-0.5,0.2-0.7,0C-475.4,749.3-475.8,749-476.5,749z"/>
	</g>
	<g>
		<path d="M-470.5,754.5c-0.1,0-0.3,0-0.4-0.1c-0.5-0.5-2.6-1.4-4.1-1.4s-3.6,0.8-4.1,1.4c-0.2,0.2-0.5,0.2-0.7,0s-0.2-0.5,0-0.7
			c0.7-0.7,3.1-1.6,4.9-1.6s4.1,0.9,4.9,1.6c0.2,0.2,0.2,0.5,0,0.7C-470.2,754.5-470.4,754.5-470.5,754.5z"/>
	</g>
	<g>
		<circle cx="-473" cy="750.5" r="0.5"/>
	</g>
	<g>
		<path d="M-472,747c-0.8,0-1.5-0.7-1.5-1.5s0.7-1.5,1.5-1.5s1.5,0.7,1.5,1.5S-471.2,747-472,747z M-472,745c-0.3,0-0.5,0.2-0.5,0.5
			s0.2,0.5,0.5,0.5s0.5-0.2,0.5-0.5S-471.7,745-472,745z"/>
	</g>
</g>
</svg>
