<?xml version="1.0" encoding="utf-8"?>
<!-- Generator: Adobe Illustrator 19.0.1, SVG Export Plug-In . SVG Version: 6.00 Build 0)  -->
<svg version="1.1" id="Слой_1" xmlns="http://www.w3.org/2000/svg" xmlns:xlink="http://www.w3.org/1999/xlink" x="0px" y="0px"
	 viewBox="-487 736 24 30" style="enable-background:new -487 736 24 30;" xml:space="preserve">
<g>
	<g>
		<path d="M-479.2,752c-0.3,0-0.6-0.1-0.8-0.2c-0.7-0.3-0.9-0.9-1-1.3c0-2.2,1.9-3.3,3.1-3.8c-0.1-0.1-0.1-0.3,0-0.5
			c1.6-3.1,4.9-3.3,6.1-3.3c0.3-0.9,1-2.9,2.4-4c-0.3-0.3-0.6-0.6-0.6-1c0-0.6,0.6-2,1.5-2c0.4,0,0.8,0.2,1,0.3
			c0.2-0.2,0.6-0.3,1-0.3c0.4,0,0.8,0.2,1,0.4c0.3-0.2,0.6-0.4,1-0.4c0.7,0,1.5,0.6,1.5,1.5c0,0.5-0.3,0.8-0.6,1.1
			c0.3,0.4,0.6,1,0.6,1.9c0,0.2-0.1,0.3-0.2,0.4c-0.1,0.1-0.3,0.1-0.5,0c0,0-1-0.5-1.8-0.5c-0.3,0-0.5-0.2-0.5-0.5s0.2-0.5,0.5-0.5
			c0.5,0,1,0.1,1.4,0.2c-0.2-0.6-0.6-0.8-0.6-0.8c-0.2-0.1-0.3-0.3-0.3-0.5c0-0.2,0.1-0.4,0.3-0.5c0.3-0.1,0.7-0.4,0.7-0.5
			c0-0.4-0.3-0.5-0.5-0.5c-0.2,0-0.5,0.2-0.6,0.4c-0.1,0.1-0.2,0.1-0.4,0.1c-0.1,0-0.3-0.1-0.4-0.2c-0.1-0.1-0.4-0.3-0.6-0.3
			c-0.2,0-0.5,0.2-0.6,0.3c-0.2,0.2-0.5,0.2-0.7,0c-0.1-0.1-0.4-0.3-0.6-0.3c-0.2,0.1-0.5,0.7-0.5,1c0,0.1,0.4,0.4,0.7,0.6
			c0.2,0.1,0.3,0.3,0.3,0.5c0,0.2-0.1,0.4-0.3,0.4c-2,0.9-2.7,4.1-2.7,4.2c-0.1,0.2-0.3,0.4-0.5,0.4c-0.2,0-3.7-0.3-5.3,2.4l0.2,0.2
			c0.1,0.1,0.2,0.3,0.1,0.5c0,0.2-0.2,0.3-0.4,0.4c0,0-3.1,0.8-3.1,3c0,0,0.1,0.3,0.4,0.4c0.3,0.1,1.1,0.2,2.8-0.9
			c0.2-0.1,0.5-0.1,0.7,0.1c0.2,0.2,0.1,0.5-0.1,0.7c0,0-0.1,0.1-0.1,0.1c0.1,0,0.2,0,0.3,0c1,0,2.4-1.7,3.1-2.8
			c0.1-0.2,0.5-0.3,0.7-0.2c0.2,0.1,0.3,0.5,0.2,0.7c-0.2,0.3-2.1,3.2-3.9,3.2c-0.3,0-1,0-1.3-0.5C-478,751.8-478.6,752-479.2,752z"
			/>
	</g>
	<g>
		<path d="M-473,750c-0.2,0-0.4-0.2-0.5-0.4c-0.1-0.3,0.1-0.5,0.4-0.6c2.5-0.5,3.2-1.6,3.3-2.2c0.1-0.5,0-0.9-0.1-0.9
			c-0.2-0.2-0.2-0.5,0-0.7s0.5-0.2,0.7,0c0.3,0.3,0.6,1.1,0.3,1.9c-0.2,0.8-1.1,2.3-4.1,2.9C-472.9,750-473,750-473,750z"/>
	</g>
	<g>
		<path d="M-479.5,746c-0.1,0-0.3-0.1-0.4-0.2c-0.2-0.2-0.2-0.5,0.1-0.7c0.1-0.1,1.3-1.1,2.3-1.1c0.9,0,1.4,0.5,1.5,0.8
			c0.1,0.3-0.1,0.5-0.3,0.6c-0.3,0.1-0.5,0-0.6-0.3c0,0-0.1-0.2-0.5-0.2c-0.5,0-1.3,0.5-1.7,0.9C-479.3,746-479.4,746-479.5,746z"/>
	</g>
	<g>
		<path d="M-479,745.5c-0.1,0-0.1,0-0.2,0c-0.2-0.1-0.4-0.4-0.2-0.7c0,0,0.5-1,0.5-2.3c0-1.3-1.9-5.5-4-5.5c-0.4,0-0.5,0.1-0.5,0.1
			c0,0,0,0,0,0.1c0.7,0.4,2.5,1.6,2.5,3.3c0,0.3-0.2,0.5-0.5,0.5s-0.5-0.2-0.5-0.5c0-1.2-1.6-2.2-2.2-2.6c-0.1-0.1-0.2-0.2-0.3-0.3
			c0-0.1-0.2-0.6,0.2-1.1c0.3-0.3,0.7-0.5,1.3-0.5c2.9,0,5,4.9,5,6.5c0,1.6-0.5,2.7-0.5,2.7C-478.6,745.4-478.8,745.5-479,745.5z"/>
	</g>
	<g>
		<path d="M-482.5,745c-0.3,0-0.5-0.2-0.5-0.5c0-2.7-2.7-4.6-2.8-4.6c-0.1-0.1-0.2-0.3-0.2-0.4c0-1.7,1.2-2.4,1.9-2.5
			c0.3-0.1,0.5,0.1,0.6,0.4c0.1,0.3-0.1,0.5-0.4,0.6c-0.1,0-1,0.3-1.1,1.3c0.8,0.6,3,2.5,3,5.2C-482,744.8-482.2,745-482.5,745z"/>
	</g>
	<g>
		<path d="M-477.5,757.5c-2.1,0-3.1-2.6-3.4-3.5c-0.7-0.1-1.2-0.4-1.7-0.9c-1.2-1.3-1.4-3.5-1.4-4.3c-0.6-0.4-2-1.5-2-3.3
			c0-0.9,0.2-1.5,0.5-1.9c-0.7-0.4-1.5-1-1.5-2.1c0-1.7,1.2-2.4,1.3-2.4c0.2-0.1,0.5,0,0.7,0.2c0.1,0.2,0,0.5-0.2,0.7
			c0,0-0.7,0.4-0.7,1.6c0,1.1,1.6,1.5,1.6,1.5c0.2,0.1,0.4,0.3,0.4,0.5c0,0.2-0.2,0.4-0.5,0.4c-0.2,0-0.5,0.4-0.5,1.5
			c0,1.7,1.7,2.5,1.7,2.6c0.2,0.1,0.3,0.3,0.3,0.5c0,0-0.1,2.7,1.1,3.9c0.4,0.4,0.8,0.6,1.4,0.6c0.2,0,0.4,0.2,0.5,0.4
			c0.2,0.9,1.1,3.1,2.5,3.1s2.3-2.3,2.5-3.1c0.1-0.3,0.3-0.4,0.6-0.4c0.3,0.1,0.4,0.3,0.4,0.6C-474.1,753.8-475,757.5-477.5,757.5z"
			/>
	</g>
	<g>
		<path d="M-476.5,760c-0.2,0-0.4-0.1-0.5-0.3l-1-2.5c-0.1-0.3,0-0.5,0.3-0.6c0.3-0.1,0.5,0,0.6,0.3l1,2.5c0.1,0.3,0,0.5-0.3,0.7
			C-476.4,760-476.4,760-476.5,760z"/>
	</g>
	<g>
		<path d="M-478.5,760c-0.2,0-0.3-0.1-0.4-0.2c-0.2-0.2-0.1-0.5,0.1-0.7l1.5-1c0.2-0.2,0.5-0.1,0.7,0.1c0.2,0.2,0.1,0.5-0.1,0.7
			l-1.5,1C-478.3,760-478.4,760-478.5,760z"/>
	</g>
	<g>
		<path d="M-473.5,756.1c-0.9,0-1.5-0.1-1.6-0.1c-0.3,0-0.5-0.3-0.4-0.6s0.3-0.5,0.6-0.4c0,0,4.7,0.5,6.6-1.4
			c1.9-1.9,2.4-3.3,2.4-3.3c0.1-0.3,0.4-0.4,0.6-0.3c0.3,0.1,0.4,0.4,0.3,0.6c0,0.1-0.5,1.6-2.6,3.7
			C-469.1,755.8-471.8,756.1-473.5,756.1z"/>
	</g>
	<g>
		<path d="M-467.5,752c-0.3,0-0.5-0.2-0.5-0.5c0-0.3,0.2-0.5,0.5-0.5c0.4,0,3.5-1.3,3.5-4.5c0-3.2-2.7-4.5-2.7-4.5
			c-0.2-0.1-0.4-0.4-0.2-0.7c0.1-0.3,0.4-0.4,0.7-0.2c0.1,0.1,3.3,1.6,3.3,5.5C-463,750.2-466.6,752-467.5,752z"/>
	</g>
	<g>
		<path d="M-465,743c-0.3,0-0.5-0.2-0.5-0.5s0.2-0.5,0.5-0.5c0.1,0,0.1,0,0.1,0c0.1-0.2,0.1-0.8-0.1-1.3c-0.1-0.3,0.1-0.5,0.3-0.6
			c0.3-0.1,0.5,0.1,0.6,0.3c0.1,0.2,0.5,1.5-0.1,2.2C-464.2,742.8-464.5,743-465,743z"/>
	</g>
	<g>
		<path d="M-474,758c-0.8,0-1.7-1-1.9-1.2c-0.2-0.2-0.2-0.5,0-0.7c0.2-0.2,0.5-0.2,0.7,0c0.3,0.4,0.9,0.8,1.1,0.8
			c0.2,0,0.7-0.6,1.1-1.3c0.1-0.2,0.4-0.3,0.7-0.2c0.2,0.1,0.3,0.4,0.2,0.7C-472.4,756.8-473.2,758-474,758z"/>
	</g>
	<g>
		<path d="M-472.5,760c-0.2,0-0.3-0.1-0.4-0.2l-1.5-2c-0.2-0.2-0.1-0.5,0.1-0.7c0.2-0.2,0.5-0.1,0.7,0.1l1.5,2
			c0.2,0.2,0.1,0.5-0.1,0.7C-472.3,760-472.4,760-472.5,760z"/>
	</g>
	<g>
		<path d="M-474.5,760c-0.2,0-0.4-0.1-0.4-0.3c-0.1-0.2,0-0.5,0.2-0.7l1-0.5c0.2-0.1,0.5,0,0.7,0.2c0.1,0.2,0,0.5-0.2,0.7l-1,0.5
			C-474.3,760-474.4,760-474.5,760z"/>
	</g>
</g>
</svg>
