<?xml version="1.0" encoding="utf-8"?>
<!-- Generator: Adobe Illustrator 19.0.1, SVG Export Plug-In . SVG Version: 6.00 Build 0)  -->
<svg version="1.1" id="Слой_1" xmlns="http://www.w3.org/2000/svg" xmlns:xlink="http://www.w3.org/1999/xlink" x="0px" y="0px"
	 viewBox="-487 736 24 30" style="enable-background:new -487 736 24 30;" xml:space="preserve">
<g>
	<g>
		<circle cx="-479" cy="747" r="1"/>
	</g>
	<g>
		<path d="M-483.5,749c-1.5,0-2.8-4-3.5-6.4c0-0.1,0-0.3,0.1-0.4c0.1-0.1,0.2-0.2,0.4-0.2h1.8c1.5,0,2.8,1,3.3,2.4l0.2,0.6h0.6
			c0.3,0,0.5,0.2,0.5,0.5s-0.2,0.5-0.5,0.5h-1c-0.2,0-0.4-0.1-0.5-0.3l-0.3-0.9c-0.3-1-1.3-1.7-2.4-1.7h-1.2c0.8,2.6,1.8,4.9,2.3,5
			c1,0,1.7-0.4,1.7-0.4c0.2-0.1,0.5-0.1,0.7,0.2c0.1,0.2,0.1,0.5-0.2,0.7C-481.3,748.4-482.2,749-483.5,749z"/>
	</g>
	<g>
		<path d="M-482,747c-0.1,0-0.2,0-0.2-0.1l-0.3-0.1c-0.6-0.3-1-0.8-1.3-1.4c-0.1-0.4-0.3-0.7-0.6-0.8l-2.4-1.6
			c-0.2-0.2-0.3-0.5-0.1-0.7c0.2-0.2,0.5-0.3,0.7-0.1l2.4,1.6c0.5,0.3,0.8,0.8,1,1.3c0.1,0.4,0.4,0.8,0.8,0.9l0.3,0.1
			c0.2,0.1,0.3,0.4,0.2,0.7C-481.6,746.9-481.8,747-482,747z"/>
	</g>
	<g>
		<path d="M-478.5,741c0,0-0.1,0-0.1,0c-0.3-0.1-0.4-0.3-0.4-0.6c0.1-0.4,0.4-1.3,1-1.5c0.2,0,0.5-0.1,0.8,0.3
			c0.3,0.3,0.4,0.6,0.5,0.7c0,0,0.1,0.1,0.1,0.1c0.3,0,0.5,0.2,0.5,0.5c0,0.3-0.2,0.5-0.5,0.5c-0.7,0-0.9-0.4-1-0.6
			c-0.1-0.1-0.1-0.3-0.3-0.4c-0.1,0.2-0.2,0.4-0.3,0.7C-478.1,740.8-478.3,741-478.5,741z"/>
	</g>
	<g>
		<path d="M-476,756.5c-0.1,0-0.3,0-0.4-0.1l-0.5-0.5c-0.2-0.2-0.2-0.5,0-0.7c0.2-0.2,0.5-0.2,0.7,0l0.5,0.5c0.2,0.2,0.2,0.5,0,0.7
			C-475.7,756.5-475.9,756.5-476,756.5z"/>
	</g>
	<g>
		<path d="M-475,760c-1.5,0-3-1-3-3c0-0.9,0.2-2.2,0.5-3.7c0.3-1.6,0.5-3.2,0.5-4.3c0-1.9-0.9-3.2-0.9-3.2c-0.2-0.2-0.1-0.5,0.1-0.7
			c0.2-0.2,0.5-0.1,0.7,0.1c0,0.1,1.1,1.6,1.1,3.8c0,1.1-0.3,2.8-0.5,4.5c-0.2,1.4-0.5,2.8-0.5,3.5c0,1.6,1.3,2,2,2s2-0.4,2-2
			c0-0.8-0.2-2.1-0.5-3.5c-0.3-1.6-0.5-3.3-0.5-4.5c0-2.2,1-3.7,1.1-3.8c0.2-0.2,0.5-0.3,0.7-0.1c0.2,0.2,0.3,0.5,0.1,0.7
			c0,0-0.9,1.3-0.9,3.2c0,1.1,0.3,2.7,0.5,4.3c0.2,1.5,0.5,2.8,0.5,3.7C-472,759-473.5,760-475,760z"/>
	</g>
	<g>
		<path d="M-474,746c-0.2,0-0.4-0.1-0.5-0.3c-0.1-0.3-0.4-0.7-0.5-0.7s-0.4,0.3-0.5,0.7c-0.1,0.3-0.4,0.4-0.6,0.3
			c-0.3-0.1-0.4-0.4-0.3-0.6c0.1-0.2,0.6-1.3,1.5-1.3s1.4,1.1,1.5,1.3c0.1,0.3,0,0.5-0.3,0.6C-473.9,746-473.9,746-474,746z"/>
	</g>
	<g>
		<path d="M-472.5,757c-0.2,0-0.3-0.1-0.4-0.2c-0.2-0.2-0.1-0.5,0.1-0.7c1.3-0.9,1.8-2,1.8-2.6v-4c0-0.3,0.2-0.5,0.5-0.5
			c1,0,1.5-0.7,1.5-2c0-0.5-0.2-0.7-0.8-1.2c-0.3-0.2-0.6-0.5-1-0.9c-1.2-1.2-1.2-3.1-1.2-4.1l0-0.3c0-0.4,0.1-0.8,0.2-1.2
			c0.1-0.4,0.3-0.8,0.3-1.3c0-0.9-0.6-1-1-1c-0.5,0-1,0.6-1,1c0,0.3,0.1,0.7,0.2,1.1c0.1,0.6,0.3,1.3,0.3,1.9c0,2.6-4,2.6-4,0
			c0-0.6,0.2-1.3,0.3-1.9c0.1-0.4,0.2-0.8,0.2-1.1c0-0.4-0.5-1-1-1c-0.4,0-1,0.1-1,1c0,0.5,0.1,0.9,0.3,1.3c0.1,0.4,0.2,0.8,0.2,1.2
			l0,0.3c0,0.9,0.1,2.8-1.2,4.1c-0.4,0.4-0.7,0.7-1,0.9c-0.7,0.5-0.8,0.7-0.8,1.2c0,1.3,0.5,2,1.5,2c0.3,0,0.5,0.2,0.5,0.5v4
			c0,0.6,0.5,1.7,1.8,2.6c0.2,0.2,0.3,0.5,0.1,0.7c-0.2,0.2-0.5,0.3-0.7,0.1c-1.6-1.1-2.2-2.5-2.2-3.4V750c-1.3-0.2-2-1.3-2-3
			c0-1,0.5-1.5,1.2-2c0.3-0.2,0.6-0.5,0.9-0.8c0.9-0.9,0.9-2.5,0.9-3.3l0-0.3c0-0.3-0.1-0.6-0.2-0.9c-0.1-0.5-0.3-1-0.3-1.6
			c0-1.2,0.8-2,2-2c1.1,0,2,1.1,2,2c0,0.4-0.1,0.8-0.2,1.3c-0.1,0.5-0.3,1.1-0.3,1.7c0,1,0.9,1,1,1s1,0,1-1c0-0.5-0.1-1.1-0.3-1.7
			c-0.1-0.5-0.2-0.9-0.2-1.3c0-0.9,0.9-2,2-2c1.2,0,2,0.8,2,2c0,0.6-0.2,1.2-0.3,1.6c-0.1,0.3-0.2,0.6-0.2,0.9l0,0.3
			c0,0.8-0.1,2.4,0.9,3.3c0.4,0.4,0.7,0.6,0.9,0.8c0.7,0.6,1.2,1,1.2,2c0,1.7-0.7,2.7-2,3v3.5c0,0.9-0.6,2.3-2.2,3.4
			C-472.3,757-472.4,757-472.5,757z"/>
	</g>
	<g>
		<path d="M-471,748c-0.6,0-1-0.4-1-1s0.4-1,1-1s1,0.4,1,1S-470.4,748-471,748z M-471,747h-0.5H-471L-471,747z"/>
	</g>
	<g>
		<path d="M-466.5,749c-1.3,0-2.2-0.6-2.3-0.6c-0.2-0.1-0.3-0.5-0.2-0.7c0.1-0.2,0.5-0.3,0.7-0.2c0,0,0.7,0.4,1.7,0.4
			c0.5-0.1,1.5-2.4,2.3-5h-1.2c-1.1,0-2,0.7-2.4,1.7l-0.3,0.9c-0.1,0.2-0.3,0.3-0.5,0.3h-1c-0.3,0-0.5-0.2-0.5-0.5s0.2-0.5,0.5-0.5
			h0.6l0.2-0.6c0.5-1.4,1.8-2.4,3.3-2.4h1.8c0.2,0,0.3,0.1,0.4,0.2c0.1,0.1,0.1,0.3,0.1,0.4C-463.7,745-465,749-466.5,749z"/>
	</g>
	<g>
		<path d="M-468,747c-0.2,0-0.4-0.1-0.4-0.3c-0.1-0.2,0-0.5,0.2-0.7l0.3-0.1c0.4-0.2,0.6-0.5,0.8-0.9c0.2-0.6,0.5-1,1-1.4l2.4-1.6
			c0.2-0.2,0.5-0.1,0.7,0.1c0.2,0.2,0.1,0.5-0.1,0.7l-2.4,1.6c-0.3,0.2-0.5,0.5-0.6,0.8c-0.2,0.7-0.7,1.2-1.3,1.5l-0.3,0.1
			C-467.8,747-467.9,747-468,747z"/>
	</g>
	<g>
		<path d="M-473.5,741c-0.3,0-0.5-0.2-0.5-0.5s0.2-0.5,0.5-0.5c0,0,0.1-0.1,0.1-0.1c0.1-0.2,0.2-0.4,0.5-0.7
			c0.3-0.3,0.7-0.3,0.8-0.3c0.6,0.2,0.9,1.1,1,1.5c0.1,0.3-0.1,0.5-0.4,0.6c-0.3,0.1-0.5-0.1-0.6-0.4c-0.1-0.2-0.2-0.5-0.3-0.7
			c-0.1,0.2-0.2,0.3-0.3,0.4C-472.6,740.6-472.8,741-473.5,741z"/>
	</g>
	<g>
		<path d="M-474,756.5c-0.1,0-0.3,0-0.4-0.1c-0.2-0.2-0.2-0.5,0-0.7l0.5-0.5c0.2-0.2,0.5-0.2,0.7,0c0.2,0.2,0.2,0.5,0,0.7l-0.5,0.5
			C-473.7,756.5-473.9,756.5-474,756.5z"/>
	</g>
	<g>
		<path d="M-475,758c-0.8,0-2.4-0.5-2.6-0.5c-0.3-0.1-0.4-0.4-0.3-0.6s0.4-0.4,0.6-0.3c0.5,0.1,1.8,0.5,2.4,0.5
			c0.5,0,1.9-0.3,2.4-0.5c0.3-0.1,0.5,0.1,0.6,0.3c0.1,0.3-0.1,0.5-0.3,0.6C-472.6,757.5-474.2,758-475,758z"/>
	</g>
</g>
</svg>
