<?xml version="1.0" encoding="utf-8"?>
<!-- Generator: Adobe Illustrator 19.0.1, SVG Export Plug-In . SVG Version: 6.00 Build 0)  -->
<svg version="1.1" id="Слой_1" xmlns="http://www.w3.org/2000/svg" xmlns:xlink="http://www.w3.org/1999/xlink" x="0px" y="0px"
	 viewBox="-487 736 24 30" style="enable-background:new -487 736 24 30;" xml:space="preserve">
<g>
	<g>
		<path d="M-483.5,743.5c-0.1,0-0.2,0-0.3-0.1c-2.7-2.3-2.7-4.8-2.7-6.8v-0.1c0-0.1,0.1-0.3,0.1-0.4s0.2-0.1,0.4-0.1
			c5.9,0.1,7.2,1,7.3,1.1c0.2,0.2,0.2,0.5,0,0.7c-0.2,0.2-0.5,0.2-0.7,0c-0.1,0-1.2-0.8-6.2-0.9c0,1.8,0.2,3.7,2.3,5.6
			c0.2,0.2,0.2,0.5,0.1,0.7C-483.2,743.4-483.4,743.5-483.5,743.5z"/>
	</g>
	<g>
		<path d="M-479,747c-1.3,0-2.3-1.6-2.3-2.7c0-0.4,0.1-0.7,0.3-0.9c0.2-0.2,0.5-0.4,1-0.4c1.3,0,2.5,1.5,2.5,2.7
			c0,0.4-0.1,0.7-0.4,1C-478.2,746.9-478.5,747-479,747z M-480,744c-0.1,0-0.2,0-0.2,0.1c0,0-0.1,0.1-0.1,0.2c0,0.7,0.7,1.7,1.3,1.7
			c0.2,0,0.4,0,0.4-0.1c0,0,0.1-0.1,0.1-0.2C-478.5,745-479.3,744-480,744z"/>
	</g>
	<g>
		<path d="M-470,757.5c-0.2,0-0.4-0.1-0.5-0.3c-0.1-0.3,0-0.5,0.3-0.7c0.1,0,5.7-2.5,5.7-6c0-4.9-2.7-7.2-4.3-8.6
			c-0.2-0.2-0.4-0.4-0.6-0.5c-0.5-0.4-0.7-1-0.9-1.6c-0.6-1.4-1.1-2.8-4.7-2.8s-4.1,1.4-4.7,2.8c-0.2,0.6-0.5,1.2-0.9,1.6
			c-0.2,0.2-0.4,0.3-0.6,0.5c-1.6,1.4-4.3,3.8-4.3,8.6c0,3.6,5.6,6,5.7,6c0.3,0.1,0.4,0.4,0.3,0.7c-0.1,0.3-0.4,0.4-0.7,0.3
			c-0.3-0.1-6.3-2.7-6.3-7c0-5.3,3-7.9,4.6-9.4c0.2-0.2,0.4-0.3,0.5-0.5c0.3-0.3,0.5-0.7,0.7-1.3c0.6-1.4,1.4-3.4,5.6-3.4
			s5,1.9,5.6,3.4c0.2,0.5,0.4,1,0.7,1.3c0.2,0.1,0.3,0.3,0.5,0.5c1.6,1.4,4.6,4.1,4.6,9.4c0,4.2-6,6.8-6.3,7
			C-469.9,757.5-469.9,757.5-470,757.5z"/>
	</g>
	<g>
		<path d="M-474.5,760h-1c-4.9,0-5-2.7-5-3v-1.1c0-1,0.6-2,1.6-2.3c2.7-1,3.4-1.8,3.4-2.1c0-0.2-0.1-0.3-0.1-0.3
			c-0.4-0.3-1.4-0.3-2-0.2c-0.2,0-0.3,0-0.4,0c-0.3,0-0.5-0.2-0.5-0.5c0-2.5,2.6-2.5,3.5-2.5s3.5,0,3.5,2.5c0,0.3-0.2,0.5-0.5,0.5
			c-0.1,0-0.2,0-0.4,0c-0.5,0-1.6-0.1-2,0.2c-0.1,0-0.1,0.1-0.1,0.3c0,0.3,0.7,1.1,3.4,2.1c1,0.4,1.6,1.3,1.6,2.3v1.1
			C-469.5,757.3-469.6,760-474.5,760z M-475,752.6c-0.5,0.5-1.5,1.2-3.5,2c-0.6,0.2-1,0.8-1,1.4v1.1c0,0.7,0.8,2,4,2h1
			c3.2,0,4-1.3,4-2v-1.1c0-0.6-0.4-1.2-1-1.4C-473.5,753.7-474.5,753.1-475,752.6z M-476.8,749.9c0.6,0,1.3,0.1,1.8,0.5
			c0.6-0.5,1.7-0.5,2.4-0.4c-0.2-0.7-1-1-2.4-1s-2.2,0.3-2.4,1C-477.2,749.9-477,749.9-476.8,749.9z"/>
	</g>
	<g>
		<path d="M-466.5,743.5c-0.1,0-0.3-0.1-0.4-0.2c-0.2-0.2-0.2-0.5,0.1-0.7c2.2-1.9,2.3-3.8,2.3-5.6c-5.1,0.1-6.2,0.9-6.2,0.9
			c-0.2,0.2-0.5,0.2-0.7,0c-0.2-0.2-0.2-0.5,0-0.7c0.2-0.2,1.4-1.1,7.3-1.1c0.2,0,0.3,0.1,0.4,0.1s0.1,0.2,0.1,0.4v0.1
			c0,2,0,4.5-2.7,6.8C-466.3,743.5-466.4,743.5-466.5,743.5z"/>
	</g>
	<g>
		<path d="M-471,747c-1.1,0-1.5-0.7-1.5-1.3c0-1.1,1.2-2.7,2.5-2.7c0.5,0,0.8,0.2,1,0.4c0.2,0.2,0.3,0.5,0.3,0.9
			C-468.7,745.4-469.7,747-471,747z M-470,744c-0.7,0-1.5,1-1.5,1.7c0,0.1,0,0.3,0.5,0.3c0.3,0,0.6-0.2,0.8-0.6
			c0.3-0.4,0.4-0.8,0.4-1.1C-469.7,744-469.8,744-470,744z"/>
	</g>
</g>
</svg>
