<?xml version="1.0" encoding="utf-8"?>
<!-- Generator: Adobe Illustrator 19.0.1, SVG Export Plug-In . SVG Version: 6.00 Build 0)  -->
<svg version="1.1" id="Слой_1" xmlns="http://www.w3.org/2000/svg" xmlns:xlink="http://www.w3.org/1999/xlink" x="0px" y="0px"
	 viewBox="-487 736 24 30" style="enable-background:new -487 736 24 30;" xml:space="preserve">
<g>
	<g>
		<path d="M-483.7,755.3c-0.3,0-0.6-0.2-0.9-0.5c-1.1-1.1,0.5-3.5,2.6-6.4c1.7-2.4,3.7-5.2,3.7-6.9c0-4.8,2.5-5.5,4-5.5
			c0.3,0,0.5,0.2,0.5,0.5s-0.2,0.5-0.5,0.5c-2,0-3,1.5-3,4.5c0,2-2,4.8-3.9,7.5c-1.4,1.9-3.3,4.6-2.7,5.1c0.2,0.2,0.2,0.2,0.2,0.2
			c0.2,0,0.6-0.9,0.8-1.3c0.6-1.3,1.4-3,3.1-3c0.3,0,0.5,0.2,0.5,0.5s-0.2,0.5-0.5,0.5c-1,0-1.7,1.3-2.2,2.4
			c-0.5,0.9-0.9,1.8-1.6,1.9C-483.6,755.3-483.6,755.3-483.7,755.3z"/>
	</g>
	<g>
		<path d="M-480.8,760c-0.2,0-0.4-0.1-0.5-0.3c-0.1-0.2,0-0.5,0.2-0.6c0.9-0.6,2.3-1.7,2.3-2.6c0-0.6-0.3-1.2-0.6-1.9
			c-0.4-0.9-0.9-1.9-0.9-3.1v-1c0-0.3,0.2-0.5,0.5-0.5s0.5,0.2,0.5,0.5v1c0,0.9,0.4,1.8,0.8,2.6c0.4,0.8,0.7,1.6,0.7,2.4
			c0,0.8-0.6,1.7-1.3,2.3c0.9-0.2,1.7-0.4,1.9-0.7c0.2-0.2,0.5-0.2,0.7,0s0.2,0.5,0,0.7C-477.3,759.8-480.2,760-480.8,760
			C-480.7,760-480.8,760-480.8,760z"/>
	</g>
	<g>
		<path d="M-471.2,760C-471.2,760-471.3,760-471.2,760c-0.4,0-0.7-0.2-1.1-0.3c-0.2-0.1-0.6-0.3-0.7-0.3c-0.6,0.4-1.8,0.6-2.3,0.6
			c-0.7,0-2-0.6-2-1.5c0-0.8,0.3-1.1,1.3-1.5l0,0c0.7-0.3,1.4-0.5,3.2-0.5c1.8,0,3.7,1,3.7,1.1c0.1,0.1,0.2,0.2,0.2,0.3
			c0,0.1,0.1,0.8-0.3,1.3C-469.5,759.7-470.2,760-471.2,760z M-473,758.4c0.4,0,0.8,0.2,1.1,0.4c0.2,0.1,0.5,0.2,0.6,0.2
			c0.6,0,1.1-0.1,1.4-0.4c0.1-0.1,0.1-0.2,0.1-0.3c-0.5-0.3-1.8-0.8-3-0.8c-1.6,0-2.2,0.2-2.8,0.5l0,0c-0.6,0.2-0.7,0.3-0.7,0.3
			c0,0,0,0.1,0,0.2c0.1,0.1,0.6,0.5,1,0.5c0.5,0,1.4-0.2,1.7-0.4C-473.4,758.5-473.2,758.4-473,758.4z"/>
	</g>
	<g>
		<path d="M-472.3,759.5c-0.3,0-0.5-0.2-0.5-0.5c0-0.3-0.7-1.1-1.3-1.6c-0.1-0.1-0.2-0.2-0.2-0.4c0-0.1,0-0.3,0.1-0.4
			c0.3-0.3,0.4-1.4,0.4-2.1c0-0.3,0.2-0.5,0.5-0.5c0.3,0,0.5,0.2,0.5,0.5c0,0.3,0.1,1.6-0.3,2.4c0.5,0.5,1.3,1.3,1.3,2.1
			C-471.8,759.3-472,759.5-472.3,759.5z"/>
	</g>
	<g>
		<path d="M-475.3,757.5c-0.1,0-0.2,0-0.3-0.1c-0.1-0.1-2.7-1.8-2.7-3.9c0-1.2,0.2-2.2,0.3-3c0.1-0.4,0.2-0.8,0.2-1
			c0-0.2-0.1-0.3-0.1-0.6c-0.1-0.4-0.4-0.9-0.4-1.9c0-1.6,1.3-5,2.5-5c0.5,0,0.8,0.2,1.1,0.3c0.2,0.1,0.3,0.2,0.4,0.2
			c0.1,0,0.2,0,0.2,0c0.1-0.2,0.3-0.5,0.8-0.5c1.2,0,4,4.8,4,9c0,4.5-2,6.5-3.5,6.5c-0.3,0-0.5-0.2-0.5-0.5s0.2-0.5,0.5-0.5
			c0.9,0,2.5-1.6,2.5-5.5c0-3.7-2.3-7.4-3-8c-0.2,0.3-0.4,0.5-1,0.5c-0.4,0-0.7-0.2-1-0.3c-0.2-0.1-0.3-0.2-0.5-0.2
			c-0.4,0.2-1.5,2.5-1.5,4c0,0.9,0.1,1.2,0.3,1.6c0.1,0.3,0.2,0.5,0.2,0.9c0,0.3-0.1,0.7-0.2,1.2c-0.1,0.7-0.3,1.7-0.3,2.8
			c0,1.3,1.6,2.7,2.3,3.1c0.2,0.2,0.3,0.5,0.1,0.7C-474.9,757.4-475.1,757.5-475.3,757.5z"/>
	</g>
	<g>
		<path d="M-471.3,757.5c-0.2,0-0.3-0.1-0.4-0.2c-0.2-0.2-0.1-0.5,0.1-0.7c0.8-0.6,1.3-3,1.3-6.6c0-0.3,0.2-0.5,0.5-0.5
			c1.6,0,2.3,1.3,2.8,2.2c0.2,0.3,0.4,0.7,0.5,0.7c0,0,0.1,0,0.3-0.3c0.5-0.5-1.1-2.4-2.4-4c-1.8-2.1-3.8-4.6-3.8-6.7
			c0-0.6,0-1.2-0.1-1.7c0-0.3,0.2-0.5,0.5-0.5c0.3,0,0.5,0.2,0.5,0.5c0,0.5,0.1,1.1,0.1,1.7c0,1.7,1.9,4,3.6,6
			c1.9,2.3,3.5,4.2,2.3,5.3c-0.4,0.4-0.8,0.6-1.2,0.5c-0.6-0.1-0.9-0.7-1.2-1.3c-0.4-0.8-0.8-1.4-1.4-1.6c-0.1,3.8-0.6,6.1-1.7,6.8
			C-471.1,757.5-471.2,757.5-471.3,757.5z"/>
	</g>
	<g>
		<path d="M-472,739c-0.2,0-0.4-0.2-0.5-0.4c-0.3-1.3-0.9-1.6-1.8-1.6c-0.3,0-0.5-0.2-0.5-0.5s0.2-0.5,0.5-0.5
			c1.5,0,2.4,0.7,2.7,2.4c0.1,0.3-0.1,0.5-0.4,0.6C-471.9,739-472,739-472,739z"/>
	</g>
	<g>
		<path d="M-472.8,741c-0.3,0-0.5-0.2-0.5-0.5c0-0.5,0.5-0.8,1.9-1.5c0.3-0.2,0.8-0.4,1.2-0.6c-0.2,0.1-0.4,0.1-0.6,0.2
			c-0.5,0.2-1,0.4-1.4,0.4c-0.3,0-0.5-0.2-0.5-0.5s0.2-0.5,0.5-0.5c0.3,0,0.7-0.2,1.1-0.3c0.8-0.3,1.7-0.6,2.3,0
			c0.2,0.2,0.2,0.4,0.2,0.6c-0.1,0.6-0.9,1-2.2,1.7c-0.5,0.2-1.2,0.6-1.3,0.7C-472.4,740.9-472.5,741-472.8,741z"/>
	</g>
	<g>
		<circle cx="-474.8" cy="738.5" r="0.5"/>
	</g>
</g>
</svg>
