<?xml version="1.0" encoding="utf-8"?>
<!-- Generator: Adobe Illustrator 19.0.1, SVG Export Plug-In . SVG Version: 6.00 Build 0)  -->
<svg version="1.1" id="Слой_1" xmlns="http://www.w3.org/2000/svg" xmlns:xlink="http://www.w3.org/1999/xlink" x="0px" y="0px"
	 viewBox="-487 736 24 30" style="enable-background:new -487 736 24 30;" xml:space="preserve">
<g>
	<g>
		<path d="M-478,746c-0.1,0-0.2,0-0.3-0.1c-0.2-0.1-4.2-3.4-4.2-9.4c0-0.1,0-0.2,0.1-0.3c0,0,0,0,0,0c0.1-0.1,0.2-0.1,0.3-0.1
			c0,0,0,0,0.1,0l0,0h0h0l0,0c0.1,0,0.2,0.1,0.3,0.1c0.7,0.7,7.2,6.7,7.2,9.4c0,0.3-0.2,0.5-0.5,0.5s-0.5-0.2-0.5-0.5
			c0-1-1.3-2.8-3-4.7c0.7,1.6,1.1,3.3,1,4.7c0,0.2-0.1,0.4-0.3,0.4C-477.9,746-477.9,746-478,746z M-481.4,737.9
			c0.4,3.1,1.9,5.3,2.9,6.4C-478.8,742.2-479.9,739.8-481.4,737.9z"/>
	</g>
	<g>
		<path d="M-475,760c-3.5,0-3.5-2.5-3.5-2.5v-1.9l-1.4-2.9c-0.1-0.1-0.1-0.2,0-0.3l0.5-1.8l-0.9-1.8c-0.1-0.2-0.1-0.4,0-0.5l2-3
			c0.2-0.2,0.5-0.3,0.7-0.1c0.2,0.2,0.3,0.5,0.1,0.7l-1.8,2.8l0.9,1.7c0.1,0.1,0.1,0.2,0,0.3l-0.5,1.8l1.4,2.8
			c0,0.1,0.1,0.1,0.1,0.2v2c0,0.1,0.1,1.5,2.5,1.5c0.3,0,0.5,0.2,0.5,0.5S-474.7,760-475,760z"/>
	</g>
	<g>
		<path d="M-476.1,758c-0.2,0-0.4,0-0.6-0.2c-0.2-0.1-0.3-0.4-0.3-0.8c0-0.3,0.2-0.5,0.5-0.5c0.3,0,0.5,0.2,0.5,0.5
			c0.2,0,0.4,0.2,0.5,0.4c0.1,0.3-0.1,0.5-0.4,0.6C-475.9,758-476,758-476.1,758z"/>
	</g>
	<g>
		<path d="M-477.7,756c-0.2,0-0.3,0-0.3,0c-0.3,0-0.5-0.3-0.5-0.5c0-0.3,0.3-0.5,0.5-0.5c0.3,0,1.1,0,1.4-0.3
			c0.1-0.1,0.1-0.1,0.1-0.2c0-0.3,0.2-0.5,0.5-0.5h1c0.3,0,0.5,0.2,0.5,0.5s-0.2,0.5-0.5,0.5h-0.6c-0.1,0.2-0.2,0.3-0.3,0.5
			C-476.4,755.9-477.2,756-477.7,756z"/>
	</g>
	<g>
		<path d="M-472,746c-0.1,0-0.1,0-0.2,0c-0.2-0.1-0.3-0.2-0.3-0.4c-0.1-1.4,0.3-3.1,1-4.7c-1.6,1.9-3,3.7-3,4.7
			c0,0.3-0.2,0.5-0.5,0.5s-0.5-0.2-0.5-0.5c0-2.7,6.4-8.7,7.2-9.4c0.1-0.1,0.2-0.1,0.3-0.1h0l0,0c0,0,0,0,0.1,0l0,0l0,0
			c0.1,0,0.2,0,0.3,0.1c0,0,0,0,0,0c0.1,0.1,0.1,0.2,0.1,0.3c0,6-4,9.3-4.2,9.4C-471.8,746-471.9,746-472,746z M-468.6,737.9
			c-1.6,1.9-2.6,4.3-2.9,6.4C-470.5,743.1-469,741-468.6,737.9z"/>
	</g>
	<g>
		<path d="M-475,760c-0.3,0-0.5-0.2-0.5-0.5s0.2-0.5,0.5-0.5c2.4,0,2.5-1.4,2.5-1.5v-2c0-0.1,0-0.2,0.1-0.2l1.4-2.8l-0.5-1.8
			c0-0.1,0-0.2,0-0.3l0.9-1.7l-1.8-2.8c-0.2-0.2-0.1-0.5,0.1-0.7c0.2-0.2,0.5-0.1,0.7,0.1l2,3c0.1,0.1,0.1,0.3,0,0.5l-0.9,1.8
			l0.5,1.8c0,0.1,0,0.2,0,0.3l-1.4,2.9v1.9C-471.5,757.5-471.5,760-475,760z"/>
	</g>
	<g>
		<path d="M-473.9,758c-0.1,0-0.2,0-0.2,0c-0.3-0.1-0.4-0.3-0.4-0.6c0.1-0.2,0.3-0.4,0.5-0.4c0-0.2,0.3-0.5,0.5-0.5
			c0.3,0,0.5,0.2,0.5,0.5c0,0.5-0.2,0.7-0.3,0.8C-473.5,758-473.8,758-473.9,758z"/>
	</g>
	<g>
		<path d="M-472.3,756c-0.5,0-1.3-0.1-1.8-0.5c-0.2-0.1-0.3-0.3-0.3-0.5h-0.6c-0.3,0-0.5-0.2-0.5-0.5s0.2-0.5,0.5-0.5h1
			c0.3,0,0.5,0.2,0.5,0.5c0,0.1,0,0.2,0.1,0.2c0.3,0.3,1,0.3,1.4,0.3c0.3,0,0.5,0.2,0.5,0.5s-0.2,0.5-0.5,0.5
			C-472,756-472.1,756-472.3,756z"/>
	</g>
	<g>
		<path d="M-473.5,742.5c-0.2,0-0.4-0.1-0.5-0.3l-0.4-1.2h-1.3l-0.4,1.2c-0.1,0.3-0.4,0.4-0.6,0.3c-0.3-0.1-0.4-0.4-0.3-0.6l0.5-1.5
			c0.1-0.2,0.3-0.3,0.5-0.3h2c0.2,0,0.4,0.1,0.5,0.3l0.5,1.5c0.1,0.3-0.1,0.5-0.3,0.6C-473.4,742.5-473.4,742.5-473.5,742.5z"/>
	</g>
	<g>
		<circle cx="-477" cy="750.5" r="0.5"/>
	</g>
	<g>
		<circle cx="-473" cy="750.5" r="0.5"/>
	</g>
</g>
</svg>
