<?xml version="1.0" encoding="utf-8"?>
<!-- Generator: Adobe Illustrator 19.0.1, SVG Export Plug-In . SVG Version: 6.00 Build 0)  -->
<svg version="1.1" id="Слой_1" xmlns="http://www.w3.org/2000/svg" xmlns:xlink="http://www.w3.org/1999/xlink" x="0px" y="0px"
	 viewBox="-487 736 24 30" style="enable-background:new -487 736 24 30;" xml:space="preserve">
<g>
	<g>
		<path d="M-481.7,745.5c-1.4,0-2.9-0.2-3.8-0.9c-0.6-0.5-1-1.2-1-2.1c0-1,0.5-1.6,0.9-1.8c2.2-1.3,7.7,1.5,8.3,1.9
			c0.2,0.1,0.3,0.4,0.2,0.7c-0.1,0.2-0.4,0.3-0.7,0.2c-2.2-1.1-6.1-2.7-7.3-1.9c-0.2,0.1-0.4,0.3-0.4,0.9c0,0.5,0.2,1,0.6,1.3
			c1.6,1.2,5.8,0.6,7.3,0.2c0.3-0.1,0.5,0.1,0.6,0.4c0.1,0.3-0.1,0.5-0.4,0.6C-477.5,745-479.6,745.5-481.7,745.5z"/>
	</g>
	<g>
		<path d="M-483.1,748.8c-1,0-1.9-0.3-2.4-1.1c-0.3-0.5-0.4-1-0.2-1.5c0.3-1,1.3-1.6,1.4-1.7c0.2-0.1,0.5-0.1,0.7,0.2
			c0.1,0.2,0.1,0.5-0.2,0.7c-0.1,0.1-1.4,0.8-0.8,1.8c0.8,1.5,5.3-0.2,7.3-1.2c0.2-0.1,0.5,0,0.7,0.2c0.1,0.2,0,0.5-0.2,0.7
			C-477.3,747.2-480.6,748.8-483.1,748.8z"/>
	</g>
	<g>
		<path d="M-481,757c-0.1,0-0.3,0-0.4-0.1c-0.2-0.2-0.2-0.5,0-0.7l0.9-0.9v-3.8c0,0,0-0.1,0-0.1l1-4.1c0.1-0.3,0.3-0.4,0.6-0.4
			c0.3,0.1,0.4,0.3,0.4,0.6l-1,4v3.9c0,0.1-0.1,0.3-0.1,0.4l-1,1C-480.7,757-480.9,757-481,757z"/>
	</g>
	<g>
		<path d="M-483,755c-0.1,0-0.3,0-0.4-0.1c-0.2-0.2-0.2-0.5,0-0.7l0.9-0.9v-2.8c0-0.1,0-0.2,0.1-0.3l2-2.5c0.2-0.2,0.5-0.2,0.7-0.1
			c0.2,0.2,0.3,0.5,0.1,0.7l-1.9,2.4v2.8c0,0.1-0.1,0.3-0.1,0.4l-1,1C-482.7,755-482.9,755-483,755z"/>
	</g>
	<g>
		<path d="M-476.5,739.5c-0.2,0-0.4-0.2-0.5-0.4c0,0-0.5-2.1-2-2.1c-0.3,0-0.5-0.2-0.5-0.5s0.2-0.5,0.5-0.5c2.3,0,3,2.8,3,2.9
			c0.1,0.3-0.1,0.5-0.4,0.6C-476.4,739.5-476.5,739.5-476.5,739.5z"/>
	</g>
	<g>
		<path d="M-474,743c-0.1,0-0.3-0.1-0.4-0.2c-0.2-0.2-0.2-0.5,0-0.7c0,0,0.8-0.8,0.8-1.6c0-0.8-0.7-1.5-1.5-1.5s-1.5,0.7-1.5,1.5
			c0,0.8,0.8,1.6,0.8,1.6c0.2,0.2,0.2,0.5,0,0.7c-0.2,0.2-0.5,0.2-0.7,0c0,0-1.2-1.1-1.2-2.4c0-1.4,1.1-2.5,2.5-2.5s2.5,1.1,2.5,2.5
			c0,1.3-1.1,2.3-1.2,2.4C-473.8,743-473.9,743-474,743z"/>
	</g>
	<g>
		<path d="M-475,760c-2.8,0-3.5-8.4-3.5-9.5c0-1.7,1-2.7,1.8-3.2c-0.5-0.7-1.3-2.2-1.3-3.3c0-0.9,0.5-2,3-2s3,1.1,3,2
			c0,1.1-0.8,2.6-1.3,3.3c0.8,0.5,1.8,1.5,1.8,3.2C-471.5,751.6-472.2,760-475,760z M-475,743c-2,0-2,0.8-2,1c0,1,1,2.7,1.4,3.2
			c0.1,0.1,0.1,0.3,0.1,0.4c0,0.2-0.2,0.3-0.3,0.3c-0.1,0-1.7,0.6-1.7,2.5c0,3,1.3,8.5,2.5,8.5s2.5-5.5,2.5-8.5
			c0-1.9-1.6-2.5-1.7-2.5c-0.1-0.1-0.3-0.2-0.3-0.3s0-0.3,0.1-0.4c0.4-0.5,1.4-2.2,1.4-3.2C-473,743.8-473,743-475,743z"/>
	</g>
	<g>
		<path d="M-472,751c-0.1,0-0.2,0-0.3-0.1c0,0-1.2-0.9-2.7-0.9s-2.7,0.9-2.7,0.9c-0.2,0.2-0.5,0.1-0.7-0.1c-0.2-0.2-0.1-0.5,0.1-0.7
			c0.1,0,1.4-1.1,3.3-1.1s3.3,1.1,3.3,1.1c0.2,0.2,0.3,0.5,0.1,0.7C-471.7,750.9-471.9,751-472,751z"/>
	</g>
	<g>
		<path d="M-472.5,754c-0.1,0-0.3,0-0.3-0.1c0,0-0.9-0.9-2.2-0.9s-2.1,0.9-2.2,0.9c-0.2,0.2-0.5,0.2-0.7,0c-0.2-0.2-0.2-0.5,0-0.7
			c0,0,1.2-1.1,2.8-1.1s2.8,1.1,2.8,1.1c0.2,0.2,0.2,0.5,0,0.7C-472.2,753.9-472.4,754-472.5,754z"/>
	</g>
	<g>
		<path d="M-473,757c-0.1,0-0.3-0.1-0.4-0.2l0,0c0,0-0.6-0.8-1.6-0.8s-1.6,0.8-1.6,0.8c-0.2,0.2-0.5,0.3-0.7,0.1
			c-0.2-0.2-0.3-0.5-0.1-0.7c0,0,0.9-1.2,2.4-1.2s2.4,1.2,2.4,1.2c0.2,0.2,0.1,0.5-0.1,0.7C-472.8,757-472.9,757-473,757z"/>
	</g>
	<g>
		<path d="M-468.3,745.5c-2.1,0-4.2-0.5-4.3-0.5c-0.3-0.1-0.4-0.3-0.4-0.6c0.1-0.3,0.3-0.4,0.6-0.4c1.5,0.4,5.7,1,7.3-0.2
			c0.4-0.3,0.6-0.7,0.6-1.3c0-0.6-0.2-0.8-0.4-0.9c-1.3-0.8-5.2,0.7-7.3,1.9c-0.2,0.1-0.5,0-0.7-0.2c-0.1-0.2,0-0.5,0.2-0.7
			c0.6-0.3,6.1-3.2,8.3-1.9c0.4,0.3,0.9,0.8,0.9,1.8c0,0.9-0.3,1.5-1,2.1C-465.4,745.3-466.8,745.5-468.3,745.5z"/>
	</g>
	<g>
		<path d="M-466.9,748.8c-2.5,0-5.8-1.6-6.3-1.9c-0.2-0.1-0.3-0.4-0.2-0.7c0.1-0.2,0.4-0.3,0.7-0.2c2,1,6.5,2.7,7.3,1.2
			c0.1-0.3,0.2-0.5,0.1-0.8c-0.1-0.5-0.7-1-0.9-1.1c-0.2-0.1-0.3-0.4-0.2-0.7c0.1-0.2,0.4-0.3,0.7-0.2c0.1,0.1,1.1,0.7,1.4,1.7
			c0.1,0.5,0.1,1-0.2,1.5C-465,748.5-465.9,748.8-466.9,748.8z"/>
	</g>
	<g>
		<path d="M-469,757c-0.1,0-0.3,0-0.4-0.1l-1-1c-0.1-0.1-0.1-0.2-0.1-0.4v-3.9l-1-4c-0.1-0.3,0.1-0.5,0.4-0.6
			c0.3-0.1,0.5,0.1,0.6,0.4l1,4.1c0,0,0,0.1,0,0.1v3.8l0.9,0.9c0.2,0.2,0.2,0.5,0,0.7C-468.7,757-468.9,757-469,757z"/>
	</g>
	<g>
		<path d="M-467,755c-0.1,0-0.3,0-0.4-0.1l-1-1c-0.1-0.1-0.1-0.2-0.1-0.4v-2.8l-1.9-2.4c-0.2-0.2-0.1-0.5,0.1-0.7
			c0.2-0.2,0.5-0.1,0.7,0.1l2,2.5c0.1,0.1,0.1,0.2,0.1,0.3v2.8l0.9,0.9c0.2,0.2,0.2,0.5,0,0.7C-466.7,755-466.9,755-467,755z"/>
	</g>
	<g>
		<path d="M-473.5,739.5c0,0-0.1,0-0.1,0c-0.3-0.1-0.4-0.3-0.4-0.6c0-0.1,0.7-2.9,3-2.9c0.3,0,0.5,0.2,0.5,0.5s-0.2,0.5-0.5,0.5
			c-1.5,0-2,2.1-2,2.1C-473.1,739.3-473.3,739.5-473.5,739.5z"/>
	</g>
</g>
</svg>
