<?xml version="1.0" encoding="utf-8"?>
<!-- Generator: Adobe Illustrator 19.0.1, SVG Export Plug-In . SVG Version: 6.00 Build 0)  -->
<svg version="1.1" id="Слой_1" xmlns="http://www.w3.org/2000/svg" xmlns:xlink="http://www.w3.org/1999/xlink" x="0px" y="0px"
	 viewBox="-487 736 24 30" style="enable-background:new -487 736 24 30;" xml:space="preserve">
<g>
	<g>
		<path d="M-465.5,744c-0.1,0-0.3-0.1-0.4-0.2c-0.1-0.1-0.2-0.3-0.1-0.5c0.3-0.8,0.6-2.1,0.2-2.4c-0.2-0.2-0.3-0.5-0.1-0.7
			c0.2-0.2,0.5-0.3,0.7-0.1c0.7,0.5,0.7,1.5,0.5,2.3c0.4-0.4,0.7-1,0.7-1.9c0-2.1-2.2-3.5-3-3.5c-1.6,0-5.5,2.1-8.1,5.3
			c-0.2,0.2-0.5,0.3-0.7,0.1c-0.2-0.2-0.3-0.5-0.1-0.7c2.8-3.5,7.1-5.7,8.9-5.7c1.2,0,4,1.7,4,4.5c0,2.2-1.5,3.3-2.4,3.5
			C-465.4,744-465.5,744-465.5,744z"/>
	</g>
	<g>
		<path d="M-465.5,743C-465.5,743-465.6,743-465.5,743c-1-0.2-2.5-0.6-2.5-1.5c0-0.3,0.2-0.5,0.5-0.5s0.5,0.2,0.5,0.5
			c0.1,0.1,0.9,0.4,1.6,0.5c0.3,0,0.5,0.3,0.4,0.6C-465,742.8-465.3,743-465.5,743z"/>
	</g>
	<g>
		<path d="M-486.5,755c-0.1,0-0.1,0-0.2,0c-0.2-0.1-0.3-0.3-0.3-0.5c0-4.5,8.8-13.5,14.5-13.5c6.2,0,6.5,3.7,6.5,4.5
			c0,1.4-3.1,4.5-6.5,4.5c-3.4,0-10.1,1.3-13.6,4.9C-486.2,754.9-486.4,755-486.5,755z M-472.5,742c-4.5,0-11.8,6.9-13.3,11.2
			c3.9-3,10-4.2,13.3-4.2c2.9,0,5.5-2.7,5.5-3.5C-467,744.7-467.4,742-472.5,742z"/>
	</g>
	<g>
		<path d="M-485.5,751.5c-0.6,0-1-0.2-1.2-0.5c-0.4-0.8,0.4-2,1.5-3.6c0.4-0.7,0.9-1.4,1.3-2c1.7-3,5.5-6.3,8.4-6.3
			c0.6,0,0.9,0.2,1.1,0.4c0.4,0.4,0.4,1,0.4,1.1c0,0.3-0.3,0.5-0.5,0.5c-0.3,0-0.5-0.2-0.5-0.5c0-0.1,0-0.3-0.1-0.4
			c-0.1-0.1-0.2-0.1-0.4-0.1c-2.4,0-6.1,3.1-7.6,5.7c-0.4,0.7-0.9,1.4-1.3,2.1c-0.6,0.9-1.5,2.3-1.4,2.6c0,0,0.1,0,0.3,0
			c0.3,0,0.5,0.2,0.5,0.5S-485.2,751.5-485.5,751.5z"/>
	</g>
	<g>
		<path d="M-473.5,750c-0.1,0-0.1,0-0.2,0c-0.1-0.1-3.1-1.4-4.1-2c-1-0.7-1.2-2.2-1.2-3.4c0-0.3,0.2-0.5,0.5-0.5s0.5,0.2,0.5,0.5
			c0,1.3,0.3,2.2,0.8,2.6c0.9,0.6,3.9,1.9,3.9,2c0.3,0.1,0.4,0.4,0.3,0.7C-473.1,749.9-473.3,750-473.5,750z"/>
	</g>
	<g>
		<path d="M-483,751c-0.1,0-0.2,0-0.3-0.1c-0.2-0.2-0.3-0.5-0.1-0.7c1.6-2.3,4.6-3.6,4.7-3.7c0.3-0.1,0.5,0,0.7,0.3
			c0.1,0.3,0,0.5-0.3,0.7c0,0-2.9,1.3-4.3,3.3C-482.7,750.9-482.8,751-483,751z"/>
	</g>
	<g>
		<path d="M-481.4,759c-0.2,0-0.3-0.1-0.5-0.2c-0.2-0.2-1.1-1.4-1.1-6.9c0-0.3,0.2-0.5,0.5-0.5s0.5,0.2,0.5,0.5
			c0,3.8,0.5,5.3,0.7,5.9c0.1-0.2,0.3-0.6,0.3-1.4c0-1.8,1-5.5,1-5.6c0.1-0.3,0.3-0.4,0.6-0.4c0.3,0.1,0.4,0.3,0.4,0.6
			c0,0-1,3.7-1,5.4c0,1.9-0.8,2.4-1.1,2.5C-481.2,759-481.3,759-481.4,759z"/>
	</g>
	<g>
		<path d="M-484.5,760c-0.9,0-2.5,0-2.5-1.5c0-0.7,2.3-1.9,2.3-1.9c0.7-0.3,1.7-1.8,1.7-3.1c0-0.3,0.2-0.5,0.5-0.5s0.5,0.2,0.5,0.5
			c0,1.6-1.2,3.4-2.3,3.9c-0.6,0.3-1.4,0.9-1.7,1.2c0.1,0.3,0.5,0.4,1.5,0.4c0.5,0,1.6-0.8,2.2-1.4c0.2-0.2,0.5-0.2,0.7,0
			c0.2,0.2,0.2,0.5,0,0.7C-482,758.6-483.5,760-484.5,760z"/>
	</g>
	<g>
		<path d="M-472.5,755c-1.1,0-1.8-0.2-2.2-0.7c-0.3-0.4-0.3-0.8-0.3-0.9c0,0,0-0.1,0-0.1l2-4c0.1-0.2,0.4-0.3,0.7-0.2
			c0.2,0.1,0.3,0.4,0.2,0.7l-1.9,3.9c0.1,0.1,0.4,0.4,1.5,0.4c0.3,0,0.5,0.2,0.5,0.5S-472.2,755-472.5,755z"/>
	</g>
	<g>
		<path d="M-474.5,754c-0.2,0-0.3-0.1-0.4-0.3c-0.1-0.2,0-0.5,0.2-0.7c0.1,0,1.9-1.1,3.2-1.1c0.3,0,0.5,0.2,0.5,0.5
			s-0.2,0.5-0.5,0.5c-0.9,0-2.3,0.7-2.8,0.9C-474.3,754-474.4,754-474.5,754z"/>
	</g>
	<g>
		<path d="M-477.5,752.5c-0.2,0-0.3-0.1-0.4-0.2c-0.1-0.2-0.1-0.5,0.1-0.6l2.5-2.5c0.2-0.2,0.5-0.2,0.7,0c0.2,0.2,0.2,0.5,0,0.7
			l-1.2,1.2c0.1,0,0.2,0,0.3,0c0.3,0,0.5,0.2,0.5,0.5s-0.2,0.5-0.5,0.5c-0.9,0-1.8,0.4-1.8,0.4
			C-477.3,752.5-477.4,752.5-477.5,752.5z"/>
	</g>
	<g>
		<path d="M-476.5,754c-1.2,0-1.5-1.3-1.5-2c0-0.3,0.2-0.5,0.5-0.5h0c0.3,0,0.5,0.2,0.5,0.5c0,0,0,1,0.5,1c0.3,0,0.5,0.2,0.5,0.5
			S-476.2,754-476.5,754z"/>
	</g>
	<g>
		<circle cx="-466.5" cy="738.5" r="0.5"/>
	</g>
</g>
</svg>
