<?xml version="1.0" encoding="utf-8"?>
<!-- Generator: Adobe Illustrator 19.0.1, SVG Export Plug-In . SVG Version: 6.00 Build 0)  -->
<svg version="1.1" id="Слой_1" xmlns="http://www.w3.org/2000/svg" xmlns:xlink="http://www.w3.org/1999/xlink" x="0px" y="0px"
	 viewBox="-487 736 24 30" style="enable-background:new -487 736 24 30;" xml:space="preserve">
<g>
	<g>
		<path d="M-483,753.5c-1.2,0-3.5-5.6-3.5-7c0-1.6,3.8-8,5.5-8c1.6,0,2.3,1.6,2.5,2.4c0,0.3-0.1,0.5-0.4,0.6c-0.3,0-0.5-0.1-0.6-0.4
			c-0.1-0.5-0.7-1.6-1.5-1.6c-0.8,0.2-4.5,5.5-4.5,7c0,1.3,1.8,5,2.5,5.9c0.6-0.8,2-4.3,2-5.4c0-1-0.4-1.7-0.4-1.7
			c-0.1-0.2-0.1-0.5,0.2-0.7c0.2-0.1,0.5-0.1,0.7,0.2c0,0,0.6,0.9,0.6,2.3C-480,748-481.7,753.5-483,753.5z"/>
	</g>
	<g>
		<path d="M-475,754c-0.1,0-0.2,0-0.3-0.1c-1.5-1.1-2.2-1.9-2.2-2.4c0-0.5,0.2-1.5,2.5-1.5s2.5,1,2.5,1.5c0,0.5-0.7,1.3-2.2,2.4
			C-474.8,754-474.9,754-475,754z M-475,751c-0.9,0-1.5,0.2-1.5,0.5c0.1,0.2,0.7,0.8,1.5,1.4c0.8-0.6,1.4-1.2,1.5-1.4
			C-473.5,751.2-474.1,751-475,751z"/>
	</g>
	<g>
		<path d="M-478.5,757.5c-2.1,0-3-1.6-3-3c0-1.2,1.7-4.2,2.1-4.8c0.1-0.2,0.4-0.3,0.7-0.2c0.2,0.1,0.3,0.4,0.2,0.7
			c-0.7,1.2-1.9,3.5-1.9,4.2c0,0.3,0.1,2,2,2c1.5,0,3-1.7,3-3c0-0.3,0.2-0.5,0.5-0.5s0.5,0.2,0.5,0.5
			C-474.5,755.2-476.4,757.5-478.5,757.5z"/>
	</g>
	<g>
		<path d="M-481,753.5c-0.1,0-0.3,0-0.4-0.1l-1-1c-0.2-0.2-0.2-0.5,0-0.7c0.2-0.2,0.5-0.2,0.7,0l1,1c0.2,0.2,0.2,0.5,0,0.7
			C-480.7,753.5-480.9,753.5-481,753.5z"/>
	</g>
	<g>
		<path d="M-478,747.5c-0.8,0-1.5-0.7-1.5-1.5s0.7-1.5,1.5-1.5s1.5,0.7,1.5,1.5S-477.2,747.5-478,747.5z M-478,745.5
			c-0.3,0-0.5,0.2-0.5,0.5s0.2,0.5,0.5,0.5s0.5-0.2,0.5-0.5S-477.7,745.5-478,745.5z"/>
	</g>
	<g>
		<path d="M-467,753.5c-1.3,0-3-5.5-3-6.5c0-1.3,0.6-2.2,0.6-2.3c0.1-0.2,0.5-0.3,0.7-0.2c0.2,0.1,0.3,0.5,0.2,0.7
			c0,0-0.4,0.7-0.4,1.7c0,1,1.4,4.5,2,5.4c0.7-0.9,2.5-4.6,2.5-5.9c0-1.5-3.7-6.8-4.5-7c-0.8,0-1.4,1.1-1.5,1.6
			c0,0.3-0.3,0.5-0.6,0.4c-0.3,0-0.5-0.3-0.4-0.6c0.1-0.8,0.9-2.4,2.5-2.4c1.7,0,5.5,6.4,5.5,8C-463.5,747.9-465.8,753.5-467,753.5z
			"/>
	</g>
	<g>
		<path d="M-475,754c-0.1,0-0.2,0-0.3-0.1c-1.5-1.1-2.2-1.9-2.2-2.4c0-0.5,0.2-1.5,2.5-1.5s2.5,1,2.5,1.5c0,0.5-0.7,1.3-2.2,2.4
			C-474.8,754-474.9,754-475,754z M-475,751c-0.9,0-1.5,0.2-1.5,0.5c0.1,0.2,0.7,0.8,1.5,1.4c0.8-0.6,1.4-1.2,1.5-1.4
			C-473.5,751.2-474.1,751-475,751z"/>
	</g>
	<g>
		<path d="M-469,753.5c-0.1,0-0.3,0-0.4-0.1c-0.2-0.2-0.2-0.5,0-0.7l1-1c0.2-0.2,0.5-0.2,0.7,0c0.2,0.2,0.2,0.5,0,0.7l-1,1
			C-468.7,753.5-468.9,753.5-469,753.5z"/>
	</g>
	<g>
		<path d="M-472,747.5c-0.8,0-1.5-0.7-1.5-1.5s0.7-1.5,1.5-1.5s1.5,0.7,1.5,1.5S-471.2,747.5-472,747.5z M-472,745.5
			c-0.3,0-0.5,0.2-0.5,0.5s0.2,0.5,0.5,0.5s0.5-0.2,0.5-0.5S-471.7,745.5-472,745.5z"/>
	</g>
	<g>
		<path d="M-471,740.5c-0.1,0-0.3,0-0.4-0.1c-0.6-0.6-2-1.9-3.6-1.9s-3.1,1.3-3.6,1.9c-0.2,0.2-0.5,0.2-0.7,0s-0.2-0.5,0-0.7
			c0.6-0.6,2.4-2.1,4.4-2.1s3.7,1.5,4.4,2.1c0.2,0.2,0.2,0.5,0,0.7C-470.7,740.5-470.9,740.5-471,740.5z"/>
	</g>
	<g>
		<path d="M-475,758.5c-1.2,0-1.8-0.6-2.2-1l-0.1-0.1c-0.2-0.2-0.2-0.5,0-0.7s0.5-0.2,0.7,0l0.1,0.1c0.4,0.4,0.7,0.7,1.5,0.7
			s1.2-0.3,1.5-0.7l0.1-0.1c0.2-0.2,0.5-0.2,0.7,0c0.2,0.2,0.2,0.5,0,0.7l-0.1,0.1C-473.2,757.9-473.8,758.5-475,758.5z"/>
	</g>
	<g>
		<path d="M-471.5,757.5c-2.1,0-4-2.3-4-4c0-0.3,0.2-0.5,0.5-0.5s0.5,0.2,0.5,0.5c0,1.3,1.5,3,3,3c1.9,0,2-1.7,2-2
			c0-0.7-1.2-3-1.9-4.2c-0.1-0.2-0.1-0.5,0.2-0.7c0.2-0.1,0.5-0.1,0.7,0.2c0.3,0.6,2.1,3.5,2.1,4.8
			C-468.5,755.9-469.4,757.5-471.5,757.5z"/>
	</g>
</g>
</svg>
