<?xml version="1.0" encoding="utf-8"?>
<!-- Generator: Adobe Illustrator 19.0.1, SVG Export Plug-In . SVG Version: 6.00 Build 0)  -->
<svg version="1.1" id="Слой_1" xmlns="http://www.w3.org/2000/svg" xmlns:xlink="http://www.w3.org/1999/xlink" x="0px" y="0px"
	 viewBox="-487 736 24 30" style="enable-background:new -487 736 24 30;" xml:space="preserve">
<g>
	<g>
		<path d="M-478.5,750c-0.8,0-1.6-0.5-1.9-1.3c0-0.1,0-0.2,0-0.3c0.3-0.8,1-1.3,1.9-1.3s1.6,0.5,1.9,1.3c0,0.1,0,0.2,0,0.3
			C-476.9,749.5-477.7,750-478.5,750z M-479.4,748.5c0.4,0.6,1.4,0.6,1.7,0C-478,747.9-479,747.9-479.4,748.5z"/>
	</g>
	<g>
		<path d="M-475,757.5c-0.1,0-0.2,0-0.3-0.1c-0.8-0.5-1.2-1-1.2-1.4c0-1.4,3-1.4,3,0c0,0.4-0.4,0.9-1.2,1.4
			C-474.8,757.5-474.9,757.5-475,757.5z M-475.4,756.1c0.1,0.1,0.2,0.2,0.4,0.3c0.2-0.1,0.3-0.2,0.4-0.3
			C-474.8,756-475.2,756-475.4,756.1z"/>
	</g>
	<g>
		<path d="M-471.5,750c-0.8,0-1.6-0.5-1.9-1.3c0-0.1,0-0.2,0-0.3c0.3-0.8,1-1.3,1.9-1.3s1.6,0.5,1.9,1.3c0,0.1,0,0.2,0,0.3
			C-469.9,749.5-470.7,750-471.5,750z M-472.4,748.5c0.4,0.6,1.4,0.6,1.7,0C-471,747.9-472,747.9-472.4,748.5z"/>
	</g>
	<g>
		<path d="M-468.5,743.5c0,0-0.1,0-0.1,0c-0.2,0-0.3-0.2-0.4-0.3c-0.3-1.2-4.2-4.1-6-4.1s-5.7,3-6,4.1c-0.1,0.2-0.2,0.3-0.4,0.3
			c-0.2,0-0.4,0-0.5-0.2c-0.3-0.3-2.6-2.9-2.6-4.8c0-0.3,0.2-0.5,0.5-0.5c0.9,0,3,1.3,3.8,2.7c1.6-1.4,3.8-2.7,5.2-2.7
			s3.7,1.3,5.2,2.7c0.7-1.3,2.9-2.7,3.8-2.7c0.3,0,0.5,0.2,0.5,0.5c0,1.9-2.4,4.5-2.6,4.8C-468.2,743.4-468.4,743.5-468.5,743.5z
			 M-469,741.4c0.2,0.2,0.4,0.5,0.6,0.7c0.6-0.8,1.4-1.9,1.8-2.9C-467.5,739.7-468.9,740.8-469,741.4z M-483.4,739.2
			c0.3,1,1.2,2.1,1.8,2.9c0.2-0.2,0.4-0.5,0.6-0.7C-481.1,740.8-482.5,739.7-483.4,739.2z"/>
	</g>
	<g>
		<path d="M-474,759c-0.1,0-0.3,0-0.4-0.1l-0.6-0.6l-0.6,0.6c-0.2,0.2-0.5,0.2-0.7,0c-0.2-0.2-0.2-0.5,0-0.7l1-1
			c0.2-0.2,0.5-0.2,0.7,0l1,1c0.2,0.2,0.2,0.5,0,0.7C-473.7,759-473.9,759-474,759z"/>
	</g>
	<g>
		<path d="M-478,757c-0.1,0-0.2,0-0.3-0.1c0,0-1.4-1.1-3.5-2.5c-1.6-1.1-3.3-1.4-3.3-1.4c-0.2,0-0.3-0.1-0.4-0.3
			c-0.1-0.2-0.1-0.3,0-0.5c0,0,0.9-1.5,0.9-2.7c0-1-1.6-1.5-1.6-1.5c-0.2-0.1-0.3-0.2-0.4-0.4s0.1-0.4,0.2-0.5
			c1.3-0.8,2.8-2.1,2.8-2.6c0-0.2-0.4-0.9-0.8-1.5c-0.9-1.5-2.2-3.7-2.2-6.5c0-0.3,0.2-0.5,0.5-0.5c4.9,0,7.8,3,7.9,3.2
			c0.2,0.2,0.2,0.5,0,0.7c-0.2,0.2-0.5,0.2-0.7,0c0,0-2.5-2.6-6.6-2.8c0.1,2.3,1.3,4.1,2.1,5.5c0.5,0.9,0.9,1.5,0.9,2
			c0,1-1.4,2.2-2.5,2.9c0.7,0.4,1.5,1,1.5,2.1c0,1-0.4,2-0.7,2.7c0.7,0.2,1.9,0.6,3,1.4c2.1,1.4,3.5,2.5,3.5,2.5
			c0.2,0.2,0.3,0.5,0.1,0.7C-477.7,756.9-477.9,757-478,757z"/>
	</g>
	<g>
		<path d="M-472,757c-0.1,0-0.3-0.1-0.4-0.2c-0.2-0.2-0.1-0.5,0.1-0.7c0,0,1.5-1.1,3.5-2.5c1.2-0.8,2.3-1.2,3-1.4
			c-0.3-0.6-0.7-1.7-0.7-2.7c0-1,0.8-1.7,1.5-2.1c-1-0.7-2.5-1.9-2.5-2.9c0-0.5,0.4-1.2,0.9-2c0.8-1.4,1.9-3.2,2.1-5.5
			c-4.2,0.2-6.6,2.8-6.6,2.8c-0.2,0.2-0.5,0.2-0.7,0c-0.2-0.2-0.2-0.5,0-0.7c0.1-0.1,3-3.2,7.9-3.2c0.3,0,0.5,0.2,0.5,0.5
			c0,2.8-1.4,5-2.2,6.5c-0.4,0.6-0.8,1.2-0.8,1.5c0,0.5,1.4,1.7,2.8,2.6c0.2,0.1,0.3,0.3,0.2,0.5s-0.2,0.4-0.4,0.4
			c0,0-1.6,0.5-1.6,1.5c0,1.3,0.9,2.7,0.9,2.7c0.1,0.1,0.1,0.3,0,0.5c-0.1,0.2-0.2,0.3-0.4,0.3c0,0-1.7,0.3-3.3,1.4
			c-2,1.4-3.5,2.5-3.5,2.5C-471.8,757-471.9,757-472,757z"/>
	</g>
	<g>
		<path d="M-475,760c-2.9,0-3.5-2.2-3.5-3v-2.5c0-0.6-0.6-1.4-1.6-2.1c-1.4-1-3.2-1.6-3.7-1.4c-0.3,0.1-0.5-0.1-0.6-0.3
			c-0.1-0.3,0.1-0.5,0.3-0.6c1.1-0.4,3.2,0.5,4.6,1.6c0.8,0.5,2,1.7,2,2.9v2.5c0,0,0.1,2,2.5,2s2.5-2,2.5-2v-2.5
			c0-1.3,1.3-2.4,2-2.9c1.4-1,3.5-1.9,4.6-1.6c0.3,0.1,0.4,0.4,0.3,0.6c-0.1,0.3-0.4,0.4-0.6,0.3c-0.6-0.2-2.3,0.4-3.7,1.4
			c-1,0.7-1.6,1.5-1.6,2.1v2.5C-471.5,757.8-472.1,760-475,760z"/>
	</g>
</g>
</svg>
