<?xml version="1.0" encoding="utf-8"?>
<!-- Generator: Adobe Illustrator 19.0.1, SVG Export Plug-In . SVG Version: 6.00 Build 0)  -->
<svg version="1.1" id="Слой_1" xmlns="http://www.w3.org/2000/svg" xmlns:xlink="http://www.w3.org/1999/xlink" x="0px" y="0px"
	 viewBox="-487 736 24 30" style="enable-background:new -487 736 24 30;" xml:space="preserve">
<g>
	<g>
		<path d="M-478.5,750h-3c-0.3,0-0.5-0.2-0.5-0.5s0.2-0.5,0.5-0.5h3c0.3,0,0.5,0.2,0.5,0.5S-478.2,750-478.5,750z"/>
	</g>
	<g>
		<path d="M-477,747c-0.1,0-0.3-0.1-0.4-0.2l-2.5-3c-0.2-0.2-0.1-0.5,0.1-0.7c0.2-0.2,0.5-0.1,0.7,0.1l2.5,3
			c0.2,0.2,0.1,0.5-0.1,0.7C-476.8,747-476.9,747-477,747z"/>
	</g>
	<g>
		<path d="M-478.5,755.5c-0.1,0-0.2,0-0.3-0.1c-0.2-0.1-0.3-0.4-0.2-0.7l1.5-2.5c0.1-0.2,0.4-0.3,0.7-0.2c0.2,0.1,0.3,0.4,0.2,0.7
			l-1.5,2.5C-478.2,755.4-478.3,755.5-478.5,755.5z"/>
	</g>
	<g>
		<path d="M-481.5,748C-481.5,748-481.6,748-481.5,748l-5.1-1c-0.3-0.1-0.4-0.3-0.4-0.6c0.2-0.8,0.9-2.4,2.5-2.4
			c1.8,0,3.2,1.1,3.3,1.1c0.2,0.2,0.3,0.5,0.1,0.7c-0.2,0.2-0.5,0.3-0.7,0.1c0,0-1.3-0.9-2.7-0.9c-0.8,0-1.2,0.6-1.4,1.1l4.5,0.9
			c0.3,0.1,0.4,0.3,0.4,0.6C-481.1,747.8-481.3,748-481.5,748z"/>
	</g>
	<g>
		<path d="M-483.5,760c-0.3,0-0.5-0.2-0.5-0.5c0-2.5,2-5.5,4.5-5.5c0.3,0,0.5,0.2,0.5,0.5s-0.2,0.5-0.5,0.5c-1.6,0-3.1,1.7-3.4,3.7
			c1-0.6,2.9-1.9,4.6-3.1c0.2-0.2,0.5-0.1,0.7,0.1c0.2,0.2,0.1,0.5-0.1,0.7C-482.8,760-483.3,760-483.5,760z"/>
	</g>
	<g>
		<path d="M-475,744c-3,0-3-2.4-3-4c0-2.1,1.4-4,3-4s3,1.9,3,4C-472,741.6-472,744-475,744z M-475,737c-1,0-2,1.5-2,3
			c0,1.9,0.1,3,2,3s2-1.1,2-3C-473,738.5-474,737-475,737z"/>
	</g>
	<g>
		<path d="M-475,757.5c-1.6,0-7-2.6-7-8.5c0-5.3,2.1-6.3,4.4-7c0.3-0.1,0.5,0.1,0.6,0.3c0.1,0.3-0.1,0.5-0.3,0.6
			c-2.1,0.6-3.6,1.4-3.6,6c0,5.4,5.1,7.5,6,7.5s6-2.1,6-7.5c0-4.6-1.6-5.4-3.6-6c-0.3-0.1-0.4-0.4-0.3-0.6c0.1-0.3,0.4-0.4,0.6-0.3
			c2.3,0.7,4.4,1.7,4.4,7C-468,754.9-473.4,757.5-475,757.5z"/>
	</g>
	<g>
		<path d="M-473,753h-4c-0.2,0-0.4-0.1-0.4-0.3l-1.5-3c-0.1-0.1-0.1-0.3,0-0.4l1.5-3c0.1-0.2,0.3-0.3,0.4-0.3h4
			c0.2,0,0.4,0.1,0.4,0.3l1.5,3c0.1,0.1,0.1,0.3,0,0.4l-1.5,3C-472.6,752.9-472.8,753-473,753z M-476.7,752h3.4l1.3-2.5l-1.3-2.5
			h-3.4l-1.3,2.5L-476.7,752z"/>
	</g>
	<g>
		<path d="M-468.5,750h-3c-0.3,0-0.5-0.2-0.5-0.5s0.2-0.5,0.5-0.5h3c0.3,0,0.5,0.2,0.5,0.5S-468.2,750-468.5,750z"/>
	</g>
	<g>
		<path d="M-473,747c-0.1,0-0.2,0-0.3-0.1c-0.2-0.2-0.2-0.5-0.1-0.7l2.5-3c0.2-0.2,0.5-0.2,0.7-0.1c0.2,0.2,0.2,0.5,0.1,0.7l-2.5,3
			C-472.7,746.9-472.9,747-473,747z"/>
	</g>
	<g>
		<path d="M-471.5,755.5c-0.2,0-0.3-0.1-0.4-0.2l-1.5-2.5c-0.1-0.2-0.1-0.5,0.2-0.7c0.2-0.1,0.5-0.1,0.7,0.2l1.5,2.5
			c0.1,0.2,0.1,0.5-0.2,0.7C-471.3,755.5-471.4,755.5-471.5,755.5z"/>
	</g>
	<g>
		<path d="M-468.5,748c-0.2,0-0.4-0.2-0.5-0.4c-0.1-0.3,0.1-0.5,0.4-0.6l4.5-0.9c-0.2-0.5-0.6-1.1-1.4-1.1c-1.4,0-2.7,0.9-2.7,0.9
			c-0.2,0.2-0.5,0.1-0.7-0.1c-0.2-0.2-0.1-0.5,0.1-0.7c0.1,0,1.5-1.1,3.3-1.1c1.6,0,2.3,1.6,2.5,2.4c0.1,0.3-0.1,0.5-0.4,0.6
			L-468.5,748C-468.4,748-468.5,748-468.5,748z"/>
	</g>
	<g>
		<path d="M-466.5,760c-0.2,0-0.7,0-5.8-3.6c-0.2-0.2-0.3-0.5-0.1-0.7c0.2-0.2,0.5-0.3,0.7-0.1c1.7,1.2,3.6,2.5,4.6,3.1
			c-0.3-2-1.9-3.7-3.4-3.7c-0.3,0-0.5-0.2-0.5-0.5s0.2-0.5,0.5-0.5c2.5,0,4.5,3,4.5,5.5C-466,759.8-466.2,760-466.5,760z"/>
	</g>
	<g>
		<path d="M-475,760c-1.4,0-1.9-1.9-2-3c0-0.3,0.2-0.5,0.5-0.5c0.3,0,0.5,0.2,0.5,0.5c0,0.4,0.3,2,1,2c0.7,0,1-1.6,1-2
			c0-0.3,0.2-0.5,0.5-0.5c0.3,0,0.5,0.3,0.5,0.5C-473.1,758.1-473.6,760-475,760z"/>
	</g>
</g>
</svg>
