<?xml version="1.0" encoding="utf-8"?>
<!-- Generator: Adobe Illustrator 19.0.1, SVG Export Plug-In . SVG Version: 6.00 Build 0)  -->
<svg version="1.1" id="Слой_1" xmlns="http://www.w3.org/2000/svg" xmlns:xlink="http://www.w3.org/1999/xlink" x="0px" y="0px"
	 viewBox="-487 736 24 30" style="enable-background:new -487 736 24 30;" xml:space="preserve">
<g>
	<g>
		<path d="M-475.5,744c-0.3,0-0.5-0.2-0.5-0.5c-0.1-1.2-0.6-2.5-1-2.5c-0.3,0-0.5-0.2-0.5-0.5s0.2-0.5,0.5-0.5c1.6,0,1.9,2.9,2,3.5
			C-475,743.7-475.2,744-475.5,744C-475.5,744-475.5,744-475.5,744z"/>
	</g>
	<g>
		<path d="M-477,751c-5.8,0-8-0.8-8-3c0-0.7,0.1-1,0.2-1.3c0.1-0.4,0.3-0.8,0.3-2.2c0-1.6-0.8-3.3-1.4-4.6c-0.4-0.9-0.6-1.5-0.6-1.9
			c0-1.3,0.8-2,2.5-2c4.5,0,7.8,8,8,8.3c0.1,0.3,0,0.5-0.3,0.7c-0.3,0.1-0.5,0-0.7-0.3c0-0.1-3.2-7.7-7-7.7c-1.5,0-1.5,0.6-1.5,1
			c0,0.2,0.3,0.9,0.6,1.5c0.6,1.4,1.4,3.2,1.4,5c0,1.6-0.2,2.1-0.3,2.5c-0.1,0.3-0.2,0.5-0.2,1c0,0.7,0,2,7,2c0.3,0,0.5,0.2,0.5,0.5
			S-476.7,751-477,751z"/>
	</g>
	<g>
		<path d="M-481,760c-3.6,0-5.5-1.5-5.5-4.5c0-3.1,3-5.8,3.2-5.9c0.2-0.2,0.5-0.2,0.7,0c0.2,0.2,0.2,0.5,0,0.7c0,0-2.8,2.5-2.8,5.1
			c0,1.5,0.5,3.5,4.5,3.5c2.8,0,5-3.7,5.1-3.8c0.1-0.2,0.4-0.3,0.7-0.2c0.2,0.1,0.3,0.4,0.2,0.7C-475.2,755.9-477.6,760-481,760z"/>
	</g>
	<g>
		<path d="M-479,757c-2.1,0-3.5-1.2-3.5-3c0-1.6,1.9-3.1,2.8-3.7c-0.7-1.3-2.8-4.9-2.8-6.8c0-1.5,0.6-2.8,1.6-3.4
			c0.7-0.4,1.4-0.4,2.1,0c0.2,0.1,0.3,0.4,0.2,0.7c-0.1,0.2-0.4,0.3-0.7,0.2c-0.4-0.2-0.8-0.2-1.1,0c-0.7,0.4-1.1,1.4-1.1,2.5
			c0,1.7,2.1,5.4,2.9,6.7c0.1,0.1,0.1,0.3,0.1,0.4c0,0.1-0.1,0.2-0.2,0.3c-0.8,0.4-2.8,1.9-2.8,3.1c0,1.9,1.9,2,2.5,2
			c1,0,2.2-1.6,2.6-2.3c0.1-0.2,0.4-0.3,0.7-0.2c0.2,0.1,0.3,0.4,0.2,0.7C-475.7,754.5-477.2,757-479,757z"/>
	</g>
	<g>
		<path d="M-475,757c-0.2,0-0.4-0.1-0.5-0.3c-0.1-0.2-2-5.3-2-8.2c0-3.5,0.9-5.5,2.5-5.5s2.5,2,2.5,5.5c0,2.9-2,8-2,8.2
			C-474.6,756.9-474.8,757-475,757z M-475,744c-0.9,0-1.5,1.8-1.5,4.5c0,1.8,0.9,4.8,1.5,6.5c0.6-1.7,1.5-4.7,1.5-6.5
			C-473.5,745.8-474.1,744-475,744z"/>
	</g>
	<g>
		<path d="M-474.5,744C-474.5,744-474.5,744-474.5,744c-0.3,0-0.5-0.3-0.5-0.5c0.1-0.6,0.4-3.5,2-3.5c0.3,0,0.5,0.2,0.5,0.5
			s-0.2,0.5-0.5,0.5c-0.4,0-0.9,1.3-1,2.5C-474,743.8-474.2,744-474.5,744z"/>
	</g>
	<g>
		<path d="M-473,751c-0.3,0-0.5-0.2-0.5-0.5s0.2-0.5,0.5-0.5c7,0,7-1.3,7-2c0-0.5-0.1-0.7-0.2-1c-0.1-0.4-0.3-0.9-0.3-2.5
			c0-1.8,0.8-3.6,1.4-5c0.3-0.6,0.6-1.3,0.6-1.5c0-0.4,0-1-1.5-1c-3.8,0-7,7.6-7,7.7c-0.1,0.3-0.4,0.4-0.7,0.3
			c-0.3-0.1-0.4-0.4-0.3-0.7c0.1-0.3,3.5-8.3,8-8.3c1.7,0,2.5,0.7,2.5,2c0,0.4-0.3,1-0.6,1.9c-0.6,1.3-1.4,3-1.4,4.6
			c0,1.4,0.1,1.8,0.3,2.2c0.1,0.3,0.2,0.6,0.2,1.3C-465,750.2-467.2,751-473,751z"/>
	</g>
	<g>
		<path d="M-469,760c-3.4,0-5.8-4.1-5.9-4.2c-0.1-0.2-0.1-0.5,0.2-0.7c0.2-0.1,0.5-0.1,0.7,0.2c0,0,2.3,3.8,5.1,3.8
			c4,0,4.5-2,4.5-3.5c0-2.6-2.8-5.1-2.8-5.1c-0.2-0.2-0.2-0.5,0-0.7c0.2-0.2,0.5-0.2,0.7,0c0.1,0.1,3.2,2.8,3.2,5.9
			C-463.5,758.5-465.4,760-469,760z"/>
	</g>
	<g>
		<path d="M-471,757c-1.8,0-3.3-2.5-3.4-2.8c-0.1-0.2-0.1-0.5,0.2-0.7c0.2-0.1,0.5-0.1,0.7,0.2c0.4,0.6,1.5,2.2,2.6,2.2
			c0.6,0,2.5-0.1,2.5-2c0-1.2-2-2.7-2.8-3.1c-0.1-0.1-0.2-0.2-0.2-0.3c0-0.1,0-0.3,0.1-0.4c0.8-1.3,2.9-5.1,2.9-6.7
			c0-1.1-0.5-2.1-1.1-2.5c-0.4-0.2-0.7-0.2-1.1,0c-0.2,0.1-0.5,0-0.7-0.2c-0.1-0.2,0-0.5,0.2-0.7c0.7-0.4,1.4-0.4,2.1,0
			c1,0.6,1.6,1.9,1.6,3.4c0,1.9-2.1,5.6-2.8,6.8c0.9,0.6,2.8,2.1,2.8,3.7C-467.5,755.8-468.9,757-471,757z"/>
	</g>
</g>
</svg>
