<?xml version="1.0" encoding="utf-8"?>
<!-- Generator: Adobe Illustrator 19.0.1, SVG Export Plug-In . SVG Version: 6.00 Build 0)  -->
<svg version="1.1" id="Слой_1" xmlns="http://www.w3.org/2000/svg" xmlns:xlink="http://www.w3.org/1999/xlink" x="0px" y="0px"
	 viewBox="-487 736 24 30" style="enable-background:new -487 736 24 30;" xml:space="preserve">
<g>
	<g>
		<path d="M-477.5,757c-0.1,0-0.2,0-0.3-0.1l-8.2-7.3v0.9c0,0.3-0.2,0.5-0.5,0.5s-0.5-0.2-0.5-0.5v-2c0-0.2,0.1-0.4,0.3-0.5
			c0.2-0.1,0.4,0,0.5,0.1l9,8c0.2,0.2,0.2,0.5,0,0.7C-477.2,756.9-477.4,757-477.5,757z"/>
	</g>
	<g>
		<path d="M-480.5,745.5c-2.9,0-3.5-1.4-3.5-2.5c0-0.2,0.1-0.3,0.2-0.4c0.8-0.5,1.6-0.7,2.3-0.5c1,0.3,1.4,1.1,1.4,1.2
			c0.1,0.2,0,0.5-0.2,0.7c-0.2,0.1-0.5,0-0.7-0.2c0,0-0.3-0.5-0.8-0.7c-0.4-0.1-0.8,0-1.2,0.2c0.1,0.5,0.4,1.2,2.5,1.2
			c0.3,0,0.5,0.2,0.5,0.5S-480.2,745.5-480.5,745.5z"/>
	</g>
	<g>
		<path d="M-473.5,754c-4.6,0-5-5.7-5-7.5c0-0.3,0.2-0.5,0.5-0.5s0.5,0.2,0.5,0.5c0,2,0.4,6.5,4,6.5c0.3,0,0.5,0.2,0.5,0.5
			S-473.2,754-473.5,754z"/>
	</g>
	<g>
		<path d="M-479.5,752c-0.1,0-0.1,0-0.2,0l-7-3c-0.3-0.1-0.4-0.4-0.3-0.7c0.1-0.3,0.4-0.4,0.7-0.3l6.8,2.9l1.8-0.5
			c0.3-0.1,0.5,0.1,0.6,0.4c0.1,0.3-0.1,0.5-0.4,0.6l-2,0.5C-479.4,752-479.5,752-479.5,752z"/>
	</g>
	<g>
		<path d="M-471.5,756c-0.1,0-0.3,0-0.4-0.1l-1-1c-0.1-0.1-0.1-0.2-0.1-0.4v-1c0-0.3,0.2-0.5,0.5-0.5s0.5,0.2,0.5,0.5v0.8l0.9,0.9
			c0.2,0.2,0.2,0.5,0,0.7C-471.2,756-471.4,756-471.5,756z"/>
	</g>
	<g>
		<path d="M-486.5,760c-0.1,0-0.2,0-0.3-0.1c-0.2-0.2-0.2-0.5-0.1-0.7c0,0,1.9-2.4,1.9-5.2c0-2.8-1.9-5.2-1.9-5.2
			c-0.1-0.2-0.1-0.4,0-0.6c0.1-0.2,0.3-0.3,0.5-0.2c1.6,0.3,4.3,0.4,5.1-0.4l1.5-1.5c0.2-0.2,0.5-0.2,0.7,0c0.2,0.2,0.2,0.5,0,0.7
			l-1.5,1.5c-1,1-3.4,0.9-4.8,0.8c0.6,1,1.5,2.9,1.5,4.9c0,1.4-0.4,2.7-0.9,3.7c2.6-1.3,6-1.6,7.1-1.7c0.3-0.6,1.2-1.9,3-2.6
			c1.6-0.6,3.4-0.5,5.4,0.2c-0.7-2-0.8-3.8-0.2-5.4c0.7-1.8,2-2.7,2.6-3c0.1-1,0.4-4.5,1.7-7.1c-1,0.5-2.3,0.9-3.7,0.9
			c-2,0-3.8-0.9-4.9-1.5c0.1,1.4,0.2,3.9-0.8,4.8l-1.5,1.5c-0.2,0.2-0.5,0.2-0.7,0s-0.2-0.5,0-0.7l1.5-1.5c0.7-0.7,0.6-3.5,0.4-5.1
			c0-0.2,0.1-0.4,0.2-0.5c0.2-0.1,0.4-0.1,0.6,0c0,0,2.4,1.9,5.2,1.9s5.2-1.9,5.2-1.9c0.2-0.2,0.5-0.1,0.7,0.1
			c0.2,0.2,0.2,0.5,0,0.7c-2.5,2.4-2.8,8.6-2.8,8.7c0,0.2-0.1,0.4-0.3,0.4c-0.2,0.1-4.5,2.1-1.7,8.3c0.1,0.2,0,0.4-0.1,0.6
			c-0.1,0.1-0.4,0.2-0.6,0.1c-2.2-1-4.2-1.2-5.7-0.6c-1.9,0.7-2.6,2.3-2.6,2.3c-0.1,0.2-0.2,0.3-0.4,0.3c-0.1,0-6.3,0.3-8.7,2.8
			C-486.2,759.9-486.4,760-486.5,760z"/>
	</g>
	<g>
		<path d="M-466.5,746c-0.1,0-0.3-0.1-0.4-0.2l-8-9c-0.1-0.1-0.2-0.4-0.1-0.5c0.1-0.2,0.3-0.3,0.5-0.3h2c0.3,0,0.5,0.2,0.5,0.5
			s-0.2,0.5-0.5,0.5h-0.9l7.3,8.2c0.2,0.2,0.2,0.5,0,0.7C-466.3,746-466.4,746-466.5,746z"/>
	</g>
	<g>
		<path d="M-479.5,743c-0.1,0-0.1,0-0.2,0c0,0-0.9-0.4-1.2-1.4c-0.2-0.7,0-1.5,0.5-2.3c0.1-0.1,0.3-0.2,0.4-0.2
			c1.1,0,2.5,0.6,2.5,3.5c0,0.3-0.2,0.5-0.5,0.5s-0.5-0.2-0.5-0.5c0-2.1-0.7-2.4-1.2-2.5c-0.2,0.5-0.3,0.9-0.2,1.3
			c0.2,0.5,0.6,0.8,0.7,0.8c0.2,0.1,0.4,0.4,0.2,0.7C-479.1,742.9-479.3,743-479.5,743z"/>
	</g>
	<g>
		<path d="M-478.3,747c-0.5,0-1.1-0.2-1.5-0.6c-1.2-1.2-1.4-2.8-0.5-3.7c0.9-0.9,2.5-0.7,3.7,0.5c1.1,1.1,0.6,2.6,0,3.2
			C-477,746.7-477.6,747-478.3,747z M-478.9,743.1c-0.3,0-0.5,0.1-0.7,0.3c-0.5,0.5-0.3,1.5,0.5,2.3c0.7,0.7,1.6,0.2,1.8,0
			c0.2-0.2,0.7-1.1,0-1.8C-477.9,743.3-478.4,743.1-478.9,743.1z"/>
	</g>
	<g>
		<path d="M-469.5,750c-0.3,0-0.5-0.2-0.5-0.5c0-3.6-4.5-4-6.5-4c-0.3,0-0.5-0.2-0.5-0.5s0.2-0.5,0.5-0.5c1.8,0,7.5,0.4,7.5,5
			C-469,749.8-469.2,750-469.5,750z"/>
	</g>
	<g>
		<path d="M-472,746c0,0-0.1,0-0.1,0c-0.3-0.1-0.4-0.3-0.4-0.6l0.5-1.8l-2.9-6.8c-0.1-0.3,0-0.5,0.3-0.7c0.3-0.1,0.5,0,0.7,0.3l3,7
			c0,0.1,0.1,0.2,0,0.3l-0.5,2C-471.6,745.8-471.8,746-472,746z"/>
	</g>
	<g>
		<path d="M-467.5,752c-0.1,0-0.3,0-0.4-0.1l-0.9-0.9h-0.8c-0.3,0-0.5-0.2-0.5-0.5s0.2-0.5,0.5-0.5h1c0.1,0,0.3,0.1,0.4,0.1l1,1
			c0.2,0.2,0.2,0.5,0,0.7C-467.2,752-467.4,752-467.5,752z"/>
	</g>
</g>
</svg>
