<?xml version="1.0" encoding="utf-8"?>
<!-- Generator: Adobe Illustrator 19.0.1, SVG Export Plug-In . SVG Version: 6.00 Build 0)  -->
<svg version="1.1" id="Слой_1" xmlns="http://www.w3.org/2000/svg" xmlns:xlink="http://www.w3.org/1999/xlink" x="0px" y="0px"
	 viewBox="-487 736 24 30" style="enable-background:new -487 736 24 30;" xml:space="preserve">
<style type="text/css">
	.st0{fill:none;stroke:#000000;stroke-linecap:round;stroke-linejoin:round;stroke-miterlimit:10;}
</style>
<g>
	<g>
		<path class="st0" d="M-474.7,749.7"/>
	</g>
	<g>
		<path d="M-469,751.5c-0.2,0-0.4-0.1-0.4-0.3c-0.1-0.2-0.1-0.4,0.1-0.6l0,0c0,0,0.4-0.5,0.4-1.7c0-1.1-1.7-3-3.5-3
			c-0.3,0-0.5-0.2-0.5-0.5s0.2-0.5,0.5-0.5c2.3,0,4.5,2.3,4.5,4c0,0.4,0,0.7-0.1,1c0.5-0.4,1.1-1.2,1.1-2.5c0-2.7-1.6-3.5-1.7-3.5
			c-0.2-0.1-0.4-0.4-0.2-0.7s0.4-0.4,0.7-0.2c0.1,0,2.3,1.1,2.3,4.5C-466,750.3-467.9,751.3-469,751.5
			C-468.9,751.5-469,751.5-469,751.5z"/>
	</g>
	<g>
		<path d="M-475.5,751c-0.1,0-0.2,0-0.3-0.1c-0.4-0.3-2.2-2.1-2.2-3.4c0-0.3,0.2-0.5,0.5-0.5s0.5,0.2,0.5,0.5c0,0.4,0.5,1.2,1.1,1.8
			c0.1-0.5,0.3-1.2,0.7-1.6c0.4-0.5,1-0.7,1.7-0.7c0.3,0,0.5,0.2,0.5,0.5s-0.2,0.5-0.5,0.5c-0.4,0-0.7,0.1-1,0.4
			c-0.6,0.7-0.5,2.1-0.5,2.1c0,0.2-0.1,0.4-0.3,0.5C-475.4,751-475.4,751-475.5,751z"/>
	</g>
	<g>
		<path d="M-480.5,760c-0.2,0-0.4-0.1-0.5-0.3c-0.1-0.2,0-0.4,0.1-0.5l1.8-1.8c-0.2-0.6-0.7-2.2-2.3-2.3c-0.8,0.6-2.2,0-2.4,0
			c-0.1-0.1-0.2-0.1-0.3-0.3c0-0.1-0.7-1.7-2.5-1.7c-0.2,0-0.4-0.1-0.5-0.3c-0.1-0.2,0-0.4,0.1-0.5c0.8-0.8,3.2-1.1,4.4-1.1
			c0.6,0,1.3,0.2,2.2,0.4c1.2,0.3,2.5,0.6,3.8,0.6c2.2,0,5.5-1.1,5.5-2.5c0-1.4-2.5-1.5-2.5-1.5h-4c-0.3,0-0.5,0-0.7,0
			c-1.3,0-2.4,0.1-3.6-1.2c-0.1-0.1-0.1-0.2-0.1-0.4s0.1-0.3,0.1-0.4c0.3-0.3,1.4-0.7,2.5-0.9c-0.5-0.1-1.1-0.3-1.6-0.3
			c-0.7,0-1.9,0.3-2.4,0.5c-0.1,0-0.2,0-0.2,0c-0.1,0-2.2-0.4-3.3-1.7c-0.1-0.1-0.1-0.3-0.1-0.4c0-0.1,0.1-0.3,0.2-0.3
			c0.3-0.2,6.5-3.8,10.8-4.1c0.6-2.7,5.8-3,6.4-3c0.2,0,0.4,0.1,0.5,0.3c0.1,0.2,0,0.4-0.2,0.6c-0.4,0.3-1.4,1.2-1.7,2.1
			c3.4,0.4,7.9,4.7,7.9,8.5c0,4-6.6,7-11.4,7.5c0.3,0.4,0.4,0.9,0.4,1.5C-474,758.2-477.9,760-480.5,760z M-481.5,754
			c2.3,0,3.3,2.2,3.5,3.4c0,0.2,0,0.3-0.1,0.4l-1,1c2.1-0.4,4.1-1.8,4.1-2.3c0-0.8-0.3-1.1-0.9-1.6c-0.1-0.1-0.2-0.4-0.1-0.5
			c0.1-0.2,0.3-0.3,0.5-0.3c4.9,0,11.5-3.2,11.5-6.5c0-3.4-4.6-7.5-7.5-7.5c-0.3,0-0.5-0.2-0.5-0.5c0-0.9,0.5-1.7,1.1-2.4
			c-1.8,0.3-4.1,0.9-4.1,2.4c0,0.3-0.2,0.5-0.5,0.5c-3.3,0-8.4,2.6-10.2,3.6c0.8,0.5,1.8,0.8,2.1,0.9c0.4-0.1,1.7-0.5,2.5-0.5
			c1.7,0,3.6,0.9,3.9,1.1c0.1,0.1,0.2,0.4,0.1,0.5c-0.1,0.2-0.3,0.3-0.5,0.3c-0.8,0-2.2,0.3-3.1,0.6c0.7,0.4,1.3,0.4,2.3,0.4
			c0.2,0,0.5,0,0.8,0h4c1.3,0.1,3.5,0.6,3.5,2.5c0,2.3-4.2,3.5-6.5,3.5c-1.4,0-2.8-0.4-4-0.6c-0.8-0.2-1.5-0.4-2-0.4
			c-0.7,0-1.7,0.1-2.5,0.3c1,0.5,1.6,1.4,1.8,1.8c0.5,0.2,1.1,0.2,1.3,0C-481.8,754.1-481.6,754-481.5,754z"/>
	</g>
	<g>
		<circle cx="-479.5" cy="742.5" r="0.5"/>
	</g>
</g>
</svg>
