<?xml version="1.0" encoding="utf-8"?>
<!-- Generator: Adobe Illustrator 19.0.1, SVG Export Plug-In . SVG Version: 6.00 Build 0)  -->
<svg version="1.1" id="Слой_1" xmlns="http://www.w3.org/2000/svg" xmlns:xlink="http://www.w3.org/1999/xlink" x="0px" y="0px"
	 viewBox="-487 736 24 30" style="enable-background:new -487 736 24 30;" xml:space="preserve">
<g>
	<g>
		<path d="M-482,756c-0.1,0-0.2,0-0.2-0.1c-0.1-0.1-2.8-1.5-2.8-6.9c0-5.7,8.7-8.5,13.5-8.5c5.2,0,8.3,4,8.4,4.2
			c0.1,0.2,0.1,0.5,0,0.7l-0.6,0.6l0.6,0.6c0.1,0.1,0.1,0.2,0.1,0.4s-0.1,0.3-0.1,0.4c-0.1,0.1-3.2,3.1-6.4,3.1h-2
			c-0.3,0-0.5-0.2-0.5-0.5s0.2-0.5,0.5-0.5h2c2.1,0,4.4-1.8,5.3-2.5l-0.6-0.6c-0.2-0.2-0.2-0.5,0-0.7l0.7-0.7
			c-0.8-0.9-3.5-3.5-7.3-3.5c-5.1,0-12.5,2.9-12.5,7.5c0,4.8,2.2,6,2.2,6.1c0.2,0.1,0.3,0.4,0.2,0.7C-481.7,755.9-481.8,756-482,756
			z"/>
	</g>
	<g>
		<path d="M-473.5,752.5c-0.2,0-0.4-0.1-0.5-0.3c-0.1-0.2,0-0.4,0.1-0.5c0,0,0.1-0.1,0.1-0.2c0-1-1.9-3-3-4.1
			c-0.2-0.2-0.2-0.5,0-0.7c0.2-0.2,0.5-0.2,0.7,0c0.3,0.3,3,2.8,3.3,4.5c0.7-1,0.8-3.2,0.8-4.1c0-0.3,0.2-0.5,0.5-0.5
			c0.3,0,0.5,0.2,0.5,0.5c0,0.4,0,3.7-1.2,5C-472.6,752.3-473,752.5-473.5,752.5z"/>
	</g>
	<g>
		<path d="M-469.5,748.5c-0.1,0-0.2,0-0.2-0.1c-0.1,0-1.3-0.7-1.3-2.9s1.2-2.9,1.3-2.9c0.2-0.1,0.5-0.1,0.7,0.2
			c0.1,0.2,0.1,0.5-0.2,0.7c0,0-0.8,0.5-0.8,2.1c0,1.6,0.7,2,0.8,2.1c0.2,0.1,0.3,0.4,0.2,0.7C-469.2,748.4-469.3,748.5-469.5,748.5
			z"/>
	</g>
	<g>
		<path d="M-477.5,759.5c-0.1,0-0.2,0-0.3-0.1c-0.8-0.5-1.8-0.8-2.7-1c-1.2-0.3-2.4-0.6-3.4-1.6c-1.7-1.7-3.1-3.4-3.1-6.9
			c0-3.3,2.1-6.3,3.1-7.4c0.2-0.2,0.5-0.2,0.7,0s0.2,0.5,0,0.7c-1,1-2.9,3.6-2.9,6.6c0,3,1.2,4.5,2.9,6.1c0.8,0.8,1.8,1,2.9,1.3
			c0.6,0.1,1.2,0.3,1.8,0.5c-0.2-0.9-0.3-2,0.6-2.8c0.6-0.6,0.8-2,0.9-3c-1.2,1.1-2.8,2.4-3.5,2.4c-1.1,0-2.5-1.5-2.5-3
			c0-1.4,1.4-4,3.5-4c1.1,0,2.5,0.6,3.7,1c0.5,0.2,1.2,0.5,1.3,0.5c0.3,0,0.5,0.2,0.5,0.5c0,0.3-0.2,0.5-0.5,0.5
			c-0.3,0-0.8-0.2-1.7-0.5c-1-0.4-2.4-1-3.3-1c-1.4,0-2.5,2-2.5,3c0,1,1,2,1.5,2c0.4-0.1,2.2-1.5,3.7-2.9c0.1-0.1,0.3-0.2,0.5-0.1
			c0.2,0.1,0.3,0.2,0.3,0.4c0,0.1,0.3,3.5-1.1,4.9c-1,1,0.1,2.9,0.1,2.9c0.1,0.2,0.1,0.5-0.1,0.6
			C-477.3,759.5-477.4,759.5-477.5,759.5z"/>
	</g>
	<g>
		<path d="M-481.5,744.5c-0.1,0-0.2,0-0.3-0.1c-0.9-0.5-3.6-1.9-4.7-1.9c-0.2,0-0.4-0.1-0.5-0.3c-0.1-0.2,0-0.4,0.1-0.5
			c2.4-2.4,8.5-5.1,11.4-5.1c3.6,0.1,5.4,4.1,5.5,4.3c0.1,0.3,0,0.5-0.3,0.7c-0.3,0.1-0.5,0-0.7-0.3c0,0-1.6-3.6-4.5-3.7
			c-2.2,0-7.2,2-9.9,4.2c1.7,0.5,3.9,1.7,4.1,1.9c0.2,0.1,0.3,0.4,0.2,0.7C-481.2,744.4-481.3,744.5-481.5,744.5z"/>
	</g>
	<g>
		<path d="M-478.5,742.5c-0.1,0-0.3,0-0.4-0.1c-0.6-0.6-3.2-1.5-4.8-1.9c-0.3-0.1-0.4-0.3-0.4-0.6c0.1-0.3,0.3-0.4,0.6-0.4
			c0.4,0.1,4.3,1.2,5.2,2.1c0.2,0.2,0.2,0.5,0,0.7C-478.2,742.5-478.4,742.5-478.5,742.5z"/>
	</g>
	<g>
		<path d="M-473.5,741.5c-0.2,0-0.4-0.1-0.5-0.3c-0.8-1.7-4.3-2.5-5.6-2.7c-0.3,0-0.5-0.3-0.4-0.6c0-0.3,0.3-0.5,0.6-0.4
			c0.2,0,5.2,0.8,6.4,3.3c0.1,0.3,0,0.5-0.2,0.7C-473.4,741.5-473.4,741.5-473.5,741.5z"/>
	</g>
	<g>
		<circle cx="-467" cy="745.5" r="1"/>
	</g>
</g>
</svg>
