<?xml version="1.0" encoding="utf-8"?>
<!-- Generator: Adobe Illustrator 19.0.1, SVG Export Plug-In . SVG Version: 6.00 Build 0)  -->
<svg version="1.1" id="Слой_1" xmlns="http://www.w3.org/2000/svg" xmlns:xlink="http://www.w3.org/1999/xlink" x="0px" y="0px"
	 viewBox="-487 736 24 30" style="enable-background:new -487 736 24 30;" xml:space="preserve">
<g>
	<g>
		<path d="M-475,748c-1.4,0-2.5-0.9-2.5-2s1.1-2,2.5-2s2.5,0.9,2.5,2S-473.6,748-475,748z M-475,745c-0.8,0-1.5,0.5-1.5,1
			s0.7,1,1.5,1s1.5-0.5,1.5-1S-474.2,745-475,745z"/>
	</g>
	<g>
		<path d="M-477,759.5c-0.1,0-0.2,0-0.3-0.1c-0.5-0.3-1.2-1.2-0.7-2.6c0.1-0.3,0.4-0.4,0.6-0.3c0.3,0.1,0.4,0.4,0.3,0.6
			c-0.4,1,0.3,1.4,0.3,1.4c0.2,0.1,0.3,0.5,0.2,0.7C-476.7,759.4-476.8,759.5-477,759.5z"/>
	</g>
	<g>
		<path d="M-476.5,743.5c-0.1,0-0.3,0-0.4-0.1c-0.1-0.1-0.1-0.1-0.2-0.2c-0.4-0.3-0.9-0.7-0.9-1.7c0-1.2,1-2.2,1.1-2.4
			c0.2-0.2,0.5-0.2,0.7,0c0.2,0.2,0.2,0.5,0,0.7c-0.2,0.2-0.9,1-0.9,1.7c0,0.5,0.2,0.6,0.5,0.9c0.1,0.1,0.2,0.2,0.3,0.3
			c0.2,0.2,0.2,0.5,0,0.7C-476.2,743.5-476.4,743.5-476.5,743.5z"/>
	</g>
	<g>
		<path d="M-477.5,746c-0.1,0-0.1,0-0.2,0l-3-1c-0.1,0-0.2-0.1-0.3-0.3l-2-4c-0.1-0.1-0.1-0.3,0-0.4l2-4c0.1-0.2,0.4-0.3,0.7-0.2
			c0.2,0.1,0.3,0.4,0.2,0.7l-1.9,3.8l1.8,3.6l2.8,0.9c0.3,0.1,0.4,0.4,0.3,0.6C-477.1,745.9-477.3,746-477.5,746z"/>
	</g>
	<g>
		<path d="M-483,747.5c-0.1,0-0.2,0-0.3-0.1l-3.5-2.5c-0.2-0.1-0.2-0.3-0.2-0.5l1-6c0-0.3,0.3-0.5,0.6-0.4c0.3,0,0.5,0.3,0.4,0.6
			l-0.9,5.7l3.1,2.2l5.3-1c0.3-0.1,0.5,0.1,0.6,0.4c0.1,0.3-0.1,0.5-0.4,0.6L-483,747.5C-482.9,747.5-483,747.5-483,747.5z"/>
	</g>
	<g>
		<path d="M-485.5,757c-0.3,0-0.5-0.2-0.5-0.5v-4c0-0.1,0-0.2,0.1-0.3l2-3c0-0.1,0.1-0.1,0.2-0.2l6-3c0.2-0.1,0.5,0,0.7,0.2
			c0.1,0.2,0,0.5-0.2,0.7l-5.9,2.9l-1.8,2.8v3.8C-485,756.8-485.2,757-485.5,757z"/>
	</g>
	<g>
		<path d="M-479.5,760c-0.2,0-0.3-0.1-0.4-0.2l-2-3c-0.1-0.1-0.1-0.2-0.1-0.3v-5c0-0.1,0.1-0.3,0.1-0.4l4.5-4.5
			c0.2-0.2,0.5-0.2,0.7,0s0.2,0.5,0,0.7l-4.4,4.4v4.6l1.9,2.9c0.2,0.2,0.1,0.5-0.1,0.7C-479.3,760-479.4,760-479.5,760z"/>
	</g>
	<g>
		<path d="M-475,758c-2.4,0-5-2.8-5-5.5c0-2.6,2.1-5.6,3.3-6c0.3-0.1,0.5,0.1,0.6,0.3c0.1,0.3-0.1,0.5-0.3,0.6
			c-0.7,0.3-2.7,2.7-2.7,5c0,2.1,2.1,4.5,4,4.5s4-2.4,4-4.5c0-2.3-1.9-4.8-2.7-5c-0.3-0.1-0.4-0.4-0.3-0.6c0.1-0.3,0.4-0.4,0.6-0.3
			c1.3,0.4,3.3,3.4,3.3,6C-470,755.2-472.6,758-475,758z"/>
	</g>
	<g>
		<path d="M-473,759.5c-0.2,0-0.3-0.1-0.4-0.2c-0.1-0.2-0.1-0.5,0.2-0.7c0.1-0.1,0.6-0.5,0.3-1.4c-0.1-0.3,0-0.5,0.3-0.6
			c0.3-0.1,0.5,0,0.6,0.3c0.5,1.4-0.2,2.3-0.7,2.6C-472.8,759.5-472.9,759.5-473,759.5z"/>
	</g>
	<g>
		<path d="M-473.5,745c-0.1,0-0.1,0-0.2-0.1c-0.2-0.1-0.4-0.4-0.2-0.7c0.1-0.3,0.1-0.5,0-0.8c-0.2-0.3-0.6-0.5-1.1-0.5
			s-0.9,0.2-1.1,0.5c-0.1,0.2-0.1,0.5,0,0.8c0.1,0.2,0,0.5-0.2,0.7c-0.2,0.1-0.5,0-0.7-0.2c-0.3-0.6-0.3-1.2,0-1.7
			c0.4-0.6,1.1-1,1.9-1s1.5,0.4,1.9,1c0.3,0.5,0.3,1.1,0,1.7C-473.1,744.9-473.3,745-473.5,745z"/>
	</g>
	<g>
		<path d="M-473.5,743.5c-0.1,0-0.3,0-0.4-0.1c-0.2-0.2-0.2-0.5,0-0.7c0.1-0.1,0.2-0.2,0.3-0.3c0.3-0.2,0.5-0.4,0.5-0.9
			c0-0.6-0.6-1.4-0.9-1.6c-0.2-0.2-0.2-0.5,0-0.7c0.2-0.2,0.5-0.2,0.7,0c0.1,0.1,1.1,1.2,1.1,2.3c0,1-0.6,1.4-0.9,1.7
			c-0.1,0.1-0.2,0.1-0.2,0.2C-473.2,743.5-473.4,743.5-473.5,743.5z"/>
	</g>
	<g>
		<path d="M-472.5,746c-0.2,0-0.4-0.1-0.5-0.3c-0.1-0.3,0.1-0.5,0.3-0.6l2.8-0.9l1.8-3.6l-1.9-3.8c-0.1-0.2,0-0.5,0.2-0.7
			c0.2-0.1,0.5,0,0.7,0.2l2,4c0.1,0.1,0.1,0.3,0,0.4l-2,4c-0.1,0.1-0.2,0.2-0.3,0.3l-3,1C-472.4,746-472.4,746-472.5,746z"/>
	</g>
	<g>
		<path d="M-467,747.5C-467,747.5-467.1,747.5-467,747.5l-5.6-1c-0.3,0-0.5-0.3-0.4-0.6c0-0.3,0.3-0.5,0.6-0.4l5.3,1l3.1-2.2
			l-0.9-5.7c0-0.3,0.1-0.5,0.4-0.6c0.3,0,0.5,0.1,0.6,0.4l1,6c0,0.2,0,0.4-0.2,0.5l-3.5,2.5C-466.8,747.5-466.9,747.5-467,747.5z"/>
	</g>
	<g>
		<path d="M-464.5,757c-0.3,0-0.5-0.2-0.5-0.5v-3.8l-1.8-2.8l-5.9-2.9c-0.2-0.1-0.3-0.4-0.2-0.7c0.1-0.2,0.4-0.3,0.7-0.2l6,3
			c0.1,0,0.1,0.1,0.2,0.2l2,3c0.1,0.1,0.1,0.2,0.1,0.3v4C-464,756.8-464.2,757-464.5,757z"/>
	</g>
	<g>
		<path d="M-470.5,760c-0.1,0-0.2,0-0.3-0.1c-0.2-0.2-0.3-0.5-0.1-0.7l1.9-2.9v-4.6l-4.4-4.4c-0.2-0.2-0.2-0.5,0-0.7s0.5-0.2,0.7,0
			l4.5,4.5c0.1,0.1,0.1,0.2,0.1,0.4v5c0,0.1,0,0.2-0.1,0.3l-2,3C-470.2,759.9-470.3,760-470.5,760z"/>
	</g>
</g>
</svg>
