<?xml version="1.0" encoding="utf-8"?>
<!-- Generator: Adobe Illustrator 19.0.1, SVG Export Plug-In . SVG Version: 6.00 Build 0)  -->
<svg version="1.1" id="Слой_1" xmlns="http://www.w3.org/2000/svg" xmlns:xlink="http://www.w3.org/1999/xlink" x="0px" y="0px"
	 viewBox="-487 736 24 30" style="enable-background:new -487 736 24 30;" xml:space="preserve">
<g>
	<g>
		<path d="M-483,743c-0.1,0-0.3,0-0.4-0.1c-0.6-0.6-1.1-1.7-1.3-3c-0.1-0.6-0.3-2.1,0.3-2.8c1-1,3.7,0.5,4.2,1
			c0.2,0.2,0.2,0.5,0,0.7s-0.5,0.2-0.7,0c-0.6-0.6-2.5-1.3-2.8-1c-0.4,0.4-0.1,3.2,1,4.3c0.2,0.2,0.2,0.5,0,0.7
			C-482.7,743-482.9,743-483,743z"/>
	</g>
	<g>
		<path d="M-482.5,740c-0.1,0-0.2,0-0.3-0.1c-0.2-0.1-0.8-0.4-1.2-0.4c-0.3,0-0.5-0.2-0.5-0.5s0.2-0.5,0.5-0.5
			c0.8,0,1.7,0.5,1.8,0.6c0.2,0.1,0.3,0.5,0.2,0.7C-482.2,739.9-482.3,740-482.5,740z"/>
	</g>
	<g>
		<path d="M-477.5,757.5c-0.1,0-0.2,0-0.3-0.1c-0.2-0.2-1.8-1.3-2.7-2.6c0,0.3,0,0.5,0,0.7c0,0.2-0.1,0.4-0.3,0.5
			c-0.2,0.1-0.5,0-0.6-0.2c-0.2-0.4-1.1-1.9-1.6-3.1c0,0.1-0.1,0.3-0.3,0.3c-0.2,0.1-0.4,0.1-0.6-0.1c-0.1-0.1-2.6-2.9-2.6-5.3
			c0-1.5,1.5-3.1,2.7-4.4c0.6-0.6,1.3-1.4,1.3-1.6c0-0.3,0.3-0.5,0.5-0.5c0.3,0,0.5,0.2,0.5,0.5c0,0.6-0.7,1.4-1.6,2.3
			c-1.1,1.1-2.4,2.5-2.4,3.7c0,1.4,1,2.9,1.7,3.9c0.1-0.2,0.2-0.4,0.4-0.7c0.1-0.2,0.4-0.3,0.6-0.2c0.2,0.1,0.3,0.3,0.3,0.5
			c0,0.4,0.6,1.7,1.2,2.9c0.1-0.3,0.3-0.6,0.5-0.8c0.1-0.1,0.3-0.2,0.5-0.1c0.2,0.1,0.3,0.2,0.3,0.4c0.2,1.2,2.1,2.7,2.8,3.2
			c0.2,0.2,0.3,0.5,0.1,0.7C-477.2,757.4-477.3,757.5-477.5,757.5z"/>
	</g>
	<g>
		<path d="M-479,748c-0.8,0-1.5-0.7-1.5-1.5s0.7-1.5,1.5-1.5s1.5,0.7,1.5,1.5S-478.2,748-479,748z M-479,746c-0.3,0-0.5,0.2-0.5,0.5
			s0.2,0.5,0.5,0.5s0.5-0.2,0.5-0.5S-478.7,746-479,746z"/>
	</g>
	<g>
		<path d="M-469,740c-0.2,0-0.3-0.1-0.4-0.2c-0.7-1.1-3.2-2.8-5.6-2.8s-4.9,1.7-5.6,2.8c-0.1,0.2-0.5,0.3-0.7,0.2
			c-0.2-0.1-0.3-0.5-0.2-0.7c0.8-1.3,3.7-3.2,6.4-3.2s5.6,1.9,6.4,3.2c0.1,0.2,0.1,0.5-0.2,0.7C-468.8,740-468.9,740-469,740z"/>
	</g>
	<g>
		<path d="M-467,743c-0.1,0-0.3,0-0.4-0.1c-0.2-0.2-0.2-0.5,0-0.7c1.1-1.1,1.4-3.9,1-4.3c-0.3-0.3-2.2,0.4-2.8,1
			c-0.2,0.2-0.5,0.2-0.7,0s-0.2-0.5,0-0.7c0.5-0.5,3.2-2,4.2-1c0.6,0.6,0.4,2.1,0.3,2.8c-0.2,1.2-0.7,2.3-1.3,3
			C-466.7,743-466.9,743-467,743z"/>
	</g>
	<g>
		<path d="M-467.5,740c-0.2,0-0.3-0.1-0.4-0.2c-0.1-0.2-0.1-0.5,0.2-0.7c0.1-0.1,0.9-0.6,1.8-0.6c0.3,0,0.5,0.2,0.5,0.5
			s-0.2,0.5-0.5,0.5c-0.5,0-1,0.3-1.2,0.4C-467.3,740-467.4,740-467.5,740z"/>
	</g>
	<g>
		<path d="M-472.5,757.5c-0.2,0-0.3-0.1-0.4-0.2c-0.2-0.2-0.1-0.5,0.1-0.7c0.7-0.5,2.6-2,2.8-3.2c0-0.2,0.2-0.3,0.3-0.4
			c0.2-0.1,0.4,0,0.5,0.1c0.2,0.2,0.4,0.5,0.5,0.8c0.6-1.2,1.2-2.4,1.2-2.9c0-0.2,0.1-0.4,0.3-0.5c0.2-0.1,0.4,0,0.6,0.2
			c0.2,0.2,0.3,0.5,0.4,0.7c0.7-0.9,1.7-2.5,1.7-3.9c0-1.1-1.3-2.5-2.4-3.7c-0.9-1-1.6-1.7-1.6-2.3c0-0.3,0.2-0.5,0.5-0.5
			c0.3,0,0.5,0.2,0.5,0.5c0,0.3,0.8,1.1,1.3,1.6c1.2,1.3,2.7,2.8,2.7,4.4c0,2.4-2.5,5.2-2.6,5.3c-0.2,0.2-0.4,0.2-0.6,0.1
			c-0.1-0.1-0.2-0.2-0.3-0.3c-0.5,1.3-1.4,2.7-1.6,3.1c-0.1,0.2-0.4,0.3-0.6,0.2s-0.4-0.3-0.3-0.5c0-0.2,0-0.4,0-0.7
			c-0.9,1.4-2.5,2.5-2.7,2.6C-472.3,757.5-472.4,757.5-472.5,757.5z"/>
	</g>
	<g>
		<path d="M-475,760c-1.8,0-2.3-1.1-3.3-3.6c-0.2-0.5-0.4-1-0.7-1.7c-1.2-2.8,0.1-3.8,0.9-4.5c0.4-0.3,0.6-0.5,0.6-0.7
			c0-2.9-0.6-3.5-1.5-3.5c-0.3,0-0.5-0.2-0.5-0.5s0.2-0.5,0.5-0.5c2.5,0,2.5,3,2.5,4.5c0,0.7-0.5,1.1-0.9,1.4
			c-0.8,0.6-1.5,1.2-0.6,3.4c0.3,0.6,0.5,1.2,0.7,1.7c1,2.5,1.3,3,2.4,3s1.4-0.5,2.4-3c0.2-0.5,0.4-1,0.7-1.7
			c0.9-2.1,0.2-2.7-0.6-3.4c-0.4-0.4-0.9-0.8-0.9-1.4c0-1.5,0-4.5,2.5-4.5c0.3,0,0.5,0.2,0.5,0.5s-0.2,0.5-0.5,0.5
			c-0.9,0-1.5,0.6-1.5,3.5c0,0.2,0.2,0.4,0.6,0.7c0.8,0.7,2.1,1.7,0.9,4.5c-0.3,0.6-0.5,1.2-0.7,1.7C-472.7,758.9-473.2,760-475,760
			z"/>
	</g>
	<g>
		<path d="M-471,748c-0.8,0-1.5-0.7-1.5-1.5s0.7-1.5,1.5-1.5s1.5,0.7,1.5,1.5S-470.2,748-471,748z M-471,746c-0.3,0-0.5,0.2-0.5,0.5
			s0.2,0.5,0.5,0.5s0.5-0.2,0.5-0.5S-470.7,746-471,746z"/>
	</g>
	<g>
		<path d="M-472,741.5c-0.1,0-0.2,0-0.3-0.1c0,0-0.4-0.4-1.2-0.4c-0.7,0-1.1,0.4-1.2,0.4c-0.2,0.2-0.5,0.2-0.7,0
			c0,0-0.4-0.4-1.2-0.4s-1.1,0.4-1.2,0.4c-0.2,0.2-0.5,0.2-0.7,0c-0.2-0.2-0.2-0.5,0-0.7c0.1-0.1,0.7-0.6,1.8-0.6
			c0.7,0,1.2,0.2,1.5,0.4c0.3-0.2,0.8-0.4,1.5-0.4c1.1,0,1.8,0.6,1.8,0.6c0.2,0.2,0.2,0.5,0,0.7C-471.7,741.4-471.9,741.5-472,741.5
			z"/>
	</g>
	<g>
		<path d="M-475,755c-0.1,0-0.3-0.1-0.4-0.2c-1.1-1.3-1.1-1.7-1.1-1.8c0-0.7,0.5-1,1.5-1s1.5,0.3,1.5,1c0,0.1,0,0.5-1.1,1.8
			C-474.7,754.9-474.9,755-475,755z M-475.5,753c0.1,0.1,0.3,0.4,0.5,0.7c0.2-0.3,0.4-0.5,0.5-0.7c-0.1,0-0.2,0-0.5,0
			S-475.4,753-475.5,753z"/>
	</g>
	<g>
		<path d="M-476,757.5c-0.2,0-0.4-0.1-0.4-0.3c-0.1-0.2,0-0.5,0.2-0.7l0.7-0.4v-1.7c0-0.3,0.2-0.5,0.5-0.5s0.5,0.2,0.5,0.5v2
			c0,0.2-0.1,0.4-0.3,0.4l-1,0.5C-475.8,757.5-475.9,757.5-476,757.5z"/>
	</g>
	<g>
		<path d="M-474,757.5c-0.1,0-0.2,0-0.2-0.1l-1-0.5c-0.2-0.1-0.3-0.4-0.2-0.7c0.1-0.2,0.4-0.3,0.7-0.2l1,0.5
			c0.2,0.1,0.3,0.4,0.2,0.7C-473.6,757.4-473.8,757.5-474,757.5z"/>
	</g>
</g>
</svg>
