<?xml version="1.0" encoding="utf-8"?>
<!-- Generator: Adobe Illustrator 19.0.1, SVG Export Plug-In . SVG Version: 6.00 Build 0)  -->
<svg version="1.1" id="Слой_1" xmlns="http://www.w3.org/2000/svg" xmlns:xlink="http://www.w3.org/1999/xlink" x="0px" y="0px"
	 viewBox="-487 736 24 30" style="enable-background:new -487 736 24 30;" xml:space="preserve">
<g>
	<g>
		<path d="M-475.5,749c-4.7,0-6-2.5-6-4c0-0.9,0.4-2,0.6-2.8c0.2-0.5,0.4-1,0.4-1.2v-0.2c0-0.4,0-1-0.2-1.3c0,0-0.1-0.1-0.3-0.1
			c-0.3,0-1.1,1.4-1.5,3.1c0,0.2-0.2,0.3-0.4,0.4c-0.2,0.1-0.6,0-0.9-0.2c-0.5-0.4-0.7-1.1-0.7-2.3c0-2.6,2.9-4.5,4.5-4.5
			c2.1,0,3.5,0.4,3.5,2.5c0,0.9-0.5,1.7-0.9,2.3c-0.3,0.4-0.6,0.9-0.6,1.2c0,1,0.1,1,0.5,1c0.2,0,0.7-0.3,1.1-0.6
			c0.9-0.6,2-1.4,3.4-1.4c4.8,0,7.4,7,7.5,7.3c0.1,0.2,0,0.4-0.2,0.6s-0.4,0.1-0.6,0c0,0-1.1-0.9-3.2-0.9c-0.9,0-1.3,0.2-1.8,0.4
			C-472.1,748.6-473,749-475.5,749z M-481,738.5c0.4,0,0.8,0.1,1,0.4c0.5,0.5,0.5,1.3,0.5,2v0.2c0,0.4-0.2,0.9-0.4,1.6
			c-0.3,0.8-0.6,1.7-0.6,2.4c0,1.4,1.3,3,5,3c2.3,0,3.1-0.3,3.8-0.6c0.6-0.2,1.1-0.4,2.2-0.4c1,0,1.9,0.2,2.5,0.4
			c-0.9-1.9-3-5.4-6-5.4c-1,0-2,0.7-2.8,1.2c-0.7,0.4-1.2,0.8-1.7,0.8c-1.5,0-1.5-1.2-1.5-2c0-0.6,0.4-1.2,0.7-1.7
			c0.4-0.5,0.8-1.1,0.8-1.8c0-0.9-0.2-1.5-2.5-1.5c-1.2,0-3.5,1.5-3.5,3.5c0,0.7,0.1,1.1,0.2,1.3
			C-482.9,740.5-482.1,738.5-481,738.5z"/>
	</g>
	<g>
		<path d="M-477.5,748.5c-0.1,0-0.2,0-0.3-0.1c-0.1-0.1-0.7-0.6-0.7-1.9c0-1.4,1.4-3,4.5-3c3,0,5.2,1.5,5.3,1.6
			c0.1,0.1,0.2,0.3,0.2,0.4c0,0.3-0.1,2.5-1.5,2.5c-0.3,0-0.5-0.2-0.5-0.5s0.2-0.5,0.5-0.5c0.2,0,0.4-0.6,0.5-1.2
			c-0.6-0.4-2.3-1.3-4.5-1.3c-2.4,0-3.5,1-3.5,2c0,0.8,0.3,1.1,0.3,1.1c0.2,0.2,0.2,0.5,0,0.7C-477.2,748.4-477.4,748.5-477.5,748.5
			z"/>
	</g>
	<g>
		<path d="M-476,751c-0.4,0-0.8-0.2-1-0.5c-0.6-0.7-0.5-2-0.5-2.1c0-0.3,0.3-0.5,0.6-0.4c0.3,0,0.5,0.3,0.4,0.6c0,0.3,0,1,0.2,1.3
			c0,0.1,0.1,0.1,0.3,0.1c0.2,0,0.2-0.1,0.3-0.1c0.3-0.3,0.3-1,0.2-1.3c0-0.3,0.2-0.5,0.4-0.6c0.3,0,0.5,0.2,0.6,0.4
			c0,0.1,0.2,1.4-0.5,2.1C-475.2,750.8-475.6,751-476,751z"/>
	</g>
	<g>
		<path d="M-477,760c-0.2,0-0.4-0.1-0.4-0.3c-0.1-0.2,0-0.5,0.2-0.7l0.8-0.4l1.8-4.1l-1.9-3.8c-0.1-0.2,0-0.5,0.2-0.7
			c0.2-0.1,0.5,0,0.7,0.2l2,4c0.1,0.1,0.1,0.3,0,0.4l-2,4.5c0,0.1-0.1,0.2-0.2,0.2l-1,0.5C-476.8,760-476.9,760-477,760z"/>
	</g>
	<g>
		<path d="M-475,760c-0.1,0-0.2,0-0.2-0.1l-1-0.5c-0.2-0.1-0.3-0.4-0.2-0.7c0.1-0.2,0.4-0.3,0.7-0.2l1,0.5c0.2,0.1,0.3,0.4,0.2,0.7
			C-474.6,759.9-474.8,760-475,760z"/>
	</g>
	<g>
		<path d="M-474,750.5c-1,0-1.4-0.9-1.5-1.4c-0.1-0.3,0.1-0.5,0.4-0.6c0.3-0.1,0.5,0.1,0.6,0.4c0,0,0.1,0.6,0.5,0.6
			c0.2,0,0.5-0.6,0.5-1.1c0-0.3,0.3-0.5,0.6-0.4c0.3,0,0.5,0.3,0.4,0.6C-472.5,748.8-472.8,750.5-474,750.5z"/>
	</g>
	<g>
		<path d="M-479,758.5c-0.1,0-0.2,0-0.2-0.1l-1-0.5c-0.1-0.1-0.2-0.2-0.3-0.4s0-0.3,0.1-0.4l1-1c0.1,0,0.1-0.1,0.2-0.1l7.3-2.7
			l-2.5-3c-0.2-0.2-0.2-0.5,0.1-0.7c0.2-0.2,0.5-0.2,0.7,0.1l3,3.5c0.1,0.1,0.1,0.3,0.1,0.5c0,0.2-0.2,0.3-0.3,0.3l-7.9,3l-0.4,0.4
			l0.4,0.2c0.2,0.1,0.3,0.4,0.2,0.7C-478.6,758.4-478.8,758.5-479,758.5z"/>
	</g>
</g>
</svg>
