<?xml version="1.0" encoding="utf-8"?>
<!-- Generator: Adobe Illustrator 19.0.1, SVG Export Plug-In . SVG Version: 6.00 Build 0)  -->
<svg version="1.1" id="Слой_1" xmlns="http://www.w3.org/2000/svg" xmlns:xlink="http://www.w3.org/1999/xlink" x="0px" y="0px"
	 viewBox="-487 736 24 30" style="enable-background:new -487 736 24 30;" xml:space="preserve">
<g>
	<g>
		<path d="M-483.3,743c-0.6,0-1.3-0.4-1.9-1c-1.1-1.3-1.6-3.4-1-4.8c0.3-0.7,0.7-1.1,1.3-1.2c0.7-0.1,1.5,0.3,2.2,1
			c1.1,1.3,1.6,3.4,1,4.8c-0.3,0.7-0.7,1.1-1.3,1.2C-483.2,743-483.3,743-483.3,743z M-484.7,737c0,0-0.1,0-0.1,0
			c-0.3,0.1-0.5,0.3-0.6,0.6c-0.4,1,0,2.7,0.9,3.7c0.4,0.5,0.9,0.7,1.2,0.7c0.3-0.1,0.5-0.3,0.6-0.6c0.4-1,0-2.7-0.9-3.7
			C-483.9,737.2-484.3,737-484.7,737z"/>
	</g>
	<g>
		<path d="M-480,741c-0.1,0-0.3,0-0.4-0.1l-3-3c-0.2-0.2-0.2-0.5,0-0.7c0.2-0.2,0.5-0.2,0.7,0l2.7,2.7c1.3-1.1,3.1-1.8,4.5-1.8
			c0.3,0,0.5,0.2,0.5,0.5s-0.2,0.5-0.5,0.5c-1.3,0-3.1,0.8-4.1,1.9C-479.7,741-479.9,741-480,741z"/>
	</g>
	<g>
		<path d="M-480,747c-0.8,0-1.5-0.7-1.5-1.5s0.7-1.5,1.5-1.5s1.5,0.7,1.5,1.5S-479.2,747-480,747z M-480,745c-0.3,0-0.5,0.2-0.5,0.5
			s0.2,0.5,0.5,0.5s0.5-0.2,0.5-0.5S-479.7,745-480,745z"/>
	</g>
	<g>
		<circle cx="-479.5" cy="755" r="1"/>
	</g>
	<g>
		<path d="M-466.7,743c-0.1,0-0.2,0-0.3,0c-0.6-0.1-1.1-0.5-1.3-1.2c-0.5-1.4-0.1-3.4,1-4.8c0.7-0.8,1.4-1.1,2.2-1
			c0.6,0.1,1.1,0.5,1.3,1.2c0.5,1.4,0.1,3.4-1,4.8C-465.3,742.6-466,743-466.7,743z M-465.3,737c-0.3,0-0.8,0.3-1.1,0.7
			c-0.9,1-1.3,2.7-0.9,3.7c0.1,0.2,0.3,0.5,0.6,0.6c0.4,0.1,0.8-0.2,1.2-0.7c0.9-1,1.3-2.7,0.9-3.7c-0.1-0.2-0.3-0.5-0.6-0.6
			C-465.3,737-465.3,737-465.3,737z"/>
	</g>
	<g>
		<path d="M-470,741c-0.1,0-0.3,0-0.4-0.1c-1.1-1.1-2.8-1.9-4.1-1.9c-0.3,0-0.5-0.2-0.5-0.5s0.2-0.5,0.5-0.5c1.4,0,3.2,0.7,4.5,1.8
			l2.7-2.7c0.2-0.2,0.5-0.2,0.7,0c0.2,0.2,0.2,0.5,0,0.7l-3,3C-469.7,741-469.9,741-470,741z"/>
	</g>
	<g>
		<path d="M-471.1,760h-7.9c-0.8,0-1.6-0.4-2.1-1.1l-2.8-4.1c-0.5-0.7-0.6-1.7-0.2-2.5l1.4-2.7l-1.4-2.7c-0.4-0.8-0.3-1.8,0.2-2.5
			l0.8-1.3h-0.1c-0.3,0-0.5-0.2-0.5-0.5s0.2-0.5,0.5-0.5h1c0.2,0,0.4,0.1,0.4,0.3c0.1,0.2,0.1,0.4,0,0.5l-1.4,2
			c-0.3,0.4-0.3,1-0.1,1.5l1.5,3c0.1,0.1,0.1,0.3,0,0.4l-1.5,3c-0.2,0.5-0.2,1.1,0.1,1.5l2.8,4.1c0.3,0.4,0.7,0.7,1.2,0.7h7.9
			c0.5,0,1-0.3,1.2-0.7l2.8-4.1c0.3-0.4,0.3-1,0.1-1.5l-1.5-3c-0.1-0.1-0.1-0.3,0-0.4l1.5-3c0.2-0.5,0.2-1.1-0.1-1.5l-1.4-2
			c-0.1-0.2-0.1-0.4,0-0.5c0.1-0.2,0.3-0.3,0.4-0.3h1c0.3,0,0.5,0.2,0.5,0.5s-0.2,0.5-0.5,0.5h-0.1l0.8,1.3c0.5,0.7,0.6,1.7,0.2,2.5
			l-1.4,2.7l1.4,2.7c0.4,0.8,0.3,1.8-0.2,2.5l-2.8,4.1C-469.5,759.6-470.2,760-471.1,760z"/>
	</g>
	<g>
		<path d="M-470,747c-0.8,0-1.5-0.7-1.5-1.5s0.7-1.5,1.5-1.5s1.5,0.7,1.5,1.5S-469.2,747-470,747z M-470,745c-0.3,0-0.5,0.2-0.5,0.5
			s0.2,0.5,0.5,0.5s0.5-0.2,0.5-0.5S-469.7,745-470,745z"/>
	</g>
	<g>
		<path d="M-470.5,756c-0.6,0-1-0.4-1-1s0.4-1,1-1s1,0.4,1,1S-469.9,756-470.5,756z M-470.5,755h-0.5H-470.5L-470.5,755z"/>
	</g>
	<g>
		<path d="M-472,753c-0.1,0-0.3,0-0.4-0.1c-1-1-2.1-7-2.6-11.4c-0.6,4.5-1.6,10.4-2.6,11.4c-0.2,0.2-0.5,0.2-0.7,0
			c-0.2-0.2-0.2-0.5,0-0.7c1.1-1.1,2.9-13.3,2.9-15.6c0-0.3,0.2-0.5,0.5-0.5s0.5,0.2,0.5,0.5c0,2.3,1.7,14.5,2.9,15.6
			c0.2,0.2,0.2,0.5,0,0.7C-471.7,753-471.9,753-472,753z"/>
	</g>
</g>
</svg>
