<?xml version="1.0" encoding="utf-8"?>
<!-- Generator: Adobe Illustrator 19.0.1, SVG Export Plug-In . SVG Version: 6.00 Build 0)  -->
<svg version="1.1" id="Слой_1" xmlns="http://www.w3.org/2000/svg" xmlns:xlink="http://www.w3.org/1999/xlink" x="0px" y="0px"
	 viewBox="-487 736 24 30" style="enable-background:new -487 736 24 30;" xml:space="preserve">
<g>
	<g>
		<path d="M-477.5,756c-0.2,0-0.4-0.1-0.5-0.3c-0.1-0.3-0.3-0.7-0.5-0.7c-0.3,0-0.5-0.2-0.5-0.5s0.2-0.5,0.5-0.5
			c1,0,1.4,1.2,1.5,1.3c0.1,0.3-0.1,0.5-0.3,0.6C-477.4,756-477.4,756-477.5,756z"/>
	</g>
	<g>
		<path d="M-476.5,751.5c-0.3,0-0.5-0.2-0.5-0.5c0-0.5,0.3-1.1,0.6-1.7c0.1-0.3,0.4-0.7,0.4-0.8c0-0.5,0-2-0.8-2.6
			c-0.6-0.5-0.9-1-1-1.4l-0.1-0.2c-0.5-1.1-0.6-1.2-1.5-1.2c-0.3,0-0.5-0.2-0.5-0.5s0.2-0.5,0.5-0.5c1.6,0,1.9,0.7,2.4,1.8
			c0.1,0.1,0.1,0.2,0.1,0.3c0.2,0.4,0.3,0.7,0.7,1c1.2,0.9,1.2,2.7,1.2,3.3c0,0.4-0.2,0.8-0.5,1.4c-0.2,0.4-0.5,1-0.5,1.2
			C-476,751.3-476.2,751.5-476.5,751.5z"/>
	</g>
	<g>
		<path d="M-480,743c-4.8,0-5.6-4.4-5.9-6.1l-0.1-0.3c0-0.3,0.1-0.5,0.3-0.6c0.2-0.1,0.5,0,0.6,0.3c1.2,2.8,5.3,3.7,6.5,3.7
			c0.3,0,0.5,0.2,0.5,0.5s-0.2,0.5-0.5,0.5c-0.9,0-3.9-0.4-6-2.2c0.6,1.6,1.7,3.2,4.5,3.2c0.3,0,0.5,0.2,0.5,0.5S-479.7,743-480,743
			z"/>
	</g>
	<g>
		<path d="M-481.5,747c-2.4,0-5.2-2-5.3-2.1c-0.2-0.2-0.3-0.4-0.1-0.7c1.5-2.4,4.1-2.3,5.8-2.2c0.2,0,0.5,0,0.7,0
			c0.3,0,0.5,0.2,0.5,0.5s-0.2,0.5-0.5,0.5c-0.2,0-0.5,0-0.7,0c-1.5-0.1-3.4-0.1-4.6,1.4c0.8,0.5,2.7,1.6,4.3,1.6
			c0.3,0,0.5,0.2,0.5,0.5S-481.2,747-481.5,747z"/>
	</g>
	<g>
		<path d="M-470,754c-0.2,0-0.4-0.2-0.5-0.4l-0.5-2c0,0,0-0.1,0-0.1c0-1.2,0.6-1.9,1.2-2.6c0.4-0.5,0.8-0.9,0.8-1.4
			c0-0.6-0.2-1-0.5-1.4c-0.3-0.4-0.5-0.9-0.5-1.6c0-2.2-2.6-4.5-4.5-4.5h-1c-1.9,0-4.5,2.3-4.5,4.5c0,0.7-0.3,1.2-0.5,1.6
			c-0.2,0.4-0.5,0.8-0.5,1.4c0,0.5,0.4,0.9,0.8,1.4c0.6,0.7,1.2,1.4,1.2,2.6c0,0,0,0.1,0,0.1l-0.5,2c-0.1,0.3-0.3,0.4-0.6,0.4
			c-0.3-0.1-0.4-0.3-0.4-0.6l0.5-1.9c0-0.8-0.5-1.3-1-1.9c-0.5-0.6-1-1.2-1-2.1c0-0.9,0.3-1.5,0.6-1.9c0.2-0.4,0.4-0.7,0.4-1.1
			c0-2.8,3.1-5.5,5.5-5.5h1c2.4,0,5.5,2.7,5.5,5.5c0,0.4,0.2,0.7,0.4,1.1c0.3,0.4,0.6,1,0.6,1.9c0,0.9-0.5,1.5-1,2.1
			c-0.5,0.6-0.9,1.1-1,1.9l0.5,1.9c0.1,0.3-0.1,0.5-0.4,0.6C-469.9,754-470,754-470,754z"/>
	</g>
	<g>
		<path d="M-472.5,758c-0.7,0-1.1-0.3-1.5-0.6c-0.3-0.2-0.6-0.4-1-0.4s-0.7,0.2-1,0.4c-0.4,0.3-0.8,0.6-1.5,0.6
			c-3,0-3.5-1.6-3.5-2.5c0-2.5,1.4-2.9,2.4-3.1c0.3-0.1,0.6-0.1,0.7-0.3c0.2-0.2,0.3-0.4,0.5-0.7c0.4-0.7,0.9-1.5,2.4-1.5
			s2,0.8,2.4,1.5c0.1,0.2,0.3,0.5,0.5,0.7c0.1,0.1,0.4,0.2,0.7,0.3c1,0.2,2.4,0.6,2.4,3.1C-469,756.4-469.5,758-472.5,758z
			 M-475,756c0.8,0,1.2,0.3,1.6,0.6c0.3,0.2,0.5,0.4,0.9,0.4c1.7,0,2.5-0.5,2.5-1.5c0-1.7-0.7-1.9-1.6-2.1c-0.4-0.1-0.9-0.2-1.2-0.5
			c-0.3-0.3-0.4-0.6-0.6-0.9c-0.3-0.6-0.6-1-1.5-1s-1.2,0.4-1.5,1c-0.2,0.3-0.3,0.6-0.6,0.9c-0.3,0.3-0.8,0.4-1.2,0.5
			c-0.9,0.2-1.6,0.4-1.6,2.1c0,1,0.8,1.5,2.5,1.5c0.4,0,0.6-0.2,0.9-0.4C-476.2,756.3-475.8,756-475,756z"/>
	</g>
	<g>
		<path d="M-475,760c-1.9,0-2.7-0.9-3.4-1.7c-0.1-0.2-0.3-0.3-0.4-0.5c-0.2-0.2-0.2-0.5,0-0.7c0.2-0.2,0.5-0.2,0.7,0
			c0.2,0.2,0.3,0.3,0.5,0.5c0.7,0.8,1.2,1.3,2.7,1.3s2-0.6,2.7-1.3c0.2-0.2,0.3-0.3,0.5-0.5c0.2-0.2,0.5-0.2,0.7,0s0.2,0.5,0,0.7
			c-0.2,0.2-0.3,0.3-0.4,0.5C-472.3,759.1-473.1,760-475,760z"/>
	</g>
	<g>
		<path d="M-472.5,756c-0.1,0-0.1,0-0.2,0c-0.3-0.1-0.4-0.4-0.3-0.6c0-0.1,0.5-1.3,1.5-1.3c0.3,0,0.5,0.2,0.5,0.5s-0.2,0.5-0.5,0.5
			c-0.2,0-0.4,0.4-0.5,0.7C-472.1,755.9-472.3,756-472.5,756z"/>
	</g>
	<g>
		<path d="M-470,743c-0.3,0-0.5-0.2-0.5-0.5s0.2-0.5,0.5-0.5c2.7,0,3.9-1.7,4.5-3.2c-2,1.8-5.1,2.2-6,2.2c-0.3,0-0.5-0.2-0.5-0.5
			s0.2-0.5,0.5-0.5c1.3,0,5.4-0.9,6.5-3.7c0.1-0.2,0.4-0.4,0.6-0.3c0.2,0.1,0.4,0.3,0.3,0.6l-0.1,0.3
			C-464.4,738.6-465.2,743-470,743z"/>
	</g>
	<g>
		<path d="M-468.5,747c-0.3,0-0.5-0.2-0.5-0.5s0.2-0.5,0.5-0.5c1.6,0,3.5-1.1,4.3-1.6c-1.2-1.5-3.1-1.4-4.6-1.4c-0.2,0-0.5,0-0.7,0
			c-0.3,0-0.5-0.2-0.5-0.5s0.2-0.5,0.5-0.5c0.2,0,0.4,0,0.7,0c1.7-0.1,4.2-0.1,5.8,2.2c0.1,0.2,0.1,0.5-0.1,0.7
			C-463.3,745-466.1,747-468.5,747z"/>
	</g>
	<g>
		<path d="M-478.5,749c-0.8,0-1.5-0.7-1.5-1.5s0.7-1.5,1.5-1.5s1.5,0.7,1.5,1.5S-477.7,749-478.5,749z M-478.5,747
			c-0.3,0-0.5,0.2-0.5,0.5s0.2,0.5,0.5,0.5s0.5-0.2,0.5-0.5S-478.2,747-478.5,747z"/>
	</g>
	<g>
		<path d="M-471.5,749c-0.8,0-1.5-0.7-1.5-1.5s0.7-1.5,1.5-1.5s1.5,0.7,1.5,1.5S-470.7,749-471.5,749z M-471.5,747
			c-0.3,0-0.5,0.2-0.5,0.5s0.2,0.5,0.5,0.5s0.5-0.2,0.5-0.5S-471.2,747-471.5,747z"/>
	</g>
</g>
</svg>
