<?xml version="1.0" encoding="utf-8"?>
<!-- Generator: Adobe Illustrator 19.0.1, SVG Export Plug-In . SVG Version: 6.00 Build 0)  -->
<svg version="1.1" id="Слой_1" xmlns="http://www.w3.org/2000/svg" xmlns:xlink="http://www.w3.org/1999/xlink" x="0px" y="0px"
	 viewBox="-487 736 24 30" style="enable-background:new -487 736 24 30;" xml:space="preserve">
<g>
	<g>
		<path d="M-483.5,743.9c-1.6,0-3.5-0.8-3.5-3c0-2.2,3.1-5,5-5c1.9,0,3,1.8,3,3.5c0,0.3-0.2,0.5-0.5,0.5s-0.5-0.2-0.5-0.5
			c0-1.2-0.8-2.5-2-2.5c-1.2,0-4,2.3-4,4c0,1.9,1.9,2,2.5,2c0.3,0,0.5,0.2,0.5,0.5S-483.2,743.9-483.5,743.9z"/>
	</g>
	<g>
		<path d="M-479.5,738.9c-0.1,0-0.3,0-0.4-0.1c-0.2-0.2-0.2-0.5,0-0.7c0.9-0.9,3.2-1.1,4.9-1.1c0.3,0,0.5,0.2,0.5,0.5
			s-0.2,0.5-0.5,0.5c-2.1,0-3.6,0.3-4.1,0.9C-479.2,738.9-479.4,738.9-479.5,738.9z"/>
	</g>
	<g>
		<path d="M-475,760.1c-11.9,0-12-8.8-12-9.1c0-1.4,0.5-2.7,1-3.6c0.1-1.1,1-4,1-4c0.1-0.3,0.4-0.4,0.6-0.3c0.3,0.1,0.4,0.4,0.3,0.6
			c-0.4,1.2-1,3.3-1,3.8c0,0.1,0,0.2-0.1,0.2c-0.4,0.9-0.9,2-0.9,3.3c0,0.3,0.1,8.1,11,8.1c0.3,0,0.5,0.2,0.5,0.5
			S-474.7,760.1-475,760.1z"/>
	</g>
	<g>
		<path d="M-481.8,751.3c-0.1,0-0.2,0-0.3,0c-0.4-0.1-0.7-0.3-0.9-0.6c-0.4-0.9,0.3-2.2,1-3.5c0.2-0.4,0.4-0.7,0.5-1
			c0.7-1.5,1.7-2.3,2.9-2.3c0,0,0,0,0.1,0c1.7,0,2.5,0.8,2.5,2.5c0,1-0.5,1.4-1,1.8c-0.3,0.2-0.7,0.5-1.1,1
			C-479.1,750.3-480.7,751.3-481.8,751.3z M-478.6,744.9c-0.8,0-1.5,0.6-2,1.7c-0.1,0.3-0.3,0.7-0.5,1c-0.4,0.8-1.2,2.1-1,2.5
			c0,0,0.1,0,0.2,0c0.7,0,2.1-0.7,2.9-1.7c0.5-0.5,0.9-0.8,1.2-1.1c0.5-0.4,0.7-0.5,0.7-1.1C-477,745.4-477.2,744.9-478.6,744.9
			C-478.5,744.9-478.5,744.9-478.6,744.9z"/>
	</g>
	<g>
		<path d="M-466.5,743.9c-0.3,0-0.5-0.2-0.5-0.5s0.2-0.5,0.5-0.5c0.6,0,2.5-0.1,2.5-2c0-1.7-2.8-4-4-4c-1.2,0-2,1.3-2,2.5
			c0,0.3-0.2,0.5-0.5,0.5s-0.5-0.2-0.5-0.5c0-1.7,1.1-3.5,3-3.5c1.9,0,5,2.8,5,5C-463,743.2-464.9,743.9-466.5,743.9z"/>
	</g>
	<g>
		<path d="M-470.5,738.9c-0.1,0-0.3,0-0.4-0.1c-0.5-0.5-2.1-0.9-4.1-0.9c-0.3,0-0.5-0.2-0.5-0.5s0.2-0.5,0.5-0.5
			c1.7,0,3.9,0.2,4.9,1.1c0.2,0.2,0.2,0.5,0,0.7C-470.2,738.9-470.4,738.9-470.5,738.9z"/>
	</g>
	<g>
		<path d="M-475,760.1c-0.3,0-0.5-0.2-0.5-0.5s0.2-0.5,0.5-0.5c10.9,0,11-7.8,11-8.1c0-1.2-0.5-2.4-0.9-3.3c0-0.1-0.1-0.1-0.1-0.2
			c0-0.5-0.6-2.6-1-3.8c-0.1-0.3,0.1-0.5,0.3-0.6c0.3-0.1,0.5,0.1,0.6,0.3c0,0,0.9,3,1,4c0.5,1,1,2.2,1,3.6
			C-463,751.3-463.1,760.1-475,760.1z"/>
	</g>
	<g>
		<path d="M-468.2,751.3c-1.1,0-2.8-1-3.7-2c-0.4-0.5-0.8-0.8-1.1-1c-0.6-0.5-1-0.8-1-1.8c0-1.7,0.8-2.5,2.5-2.5c0,0,0,0,0.1,0
			c1.2,0,2.2,0.8,2.9,2.3c0.1,0.3,0.3,0.6,0.5,1c0.7,1.3,1.4,2.6,1,3.5c-0.1,0.3-0.5,0.5-0.9,0.6
			C-468,751.3-468.1,751.3-468.2,751.3z M-471.4,744.9C-471.5,744.9-471.5,744.9-471.4,744.9c-1.3,0-1.6,0.5-1.6,1.5
			c0,0.5,0.1,0.6,0.7,1.1c0.3,0.3,0.7,0.6,1.2,1.1c0.9,1,2.2,1.6,2.9,1.7c0.2,0,0.2,0,0.2,0c0.2-0.4-0.5-1.8-1-2.6
			c-0.2-0.4-0.4-0.7-0.5-1C-470,745.5-470.6,744.9-471.4,744.9z"/>
	</g>
	<g>
		<path d="M-475,754.9c-1.8,0-2.8-1.5-3-2.4c0-0.2,0-0.3,0.1-0.4c0.1-0.1,0.2-0.2,0.4-0.2h5c0.2,0,0.3,0.1,0.4,0.2
			c0.1,0.1,0.1,0.3,0.1,0.4C-472.2,753.4-473.2,754.9-475,754.9z M-476.7,752.9c0.3,0.5,0.8,1,1.7,1c0.9,0,1.4-0.5,1.7-1H-476.7z"/>
	</g>
</g>
</svg>
