<?xml version="1.0" encoding="utf-8"?>
<!-- Generator: Adobe Illustrator 19.0.1, SVG Export Plug-In . SVG Version: 6.00 Build 0)  -->
<svg version="1.1" id="Слой_1" xmlns="http://www.w3.org/2000/svg" xmlns:xlink="http://www.w3.org/1999/xlink" x="0px" y="0px"
	 viewBox="-487 736 24 30" style="enable-background:new -487 736 24 30;" xml:space="preserve">
<g>
	<g>
		<path d="M-477,758c-1.9,0-4.5-1.4-4.5-4.5c0-2.9,2.9-8,3.1-8.3c0.1-0.2,0.4-0.3,0.7-0.2c0.2,0.1,0.3,0.4,0.2,0.7
			c0,0-2.9,5.1-2.9,7.7c0,2.6,2.4,3.5,3.5,3.5c1.1,0,1.5-1.9,1.5-2.5v-1.7c-1-0.7-2-1.6-2-2.3c0-0.3,0.2-0.5,0.5-0.5
			c0.3,0,0.5,0.2,0.5,0.5c0.1,0.3,0.9,1,1.8,1.6c0.1,0.1,0.2,0.2,0.2,0.4v2C-474.5,755.6-475.1,758-477,758z"/>
	</g>
	<g>
		<path d="M-480.5,751.5c-0.2,0-0.4-0.1-0.5-0.4c-0.2-0.5-1.5-5.4-1.5-6.6c0-1.6,2.3-2.5,4.5-2.5c0.3,0,0.5,0.2,0.5,0.5
			s-0.2,0.5-0.5,0.5c-1.8,0-3.5,0.7-3.5,1.5c0,0.9,1.1,4.9,1.5,6.4c0.1,0.3-0.1,0.5-0.3,0.6C-480.4,751.5-480.5,751.5-480.5,751.5z"
			/>
	</g>
	<g>
		<path d="M-476.5,747c-0.1,0-0.2,0-0.2-0.1c-0.2-0.1-0.3-0.4-0.2-0.7c0.5-1.1,1.1-2.9,0.6-3.4c-0.2-0.2-0.2-0.5,0-0.7
			c0.2-0.2,0.5-0.2,0.7,0c1.2,1.2-0.1,4-0.4,4.6C-476.1,746.9-476.3,747-476.5,747z"/>
	</g>
	<g>
		<path d="M-480,742c-1.6,0-3.5-2-3.5-3c0-2.5,1.1-3,2-3c1.8,0,3,2.6,3,3.5c0,0.3-0.2,0.5-0.5,0.5s-0.5-0.2-0.5-0.5
			c0-0.6-0.9-2.5-2-2.5c-0.2,0-1,0-1,2c0,0.4,1.4,2,2.5,2c0.3,0,0.5,0.2,0.5,0.5S-479.7,742-480,742z"/>
	</g>
	<g>
		<path d="M-475,760c-1.6,0-2.5-0.9-2.5-2.5c0-0.3,0.2-0.5,0.5-0.5s0.5,0.2,0.5,0.5c0,1,0.5,1.5,1.5,1.5s1.5-0.5,1.5-1.5
			c0-0.3,0.2-0.5,0.5-0.5s0.5,0.2,0.5,0.5C-472.5,759.1-473.4,760-475,760z"/>
	</g>
	<g>
		<path d="M-473,758c-1.9,0-2.5-2.4-2.5-3.5v-2c0-0.2,0.1-0.3,0.2-0.4c0.9-0.6,1.7-1.4,1.8-1.6c0-0.3,0.2-0.5,0.5-0.5
			c0.3,0,0.5,0.2,0.5,0.5c0,0.7-1,1.6-2,2.3v1.7c0,0.6,0.4,2.5,1.5,2.5c1.1,0,3.5-0.9,3.5-3.5c0-2.7-2.9-7.7-2.9-7.7
			c-0.1-0.2-0.1-0.5,0.2-0.7c0.2-0.1,0.5-0.1,0.7,0.2c0.1,0.2,3.1,5.3,3.1,8.3C-468.5,756.6-471.1,758-473,758z"/>
	</g>
	<g>
		<path d="M-469.5,751.5c0,0-0.1,0-0.1,0c-0.3-0.1-0.4-0.4-0.3-0.6c0.4-1.4,1.5-5.4,1.5-6.4c0-0.8-1.7-1.5-3.5-1.5
			c-0.3,0-0.5-0.2-0.5-0.5s0.2-0.5,0.5-0.5c2.2,0,4.5,0.9,4.5,2.5c0,1.3-1.4,6.1-1.5,6.6C-469.1,751.4-469.3,751.5-469.5,751.5z"/>
	</g>
	<g>
		<path d="M-470,743c-0.3,0-0.5-0.2-0.5-0.5c0-1.6-1.9-4-4.5-4s-4.5,2.4-4.5,4c0,0.3-0.2,0.5-0.5,0.5s-0.5-0.2-0.5-0.5
			c0-2.3,2.5-5,5.5-5s5.5,2.7,5.5,5C-469.5,742.8-469.7,743-470,743z"/>
	</g>
	<g>
		<path d="M-473.5,747c-0.2,0-0.4-0.1-0.4-0.3c-0.3-0.6-1.6-3.4-0.4-4.6c0.2-0.2,0.5-0.2,0.7,0c0.2,0.2,0.2,0.5,0,0.7
			c-0.5,0.5,0.1,2.3,0.6,3.4c0.1,0.2,0,0.5-0.2,0.7C-473.3,747-473.4,747-473.5,747z"/>
	</g>
	<g>
		<path d="M-470,742c-0.3,0-0.5-0.2-0.5-0.5s0.2-0.5,0.5-0.5c1.1,0,2.5-1.6,2.5-2c0-2-0.8-2-1-2c-1.1,0-2,1.9-2,2.5
			c0,0.3-0.2,0.5-0.5,0.5s-0.5-0.2-0.5-0.5c0-0.9,1.2-3.5,3-3.5c0.9,0,2,0.5,2,3C-466.5,740-468.4,742-470,742z"/>
	</g>
	<g>
		<circle cx="-479.5" cy="745" r="1"/>
	</g>
	<g>
		<circle cx="-470.5" cy="745" r="1"/>
	</g>
</g>
</svg>
