<?xml version="1.0" encoding="utf-8"?>
<!-- Generator: Adobe Illustrator 19.0.1, SVG Export Plug-In . SVG Version: 6.00 Build 0)  -->
<svg version="1.1" id="Слой_1" xmlns="http://www.w3.org/2000/svg" xmlns:xlink="http://www.w3.org/1999/xlink" x="0px" y="0px"
	 viewBox="-487 736 24 30" style="enable-background:new -487 736 24 30;" xml:space="preserve">
<g>
	<g>
		<path d="M-475,759.5c-2.4,0-3.5-0.3-4-0.4c-0.4,0.2-1.3,0.4-3,0.4c-2.7,0-5-2.6-5-5.5c0-2.6,2.2-4.6,3.8-6.1
			c0.3-0.3,0.6-0.5,0.8-0.8c1.5-1.5,2.4-2.6,2.4-4.1c0-1.4-0.6-1.5-1.5-1.5c-0.7,0-1,0.8-1,1c0,0.7-0.5,2-1.5,2
			c-0.3,0-0.6-0.1-0.8-0.2c-0.1,0.1-0.4,0.2-0.7,0.2c-0.9,0-1.4-1.4-1.5-1.9c0,0,0-0.1,0-0.1c0-4,2.2-6,6.5-6c2.3,0,4,1.2,4.9,3.3
			c1.1,2.6,0.6,6-1,7.6c-0.5,0.5-1.1,1-1.6,1.5c-1,1-1.8,1.7-2.3,2.5c2-1.8,5.9-4.8,10-4.8c5.6,0,7.1,0.5,7.2,0.5
			c0.2,0.1,0.4,0.3,0.3,0.6c0,0-0.3,1.1-1,2.6l0.7,0.4c0.1,0.1,0.2,0.2,0.3,0.3c0,0.1,0,0.3,0,0.4
			C-467.1,758.9-473.2,759.5-475,759.5z M-478.7,758.1c0,0,0.7,0.4,3.7,0.4c1.6,0,7-0.5,10.8-7.3l-0.3-0.1c-1.4,2.5-3.9,5.4-8,5.4
			c-6.7,0-8.1-0.5-8.2-0.5c-0.3-0.1-0.4-0.4-0.3-0.7c0.1-0.3,0.4-0.4,0.7-0.3c0,0,1.4,0.5,7.8,0.5c5.4,0,7.8-5.9,8.4-7.6
			c-0.8-0.1-2.6-0.4-6.4-0.4c-5.3,0-10.6,5.8-10.6,5.8c-0.1,0.2-0.4,0.2-0.5,0.1c-0.2-0.1-0.3-0.3-0.3-0.5c0-2,1.4-3.3,3.1-4.9
			c0.5-0.4,1-0.9,1.5-1.5c1.3-1.3,1.7-4.3,0.8-6.5c-0.5-1.2-1.6-2.7-4-2.7c-4.9,0-5.5,2.8-5.5,4.9c0.1,0.4,0.3,0.9,0.5,1
			c0-0.2,0.1-0.4,0.3-0.4c0.2-0.1,0.5,0,0.6,0.2c0,0,0.2,0.3,0.6,0.3c0.2,0,0.5-0.6,0.5-1c0-0.7,0.7-2,2-2c0.7,0,2.5,0,2.5,2.5
			c0,2-1.3,3.5-2.6,4.9c-0.2,0.2-0.5,0.5-0.9,0.8c-1.5,1.4-3.5,3.2-3.5,5.3c0,2.7,2.1,4.5,4,4.5c2,0,2.7-0.4,2.7-0.4
			C-479.1,758-478.9,758-478.7,758.1L-478.7,758.1z"/>
	</g>
	<g>
		<path d="M-485,748C-485,748-485,748-485,748c-0.2,0-0.4-0.2-0.5-0.4l-1.5-5c-0.1-0.3,0.1-0.5,0.3-0.6c0.3-0.1,0.5,0.1,0.6,0.3
			l1.1,3.6l1.5-3.7c0.1-0.3,0.4-0.4,0.6-0.3c0.3,0.1,0.4,0.4,0.3,0.7l-2,5C-484.6,747.9-484.8,748-485,748z"/>
	</g>
	<g>
		<circle cx="-485.5" cy="742" r="0.5"/>
	</g>
	<g>
		<path d="M-473.5,754.5c-0.3,0-0.5-0.2-0.5-0.5s0.2-0.5,0.5-0.5c2.4,0,6.4-3.3,8.6-5.4c-3.4,0.6-9.3,2.7-10.2,4.1
			c-0.2,0.2-0.5,0.3-0.7,0.1c-0.2-0.2-0.3-0.5-0.1-0.7c1.4-2.1,9.4-4.7,12.4-4.7c0.2,0,0.4,0.1,0.5,0.3c0.1,0.2,0,0.4-0.1,0.5
			C-463.4,748.1-469.7,754.5-473.5,754.5z"/>
	</g>
</g>
</svg>
