<?xml version="1.0" encoding="utf-8"?>
<!-- Generator: Adobe Illustrator 19.0.1, SVG Export Plug-In . SVG Version: 6.00 Build 0)  -->
<svg version="1.1" id="Слой_1" xmlns="http://www.w3.org/2000/svg" xmlns:xlink="http://www.w3.org/1999/xlink" x="0px" y="0px"
	 viewBox="-487 736 24 30" style="enable-background:new -487 736 24 30;" xml:space="preserve">
<g>
	<g>
		<path d="M-478,758c-0.1,0-0.3-0.1-0.4-0.2c-0.2-0.3-6.1-7.5-6.1-13.3c0-5.8,2.6-8.5,5-8.5c2.5,0,4,1.7,4,4.5
			c0,0.3-0.2,0.5-0.5,0.5s-0.5-0.2-0.5-0.5c0-2.2-1.1-3.5-3-3.5c-1.9,0-4,2.3-4,7.5c0,5.4,5.8,12.6,5.9,12.7
			c0.2,0.2,0.1,0.5-0.1,0.7C-477.8,758-477.9,758-478,758z"/>
	</g>
	<g>
		<path d="M-478.5,744c-0.1,0-0.2,0-0.3-0.1l-2.5-2c-0.1-0.1-0.2-0.3-0.2-0.4c0,0,0.1-1.8-0.8-2.8c-0.4-0.4-1-0.7-1.7-0.7
			c-0.3,0-0.5-0.2-0.5-0.5s0.2-0.5,0.5-0.5c1,0,1.9,0.3,2.5,1c1,1.1,1.1,2.6,1.1,3.3l2.3,1.8c0.2,0.2,0.3,0.5,0.1,0.7
			C-478.2,743.9-478.4,744-478.5,744z"/>
	</g>
	<g>
		<path d="M-484,755c-0.3,0-0.5-0.2-0.5-0.5s0.2-0.5,0.5-0.5c0.7,0,1.3-0.2,1.7-0.7c0.9-1,0.9-3.1,0.8-3.8c0-0.2,0-0.3,0.1-0.4l2-2
			c0.2-0.2,0.5-0.2,0.7,0s0.2,0.5,0,0.7l-1.8,1.8c0,0.7,0.1,3-1.1,4.3C-482.2,754.7-483,755-484,755z"/>
	</g>
	<g>
		<path d="M-480,760c-0.2,0-0.4-0.1-0.5-0.3l-1-3c0-0.1,0-0.3,0.1-0.4l2.5-4c0.1-0.2,0.5-0.3,0.7-0.2c0.2,0.1,0.3,0.5,0.2,0.7
			l-2.4,3.8l0.9,2.8c0.1,0.3-0.1,0.5-0.3,0.6C-479.9,760-479.9,760-480,760z"/>
	</g>
	<g>
		<path d="M-475,744c-1.1,0-1.8-0.3-2.2-0.8c-0.4-0.6-0.3-1.3-0.3-1.3c0,0,0-0.1,0.1-0.1l1-1.5c0.1-0.1,0.2-0.2,0.4-0.2h2
			c0.2,0,0.3,0.1,0.4,0.2l1,1.5c0,0,0,0.1,0.1,0.1c0,0.1,0.2,0.7-0.3,1.3C-473.2,743.7-473.9,744-475,744z M-476.5,742.2
			c0,0.1,0,0.3,0.1,0.4c0.2,0.3,0.7,0.4,1.4,0.4c0.7,0,1.2-0.1,1.4-0.4c0.1-0.1,0.1-0.3,0.1-0.4l-0.8-1.2h-1.5L-476.5,742.2z"/>
	</g>
	<g>
		<path d="M-472,758c-0.1,0-0.2,0-0.3-0.1c-0.2-0.2-0.2-0.5-0.1-0.7c0.1-0.1,5.9-7.2,5.9-12.7c0-5.2-2.1-7.5-4-7.5
			c-1.9,0-3,1.3-3,3.5c0,0.3-0.2,0.5-0.5,0.5s-0.5-0.2-0.5-0.5c0-2.8,1.5-4.5,4-4.5c2.4,0,5,2.7,5,8.5c0,5.8-5.9,13-6.1,13.3
			C-471.7,757.9-471.9,758-472,758z"/>
	</g>
	<g>
		<path d="M-475,758c-2.4,0-4.5-5.8-4.5-9.5c0-3.7,0.5-4.6,0.6-4.7c0,0,0-0.1,0.1-0.1l1.5-1.5c0.2-0.2,0.5-0.2,0.7,0
			c0.2,0.2,0.2,0.5,0,0.7l-1.4,1.4c-0.1,0.2-0.4,1.3-0.4,4.2c0,3.6,2,8.5,3.5,8.5s3.5-4.9,3.5-8.5c0-2.9-0.3-4-0.4-4.2l-1.4-1.4
			c-0.2-0.2-0.2-0.5,0-0.7c0.2-0.2,0.5-0.2,0.7,0l1.5,1.5c0,0,0.1,0.1,0.1,0.1c0.1,0.1,0.6,1.1,0.6,4.7
			C-470.5,752.2-472.6,758-475,758z"/>
	</g>
	<g>
		<path d="M-471.5,744c-0.1,0-0.3-0.1-0.4-0.2c-0.2-0.2-0.1-0.5,0.1-0.7l2.3-1.8c0-0.6,0.1-2.2,1.1-3.3c0.6-0.7,1.4-1,2.5-1
			c0.3,0,0.5,0.2,0.5,0.5s-0.2,0.5-0.5,0.5c-0.7,0-1.3,0.2-1.7,0.7c-0.8,0.8-0.8,2.3-0.8,2.8c0,0.2-0.1,0.3-0.2,0.4l-2.5,2
			C-471.3,744-471.4,744-471.5,744z"/>
	</g>
	<g>
		<path d="M-466,755c-1,0-1.8-0.3-2.4-1c-1.2-1.3-1.1-3.5-1.1-4.3l-1.8-1.8c-0.2-0.2-0.2-0.5,0-0.7s0.5-0.2,0.7,0l2,2
			c0.1,0.1,0.2,0.3,0.1,0.4c0,0-0.3,2.5,0.8,3.8c0.4,0.5,1,0.7,1.7,0.7c0.3,0,0.5,0.2,0.5,0.5S-465.7,755-466,755z"/>
	</g>
	<g>
		<path d="M-470,760c-0.1,0-0.1,0-0.2,0c-0.3-0.1-0.4-0.4-0.3-0.6l0.9-2.8l-2.4-3.8c-0.1-0.2-0.1-0.5,0.2-0.7
			c0.2-0.1,0.5-0.1,0.7,0.2l2.5,4c0.1,0.1,0.1,0.3,0.1,0.4l-1,3C-469.6,759.9-469.8,760-470,760z"/>
	</g>
	<g>
		<path d="M-475,758c-0.3,0-0.5-0.2-0.5-0.5v-14c0-0.3,0.2-0.5,0.5-0.5s0.5,0.2,0.5,0.5v14C-474.5,757.8-474.7,758-475,758z"/>
	</g>
</g>
</svg>
