<?xml version="1.0" encoding="utf-8"?>
<!-- Generator: Adobe Illustrator 19.0.1, SVG Export Plug-In . SVG Version: 6.00 Build 0)  -->
<svg version="1.1" id="Слой_1" xmlns="http://www.w3.org/2000/svg" xmlns:xlink="http://www.w3.org/1999/xlink" x="0px" y="0px"
	 viewBox="-487 736 24 30" style="enable-background:new -487 736 24 30;" xml:space="preserve">
<g>
	<g>
		<path d="M-475,754.5c-0.9,0-1.5-0.4-1.5-1s0.6-1,1.5-1s1.5,0.4,1.5,1S-474.1,754.5-475,754.5z"/>
	</g>
	<g>
		<path d="M-476,756c-0.2,0-0.4-0.1-0.4-0.3c-0.1-0.2,0-0.5,0.2-0.7l0.7-0.4V754c0-0.3,0.2-0.5,0.5-0.5s0.5,0.2,0.5,0.5v1
			c0,0.2-0.1,0.4-0.3,0.4l-1,0.5C-475.8,756-475.9,756-476,756z"/>
	</g>
	<g>
		<path d="M-478.5,753.5C-478.5,753.5-478.5,753.5-478.5,753.5c-0.2,0-3-0.5-3-2.5c0-1.9,3.1-4.5,4.5-4.5c1.2,0,1.7,0.5,2.2,1
			l0.1,0.1c0.2,0.2,0.2,0.5,0,0.7c-0.2,0.2-0.5,0.2-0.7,0l-0.1-0.1c-0.5-0.5-0.7-0.7-1.5-0.7c-0.8,0-3.5,2.2-3.5,3.5
			c0,1.2,2.1,1.5,2.1,1.5c0.3,0,0.5,0.3,0.4,0.6C-478,753.3-478.3,753.5-478.5,753.5z"/>
	</g>
	<g>
		<circle cx="-477" cy="749" r="0.5"/>
	</g>
	<g>
		<path d="M-481,745c-2.7,0-5.3-3.1-5.4-3.2c-0.1-0.2-0.1-0.4-0.1-0.5c0.1-0.2,0.3-0.3,0.5-0.3c0.2,0,0.3,0,0.5-0.1
			c0.3-0.2,0.8-0.4,2-0.4c1.9,0,4.6,1.5,4.7,1.6c0.2,0.1,0.3,0.4,0.2,0.7c-0.1,0.2-0.4,0.3-0.7,0.2c0,0-2.6-1.4-4.3-1.4
			c-0.9,0-1.3,0.1-1.6,0.3c0.8,0.8,2.5,2.2,4.1,2.2c0.3,0,0.5,0.2,0.5,0.5S-480.7,745-481,745z"/>
	</g>
	<g>
		<path d="M-475,757.5c-2.1,0-3.2-0.9-4.1-1.7c-0.8-0.7-1.5-1.3-2.9-1.3c-2.8,0-3.6,0.8-3.6,0.8c-0.2,0.2-0.4,0.2-0.6,0.1
			c-0.2-0.1-0.3-0.3-0.3-0.5c0-0.1,0.5-2.1,2-3c-0.5-0.2-1.1-0.4-1.6-0.4c-0.3,0-0.5-0.2-0.5-0.5s0.2-0.5,0.5-0.5
			c0.6,0,1.4-0.3,2.1-0.6c-0.5-0.2-1.3-0.3-2.1-0.4c-0.3,0-0.5-0.3-0.5-0.5c0-0.3,0.2-0.5,0.5-0.5c1.8,0,3.3-2,4.8-4
			c1.2-1.5,2.3-3,3.5-3.4c-0.1-0.2-0.3-0.5-0.6-0.7c-0.2-0.2-0.2-0.4-0.1-0.6c0.1-0.2,0.4-0.3,0.6-0.2l2.5,0.8
			c0.1-0.4,0.1-0.7,0-0.8c0,0,0,0-0.1,0c0,0,0,0,0,0c0,0,0,0,0,0c0,0,0,0,0,0c-0.3,0-0.5-0.2-0.5-0.5s0.2-0.5,0.5-0.5c0,0,0,0,0,0
			l0,0c0,0,0,0,0,0l0,0c0,0,0,0,0,0l0,0c1.3,0,2.4,1.8,2.8,2.5c1.4,0.2,2.6,1.8,3.9,3.5c1.5,1.9,3,4,4.8,4c0.3,0,0.5,0.2,0.5,0.5
			c0,0.3-0.2,0.5-0.5,0.5c-0.8,0.1-1.6,0.2-2.1,0.4c0.6,0.3,1.5,0.6,2.1,0.6c0.3,0,0.5,0.2,0.5,0.5s-0.2,0.5-0.5,0.5
			c-0.4,0-1,0.2-1.6,0.4c1.5,0.9,2,2.9,2,3c0.1,0.2-0.1,0.5-0.3,0.6c-0.2,0.1-0.5,0.1-0.6-0.1l0,0c0,0-0.8-0.8-3.6-0.8
			c-1.3,0-2.1,0.6-2.9,1.3C-471.8,756.6-472.9,757.5-475,757.5z M-482,753.5c1.7,0,2.6,0.8,3.5,1.5c0.9,0.8,1.7,1.5,3.5,1.5
			s2.6-0.7,3.5-1.5c0.9-0.8,1.8-1.5,3.5-1.5c1.4,0,2.3,0.2,3,0.4c-0.4-0.7-1-1.4-2-1.4c-0.2,0-0.4-0.2-0.5-0.4
			c-0.1-0.2,0-0.5,0.2-0.6c0,0,0.5-0.3,1.2-0.6c-0.6-0.2-1.1-0.5-1.2-0.6c-0.2-0.1-0.3-0.3-0.3-0.4c0-0.5,0.5-0.9,1.4-1.2
			c-1.3-0.8-2.4-2.3-3.5-3.7c-1.2-1.5-2.4-3.1-3.4-3.1c-0.2,0-0.4-0.1-0.5-0.3c-0.2-0.4-0.5-0.9-0.9-1.4c0,0.4-0.1,0.7-0.2,0.8
			c0,0.1-0.1,0.2-0.3,0.3c-0.1,0.1-0.3,0.1-0.4,0l-1.5-0.5c0.1,0.2,0.1,0.4,0.2,0.4c0,0.2,0,0.3-0.1,0.4c-0.1,0.1-0.2,0.2-0.4,0.2
			c-1.1,0-2.3,1.6-3.4,3.1c-1,1.4-2.2,2.9-3.5,3.7c0.9,0.3,1.4,0.7,1.4,1.2c0,0.2-0.1,0.4-0.3,0.4c-0.1,0.1-0.6,0.3-1.2,0.6
			c0.7,0.3,1.2,0.5,1.2,0.6c0.2,0.1,0.3,0.3,0.2,0.6c-0.1,0.2-0.3,0.4-0.5,0.4c-1,0-1.6,0.7-2,1.4
			C-484.3,753.7-483.4,753.5-482,753.5z"/>
	</g>
	<g>
		<path d="M-474,756c-0.1,0-0.2,0-0.2-0.1l-1-0.5c-0.2-0.1-0.3-0.3-0.3-0.4v-1c0-0.3,0.2-0.5,0.5-0.5s0.5,0.2,0.5,0.5v0.7l0.7,0.4
			c0.2,0.1,0.3,0.4,0.2,0.7C-473.6,755.9-473.8,756-474,756z"/>
	</g>
	<g>
		<path d="M-471,755.5c-0.3,0-0.5-0.2-0.5-0.5c0-0.1-0.4-3.5-3.5-3.5s-3.5,3.4-3.5,3.5c0,0.3-0.3,0.5-0.5,0.4
			c-0.3,0-0.5-0.3-0.4-0.5c0.1-1.5,1.3-4.5,4.5-4.5s4.4,2.9,4.5,4.5C-470.5,755.2-470.7,755.5-471,755.5
			C-471,755.5-471,755.5-471,755.5z"/>
	</g>
	<g>
		<path d="M-471.5,753.5c-0.2,0-0.5-0.2-0.5-0.4c0-0.3,0.1-0.5,0.4-0.6c0,0,2.1-0.4,2.1-1.5c0-1.3-2.7-3.5-3.5-3.5
			c-0.8,0-1,0.2-1.5,0.7l-0.1,0.1c-0.2,0.2-0.5,0.2-0.7,0c-0.2-0.2-0.2-0.5,0-0.7l0.1-0.1c0.5-0.5,1-1,2.2-1c1.4,0,4.5,2.6,4.5,4.5
			C-468.5,753-471.3,753.5-471.5,753.5C-471.5,753.5-471.5,753.5-471.5,753.5z"/>
	</g>
	<g>
		<circle cx="-473" cy="749" r="0.5"/>
	</g>
	<g>
		<path d="M-469,745c-0.3,0-0.5-0.2-0.5-0.5s0.2-0.5,0.5-0.5c1.6,0,3.3-1.4,4.1-2.2c-0.3-0.1-0.6-0.3-1.6-0.3
			c-1.6,0-4.2,1.4-4.3,1.4c-0.2,0.1-0.5,0-0.7-0.2c-0.1-0.2,0-0.5,0.2-0.7c0.1-0.1,2.8-1.6,4.7-1.6c1.2,0,1.7,0.2,2,0.4
			c0.2,0.1,0.3,0.1,0.5,0.1c0.2,0,0.4,0.1,0.5,0.3c0.1,0.2,0.1,0.4-0.1,0.5C-463.7,741.9-466.3,745-469,745z"/>
	</g>
</g>
</svg>
