<?xml version="1.0" encoding="utf-8"?>
<!-- Generator: Adobe Illustrator 19.0.1, SVG Export Plug-In . SVG Version: 6.00 Build 0)  -->
<svg version="1.1" id="Слой_1" xmlns="http://www.w3.org/2000/svg" xmlns:xlink="http://www.w3.org/1999/xlink" x="0px" y="0px"
	 viewBox="-487 736 24 30" style="enable-background:new -487 736 24 30;" xml:space="preserve">
<g>
	<g>
		<path d="M-474.6,759c-0.1,0-0.1,0-0.2,0h-0.2h-0.2c-0.9,0-2.3,0-3.2-0.8c-0.4-0.4-0.6-1-0.6-1.7c0-1.2-1.4-2.1-2.7-3.1
			c-1.4-1-2.8-2-2.8-3.4c0-1.4,0.4-4,0.5-4.8c-0.6-0.7-2.5-3-2.5-7.7c0-0.2,0.1-0.3,0.2-0.4c0.2-0.1,0.3-0.1,0.5,0l4.2,2.3
			c0.8-0.7,3.2-2.4,6.6-2.4s5.8,1.7,6.6,2.4l4.2-2.3c0.2-0.1,0.3-0.1,0.5,0c0.2,0.1,0.2,0.3,0.2,0.4c0,4.7-1.8,7-2.5,7.7
			c0.1,0.8,0.5,2.9,0.5,4.3c0,1.5-1.4,2.6-2.8,3.7c-1.3,1-2.7,2.1-2.7,3.3c0,0.7-0.2,1.3-0.6,1.7C-472.4,758.9-473.7,759-474.6,759z
			 M-475,758h0.2c0.7,0,1.9,0,2.5-0.5c0.2-0.2,0.3-0.5,0.3-1c0-1.7,1.6-2.9,3.1-4.1c1.2-1,2.4-1.9,2.4-2.9c0-1.6-0.5-4.4-0.5-4.4
			c0-0.2,0-0.3,0.2-0.5c0,0,2.1-1.9,2.3-6.3l-3.7,2.1c-0.2,0.1-0.4,0.1-0.6-0.1c0,0-2.5-2.4-6.2-2.4c-3.7,0-6.1,2.3-6.2,2.4
			c-0.2,0.2-0.4,0.2-0.6,0.1l-3.7-2.1c0.2,4.4,2.3,6.2,2.3,6.3c0.1,0.1,0.2,0.3,0.2,0.5c0,0-0.5,3.4-0.5,4.9c0,0.9,1.2,1.8,2.4,2.6
			c1.5,1,3.1,2.2,3.1,3.9c0,0.4,0.1,0.7,0.3,1c0.6,0.6,1.8,0.5,2.5,0.5H-475z"/>
	</g>
	<g>
		<path d="M-479,748c-0.8,0-1.5-0.7-1.5-1.5c0-0.8,0.7-1.5,1.5-1.5s1.5,0.7,1.5,1.5C-477.5,747.3-478.2,748-479,748z M-479,746
			c-0.3,0-0.5,0.2-0.5,0.5s0.2,0.5,0.5,0.5s0.5-0.2,0.5-0.5S-478.7,746-479,746z"/>
	</g>
	<g>
		<path d="M-471,748c-0.8,0-1.5-0.7-1.5-1.5c0-0.8,0.7-1.5,1.5-1.5s1.5,0.7,1.5,1.5C-469.5,747.3-470.2,748-471,748z M-471,746
			c-0.3,0-0.5,0.2-0.5,0.5s0.2,0.5,0.5,0.5s0.5-0.2,0.5-0.5S-470.7,746-471,746z"/>
	</g>
	<g>
		<path d="M-479,752c-0.3,0-0.5-0.2-0.5-0.5c0-0.8,0.6-1.7,1.3-2.7c0.6-0.8,1.2-1.7,1.2-2.3c0-1-1-2.3-1.4-2.7
			c-0.2-0.2-0.2-0.5,0-0.7c0.2-0.2,0.5-0.2,0.7,0c0.1,0.1,1.6,1.7,1.6,3.4c0,0.9-0.7,1.9-1.4,2.9c-0.5,0.8-1.1,1.6-1.1,2.1
			C-478.5,751.8-478.7,752-479,752z"/>
	</g>
	<g>
		<path d="M-471,752c-0.3,0-0.5-0.2-0.5-0.5c0-0.5-0.6-1.4-1.1-2.1c-0.7-1-1.4-2-1.4-2.9c0-1.7,1.6-3.3,1.6-3.4
			c0.2-0.2,0.5-0.2,0.7,0c0.2,0.2,0.2,0.5,0,0.7c-0.4,0.4-1.4,1.6-1.4,2.7c0,0.6,0.6,1.5,1.2,2.3c0.7,1,1.3,1.9,1.3,2.7
			C-470.5,751.8-470.7,752-471,752z"/>
	</g>
	<g>
		<path d="M-477,756c-0.2,0-0.4-0.1-0.4-0.3c-0.1-0.2,0-0.5,0.2-0.7l1.7-0.9v-1.5l-1.4-1.4c-0.1-0.1-0.2-0.2-0.1-0.4
			c0-0.1,0.1-0.3,0.2-0.4c0,0,0.8-0.6,1.8-0.6c0.3,0,0.5,0.2,0.5,0.5s-0.2,0.5-0.5,0.5c-0.3,0-0.5,0.1-0.7,0.1l1,1
			c0.1,0.1,0.1,0.2,0.1,0.4v2c0,0.2-0.1,0.4-0.3,0.4l-2,1C-476.8,756-476.9,756-477,756z"/>
	</g>
	<g>
		<path d="M-473,756c-0.1,0-0.2,0-0.2-0.1l-2-1c-0.2-0.1-0.3-0.3-0.3-0.4v-2c0-0.1,0.1-0.3,0.1-0.4l1-1c-0.2-0.1-0.4-0.1-0.7-0.1
			c-0.3,0-0.5-0.2-0.5-0.5s0.2-0.5,0.5-0.5c1,0,1.8,0.6,1.8,0.6c0.1,0.1,0.2,0.2,0.2,0.4c0,0.1,0,0.3-0.1,0.4l-1.4,1.4v1.5l1.7,0.9
			c0.2,0.1,0.3,0.4,0.2,0.7C-472.6,755.9-472.8,756-473,756z"/>
	</g>
	<g>
		<circle cx="-482" cy="749.5" r="0.5"/>
	</g>
	<g>
		<circle cx="-481" cy="750.5" r="0.5"/>
	</g>
	<g>
		<circle cx="-469" cy="750.5" r="0.5"/>
	</g>
	<g>
		<circle cx="-468" cy="749.5" r="0.5"/>
	</g>
	<g>
		<circle cx="-474" cy="739.5" r="0.5"/>
	</g>
	<g>
		<circle cx="-472" cy="740.5" r="0.5"/>
	</g>
	<g>
		<circle cx="-476" cy="739.5" r="0.5"/>
	</g>
	<g>
		<circle cx="-478" cy="740.5" r="0.5"/>
	</g>
	<g>
		<circle cx="-475" cy="741.5" r="0.5"/>
	</g>
</g>
</svg>
