<?xml version="1.0" encoding="utf-8"?>
<!-- Generator: Adobe Illustrator 19.0.1, SVG Export Plug-In . SVG Version: 6.00 Build 0)  -->
<svg version="1.1" id="Слой_1" xmlns="http://www.w3.org/2000/svg" xmlns:xlink="http://www.w3.org/1999/xlink" x="0px" y="0px"
	 viewBox="-487 736 24 30" style="enable-background:new -487 736 24 30;" xml:space="preserve">
<g>
	<g>
		<path d="M-468.5,751c-0.1,0-0.3-0.1-0.4-0.2c-0.2-0.2-0.2-0.5,0.1-0.7c1.2-1,1.8-2.6,1.8-4.6c0-3.6-3.6-6.5-8-6.5s-8,2.9-8,6.5
			c0,2,0.6,3.6,1.8,4.6c0.2,0.2,0.2,0.5,0.1,0.7c-0.2,0.2-0.5,0.2-0.7,0.1c-1.4-1.2-2.2-3-2.2-5.4c0-4.1,4-7.5,9-7.5s9,3.4,9,7.5
			c0,2.4-0.7,4.2-2.2,5.4C-468.3,751-468.4,751-468.5,751z"/>
	</g>
	<g>
		<path d="M-475,760c-1.6,0-3.3-1.6-3.3-1.6c-0.2-0.2-0.2-0.5,0-0.7c0.2-0.2,0.5-0.2,0.7,0c0.4,0.4,1.7,1.4,2.7,1.4
			c1,0,2.3-1,2.7-1.4c0.2-0.2,0.5-0.2,0.7,0c0.2,0.2,0.2,0.5,0,0.7C-471.7,758.4-473.4,760-475,760z"/>
	</g>
	<g>
		<path d="M-480.5,747c-0.8,0-1.5-0.7-1.5-1.5c0-0.8,0.7-1.5,1.5-1.5s1.5,0.7,1.5,1.5S-479.7,747-480.5,747z M-480.5,745
			c-0.3,0-0.5,0.2-0.5,0.5s0.2,0.5,0.5,0.5s0.5-0.2,0.5-0.5S-480.2,745-480.5,745z"/>
	</g>
	<g>
		<path d="M-469.5,747c-0.8,0-1.5-0.7-1.5-1.5c0-0.8,0.7-1.5,1.5-1.5s1.5,0.7,1.5,1.5C-468,746.3-468.7,747-469.5,747z M-469.5,745
			c-0.3,0-0.5,0.2-0.5,0.5s0.2,0.5,0.5,0.5s0.5-0.2,0.5-0.5S-469.2,745-469.5,745z"/>
	</g>
	<g>
		<path d="M-482.2,741.9c-0.3-0.1-2.5-1.4-2.8-3c-0.1-0.4,0-1.1,0.6-1.8c1.4-1.4,2.7-1.2,3.3-0.9c1.2,0.5,2,1.9,2,3.3h-1
			c0-1-0.6-2-1.4-2.4c-0.7-0.3-1.5,0-2.2,0.7c-0.4,0.4-0.4,0.7-0.4,0.9c0.1,1,1.7,2,2.2,2.3L-482.2,741.9z"/>
	</g>
	<g>
		<path d="M-467.8,741.9l-0.5-0.9c0.6-0.3,2.1-1.3,2.2-2.3c0-0.2,0-0.5-0.4-0.9c-0.8-0.8-1.5-1-2.2-0.7c-0.8,0.3-1.4,1.4-1.4,2.4h-1
			c0-1.4,0.9-2.8,2-3.3c0.6-0.3,1.9-0.5,3.3,0.9c0.6,0.7,0.7,1.3,0.6,1.8C-465.2,740.5-467.5,741.8-467.8,741.9z"/>
	</g>
	<g>
		<path d="M-471.3,758.5c-0.6,0-1.3-0.1-1.9-0.2c-0.6-0.1-1.2-0.2-1.9-0.2s-1.2,0.1-1.9,0.2c-2,0.4-4.3,0.8-5.6-3.1
			c-1.3-3.8,1.1-5.7,2.8-7.2c0.9-0.7,1.7-1.4,1.7-2c0-2-1.7-3-1.8-3.1c-0.2-0.1-0.3-0.4-0.2-0.7c0.1-0.2,0.4-0.3,0.7-0.2
			c0.1,0.1,2.2,1.3,2.2,3.9c0,1.1-1,1.9-2,2.8c-1.7,1.4-3.6,3-2.5,6.1c1.1,3,2.5,2.8,4.5,2.4c0.7-0.1,1.3-0.2,2-0.2s1.4,0.1,2,0.2
			c2,0.4,3.4,0.6,4.5-2.4c1.1-3.1-0.8-4.7-2.5-6.1c-1-0.9-2-1.7-2-2.8c0-2.6,2.2-3.9,2.2-3.9c0.2-0.1,0.5-0.1,0.7,0.2
			c0.1,0.2,0.1,0.5-0.2,0.7c-0.1,0-1.8,1.1-1.8,3.1c0,0.6,0.8,1.3,1.7,2c1.7,1.4,4.1,3.4,2.8,7.2
			C-468.5,757.8-469.9,758.5-471.3,758.5z"/>
	</g>
	<g>
		<path d="M-477.5,755c-0.3,0-0.5-0.2-0.5-0.5c0-0.5-0.9-1.5-1.5-1.5c-0.3,0-0.5-0.2-0.5-0.5s0.2-0.5,0.5-0.5c1.2,0,2.5,1.5,2.5,2.5
			C-477,754.8-477.2,755-477.5,755z"/>
	</g>
	<g>
		<path d="M-472.5,755c-0.3,0-0.5-0.2-0.5-0.5c0-1,1.3-2.5,2.5-2.5c0.3,0,0.5,0.2,0.5,0.5s-0.2,0.5-0.5,0.5c-0.6,0-1.5,1-1.5,1.5
			C-472,754.8-472.2,755-472.5,755z"/>
	</g>
</g>
</svg>
