<?xml version="1.0" encoding="utf-8"?>
<!-- Generator: Adobe Illustrator 19.0.1, SVG Export Plug-In . SVG Version: 6.00 Build 0)  -->
<svg version="1.1" id="Слой_1" xmlns="http://www.w3.org/2000/svg" xmlns:xlink="http://www.w3.org/1999/xlink" x="0px" y="0px"
	 viewBox="-487 736 24 30" style="enable-background:new -487 736 24 30;" xml:space="preserve">
<g>
	<g>
		<path d="M-480.9,753.5c-0.3,0-0.7-0.1-1-0.4c-0.3-0.3-0.4-0.6-0.4-0.9c0-0.6,0.6-1,1.2-1.5c0.4-0.3,1-0.7,1-1
			c0-0.3-0.6-0.7-1.2-1.1c-0.6-0.4-1.3-0.8-1.6-1.4c-0.9,0-2.5,0-2.8,0c-0.2,0-0.6-0.1-1.4-2.3c-0.1-0.2,0-0.5,0.2-0.6l1.4-1
			c0.4-0.5,1.7-2.1,2.9-2.1c0.3,0,0.5,0.2,0.5,0.5s-0.2,0.5-0.5,0.5c-0.5,0-1.6,1.1-2.1,1.8c0,0-0.1,0.1-0.1,0.1l-1.2,0.8
			c0.2,0.5,0.5,1.1,0.6,1.3c0.4,0,1.7,0,2.8,0c0.2,0,0.4,0.1,0.5,0.3c0.2,0.5,0.8,0.9,1.4,1.2c0.8,0.5,1.6,1,1.6,1.9
			c0,0.8-0.7,1.3-1.4,1.8c-0.3,0.2-0.8,0.6-0.8,0.8c0,0,0,0,0.1,0.1c0.2,0.2,0.4,0.2,1.3-0.3c0.6-0.4,1.4-0.8,2.4-0.8
			c0.7,0,1.8-0.3,2.4-1.2c0.5-0.8,0.6-1.9,0.1-3.1c-0.1-0.3,0-0.5,0.3-0.6c0.3-0.1,0.5,0,0.6,0.3c0.7,2,0.3,3.3-0.2,4
			c-0.7,1-2,1.7-3.2,1.7c-0.7,0-1.3,0.4-1.9,0.7C-479.8,753.2-480.4,753.5-480.9,753.5z"/>
	</g>
	<g>
		<path d="M-474.8,753c-0.4,0-0.8-0.1-1.1-0.4c-0.3-0.3-0.4-0.8-0.3-1.2c0.5-1.2,3.4-2.2,4.6-2.2c0.3,0,0.5,0.2,0.5,0.5
			s-0.2,0.5-0.5,0.5c-0.9,0-2.9,0.7-3.5,1.3c-0.2,0.2-0.2,0.2-0.2,0.2c0.4,0.4,1.9-0.2,3-0.7c1-0.5,2-0.9,2.7-0.9
			c0.3,0,0.5,0.2,0.5,0.5s-0.2,0.5-0.5,0.5c-0.5,0-1.5,0.4-2.3,0.8C-472.9,752.5-473.9,753-474.8,753z"/>
	</g>
	<g>
		<path d="M-470,752.3c-0.3,0-0.6,0-0.9,0c-0.2,0-0.4,0-0.6,0c-0.3,0-0.5-0.2-0.5-0.5s0.2-0.5,0.5-0.5c0.2,0,0.4,0,0.7,0
			c1.3,0.1,3,0.2,4.8-2.2c0-4.7-1.7-6.8-5.5-6.8c-4,0-5.7,0.9-5.8,0.9c-0.2,0.1-0.5,0-0.7-0.2c-0.1-0.2-0.1-0.5,0.2-0.7
			c0.1,0,1.9-1.1,6.2-1.1c4.4,0,6.5,2.6,6.5,8c0,0.1,0,0.2-0.1,0.3C-466.8,752-468.6,752.3-470,752.3z"/>
	</g>
	<g>
		<path d="M-481.5,757.3c-0.1,0-0.1,0-0.2,0c-0.3-0.1-0.4-0.4-0.3-0.7c0-0.1,1-2.3,4-2.3c1.4,0,2.7,0.5,4.1,1c1.4,0.5,2.9,1,4.4,1
			c2.9,0,5.5-2.4,5.5-3.5c0-1.2-0.6-1.9-1.9-3.1c-0.2-0.2-0.2-0.5,0-0.7c0.2-0.2,0.5-0.2,0.7,0c1.4,1.4,2.1,2.2,2.1,3.9
			c0,1.7-3,4.5-6.5,4.5c-1.7,0-3.3-0.6-4.8-1.1c-1.3-0.5-2.5-0.9-3.7-0.9c-2.3,0-3,1.7-3,1.7C-481.1,757.1-481.3,757.3-481.5,757.3z
			"/>
	</g>
	<g>
		<path d="M-478.5,744.3c-0.2,0-0.4-0.1-0.5-0.3c-0.1-0.2,0-0.5,0.2-0.7c0.7-0.3,0.8-0.9,0.7-1.8l0-0.3c0-0.6-0.3-1.5-2-1.5
			c-1.4,0-2,0.6-2,2c0,0.2,0,0.3,0.4,0.6c0.2,0.2,0.2,0.5,0,0.7c-0.2,0.2-0.5,0.2-0.7,0c-0.5-0.5-0.6-0.8-0.6-1.4c0-2.5,1.6-3,3-3
			c2.2,0,3,1.3,3,2.5l0,0.3c0,0.8,0.1,2-1.3,2.7C-478.4,744.2-478.4,744.3-478.5,744.3z"/>
	</g>
	<g>
		<path d="M-484,742.8c-0.1,0-0.3,0-0.4-0.1l-0.2-0.2c-0.4-0.4-0.5-0.6-0.5-1.2c0-0.9,0.9-2,2-2h1c0.3,0,0.5,0.2,0.5,0.5
			s-0.2,0.5-0.5,0.5h-1c-0.6,0-1,0.7-1,1c0,0.1,0,0.3,0,0.3c0,0,0.1,0.1,0.2,0.2l0.2,0.2c0.2,0.2,0.2,0.5,0,0.7
			C-483.7,742.7-483.9,742.8-484,742.8z"/>
	</g>
	<g>
		<circle cx="-483.5" cy="744.3" r="0.5"/>
	</g>
</g>
</svg>
