<?xml version="1.0" encoding="utf-8"?>
<!-- Generator: Adobe Illustrator 19.0.1, SVG Export Plug-In . SVG Version: 6.00 Build 0)  -->
<svg version="1.1" id="Слой_1" xmlns="http://www.w3.org/2000/svg" xmlns:xlink="http://www.w3.org/1999/xlink" x="0px" y="0px"
	 viewBox="-487 736 24 30" style="enable-background:new -487 736 24 30;" xml:space="preserve">
<g>
	<g>
		<path d="M-464,754c-0.1,0-0.3,0-0.4-0.1c-0.2-0.2-0.2-0.5,0-0.7c0.3-0.3,0.4-0.6,0.4-0.9c0-0.7-0.8-1.4-0.8-1.4
			c-0.1-0.1-0.2-0.3-0.2-0.4c0,0,0-0.7-0.4-1.1c-0.5-0.5-1.7-0.4-2.7-0.1c-0.5,0.1-1,0.2-1.4,0.2l-0.3,0c-1,0-2.4,0-3.1-0.6
			c-0.2-0.2-0.2-0.5,0-0.7c0.2-0.2,0.5-0.2,0.7,0c0.4,0.4,1.7,0.4,2.4,0.4l0.3,0c0.3,0,0.7-0.1,1.2-0.2c0.6-0.1,1.2-0.3,1.8-0.3
			c0.8,0,1.4,0.2,1.9,0.7c0.5,0.5,0.6,1.2,0.6,1.6c0.3,0.3,1,1,1,1.9c0,0.6-0.2,1.2-0.7,1.6C-463.8,754-463.9,754-464,754z"/>
	</g>
	<g>
		<path d="M-469.5,755.5c-0.2,0-0.4-0.1-0.5-0.3c-0.1-0.3,0.1-0.5,0.3-0.6c1-0.3,3.5-1.9,4.4-2.4c0.1-0.1,0.2-0.1,0.3-0.1
			c0.3,0,0.6,0.2,0.9,0.4c0,0,0,0,0,0c0-0.8-0.8-1.5-0.8-1.5c-0.2-0.2-0.2-0.5,0-0.7c0.2-0.2,0.5-0.2,0.7,0c0,0,1.1,1,1.2,2.2
			c0,0.6-0.2,1.1-0.6,1.5c-0.1,0.1-0.4,0.2-0.5,0.1c-0.2-0.1-0.3-0.3-0.3-0.5c0-0.3-0.2-0.4-0.4-0.5c-0.7,0.5-3.3,2.1-4.4,2.4
			C-469.4,755.5-469.5,755.5-469.5,755.5z"/>
	</g>
	<g>
		<path d="M-469.7,756.1c-0.5,0-1-0.3-1.6-0.7c-0.3-0.2-0.8-0.4-1-0.5c-0.2,0.1-0.4,0.1-0.6-0.1c-0.2-0.2-0.2-0.5,0-0.7
			c0.5-0.5,1.2-0.1,2,0.4c0.2,0.1,0.4,0.2,0.6,0.3c-0.1-0.6,0-1.4,0.4-1.7c0.2-0.2,0.5-0.2,0.7,0c0.2,0.2,0.2,0.5,0,0.7
			c-0.1,0.2-0.1,1.1,0,1.3c0.2,0.2,0.2,0.5,0,0.7C-469.3,756-469.5,756.1-469.7,756.1z"/>
	</g>
	<g>
		<path d="M-465.5,760c-0.1,0-0.3,0-0.4-0.1c-0.2-0.2-0.2-0.5,0-0.7c0.3-0.3,0.3-0.5,0.3-0.6c-0.2-0.9-2.5-2-4.1-2.5
			c-0.3-0.1-0.4-0.4-0.3-0.6c0.1-0.3,0.4-0.4,0.6-0.3c0.4,0.1,4.3,1.5,4.7,3.3c0.1,0.4,0.1,1-0.5,1.6
			C-465.3,760-465.4,760-465.5,760z"/>
	</g>
	<g>
		<path d="M-467.5,760c-0.1,0-0.3,0-0.4-0.1c-0.3-0.3-0.4-0.7-0.3-1c0.2-1.1,1.9-1.8,2-1.8c0.3-0.1,0.5,0,0.6,0.3
			c0.1,0.3,0,0.5-0.3,0.6c-0.7,0.3-1.3,0.8-1.4,1.1c0,0,0,0.1,0.1,0.1c0.2,0.2,0.2,0.5,0,0.7C-467.3,760-467.4,760-467.5,760z"/>
	</g>
	<g>
		<path d="M-480.5,760c-1.4,0-2.7-2-3.3-2.9c-0.1,0.1-0.2,0.2-0.2,0.4c0,0.3-0.2,0.5-0.5,0.5c-0.9,0-1.3-1.2-1.4-2.4l-0.2,0.2
			c-0.1,0.1-0.4,0.2-0.5,0.1c-0.2-0.1-0.3-0.3-0.3-0.5c0-1.4,0.6-4.2,3.4-5c3.1-0.9,4.1-0.6,4.3-0.5c0.3,0.1,0.4,0.4,0.3,0.6
			c-0.1,0.3-0.4,0.4-0.6,0.3l0,0c0,0-0.9-0.3-3.7,0.5c-1.5,0.4-2.2,1.6-2.4,2.6c0.1-0.1,0.3-0.1,0.5-0.1c0.2,0.1,0.3,0.2,0.3,0.4
			c0,0.8,0.2,1.6,0.3,2.1c0.3-0.4,0.8-0.5,1.2-0.6c0.2,0,0.4,0.1,0.5,0.3c0.3,0.6,0.8,1.3,1.2,1.8c0-0.2,0-0.4,0-0.7
			c0.1-1.8,2-3.2,2.1-3.3c0.2-0.1,0.4-0.1,0.6,0c0,0,2.5,1.9,4.2,1.9c1.6,0,2.9-0.5,3.9-0.8l0.4-0.1c0.3-0.1,0.5,0.1,0.6,0.3
			s0,0.5-0.3,0.6l-0.4,0.1c-1.1,0.4-2.5,0.9-4.3,0.9c-1.6,0-3.7-1.3-4.5-1.9c-0.5,0.4-1.3,1.3-1.4,2.3c0,0.6,0.2,1.1,0.7,1.7
			c0.1,0.1,0.2,0.4,0.1,0.5C-480.1,759.9-480.3,760-480.5,760z"/>
	</g>
	<g>
		<path d="M-469.5,751c0,0-0.1,0-0.2,0c-2.8-0.9-5-3.7-6-7.7c-0.5-2.1-0.5-4-0.1-5.5c-1.2,1.1-1.3,2.7-1.3,2.7
			c0,0.2-0.2,0.4-0.4,0.5c-0.2,0.1-0.4,0-0.6-0.2c0,0-0.5-0.8-0.9-1.8c-0.4,1.1-0.2,2.5-0.2,2.5c0,0.2-0.1,0.5-0.4,0.5
			c-0.2,0.1-0.5,0-0.6-0.3l-0.6-1.2c-0.4,1-0.5,2.4-0.4,3c0,0.2-0.1,0.5-0.4,0.5c-0.2,0.1-0.5,0-0.6-0.3l-0.4-0.9
			c-0.1,0.4-0.1,1-0.1,1.6c0,2,1.4,3.7,1.4,3.7c0.1,0.1,0.1,0.4,0.1,0.5c0,0,0,0.1-0.1,0.1l1.9,1.3c0.2,0.2,0.3,0.5,0.1,0.7
			c-0.2,0.2-0.5,0.3-0.7,0.1l-3-2c-0.2-0.1-0.3-0.3-0.2-0.6c0.1-0.2,0.3-0.4,0.5-0.4h0.1c-0.5-0.8-1.1-2.1-1.1-3.5
			c0-2.2,0.5-3.2,0.6-3.3c0.1-0.2,0.2-0.3,0.4-0.2c0.2,0,0.3,0.1,0.4,0.3l0.2,0.3c0.1-0.9,0.4-1.8,1-2.4c0.1-0.1,0.3-0.2,0.4-0.1
			c0.2,0,0.3,0.1,0.4,0.3l0.1,0.3c0.1-0.8,0.4-1.7,1.1-2.4c0.1-0.1,0.4-0.2,0.5-0.1c0.2,0.1,0.3,0.3,0.3,0.5c0,0.5,0.1,1.1,0.3,1.5
			c0.4-1,1.2-2.3,3-3c0.2-0.1,0.5,0,0.6,0.2c0.1,0.2,0.1,0.5-0.1,0.6c-0.9,0.9-1.1,3.5-0.5,6.2c0.9,3.6,2.8,6.2,5.3,6.9
			c0.3,0.1,0.4,0.4,0.3,0.6C-469.1,750.9-469.3,751-469.5,751z"/>
	</g>
	<g>
		<path d="M-469.5,760c-0.3,0-0.5-0.2-0.5-0.5c0-1.1-2-2.2-2.7-2.5c-0.3-0.1-0.4-0.4-0.3-0.7c0.1-0.3,0.4-0.4,0.7-0.3
			c0.3,0.1,3.3,1.5,3.3,3.5C-469,759.8-469.2,760-469.5,760z"/>
	</g>
	<g>
		<path d="M-471.5,760c-0.1,0-0.3,0-0.4-0.1c-0.3-0.3-0.4-0.6-0.3-0.9c0.1-0.7,0.8-1.3,0.9-1.4c0.2-0.2,0.5-0.1,0.7,0.1
			c0.2,0.2,0.1,0.5-0.1,0.7c-0.2,0.1-0.5,0.4-0.5,0.6c0,0,0,0.1,0.1,0.1c0.2,0.2,0.2,0.5,0,0.7C-471.3,760-471.4,760-471.5,760z"/>
	</g>
	<g>
		<path d="M-468.9,748.9l0.4-0.4L-468.9,748.9c-0.6-0.6-1.1-1.3-1.1-3.4c0-2,2.8-5.4,5.3-6.3c-0.3-0.1-0.6-0.2-0.8-0.2
			c-0.8,0-2,1.1-2.6,1.8c-0.1,0.2-0.4,0.2-0.6,0.1c-0.2-0.1-0.3-0.3-0.3-0.5v-1.1c-1.2,0.9-2.1,2.3-2.1,2.3
			c-0.1,0.2-0.2,0.2-0.4,0.2c-0.2,0-0.3-0.1-0.4-0.3l-0.7-1.4c-0.4,0.4-1.1,1.2-1.9,2.5c-0.1,0.2-0.5,0.3-0.7,0.2
			c-0.2-0.1-0.3-0.5-0.2-0.7c1.4-2.4,2.6-3.1,2.7-3.2c0.1-0.1,0.3-0.1,0.4-0.1c0.1,0,0.3,0.1,0.3,0.3l0.6,1.3
			c0.6-0.7,1.6-1.9,2.7-2.5c0.2-0.1,0.3-0.1,0.5,0c0.1,0.1,0.2,0.3,0.2,0.4v0.8c0.7-0.6,1.6-1.3,2.5-1.3c1,0,2,0.6,2.4,1.2
			c0.1,0.2,0.1,0.3,0,0.5c-0.1,0.2-0.3,0.3-0.4,0.3c-2.2,0-5.5,3.7-5.5,5.5c0,1.8,0.4,2.2,0.8,2.6l-0.3,0.4L-468.9,748.9z"/>
	</g>
	<g>
		<circle cx="-466.5" cy="750.5" r="0.5"/>
	</g>
</g>
</svg>
