<?xml version="1.0" encoding="utf-8"?>
<!-- Generator: Adobe Illustrator 19.0.1, SVG Export Plug-In . SVG Version: 6.00 Build 0)  -->
<svg version="1.1" id="Слой_1" xmlns="http://www.w3.org/2000/svg" xmlns:xlink="http://www.w3.org/1999/xlink" x="0px" y="0px"
	 viewBox="-487 736 24 30" style="enable-background:new -487 736 24 30;" xml:space="preserve">
<g>
	<g>
		<path d="M-486.5,747c-0.3,0-0.5-0.2-0.5-0.5c0-2.5,3-5,6-5c1.7,0,2.5,0.5,3.2,1c0.5,0.3,0.8,0.5,1.3,0.5c1.5,0,4-0.7,4.6-1.4
			l0.2-0.2c0.8-0.8,2.4-2.4,4.1-2.4c1.7,0,2.7,1,3,1.7c0.4,0.4,1.5,1.6,1.5,3.3c0,0.8-0.5,1.2-0.8,1.3c-1.2,0.5-3.3-0.7-4.1-1.4
			c-0.2-0.2-0.2-0.5,0-0.7c0.2-0.2,0.5-0.2,0.7,0c0.7,0.7,2.4,1.5,3,1.2c0.1,0,0.2-0.1,0.2-0.4c0-1.6-1.3-2.6-1.3-2.6
			c-0.1-0.1-0.2-0.2-0.2-0.4c0-0.2-0.6-1-2-1c-1.3,0-2.6,1.3-3.4,2.1l-0.2,0.2c-0.9,0.9-3.7,1.6-5.4,1.6c-0.8,0-1.3-0.3-1.9-0.7
			c-0.6-0.4-1.3-0.8-2.6-0.8c-2.4,0-5,2.1-5,4C-486,746.8-486.2,747-486.5,747z"/>
	</g>
	<g>
		<path d="M-480.5,757h-2c-0.2,0-0.4-0.1-0.4-0.3l-2-4c-0.1-0.1-0.1-0.3,0-0.4l0.8-1.7c-2.4-2.6-2.2-5.6-1.3-6.9
			c0.2-0.2,0.5-0.3,0.7-0.1c0.2,0.2,0.3,0.5,0.1,0.7c-0.7,1-0.8,3.6,1.4,5.9c0.2,0.2,0.2,0.4,0.1,0.6l-0.9,1.8l1.8,3.5h1l-0.8-2.3
			c-0.1-0.2,0-0.4,0.1-0.5c0,0,2.8-2.5,2.8-5.6c0-0.3,0.2-0.5,0.5-0.5s0.5,0.2,0.5,0.5c0,3-2.2,5.4-2.9,6.1l0.9,2.7
			c0.1,0.2,0,0.3-0.1,0.5C-480.2,756.9-480.3,757-480.5,757z"/>
	</g>
	<g>
		<path d="M-483.5,757h-2c-0.2,0-0.4-0.2-0.5-0.4l-1-4c0-0.1,0-0.2,0-0.3l0.9-1.8c-0.2-1.2-0.6-3.5,0.2-4.3c0.2-0.2,0.5-0.2,0.7,0
			c0.2,0.2,0.2,0.5,0,0.7c-0.2,0.3-0.2,2,0.1,3.5c0,0.1,0,0.2,0,0.3l-0.9,1.8l0.9,3.4h1l-0.4-2.4c0-0.3,0.1-0.5,0.4-0.6
			c0.3,0,0.5,0.1,0.6,0.4l0.5,3c0,0.1,0,0.3-0.1,0.4C-483.2,756.9-483.4,757-483.5,757z"/>
	</g>
	<g>
		<path d="M-469.5,743c-0.2,0-0.4-0.2-0.5-0.4c-0.1-0.3,0.1-0.5,0.4-0.6c0.7-0.2,1.4-0.4,1.6-0.6c0-0.2,0.2-0.4,0.5-0.4
			c0.3,0,0.5,0.2,0.5,0.5c0,0.6-0.8,1.1-2.4,1.5C-469.4,743-469.5,743-469.5,743z"/>
	</g>
	<g>
		<path d="M-469,750c-0.1,0-0.3,0-0.4-0.1c-0.2-0.2-0.2-0.5,0-0.7c1-1,1.4-2.2,1.7-3.2c0.2-0.7,0.4-1.4,0.8-1.8
			c0.2-0.2,0.5-0.2,0.7,0c0.2,0.2,0.2,0.5,0,0.7c-0.2,0.3-0.4,0.8-0.6,1.4c-0.3,1.1-0.7,2.4-1.9,3.6C-468.7,750-468.9,750-469,750z"
			/>
	</g>
	<g>
		<path d="M-468.5,757h-2c-0.3,0-0.5-0.2-0.5-0.5v-2.8c-0.4-0.6-2-2.9-2-6.2c0-0.3,0.2-0.5,0.5-0.5s0.5,0.2,0.5,0.5
			c0,3.4,1.9,5.7,1.9,5.7c0.1,0.1,0.1,0.2,0.1,0.3v2.5h1v-3c0-0.6-0.6-3.5-1-5.4c-0.1-0.3,0.1-0.5,0.4-0.6c0.3-0.1,0.5,0.1,0.6,0.4
			c0.1,0.5,1,4.8,1,5.6v3.5C-468,756.8-468.2,757-468.5,757z"/>
	</g>
	<g>
		<path d="M-475,752c-2.5,0-4.2-1-4.3-1.1c-0.2-0.1-0.3-0.5-0.2-0.7s0.5-0.3,0.7-0.2c0,0,1.5,0.9,3.7,0.9c2.1,0,2.7-0.4,2.7-0.4
			c0.2-0.2,0.5-0.1,0.7,0.1c0.2,0.2,0.1,0.5-0.1,0.7C-471.8,751.5-472.5,752-475,752z"/>
	</g>
	<g>
		<path d="M-470.5,757h-2c-0.3,0-0.5-0.2-0.5-0.5v-0.8l-0.9-0.9c-0.1-0.1-0.2-0.3-0.1-0.4l0.5-3c0-0.3,0.3-0.5,0.6-0.4
			c0.3,0,0.5,0.3,0.4,0.6l-0.5,2.7l0.8,0.8c0.1,0.1,0.1,0.2,0.1,0.4v0.5h1.5c0.3,0,0.5,0.2,0.5,0.5S-470.2,757-470.5,757z"/>
	</g>
</g>
</svg>
