<?xml version="1.0" encoding="utf-8"?>
<!-- Generator: Adobe Illustrator 19.0.1, SVG Export Plug-In . SVG Version: 6.00 Build 0)  -->
<svg version="1.1" id="Слой_1" xmlns="http://www.w3.org/2000/svg" xmlns:xlink="http://www.w3.org/1999/xlink" x="0px" y="0px"
	 viewBox="-487 736 24 30" style="enable-background:new -487 736 24 30;" xml:space="preserve">
<g>
	<g>
		<path d="M-475,747.5c-0.2,0-0.3-0.1-0.4-0.2c-0.8-1.3-2.4-2-4.2-2.8c-2.9-1.3-6.4-2.8-7.3-7.5c-0.1-0.2-0.1-0.3-0.1-0.5
			c0-0.3,0.2-0.5,0.5-0.5c0.3,0,0.5,0.2,0.5,0.4c0,0.1,0,0.2,0.1,0.3c0.3,0.8,2,1.6,3.8,2.5c3.4,1.6,7.7,3.6,7.7,7.8
			c0,0.2-0.1,0.4-0.4,0.5C-474.9,747.5-475,747.5-475,747.5z M-485.4,738.7c1.2,2.7,3.7,3.8,6.2,4.9c1.3,0.6,2.5,1.1,3.4,1.8
			c-1-2.5-4.2-4-6.8-5.3C-483.6,739.6-484.6,739.2-485.4,738.7z"/>
	</g>
	<g>
		<path d="M-479.5,752c-2,0-3.8-1.3-4.4-3.4c-0.6-2.4,0.8-4.9,3.2-5.5c0.3-0.1,0.5,0.1,0.6,0.4c0.1,0.3-0.1,0.5-0.4,0.6
			c-1.9,0.5-3,2.4-2.5,4.3c0.5,1.9,2.4,3,4.3,2.5c1.9-0.5,3-2.4,2.5-4.3c-0.1-0.3,0.1-0.5,0.4-0.6c0.3-0.1,0.5,0.1,0.6,0.4
			c0.6,2.4-0.8,4.9-3.2,5.5C-478.7,752-479.1,752-479.5,752z"/>
	</g>
	<g>
		<path d="M-479.5,749c-0.8,0-1.5-0.7-1.5-1.5s0.7-1.5,1.5-1.5s1.5,0.7,1.5,1.5S-478.7,749-479.5,749z M-479.5,747
			c-0.3,0-0.5,0.2-0.5,0.5s0.2,0.5,0.5,0.5s0.5-0.2,0.5-0.5S-479.2,747-479.5,747z"/>
	</g>
	<g>
		<path d="M-486.5,760c-0.3,0-0.5-0.2-0.5-0.5c0-4.4,4.1-6.4,4.3-6.5c0.3-0.1,0.5,0,0.7,0.2c0.1,0.3,0,0.5-0.2,0.7
			c-0.2,0.1-3.7,1.8-3.7,5.5C-486,759.8-486.2,760-486.5,760z"/>
	</g>
	<g>
		<path d="M-475,747.5c0,0-0.1,0-0.1,0c-0.2-0.1-0.4-0.3-0.4-0.5c0-4.2,4.2-6.2,7.7-7.8c1.8-0.8,3.5-1.6,3.8-2.5
			c0-0.1,0-0.2,0.1-0.3c0-0.3,0.3-0.4,0.5-0.4c0.3,0,0.5,0.2,0.5,0.5c0,0.2,0,0.4-0.1,0.5c-0.9,4.6-4.4,6.2-7.3,7.5
			c-1.8,0.8-3.4,1.5-4.2,2.8C-474.7,747.4-474.8,747.5-475,747.5z M-464.6,738.7c-0.8,0.5-1.7,0.9-2.8,1.4c-2.6,1.2-5.8,2.7-6.8,5.3
			c0.9-0.7,2.2-1.3,3.4-1.8C-468.4,742.5-465.9,741.4-464.6,738.7z"/>
	</g>
	<g>
		<path d="M-470.5,752c-0.4,0-0.8,0-1.1-0.1c-2.4-0.6-3.8-3.1-3.2-5.5c0.1-0.3,0.3-0.4,0.6-0.4c0.3,0.1,0.4,0.3,0.4,0.6
			c-0.5,1.9,0.6,3.8,2.5,4.3c1.9,0.5,3.8-0.6,4.3-2.5c0.5-1.9-0.6-3.8-2.5-4.3c-0.3-0.1-0.4-0.3-0.4-0.6c0.1-0.3,0.3-0.4,0.6-0.4
			c2.4,0.6,3.8,3.1,3.2,5.5C-466.7,750.7-468.5,752-470.5,752z"/>
	</g>
	<g>
		<path d="M-470.5,749c-0.8,0-1.5-0.7-1.5-1.5s0.7-1.5,1.5-1.5s1.5,0.7,1.5,1.5S-469.7,749-470.5,749z M-470.5,747
			c-0.3,0-0.5,0.2-0.5,0.5s0.2,0.5,0.5,0.5s0.5-0.2,0.5-0.5S-470.2,747-470.5,747z"/>
	</g>
	<g>
		<path d="M-475,758c-0.2,0-0.3-0.1-0.4-0.2l-2.5-4c-0.1-0.2-0.1-0.3,0-0.5c0.1-0.2,0.3-0.3,0.4-0.3c0.7,0,1.6-1.1,2.1-1.8
			c0.2-0.3,0.7-0.3,0.8,0c0.4,0.7,1.4,1.8,2.1,1.8c0.2,0,0.4,0.1,0.4,0.3c0.1,0.2,0.1,0.4,0,0.5l-2.5,4
			C-474.7,757.9-474.8,758-475,758z M-476.7,753.8l1.7,2.7l1.7-2.7c-0.7-0.3-1.3-1-1.7-1.5C-475.4,752.9-476,753.5-476.7,753.8z"/>
	</g>
	<g>
		<path d="M-480,741c-0.2,0-0.4-0.1-0.5-0.3c-0.1-0.3,0-0.5,0.3-0.6c0.1,0,2.9-1,5.2-1s5,1,5.2,1c0.3,0.1,0.4,0.4,0.3,0.6
			c-0.1,0.3-0.4,0.4-0.6,0.3c0,0-2.8-1-4.8-1c-2.1,0-4.8,1-4.8,1C-479.9,741-479.9,741-480,741z"/>
	</g>
	<g>
		<path d="M-475,760c-4.1,0-6.8-3.3-7-5.8c-0.8-0.7-4-3.5-4-6.8c0-3.7,2.6-5.4,2.7-5.4c0.2-0.1,0.5-0.1,0.7,0.2
			c0.1,0.2,0.1,0.5-0.2,0.7c-0.1,0.1-2.3,1.4-2.3,4.6c0,3.2,3.8,6.1,3.8,6.1c0.1,0.1,0.2,0.2,0.2,0.4c0,2,2.4,5,6,5s6-3,6-5
			c0-0.2,0.1-0.3,0.2-0.4c0,0,3.8-2.9,3.8-6.1c0-3.2-2.2-4.6-2.3-4.6c-0.2-0.1-0.3-0.4-0.2-0.7c0.1-0.2,0.5-0.3,0.7-0.2
			c0.1,0.1,2.7,1.7,2.7,5.4c0,3.3-3.2,6.1-4,6.8C-468.2,756.7-470.9,760-475,760z"/>
	</g>
	<g>
		<path d="M-463.5,760c-0.3,0-0.5-0.2-0.5-0.5c0-3.8-3.7-5.5-3.7-5.5c-0.3-0.1-0.4-0.4-0.2-0.7c0.1-0.3,0.4-0.4,0.7-0.2
			c0.2,0.1,4.3,2,4.3,6.5C-463,759.8-463.2,760-463.5,760z"/>
	</g>
</g>
</svg>
