<?xml version="1.0" encoding="utf-8"?>
<!-- Generator: Adobe Illustrator 19.0.1, SVG Export Plug-In . SVG Version: 6.00 Build 0)  -->
<svg version="1.1" id="Слой_1" xmlns="http://www.w3.org/2000/svg" xmlns:xlink="http://www.w3.org/1999/xlink" x="0px" y="0px"
	 viewBox="-487 736 24 30" style="enable-background:new -487 736 24 30;" xml:space="preserve">
<g>
	<g>
		<path d="M-473,757h-4c-0.2,0-0.3-0.1-0.4-0.2l-3-5c-0.1-0.2-0.1-0.4,0-0.5l1.1-1.7l-1,0.4c-0.2,0.1-0.5,0-0.6-0.2l-2.5-4
			c-0.1-0.1-0.1-0.3,0-0.4c0-0.1,1.9-5.3,8.5-5.3c6.6,0,8,5.3,8,5.4c0,0.1,0,0.3-0.1,0.4l-2.5,4c-0.1,0.2-0.4,0.3-0.6,0.2l-0.3-0.2
			l1,1.4c0.1,0.2,0.1,0.4,0,0.5l-3,5C-472.7,756.9-472.8,757-473,757z M-476.7,756h3.4l2.7-4.5l-1.8-2.7c-0.1-0.2-0.1-0.4,0-0.6
			c0.2-0.2,0.4-0.2,0.6-0.1l1.6,0.8l2.1-3.4c-0.3-0.9-1.8-4.4-7-4.4c-5.2,0-7,3.5-7.4,4.4l2.1,3.4l2.1-0.8c0.2-0.1,0.4,0,0.6,0.1
			c0.1,0.2,0.1,0.4,0,0.6l-1.8,2.7L-476.7,756z"/>
	</g>
	<g>
		<path d="M-472.5,755.5c-0.1,0-0.1,0-0.2,0l-2.3-0.9l-2.3,0.9c-0.3,0.1-0.5,0-0.6-0.3c-0.1-0.3,0-0.5,0.3-0.6l2.2-0.9v-1.4
			l-1.3-0.9c-0.2-0.1-0.2-0.3-0.2-0.5c0-0.2,0.2-0.3,0.3-0.4l1.5-0.5c0.1,0,0.2,0,0.3,0l1.5,0.5c0.2,0.1,0.3,0.2,0.3,0.4
			s-0.1,0.4-0.2,0.5l-1.3,0.9v1.4l2.2,0.9c0.3,0.1,0.4,0.4,0.3,0.6C-472.1,755.4-472.3,755.5-472.5,755.5z M-475.4,751.2l0.4,0.2
			l0.4-0.2l-0.4-0.1L-475.4,751.2z"/>
	</g>
	<g>
		<path d="M-472,747c-0.8,0-1.5-0.7-1.5-1.5s0.7-1.5,1.5-1.5s1.5,0.7,1.5,1.5S-471.2,747-472,747z M-472,745c-0.3,0-0.5,0.2-0.5,0.5
			s0.2,0.5,0.5,0.5s0.5-0.2,0.5-0.5S-471.7,745-472,745z"/>
	</g>
	<g>
		<path d="M-473,747c-0.3,0-0.5-0.2-0.5-0.5v-1c0-0.3,0.2-0.5,0.5-0.5s0.5,0.2,0.5,0.5v1C-472.5,746.8-472.7,747-473,747z"/>
	</g>
	<g>
		<path d="M-469,746c-0.1,0-0.1,0-0.2,0c-0.8-0.4-2.2-1-2.8-1c-0.3,0-0.5-0.2-0.5-0.5s0.2-0.5,0.5-0.5c1,0,3,0.9,3.2,1
			c0.3,0.1,0.4,0.4,0.2,0.7C-468.6,745.9-468.8,746-469,746z"/>
	</g>
	<g>
		<path d="M-478,747c-0.8,0-1.5-0.7-1.5-1.5s0.7-1.5,1.5-1.5s1.5,0.7,1.5,1.5S-477.2,747-478,747z M-478,745c-0.3,0-0.5,0.2-0.5,0.5
			s0.2,0.5,0.5,0.5s0.5-0.2,0.5-0.5S-477.7,745-478,745z"/>
	</g>
	<g>
		<path d="M-477,747c-0.3,0-0.5-0.2-0.5-0.5v-1c0-0.3,0.2-0.5,0.5-0.5s0.5,0.2,0.5,0.5v1C-476.5,746.8-476.7,747-477,747z"/>
	</g>
	<g>
		<path d="M-481,746c-0.2,0-0.4-0.1-0.5-0.3c-0.1-0.3,0-0.5,0.2-0.7c0.2-0.1,2.3-1,3.2-1c0.3,0,0.5,0.2,0.5,0.5s-0.2,0.5-0.5,0.5
			c-0.6,0-2,0.6-2.8,1C-480.9,746-480.9,746-481,746z"/>
	</g>
	<g>
		<path d="M-475,760c-0.1,0-0.2,0-0.2-0.1l-3.7-1.8l-0.7,0.7c-0.2,0.2-0.5,0.2-0.7,0l-2.1-2.1v0.8c0,0.2-0.1,0.4-0.3,0.5
			c-0.2,0.1-0.4,0-0.5-0.1c-0.1-0.1-3.1-3.4-3.1-12.3c0-7.2,5.9-9.5,8-9.5c1.8,0,2.4,0.1,3.5,0.5c1.1-0.3,1.7-0.5,3.5-0.5
			c2,0,8,2.3,8,9.5c0,9-3,12.2-3.1,12.3c-0.1,0.1-0.4,0.2-0.5,0.1c-0.2-0.1-0.3-0.3-0.3-0.5v-0.8l-2.1,2.1c-0.2,0.2-0.5,0.2-0.7,0
			l-0.7-0.7l-3.7,1.8C-474.8,760-474.9,760-475,760z M-479,757c0.1,0,0.2,0,0.2,0.1l3.8,1.9l3.8-1.9c0.2-0.1,0.4-0.1,0.6,0.1
			l0.6,0.6l2.6-2.6c0.1-0.1,0.4-0.2,0.5-0.1c0.2,0.1,0.3,0.3,0.3,0.5v0.3c0.8-1.6,2-4.9,2-10.3c0-6.9-5.9-8.5-7-8.5
			c-1.7,0-2.3,0.1-3.3,0.5c-0.1,0-0.2,0-0.3,0c-1.1-0.3-1.6-0.5-3.3-0.5c-1.1,0-7,1.6-7,8.5c0,5.4,1.2,8.7,2,10.3v-0.3
			c0-0.2,0.1-0.4,0.3-0.5c0.2-0.1,0.4,0,0.5,0.1l2.6,2.6l0.6-0.6C-479.3,757-479.1,757-479,757z"/>
	</g>
</g>
</svg>
