<?xml version="1.0" encoding="utf-8"?>
<!-- Generator: Adobe Illustrator 19.0.1, SVG Export Plug-In . SVG Version: 6.00 Build 0)  -->
<svg version="1.1" id="Слой_1" xmlns="http://www.w3.org/2000/svg" xmlns:xlink="http://www.w3.org/1999/xlink" x="0px" y="0px"
	 viewBox="-487 736 24 30" style="enable-background:new -487 736 24 30;" xml:space="preserve">
<g>
	<g>
		<path d="M-475,760c-4.6,0-8.5-7.7-8.5-12.5c0-4.7,3.8-8.5,8.5-8.5s8.5,3.8,8.5,8.5C-466.5,752.3-470.4,760-475,760z M-475,740
			c-4.1,0-7.5,3.4-7.5,7.5c0,4.3,3.5,11.5,7.5,11.5s7.5-7.2,7.5-11.5C-467.5,743.4-470.9,740-475,740z"/>
	</g>
	<g>
		<path d="M-478.4,739.1c-0.2,0-0.5,0-0.8-0.1c-0.3-0.1-0.4-0.4-0.3-0.6c0.1-0.3,0.4-0.4,0.6-0.3c0.7,0.2,1.3-0.1,1.5-0.3
			c0.3-0.3,0.4-0.5,0.4-0.6c-0.1-0.3,0.1-0.5,0.3-0.6c0.3-0.1,0.5,0.1,0.6,0.3c0.1,0.4,0,1-0.5,1.5
			C-476.9,738.7-477.6,739.1-478.4,739.1z"/>
	</g>
	<g>
		<path d="M-471,741c-0.1,0-0.3,0-0.4-0.1c-0.2-0.2-0.2-0.5,0-0.7c0.2-0.2,0.5-0.9,0.1-1.6c-0.4-1-1.8-1.5-3.8-1.5s-3.4,0.5-3.8,1.5
			c-0.3,0.7,0,1.5,0.1,1.6c0.2,0.2,0.2,0.5,0,0.7s-0.5,0.2-0.7,0c-0.5-0.5-0.8-1.7-0.4-2.7c0.4-1,1.6-2.1,4.7-2.1s4.3,1.2,4.7,2.1
			c0.4,1,0.1,2.2-0.4,2.7C-470.7,741-470.9,741-471,741z"/>
	</g>
	<g>
		<path d="M-471.6,739.1c-0.8,0-1.5-0.4-1.9-0.8c-0.4-0.5-0.6-1-0.5-1.5c0.1-0.3,0.4-0.4,0.6-0.3c0.3,0.1,0.4,0.4,0.3,0.6
			c0,0.1,0.1,0.3,0.4,0.6c0.2,0.2,0.7,0.5,1.5,0.3c0.3-0.1,0.5,0.1,0.6,0.3c0.1,0.3-0.1,0.5-0.3,0.6
			C-471.1,739.1-471.4,739.1-471.6,739.1z"/>
	</g>
	<g>
		<path d="M-475,760c-0.3,0-0.5-0.2-0.5-0.5v-20c0-0.3,0.2-0.5,0.5-0.5s0.5,0.2,0.5,0.5v20C-474.5,759.8-474.7,760-475,760z"/>
	</g>
	<g>
		<path d="M-475,746c-1.4,0-2.5-1.1-2.5-2.5s1.1-2.5,2.5-2.5s2.5,1.1,2.5,2.5S-473.6,746-475,746z M-475,742c-0.8,0-1.5,0.7-1.5,1.5
			s0.7,1.5,1.5,1.5s1.5-0.7,1.5-1.5S-474.2,742-475,742z"/>
	</g>
	<g>
		<path d="M-479,751c-1.4,0-2.5-1.1-2.5-2.5s1.1-2.5,2.5-2.5s2.5,1.1,2.5,2.5S-477.6,751-479,751z M-479,747c-0.8,0-1.5,0.7-1.5,1.5
			s0.7,1.5,1.5,1.5s1.5-0.7,1.5-1.5S-478.2,747-479,747z"/>
	</g>
	<g>
		<path d="M-478.5,757c-1.4,0-2.5-1.1-2.5-2.5s1.1-2.5,2.5-2.5s2.5,1.1,2.5,2.5S-477.1,757-478.5,757z M-478.5,753
			c-0.8,0-1.5,0.7-1.5,1.5s0.7,1.5,1.5,1.5s1.5-0.7,1.5-1.5S-477.7,753-478.5,753z"/>
	</g>
	<g>
		<path d="M-471,751c-1.4,0-2.5-1.1-2.5-2.5s1.1-2.5,2.5-2.5s2.5,1.1,2.5,2.5S-469.6,751-471,751z M-471,747c-0.8,0-1.5,0.7-1.5,1.5
			s0.7,1.5,1.5,1.5s1.5-0.7,1.5-1.5S-470.2,747-471,747z"/>
	</g>
	<g>
		<path d="M-471.5,757c-1.4,0-2.5-1.1-2.5-2.5s1.1-2.5,2.5-2.5s2.5,1.1,2.5,2.5S-470.1,757-471.5,757z M-471.5,753
			c-0.8,0-1.5,0.7-1.5,1.5s0.7,1.5,1.5,1.5s1.5-0.7,1.5-1.5S-470.7,753-471.5,753z"/>
	</g>
	<g>
		<path d="M-482,744c-0.2,0-0.3-0.1-0.4-0.2c-0.4-0.5-1.6-1.8-2.6-1.8c-0.3,0-0.5-0.2-0.5-0.5s0.2-0.5,0.5-0.5c1.7,0,3.2,2,3.4,2.2
			c0.2,0.2,0.1,0.5-0.1,0.7C-481.8,744-481.9,744-482,744z"/>
	</g>
	<g>
		<path d="M-486,750c-0.3,0-0.5-0.2-0.5-0.5c0-0.3,0.1-0.6,0.4-0.9c0.8-0.8,2.8-0.6,3.1-0.6c0.3,0,0.5,0.3,0.5,0.5
			c0,0.3-0.3,0.5-0.5,0.5c-0.8-0.1-2,0-2.4,0.3c-0.1,0.1-0.1,0.1-0.1,0.2C-485.5,749.8-485.7,750-486,750z"/>
	</g>
	<g>
		<path d="M-484,757c-0.3,0-0.5-0.2-0.5-0.5c0-1.6,2.8-2.3,3.4-2.5c0.3-0.1,0.5,0.1,0.6,0.4c0.1,0.3-0.1,0.5-0.4,0.6
			c-1.1,0.3-2.6,1-2.6,1.5C-483.5,756.8-483.7,757-484,757z"/>
	</g>
	<g>
		<path d="M-468,744c-0.1,0-0.2,0-0.3-0.1c-0.2-0.2-0.3-0.5-0.1-0.7c0.2-0.2,1.7-2.2,3.4-2.2c0.3,0,0.5,0.2,0.5,0.5
			s-0.2,0.5-0.5,0.5c-1,0-2.2,1.3-2.6,1.8C-467.7,743.9-467.8,744-468,744z"/>
	</g>
	<g>
		<path d="M-464,750c-0.3,0-0.5-0.2-0.5-0.5c0-0.1,0-0.1-0.1-0.2c-0.4-0.3-1.6-0.4-2.4-0.3c-0.3,0-0.5-0.2-0.5-0.5
			c0-0.3,0.2-0.5,0.5-0.5c0.4,0,2.3-0.2,3.1,0.6c0.3,0.2,0.4,0.5,0.4,0.9C-463.5,749.8-463.7,750-464,750z"/>
	</g>
	<g>
		<path d="M-466,757c-0.3,0-0.5-0.2-0.5-0.5c0-0.6-1.5-1.2-2.6-1.5c-0.3-0.1-0.4-0.3-0.4-0.6c0.1-0.3,0.3-0.4,0.6-0.4
			c0.6,0.1,3.4,0.9,3.4,2.5C-465.5,756.8-465.7,757-466,757z"/>
	</g>
</g>
</svg>
