<?xml version="1.0" encoding="utf-8"?>
<!-- Generator: Adobe Illustrator 19.0.1, SVG Export Plug-In . SVG Version: 6.00 Build 0)  -->
<svg version="1.1" id="Слой_1" xmlns="http://www.w3.org/2000/svg" xmlns:xlink="http://www.w3.org/1999/xlink" x="0px" y="0px"
	 viewBox="-487 736 24 30" style="enable-background:new -487 736 24 30;" xml:space="preserve">
<g>
	<g>
		<path d="M-482.6,748.4c-1.1,0-2.1-0.2-2.8-0.7c-0.7-0.5-1.1-1.3-1.1-2.2c0-1.2,0.6-1.8,1-2.1c2.4-1.5,8,0.8,8.7,1.1
			c0.3,0.1,0.4,0.4,0.3,0.7c-0.1,0.3-0.4,0.4-0.7,0.3c-1.6-0.7-6.1-2.3-7.7-1.2c-0.4,0.3-0.6,0.7-0.6,1.2c0,0.6,0.2,1.1,0.7,1.4
			c1.6,1.1,5.7,0.1,7.2-0.4c0.3-0.1,0.5,0.1,0.6,0.3c0.1,0.3,0,0.5-0.3,0.6C-477.5,747.5-480.2,748.4-482.6,748.4z"/>
	</g>
	<g>
		<path d="M-476.5,745c-0.1,0-0.2,0-0.3-0.1l-3-2c-0.1-0.1-0.2-0.2-0.2-0.3l-1.5-4.4l-0.9-0.9c-0.2-0.2-0.2-0.5,0-0.7
			c0.2-0.2,0.5-0.2,0.7,0l1,1c0.1,0.1,0.1,0.1,0.1,0.2l1.4,4.3l2.9,1.9c0.2,0.2,0.3,0.5,0.1,0.7C-476.2,744.9-476.3,745-476.5,745z"
			/>
	</g>
	<g>
		<path d="M-483,755.5c-0.3,0-0.5-0.2-0.5-0.5s0.2-0.5,0.5-0.5c1.8,0,2.4-4.1,2.5-5.5c0-0.2,0.1-0.4,0.3-0.4l2.5-1
			c0.3-0.1,0.5,0,0.6,0.3c0.1,0.3,0,0.5-0.3,0.7l-2.2,0.9C-479.6,750.7-480.2,755.5-483,755.5z"/>
	</g>
	<g>
		<path d="M-482,759.5c-0.2,0-0.4-0.1-0.4-0.3c-0.1-0.2,0-0.5,0.2-0.7c0.7-0.4,1.7-1.5,1.7-2.6c0-1.4,2-6.8,3.3-7.4
			c0.2-0.1,0.5,0,0.7,0.2c0.1,0.2,0,0.5-0.2,0.7c-0.8,0.4-2.7,5.3-2.7,6.6c0,1.5-1.4,3-2.3,3.4C-481.8,759.5-481.9,759.5-482,759.5z
			"/>
	</g>
	<g>
		<path d="M-475,757.5c-0.5,0-0.9-0.2-1.2-0.6c-1.3-1.5-0.9-6-0.8-6.9l-1-3.4c0-0.1,0-0.3,0.1-0.4l1.5-2.5c0.1-0.2,0.3-0.2,0.4-0.2
			h2c0.2,0,0.3,0.1,0.4,0.2l1.5,2.5c0.1,0.1,0.1,0.3,0.1,0.4l-1,3.4c0.1,0.9,0.5,5.4-0.8,6.9C-474.1,757.3-474.5,757.5-475,757.5z
			 M-477,746.6l0.9,3.3c0,0.1,0,0.1,0,0.2c-0.2,1.9-0.3,5.3,0.6,6.2c0.3,0.3,0.6,0.3,0.9,0c0.8-0.9,0.8-4.3,0.6-6.2
			c0-0.1,0-0.1,0-0.2l0.9-3.3l-1.2-2.1h-1.4L-477,746.6z"/>
	</g>
	<g>
		<path d="M-474,744.5c-0.1,0-0.3,0-0.4-0.1c-0.2-0.2-0.2-0.5,0-0.7c0.3-0.3,0.4-0.6,0.4-1.1c0-0.3-0.2-1-1-1s-1,0.7-1,1
			c0,0.6,0.1,0.9,0.4,1.1c0.2,0.2,0.2,0.5,0,0.7c-0.2,0.2-0.5,0.2-0.7,0c-0.6-0.6-0.6-1.2-0.6-1.9c0-0.8,0.6-2,2-2s2,1.2,2,2
			c0,0.6-0.1,1.3-0.6,1.9C-473.7,744.5-473.9,744.5-474,744.5z"/>
	</g>
	<g>
		<path d="M-467.4,748.4c-2.4,0-5.1-0.9-5.3-1c-0.3-0.1-0.4-0.4-0.3-0.6c0.1-0.3,0.4-0.4,0.6-0.3c1.5,0.5,5.6,1.5,7.2,0.4
			c0.4-0.3,0.7-0.8,0.7-1.4c0-0.6-0.2-1-0.6-1.2c-1.6-1.1-6.1,0.5-7.7,1.2c-0.3,0.1-0.5,0-0.7-0.3c-0.1-0.3,0-0.5,0.3-0.7
			c0.6-0.3,6.3-2.7,8.7-1.1c0.5,0.3,1,0.9,1,2.1c0,1-0.4,1.7-1.1,2.2C-465.3,748.3-466.3,748.4-467.4,748.4z"/>
	</g>
	<g>
		<path d="M-473.5,745c-0.2,0-0.3-0.1-0.4-0.2c-0.2-0.2-0.1-0.5,0.1-0.7l2.9-1.9l1.4-4.3c0-0.1,0.1-0.1,0.1-0.2l1-1
			c0.2-0.2,0.5-0.2,0.7,0c0.2,0.2,0.2,0.5,0,0.7l-0.9,0.9l-1.5,4.4c0,0.1-0.1,0.2-0.2,0.3l-3,2C-473.3,745-473.4,745-473.5,745z"/>
	</g>
	<g>
		<path d="M-467,755.5c-2.8,0-3.4-4.8-3.5-6.2l-2.2-0.9c-0.3-0.1-0.4-0.4-0.3-0.6c0.1-0.3,0.4-0.4,0.6-0.3l2.5,1
			c0.2,0.1,0.3,0.2,0.3,0.4c0.1,1.4,0.7,5.5,2.5,5.5c0.3,0,0.5,0.2,0.5,0.5S-466.7,755.5-467,755.5z"/>
	</g>
	<g>
		<path d="M-468,759.5c-0.1,0-0.2,0-0.2-0.1c-0.9-0.5-2.3-1.9-2.3-3.4c0-1.3-1.9-6.1-2.7-6.6c-0.2-0.1-0.3-0.4-0.2-0.7
			c0.1-0.2,0.4-0.3,0.7-0.2c1.3,0.7,3.3,6.1,3.3,7.4c0,1,1,2.2,1.7,2.6c0.2,0.1,0.3,0.4,0.2,0.7C-467.6,759.4-467.8,759.5-468,759.5
			z"/>
	</g>
	<g>
		<path d="M-475,741.5c-0.3,0-0.5-0.2-0.5-0.5v-2c0-0.3,0.2-0.5,0.5-0.5s0.5,0.2,0.5,0.5v2C-474.5,741.3-474.7,741.5-475,741.5z"/>
	</g>
</g>
</svg>
