<?xml version="1.0" encoding="utf-8"?>
<!-- Generator: Adobe Illustrator 19.0.1, SVG Export Plug-In . SVG Version: 6.00 Build 0)  -->
<svg version="1.1" id="Слой_1" xmlns="http://www.w3.org/2000/svg" xmlns:xlink="http://www.w3.org/1999/xlink" x="0px" y="0px"
	 viewBox="-487 736 24 30" style="enable-background:new -487 736 24 30;" xml:space="preserve">
<g>
	<g>
		<path d="M-482.5,747.5c-0.1,0-0.2,0-0.3-0.1c-3.5-2.2-3.7-10.1-3.7-10.4c0-0.2,0.1-0.4,0.3-0.5s0.4-0.1,0.5,0.1l5.5,5
			c0.2,0.2,0.2,0.5,0,0.7c-0.2,0.2-0.5,0.2-0.7,0l-4.6-4.2c0.2,2.2,0.9,6.9,3.2,8.4c0.2,0.1,0.3,0.5,0.2,0.7
			C-482.2,747.4-482.3,747.5-482.5,747.5z"/>
	</g>
	<g>
		<path d="M-475,759.5c-2.8,0-8.5-6.7-8.5-10c0-1.2,0.3-2.3,1.1-3.7c0.1-0.2,0.4-0.3,0.7-0.2c0.2,0.1,0.3,0.4,0.2,0.7
			c-0.7,1.3-0.9,2.2-0.9,3.3c0,2.7,5.3,9,7.5,9c0.3,0,0.5,0.2,0.5,0.5S-474.7,759.5-475,759.5z"/>
	</g>
	<g>
		<path d="M-480.5,743.5c-0.1,0-0.3,0-0.4-0.1c-0.2-0.2-0.2-0.5,0-0.7c0.1-0.1,0.2-0.3,0.4-0.4c0.7-0.9,1.8-2.2,5.5-2.2
			c0.3,0,0.5,0.2,0.5,0.5s-0.2,0.5-0.5,0.5c-3.2,0-4,1-4.7,1.9c-0.1,0.2-0.3,0.4-0.4,0.5C-480.2,743.5-480.4,743.5-480.5,743.5z"/>
	</g>
	<g>
		<path d="M-477.8,750.5c-1.5,0-2.8-1.2-2.8-2.8c0-0.2,0-0.5,0.1-0.8c0-0.2,0.2-0.3,0.3-0.3c0.3-0.1,0.5-0.1,0.8-0.1
			c1.5,0,2.8,1.2,2.8,2.8c0,0.2,0,0.5-0.1,0.8c0,0.2-0.2,0.3-0.3,0.3C-477.2,750.5-477.5,750.5-477.8,750.5z M-479.5,747.5
			c0,0.1,0,0.2,0,0.2c0,1,0.8,1.8,1.8,1.8c0.1,0,0.1,0,0.2,0c0-0.1,0-0.2,0-0.2c0-1-0.8-1.8-1.8-1.8
			C-479.3,747.5-479.4,747.5-479.5,747.5z"/>
	</g>
	<g>
		<path d="M-476,756.5c-0.3,0-0.5-0.2-0.5-0.5s0.2-0.5,0.5-0.5c0.4,0,0.5-0.5,0.5-0.6l0-0.8l-0.9-1.4c-0.1-0.2-0.1-0.4,0-0.5
			c0.2-0.3,0.7-0.7,1.4-0.7c0.3,0,0.5,0.2,0.5,0.5s-0.2,0.5-0.5,0.5c-0.1,0-0.3,0-0.3,0.1l0.8,1.1c0.1,0.1,0.1,0.2,0.1,0.3v1
			C-474.6,755.6-475,756.5-476,756.5z"/>
	</g>
	<g>
		<path d="M-474,756.5c-1,0-1.4-0.9-1.5-1.4l0-1.1c0-0.1,0-0.2,0.1-0.3l0.8-1.1c-0.1,0-0.2-0.1-0.3-0.1c-0.3,0-0.5-0.2-0.5-0.5
			s0.2-0.5,0.5-0.5c0.8,0,1.3,0.5,1.4,0.7c0.1,0.2,0.1,0.4,0,0.5l-0.9,1.4v0.8l0,0c0,0,0.1,0.5,0.5,0.5c0.3,0,0.5,0.2,0.5,0.5
			S-473.7,756.5-474,756.5z"/>
	</g>
	<g>
		<path d="M-485,755.5c-0.1,0-0.3,0-0.4-0.1c-0.2-0.2-0.2-0.5,0-0.7c1.9-1.9,5.9-2.8,7.5-2.1c0.3,0.1,0.4,0.4,0.3,0.6
			c-0.1,0.3-0.4,0.4-0.6,0.3c-1.2-0.5-4.8,0.2-6.5,1.9C-484.7,755.5-484.9,755.5-485,755.5z"/>
	</g>
	<g>
		<path d="M-484,758.5c-0.1,0-0.2,0-0.2-0.1c-0.2-0.1-0.3-0.4-0.2-0.7c1.5-2.8,5-3.9,6.6-3.2c0.3,0.1,0.4,0.4,0.3,0.7
			c-0.1,0.3-0.4,0.4-0.6,0.3c-1.1-0.5-4.1,0.4-5.4,2.8C-483.6,758.4-483.8,758.5-484,758.5z"/>
	</g>
	<g>
		<path d="M-467.5,746.5c-0.2,0-0.3-0.1-0.4-0.2c-0.1-0.2-0.1-0.5,0.2-0.7c2.2-1.4,2.9-5.3,3.2-7.4l-4.6,4.2c-0.2,0.2-0.5,0.2-0.7,0
			c-0.2-0.2-0.2-0.5,0-0.7l5.5-5c0.1-0.1,0.4-0.2,0.5-0.1c0.2,0.1,0.3,0.3,0.3,0.5c0,0.3-0.2,7.2-3.7,9.4
			C-467.3,746.5-467.4,746.5-467.5,746.5z"/>
	</g>
	<g>
		<path d="M-475,759.5c-0.3,0-0.5-0.2-0.5-0.5s0.2-0.5,0.5-0.5c2.2,0,7.5-6.3,7.5-9c0-1.1-0.3-2-0.9-3.3c-0.1-0.2,0-0.5,0.2-0.7
			c0.2-0.1,0.5,0,0.7,0.2c0.7,1.4,1.1,2.5,1.1,3.7C-466.5,752.8-472.2,759.5-475,759.5z"/>
	</g>
	<g>
		<path d="M-469.5,743.5c-0.1,0-0.3,0-0.4-0.1c-0.1-0.1-0.3-0.3-0.4-0.5c-0.7-0.8-1.5-1.9-4.7-1.9c-0.3,0-0.5-0.2-0.5-0.5
			s0.2-0.5,0.5-0.5c3.7,0,4.8,1.3,5.5,2.2c0.1,0.2,0.2,0.3,0.4,0.4c0.2,0.2,0.2,0.5,0,0.7C-469.2,743.5-469.4,743.5-469.5,743.5z"/>
	</g>
	<g>
		<path d="M-472.3,750.5c-0.2,0-0.5,0-0.8-0.1c-0.2,0-0.3-0.2-0.3-0.3c-0.1-0.3-0.1-0.5-0.1-0.8c0-1.5,1.2-2.8,2.8-2.8
			c0.2,0,0.5,0,0.8,0.1c0.2,0,0.3,0.2,0.3,0.3c0.1,0.3,0.1,0.5,0.1,0.8C-469.5,749.3-470.7,750.5-472.3,750.5z M-472.5,749.5
			c0.1,0,0.2,0,0.2,0c1,0,1.8-0.8,1.8-1.8c0-0.1,0-0.1,0-0.2c-0.1,0-0.2,0-0.2,0c-1,0-1.8,0.8-1.8,1.8
			C-472.5,749.3-472.5,749.4-472.5,749.5z"/>
	</g>
	<g>
		<path d="M-465,755.5c-0.1,0-0.3,0-0.4-0.1c-1.6-1.6-5.2-2.4-6.5-1.9c-0.3,0.1-0.5,0-0.6-0.3c-0.1-0.3,0-0.5,0.3-0.6
			c1.7-0.7,5.7,0.3,7.5,2.1c0.2,0.2,0.2,0.5,0,0.7C-464.7,755.5-464.9,755.5-465,755.5z"/>
	</g>
	<g>
		<path d="M-466,758.5c-0.2,0-0.4-0.1-0.4-0.3c-1.3-2.4-4.2-3.2-5.4-2.8c-0.3,0.1-0.5,0-0.6-0.3c-0.1-0.3,0-0.5,0.3-0.7
			c1.6-0.6,5.1,0.4,6.6,3.2c0.1,0.2,0,0.5-0.2,0.7C-465.8,758.5-465.9,758.5-466,758.5z"/>
	</g>
</g>
</svg>
