<?xml version="1.0" encoding="utf-8"?>
<!-- Generator: Adobe Illustrator 19.0.1, SVG Export Plug-In . SVG Version: 6.00 Build 0)  -->
<svg version="1.1" id="Слой_1" xmlns="http://www.w3.org/2000/svg" xmlns:xlink="http://www.w3.org/1999/xlink" x="0px" y="0px"
	 viewBox="-487 736 24 30" style="enable-background:new -487 736 24 30;" xml:space="preserve">
<g>
	<g>
		<path d="M-480,743.5c-0.1,0-0.3-0.1-0.4-0.2c-0.1-0.1-0.4-0.3-0.6-0.3c-1.1,0-1.8-1.4-1.8-3.7c0-0.8,0.1-1.5,0.2-2
			c0.2-0.8,0.6-1.2,1.1-1.2c1.2,0,2,1.3,2,3.5c0,1.2,1.3,2.1,1.3,2.1c0.2,0.2,0.3,0.5,0.1,0.7c-0.2,0.2-0.5,0.3-0.7,0.1
			c-0.1,0-1.7-1.2-1.7-2.9c0-1.2-0.3-2.4-0.9-2.5c-0.4,0.5-0.6,3-0.1,4.4c0.1,0.2,0.3,0.6,0.5,0.6c0.8,0,1.3,0.6,1.4,0.7
			c0.2,0.2,0.2,0.5,0,0.7C-479.8,743.5-479.9,743.5-480,743.5z"/>
	</g>
	<g>
		<path d="M-470,743.5c-0.1,0-0.2,0-0.3-0.1c-0.2-0.2-0.2-0.5,0-0.7c0.1-0.1,0.6-0.7,1.4-0.7c0.2,0,0.4-0.4,0.5-0.6
			c0.5-1.4,0.3-3.9-0.1-4.4c-0.6,0.1-0.9,1.3-0.9,2.5c0,1.7-1.6,2.9-1.7,2.9c-0.2,0.2-0.5,0.1-0.7-0.1c-0.2-0.2-0.1-0.5,0.1-0.7
			c0,0,1.3-0.9,1.3-2.1c0-2.2,0.8-3.5,2-3.5c1.2,0,1.3,2.5,1.3,3.3c0,0.9-0.1,1.7-0.3,2.4c-0.4,1.1-1,1.4-1.5,1.4
			c-0.3,0-0.5,0.2-0.6,0.3C-469.7,743.4-469.9,743.5-470,743.5z"/>
	</g>
	<g>
		<path d="M-477.5,758c-2.6,0-3.8-7-4-8.4c0-0.3,0.1-0.5,0.4-0.6c0.3,0,0.5,0.2,0.6,0.4c0.4,3.1,1.7,7.6,3,7.6c1.5,0,1.9-1.1,2-2.1
			c-0.3-0.1-0.7-0.3-1-0.5v0c0,0.3-0.2,0.5-0.5,0.5s-0.5-0.2-0.5-0.5v-1c0-0.2,0.1-0.4,0.3-0.5c0.2-0.1,0.4-0.1,0.5,0.1
			c0.5,0.4,1.3,0.9,1.7,0.9c0.3,0,0.5,0.2,0.5,0.5C-474.5,756.7-475.6,758-477.5,758z"/>
	</g>
	<g>
		<path d="M-477,751c-0.1,0-0.1,0-0.2,0c-0.3-0.1-0.4-0.4-0.3-0.6l1-3c0.1-0.3,0.4-0.4,0.6-0.3c0.3,0.1,0.4,0.4,0.3,0.6l-1,3
			C-476.6,750.9-476.8,751-477,751z"/>
	</g>
	<g>
		<path d="M-479,746c-0.1,0-0.3,0-0.4-0.1c-0.2-0.2-1-0.3-1.7-0.4c-0.3,0-0.5-0.2-0.5-0.5c0-0.3,0.2-0.5,0.5-0.5
			c0.4,0,1.8,0.1,2.3,0.6c0.2,0.2,0.2,0.5,0,0.7C-478.7,746-478.9,746-479,746z"/>
	</g>
	<g>
		<path d="M-480.5,748.5c-0.4,0-0.6-0.2-0.7-0.3c-0.3-0.3-0.3-0.7-0.3-0.7c0-0.3,0.2-0.5,0.5-0.5h1c0.3,0,0.5,0.2,0.5,0.5
			c0,0.1,0,0.4-0.3,0.7C-479.9,748.3-480.1,748.5-480.5,748.5z"/>
	</g>
	<g>
		<path d="M-470,750c-0.3,0-0.5-0.2-0.5-0.5s0.2-0.5,0.5-0.5c1.8,0,2.5-0.6,2.5-2c0-0.8-0.5-1-1.3-1.4c-0.8-0.4-1.7-0.8-1.7-2.1
			c0-0.6-2.6-1.5-4.5-1.5s-4.5,0.9-4.5,1.5c0,1.3-1,1.7-1.7,2.1c-0.8,0.4-1.3,0.6-1.3,1.4c0,1.4,0.7,2,2.5,2c0.3,0,0.5,0.2,0.5,0.5
			s-0.2,0.5-0.5,0.5c-2.3,0-3.5-1-3.5-3c0-1.4,1.1-1.9,1.8-2.3c0.8-0.4,1.2-0.6,1.2-1.2c0-1.9,4.3-2.5,5.5-2.5s5.5,0.6,5.5,2.5
			c0,0.6,0.4,0.8,1.2,1.2c0.8,0.4,1.8,0.9,1.8,2.3C-466.5,749-467.7,750-470,750z"/>
	</g>
	<g>
		<path d="M-472.5,758c-1.9,0-3-1.3-3-3.5c0-0.3,0.2-0.5,0.5-0.5c0.4,0,1.2-0.5,1.7-0.9c0.2-0.1,0.4-0.1,0.5-0.1
			c0.2,0.1,0.3,0.3,0.3,0.5v1c0,0.3-0.2,0.5-0.5,0.5s-0.5-0.2-0.5-0.5v0c-0.3,0.2-0.6,0.4-1,0.5c0.1,1,0.5,2.1,2,2.1
			c1.3,0,2.6-4.5,3-7.6c0-0.3,0.3-0.5,0.6-0.4c0.3,0,0.5,0.3,0.4,0.6C-468.7,751-469.9,758-472.5,758z"/>
	</g>
	<g>
		<path d="M-475,760c-1.8,0-2.5-1.5-2.5-2.5c0-0.3,0.2-0.5,0.5-0.5s0.5,0.2,0.5,0.5c0,0,0,1.5,1.5,1.5s1.5-1.5,1.5-1.5
			c0-0.3,0.2-0.5,0.5-0.5s0.5,0.2,0.5,0.5C-472.5,758.5-473.2,760-475,760z"/>
	</g>
	<g>
		<path d="M-473,751c-0.2,0-0.4-0.1-0.5-0.3l-1-3c-0.1-0.3,0.1-0.5,0.3-0.6c0.3-0.1,0.5,0.1,0.6,0.3l1,3c0.1,0.3-0.1,0.5-0.3,0.6
			C-472.9,751-472.9,751-473,751z"/>
	</g>
	<g>
		<path d="M-471,746c-0.1,0-0.3,0-0.4-0.1c-0.2-0.2-0.2-0.5,0-0.7c0.5-0.6,1.9-0.6,2.3-0.6c0.3,0,0.5,0.2,0.5,0.5
			c0,0.3-0.2,0.5-0.5,0.5c-0.6,0-1.5,0.2-1.7,0.4C-470.7,746-470.9,746-471,746z"/>
	</g>
	<g>
		<path d="M-469.5,748.5c-0.4,0-0.6-0.2-0.7-0.3c-0.3-0.3-0.3-0.7-0.3-0.7c0-0.3,0.2-0.5,0.5-0.5h1c0.3,0,0.5,0.2,0.5,0.5
			c0,0.1,0,0.4-0.3,0.7C-468.9,748.3-469.1,748.5-469.5,748.5z"/>
	</g>
</g>
</svg>
