<?xml version="1.0" encoding="utf-8"?>
<!-- Generator: Adobe Illustrator 19.0.1, SVG Export Plug-In . SVG Version: 6.00 Build 0)  -->
<svg version="1.1" id="Слой_1" xmlns="http://www.w3.org/2000/svg" xmlns:xlink="http://www.w3.org/1999/xlink" x="0px" y="0px"
	 viewBox="-487 736 24 30" style="enable-background:new -487 736 24 30;" xml:space="preserve">
<g>
	<g>
		<path d="M-478,753c-0.8,0-1.5-0.9-1.5-2s0.7-2,1.5-2s1.5,0.9,1.5,2S-477.2,753-478,753z M-478,750c-0.2,0-0.5,0.4-0.5,1
			s0.3,1,0.5,1s0.5-0.4,0.5-1S-477.8,750-478,750z"/>
	</g>
	<g>
		<path d="M-480.5,749c-0.1,0-0.3,0-0.4-0.1c-2.6-2.6-2.6-7.4-2.6-12.4c0-0.3,0.2-0.5,0.5-0.5c4.9,0,6,7.4,6,10
			c0,0.3-0.2,0.5-0.5,0.5s-0.5-0.2-0.5-0.5c0-1.8-0.8-8.4-4.5-9c0,4.6,0.1,8.8,2.4,11.1c0.2,0.2,0.2,0.5,0,0.7
			C-480.2,749-480.4,749-480.5,749z"/>
	</g>
	<g>
		<path d="M-479.5,748c-0.2,0-0.4-0.1-0.4-0.3c-0.1-0.1-1.6-3.1-1.6-7.2c0-0.5,0.4-0.6,0.4-0.6c0.5-0.1,0.7-0.1,3,6.4
			c0.1,0.3,0,0.5-0.3,0.6c-0.3,0.1-0.5,0-0.6-0.3c-0.4-1.2-0.9-2.5-1.3-3.6c0.4,2.5,1.2,4.2,1.2,4.2c0.1,0.2,0,0.5-0.2,0.7
			C-479.3,748-479.4,748-479.5,748z"/>
	</g>
	<g>
		<path d="M-475,760c-2.2,0-3.2-1.2-3.4-2.1c-0.9-0.3-3.6-1.6-3.6-4.4c0-4,2.9-8.5,7-8.5s7,4.5,7,8.5c0,2.8-2.7,4-3.6,4.4
			C-471.8,758.8-472.8,760-475,760z M-475,746c-3.5,0-6,4-6,7.5c0,2.6,3.1,3.5,3.1,3.5c0.2,0.1,0.3,0.2,0.4,0.4
			c0,0.2,0.3,1.6,2.5,1.6s2.5-1.4,2.5-1.6c0-0.2,0.2-0.4,0.4-0.4c0,0,3.1-1,3.1-3.5C-469,750-471.5,746-475,746z"/>
	</g>
	<g>
		<path d="M-474,758c-0.1,0-0.3,0-0.4-0.1l-0.6-0.6l-0.6,0.6c-0.2,0.2-0.5,0.2-0.7,0c-0.2-0.2-0.2-0.5,0-0.7l0.5-0.5l-0.4-0.2
			c-0.1-0.1-0.2-0.2-0.3-0.3c0-0.1,0-0.3,0.1-0.4c0.1-0.1,0.6-0.7,1.4-0.7s1.3,0.6,1.4,0.7c0.1,0.1,0.1,0.3,0.1,0.4
			c0,0.1-0.1,0.3-0.3,0.3l-0.4,0.2l0.5,0.5c0.2,0.2,0.2,0.5,0,0.7C-473.7,758-473.9,758-474,758z"/>
	</g>
	<g>
		<path d="M-472,753c-0.8,0-1.5-0.9-1.5-2s0.7-2,1.5-2s1.5,0.9,1.5,2S-471.2,753-472,753z M-472,750c-0.2,0-0.5,0.4-0.5,1
			s0.3,1,0.5,1s0.5-0.4,0.5-1S-471.8,750-472,750z"/>
	</g>
	<g>
		<path d="M-469.5,749c-0.1,0-0.3,0-0.4-0.1c-0.2-0.2-0.2-0.5,0-0.7c2.3-2.3,2.4-6.5,2.4-11.1c-3.7,0.5-4.5,7.1-4.5,9
			c0,0.3-0.2,0.5-0.5,0.5s-0.5-0.2-0.5-0.5c0-2.6,1.1-10,6-10c0.3,0,0.5,0.2,0.5,0.5c0,5,0,9.7-2.6,12.4
			C-469.2,749-469.4,749-469.5,749z"/>
	</g>
	<g>
		<path d="M-470.5,748c-0.1,0-0.2,0-0.2-0.1c-0.2-0.1-0.3-0.4-0.2-0.7c0,0,0.8-1.7,1.2-4.2c-0.4,1.1-0.9,2.4-1.3,3.6
			c-0.1,0.3-0.4,0.4-0.6,0.3c-0.3-0.1-0.4-0.4-0.3-0.6c2.3-6.6,2.5-6.5,3-6.4c0.1,0,0.5,0.1,0.5,0.6c0,4.1-1.5,7.1-1.6,7.2
			C-470.1,747.9-470.3,748-470.5,748z"/>
	</g>
</g>
</svg>
