<?xml version="1.0" encoding="utf-8"?>
<!-- Generator: Adobe Illustrator 19.0.1, SVG Export Plug-In . SVG Version: 6.00 Build 0)  -->
<svg version="1.1" id="Слой_1" xmlns="http://www.w3.org/2000/svg" xmlns:xlink="http://www.w3.org/1999/xlink" x="0px" y="0px"
	 viewBox="-487 736 24 30" style="enable-background:new -487 736 24 30;" xml:space="preserve">
<g>
	<g>
		<path d="M-482.2,751.6c-0.3,0-0.6-0.1-0.9-0.2c-1.6-0.5-3.3-3.4-3.3-7.5c0-4.5,2.3-6.5,4.5-6.5c3.4,0,5.5,2,5.5,3.5
			c0,0.3-0.2,0.5-0.5,0.5s-0.5-0.2-0.5-0.5c0-0.8-1.6-2.5-4.5-2.5c-2.1,0-3.5,2.2-3.5,5.5c0,3.8,1.6,6.2,2.7,6.5
			c0.5,0.2,1,0.1,1.4-0.2c0.6-0.4,0.9-1.3,0.9-2.4c0-1.9-1-2.5-1.5-2.5c0,0-0.1,0-0.1,0c0.1,0,0.3,0.1,0.4,0.2
			c0.5,0.4,0.7,1,0.7,1.8c0,0.8-0.9,1.5-1.5,1.5c-0.7,0-1.9-0.5-2-4c0-1.5,0.5-2.4,0.9-2.8c0.4-0.5,1-0.7,1.6-0.7
			c1.6,0,2.5,0.8,2.5,1.5c0,0.3-0.2,0.5-0.5,0.5s-0.5-0.2-0.5-0.5c0-0.1-0.5-0.5-1.5-0.5c-0.3,0-0.6,0.2-0.9,0.4
			c-0.3,0.3-0.7,0.9-0.6,2.1c0,0.3,0,0.6,0,0.8c0.1-0.3,0.5-1.3,1.5-1.3c1,0,2.5,1,2.5,3.5c0,1.4-0.5,2.6-1.3,3.2
			C-481.3,751.5-481.7,751.6-482.2,751.6z M-483.4,746.3c0.2,1.3,0.6,1.7,0.9,1.7c0.1,0,0.5-0.3,0.5-0.5c0-0.4-0.1-0.8-0.3-0.9
			c-0.1-0.1-0.3-0.1-0.5-0.1C-483,746.5-483.2,746.5-483.4,746.3C-483.4,746.3-483.4,746.3-483.4,746.3z"/>
	</g>
	<g>
		<path d="M-479,754c-0.3,0-0.5-0.2-0.5-0.5c0-0.4-0.7-1.8-1.4-2.7c-0.2-0.2-0.1-0.5,0.1-0.7c0.2-0.2,0.5-0.1,0.7,0.1
			c0.3,0.4,1.6,2.3,1.6,3.3C-478.5,753.8-478.7,754-479,754z"/>
	</g>
	<g>
		<path d="M-477,747.5c-0.1,0-0.1,0-0.2,0c-0.3-0.1-0.4-0.4-0.3-0.6c0.1-0.2,0.2-0.5,0.3-0.7c0.3-0.6,0.6-1.2,0.6-2.1
			c0-0.3,0.2-0.5,0.5-0.5s0.5,0.2,0.5,0.5c0,1.2-0.4,2-0.7,2.6c-0.1,0.2-0.2,0.4-0.3,0.6C-476.6,747.4-476.8,747.5-477,747.5z"/>
	</g>
	<g>
		<path d="M-475,750.5c-0.3,0-0.5-0.2-0.5-0.5v-2c0-0.3,0.2-0.5,0.5-0.5s0.5,0.2,0.5,0.5v2C-474.5,750.3-474.7,750.5-475,750.5z"/>
	</g>
	<g>
		<circle cx="-478.5" cy="745.5" r="1"/>
	</g>
	<g>
		<path d="M-478.5,742c-0.1,0-0.3,0-0.4-0.1c-1-1-1.7-1.4-2.6-1.4c-0.9,0-1.8,0.4-1.8,0.4c-0.2,0.1-0.5,0-0.7-0.2
			c-0.1-0.2,0-0.5,0.2-0.7c0,0,1-0.6,2.2-0.6c1.2,0,2.2,0.5,3.4,1.6c0.2,0.2,0.2,0.5,0,0.7C-478.2,742-478.4,742-478.5,742z"/>
	</g>
	<g>
		<path d="M-475,758.5c-1.6,0-2.5-0.9-2.5-2.5c0-0.3,0.2-0.5,0.5-0.5s0.5,0.2,0.5,0.5c0,1,0.5,1.5,1.5,1.5s1.5-0.5,1.5-1.5
			c0-0.3,0.2-0.5,0.5-0.5s0.5,0.2,0.5,0.5C-472.5,757.6-473.4,758.5-475,758.5z"/>
	</g>
	<g>
		<path d="M-473.5,756.5c-0.7,0-1.2-0.2-1.5-0.5c-0.3,0.4-0.8,0.5-1.5,0.5c-1.2,0-3-0.7-3-2.5c0-1.6,0.5-3.3,1-5.1
			c0.1-0.3,0.4-0.4,0.6-0.3c0.3,0.1,0.4,0.4,0.3,0.6c-0.5,1.7-1,3.4-1,4.9c0,1.5,2,1.5,2,1.5c0.7,0,1-0.3,1-1c0-0.4-0.2-0.7-0.4-0.9
			c-0.3-0.2-0.6-0.2-0.9-0.1c-0.2,0.1-0.3,0-0.5-0.1c-0.1-0.1-0.2-0.2-0.2-0.4c0-0.5,0.2-1.5,2.5-1.5s2.5,1,2.5,1.5
			c0,0.2-0.1,0.3-0.2,0.4s-0.3,0.1-0.5,0.1c-0.3-0.1-0.6-0.1-0.9,0.1c-0.3,0.2-0.4,0.5-0.4,0.9c0,0.7,0.3,1,1,1c0,0,2,0,2-1.5
			c0-1.5-0.5-3.1-1-4.9c-0.1-0.3,0.1-0.5,0.3-0.6c0.3-0.1,0.5,0.1,0.6,0.3c0.5,1.8,1,3.6,1,5.1
			C-470.5,755.8-472.3,756.5-473.5,756.5z M-475.7,752.6c0.1,0.1,0.2,0.1,0.4,0.2c0.1,0.1,0.3,0.2,0.4,0.3c0.1-0.1,0.2-0.2,0.4-0.3
			c0.1-0.1,0.2-0.1,0.4-0.2C-474.7,752.5-475.3,752.5-475.7,752.6z"/>
	</g>
	<g>
		<path d="M-467.8,751.6c-0.5,0-1-0.2-1.4-0.5c-0.9-0.6-1.3-1.8-1.3-3.2c0-2.5,1.5-3.5,2.5-3.5c0.9,0,1.4,1,1.5,1.3
			c0-0.2,0-0.5,0-0.8c0-1.2-0.3-1.8-0.6-2.1c-0.3-0.3-0.6-0.4-0.9-0.4c-1,0-1.5,0.4-1.5,0.5c0,0.3-0.2,0.5-0.5,0.5s-0.5-0.2-0.5-0.5
			c0-0.7,0.9-1.5,2.5-1.5c0.6,0,1.1,0.3,1.6,0.7c0.4,0.4,0.9,1.3,0.9,2.8c-0.1,3.5-1.3,4-2,4c-0.6,0-1.5-0.7-1.5-1.5
			c0-0.8,0.3-1.4,0.7-1.8c0.1-0.1,0.2-0.2,0.4-0.2c0,0-0.1,0-0.1,0c-0.5,0-1.5,0.6-1.5,2.5c0,1.1,0.3,1.9,0.9,2.4
			c0.4,0.3,0.9,0.3,1.4,0.2c1.1-0.4,2.7-2.7,2.7-6.5c0-3.3-1.4-5.5-3.5-5.5c-2.9,0-4.5,1.7-4.5,2.5c0,0.3-0.2,0.5-0.5,0.5
			s-0.5-0.2-0.5-0.5c0-1.5,2.1-3.5,5.5-3.5c2.2,0,4.5,2,4.5,6.5c0,4.1-1.7,6.9-3.3,7.5C-467.1,751.6-467.5,751.6-467.8,751.6z
			 M-467.3,746.4c-0.1,0-0.2,0-0.3,0.1c-0.2,0.2-0.3,0.5-0.3,0.9c0,0.2,0.4,0.5,0.5,0.5c0.3,0,0.7-0.4,0.9-1.7c0,0,0,0,0,0
			c-0.1,0.1-0.3,0.2-0.5,0.1C-467.2,746.5-467.3,746.4-467.3,746.4z"/>
	</g>
	<g>
		<path d="M-471,754c-0.3,0-0.5-0.2-0.5-0.5c0-1,1.3-2.9,1.6-3.3c0.2-0.2,0.5-0.3,0.7-0.1c0.2,0.2,0.3,0.5,0.1,0.7
			c-0.7,1-1.4,2.3-1.4,2.7C-470.5,753.8-470.7,754-471,754z"/>
	</g>
	<g>
		<path d="M-473,747.5c-0.2,0-0.4-0.1-0.5-0.3c-0.1-0.2-0.2-0.4-0.3-0.6c-0.3-0.6-0.7-1.4-0.7-2.6c0-0.3,0.2-0.5,0.5-0.5
			s0.5,0.2,0.5,0.5c0,0.9,0.3,1.5,0.6,2.1c0.1,0.2,0.3,0.5,0.3,0.7c0.1,0.3,0,0.5-0.3,0.6C-472.9,747.5-472.9,747.5-473,747.5z"/>
	</g>
	<g>
		<path d="M-469,745.5c-0.3,0-0.5-0.2-0.5-0.5c0-1-0.5-1.5-1.5-1.5c-0.3,0-0.5-0.2-0.5-0.5c0-1-1-1.5-1.5-1.5
			c-0.3,0-1.2,0.1-1.6,0.7c-0.2,0.3-0.7,0.3-0.9,0c-0.3-0.7-1.3-0.7-1.6-0.7c-0.5,0-1.5,0.5-1.5,1.5c0,0.3-0.2,0.5-0.5,0.5
			c-1,0-1.5,0.5-1.5,1.5c0,0.3-0.2,0.5-0.5,0.5s-0.5-0.2-0.5-0.5c0-1.6,1-2.3,2-2.5c0.3-1.3,1.5-2,2.5-2c0.8,0,1.5,0.2,2,0.7
			c0.5-0.4,1.2-0.7,2-0.7c0.9,0,2.2,0.7,2.5,2c1.1,0.2,2,0.9,2,2.5C-468.5,745.3-468.7,745.5-469,745.5z"/>
	</g>
	<g>
		<path d="M-471.5,746.5c-0.6,0-1-0.4-1-1s0.4-1,1-1s1,0.4,1,1S-470.9,746.5-471.5,746.5z M-471.5,745.5h-0.5H-471.5L-471.5,745.5z"
			/>
	</g>
	<g>
		<path d="M-471.5,742c-0.1,0-0.3,0-0.4-0.1c-0.2-0.2-0.2-0.5,0-0.7c1.2-1.2,2.1-1.6,3.4-1.6c1.2,0,2.2,0.5,2.2,0.6
			c0.2,0.1,0.3,0.4,0.2,0.7c-0.1,0.2-0.4,0.3-0.7,0.2c0,0-0.8-0.4-1.8-0.4c-0.9,0-1.7,0.4-2.6,1.4C-471.2,742-471.4,742-471.5,742z"
			/>
	</g>
</g>
</svg>
