<?xml version="1.0" encoding="utf-8"?>
<!-- Generator: Adobe Illustrator 19.0.1, SVG Export Plug-In . SVG Version: 6.00 Build 0)  -->
<svg version="1.1" id="Слой_1" xmlns="http://www.w3.org/2000/svg" xmlns:xlink="http://www.w3.org/1999/xlink" x="0px" y="0px"
	 viewBox="-487 736 24 30" style="enable-background:new -487 736 24 30;" xml:space="preserve">
<g>
	<g>
		<path d="M-480.5,754c-2.7,0-6.5-8.9-6.5-10.5c0-1.1,1.6-1.9,3.4-2.7c1.1-0.5,2.3-1.1,2.7-1.6c1.5-1.6,3.3-3.2,5.9-3.2
			c0.3,0,0.5,0.2,0.5,0.5s-0.2,0.5-0.5,0.5c-2.2,0-3.8,1.4-5.1,2.8c-0.6,0.7-1.8,1.2-3,1.8c-1.1,0.5-2.8,1.3-2.8,1.8
			c0,1.5,3.8,9.5,5.5,9.5c0.3,0,0.5,0.2,0.5,0.5S-480.2,754-480.5,754z"/>
	</g>
	<g>
		<path d="M-473,746.5c-0.3,0-0.5-0.2-0.5-0.5c0-1.1,0.1-1.8,1-2.7l0.2-0.2c0.2-0.2,0.5-0.2,0.7,0s0.2,0.5,0,0.7l-0.2,0.2
			c-0.7,0.7-0.7,1-0.7,2C-472.5,746.3-472.7,746.5-473,746.5C-473,746.5-473,746.5-473,746.5z"/>
	</g>
	<g>
		<path d="M-470.2,757c-1.7,0-3.5-0.6-5.1-2.2c-1.9-1.8-2.7-5-2.7-6.4c0-0.3,0.2-0.5,0.5-0.5s0.5,0.2,0.5,0.5c0,1.1,0.7,4,2.3,5.6
			c3.2,3.1,7,1.7,8.3,0.5l2.1-1.7c-0.2-0.3-0.3-0.6-0.3-0.9c0-0.2,0.1-0.4,0.1-0.7c-0.3,0.1-0.6,0.3-0.8,0.5c-0.8,0.8-2,1.6-4.9,1.6
			c-1.4,0-2.4-0.3-3-1c-0.7-0.8-0.6-1.7-0.5-2.3c0-0.1,0-0.2,0-0.3c0-0.3,0.1-0.5,0.1-0.7c0.2-0.5,0.4-1.2-0.1-3.2
			c-0.1-0.3,0.1-0.5,0.4-0.6c0.3-0.1,0.5,0.1,0.6,0.4c0.6,2.3,0.3,3.2,0.1,3.7c-0.1,0.2-0.1,0.3-0.1,0.4c0,0.1,0,0.2,0,0.4
			c0,0.5-0.1,1.1,0.3,1.5c0.4,0.4,1.1,0.6,2.3,0.6c2.5,0,3.5-0.7,4.1-1.4c0.8-0.8,2.2-1.1,2.2-1.1c0.2,0,0.4,0,0.5,0.2
			c0.1,0.1,0.1,0.4,0.1,0.5c-0.2,0.5-0.5,1.1-0.5,1.3c0,0.1,0.2,0.5,0.4,0.7c0.1,0.1,0.1,0.2,0.1,0.4c0,0.1-0.1,0.3-0.2,0.3l-2.5,2
			C-466.7,756.3-468.4,757-470.2,757z"/>
	</g>
	<g>
		<path d="M-477.5,749c-0.3,0-0.5-0.2-0.5-0.5c0-0.4,0.1-1.1,0.4-1.9c0.3-0.9,0.1-1.9-0.6-2.5l-0.2-0.2c-0.2-0.2-0.2-0.5,0-0.7
			c0.2-0.2,0.5-0.2,0.7,0l0.2,0.2c0.9,0.9,1.3,2.3,0.9,3.5c-0.3,1-0.4,1.5-0.4,1.6C-477,748.8-477.2,749-477.5,749z"/>
	</g>
	<g>
		<circle cx="-478.5" cy="745.5" r="0.5"/>
	</g>
	<g>
		<path d="M-481.5,760c-1.9,0-2.8-0.6-3.4-1.1c-0.1-0.1-0.2-0.4-0.1-0.5c0.1-0.2,0.3-0.3,0.5-0.3c1.3,0,2.3-0.3,2.9-0.9
			c1.1-1.1,1.1-3.1,1.1-5.2v-0.3c0,0,0,0,0,0c0,0,0,0,0-0.1l0.4-2.7c-0.5-0.4-1.5-1.2-1.5-2.2c0-0.7,0.2-1.7,0.3-2.3
			c-1.3,0.3-3.8,0.8-4.8,0.8c-0.3,0-0.5-0.2-0.5-0.5s0.2-0.5,0.5-0.5c1.3,0,5.3-1,5.4-1c0.2,0,0.4,0,0.5,0.1
			c0.1,0.1,0.2,0.3,0.1,0.5c0,0-0.5,1.8-0.5,2.9c0,0.7,0.9,1.4,1.3,1.6c0.2,0.1,0.3,0.3,0.2,0.5l-0.3,1.6c0.2-0.1,0.5-0.2,0.8-0.2
			c1.7,0,2,0.9,2,1.5C-476.5,759.2-480,760-481.5,760z M-482.9,758.8c0.4,0.1,0.8,0.2,1.4,0.2c1.2,0,4-0.7,4-7.5c0-0.2,0-0.5-1-0.5
			c-0.2,0-0.5,0.2-1,0.7v0.1c0,2.2,0,4.6-1.4,6C-481.4,758.3-482.1,758.7-482.9,758.8z"/>
	</g>
	<g>
		<path d="M-478.5,741c-0.2,0-0.4-0.1-0.5-0.4c-0.1-0.3,0.1-0.5,0.3-0.6c0.1,0,0.3-0.2,0.7-0.8c0.1-0.2,0.5-0.3,0.7-0.2
			c0.2,0.1,0.3,0.5,0.2,0.7c-0.4,0.7-0.8,1.1-1.3,1.2C-478.4,741-478.5,741-478.5,741z"/>
	</g>
	<g>
		<path d="M-469.5,753.5c-0.2,0-0.3-0.1-0.4-0.2c-0.2-0.2-0.1-0.5,0.1-0.7c0,0,3-2,4.3-4.3c0.8-1.5,1.5-3.5,1.5-4.8
			c0-0.5-1.8-1.3-2.8-1.8c-1.2-0.6-2.4-1.2-3-1.8c-1.4-1.5-3-2.8-5.1-2.8c-0.3,0-0.5-0.2-0.5-0.5s0.2-0.5,0.5-0.5
			c2.6,0,4.3,1.5,5.9,3.2c0.5,0.5,1.6,1.1,2.7,1.6c1.8,0.9,3.4,1.6,3.4,2.7c0,1.5-0.7,3.6-1.6,5.3c-1.5,2.6-4.5,4.6-4.6,4.7
			C-469.3,753.5-469.4,753.5-469.5,753.5z"/>
	</g>
	<g>
		<circle cx="-471.5" cy="745.5" r="0.5"/>
	</g>
	<g>
		<path d="M-470,752c-0.1,0-0.3,0-0.4-0.1c-0.6-0.6-0.9-0.9-1.1-0.9c-1,0-1,0.3-1,0.5c0,0.3-0.2,0.5-0.5,0.5s-0.5-0.2-0.5-0.5
			c0-0.6,0.3-1.5,2-1.5c0.3,0,0.5,0.1,0.7,0.2l-0.2-1c0-0.2,0.1-0.5,0.3-0.6c0,0,1.2-0.6,1.2-1.6c0-1-0.5-3.4-0.5-3.4
			c0-0.2,0-0.3,0.1-0.5c0.1-0.1,0.3-0.2,0.5-0.1c0,0,4.1,1,5.4,1c0.3,0,0.5,0.2,0.5,0.5s-0.2,0.5-0.5,0.5c-1,0-3.6-0.5-4.9-0.8
			c0.2,0.8,0.4,2.1,0.4,2.8c0,1.2-0.9,2-1.5,2.3l0.4,2.1c0,0.2-0.1,0.4-0.3,0.5C-469.8,752-469.9,752-470,752z"/>
	</g>
	<g>
		<path d="M-468.5,760c-0.9,0-3.2-0.4-4.3-3.7c-0.1-0.3,0.1-0.5,0.3-0.6c0.3-0.1,0.5,0.1,0.6,0.3c0.9,2.6,2.5,3,3.4,3
			c0.6,0,1.1-0.1,1.4-0.2c-1.3-0.3-2.2-1-2.8-2.1c-0.1-0.2,0-0.5,0.2-0.7c0.3-0.1,0.5,0,0.7,0.2c0.4,0.7,1.1,1.7,3.4,1.7
			c0.2,0,0.4,0.1,0.5,0.3c0.1,0.2,0,0.4-0.1,0.5C-465.7,759.4-466.6,760-468.5,760z"/>
	</g>
	<g>
		<path d="M-470,753.4c-0.3,0-0.5-0.2-0.5-0.5c0-0.4,0-0.7,0-1.1v-0.3c0-0.3,0.2-0.5,0.5-0.5s0.5,0.2,0.5,0.5v0.3c0,0.4,0,0.7,0,1.1
			C-469.5,753.2-469.7,753.4-470,753.4C-470,753.4-470,753.4-470,753.4z"/>
	</g>
	<g>
		<path d="M-471.5,741c0,0-0.1,0-0.1,0c-0.4-0.1-0.8-0.5-1.3-1.2c-0.1-0.2-0.1-0.5,0.2-0.7c0.2-0.1,0.5-0.1,0.7,0.2
			c0.4,0.6,0.6,0.8,0.7,0.8c0.3,0.1,0.4,0.4,0.3,0.6C-471.1,740.9-471.3,741-471.5,741z"/>
	</g>
	<g>
		<path d="M-476.5,752.5c-0.2,0-0.3-0.1-0.4-0.2c-0.2-0.2-0.1-0.5,0.1-0.7c0.2-0.2,0.8-0.6,1.3-0.6c0.3,0,0.5,0.2,0.5,0.5
			c0,0.3-0.2,0.5-0.5,0.5c-0.1,0-0.5,0.2-0.7,0.4C-476.3,752.5-476.4,752.5-476.5,752.5z"/>
	</g>
	<g>
		<path d="M-474,755.5C-474,755.5-474,755.5-474,755.5c-0.3,0-0.5-0.3-0.5-0.5c0-0.1,0.1-1,0.7-1.4c0.2-0.2,0.5-0.1,0.7,0.1
			c0.1,0.2,0.1,0.5-0.1,0.7c-0.2,0.1-0.3,0.4-0.3,0.6C-473.5,755.3-473.7,755.5-474,755.5z"/>
	</g>
	<g>
		<path d="M-471,756.5c0,0-0.1,0-0.1,0c-0.3-0.1-0.4-0.4-0.3-0.6c0.1-0.4,0.3-1,0.7-1.3c0.2-0.2,0.5-0.1,0.7,0.1
			c0.2,0.2,0.1,0.5-0.1,0.7c-0.1,0.1-0.2,0.5-0.3,0.8C-470.6,756.4-470.8,756.5-471,756.5z"/>
	</g>
	<g>
		<path d="M-467,756c-0.2,0-0.3-0.1-0.4-0.2c-0.2-0.3-0.6-0.9-0.6-1.3c0-0.3,0.2-0.5,0.5-0.5c0.3,0,0.5,0.2,0.5,0.5
			c0,0.1,0.2,0.5,0.4,0.7c0.2,0.2,0.1,0.5-0.1,0.7C-466.8,756-466.9,756-467,756z"/>
	</g>
</g>
</svg>
