<?xml version="1.0" encoding="utf-8"?>
<!-- Generator: Adobe Illustrator 19.0.1, SVG Export Plug-In . SVG Version: 6.00 Build 0)  -->
<svg version="1.1" id="Слой_1" xmlns="http://www.w3.org/2000/svg" xmlns:xlink="http://www.w3.org/1999/xlink" x="0px" y="0px"
	 viewBox="-487 736 24 30" style="enable-background:new -487 736 24 30;" xml:space="preserve">
<g>
	<g>
		<path d="M-478.3,739c-0.4,0-0.8-0.1-1-0.5c-0.1-0.2-0.2-0.5-0.1-0.7c0.1-0.5,0.6-1,1.3-1.4c0.9-0.5,2.1-0.6,2.5,0
			c0.1,0.2,0.2,0.5,0.1,0.7c-0.1,0.5-0.6,1-1.3,1.4C-477.3,738.8-477.9,739-478.3,739z M-476.7,737c-0.2,0-0.6,0.1-1,0.3
			c-0.6,0.3-0.8,0.7-0.8,0.8c0.1,0,0.6,0,1.2-0.4c0.5-0.3,0.7-0.5,0.8-0.7C-476.6,737-476.6,737-476.7,737z"/>
	</g>
	<g>
		<path d="M-477,741c-0.4,0-0.7-0.1-1-0.4c-0.5-0.5-0.6-1.4-0.5-2c0-0.3,0.2-0.5,0.5-0.5c0.3,0,0.5,0.2,0.5,0.5c0,0,0,0.1,0,0.1
			c0,0.7,0.1,1.1,0.3,1.3c0,0,0.1,0.1,0.2,0.1c0.3,0,0.5,0.2,0.5,0.5S-476.7,741-477,741z"/>
	</g>
	<g>
		<path d="M-471.7,739c-0.5,0-1-0.2-1.5-0.4c-0.7-0.4-1.2-0.9-1.3-1.4c-0.1-0.3,0-0.5,0.1-0.7l0,0c0.4-0.7,1.6-0.5,2.5,0
			c0.7,0.4,1.2,0.9,1.3,1.4c0.1,0.3,0,0.5-0.1,0.7C-470.9,738.9-471.2,739-471.7,739z M-473.5,737c0.1,0.1,0.3,0.4,0.8,0.7
			c0.6,0.3,1.1,0.3,1.2,0.3l0,0c0,0-0.3-0.4-0.8-0.7C-472.9,737-473.3,737-473.5,737z"/>
	</g>
	<g>
		<path d="M-473,741c-0.3,0-0.5-0.2-0.5-0.5s0.2-0.5,0.5-0.5c0.1,0,0.2,0,0.2-0.1c0.2-0.2,0.3-0.6,0.3-1.3l0.5-0.1l0.5,0.1
			c0,0.7,0,1.5-0.5,2C-472.3,740.9-472.6,741-473,741z"/>
	</g>
	<g>
		<path d="M-474,738c-0.1,0-0.3-0.1-0.4-0.2l0,0c0,0-0.3-0.3-0.6-0.3c-0.3,0-0.6,0.3-0.6,0.3c-0.2,0.2-0.5,0.3-0.7,0.1
			c-0.2-0.2-0.3-0.5-0.1-0.7c0.1-0.1,0.6-0.7,1.4-0.7s1.3,0.6,1.4,0.7c0.2,0.2,0.1,0.5-0.1,0.7C-473.8,738-473.9,738-474,738z"/>
	</g>
	<g>
		<path d="M-481,760c-0.1,0-0.2,0-0.2-0.1c-0.2-0.1-0.3-0.4-0.2-0.7l0.9-1.8l-0.4-1.3c-0.1-0.3,0.1-0.5,0.3-0.6
			c0.3-0.1,0.5,0.1,0.6,0.3l0.5,1.5c0,0.1,0,0.3,0,0.4l-1,2C-480.6,759.9-480.8,760-481,760z"/>
	</g>
	<g>
		<path d="M-469,760c-0.2,0-0.4-0.1-0.4-0.3l-1-2c-0.1-0.1-0.1-0.3,0-0.4l0.5-1.5c0.1-0.3,0.4-0.4,0.6-0.3c0.3,0.1,0.4,0.4,0.3,0.6
			l-0.4,1.3l0.9,1.8c0.1,0.2,0,0.5-0.2,0.7C-468.8,760-468.9,760-469,760z"/>
	</g>
	<g>
		<path d="M-486,747c-0.2,0-0.4-0.1-0.4-0.3c-0.1-0.2,0-0.5,0.2-0.7l1.9-0.9l1.9-2.9c0.2-0.2,0.5-0.3,0.7-0.1l1.5,1
			c0.2,0.2,0.3,0.5,0.1,0.7c-0.2,0.2-0.5,0.3-0.7,0.1l-1.1-0.7l-1.7,2.6c0,0.1-0.1,0.1-0.2,0.2l-2,1C-485.8,747-485.9,747-486,747z"
			/>
	</g>
	<g>
		<path d="M-478,742c-0.1,0-0.2,0-0.2-0.1l-4-2c-0.2-0.1-0.3-0.3-0.3-0.4v-1.8l-0.9-0.9c-0.2-0.2-0.2-0.5,0-0.7
			c0.2-0.2,0.5-0.2,0.7,0l1,1c0.1,0.1,0.1,0.2,0.1,0.4v1.7l3.7,1.9c0.2,0.1,0.3,0.4,0.2,0.7C-477.6,741.9-477.8,742-478,742z"/>
	</g>
	<g>
		<path d="M-475,759c-1.8,0-3.2-2.5-3.9-4.9c-0.1-0.2,0-0.4,0.1-0.5c0.3-0.3,0.7-0.7,1-1c1-1,1.6-3.3,1.4-6c0-0.2,0.1-0.4,0.4-0.5
			c0.8-0.2,1.4-0.2,2.1,0c0.2,0.1,0.4,0.3,0.4,0.5c-0.1,2.7,0.4,5,1.4,6c0.3,0.3,0.6,0.6,1,1c0.1,0.1,0.2,0.3,0.1,0.5
			C-471.8,756.5-473.2,759-475,759z M-477.9,754.1c0.8,2.3,1.9,3.9,2.9,3.9s2.1-1.6,2.9-3.9c-0.3-0.3-0.5-0.5-0.8-0.8
			c-1.6-1.6-1.8-4.7-1.7-6.3c-0.3,0-0.5,0-0.8,0c0,1.6-0.1,4.7-1.7,6.3C-477.4,753.6-477.6,753.9-477.9,754.1z"/>
	</g>
	<g>
		<path d="M-464,747c-0.1,0-0.2,0-0.2-0.1l-2-1c-0.1,0-0.1-0.1-0.2-0.2l-1.7-2.6l-1.1,0.7c-0.2,0.2-0.5,0.1-0.7-0.1
			c-0.2-0.2-0.1-0.5,0.1-0.7l1.5-1c0.2-0.2,0.5-0.1,0.7,0.1l1.9,2.9l1.9,0.9c0.2,0.1,0.3,0.4,0.2,0.7
			C-463.6,746.9-463.8,747-464,747z"/>
	</g>
	<g>
		<path d="M-472,742c-0.2,0-0.4-0.1-0.4-0.3c-0.1-0.2,0-0.5,0.2-0.7l3.7-1.9v-1.7c0-0.1,0.1-0.3,0.1-0.4l1-1c0.2-0.2,0.5-0.2,0.7,0
			s0.2,0.5,0,0.7l-0.9,0.9v1.8c0,0.2-0.1,0.4-0.3,0.4l-4,2C-471.8,742-471.9,742-472,742z"/>
	</g>
	<g>
		<path d="M-472.5,741.6c-0.2,0-0.3-0.1-0.4-0.2c-0.7-1.1-1.9-0.8-1.9-0.8c-0.1,0-0.2,0-0.2,0c0,0-1.3-0.3-1.9,0.8
			c-0.1,0.2-0.5,0.3-0.7,0.2c-0.2-0.1-0.3-0.5-0.2-0.7c0.8-1.3,2.2-1.4,2.9-1.3c0.7-0.1,2.1,0,2.9,1.3c0.1,0.2,0.1,0.5-0.2,0.7
			C-472.4,741.5-472.5,741.6-472.5,741.6z"/>
	</g>
	<g>
		<path d="M-466.1,758.5C-466.1,758.5-466.1,758.5-466.1,758.5c-1.8,0-3.9-2.2-5.9-4.2c-0.3-0.3-0.6-0.6-0.9-0.9
			c-2.8-2.8-1.7-11,0-12.7c0.2-0.2,0.5-0.2,0.7,0c5.8,4.5,8.1,10.2,8.4,13.8c0.1,1.6-0.2,2.8-0.8,3.5
			C-465,758.3-465.5,758.5-466.1,758.5z M-472.4,741.7c-1.3,2-1.9,8.8,0.3,10.9c0.3,0.3,0.6,0.6,0.9,0.9c1.7,1.7,3.8,3.9,5.2,3.9
			c0.3,0,0.5-0.1,0.7-0.3c0.3-0.3,0.6-1.2,0.5-2.7C-465,751.2-467.2,745.9-472.4,741.7z M-483.9,758.5c-0.5,0-1-0.2-1.4-0.6
			c-0.6-0.6-0.9-1.9-0.8-3.5c0.2-3.6,2.6-9.3,8.4-13.8c0.2-0.2,0.5-0.1,0.7,0c1.7,1.7,2.8,9.9,0,12.7c-0.3,0.3-0.6,0.6-0.9,0.9
			C-480,756.3-482.1,758.4-483.9,758.5C-483.9,758.5-483.9,758.5-483.9,758.5z M-477.6,741.7c-5.3,4.2-7.4,9.5-7.6,12.7
			c-0.1,1.5,0.2,2.4,0.5,2.7c0.2,0.2,0.4,0.3,0.7,0.3c0,0,0,0,0,0c1.4,0,3.5-2.2,5.2-3.9c0.3-0.3,0.6-0.6,0.9-0.9
			C-475.7,750.5-476.3,743.7-477.6,741.7z"/>
	</g>
</g>
</svg>
