<?xml version="1.0" encoding="utf-8"?>
<!-- Generator: Adobe Illustrator 19.0.1, SVG Export Plug-In . SVG Version: 6.00 Build 0)  -->
<svg version="1.1" id="Слой_1" xmlns="http://www.w3.org/2000/svg" xmlns:xlink="http://www.w3.org/1999/xlink" x="0px" y="0px"
	 viewBox="-449 688 100 125" style="enable-background:new -449 688 100 125;" xml:space="preserve">
<g>
	<path d="M-400.9,740.1c17.4,0,37.5-4,39.3-7.6s-22.4-8.4-22.4-8.4c-5.8,2.7-17,2.7-17,2.7s-11.2,0-17-2.7c0,0-24.1,4.9-22.3,8.5
		C-438.4,736.1-418.8,740.1-400.9,740.1z"/>
	<path d="M-385.9,717.2c0,0-3.4-19.4-5.9-23.2s-6.3,4.5-10.2,4.5s-4.8-5.3-8.3-5.5c-3.6-0.2-7.1,24.2-7.1,24.2
		S-399,721.4-385.9,717.2z"/>
	<path d="M-417.5,741.3c0,0-1.6,7.4,8,7.6c0,0,3.7,0,5.6-3.3c0.6-1,1.5-1.6,2.7-1.6h0.4c1.1,0,2.1,0.6,2.7,1.6
		c1.9,3.3,5.6,3.3,5.6,3.3c9.6-0.2,8-7.6,8-7.6c-4.4,1.5-11.3,1.4-13.7,1.3l0,0c-0.6,0-0.9,0-0.9,0l0,0h-3.8
		C-402.8,742.5-412.1,743-417.5,741.3z"/>
	<path d="M-421.3,741.3l-7.4-1.1l-12.8,11c0.3,0,0.8,0,1.2,0c5.7,0,20.8,4.8,20.8,4.8l-8,6.9c6,1.2,24.9,11.3,24.9,11.3l1.8-6.6
		C-415.9,756.5-421.3,741.3-421.3,741.3z"/>
	<path d="M-356.4,750.9l-15.5-10.8l-8.3,1.1c0.5,2.7-1.2,7.6-1.2,7.6c-23.9,18.1-20,34.2-20,34.2c9.5-18.8,30.4-21.4,30.4-21.4
		l-9.5-4.5C-374.3,753.2-356.4,750.9-356.4,750.9z"/>
</g>
</svg>
