<?xml version="1.0" encoding="utf-8"?>
  <!-- Generator: Adobe Illustrator 13.0.0, SVG Export Plug-In . SVG Version: 6.00 Build 14948)  -->
  <!DOCTYPE svg PUBLIC "-//W3C//DTD SVG 1.1//EN" "http://www.w3.org/Graphics/SVG/1.1/DTD/svg11.dtd">
<svg version="1.1"
	 id="svg2" inkscape:version="0.48.4 r9939" sodipodi:docname="search.svg" xmlns:dc="http://purl.org/dc/elements/1.1/" xmlns:cc="http://creativecommons.org/ns#" xmlns:rdf="http://www.w3.org/1999/02/22-rdf-syntax-ns#" xmlns:svg="http://www.w3.org/2000/svg" xmlns:sodipodi="http://sodipodi.sourceforge.net/DTD/sodipodi-0.dtd" xmlns:inkscape="http://www.inkscape.org/namespaces/inkscape"
	 xmlns="http://www.w3.org/2000/svg" xmlns:xlink="http://www.w3.org/1999/xlink" x="0px" y="0px" width="1200px" height="1200px"
	 viewBox="0 0 1200 1200" enable-background="new 0 0 1200 1200" xml:space="preserve">
<path d="M956.5390625 874c6.667 10.667 6.667 22 0 34c-6.667 10.667 -16.667 16 -30 16c0 0 -892 0 -892 0c-12 0 -21.333 -5.333 -28 -16c-8 -12 -8.667 -23.333 -2 -34c0 0 446 -782 446 -782c5.333 -12 15.333 -18 30 -18c14.667 0 24.667 6 30 18c0 0 446 782 446 782m-420 -50c0 0 0 -100 0 -100c0 0 -110 0 -110 0c0 0 0 100 0 100c0 0 110 0 110 0c0 0 0 0 0 0m0 -174c0 0 0 -300 0 -300c0 0 -110 0 -110 0c0 0 0 300 0 300c0 0 110 0 110 0c0 0 0 0 0 0" />
</svg>
