<?xml version="1.0" encoding="utf-8"?>
<!-- Generator: Adobe Illustrator 19.0.1, SVG Export Plug-In . SVG Version: 6.00 Build 0)  -->
<svg version="1.1" id="Слой_1" xmlns="http://www.w3.org/2000/svg" xmlns:xlink="http://www.w3.org/1999/xlink" x="0px" y="0px"
	 viewBox="-449 688 100 125" style="enable-background:new -449 688 100 125;" xml:space="preserve">
<path d="M-356.5,725.5h-85c-1.4,0-2.5,1.1-2.5,2.5v20c0,1.4,1.1,2.5,2.5,2.5h85c1.4,0,2.5-1.1,2.5-2.5v-20
	C-354,726.6-355.1,725.5-356.5,725.5z M-359,745.5h-80v-15h80V745.5z"/>
<path d="M-356.5,693h-85c-1.4,0-2.5,1.1-2.5,2.5v20c0,1.4,1.1,2.5,2.5,2.5h85c1.4,0,2.5-1.1,2.5-2.5v-20
	C-354,694.1-355.1,693-356.5,693z M-359,713h-80v-15h80V713z"/>
<path d="M-356.5,758h-85c-1.4,0-2.5,1.1-2.5,2.5v20c0,1.4,1.1,2.5,2.5,2.5h85c1.4,0,2.5-1.1,2.5-2.5v-20
	C-354,759.1-355.1,758-356.5,758z M-359,778h-80v-15h80V778z"/>
</svg>
