<?xml version="1.0" encoding="utf-8"?>
<!-- Generator: Adobe Illustrator 19.0.1, SVG Export Plug-In . SVG Version: 6.00 Build 0)  -->
<svg version="1.1" id="Слой_1" xmlns="http://www.w3.org/2000/svg" xmlns:xlink="http://www.w3.org/1999/xlink" x="0px" y="0px"
	 viewBox="-487 736 24 30" style="enable-background:new -487 736 24 30;" xml:space="preserve">
<g>
	<path d="M-471.5,743c-3,0-5.5,2.5-5.5,5.5s2.5,5.5,5.5,5.5s5.5-2.5,5.5-5.5S-468.5,743-471.5,743z M-469.1,747.9
		c-0.1,0.1-0.2,0.1-0.4,0.1s-0.3,0-0.4-0.1l-1.1-1.1v4.8c0,0.3-0.2,0.5-0.5,0.5s-0.5-0.2-0.5-0.5v-4.8l-1.1,1.1
		c-0.2,0.2-0.5,0.2-0.7,0c-0.2-0.2-0.2-0.5,0-0.7l2-2c0,0,0.1-0.1,0.2-0.1c0.1-0.1,0.3-0.1,0.4,0c0.1,0,0.1,0.1,0.2,0.1l2,2
		C-469,747.3-469,747.7-469.1,747.9z"/>
	<path d="M-469.5,736h-11c-1.9,0-3.5,1.6-3.5,3.5v20c0,0.2,0.1,0.4,0.3,0.5c0.1,0,0.1,0,0.2,0c0.1,0,0.3-0.1,0.4-0.1l5.6-5.6
		c2.2,2.2,5.3,5.3,5.5,5.5c0.1,0.1,0.2,0.2,0.3,0.3c0.2,0.1,0.4,0,0.6-0.2c0.1-0.1,0.1-0.2,0.1-0.3v-4c0-0.3-0.2-0.5-0.5-0.5
		c-3.6,0-6.5-2.9-6.5-6.5s2.9-6.5,6.5-6.5c0.3,0,0.5-0.2,0.5-0.5v-3c0-0.8,0.7-1.5,1.5-1.5c0.3,0,0.5-0.2,0.5-0.5
		S-469.2,736-469.5,736z"/>
	<path d="M-469.5,736h-2.5c-0.3,0-0.5,0.2-0.5,0.5v3c0,0.3,0.2,0.5,0.5,0.5h1v-1.5c0-0.8,0.7-1.5,1.5-1.5c0.3,0,0.5,0.2,0.5,0.5
		s-0.2,0.5-0.5,0.5c-0.3,0-0.5,0.2-0.5,0.5v1.5h2.5c0.3,0,0.5-0.2,0.5-0.5v-1C-467,737.1-468.1,736-469.5,736z"/>
</g>
</svg>
