<?xml version="1.0" encoding="utf-8"?>
<!-- Generator: Adobe Illustrator 19.0.1, SVG Export Plug-In . SVG Version: 6.00 Build 0)  -->
<svg version="1.1" id="Слой_1" xmlns="http://www.w3.org/2000/svg" xmlns:xlink="http://www.w3.org/1999/xlink" x="0px" y="0px"
	 viewBox="-487 736 24 30" style="enable-background:new -487 736 24 30;" xml:space="preserve">
<g>
	<path d="M-469,736h-11c-1.9,0-3.5,1.6-3.5,3.5v20c0,0.2,0.1,0.4,0.3,0.5c0.1,0,0.1,0,0.2,0c0.1,0,0.3-0.1,0.4-0.1l5.6-5.6
		c2.2,2.2,5.3,5.3,5.5,5.5c0.1,0.1,0.2,0.2,0.3,0.3c0.2,0.1,0.4,0,0.6-0.2c0.1-0.1,0.1-0.2,0.1-0.3v-18V740v-1.5
		c0-0.8,0.7-1.5,1.5-1.5c0.3,0,0.5,0.2,0.5,0.5s-0.2,0.5-0.5,0.5c-0.3,0-0.5,0.2-0.5,0.5v1.5h2h0.5c0.3,0,0.5-0.2,0.5-0.5v-1
		C-466.5,737.1-467.6,736-469,736z"/>
</g>
</svg>
