<?xml version="1.0" encoding="utf-8"?>
<!-- Generator: Adobe Illustrator 19.0.1, SVG Export Plug-In . SVG Version: 6.00 Build 0)  -->
<svg version="1.1" id="Слой_1" xmlns="http://www.w3.org/2000/svg" xmlns:xlink="http://www.w3.org/1999/xlink" x="0px" y="0px"
	 viewBox="-487 736 24 30" style="enable-background:new -487 736 24 30;" xml:space="preserve">
<g>
	<path d="M-469.5,736h-11c-1.9,0-3.5,1.6-3.5,3.5v20c0,0.2,0.1,0.4,0.3,0.5c0.1,0,0.1,0,0.2,0c0.1,0,0.3-0.1,0.4-0.1l5.6-5.6
		c2.2,2.2,5.3,5.3,5.5,5.5c0.1,0.1,0.2,0.2,0.3,0.3c0.2,0.1,0.4,0,0.6-0.2c0.1-0.1,0.1-0.2,0.1-0.3v-5.3c0-0.2-0.1-0.3-0.2-0.4
		c-0.2-0.1-0.3-0.1-0.5,0c-0.3,0.2-0.7,0.2-1,0.2c-1.4-0.3-2.6-1-3.6-2.1c-0.2-0.3-0.4-0.6-0.4-1c0-0.2-0.1-0.3-0.2-0.4
		c-0.3-0.2-0.5-0.5-0.7-0.8c-0.2-0.7-0.4-1.4-0.4-2.1s0.1-1.4,0.4-2.1c0.1-0.3,0.3-0.6,0.7-0.8c0.1-0.1,0.2-0.2,0.2-0.4
		c0-0.4,0.1-0.7,0.4-1c1-1.1,2.2-1.8,3.6-2.1c0.4-0.1,0.7,0,1,0.2c0.2,0.1,0.3,0.1,0.5,0c0.2-0.1,0.2-0.3,0.2-0.4v-2.4
		c0-0.8,0.7-1.5,1.5-1.5c0.3,0,0.5-0.2,0.5-0.5S-469.2,736-469.5,736z"/>
	<path d="M-466.3,745.7c0-0.1-0.1-0.2-0.3-0.3c-0.1-0.1-0.3-0.1-0.4,0c-0.2,0.1-0.5,0-0.6-0.2c-0.1-0.2-0.1-0.5,0.1-0.6
		c0.1-0.1,0.2-0.2,0.2-0.3c0-0.1,0-0.3-0.1-0.4c-0.8-0.9-1.9-1.5-3-1.8c-0.1,0-0.3,0-0.4,0.1c-0.1,0.1-0.2,0.2-0.2,0.3
		c0,0.3-0.2,0.5-0.5,0.5s-0.5-0.2-0.5-0.5c0-0.1-0.1-0.3-0.2-0.4c-0.1-0.1-0.3-0.1-0.4-0.1c-1.2,0.2-2.2,0.8-3,1.8
		c-0.1,0.1-0.1,0.2-0.1,0.4c0,0.1,0.1,0.3,0.2,0.3c0.2,0.2,0.3,0.4,0.1,0.6c-0.1,0.2-0.4,0.3-0.6,0.2c-0.1-0.1-0.3-0.1-0.4,0
		c-0.1,0.1-0.2,0.2-0.3,0.3c-0.2,0.6-0.3,1.2-0.3,1.8s0.1,1.1,0.3,1.8c0,0.1,0.1,0.2,0.3,0.3c0.1,0.1,0.3,0.1,0.4,0
		c0.2-0.1,0.5,0,0.6,0.2c0.1,0.2,0.1,0.5-0.1,0.6c-0.1,0.1-0.2,0.2-0.2,0.3c0,0.1,0,0.3,0.1,0.4c0.8,0.9,1.9,1.5,3,1.8
		c0.1,0,0.3,0,0.4-0.1c0.1-0.1,0.2-0.2,0.2-0.3c0-0.3,0.2-0.5,0.5-0.5s0.5,0.2,0.5,0.5c0,0.1,0.1,0.3,0.2,0.4
		c0.1,0.1,0.2,0.1,0.3,0.1c0,0,0.1,0,0.1,0c1.2-0.2,2.2-0.8,3-1.8c0.1-0.1,0.1-0.2,0.1-0.4c0-0.1-0.1-0.3-0.2-0.3
		c-0.2-0.2-0.3-0.4-0.1-0.6c0.1-0.2,0.4-0.3,0.6-0.2c0.1,0.1,0.3,0.1,0.4,0c0.1-0.1,0.2-0.2,0.3-0.3c0.2-0.6,0.3-1.2,0.3-1.8
		S-466.1,746.4-466.3,745.7z M-471.5,749c-0.8,0-1.5-0.7-1.5-1.5s0.7-1.5,1.5-1.5s1.5,0.7,1.5,1.5S-470.7,749-471.5,749z"/>
	<path d="M-471.5,750c-1.4,0-2.5-1.1-2.5-2.5s1.1-2.5,2.5-2.5s2.5,1.1,2.5,2.5S-470.1,750-471.5,750z M-471.5,746
		c-0.8,0-1.5,0.7-1.5,1.5s0.7,1.5,1.5,1.5s1.5-0.7,1.5-1.5S-470.7,746-471.5,746z"/>
	<path d="M-469.5,736h-4c-0.3,0-0.5,0.2-0.5,0.5v3c0,0.3,0.2,0.5,0.5,0.5h2.5v-1.5c0-0.8,0.7-1.5,1.5-1.5c0.3,0,0.5,0.2,0.5,0.5
		s-0.2,0.5-0.5,0.5c-0.3,0-0.5,0.2-0.5,0.5v1.5h2.5c0.3,0,0.5-0.2,0.5-0.5v-1C-467,737.1-468.1,736-469.5,736z"/>
</g>
</svg>
