<?xml version="1.0" encoding="utf-8"?>
<!-- Generator: Adobe Illustrator 19.0.1, SVG Export Plug-In . SVG Version: 6.00 Build 0)  -->
<svg version="1.1" id="Слой_1" xmlns="http://www.w3.org/2000/svg" xmlns:xlink="http://www.w3.org/1999/xlink" x="0px" y="0px"
	 viewBox="-449 688 100 125" style="enable-background:new -449 688 100 125;" xml:space="preserve">
<path d="M-385.7,715.2c0,4.9-4,8.9-8.9,8.9c-4.9,0-8.9-4-8.9-8.9c0-4.9,4-8.9,8.9-8.9C-389.7,706.3-385.7,710.3-385.7,715.2z
	 M-383.7,701.9l-5.4-0.2l2.5-6.1l-5.6,4.1l-1.3-6.6l-2,6.8l-3.6-4.9l0.2,6.7l-4.9-0.6l3.2,4.4l1.1-0.8l-1.3-1.7l3.3,0.4l-0.1-3.9
	l2.6,3.6l1.2-4.1l0.6,3.2l3.4-2.5l-1.4,3.4l3.4,0.1l-1.8,1.3l0.8,1.1L-383.7,701.9z M-356.4,710.5h-20.4v-15.4h-1.8v17.3h22.1V710.5
	z M-371,719.1c-0.4-1.9-2.2-3.1-4-2.7c-1.1,0.2-1.9,0.9-2.4,1.8c0,0-6.4,9.3-7.9,11.5c-2.6,3.9-7.4,1.5-8.8,0.4
	c-2.4-2-16.1-13.5-17.5-15c-2.8-3.1,1-3.8,1.4-3.9c0.4-0.1,4.1-0.8,4.1-0.8c1.9-0.4,3.1-2.2,2.7-4c-0.4-1.9-2.2-3.1-4-2.7
	c0,0-5,1-7.1,1.4c-4,0.8-8.2,6.5-4.4,11.7c1.9,2.6,5.4,6.1,5.4,6.1s1.5,1.4,3.8,3.4l-11.3,14.9c-1.4,1.8-1.7,5.2-1.3,7.4
	c0.5,2.2,2,12.9-1.6,17.9c-3.4,4.7-10.4,8.6-13,10c-1.3,0.5-2.2,1.7-2.2,3.1c0,1.8,1.5,3.3,3.3,3.3c0.4,0,0.8-0.1,1.1-0.2l0.1,0.2
	c0,0,8.9-1.8,14.2-7.5c5.2-5.7,8.2-12.9,8-18c0,0,5.4-0.7,8.4,3.3c3,4,3.6,8.7,0.6,12.8c-1.2,1.6-2.4,3.1-3,3.8
	c-0.6,0.6-1,1.4-1,2.4c0,1.8,1.5,3.3,3.3,3.3c0.9,0,1.8-0.4,2.4-1l0,0c0,0,5.7-5.6,7.2-10.5c1.3-4.3,0.2-8.9-2.1-13.1
	c-2.3-4.2-5.5-6.4-8.5-8l8.9-12.5c0.9,0.7,1.7,1.2,2.1,1.5c3.2,1.7,9.5,2.5,13-2.7c2.8-4.1,7.3-11.4,9-14.3c0.3-0.4,0.6-0.8,0.8-1.2
	v0C-370.9,720.4-370.8,719.8-371,719.1z"/>
</svg>
