<?xml version="1.0" encoding="utf-8"?>
<!-- Generator: Adobe Illustrator 22.0.1, SVG Export Plug-In . SVG Version: 6.00 Build 0)  -->
<svg version="1.1" id="Слой_1" xmlns="http://www.w3.org/2000/svg" xmlns:xlink="http://www.w3.org/1999/xlink" x="0px" y="0px"
	 viewBox="0 0 840 1000" style="enable-background:new 0 0 840 1000;" xml:space="preserve">
<path d="M760,500c0,48,26.7,88.7,80,122c-8,26.7-19.3,54-34,82c-46.7-12-92,2.7-136,44c-36,38.7-47.3,84-34,136
	c-26.7,13.3-54.7,25.3-84,36c-30.7-54.7-74.7-82-132-82s-101.3,27.3-132,82c-29.3-10.7-57.3-22.7-84-36c13.3-53.3,2-98.7-34-136
	c-36-36-81.3-47.3-136-34c-9.3-17.3-20.7-44.7-34-82c54.7-34.7,82-78.7,82-132c0-48-27.3-89.3-82-124c13.3-37.3,24.7-64.7,34-82
	c49.3,12,94.7-2.7,136-44c36-37.3,47.3-82.7,34-136c28-14.7,56-26,84-34c30.7,53.3,74.7,80,132,80s101.3-26.7,132-80
	c28,8,56,19.3,84,34c-13.3,52-2,97.3,34,136c44,41.3,89.3,56,136,44c14.7,28,26,55.3,34,82C786.7,409.3,760,450.7,760,500L760,500
	 M420,682c50.7,0,93.7-17.7,129-53s53-78.3,53-129s-17.7-94-53-130s-78.3-54-129-54s-93.7,18-129,54s-53,79.3-53,130
	s17.7,93.7,53,129S369.3,682,420,682L420,682"/>
</svg>
