<?xml version="1.0" encoding="utf-8"?>
<!-- Generator: Adobe Illustrator 22.0.1, SVG Export Plug-In . SVG Version: 6.00 Build 0)  -->
<svg version="1.1" id="Слой_1" xmlns:sketch="http://www.bohemiancoding.com/sketch/ns"
	 xmlns="http://www.w3.org/2000/svg" xmlns:xlink="http://www.w3.org/1999/xlink" x="0px" y="0px" viewBox="0 0 100 100"
	 style="enable-background:new 0 0 100 100;" xml:space="preserve">
<path d="M96.1,30.6L96.1,30.6c-2-4.6-4.6-8.9-7.8-12.7c-1.9-2.2-3.9-4.3-6.1-6.2c-3.8-3.2-8.1-5.9-12.7-7.8l-0.1,0
	C63.4,1.4,56.9,0,50,0c-2.9,0-5.7,0.3-8.5,0.7h0l-0.1,0c-0.7,0.1-1.3,0.2-2,0.4l-0.1,0c-2.7,0.6-5.2,1.4-7.7,2.4
	c-0.2,0.1-0.5,0.2-0.7,0.3c-0.4,0.2-0.7,0.3-1.1,0.5c-0.4,0.2-0.7,0.3-1.1,0.5c-0.3,0.1-0.6,0.3-0.9,0.4l-0.2,0.1l-0.1,0l-0.3,0.2
	c-0.2,0.1-0.5,0.2-0.7,0.4c-0.2,0.1-0.4,0.2-0.6,0.3c-0.2,0.1-0.5,0.3-0.7,0.4c-0.3,0.2-0.6,0.3-0.8,0.5l-0.4,0.2
	c-0.6,0.4-1.2,0.7-1.7,1.1L22,8.6c-0.3,0.2-0.6,0.4-0.9,0.6L21,9.3c-0.6,0.5-1.2,0.9-1.8,1.4l0,0l0,0c-2.7,2.1-5.3,4.6-7.5,7.3
	l-0.1,0.1C4.3,26.8,0,37.9,0,50c0,5,0.8,9.8,2.1,14.4v0l0,0.1c0.3,0.9,0.6,1.8,0.9,2.7c0.1,0.3,0.2,0.6,0.4,0.9
	c0.2,0.5,0.4,1,0.6,1.5c0.2,0.5,0.5,1,0.7,1.5C4.9,71.5,5,71.7,5.1,72C10,82,18,90,28.1,94.9c0.2,0.1,0.4,0.2,0.7,0.3
	c0.5,0.2,1.1,0.5,1.6,0.7c0.5,0.2,1,0.4,1.5,0.6c0.3,0.1,0.7,0.3,1,0.4c0.9,0.3,1.8,0.6,2.7,0.9l0.2,0l0.1,0
	C40.2,99.3,45,100,50,100c8.3,0,16.2-2,23.1-5.7l0.1,0l0.4-0.2c0.4-0.2,0.8-0.5,1.2-0.7c0.4-0.2,0.8-0.4,1.1-0.6
	c0.7-0.4,1.4-0.9,2.1-1.3c0.3-0.2,0.6-0.4,0.9-0.6c0.5-0.3,0.9-0.7,1.3-1c0.3-0.2,0.5-0.4,0.7-0.6c0.5-0.4,1-0.8,1.4-1.2
	c0.2-0.2,0.4-0.3,0.5-0.5c0.6-0.5,1.1-1,1.7-1.5l0.2-0.2c0.8-0.8,1.6-1.6,2.3-2.4l0.1-0.1c3.7-4.1,6.6-8.8,8.8-13.9
	c0.1-0.2,0.2-0.4,0.2-0.5c0.2-0.4,0.4-0.9,0.5-1.3v0c0.7-1.9,1.3-3.9,1.8-5.9l0.1-0.2c0.2-0.8,0.4-1.7,0.5-2.5l0-0.1l0,0
	c0.5-2.9,0.8-5.8,0.8-8.8C100,43.1,98.6,36.6,96.1,30.6z M48.3,25h5.1c0.4-4.2,2.1-8.1,4.7-11.2l-3.6-3.6c-0.7-0.6-0.7-1.7,0-2.3
	s1.7-0.7,2.3,0l3.6,3.6c2.3-2,5.1-3.4,8.2-4.2c3.3,1.4,6.3,3.2,9.1,5.3l0.2,0.1c0.5,0.3,0.9,0.7,1.3,1.1l0.4,0.3
	c0.3,0.3,0.7,0.6,1,0.9c0.3,0.2,0.5,0.4,0.7,0.6l0.4,0.4c0.9,0.8,1.7,1.6,2.5,2.4l0.3,0.3c0.2,0.2,0.4,0.5,0.7,0.7
	c0.3,0.3,0.6,0.6,0.8,1l0.3,0.4c0.4,0.5,0.7,0.9,1.1,1.3l0.1,0.2c2.1,2.8,3.8,5.9,5.3,9.1c-0.7,3.1-2.2,5.9-4.2,8.2l3.6,3.6
	c0.7,0.6,0.7,1.7,0,2.3C91.9,45.9,91.4,46,91,46c-0.4,0-0.9-0.2-1.2-0.5l-3.6-3.6c-3.1,2.6-7,4.3-11.2,4.7v5.1
	c0,0.9-0.8,1.7-1.7,1.7c-0.9,0-1.7-0.8-1.7-1.7v-5.1c-4.3-0.4-8.2-2.1-11.2-4.7l-3.6,3.6c-0.3,0.3-0.7,0.5-1.2,0.5
	c-0.4,0-0.9-0.2-1.2-0.5c-0.7-0.7-0.7-1.7,0-2.3l3.6-3.6c-2.6-3.1-4.3-7-4.7-11.2h-5.1c-0.9,0-1.7-0.8-1.7-1.7
	C46.7,25.8,47.4,25,48.3,25z M21.7,13l0.4-0.3c0.7-0.5,1.3-1,2-1.5c0.4-0.2,0.7-0.4,1-0.7l0.1-0.1c0.7-0.4,1.4-0.8,2.2-1.2
	c0.3-0.2,0.6-0.4,1-0.6c2,0.7,3.3,2.6,3.3,4.7c0,2.8-2.2,5-5,5s-5-2.2-5-5L21.7,13z M13.9,25c1.1-1.7,1.4-3.7,0.9-5.6
	c0.2-0.2,0.3-0.4,0.5-0.6c0.4-0.5,0.9-0.9,1.3-1.4c0.5-0.5,0.9-0.9,1.4-1.4c0.2-0.2,0.5-0.4,0.7-0.6c1,3.6,4.2,6.2,8,6.2
	c4.6,0,8.3-3.7,8.3-8.3c0-2.6-1.2-4.8-3-6.4c1-0.4,2.1-0.8,3.1-1.2l0.3-0.1c1.1-0.4,2.2-0.7,3.3-1C38.5,6,38.6,7.3,39,8.5
	c0.8,2.1,2.7,3.7,4.9,4.1l1.1,0.2v1.8l-1.1,0.2c-2.3,0.4-4.1,1.8-5.1,3.9c-0.9,2.1-0.7,4.5,0.6,6.3l0.6,0.9l-1.3,1.3L38.5,27
	c-1.2-0.8-2.5-1.3-3.9-1.3c-3.3,0-6.1,2.4-6.6,5.6l0,0.4h-1.8l-0.2-1.1c-0.6-3.1-3.3-5.4-6.5-5.4c-1.4,0-2.8,0.4-3.9,1.3l-0.9,0.7
	l-1.3-1.3L13.9,25z M63.2,82.3c-0.3,0.6-0.9,1-1.5,1c-0.2,0-0.5-0.1-0.7-0.2l-5.7-2.5c-2.2,4.2-5.5,7.7-9.5,10.2l1.9,2.9
	c0.5,0.8,0.3,1.8-0.5,2.3c-0.3,0.2-0.6,0.3-0.9,0.3c-0.5,0-1.1-0.3-1.4-0.8l-2-3.2c-2.1,1-4.3,1.7-6.7,2.1h0
	c-0.8-0.3-1.6-0.6-2.4-0.8c-0.4-0.2-0.7-0.3-1.1-0.5c-0.4-0.1-0.8-0.3-1.1-0.5c-0.5-0.2-1-0.4-1.5-0.7c-0.2-0.1-0.4-0.2-0.5-0.3
	c-9.3-4.6-16.8-12.1-21.4-21.4C8,70.3,7.9,70.2,7.8,70c-0.2-0.5-0.5-1-0.7-1.5c-0.2-0.4-0.3-0.7-0.5-1.1c-0.2-0.4-0.3-0.8-0.5-1.1
	c-0.3-0.8-0.6-1.6-0.8-2.4v0c0.5-2.7,1.3-5.1,2.4-7.4l-4-2.3c-0.8-0.5-1.1-1.5-0.6-2.3c0.5-0.8,1.5-1.1,2.3-0.6l4,2.3
	c2.7-4.1,6.5-7.3,10.9-9.4l-2-5.2c-0.3-0.9,0.1-1.8,1-2.1c0.9-0.3,1.8,0.1,2.1,1l2,5.2c2.6-0.8,5.3-1.3,8.1-1.3
	c3.3,0,6.4,0.6,9.3,1.7c0.3-0.8,0.6-1.4,0.7-1.6l1.8-4.1c0.4-0.8,1.3-1.2,2.2-0.8c0.8,0.4,1.2,1.3,0.8,2.2l-1.8,4.1
	c-0.1,0.1-0.4,0.7-0.9,1.5c5.3,2.7,9.5,7.2,12,12.6l5.2-2.1c0.9-0.3,1.8,0.1,2.1,1c0.3,0.9-0.1,1.8-1,2.1l-5.2,2.1
	c0.8,2.6,1.3,5.2,1.3,8c0,3.3-0.6,6.4-1.7,9.3l5.7,2.5C63.2,80.5,63.6,81.5,63.2,82.3z M92.3,69.6l-0.1,0.2
	c-1.7,3.5-3.8,6.8-6.2,9.8c-0.7-1.1-1-2.4-1-3.8c0-4.1,3.4-7.5,7.5-7.5l0.4,0C92.7,68.8,92.5,69.2,92.3,69.6z M94.1,65.1
	c-0.5-0.1-1.1-0.1-1.6-0.1c-6,0-10.8,4.9-10.8,10.8c0,2.3,0.7,4.5,2.1,6.3c-0.6,0.6-1.2,1.2-1.8,1.8l-0.2,0.2
	c-0.4,0.4-0.8,0.8-1.3,1.1c-0.2,0.1-0.3,0.3-0.5,0.4c-0.3,0.3-0.7,0.6-1,0.9c-0.3,0.2-0.5,0.4-0.8,0.6c-0.3,0.2-0.6,0.4-0.8,0.6
	c-0.3,0.2-0.5,0.4-0.8,0.6c0.4-1.6,0.2-3.3-0.5-4.9c-1.1-2.5-3.3-4.2-6-4.6l-1.7-0.3v-3l1.6-0.3c2.7-0.5,4.9-2.3,5.8-4.8
	c1-2.5,0.6-5.3-1-7.5l-1-1.4l2.1-2.1l2.1,1.5c1.3,0.9,2.8,1.4,4.4,1.4c3.8,0,7-2.7,7.7-6.4l0.5-2.5h3l0.3,1.7c0.2,1.5,0.9,2.9,1.9,4
	C95.4,61.2,94.8,63.2,94.1,65.1z"/>
<path d="M73.3,20c-3.7,0-6.7,3-6.7,6.7s3,6.7,6.7,6.7c3.7,0,6.7-3,6.7-6.7S77,20,73.3,20z M73.3,30c-1.8,0-3.3-1.5-3.3-3.3
	c0-1.8,1.5-3.3,3.3-3.3c1.8,0,3.3,1.5,3.3,3.3C76.7,28.5,75.2,30,73.3,30z"/>
<path d="M31.7,55c-7.3,0-13.3,6-13.3,13.3s6,13.3,13.3,13.3S45,75.7,45,68.3S39,55,31.7,55z M31.7,78.3c-5.5,0-10-4.5-10-10
	s4.5-10,10-10s10,4.5,10,10S37.2,78.3,31.7,78.3z"/>
<path d="M31.7,61.7c-3.7,0-6.7,3-6.7,6.7c0,3.7,3,6.7,6.7,6.7s6.7-3,6.7-6.7C38.3,64.6,35.4,61.7,31.7,61.7z M31.7,71.7
	c-1.8,0-3.3-1.5-3.3-3.3c0-1.8,1.5-3.3,3.3-3.3s3.3,1.5,3.3,3.3C35,70.2,33.5,71.7,31.7,71.7z"/>
</svg>
