<?xml version="1.0" encoding="utf-8"?>
<!-- Generator: Adobe Illustrator 19.0.1, SVG Export Plug-In . SVG Version: 6.00 Build 0)  -->
<svg version="1.1" id="Слой_1" xmlns="http://www.w3.org/2000/svg" xmlns:xlink="http://www.w3.org/1999/xlink" x="0px" y="0px"
	 viewBox="-449 688 100 125" style="enable-background:new -449 688 100 125;" xml:space="preserve">
<g>
	<path d="M-402.4,740c-0.1,0-0.1,0-0.2,0v-35c0-6-9.1-10.8-20.7-10.8c-11.6,0-20.7,4.7-20.7,10.8v58.3c0,6,9.1,10.8,20.7,10.8
		c0.4,0,0.7,0,1.1,0c2.5,4.5,10.3,7.7,19.9,7.7c11.6,0,20.7-4.7,20.7-10.8v-20.2C-381.7,744.7-390.8,740-402.4,740z M-384.4,750.8
		c0,3.9-7.2,8.1-18,8.1c-10.8,0-18-4.2-18-8.1s7.2-8.1,18-8.1C-391.7,742.7-384.4,746.9-384.4,750.8z M-384.4,756.2v5.4
		c0,3.9-7.2,8.1-18,8.1c-10.8,0-18-4.2-18-8.1v-5.4c0.1,0.1,0.2,0.1,0.2,0.2c0.3,0.3,0.6,0.5,1,0.8c0.1,0.1,0.3,0.2,0.4,0.3
		c0.4,0.3,0.9,0.6,1.4,0.8c0.1,0,0.1,0.1,0.2,0.1c0.6,0.3,1.2,0.6,1.8,0.8c0.2,0.1,0.3,0.1,0.5,0.2c0.5,0.2,1,0.4,1.5,0.5
		c0.2,0.1,0.4,0.1,0.6,0.2c0.6,0.2,1.3,0.4,2,0.5c0.1,0,0.1,0,0.2,0c0.8,0.2,1.5,0.3,2.3,0.4c0.2,0,0.5,0.1,0.7,0.1
		c0.6,0.1,1.2,0.1,1.8,0.2c0.2,0,0.5,0,0.7,0.1c0.8,0,1.7,0.1,2.6,0.1c0.9,0,1.7,0,2.6-0.1c0.2,0,0.5,0,0.7-0.1
		c0.6-0.1,1.2-0.1,1.8-0.2c0.2,0,0.5-0.1,0.7-0.1c0.8-0.1,1.6-0.3,2.3-0.4c0.1,0,0.1,0,0.2,0c0.7-0.1,1.4-0.3,2-0.5
		c0.2-0.1,0.4-0.1,0.6-0.2c0.5-0.2,1-0.3,1.5-0.5c0.2-0.1,0.4-0.1,0.5-0.2c0.6-0.3,1.2-0.5,1.8-0.8c0.1,0,0.1-0.1,0.2-0.1
		c0.5-0.3,0.9-0.5,1.4-0.8c0.1-0.1,0.3-0.2,0.4-0.3c0.4-0.3,0.7-0.5,1-0.8C-384.6,756.3-384.5,756.2-384.4,756.2z M-405.5,740.1
		c0.1,0,0.1-0.1,0.2-0.1v0.1C-405.4,740.1-405.5,740.1-405.5,740.1z M-423.3,696.9c10.8,0,18,4.2,18,8.1s-7.2,8.1-18,8.1
		c-10.8,0-18-4.2-18-8.1S-434.1,696.9-423.3,696.9z M-441.3,710.4c0.1,0.1,0.2,0.1,0.2,0.2c0.3,0.3,0.6,0.5,1,0.8
		c0.1,0.1,0.3,0.2,0.4,0.3c0.4,0.3,0.9,0.6,1.4,0.8c0.1,0,0.1,0.1,0.2,0.1c0.6,0.3,1.2,0.6,1.8,0.8c0.2,0.1,0.4,0.1,0.5,0.2
		c0.5,0.2,1,0.4,1.5,0.5c0.2,0.1,0.4,0.1,0.6,0.2c0.6,0.2,1.3,0.4,2,0.5c0.1,0,0.1,0,0.2,0c0.7,0.2,1.5,0.3,2.3,0.4
		c0.2,0,0.5,0.1,0.7,0.1c0.6,0.1,1.2,0.1,1.8,0.2c0.2,0,0.5,0,0.7,0.1c0.8,0.1,1.7,0.1,2.6,0.1c0.9,0,1.7,0,2.6-0.1
		c0.2,0,0.5,0,0.7-0.1c0.6-0.1,1.2-0.1,1.8-0.2c0.2,0,0.5-0.1,0.7-0.1c0.8-0.1,1.6-0.3,2.3-0.4c0.1,0,0.1,0,0.2,0
		c0.7-0.2,1.4-0.3,2-0.5c0.2-0.1,0.4-0.1,0.6-0.2c0.5-0.2,1-0.3,1.5-0.5c0.2-0.1,0.4-0.1,0.5-0.2c0.6-0.3,1.2-0.5,1.8-0.8
		c0.1,0,0.1-0.1,0.2-0.1c0.5-0.3,0.9-0.5,1.4-0.8c0.1-0.1,0.3-0.2,0.4-0.3c0.4-0.3,0.7-0.5,1-0.8c0.1-0.1,0.2-0.1,0.2-0.2v5.5
		c0,3.9-7.2,8.1-18,8.1c-10.8,0-18-4.2-18-8.1L-441.3,710.4L-441.3,710.4z M-441.3,721.2c3.5,3.2,10.2,5.4,18,5.4s14.5-2.1,18-5.4v4
		c0,3.9-7.2,8.1-18,8.1c-10.8,0-18-4.2-18-8.1C-441.3,725.2-441.3,721.2-441.3,721.2z M-441.3,730.6c3.5,3.2,10.2,5.4,18,5.4
		s14.5-2.1,18-5.4v4c0,3.9-7.2,8.1-18,8.1c-10.8,0-18-4.2-18-8.1C-441.3,734.6-441.3,730.6-441.3,730.6z M-441.3,740
		c3.5,3.2,10.2,5.4,18,5.4c1,0,2.1-0.1,3.1-0.1c-1.8,1.6-2.9,3.5-2.9,5.5v1.3c-0.1,0-0.1,0-0.2,0c-10.8,0-18-4.2-18-8.1
		C-441.3,744-441.3,740-441.3,740z M-441.3,749.4c3.5,3.2,10.2,5.4,18,5.4c0.1,0,0.1,0,0.2,0v6.7c-0.1,0-0.1,0-0.2,0
		c-10.8,0-18-4.2-18-8.1C-441.3,753.4-441.3,749.4-441.3,749.4z M-423.3,771.4c-10.8,0-18-4.2-18-8.1v-4.5c3.5,3.2,10.2,5.4,18,5.4
		c0.1,0,0.2,0,0.2,0v6.8c0,0.1,0,0.3,0,0.4C-423.1,771.4-423.2,771.4-423.3,771.4z M-402.4,779.1c-10.8,0-18-4.2-18-8.1v-4
		c3.5,3.2,10.2,5.4,18,5.4c7.8,0,14.5-2.1,18-5.4v4C-384.4,774.9-391.7,779.1-402.4,779.1z"/>
	<path d="M-356.7,713.4h-37.1c-1.5,0-2.7,1.2-2.7,2.7c0,1.5,1.2,2.7,2.7,2.7h37.1c1.5,0,2.7-1.2,2.7-2.7
		C-354,714.6-355.2,713.4-356.7,713.4z"/>
</g>
</svg>
