<?xml version="1.0" encoding="utf-8"?>
<!-- Generator: Adobe Illustrator 19.0.1, SVG Export Plug-In . SVG Version: 6.00 Build 0)  -->
<svg version="1.1" id="Слой_1" xmlns="http://www.w3.org/2000/svg" xmlns:xlink="http://www.w3.org/1999/xlink" x="0px" y="0px"
	 viewBox="-449 688 100 125" style="enable-background:new -449 688 100 125;" xml:space="preserve">
<g>
	<path d="M-393.8,719.9c0.7,0,1.5-0.3,2-0.9l16.6-18.3l16.6,18.3c1,1.1,2.7,1.2,3.8,0.2c1.1-1,1.2-2.7,0.2-3.8l-18.6-20.5
		c-1-1.1-3-1.1-4,0l-18.6,20.5c-1,1.1-0.9,2.8,0.2,3.8C-395.1,719.7-394.5,719.9-393.8,719.9z"/>
	<path d="M-373.3,713.3c-1-1.1-3-1.1-4,0l-18.6,20.5c-1,1.1-0.9,2.8,0.2,3.8c0.5,0.5,1.2,0.7,1.8,0.7c0.7,0,1.5-0.3,2-0.9l16.6-18.3
		l16.6,18.3c1,1.1,2.7,1.2,3.8,0.2c1.1-1,1.2-2.7,0.2-3.8L-373.3,713.3z"/>
	<path d="M-402.4,740.2c-0.1,0-0.1,0-0.2,0v-35c0-6-9.1-10.8-20.7-10.8c-11.6,0-20.7,4.7-20.7,10.8v58.3c0,6,9.1,10.7,20.7,10.7
		c0.4,0,0.7,0,1.1,0c2.5,4.5,10.3,7.7,19.8,7.7c11.6,0,20.7-4.7,20.7-10.7v-20.2C-381.7,744.9-390.8,740.2-402.4,740.2z
		 M-384.4,750.9c0,3.9-7.2,8.1-18,8.1c-10.8,0-18-4.2-18-8.1c0-3.9,7.2-8.1,18-8.1C-391.7,742.9-384.4,747.1-384.4,750.9z
		 M-384.4,756.3v5.4c0,3.9-7.2,8.1-18,8.1c-10.8,0-18-4.2-18-8.1v-5.4c0.1,0.1,0.2,0.1,0.2,0.2c0.3,0.3,0.6,0.5,1,0.8
		c0.1,0.1,0.3,0.2,0.4,0.3c0.4,0.3,0.9,0.6,1.4,0.8c0.1,0,0.1,0.1,0.2,0.1c0.6,0.3,1.2,0.6,1.8,0.8c0.2,0.1,0.3,0.1,0.5,0.2
		c0.5,0.2,1,0.4,1.5,0.5c0.2,0.1,0.4,0.1,0.6,0.2c0.6,0.2,1.3,0.4,2,0.5c0.1,0,0.1,0,0.2,0c0.8,0.2,1.5,0.3,2.3,0.4
		c0.2,0,0.5,0.1,0.7,0.1c0.6,0.1,1.2,0.1,1.8,0.2c0.2,0,0.5,0,0.7,0.1c0.8,0.1,1.7,0.1,2.6,0.1c0.9,0,1.7,0,2.6-0.1
		c0.2,0,0.5,0,0.7-0.1c0.6,0,1.2-0.1,1.8-0.2c0.2,0,0.5-0.1,0.7-0.1c0.8-0.1,1.6-0.3,2.3-0.4c0.1,0,0.1,0,0.2,0
		c0.7-0.2,1.4-0.3,2-0.5c0.2-0.1,0.4-0.1,0.6-0.2c0.5-0.2,1-0.3,1.5-0.5c0.2-0.1,0.4-0.1,0.5-0.2c0.6-0.3,1.2-0.5,1.8-0.8
		c0.1,0,0.1-0.1,0.2-0.1c0.5-0.3,0.9-0.5,1.4-0.8c0.2-0.1,0.3-0.2,0.4-0.3c0.4-0.3,0.7-0.5,1-0.8
		C-384.6,756.5-384.5,756.4-384.4,756.3z M-405.5,740.3c0.1-0.1,0.1-0.1,0.2-0.1v0.1C-405.4,740.3-405.5,740.3-405.5,740.3z
		 M-423.3,697.1c10.8,0,18,4.2,18,8.1s-7.2,8.1-18,8.1c-10.8,0-18-4.2-18-8.1S-434.1,697.1-423.3,697.1z M-441.3,710.6
		c0.1,0.1,0.2,0.1,0.2,0.2c0.3,0.3,0.6,0.5,1,0.8c0.1,0.1,0.3,0.2,0.4,0.3c0.4,0.3,0.9,0.6,1.4,0.8c0.1,0,0.1,0.1,0.2,0.1
		c0.6,0.3,1.2,0.6,1.8,0.8c0.2,0.1,0.3,0.1,0.5,0.2c0.5,0.2,1,0.4,1.5,0.5c0.2,0.1,0.4,0.1,0.6,0.2c0.7,0.2,1.3,0.4,2,0.5
		c0.1,0,0.1,0,0.2,0c0.7,0.2,1.5,0.3,2.3,0.4c0.2,0,0.5,0.1,0.7,0.1c0.6,0.1,1.2,0.1,1.8,0.2c0.2,0,0.5,0,0.7,0.1
		c0.8,0.1,1.7,0.1,2.6,0.1c0.9,0,1.7,0,2.6-0.1c0.3,0,0.5,0,0.7-0.1c0.6-0.1,1.2-0.1,1.8-0.2c0.2,0,0.5-0.1,0.7-0.1
		c0.8-0.1,1.6-0.3,2.3-0.4c0.1,0,0.1,0,0.2,0c0.7-0.2,1.4-0.3,2-0.5c0.2-0.1,0.4-0.1,0.6-0.2c0.5-0.2,1-0.3,1.5-0.5
		c0.2-0.1,0.4-0.1,0.5-0.2c0.6-0.3,1.2-0.5,1.8-0.8c0.1,0,0.1-0.1,0.2-0.1c0.5-0.3,0.9-0.5,1.4-0.8c0.1-0.1,0.3-0.2,0.4-0.3
		c0.4-0.3,0.7-0.5,1-0.8c0.1-0.1,0.2-0.1,0.2-0.2v5.5c0,3.9-7.2,8.1-18,8.1c-10.8,0-18-4.2-18-8.1L-441.3,710.6L-441.3,710.6z
		 M-441.3,721.4c3.5,3.2,10.2,5.4,18,5.4c7.8,0,14.5-2.1,18-5.4v4c0,3.9-7.2,8.1-18,8.1c-10.8,0-18-4.2-18-8.1
		C-441.3,725.4-441.3,721.4-441.3,721.4z M-441.3,730.8c3.5,3.2,10.2,5.4,18,5.4c7.8,0,14.5-2.1,18-5.4v4c0,3.9-7.2,8.1-18,8.1
		c-10.8,0-18-4.2-18-8.1C-441.3,734.8-441.3,730.8-441.3,730.8z M-441.3,740.2c3.5,3.2,10.2,5.4,18,5.4c1,0,2.1,0,3.1-0.1
		c-1.8,1.6-2.8,3.5-2.8,5.5v1.3c-0.1,0-0.2,0-0.2,0c-10.8,0-18-4.2-18-8.1C-441.3,744.2-441.3,740.2-441.3,740.2z M-441.3,749.6
		c3.5,3.2,10.2,5.4,18,5.4c0.1,0,0.2,0,0.2,0v6.7c-0.1,0-0.2,0-0.2,0c-10.8,0-18-4.2-18-8.1C-441.3,753.6-441.3,749.6-441.3,749.6z
		 M-423.3,771.6c-10.8,0-18-4.2-18-8.1V759c3.5,3.2,10.2,5.4,18,5.4c0.1,0,0.2,0,0.2,0v6.8c0,0.1,0,0.3,0,0.4
		C-423.1,771.6-423.2,771.6-423.3,771.6z M-402.4,779.2c-10.8,0-18-4.2-18-8.1v-4c3.5,3.2,10.2,5.4,18,5.4c7.8,0,14.5-2.1,18-5.4v4
		C-384.4,775.1-391.7,779.2-402.4,779.2z"/>
</g>
</svg>
