<?xml version="1.0" encoding="utf-8"?>
<!-- Generator: Adobe Illustrator 19.0.1, SVG Export Plug-In . SVG Version: 6.00 Build 0)  -->
<svg version="1.1" id="Слой_1" xmlns="http://www.w3.org/2000/svg" xmlns:xlink="http://www.w3.org/1999/xlink" x="0px" y="0px"
	 viewBox="-449 688 100 125" style="enable-background:new -449 688 100 125;" xml:space="preserve">
<path d="M-406.2,693.6c-0.1,0.1-0.3,0.3-0.3,0.6c0,0.6,0.3,0.8,0.8,0.8c0.6,0,0.8-0.3,0.8-0.8s-0.3-0.8-0.8-0.8
	C-406,693.3-406.1,693.3-406.2,693.6z M-401.1,693.6c-0.6,0.6-0.1,1.2,0.7,1.2c0.6,0,1-0.3,1-0.8
	C-399.6,693.3-400.6,693-401.1,693.6z M-396,693.6c-0.3,0.3-0.4,0.8,0,1.1c0.3,0.3,1,0.3,1.4,0C-393.9,693.9-395.2,692.9-396,693.6z
	 M-390.9,693.6c-0.3,0.3-0.3,0.8,0,1.1c0.3,0.3,1.1,0.3,1.2,0c0.3-0.3,0.3-0.8,0-1.1C-389.9,693.2-390.6,693.2-390.9,693.6z
	 M-409.7,695.9c-0.3,0.3-0.3,1,0,1.4c0.1,0.1,0.8,0.1,1.1-0.1c0.3-0.3,0.3-1,0-1.4C-408.9,695.7-409.4,695.5-409.7,695.9z
	 M-387.3,695.9c-0.1,0.1-0.3,0.3-0.3,0.7c0,0.4,0,0.6,0.3,0.8c0.1,0.1,0.3,0.3,0.4,0.3s0.3-0.1,0.4-0.3c0.3-0.3,0.4-0.3,0.4-0.8
	c0-0.4,0-0.6-0.3-0.7c-0.1-0.1-0.3-0.1-0.6-0.1C-387.2,695.8-387.2,695.8-387.3,695.9z M-405,698.3c-0.6,0.3-0.6,1.1,0.1,1.4
	c0.6,0.3,1.4-0.3,1.4-0.8c0-0.1-0.1-0.3-0.3-0.4C-404,698-404.6,698-405,698.3z M-398.6,698.1c-0.6,0.3-0.7,0.8-0.3,1.2
	c0.3,0.3,0.7,0.3,1.1,0c0.6-0.3,0.6-1,0.1-1.2C-398.1,698-398.2,698-398.6,698.1z M-392.7,698.1c-0.8,0.3-0.7,1.5,0.1,1.5
	c0.8,0,1.4-0.8,0.8-1.4C-392,698-392.1,698-392.7,698.1z M-402.8,699.8c-0.4,0.4-0.4,1.1,0,1.4c0.4,0.3,0.7,0.3,1,0
	c0.6-0.6,0.1-1.7-0.6-1.7C-402.4,699.5-402.6,699.5-402.8,699.8z M-396.6,699.8c-0.3,0.3-0.3,1.1,0,1.4c0.3,0.3,0.8,0.3,1,0
	c0.1-0.1,0.3-0.4,0.3-0.6c0-0.4,0-0.4-0.1-0.7C-395.7,699.5-396.1,699.5-396.6,699.8z M-390.5,699.8c-0.3,0.1-0.4,0.8-0.3,1.2
	c0.3,0.6,1.1,0.6,1.4,0.1c0.1-0.3,0.1-1-0.1-1.2C-389.8,699.5-390.2,699.5-390.5,699.8z M-409.7,700.9c-0.6,0.6-0.1,1.7,0.6,1.7
	c0.7,0,1-1.1,0.4-1.7c-0.1-0.1-0.4-0.3-0.6-0.3C-409.3,700.8-409.6,700.8-409.7,700.9z M-405.3,700.9c-0.1,0.1-0.4,0.4-0.4,0.7
	c0,0.3,0.7,0.8,1,0.8c0.7,0,1-1,0.4-1.4C-404.4,700.8-405,700.8-405.3,700.9z M-399.2,701c-0.3,0.3-0.3,0.7,0,1.1
	c0.6,0.6,1.5,0.3,1.5-0.4c0-0.3-0.1-0.6-0.6-0.7C-398.5,700.8-398.8,700.8-399.2,701z M-393.1,701c-0.6,0.4-0.1,1.4,0.7,1.4
	c0.8,0,1.1-0.7,0.4-1.2C-392.4,700.8-392.7,700.8-393.1,701z M-387,700.9c-0.4,0.1-0.6,0.4-0.6,1c0,0.4,0,0.6,0.1,0.7
	c0.3,0.3,0.8,0.3,1.1,0c0.3-0.3,0.3-1.1,0-1.4C-386.5,700.9-386.9,700.8-387,700.9z M-408.3,705.5c-0.6,0.4-0.3,1.1,0.4,1.2
	c0.7,0.1,1.1-0.1,1.1-0.7c0-0.3-0.4-0.7-0.8-0.8C-407.9,705.2-408,705.2-408.3,705.5z M-388.8,705.3c-1,0.3-0.6,1.7,0.4,1.5
	c0.6-0.1,0.8-0.4,0.8-0.8C-387.7,705.5-388.3,705.2-388.8,705.3z M-403.1,705.6c-0.5,0.4-0.1,1.4,0.7,1.4c0.4,0,0.7-0.3,0.7-0.8
	c0-0.4-0.4-0.8-0.8-0.8C-402.8,705.3-402.9,705.5-403.1,705.6z M-399.3,705.6c-0.3,0.3-0.4,0.8,0,1.2c0.3,0.3,0.7,0.3,1,0
	c0.6-0.3,0.7-0.8,0.3-1.2C-398.5,705.2-398.9,705.2-399.3,705.6z M-394.4,705.6c-0.1,0.1-0.3,0.3-0.3,0.6c0,0.4,0.3,0.8,0.8,0.8
	c0.6,0,1-0.3,1-0.8c0-0.3,0-0.4-0.3-0.6C-393.4,705.3-394.1,705.3-394.4,705.6z M-401.1,707.7c-0.4,0.4-0.4,0.7,0,1.1
	c0.3,0.3,0.7,0.3,1.1,0s0.4-0.8,0-1.1C-400.3,707.3-400.7,707.4-401.1,707.7z M-402.9,709.6c-0.6,0.4-0.2,1.4,0.5,1.4
	c0.4,0,0.8-0.6,0.8-0.8C-401.5,709.6-402.5,709.2-402.9,709.6z M-395,710.9c-0.4,0.1-0.6,0.4-0.6,0.7c0,0.6,0.4,1,1.1,0.7
	c0.7-0.1,1-0.8,0.4-1.2C-394.2,710.7-394.5,710.6-395,710.9z M-391.4,710.9c-0.3,0.3-0.4,0.8,0,1.1c0.3,0.3,1,0.3,1.4,0
	C-389.4,711.3-390.6,710.2-391.4,710.9z M-387.7,710.9c-0.3,0.3-0.4,0.8,0,1.1c0.3,0.3,1,0.3,1.4,0
	C-385.6,711.3-386.9,710.2-387.7,710.9z M-383.8,710.9c-0.6,0.4-0.1,1.4,0.6,1.4c0.6,0,1-0.3,1-0.8c0-0.3,0-0.4-0.3-0.6
	C-382.9,710.6-383.6,710.6-383.8,710.9z M-380.1,710.9c-0.1,0.1-0.3,0.3-0.3,0.6c0,0.4,0.3,0.8,0.8,0.8c0.6,0,1-0.3,1-0.8
	c0-0.3,0-0.4-0.3-0.6C-379.1,710.6-379.7,710.6-380.1,710.9z M-376.4,710.9c-0.3,0.3-0.3,0.8,0,1.1c0.3,0.3,1,0.3,1.2,0.1
	c0.4-0.3,0.4-1.1,0-1.4C-375.4,710.6-376.1,710.7-376.4,710.9z M-372.8,711.8c-0.3,0.3-0.3,0.7,0,1.1c0.3,0.3,0.3,0.4,0.7,0.4
	c0.7,0,1-0.6,0.7-1.1C-371.8,711.6-372.4,711.3-372.8,711.8z M-397.1,713.6c-0.1,0.1-0.1,0.4-0.1,0.7c0,0.4,0,0.6,0.3,0.7
	c0.3,0.3,0.7,0.3,1-0.1c0.3-0.3,0.3-1.1,0-1.4C-396.4,713.3-397,713.3-397.1,713.6z M-372.2,715.4c-0.3,0.3-0.3,1,0,1.4
	c0.1,0.1,0.3,0.3,0.6,0.3c0.6,0,0.8-0.3,0.8-0.8C-370.9,715.3-371.7,714.9-372.2,715.4z M-392.3,716c-0.3,0.1-0.3,0.3-0.3,0.6
	c0,0.3,0,0.4,0.3,0.7c0.3,0.3,0.4,0.3,1,0c0.6-0.3,0.7-0.7,0.4-1.2C-391.2,715.7-391.9,715.7-392.3,716z M-385.1,715.8
	c-0.3,0.1-0.6,0.6-0.6,0.8c0,0.3,0.4,0.7,0.7,0.7c1,0,1.4-0.8,0.8-1.4C-384.4,715.7-384.7,715.7-385.1,715.8z M-378.2,715.8
	c-0.4,0.3-0.6,0.4-0.6,0.8c0,0.6,0.7,0.8,1.4,0.6c0.4-0.3,0.6-0.6,0.4-1C-377.2,715.7-377.6,715.6-378.2,715.8z M-397.1,717.5
	c-0.1,0.1-0.1,0.4-0.1,0.7c0,0.6,0.3,0.8,0.7,0.8s0.7-0.3,0.7-0.8c0-0.4,0-0.6-0.1-0.7C-396.4,717.2-397,717.2-397.1,717.5z
	 M-389.7,717.6c-0.1,0.1-0.3,0.3-0.3,0.7c0,0.4,0,0.6,0.3,0.7c0.4,0.4,1,0.3,1.1-0.3c0.1-0.6,0.1-0.7-0.1-1.1
	C-388.8,717.4-389.4,717.2-389.7,717.6z M-382.5,717.5c-0.3,0.1-0.4,0.3-0.6,0.8c0,0.6,0.3,1,0.7,1c0.6,0,0.7-0.3,0.7-0.8
	c0-0.4,0-0.6-0.1-0.7C-381.9,717.5-382.2,717.4-382.5,717.5z M-375.6,717.5c-0.6,0.3-0.7,1.1-0.3,1.5c0.3,0.3,1,0.3,1.1,0
	c0.1-0.3,0.3-1.1,0-1.4C-375,717.4-375.3,717.4-375.6,717.5z M-392.4,718.9c-0.6,0.3-0.6,0.8-0.1,1.2c0.6,0.6,1.4,0.4,1.4-0.4
	c0-0.4-0.3-0.7-0.7-1C-392.1,718.7-392.1,718.7-392.4,718.9z M-385.6,719c-0.4,0.3-0.4,0.8,0,1.1c0.4,0.4,0.8,0.4,1.1,0.1
	c0.6-0.4,0.4-1-0.1-1.4C-385.1,718.7-385.4,718.7-385.6,719z M-378.7,719c-0.3,0.3-0.3,0.8-0.1,1.1c0.3,0.3,0.7,0.6,0.8,0.6
	c0.3,0,0.7-0.4,0.7-0.8c0-0.3-0.1-0.4-0.4-0.6C-377.9,718.7-378.3,718.7-378.7,719z M-372.2,719.3c-0.3,0.3-0.3,1,0,1.4
	c0.1,0.1,0.3,0.3,0.6,0.3c0.6,0,0.8-0.3,0.8-0.8c0-0.6-0.3-0.8-0.8-0.8C-372,719-372.1,719.2-372.2,719.3z M-397.1,721.2
	c-0.3,0.3-0.3,1.1,0,1.4c0.3,0.3,0.8,0.3,1.1,0c0.3-0.3,0.3-1.1,0-1.4S-397,721.1-397.1,721.2z M-372.2,722.9
	c-0.3,0.1-0.6,0.8-0.6,1.2c0.3,0.7,1,0.7,1.4,0.1c0.3-0.4,0.3-1,0-1.2C-371.8,722.7-372,722.7-372.2,722.9z M-418.7,723.4
	c-1,0.4-1.5,1.1-1.5,1.5c0,0.3,0.3,0.7,0.7,0.7c0.3,0,0.4,0,0.8-0.4c0.4-0.4,0.7-0.6,1.1-0.6c0.3-0.1,0.7-0.1,0.8-0.3
	c0.3-0.1,0.3-0.8,0-1.1C-417.2,723.2-418,723.2-418.7,723.4z M-415.5,723.4c-0.3,0.3-0.3,0.7,0,1l0.3,0.3h1.5c1.4,0,1.7,0,1.8-0.1
	c0.1-0.1,0.3-0.3,0.3-0.6s-0.1-0.4-0.3-0.6c-0.1-0.1-0.3-0.1-1.8-0.1C-415.1,723.3-415.4,723.3-415.5,723.4z M-410.7,723.4
	c-0.3,0.3-0.3,0.7,0,1c0.1,0.3,0.3,0.3,1.8,0.3c1.8,0,1.9,0,1.9-0.7s-0.1-0.7-1.9-0.7C-410.2,723.3-410.4,723.3-410.7,723.4z
	 M-405.7,723.4c-0.1,0.1-0.3,0.3-0.3,0.4c0,0.1,0.3,0.6,0.3,0.7c0,0,0.8,0.1,1.7,0.1c1.7,0,1.8,0,1.9-0.6c0-0.1,0-0.3-0.1-0.6
	c-0.1-0.3-0.1-0.3-1.8-0.3h-1.5L-405.7,723.4z M-400.8,723.4c-0.3,0.3-0.3,0.8,0,1.1c0.1,0.1,0.4,0.1,1.8,0.1c1.5,0,1.7,0,1.8-0.3
	c0.3-0.3,0.3-0.7,0-1c-0.1-0.1-0.3-0.1-1.8-0.1C-400.6,723.3-400.7,723.3-400.8,723.4z M-396,723.4c-0.1,0.1-0.3,0.3-0.3,0.6
	c0,0.1,0.1,0.4,0.3,0.6c0.1,0.1,0.3,0.3,1.8,0.3s1.5,0,1.8-0.3c0.1-0.1,0.1-0.3,0.1-0.6c0-0.1-0.1-0.4-0.1-0.6
	c-0.1-0.1-0.3-0.1-1.8-0.1C-395.6,723.3-395.7,723.3-396,723.4z M-391.3,724.1c-0.1,0-0.1,0.1-0.3,0.4c0,0.4,0,0.4,0.3,0.8
	c0.3,0.4,0.7,1.4,0.7,1.8c0,0.4,1,0.7,1.2,0.3c0.3-0.3,0.1-1.5-0.3-2.3C-390.1,724.3-390.6,724-391.3,724.1z M-387.7,724.3
	c-0.3,0.3-0.3,0.7,0,1c0.1,0.3,0.3,0.3,0.7,0.3c0.7,0,0.8-0.1,0.8-0.7c0-0.6-0.3-0.7-1-0.7C-387.4,724.1-387.7,724.3-387.7,724.3z
	 M-384,724.4c-0.1,0.1-0.3,0.3-0.3,0.4c0,0.3,0.3,0.7,0.6,0.8c0.3,0.1,0.4,0.1,0.7,0c0.8-0.4,0.6-1.5-0.4-1.5
	C-383.7,724.1-383.8,724.3-384,724.4z M-379.7,724.4c-0.7,0.8,0.4,1.8,1.1,1.1c0.7-0.6,0.4-1.4-0.4-1.4
	C-379.4,724.1-379.6,724.1-379.7,724.4z M-376.1,724.4c-0.3,0.3-0.3,0.7,0,1c0.1,0.1,0.3,0.3,0.7,0.3c0.8,0,1.2-0.6,0.7-1.2
	c-0.1-0.3-0.3-0.3-0.7-0.3C-375.7,724.1-375.8,724.3-376.1,724.4z M-381.9,726.6c-0.3,0.3-0.3,0.7,0,1.1c0.3,0.3,0.3,0.3,0.7,0.3
	c0.6,0,0.7-0.3,0.7-0.7C-380.5,726.6-381.4,726.2-381.9,726.6z M-379.7,726.6c-0.3,0.3-0.3,1,0,1.2c0.3,0.3,0.8,0.3,1.1,0
	c0.4-0.6,0.1-1.4-0.6-1.4C-379.4,726.5-379.6,726.5-379.7,726.6z M-420.7,726.8c-0.3,0.2-0.3,0.2-0.3,1.6c0,1.8,0.1,2.1,0.8,2.1
	c0.7,0,0.7-0.1,0.7-1.9c0-1.4,0-1.5-0.3-1.7C-419.9,726.5-420.5,726.5-420.7,726.8z M-390.3,729l-0.3,0.1v1.5c0,1.4,0,1.7,0.1,1.8
	c0.3,0.3,0.7,0.3,1,0c0.3-0.1,0.3-0.3,0.3-1.8V729l-0.3-0.1c-0.1-0.1-0.3-0.3-0.4-0.3C-390.1,728.7-390.2,728.8-390.3,729z
	 M-379.8,729c-0.6,0.4-0.1,1.4,0.6,1.4c0.6,0,0.8-0.3,0.8-0.8C-378.5,728.8-379.1,728.4-379.8,729z M-414.4,729.5
	c-0.4,0.1-0.8,0.6-0.8,0.8c0,0.7,0.6,1,1.2,0.7c0.3-0.1,0.6-0.1,0.8-0.1c1.2,0.1,1.2,0.1,1.5,0c0.1-0.3,0.3-0.6,0.1-0.8
	C-411.8,729.5-413.4,729.2-414.4,729.5z M-406,729.7c-0.4,0.1-0.8,0.6-0.8,0.8s0.3,0.7,0.4,0.7s0.4,0,0.6,0c0.4-0.1,1.2-0.1,1.8,0
	c0.3,0,0.6,0,0.7-0.1c0.3-0.3,0.3-0.8,0-1.1C-403.7,729.5-405.1,729.4-406,729.7z M-397.5,729.7c-0.8,0.3-1.1,0.8-0.7,1.4
	c0.1,0.3,0.3,0.3,0.7,0.3c0.7-0.1,1.4-0.1,1.9,0c0.3,0,0.4,0,0.7-0.1c0.3-0.3,0.3-0.8,0-1.1C-395.3,729.5-396.7,729.4-397.5,729.7z
	 M-420.5,731.5c-0.4,0.1-0.4,0.6-0.4,2.1c0,1.4,0,1.4,0.3,1.7c0.3,0.3,0.7,0.3,1,0c0.3-0.3,0.3-0.3,0.3-1.8c0-1.2,0-1.5-0.1-1.7
	C-419.8,731.5-420.2,731.3-420.5,731.5z M-415.9,731.7c-0.3,0.1-0.3,0.3-0.3,0.7c0,1.2,1,2.5,1.9,2.5c0.3,0,0.4,0,0.6-0.3
	c0.3-0.4,0.1-0.7-0.3-1.2c-0.4-0.4-0.6-0.6-0.6-1c0-0.3-0.1-0.6-0.3-0.7C-415.4,731.5-415.6,731.5-415.9,731.7z M-411.6,731.9
	c-0.1,0.1-0.3,0.4-0.3,0.6c0,0.4-0.3,0.8-0.7,1.1c-0.3,0.3-0.4,0.3-0.4,0.7c0,0.6,0.3,0.7,0.7,0.7c0.3,0,0.4-0.1,1-0.6
	c0.6-0.6,0.8-1.2,0.8-2.1C-410.4,731.6-411.2,731.3-411.6,731.9z M-407.5,731.9c-0.3,0.3-0.3,0.3-0.3,0.8c0,0.8,0.4,1.4,1,1.9
	c0.7,0.7,1.5,0.4,1.5-0.4c0-0.3-0.1-0.4-0.4-0.7c-0.3-0.3-0.4-0.6-0.6-0.7c0-0.1,0-0.4-0.1-0.6
	C-406.5,731.7-407.1,731.5-407.5,731.9z M-403.3,731.9c-0.1,0.1-0.3,0.4-0.3,0.6c0,0.4-0.3,0.8-0.7,1.1c-0.3,0.3-0.4,0.3-0.4,0.7
	c0,0.4,0.3,0.7,0.8,0.7c0.3,0,0.4-0.1,1-0.6c1.1-1.1,1.2-2.9,0.1-2.9C-402.9,731.7-403.1,731.7-403.3,731.9z M-399.2,731.9
	c-0.6,0.4-0.3,1.8,0.7,2.6c0.4,0.4,0.6,0.6,1,0.6c0.6,0,0.7-0.3,0.7-0.7c0-0.3,0-0.4-0.4-0.7c-0.4-0.3-0.7-0.7-0.7-1.2
	c0-0.4-0.4-0.8-0.7-0.8C-398.8,731.7-398.9,731.7-399.2,731.9z M-394.8,731.9c-0.1,0.1-0.2,0.2-0.2,0.2c0,0.4-0.3,1-0.7,1.4
	c-0.6,0.6-0.6,1-0.3,1.2c0.3,0.3,0.8,0.3,1.4-0.3c1.1-1,1.4-2.9,0.3-2.9C-394.4,731.7-394.6,731.7-394.8,731.9z M-390.5,733.8
	c-0.1,0.1-0.3,0.3-0.3,1.4v1.2h-1c-0.8,0-1,0-1.1,0.3c-0.1,0.4-0.1,0.6,0,0.8c0.1,0.4,0.6,0.6,2.2,0.4c1.4,0,1.5,0,1.7-0.3
	c0.3-0.3,0.3-0.7,0-1c-0.1-0.1-0.1-0.6-0.1-1.5c0-1.1,0-1.2-0.3-1.5C-389.7,733.5-390.2,733.5-390.5,733.8z M-420.7,736.6
	c-0.2,0.1-0.3,0.4-0.3,0.5c0,0.8,0.4,2.1,1,2.6c0.3,0.3,0.8,0.3,1.2,0c0.3-0.3,0.3-0.6,0-1.1c-0.3-0.4-0.6-1.1-0.6-1.7
	C-419.4,736.3-420.3,736-420.7,736.6z M-396.7,736.8c-1.1,0.6-1.4,1.2-0.8,1.8c0.3,0.3,0.8,0.3,1.2-0.1c0.3-0.3,0.4-0.3,1.1-0.4
	c1,0,1.2-0.3,1.2-0.8c0-0.6-0.3-0.7-1.2-0.7C-395.9,736.6-396.1,736.6-396.7,736.8z M-387.6,736.7c-0.3,0.3-0.3,0.7,0,1
	c0.1,0.3,0.3,0.3,1.8,0.3c1.7,0,1.7,0,1.9-0.3c0.3-0.3,0.3-0.7,0-1c-0.3-0.3-0.3-0.3-1.8-0.3h-1.8L-387.6,736.7z M-382.5,736.7
	c-0.3,0.3-0.3,0.7,0,1c0.1,0.3,0.3,0.3,1.7,0.3c1.5,0,1.8,0,2.1-0.3c0.3-0.3,0.3-0.7,0-1l-0.3-0.3h-1.7
	C-382.2,736.6-382.3,736.6-382.5,736.7z M-377.4,736.7c-0.3,0.3-0.3,0.7,0,1.1c0.1,0.3,0.3,0.3,1.2,0.3c0.7,0,1.1,0.1,1.4,0.3
	c0.4,0.3,0.8,0.1,1.1-0.3c0.3-0.4,0-0.8-0.6-1.1c-0.4-0.3-0.6-0.3-1.7-0.3C-377.1,736.4-377.2,736.6-377.4,736.7z M-373.9,739.3
	c-0.3,0.1-0.3,0.3-0.3,1.8c0,1.8,0,1.9,0.6,2.1c0.1,0,0.3,0,0.6-0.1l0.3-0.1v-1.7c0-1.5,0-1.7-0.1-1.8
	C-373.1,739.2-373.5,739.1-373.9,739.3z M-417.7,739.7c-0.3,0.3-0.3,0.7,0,1.1c0.3,0.3,0.3,0.3,1.7,0.3c1.8,0,2.1-0.1,2.1-0.8
	c0-0.1-0.1-0.4-0.1-0.6c-0.1-0.1-0.3-0.1-1.7-0.1C-417.4,739.5-417.6,739.5-417.7,739.7z M-412.9,739.6c-0.1,0.1-0.3,0.3-0.3,0.6
	c0,0.1,0,0.4,0.1,0.6c0.1,0.1,0.6,0.3,0.8,0.3c0.2,0,0.3,0,0.3,0.4c0,0.7,0.7,1,1.2,0.6c0.1-0.1,0.1-0.4,0.1-1.1
	c0-1.2,0-1.4-1.2-1.4C-412.3,739.5-412.6,739.5-412.9,739.6z M-406.5,739.6c-0.1,0-0.4,0.4-0.7,0.7c-0.6,0.7-0.7,1.1-0.1,1.4
	c0.4,0.3,0.7,0.3,1.2-0.3c0.4-0.4,0.4-0.4,1-0.4c0.8,0,1.1-0.3,1.1-0.8c0-0.6-0.3-0.7-1.4-0.7C-406,739.5-406.4,739.5-406.5,739.6z
	 M-402.9,739.7c-0.1,0.1-0.3,0.3-0.3,0.6s0,0.4,0.3,0.6c0.1,0.1,0.4,0.1,1.7,0.1c1.4,0,1.5,0,1.7-0.3c0.3-0.3,0.3-0.7,0-1
	s-0.3-0.3-1.8-0.3C-402.5,739.5-402.6,739.5-402.9,739.7z M-397.9,739.6c0,0-0.3,0.3-0.3,0.4c-0.1,0.3-0.3,0.6-0.3,1.8
	s0,1.5,0.3,1.7c0.3,0.3,0.8,0.4,1.1,0c0.1-0.1,0.3-0.3,0.3-1.8c0-1.7-0.1-1.9-0.6-2.1c-0.1,0-0.3-0.1-0.1-0.1
	C-397.7,739.5-397.7,739.5-397.9,739.6z M-393.2,741.5c-0.8,0.4-1.4,1.2-1.4,2.2c0,0.4,0,0.6,0.3,0.7c0.6,0.4,1.1,0.1,1.2-0.6
	c0.1-0.6,0.6-1,0.8-1c0.4,0,0.8-0.4,0.8-0.8C-391.4,741.3-392.3,741-393.2,741.5z M-386.5,741.5c-0.8,0.4-1.4,1.2-1.4,2.1
	c0,0.6,0.1,0.8,0.7,0.8c0.4,0,0.7-0.3,0.7-0.8c0-0.3,0.1-0.6,0.3-0.7c0.1-0.1,0.4-0.3,0.7-0.3s0.4-0.1,0.6-0.3
	c0.3-0.3,0.3-0.8,0-1.1C-385.1,741.3-385.9,741.3-386.5,741.5z M-379.7,741.5c-0.4,0.3-1.1,0.8-1.2,1.2c-0.3,0.6-0.1,1.2,0,1.5
	c0.3,0.3,0.8,0.3,1.1,0c0.1-0.1,0.1-0.3,0.3-0.6c0.1-0.4,0.4-0.8,0.8-1c0.6-0.1,0.8-0.3,0.8-0.7c0-0.6-0.1-0.8-0.8-0.8
	C-379,741.3-379.4,741.4-379.7,741.5z M-409,742.4c-1,1.1-1.1,1.4-0.7,1.9c0.4,0.4,0.7,0.3,1.4-0.3c0.8-0.8,1.1-1.2,1-1.7
	c-0.1-0.4-0.3-0.6-0.8-0.6C-408.3,741.7-408.4,741.8-409,742.4z M-390.9,743.2c-0.1,0.1-0.3,0.3-0.3,0.6c0,0.4-0.6,1-1,1
	c-0.7,0-1,1-0.4,1.4c0.3,0.1,0.3,0.1,0.8,0.1c0.3,0,0.7-0.3,1-0.4c0.6-0.3,0.8-1,1-1.7c0.1-0.6,0.1-0.6-0.1-0.8
	C-390.1,742.9-390.6,742.9-390.9,743.2z M-384,743.1c-0.3,0.1-0.4,0.3-0.6,0.8c-0.1,0.4-0.4,0.8-1,0.8c-0.6,0.1-0.7,0.3-0.7,0.7
	c0,0.6,0.3,0.7,0.8,0.7c0.7,0,1.1-0.3,1.7-0.7c0.8-0.8,1.1-2.2,0.4-2.5C-383.6,742.9-383.6,742.9-384,743.1z M-377.1,743.1
	c-0.3,0.1-0.4,0.3-0.6,0.7c-0.1,0.6-0.4,0.8-1,1c-0.6,0.1-0.8,0.3-0.8,0.8c0,0.6,0.3,0.7,0.8,0.7c1.1,0,2.2-0.8,2.3-2.1
	c0-0.6-0.1-1-0.4-1.1C-376.8,742.9-376.8,742.9-377.1,743.1z M-411.6,744.2c-0.1,0.1-0.3,0.3-0.3,1.1c0,1.1,0.1,1.4,0.8,1.4
	c0.3,0,0.4-0.1,1-0.6c0.3-0.3,0.6-0.7,0.7-0.8c0.1-0.4-0.1-0.8-0.4-0.8c-0.1,0-0.4-0.1-0.6-0.3C-410.9,743.9-411.3,744-411.6,744.2z
	 M-373.9,744.4c-0.3,0.1-0.3,0.3-0.3,1.8v1.7l0.3,0.3c0.3,0.3,0.7,0.3,1,0c0.1-0.1,0.1-0.4,0.1-1.8c0-1.5,0-1.7-0.3-1.8
	C-373.1,744.3-373.5,744.3-373.9,744.4z M-398.1,745c-0.4,0.1-0.4,0.6-0.4,2.2c0,1.2,0,1.4,0.3,1.5c0.3,0.3,0.8,0.3,1.1,0
	c0.1-0.1,0.3-0.3,0.3-1.8s0-1.7-0.3-1.8C-397.4,744.9-397.7,744.7-398.1,745z M-375,749.4c-0.3,0.1-0.6,0.1-1.2,0.1
	c-0.8,0-1,0-1.1,0.3c-0.3,0.3-0.3,0.8,0.1,1.1c0.3,0.3,0.4,0.3,1.2,0.1c0.8,0,1.1-0.1,1.7-0.3c0.8-0.4,1-0.8,0.6-1.4
	C-374,749.1-374.5,749-375,749.4z M-396.4,749.4c-0.3,0.1-0.6,0.4-0.6,0.7c0,0.8,0.4,1,2.1,1c1.2,0,1.4,0,1.7-0.1
	c0.3-0.3,0.4-0.7,0.1-1.1c-0.1-0.1-0.3-0.3-1.5-0.3c-0.7,0-1.4-0.1-1.5-0.1C-396.1,749.4-396.3,749.4-396.4,749.4z M-391.4,749.7
	c-0.4,0.3-0.4,1.1,0.1,1.4c0.1,0,1,0.1,1.7,0.1c1.4,0,1.4,0,1.7-0.3c0.3-0.3,0.3-0.8,0-1.1c-0.3-0.3-0.3-0.3-1.8-0.3
	C-390.6,749.6-391.4,749.6-391.4,749.7z M-386.5,749.8c-0.1,0.1-0.3,0.4-0.3,0.6c0,0.2,0.1,0.4,0.3,0.6c0.3,0.3,0.3,0.3,0.8,0.3
	c0.6,0,0.6,0,1,0.4c0.6,0.6,0.8,0.6,1.2,0.3c0.4-0.4,0.3-0.8-0.6-1.7l-0.4-0.4h-1C-386.2,749.6-386.2,749.6-386.5,749.8z
	 M-381.2,749.7c-0.1,0.1-0.1,0.3-0.1,1.1c0,0.7,0,1,0.1,1.1c0.6,0.6,1.2,0.1,1.2-0.6c0-0.4,0-0.4,0.3-0.4c0.3,0,0.7-0.1,0.8-0.3
	c0,0,0.1-0.3,0.1-0.6c0-0.6-0.3-0.7-1.4-0.7C-380.8,749.6-380.9,749.6-381.2,749.7z M-426.8,751.9c-1.1,0.6-1.9,1.5-2.1,2.8
	c-0.1,0.8-0.1,10.8,0,11.6c0.3,1.2,1,2.2,2.2,2.8l0.6,0.3h3.1h3.2v3.3c0,1.8,0,3.3,0,3.5c0,0.1,0.8-0.7,3-3.3l3-3.5h6.4h6.4v1.6
	c0,1.9,0.1,2.6,0.6,3.5c0.4,0.7,1,1.2,1.7,1.7l0.6,0.3h6.9h6.9l2.9,3.5l3,3.5v-1.8c0-1,0.1-2.6,0.1-3.5v-1.7h3.2h3.1l0.6-0.3
	c0.8-0.4,1.4-1,1.8-1.8l0.3-0.7v-6.1v-6.1l-0.1-0.6c-0.3-0.7-1-1.4-1.7-1.8l-0.6-0.3h-12.7h-12.7v-2.2c0-2.1,0-2.2-0.3-2.8
	c-0.3-0.7-1-1.4-1.7-1.8l-0.6-0.3h-13.2h-13.2L-426.8,751.9z M-400.3,753.1c0.7,0.1,1.2,0.8,1.5,1.5c0.1,0.4,0.1,1.5,0.1,5.9
	c0,5.9,0,5.8-0.6,6.5c-0.7,0.8-0.3,0.7-8.2,0.7h-7l-1.8,2.3l-1.9,2.2v-1c0-0.6,0-1.5-0.1-2.2v-1.1h-3.7c-2.1,0-3.7,0-4-0.1
	c-0.1,0-0.6-0.3-0.8-0.6c-0.7-0.7-0.7-0.7-0.6-7c0-5.4,0-5.5,0.3-5.9c0.3-0.6,0.7-1,1.2-1.1C-425.4,753.1-401.1,753-400.3,753.1z
	 M-372.2,760.3c0.7,0.1,1.2,0.8,1.5,1.5c0.1,0.4,0.1,1.5,0.1,5.9c0,5.9,0,5.8-0.6,6.5c-0.6,0.8-0.6,0.8-4.8,0.8h-3.7v2.2v2.2
	l-1.9-2.2l-2-2.2h-6.9c-4.4,0-7,0-7.3-0.1c-0.1,0-0.6-0.3-0.8-0.6c-0.7-0.7-0.7-1.1-0.7-3.3v-1.8l0.4-0.3c0.7-0.4,1.1-1,1.4-1.7
	l0.3-0.7v-3c0-1.7,0-3.2,0-3.2C-397.1,760.1-372.9,760.1-372.2,760.3z M-422.4,758c-0.6,0.3-1.4,1-1.7,1.5c-0.1,0.4-0.3,0.7-0.3,1.2
	c0,1.2,0.6,2.2,1.8,2.8c0.7,0.3,1.9,0.3,2.6-0.1c2.1-1.2,1.9-4.1-0.1-5.3C-420.6,757.8-421.7,757.7-422.4,758z M-420.6,759.5
	c0.7,0.4,1,1.2,0.6,1.9c-0.7,1.1-2.2,0.8-2.6-0.4c-0.1-0.3-0.1-0.6,0.1-0.8C-422.3,759.4-421.4,759.1-420.6,759.5z M-413.8,758
	c-0.7,0.3-1.4,0.8-1.8,1.5c-0.3,0.6-0.3,2.1,0,2.5c0.6,1,1.4,1.5,2.5,1.7c1,0,1.7-0.1,2.3-0.8c1.4-1.4,1.1-3.6-0.7-4.7
	c-0.4-0.3-0.7-0.3-1.2-0.3C-413.1,757.8-413.7,758-413.8,758z M-412.2,759.6c1,0.6,1,1.9,0,2.5c-1,0.6-2.1-0.1-2.1-1.2
	C-414.3,759.8-413.1,759.1-412.2,759.6z M-405.4,758c-2.1,0.7-2.6,3.3-1.1,4.8c0.7,0.7,1.4,1,2.3,0.8c0.8,0,1.2-0.3,1.8-0.8
	c1.2-1.1,1.2-3,0.1-4.1c-0.6-0.6-1.1-0.8-1.9-0.8C-404.9,757.8-405.3,758-405.4,758z M-403.7,759.6c1.2,0.7,0.7,2.6-0.7,2.6
	c-0.8,0-1.4-0.6-1.4-1.4s0.6-1.4,1.4-1.4C-404.3,759.4-403.9,759.5-403.7,759.6z M-394.4,764.8c-0.6,0.3-1.4,1-1.7,1.5
	c-0.1,0.4-0.3,0.7-0.3,1.2c0,1.2,0.6,2.2,1.8,2.8c0.7,0.3,1.9,0.3,2.6-0.1c2.1-1.2,1.9-4.1-0.1-5.3
	C-392.6,764.6-393.7,764.5-394.4,764.8z M-385.6,764.8c-0.7,0.3-1.4,0.8-1.8,1.5c-0.3,0.6-0.3,2.1,0,2.5c0.6,1,1.4,1.5,2.5,1.7
	c1,0,1.7-0.1,2.3-0.8c1.4-1.4,1.1-3.6-0.7-4.7c-0.4-0.3-0.7-0.3-1.2-0.3C-385.1,764.8-385.5,764.8-385.6,764.8z M-377.4,764.8
	c-2.1,0.7-2.6,3.3-1.1,4.8c0.7,0.7,1.4,1,2.3,0.8c0.8,0,1.1-0.3,1.8-0.8c1.2-1.1,1.2-3,0.1-4.1c-0.6-0.6-1.1-0.8-1.9-0.8
	C-376.8,764.6-377.2,764.8-377.4,764.8z M-381.2,753.1c-0.1,0.1-0.3,0.1-0.4,0.1c-0.3,0-0.7,0.4-0.7,0.7c0,0.3,0.1,0.6,0.7,1.2
	c0.4,0.4,0.6,0.6,0.8,0.6c0.7,0,0.8-0.3,0.8-1.4c0-0.8,0-1-0.3-1.1C-380.4,752.9-380.9,752.9-381.2,753.1z"/>
</svg>
