<?xml version="1.0" encoding="utf-8"?>
<!-- Generator: Adobe Illustrator 19.0.1, SVG Export Plug-In . SVG Version: 6.00 Build 0)  -->
<svg version="1.1" id="Слой_1" xmlns="http://www.w3.org/2000/svg" xmlns:xlink="http://www.w3.org/1999/xlink" x="0px" y="0px"
	 viewBox="-449 688 100 125" style="enable-background:new -449 688 100 125;" xml:space="preserve">
<g>
	<path d="M-371.2,755l22.2-4.5l-22.2-4.5c-0.9-5.6-3.5-11-7.9-15.4c-4.3-4.3-9.7-7-15.4-7.9l-4.5-22.2l-4.5,22.2
		c-3.3,0.5-6.5,1.7-9.5,3.4l-32.4-22l22,32.4c-1.7,3-2.8,6.2-3.4,9.5l-22.2,4.5l22.2,4.5c0.9,5.6,3.5,11,7.9,15.4
		c4.3,4.3,9.7,7,15.4,7.9l4.5,22.2l4.5-22.2c3.3-0.5,6.5-1.7,9.5-3.4l32.4,22l-22-32.4C-372.9,761.5-371.8,758.3-371.2,755z
		 M-399,772.3c-5.6,0-11.1-2.1-15.4-6.4c-6.3-6.3-7.9-15.5-4.9-23.3l11.4,16.8l16.8,11.4C-393.6,771.8-396.3,772.3-399,772.3z
		 M-402.7,746.8c1-1,2.4-1.5,3.7-1.5c1.3,0,2.7,0.5,3.7,1.5c2,2,2,5.3,0,7.4c-1,1-2.3,1.5-3.7,1.5s-2.7-0.5-3.7-1.5
		C-404.7,752.1-404.7,748.9-402.7,746.8z M-378.8,758.4l-11.4-16.8l-16.8-11.4c2.6-1,5.3-1.5,8-1.5c5.6,0,11.1,2.1,15.4,6.4
		C-377.3,741.4-375.7,750.6-378.8,758.4z"/>
	<path d="M-405.6,712l2.3-11.3c-9,0.8-17.9,4-25.5,9.7l9.7,6.6C-414.9,714.5-410.3,712.8-405.6,712z"/>
	<path d="M-392.4,789l-2.3,11.3c9-0.8,17.9-4,25.5-9.7l-9.7-6.6C-383.1,786.5-387.7,788.2-392.4,789z"/>
	<path d="M-432.5,730.4l-6.6-9.7c-5.7,7.6-8.9,16.5-9.7,25.5l11.3-2.3C-436.7,739.2-435,734.6-432.5,730.4z"/>
	<path d="M-426.6,778.1c-5.9-5.9-9.6-13.3-10.9-21l-11.3-2.3c1,11.3,5.8,22.4,14.5,31.1c8.7,8.7,19.7,13.5,31.1,14.5l-2.3-11.3
		C-413.3,787.7-420.7,784.1-426.6,778.1z"/>
	<path d="M-371.4,722.9c5.9,5.9,9.6,13.3,10.9,21l11.3,2.3c-1-11.3-5.8-22.4-14.5-31.1s-19.7-13.5-31.1-14.5l2.3,11.3
		C-384.7,713.3-377.3,716.9-371.4,722.9z"/>
	<path d="M-365.5,770.6l6.6,9.7c5.7-7.6,8.9-16.5,9.7-25.5l-11.3,2.3C-361.3,761.8-363,766.4-365.5,770.6z"/>
</g>
</svg>
