<?xml version="1.0" encoding="utf-8"?>
<!-- Generator: Adobe Illustrator 19.0.1, SVG Export Plug-In . SVG Version: 6.00 Build 0)  -->
<svg version="1.1" id="Слой_1" xmlns="http://www.w3.org/2000/svg" xmlns:xlink="http://www.w3.org/1999/xlink" x="0px" y="0px"
	 viewBox="-454 694.5 90 112.5" style="enable-background:new -454 694.5 90 112.5;" xml:space="preserve">
<path d="M-376.9,715.4h-64.1c-2.9,0-5.3,2.4-5.3,5.3v37.7c0,2.9,2.4,5.3,5.3,5.3h64.1c2.9,0,5.3-2.4,5.3-5.3v-37.7
	C-371.6,717.8-374,715.4-376.9,715.4z M-441.1,718.1h64.1c1.4,0,2.6,1.2,2.6,2.6v1.5h-69.3v-1.5
	C-443.6,719.2-442.5,718.1-441.1,718.1z M-376.9,760.9h-64.1c-1.4,0-2.6-1.2-2.6-2.6v-22.2h69.3v22.2
	C-374.4,759.8-375.5,760.9-376.9,760.9z"/>
<g>
	<path d="M-403.4,747.2h-34.8c-0.7,0-1.4-0.6-1.4-1.4c0-0.7,0.6-1.4,1.4-1.4h34.8c0.7,0,1.4,0.6,1.4,1.4
		C-402,746.6-402.6,747.2-403.4,747.2z"/>
</g>
<g>
	<path d="M-422,755.4h-16.2c-0.7,0-1.4-0.6-1.4-1.4c0-0.7,0.6-1.4,1.4-1.4h16.2c0.7,0,1.4,0.6,1.4,1.4
		C-420.6,754.8-421.3,755.4-422,755.4z"/>
</g>
<g>
	<path d="M-385.5,755.4h-8.1c-1.8,0-3.3-1.5-3.3-3.3v-4.3c0-1.8,1.5-3.3,3.3-3.3h8.1c1.8,0,3.3,1.5,3.3,3.3v4.3
		C-382.2,753.9-383.7,755.4-385.5,755.4z M-393.6,747.2c-0.3,0-0.6,0.3-0.6,0.6v4.3c0,0.3,0.3,0.6,0.6,0.6h8.1
		c0.3,0,0.6-0.3,0.6-0.6v-4.3c0-0.3-0.3-0.6-0.6-0.6H-393.6z"/>
</g>
</svg>
