<?xml version="1.0" encoding="utf-8"?>
<!-- Generator: Adobe Illustrator 19.0.1, SVG Export Plug-In . SVG Version: 6.00 Build 0)  -->
<svg version="1.1" id="Слой_1" xmlns="http://www.w3.org/2000/svg" xmlns:xlink="http://www.w3.org/1999/xlink" x="0px" y="0px"
	 viewBox="-449 688 100 125" style="enable-background:new -449 688 100 125;" xml:space="preserve">
<g>
	<g>
		<g>
			<path d="M-421.9,713l-24.7,12.2l19.6-0.7l24.5-13L-421.9,713z M-424.2,719.3c-1.7,0.7-3.2,0.9-3.3,0.6c-0.1-0.3,1.2-1.1,2.9-1.8
				c1.7-0.7,3.2-0.9,3.3-0.6C-421.2,717.8-422.5,718.6-424.2,719.3z"/>
		</g>
		<g>
			<path d="M-427.8,725.4l-18.3,0.7l11.1,29.5l18.3,2.4L-427.8,725.4z M-438.8,735.9c-0.9,0.4-2.3-0.7-3-2.5s-0.5-3.5,0.4-3.9
				s2.3,0.7,3,2.5C-437.7,733.8-437.9,735.5-438.8,735.9z M-432.3,753c-1,0.4-2.3-0.8-2.9-2.6c-0.7-1.8-0.4-3.5,0.5-3.9
				c1-0.4,2.3,0.8,2.9,2.6C-431.2,750.9-431.4,752.6-432.3,753z M-427.9,736.2c-1.1,0.4-2.5-0.8-3.3-2.8c-0.7-1.9-0.5-3.8,0.6-4.3
				c1.1-0.4,2.5,0.8,3.3,2.8C-426.6,733.9-426.9,735.8-427.9,736.2z M-421.8,754.6c-1,0.3-2.4-1-3.1-2.9c-0.6-1.9-0.3-3.8,0.7-4.1
				s2.4,1,3.1,2.9C-420.5,752.4-420.8,754.3-421.8,754.6z"/>
		</g>
		<g>
			<path d="M-366.6,757.2l-11.5,32.3l16.2-11.3l10.5-28.8L-366.6,757.2z M-371.1,780.6c-1,1.8-2.2,3.1-2.8,2.8
				c-0.5-0.3-0.1-2,0.9-3.8s2.2-3.1,2.8-2.8C-369.7,777-370.1,778.7-371.1,780.6z M-363.1,768.6c-1,1.7-2.2,2.9-2.7,2.6
				c-0.5-0.3-0.1-1.9,0.8-3.7c1-1.7,2.2-2.9,2.7-2.6C-361.7,765.2-362.1,766.9-363.1,768.6z M-358.3,759.8c-0.5-0.3-0.1-1.9,0.8-3.7
				c1-1.7,2.2-2.9,2.7-2.6c0.5,0.3,0.1,1.9-0.8,3.7C-356.6,758.9-357.8,760.1-358.3,759.8z"/>
		</g>
		<g>
			<path d="M-398.2,737.5l5-1.9l-8.1-23.9l-25.1,13.7l10.8,32.6l11.9-7.4l5.1-12.6L-398.2,737.5z M-412.8,751.9
				c-1.7,0-3.1-1.8-3.1-3.9c0-2.2,1.4-3.9,3.1-3.9s3.1,1.8,3.1,3.9C-409.6,750.1-411,751.9-412.8,751.9z M-403.9,724.7
				c-1.7,0-3-1.6-3-3.7c0-2,1.4-3.7,3-3.7c1.7,0,3,1.6,3,3.7S-402.3,724.7-403.9,724.7z"/>
			<path d="M-396.9,740l-12.6,30.9l30.6,18.6l11.5-32.9L-396.9,740z M-401.1,772.5c-1.9,0-3.5-1.7-3.5-3.7c0-2.1,1.5-3.7,3.5-3.7
				c1.9,0,3.4,1.7,3.4,3.7C-397.7,770.8-399.2,772.5-401.1,772.5z M-397.9,750.1C-397.9,750.1-397.9,750-397.9,750.1
				c0-2.2,1.6-4,3.6-4c0.7,0,1.3,0.2,1.8,0.5c1.1,0.7,1.8,2,1.8,3.4c0,2.2-1.6,4-3.6,4C-396.3,754.1-397.9,752.3-397.9,750.1z
				 M-392.5,764.5c0-2.2,1.6-4,3.6-4s3.6,1.8,3.6,4s-1.6,4-3.6,4C-390.9,768.4-392.5,766.7-392.5,764.5z M-383.1,783.1
				c-2.1,0-3.7-1.8-3.7-4s1.7-4,3.7-4c2.1,0,3.7,1.8,3.7,4S-381.1,783.1-383.1,783.1z M-376.2,764.1c-2,0-3.6-1.8-3.6-4s1.6-4,3.6-4
				s3.6,1.8,3.6,4C-372.6,762.3-374.2,764.1-376.2,764.1z"/>
			<path d="M-379.9,733.3l-16.6,6.2l29.9,16.6l15.2-7.7L-379.9,733.3z M-383.8,743c-0.3,0.7-2,0.6-3.9-0.1c-1.1-0.4-2-1-2.5-1.5
				l-0.4-1c0,0,0-0.1,0.1-0.1c0.4-0.6,2.1-0.5,3.9,0.2C-384.8,741.1-383.5,742.3-383.8,743z M-374.6,747.7c-0.3,0.7-2,0.6-3.9-0.1
				c-1.9-0.7-3.2-1.9-3-2.6c0.3-0.7,2-0.6,3.9,0.1C-375.7,745.9-374.4,747.1-374.6,747.7z M-374.1,739.1c-0.3,0.7-2,0.6-3.9-0.1
				c-1.9-0.7-3.2-1.9-3-2.6c0.3-0.7,2-0.6,3.9,0.1C-375.1,737.3-373.8,738.5-374.1,739.1z M-365.8,752.4c-0.3,0.7-2,0.6-3.9-0.1
				c-1.9-0.7-3.2-1.9-3-2.6c0.3-0.7,2-0.6,3.9,0.1C-366.9,750.6-365.6,751.7-365.8,752.4z M-365.8,743.6c-0.3,0.7-2,0.6-3.9-0.1
				c-1.9-0.7-3.2-1.9-3-2.6c0.3-0.7,2-0.6,3.9,0.1S-365.5,742.9-365.8,743.6z M-361.2,747.9c-1.9-0.7-3.2-1.9-3-2.6
				c0.3-0.7,2-0.6,3.9,0.1c1.9,0.7,3.2,1.9,3,2.6C-357.5,748.7-359.3,748.6-361.2,747.9z"/>
		</g>
	</g>
</g>
</svg>
