<?xml version="1.0" encoding="utf-8"?>
<!-- Generator: Adobe Illustrator 19.0.1, SVG Export Plug-In . SVG Version: 6.00 Build 0)  -->
<svg version="1.1" id="Слой_1" xmlns="http://www.w3.org/2000/svg" xmlns:xlink="http://www.w3.org/1999/xlink" x="0px" y="0px"
	 viewBox="-449 688 100 125" style="enable-background:new -449 688 100 125;" xml:space="preserve">
<g>
	<path d="M-387.3,722.4c-0.2,0.2-0.4,0.3-0.7,0.3l0.2-2c0.3,0.1,0.5,0.3,0.6,0.4c0.1,0.1,0.2,0.4,0.2,0.6
		C-387,722-387.1,722.2-387.3,722.4z"/>
</g>
<g>
	<path d="M-388.8,717.4c0.1-0.2,0.3-0.3,0.5-0.3l-0.1,1.8c-0.2-0.1-0.4-0.3-0.5-0.4c-0.1-0.2-0.1-0.4-0.1-0.6
		C-389,717.7-388.9,717.5-388.8,717.4z"/>
</g>
<g>
	<path d="M-393,714.5c1-0.8,2.3-1.4,3.6-1.6c0.3-0.1,0.7-0.1,1.1-0.1c0.2,0,0.4,0,0.6,0c0.2,0,0.4,0,0.6,0.1c0.2,0,0.4,0.1,0.6,0.1
		c2.6,0.6,4.6,2.6,5.3,5.1c0.2,0.8,0.3,1.7,0.3,2.6c-0.3,4-3.9,7.1-7.9,6.7c-2-0.2-3.7-1.1-5-2.6l-0.1-0.1c1.5-0.9,2.6-2.4,3-4.1
		c0.1-0.2,0.1-0.4,0.1-0.6c0-0.3,0.1-0.6,0.1-0.9C-390.9,717.4-391.7,715.7-393,714.5z M-389.9,719.4c0.3,0.4,0.8,0.8,1.4,1
		l-0.2,2.2c-0.2-0.1-0.3-0.3-0.5-0.5c-0.1-0.2-0.2-0.5-0.3-0.7h-1.4c0.1,0.7,0.3,1.3,0.6,1.7c0.3,0.4,0.8,0.7,1.4,0.8l-0.1,0.9
		l0.8,0.1l0.1-1c0.7,0,1.2-0.3,1.7-0.7c0.4-0.4,0.7-0.9,0.7-1.6c0-0.6-0.1-1-0.3-1.4c-0.3-0.4-0.8-0.7-1.6-1l0.2-2
		c0.3,0.2,0.5,0.5,0.6,0.9l1.3-0.1c0-0.5-0.2-1-0.5-1.3s-0.7-0.6-1.3-0.7v-0.5l-0.8-0.1v0.5c-0.6,0-1.1,0.2-1.5,0.6
		s-0.6,0.8-0.7,1.4C-390.3,718.4-390.2,718.9-389.9,719.4z"/>
</g>
<g>
	<path d="M-396.4,715c0.4,0.1,0.7,0.3,1,0.4c0.3,0.2,0.6,0.4,0.9,0.7c0.8,0.8,1.4,1.9,1.4,3.1c0,0.2,0,0.4,0,0.6s-0.1,0.3-0.1,0.5
		c-0.3,1.1-1,2-1.9,2.6c-0.3,0.2-0.7,0.4-1,0.5c-0.3,0.1-0.7,0.2-1.1,0.2c-0.2,0-0.4,0-0.6,0l0,0l0,0c-2.6,0.3-21.2,1.4-29.8,0
		c-2.3-0.4-10.8-1.9-10.9-12.2c0-0.2,0.1-2.2,0.1-3.5c1.2-9.7,11.8-9.9,16.6-10.5c2-0.2,25.4-0.2,25.4-0.2c1.1,0,2.4,0.5,3.3,1.4
		v-0.1l13.6,12.2c1.8,1.7,2,4.6,0.3,6.5c-1-3.2-3.6-5.7-7-6.5c-0.2-0.1-0.5-0.1-0.7-0.1c-0.2,0-0.4-0.1-0.7-0.1
		c-1.5-0.1-2.9,0.1-4.2,0.6l-5.8-4.1c-4.8,0.8-16.9,2.5-16.9,2.5l0,0c-4.4,7.8,16.9,5.4,16.9,5.4c0.1,0,0.2,0,0.4,0l0,0
		C-396.9,714.9-396.6,715-396.4,715z"/>
</g>
<g>
	<path d="M-402.8,738.4l-0.8-1.9c0.3,0,0.6,0,0.8,0.1c0.2,0.1,0.3,0.3,0.4,0.5c0.1,0.2,0.1,0.5,0,0.7
		C-402.4,738-402.6,738.2-402.8,738.4z"/>
</g>
<g>
	<path d="M-405.5,732.2l-0.2-0.5l-0.7,0.3l0.2,0.5c-0.5,0.3-0.9,0.7-1.1,1.2c-0.2,0.5-0.1,1,0.1,1.5c0.2,0.5,0.6,0.9,1,1.1
		c0.5,0.2,1,0.3,1.8,0.2l0.9,2c-0.2,0-0.4-0.1-0.6-0.2c-0.2-0.1-0.4-0.3-0.6-0.5l-1.3,0.8c0.4,0.6,0.8,1,1.3,1.2s1,0.2,1.6,0
		l0.4,0.9l0.7-0.3l-0.4-0.9c0.6-0.4,1-0.8,1.1-1.4c0.1-0.6,0.1-1.1-0.1-1.7c-0.2-0.5-0.6-0.9-1-1.1s-1.1-0.2-1.9-0.1l-0.8-1.9
		c0.4,0,0.7,0.2,0.9,0.5l1.1-0.7c-0.3-0.4-0.7-0.7-1.1-0.9C-404.5,732-405,732-405.5,732.2z M-396.5,732.7c1.9,4.3-0.1,9.3-4.3,11.2
		c-4.3,1.9-9.3-0.1-11.2-4.3c-1.9-4.3,0.1-9.3,4.3-11.2C-403.3,726.5-398.3,728.4-396.5,732.7z"/>
</g>
<g>
	<path d="M-405.8,733.6l0.7,1.7c-0.3,0-0.5,0-0.6-0.1c-0.1-0.1-0.3-0.2-0.4-0.4s-0.1-0.4-0.1-0.6
		C-406,733.9-405.9,733.7-405.8,733.6z"/>
</g>
<g>
	<path d="M-359.6,764.4c0,0,1.8,13.4-10.9,14.9c-5,0.6-19.7-0.5-19.7-0.5v-0.1c-7.5-0.4-13.2-2.9-17-4.8c-3.6-1.8-14.6-9.2-14.6-9.2
		c-2.1-2.5-2.1-4.1-1.7-5.1c0.8-1.5,2.2-2.4,3.7-2.4c0.7,0,1.3,0.2,2,0.5c12.3,8.1,12.2,8.2,18.5,10c7.1,2.1,18.5-0.3,18.5-0.3
		c0.2-0.6,0.3-1.2,0.2-1.9c-0.5-4.1-7.1-4-7.1-4l0,0l-9.1-0.3c-2.3,0-5.2-1-5.2-3.5s1.9-4.6,4.1-4.6c0,0,21-0.1,24-0.1
		C-368.6,752.8-360.3,753.9-359.6,764.4z"/>
</g>
<g>
	<path d="M-385.2,748.7c0.1,0.2,0.1,0.4,0.1,0.6c0,0.3-0.2,0.5-0.4,0.6c-0.2,0.2-0.4,0.2-0.7,0.2l0.4-2
		C-385.5,748.3-385.3,748.5-385.2,748.7z"/>
</g>
<g>
	<path d="M-385.8,744.6l-0.4,1.8c-0.2-0.1-0.3-0.3-0.4-0.5c-0.1-0.2-0.1-0.4-0.1-0.5c0-0.2,0.1-0.4,0.3-0.5
		C-386.2,744.7-386.1,744.6-385.8,744.6z"/>
</g>
<g>
	<g>
		<g>
			<path d="M-383.3,745.8c0-0.5-0.1-1-0.4-1.4c-0.3-0.4-0.7-0.6-1.2-0.8l0.1-0.5l-0.7-0.2l-0.1,0.5c-0.6-0.1-1.1,0.1-1.6,0.4
				c-0.4,0.3-0.7,0.7-0.8,1.3c-0.1,0.5,0,1.1,0.2,1.5c0.2,0.5,0.7,0.8,1.3,1.2l-0.4,2.2c-0.2-0.1-0.3-0.3-0.4-0.5
				c-0.1-0.2-0.2-0.5-0.2-0.8l-1.4-0.1c0,0.7,0.1,1.3,0.4,1.7l0.1,0.1h-5.9c-0.5-1.4-0.6-2.9-0.3-4.4c0.9-4.6,5.4-7.5,10-6.6
				c4.6,0.9,7.6,5.4,6.6,10c0,0.3-0.2,0.7-0.3,1.1h-5.9c0.2-0.3,0.3-0.6,0.4-1c0.1-0.5,0.1-1-0.2-1.5c-0.2-0.4-0.7-0.8-1.5-1.2
				l0.4-2c0.3,0.2,0.4,0.5,0.4,0.9L-383.3,745.8z"/>
		</g>
	</g>
</g>
</svg>
