<?xml version="1.0" encoding="utf-8"?>
<!-- Generator: Adobe Illustrator 19.0.1, SVG Export Plug-In . SVG Version: 6.00 Build 0)  -->
<svg version="1.1" id="Слой_1" xmlns="http://www.w3.org/2000/svg" xmlns:xlink="http://www.w3.org/1999/xlink" x="0px" y="0px"
	 viewBox="-477 714.5 45 72.5" style="enable-background:new -477 714.5 45 72.5;" xml:space="preserve">
<g>
	<path d="M-432.5,726.7l-0.8-0.8l0,0l-10.1-10.1l0,0l-0.8-0.8c-0.4-0.3-0.8-0.5-1.3-0.5h-29c-1.4,0-2.5,1.1-2.5,2.5v36.5V770
		c0,1.4,1.1,2.5,2.5,2.5h40.1c1.4,0,2.5-1.1,2.5-2.5v-16.5V728C-432,727.5-432.2,727-432.5,726.7z M-435.6,726.5h-8.4v-8.4
		L-435.6,726.5z M-434,770c0,0.3-0.2,0.5-0.5,0.5h-40.1c-0.3,0-0.5-0.2-0.5-0.5v-14.5h41V770z M-475,753.5V717
		c0-0.3,0.2-0.5,0.5-0.5l28.6,0c0,0.1-0.1,0.3-0.1,0.4v11.6h11.6c0.1,0,0.3,0,0.4-0.1v25.1H-475z"/>
	<path d="M-464.9,764.9h1.2c0.5,0,1-0.1,1.5-0.2s0.8-0.4,1.1-0.7c0.3-0.3,0.6-0.6,0.7-1c0.2-0.4,0.3-0.9,0.3-1.4
		c0-0.5-0.1-0.9-0.3-1.3c-0.2-0.4-0.5-0.7-0.8-1c-0.3-0.3-0.7-0.5-1.1-0.6c-0.4-0.1-0.8-0.2-1.3-0.2h-2.9v10.1h1.6L-464.9,764.9
		L-464.9,764.9z M-464.9,759.7h1.2c0.4,0,0.8,0.1,1,0.2s0.4,0.3,0.6,0.5c0.1,0.2,0.2,0.4,0.3,0.6c0,0.2,0.1,0.4,0.1,0.6
		c0,0.4-0.1,0.8-0.2,1c-0.1,0.3-0.2,0.5-0.4,0.6c-0.2,0.2-0.3,0.3-0.5,0.3c-0.2,0.1-0.4,0.1-0.6,0.1h-1.5V759.7z"/>
	<path d="M-456.6,764.9h1.2c0.5,0,1-0.1,1.4-0.2s0.8-0.4,1.1-0.7c0.3-0.3,0.5-0.6,0.7-1c0.2-0.4,0.3-0.9,0.3-1.4
		c0-0.5-0.1-0.9-0.3-1.3c-0.2-0.4-0.5-0.7-0.8-1c-0.3-0.3-0.7-0.5-1.1-0.6c-0.4-0.1-0.8-0.2-1.3-0.2h-2.9v10.1h1.6L-456.6,764.9
		L-456.6,764.9z M-456.6,759.7h1.2c0.4,0,0.8,0.1,1,0.2s0.5,0.3,0.6,0.5c0.1,0.2,0.2,0.4,0.3,0.6c0.1,0.2,0.1,0.4,0.1,0.6
		c0,0.4,0,0.8-0.1,1c-0.1,0.3-0.2,0.5-0.4,0.6c-0.2,0.2-0.3,0.3-0.5,0.3c-0.2,0.1-0.4,0.1-0.6,0.1h-1.5V759.7z"/>
	<polygon points="-447.6,768.5 -445.9,768.5 -445.9,759.5 -442.9,759.5 -442.9,758.4 -450.6,758.4 -450.6,759.5 -447.6,759.5 	"/>
	<circle cx="-463" cy="733.5" r="1"/>
	<circle cx="-463" cy="741.5" r="1"/>
	<circle cx="-463" cy="737.5" r="1"/>
	<circle cx="-461" cy="735.5" r="1"/>
	<circle cx="-459" cy="733.5" r="1"/>
	<circle cx="-461" cy="739.5" r="1"/>
	<circle cx="-459" cy="741.5" r="1"/>
	<circle cx="-459" cy="737.5" r="1"/>
	<circle cx="-457" cy="735.5" r="1"/>
	<circle cx="-455" cy="733.5" r="1"/>
	<circle cx="-457" cy="739.5" r="1"/>
	<circle cx="-455" cy="741.5" r="1"/>
	<circle cx="-455" cy="737.5" r="1"/>
	<circle cx="-453" cy="735.5" r="1"/>
	<circle cx="-451" cy="733.5" r="1"/>
	<circle cx="-453" cy="739.5" r="1"/>
	<circle cx="-451" cy="741.5" r="1"/>
	<circle cx="-451" cy="737.5" r="1"/>
	<circle cx="-449" cy="735.5" r="1"/>
	<circle cx="-447" cy="733.5" r="1"/>
	<circle cx="-449" cy="739.5" r="1"/>
	<circle cx="-447" cy="741.5" r="1"/>
	<circle cx="-447" cy="737.5" r="1"/>
	<path d="M-454,727.5c0-0.5-0.5-1-1-1s-1,0.5-1,1v2h-11v16h6.2l-2.1,3.5c-0.3,0.5-0.1,1.1,0.3,1.4c0.2,0.1,0.3,0.1,0.5,0.1
		c0.3,0,0.7-0.2,0.9-0.5l2.7-4.5h6.9l2.7,4.5c0.2,0.3,0.5,0.5,0.9,0.5c0.2,0,0.4,0,0.5-0.1c0.5-0.3,0.6-0.9,0.3-1.4l-2.1-3.5h6.2
		v-16h-11V727.5z M-450,731.5c0,0.5,0.5,1,1,1s1-0.5,1-1h2c0,0.5,0.5,1,1,1v2c-0.5,0-1,0.5-1,1s0.5,1,1,1v2c-0.5,0-1,0.5-1,1
		s0.5,1,1,1v2c-0.5,0-1,0.5-1,1h-2c0-0.5-0.5-1-1-1s-1,0.5-1,1h-2c0-0.5-0.5-1-1-1s-1,0.5-1,1h-2c0-0.5-0.5-1-1-1s-1,0.5-1,1h-2
		c0-0.5-0.5-1-1-1s-1,0.5-1,1h-2c0-0.5-0.5-1-1-1v-2c0.5,0,1-0.5,1-1s-0.5-1-1-1v-2c0.5,0,1-0.5,1-1s-0.5-1-1-1v-2c0.5,0,1-0.5,1-1
		h2c0,0.5,0.5,1,1,1s1-0.5,1-1h2c0,0.5,0.5,1,1,1s1-0.5,1-1h2c0,0.5,0.5,1,1,1s1-0.5,1-1H-450z"/>
</g>
</svg>
