<?xml version="1.0" encoding="utf-8"?>
<!-- Generator: Adobe Illustrator 19.0.1, SVG Export Plug-In . SVG Version: 6.00 Build 0)  -->
<svg version="1.1" id="Слой_1" xmlns="http://www.w3.org/2000/svg" xmlns:xlink="http://www.w3.org/1999/xlink" x="0px" y="0px"
	 viewBox="-477 714.5 45 72.5" style="enable-background:new -477 714.5 45 72.5;" xml:space="preserve">
<g>
	<path d="M-432.5,726.7l-0.8-0.8l-10.1-10.1l-0.8-0.8c-0.4-0.3-0.8-0.5-1.3-0.5h-29c-1.2,0-2.5,0.9-2.5,2.9v36.1V770v0.5
		c0,0.8,0.8,1.7,1.8,1.9c0.1,0,0.1,0,0.1,0c0.2,0,0.3,0,0.5,0h40.1c0.2,0,0.3,0,0.5,0c0,0,0.1,0,0.1,0c1-0.3,1.8-1.1,1.8-1.9V770
		v-16.5v-25C-432,727.7-432.1,727.1-432.5,726.7z M-435.6,726.5h-8.4v-8.4L-435.6,726.5z M-474.5,770.5c-0.1,0-0.1,0-0.2,0
		c-0.2-0.1-0.3-0.2-0.3-0.4v-14.5h41V770c0,0.2-0.1,0.3-0.3,0.4c-0.1,0-0.1,0-0.2,0H-474.5z M-475,753.5v-36.1c0-0.2,0-0.9,0.5-0.9
		l28.6,0c0,0.1-0.1,0.3-0.1,0.4v11.6h11.6c0.1,0,0.3,0,0.4-0.1c0,0,0,0,0,0v25H-475z"/>
	<path d="M-460.3,759.9c-0.4-0.5-1-0.8-1.6-1.1c-0.6-0.3-1.4-0.4-2.2-0.4h-3v10.1h3.8c0.1,0,0.3,0,0.6,0c0.3,0,0.6-0.1,0.9-0.2
		c0.3-0.1,0.6-0.3,1-0.5c0.3-0.2,0.6-0.5,0.9-0.9c0.3-0.4,0.5-0.9,0.7-1.5c0.2-0.6,0.3-1.3,0.3-2.1c0-0.6-0.1-1.2-0.3-1.8
		C-459.5,760.9-459.8,760.3-460.3,759.9z M-461.5,766.2c-0.5,0.7-1.3,1.1-2.4,1.1h-1.6v-7.6h1c0.8,0,1.4,0.1,1.9,0.3
		c0.5,0.2,0.9,0.5,1.2,0.8c0.3,0.3,0.5,0.7,0.6,1.1c0.1,0.4,0.1,0.8,0.1,1.2C-460.7,764.5-461,765.5-461.5,766.2z"/>
	<path d="M-450.2,759.6c-0.4-0.4-0.8-0.8-1.3-1c-0.5-0.2-1.1-0.3-1.7-0.3c-0.6,0-1.2,0.1-1.7,0.3c-0.5,0.2-0.9,0.5-1.3,1
		s-0.7,1-0.9,1.6c-0.2,0.6-0.3,1.4-0.3,2.2c0,0.9,0.1,1.6,0.3,2.2c0.2,0.6,0.5,1.2,0.9,1.6s0.8,0.8,1.3,1c0.5,0.2,1.1,0.3,1.7,0.3
		c0.6,0,1.2-0.1,1.7-0.3c0.5-0.2,1-0.5,1.3-1s0.7-1,0.9-1.6c0.2-0.7,0.3-1.4,0.3-2.2c0-0.8-0.1-1.6-0.3-2.2
		C-449.6,760.5-449.9,760-450.2,759.6z M-450.9,765.2c-0.1,0.5-0.3,0.9-0.6,1.2c-0.2,0.3-0.5,0.5-0.8,0.7c-0.3,0.1-0.6,0.2-1,0.2
		c-0.3,0-0.6-0.1-0.9-0.2c-0.3-0.1-0.6-0.4-0.8-0.7c-0.2-0.3-0.4-0.7-0.6-1.2c-0.1-0.5-0.2-1.1-0.2-1.8c0-0.7,0.1-1.3,0.2-1.8
		s0.3-0.9,0.6-1.2c0.2-0.3,0.5-0.5,0.8-0.7c0.3-0.1,0.6-0.2,1-0.2c0.3,0,0.6,0.1,0.9,0.2c0.3,0.1,0.6,0.4,0.8,0.7
		c0.2,0.3,0.4,0.7,0.6,1.2c0.1,0.5,0.2,1.1,0.2,1.7C-450.7,764.1-450.8,764.7-450.9,765.2z"/>
	<path d="M-444.4,760.5c0.2-0.3,0.5-0.5,0.8-0.7s0.6-0.2,1-0.2c0.3,0,0.6,0.1,0.9,0.2s0.5,0.3,0.8,0.6l1.1-1
		c-0.4-0.4-0.8-0.6-1.3-0.8c-0.5-0.2-1-0.3-1.5-0.3c-0.6,0-1.1,0.1-1.6,0.3c-0.5,0.2-1,0.5-1.3,1c-0.4,0.4-0.7,1-0.9,1.6
		c-0.2,0.6-0.3,1.4-0.3,2.2c0,0.9,0.1,1.6,0.3,2.2c0.2,0.6,0.5,1.2,0.9,1.6s0.8,0.8,1.3,1c0.5,0.2,1.1,0.3,1.7,0.3
		c0.5,0,1.1-0.1,1.5-0.3s0.9-0.5,1.3-0.8l-1.1-1c-0.2,0.3-0.5,0.5-0.8,0.6c-0.3,0.1-0.6,0.2-0.9,0.2c-0.3,0-0.6-0.1-0.9-0.2
		c-0.3-0.1-0.6-0.4-0.8-0.7c-0.2-0.3-0.4-0.7-0.6-1.2c-0.1-0.5-0.2-1.1-0.2-1.8c0-0.7,0.1-1.3,0.2-1.8S-444.7,760.8-444.4,760.5z"/>
	<path d="M-470,728.5h6c0.5,0,1-0.5,1-1s-0.5-1-1-1h-6c-0.5,0-1,0.5-1,1S-470.5,728.5-470,728.5z"/>
	<path d="M-470,733.5h9c0.5,0,1-0.5,1-1s-0.5-1-1-1h-9c-0.5,0-1,0.5-1,1S-470.5,733.5-470,733.5z"/>
	<path d="M-457,733.5c0.3,0,0.5-0.1,0.7-0.3c0.2-0.2,0.3-0.5,0.3-0.7s-0.1-0.5-0.3-0.7c-0.4-0.4-1-0.4-1.4,0
		c-0.2,0.2-0.3,0.5-0.3,0.7s0.1,0.5,0.3,0.7C-457.5,733.4-457.3,733.5-457,733.5z"/>
	<path d="M-453,733.5h8c0.5,0,1-0.5,1-1s-0.5-1-1-1h-8c-0.5,0-1,0.5-1,1S-453.5,733.5-453,733.5z"/>
	<path d="M-470.7,746.8c-0.2,0.2-0.3,0.5-0.3,0.7s0.1,0.5,0.3,0.7c0.2,0.2,0.4,0.3,0.7,0.3s0.5-0.1,0.7-0.3c0.2-0.2,0.3-0.5,0.3-0.7
		c0-0.3-0.1-0.5-0.3-0.7C-469.7,746.4-470.3,746.4-470.7,746.8z"/>
	<path d="M-458,746.5h-8c-0.5,0-1,0.5-1,1s0.5,1,1,1h8c0.5,0,1-0.5,1-1S-457.5,746.5-458,746.5z"/>
	<path d="M-439,731.5h-2c-0.5,0-1,0.5-1,1s0.5,1,1,1h2c0.5,0,1-0.5,1-1S-438.5,731.5-439,731.5z"/>
	<path d="M-470,738.5h22c0.5,0,1-0.5,1-1s-0.5-1-1-1h-22c-0.5,0-1,0.5-1,1S-470.5,738.5-470,738.5z"/>
	<path d="M-439,736.5h-6c-0.5,0-1,0.5-1,1s0.5,1,1,1h6c0.5,0,1-0.5,1-1S-438.5,736.5-439,736.5z"/>
	<path d="M-470,743.5h4c0.5,0,1-0.5,1-1s-0.5-1-1-1h-4c-0.5,0-1,0.5-1,1S-470.5,743.5-470,743.5z"/>
	<path d="M-452,741.5h-10c-0.5,0-1,0.5-1,1s0.5,1,1,1h10c0.5,0,1-0.5,1-1S-451.5,741.5-452,741.5z"/>
	<path d="M-439,741.5h-9c-0.5,0-1,0.5-1,1s0.5,1,1,1h9c0.5,0,1-0.5,1-1S-438.5,741.5-439,741.5z"/>
</g>
</svg>
