<?xml version="1.0" encoding="utf-8"?>
<!-- Generator: Adobe Illustrator 19.0.1, SVG Export Plug-In . SVG Version: 6.00 Build 0)  -->
<svg version="1.1" id="Слой_1" xmlns="http://www.w3.org/2000/svg" xmlns:xlink="http://www.w3.org/1999/xlink" x="0px" y="0px"
	 viewBox="-477 714.5 45 72.5" style="enable-background:new -477 714.5 45 72.5;" xml:space="preserve">
<g>
	<path d="M-432.5,726.7l-1.4-1.4l-9.5-9.5l0,0l-0.8-0.8c-0.4-0.4-0.8-0.6-1.3-0.6h-29c-1.2,0-2.5,0.9-2.5,2.9v36.1V770v0.5
		c0,0.8,0.8,1.7,1.8,1.9c0.1,0,0.1,0,0.1,0c0.2,0,0.3,0,0.5,0h40.1c0.2,0,0.3,0,0.5,0c0,0,0.1,0,0.1,0c1-0.3,1.8-1.1,1.8-1.9V770
		v-16.5v-25C-432,727.7-432.1,727.1-432.5,726.7z M-435.6,726.5h-8.4v-8.4l4.3,4.3L-435.6,726.5z M-474.5,770.5c-0.1,0-0.1,0-0.2,0
		c-0.2-0.1-0.3-0.2-0.3-0.4v-14.5h41V770c0,0.2-0.1,0.3-0.3,0.4c-0.1,0-0.1,0-0.2,0H-474.5z M-475,753.5v-36.1c0-0.2,0-0.9,0.5-0.9
		l28.6,0c0,0.1-0.1,0.3-0.1,0.4v11.6h11.6c0.1,0,0.3,0,0.4-0.1c0,0,0,0,0,0v25H-475z"/>
	<path d="M-460.9,763.4c0.3-0.5,0.5-1.1,0.5-1.9c0-0.5-0.1-0.9-0.3-1.3s-0.5-0.7-0.8-1s-0.7-0.5-1.1-0.6c-0.4-0.1-0.8-0.2-1.3-0.2
		h-2.9v10.1h1.6v-3.6c0.3,0,0.6,0,0.8,0c0.2,0,0.3,0,0.4,0c0.1,0,0.2,0,0.2,0c0,0,0.1,0,0.1,0l1.9,3.6h1.7l-2.3-4
		C-461.7,764.3-461.2,763.9-460.9,763.4z M-463,763.6c-0.2,0.1-0.4,0.1-0.6,0.1h-1.5v-4h1.2c0.4,0,0.8,0.1,1,0.2s0.5,0.3,0.6,0.5
		c0.1,0.2,0.2,0.4,0.3,0.6c0,0.2,0.1,0.4,0.1,0.6c0,0.4,0,0.8-0.1,1c-0.1,0.3-0.2,0.5-0.4,0.6C-462.7,763.4-462.8,763.5-463,763.6z"
		/>
	<polygon points="-458.3,759.5 -455.3,759.5 -455.3,768.5 -453.6,768.5 -453.6,759.5 -450.6,759.5 -450.6,758.4 -458.3,758.4 	"/>
	<polygon points="-448.6,768.5 -447,768.5 -447,764 -442.7,764 -442.7,762.8 -447,762.8 -447,759.7 -442.3,759.7 -442.3,758.4 
		-448.6,758.4 	"/>
	<path d="M-470,728.5h6c0.5,0,1-0.5,1-1s-0.5-1-1-1h-6c-0.5,0-1,0.5-1,1S-470.5,728.5-470,728.5z"/>
	<path d="M-470,733.5h9c0.5,0,1-0.5,1-1s-0.5-1-1-1h-9c-0.5,0-1,0.5-1,1S-470.5,733.5-470,733.5z"/>
	<path d="M-457,733.5c0.3,0,0.5-0.1,0.7-0.3c0.2-0.2,0.3-0.5,0.3-0.7s-0.1-0.5-0.3-0.7c-0.4-0.4-1-0.4-1.4,0
		c-0.2,0.2-0.3,0.4-0.3,0.7s0.1,0.5,0.3,0.7C-457.5,733.4-457.3,733.5-457,733.5z"/>
	<path d="M-453,733.5h8c0.5,0,1-0.5,1-1s-0.5-1-1-1h-8c-0.5,0-1,0.5-1,1S-453.5,733.5-453,733.5z"/>
	<path d="M-470.7,746.8c-0.2,0.2-0.3,0.4-0.3,0.7s0.1,0.5,0.3,0.7c0.2,0.2,0.4,0.3,0.7,0.3s0.5-0.1,0.7-0.3c0.2-0.2,0.3-0.5,0.3-0.7
		s-0.1-0.5-0.3-0.7C-469.7,746.4-470.3,746.4-470.7,746.8z"/>
	<path d="M-458,746.5h-8c-0.5,0-1,0.5-1,1s0.5,1,1,1h8c0.5,0,1-0.5,1-1S-457.5,746.5-458,746.5z"/>
	<path d="M-439,731.5h-2c-0.5,0-1,0.5-1,1s0.5,1,1,1h2c0.5,0,1-0.5,1-1S-438.5,731.5-439,731.5z"/>
	<path d="M-470,738.5h22c0.5,0,1-0.5,1-1s-0.5-1-1-1h-22c-0.5,0-1,0.5-1,1S-470.5,738.5-470,738.5z"/>
	<path d="M-439,736.5h-6c-0.5,0-1,0.5-1,1s0.5,1,1,1h6c0.5,0,1-0.5,1-1S-438.5,736.5-439,736.5z"/>
	<path d="M-470,743.5h4c0.5,0,1-0.5,1-1s-0.5-1-1-1h-4c-0.5,0-1,0.5-1,1S-470.5,743.5-470,743.5z"/>
	<path d="M-452,741.5h-10c-0.5,0-1,0.5-1,1s0.5,1,1,1h10c0.5,0,1-0.5,1-1S-451.5,741.5-452,741.5z"/>
	<path d="M-439,741.5h-9c-0.5,0-1,0.5-1,1s0.5,1,1,1h9c0.5,0,1-0.5,1-1S-438.5,741.5-439,741.5z"/>
</g>
</svg>
