<?xml version="1.0" encoding="utf-8"?>
<!-- Generator: Adobe Illustrator 19.0.1, SVG Export Plug-In . SVG Version: 6.00 Build 0)  -->
<svg version="1.1" id="Слой_1" xmlns="http://www.w3.org/2000/svg" xmlns:xlink="http://www.w3.org/1999/xlink" x="0px" y="0px"
	 viewBox="-477 714.5 45 72.5" style="enable-background:new -477 714.5 45 72.5;" xml:space="preserve">
<g>
	<path d="M-432.5,726.7l-0.8-0.8l-10.1-10.1l-0.8-0.8c-0.4-0.3-0.8-0.5-1.3-0.5h-29c-1.2,0-2.5,0.9-2.5,2.9v36.1V770v0.5
		c0,0.8,0.8,1.7,1.8,1.9c0.1,0,0.1,0,0.1,0c0.2,0,0.3,0,0.5,0h40.1c0.2,0,0.3,0,0.5,0c0,0,0.1,0,0.1,0c1-0.3,1.8-1.1,1.8-1.9V770
		v-16.5v-25C-432,727.7-432.1,727.1-432.5,726.7z M-435.6,726.5h-8.4v-8.4L-435.6,726.5z M-474.5,770.5c-0.1,0-0.1,0-0.2,0
		c-0.2-0.1-0.3-0.2-0.3-0.4v-14.5h41V770c0,0.2-0.1,0.3-0.3,0.4c-0.1,0-0.1,0-0.2,0H-474.5z M-475,753.5v-36.1c0-0.2,0-0.9,0.5-0.9
		l28.6,0c0,0.1-0.1,0.3-0.1,0.4v11.6h11.6c0.1,0,0.3,0,0.4-0.1c0,0,0,0,0,0v25H-475z"/>
	<path d="M-465.5,760.5c0.2-0.3,0.5-0.5,0.8-0.7s0.6-0.2,1-0.2c0.3,0,0.6,0.1,0.9,0.2s0.5,0.3,0.8,0.6l1.1-1
		c-0.4-0.4-0.8-0.6-1.3-0.8c-0.5-0.2-1-0.3-1.5-0.3c-0.6,0-1.1,0.1-1.6,0.3c-0.5,0.2-1,0.5-1.3,1c-0.4,0.4-0.7,1-0.9,1.6
		c-0.2,0.6-0.3,1.4-0.3,2.2c0,0.9,0.1,1.6,0.3,2.2c0.2,0.6,0.5,1.2,0.9,1.6s0.8,0.8,1.3,1c0.5,0.2,1.1,0.3,1.7,0.3
		c0.5,0,1.1-0.1,1.5-0.3s0.9-0.5,1.3-0.8l-1.1-1c-0.2,0.3-0.5,0.5-0.8,0.6c-0.3,0.1-0.6,0.2-0.9,0.2c-0.3,0-0.6-0.1-0.9-0.2
		c-0.3-0.1-0.6-0.4-0.8-0.7c-0.2-0.3-0.4-0.7-0.6-1.2c-0.1-0.5-0.2-1.1-0.2-1.8c0-0.7,0.1-1.3,0.2-1.8
		C-465.9,761.2-465.7,760.8-465.5,760.5z"/>
	<path d="M-454,763.6c-0.3-0.2-0.6-0.4-1-0.6c-0.4-0.2-0.7-0.3-1-0.5s-0.6-0.4-0.8-0.6c-0.2-0.2-0.3-0.5-0.3-0.9
		c0-0.2,0-0.3,0.1-0.5c0.1-0.2,0.2-0.3,0.3-0.4s0.3-0.2,0.4-0.3c0.2-0.1,0.3-0.1,0.5-0.2c0.3,0,0.6,0,0.8,0c0.2,0,0.4,0,0.5,0.1
		s0.2,0.1,0.3,0.1c0.1,0,0.1,0.1,0.2,0.1c0,0,0,0,0.1-0.1c0.1-0.1,0.1-0.2,0.2-0.3c0.1-0.1,0.1-0.3,0.2-0.4c0.1-0.1,0.1-0.3,0.2-0.4
		c-0.3-0.2-0.6-0.3-1-0.4c-0.4-0.1-0.9-0.1-1.3-0.1c-0.4,0-0.8,0.1-1.2,0.2c-0.4,0.1-0.7,0.3-1,0.5s-0.5,0.5-0.7,0.9
		s-0.3,0.7-0.3,1.2c0,0.5,0.1,0.9,0.3,1.2c0.2,0.3,0.5,0.6,0.8,0.9c0.3,0.2,0.7,0.4,1,0.6c0.4,0.2,0.7,0.4,1,0.5s0.6,0.4,0.8,0.6
		c0.2,0.2,0.3,0.5,0.3,0.8c0,0.5-0.1,0.9-0.4,1.2c-0.3,0.3-0.7,0.4-1.3,0.4c-0.2,0-0.4,0-0.6,0c-0.2,0-0.4-0.1-0.6-0.1
		s-0.4-0.1-0.6-0.2c-0.2-0.1-0.4-0.1-0.5-0.2l-0.3,1.2c0.2,0.1,0.3,0.3,0.6,0.3c0.2,0.1,0.4,0.2,0.7,0.2c0.2,0,0.5,0.1,0.7,0.1
		c0.2,0,0.5,0,0.7,0c0.5,0,1-0.1,1.4-0.2c0.4-0.2,0.7-0.4,1-0.6c0.3-0.3,0.5-0.6,0.6-0.9s0.2-0.7,0.2-1.1c0-0.5-0.1-1-0.3-1.3
		C-453.4,764.1-453.6,763.8-454,763.6z"/>
	<polygon points="-447.4,767.1 -449.7,758.4 -451.6,758.4 -448.5,768.5 -446.3,768.5 -443,758.4 -444.9,758.4 	"/>
	<path d="M-459,727.5h-12v4v2v2v2v2v2v2v2v4h10h2h21v-4v-2v-2v-2v-2v-2v-4h-21V727.5z M-469,733.5h8v2h-8V733.5z M-469,737.5h8v2h-8
		V737.5z M-469,741.5h8v2h-8V741.5z M-461,747.5h-8v-2h8V747.5z M-440,747.5h-19v-2h19V747.5z M-440,743.5h-19v-2h19V743.5z
		 M-440,739.5h-19v-2h19V739.5z M-440,733.5v2h-19v-2H-440z M-469,731.5v-2h8v2H-469z"/>
</g>
</svg>
