<?xml version="1.0" encoding="utf-8"?>
<!-- Generator: Adobe Illustrator 19.0.1, SVG Export Plug-In . SVG Version: 6.00 Build 0)  -->
<svg version="1.1" id="Слой_1" xmlns="http://www.w3.org/2000/svg" xmlns:xlink="http://www.w3.org/1999/xlink" x="0px" y="0px"
	 viewBox="-477 714.5 45 72.5" style="enable-background:new -477 714.5 45 72.5;" xml:space="preserve">
<g>
	<path d="M-432.5,726.7l-0.8-0.8l-10.1-10.1l-0.8-0.8c-0.4-0.3-0.8-0.5-1.3-0.5h-29c-1.2,0-2.5,0.9-2.5,2.9v36.1V770v0.5
		c0,0.8,0.8,1.7,1.8,1.9c0.1,0,0.1,0,0.1,0c0.2,0,0.3,0,0.5,0h40.1c0.2,0,0.3,0,0.5,0c0,0,0.1,0,0.1,0c1-0.3,1.8-1.1,1.8-1.9V770
		v-16.5v-25C-432,727.7-432.1,727.1-432.5,726.7z M-435.6,726.5h-8.4v-8.4L-435.6,726.5z M-474.5,770.5c-0.1,0-0.1,0-0.2,0
		c-0.2-0.1-0.3-0.2-0.3-0.4v-14.5h41V770c0,0.2-0.1,0.3-0.3,0.4c-0.1,0-0.1,0-0.2,0H-474.5z M-475,753.5v-36.1c0-0.2,0-0.9,0.5-0.9
		l28.6,0c0,0.1-0.1,0.3-0.1,0.4v11.6h11.6c0.1,0,0.3,0,0.4-0.1c0,0,0,0,0,0v25H-475z"/>
	<path d="M-460.8,759.9c-0.4-0.5-1-0.8-1.6-1.1c-0.6-0.3-1.4-0.4-2.2-0.4h-3v10.1h3.8c0.1,0,0.3,0,0.6,0c0.3,0,0.6-0.1,0.9-0.2
		c0.3-0.1,0.6-0.3,1-0.5c0.3-0.2,0.7-0.5,0.9-0.9c0.3-0.4,0.5-0.9,0.7-1.5c0.2-0.6,0.3-1.3,0.3-2.1c0-0.6-0.1-1.2-0.3-1.8
		C-460.1,760.9-460.4,760.3-460.8,759.9z M-462,766.2c-0.5,0.7-1.3,1.1-2.4,1.1h-1.6v-7.6h1c0.8,0,1.4,0.1,1.9,0.3
		c0.5,0.2,0.9,0.5,1.2,0.8c0.3,0.3,0.5,0.7,0.6,1.1c0.1,0.4,0.1,0.8,0.1,1.2C-461.3,764.5-461.5,765.5-462,766.2z"/>
	<path d="M-451.1,763.9c-0.2-0.2-0.4-0.4-0.7-0.5c-0.2-0.1-0.5-0.2-0.7-0.2c0.2,0,0.3-0.1,0.5-0.2c0.2-0.1,0.3-0.3,0.5-0.4
		c0.1-0.2,0.3-0.4,0.3-0.6c0.1-0.2,0.1-0.5,0.1-0.8c0-0.5-0.1-0.9-0.3-1.3c-0.2-0.3-0.4-0.6-0.7-0.8c-0.3-0.2-0.7-0.4-1.1-0.5
		c-0.4-0.1-0.8-0.2-1.2-0.2h-2.9v10.1h3.8c0,0,0.2,0,0.3,0s0.4,0,0.6-0.1c0.2-0.1,0.5-0.2,0.7-0.3c0.2-0.1,0.5-0.3,0.7-0.5
		c0.2-0.2,0.4-0.5,0.5-0.8s0.2-0.7,0.2-1.2c0-0.4-0.1-0.7-0.2-1C-450.7,764.3-450.9,764.1-451.1,763.9z M-455.5,759.7h1.1
		c0.4,0,0.8,0,1,0.1s0.5,0.2,0.6,0.4c0.1,0.2,0.2,0.3,0.3,0.5c0,0.2,0.1,0.4,0.1,0.5c0,0.4-0.1,0.7-0.2,0.9
		c-0.1,0.2-0.3,0.4-0.4,0.5c-0.2,0.1-0.4,0.1-0.6,0.1c-0.2,0-0.4,0-0.6,0h-1.1h-0.1L-455.5,759.7L-455.5,759.7z M-452.3,766.8
		c-0.3,0.3-0.7,0.5-1.1,0.5h-2.1v-3.5h1.9c0.5,0,1,0.2,1.2,0.5c0.3,0.3,0.4,0.8,0.4,1.2C-451.9,766.1-452.1,766.5-452.3,766.8z"/>
	<polygon points="-448,768.5 -446.3,768.5 -446.3,764 -442.1,764 -442.1,762.8 -446.3,762.8 -446.3,759.7 -441.7,759.7 
		-441.7,758.4 -448,758.4 	"/>
	<path d="M-458,727.5h-12v4v2v2v2v2v2v2v2v4h10h2h21v-4v-2v-2v-2v-2v-2v-4h-21V727.5z M-468,733.5h8v2h-8V733.5z M-468,737.5h8v2h-8
		V737.5z M-468,741.5h8v2h-8V741.5z M-460,747.5h-8v-2h8V747.5z M-439,747.5h-19v-2h19V747.5z M-439,743.5h-19v-2h19V743.5z
		 M-439,739.5h-19v-2h19V739.5z M-439,733.5v2h-19v-2H-439z M-468,731.5v-2h8v2H-468z"/>
</g>
</svg>
