<?xml version="1.0" encoding="utf-8"?>
<!-- Generator: Adobe Illustrator 19.0.1, SVG Export Plug-In . SVG Version: 6.00 Build 0)  -->
<svg version="1.1" id="Слой_1" xmlns="http://www.w3.org/2000/svg" xmlns:xlink="http://www.w3.org/1999/xlink" x="0px" y="0px"
	 viewBox="-477 714.5 45 72.5" style="enable-background:new -477 714.5 45 72.5;" xml:space="preserve">
<g>
	<path d="M-432.5,726.7l-5.8-5.8l-5-5l0,0l-0.8-0.8c-0.4-0.3-0.8-0.5-1.3-0.5h-29c-1.2,0-2.5,0.9-2.5,2.9v36.1V770v0.5
		c0,0.8,0.8,1.7,1.8,1.9c0.1,0,0.1,0,0.1,0c0.2,0,0.3,0,0.5,0h40.1c0.2,0,0.3,0,0.5,0c0,0,0.1,0,0.1,0c1-0.3,1.9-1.1,1.9-1.9V770
		v-16.5v-25C-432,727.7-432.1,727.1-432.5,726.7z M-435.6,726.5h-8.4v-8.4l4.3,4.3L-435.6,726.5z M-474.5,716.5l28.6,0
		c0,0.1-0.1,0.3-0.1,0.4v11.6h11.6c0.1,0,0.3,0,0.4-0.1c0,0,0,0,0,0v12.7l-8.3-7.9c-0.2-0.2-0.4-0.3-0.7-0.3c-0.3,0-0.5,0.1-0.7,0.3
		l-9.8,10.7l-4.7-4.7c-0.4-0.4-1-0.4-1.4,0l-15.4,13.1v-34.9C-475,717.2-475,716.5-474.5,716.5z M-474.5,770.5c-0.1,0-0.1,0-0.2,0
		c-0.2-0.1-0.3-0.2-0.3-0.4v-14.5h41V770c0,0.2-0.1,0.3-0.3,0.4c-0.1,0-0.1,0-0.2,0H-474.5z M-473.3,753.5l14.2-12.1l10.3,10.3
		c0.4,0.4,1,0.4,1.4,0c0.4-0.4,0.4-1,0-1.4l-4.8-4.8l9.2-10l8.9,8.5v9.6H-473.3z"/>
	<path d="M-464.1,765.9c0,0.5-0.2,0.8-0.5,1c-0.3,0.2-0.7,0.3-1.2,0.3c-0.2,0-0.4,0-0.6-0.1c-0.2-0.1-0.4-0.1-0.6-0.2
		c-0.2-0.1-0.4-0.1-0.6-0.2c-0.2-0.1-0.3-0.1-0.4-0.2l-0.7,1.1c0.2,0.1,0.4,0.3,0.7,0.4c0.3,0.1,0.5,0.2,0.8,0.3s0.6,0.2,0.8,0.2
		c0.3,0,0.5,0.1,0.7,0.1c0.4,0,0.8,0,1.2-0.1s0.7-0.2,1-0.4c0.3-0.2,0.5-0.5,0.7-0.8c0.2-0.3,0.3-0.7,0.3-1.2v-7.8h-1.7
		L-464.1,765.9L-464.1,765.9z"/>
	<path d="M-454.7,759.2c-0.3-0.3-0.7-0.5-1.1-0.6c-0.4-0.1-0.8-0.2-1.3-0.2h-2.9v10.1h1.6v-3.6h1.2c0.5,0,1-0.1,1.5-0.2
		s0.8-0.4,1.1-0.7c0.3-0.3,0.6-0.6,0.7-1c0.2-0.4,0.3-0.9,0.3-1.4c0-0.5-0.1-0.9-0.3-1.3C-454.1,759.8-454.4,759.5-454.7,759.2z
		 M-455.4,762.6c-0.1,0.3-0.2,0.5-0.4,0.6c-0.2,0.2-0.3,0.3-0.5,0.3c-0.2,0.1-0.4,0.1-0.6,0.1h-1.5v-4h1.2c0.4,0,0.8,0.1,1,0.2
		s0.4,0.3,0.6,0.5c0.1,0.2,0.2,0.4,0.3,0.6c0,0.2,0.1,0.4,0.1,0.6C-455.2,762-455.3,762.3-455.4,762.6z"/>
	<path d="M-447.7,764.4h1.7v2.5c-0.1,0.1-0.2,0.2-0.3,0.2c-0.2,0-0.3,0.1-0.5,0.1c-0.2,0-0.3,0-0.5,0.1c-0.2,0-0.3,0-0.4,0
		c-0.3,0-0.6-0.1-0.9-0.2c-0.3-0.2-0.6-0.4-0.8-0.7s-0.4-0.7-0.5-1.2c-0.1-0.5-0.2-1.1-0.2-1.8c0-0.7,0.1-1.3,0.2-1.8
		c0.1-0.5,0.3-0.9,0.6-1.2c0.2-0.3,0.5-0.5,0.8-0.7s0.6-0.2,1-0.2c0.3,0,0.6,0.1,0.9,0.2c0.3,0.1,0.5,0.3,0.8,0.6l1.1-1
		c-0.4-0.4-0.8-0.6-1.3-0.8c-0.5-0.2-1-0.3-1.5-0.3c-0.6,0-1.1,0.1-1.6,0.3c-0.5,0.2-1,0.5-1.3,1c-0.4,0.4-0.7,1-0.9,1.6
		c-0.2,0.6-0.3,1.4-0.3,2.2c0,0.9,0.1,1.6,0.3,2.2c0.2,0.6,0.5,1.2,0.9,1.6c0.4,0.4,0.8,0.8,1.3,1c0.5,0.2,1.1,0.3,1.7,0.3
		c0.3,0,0.6,0,0.9-0.1s0.6-0.1,0.9-0.2c0.3-0.1,0.6-0.3,0.8-0.4c0.3-0.2,0.5-0.4,0.7-0.7v-3.9h-3.3
		C-447.7,763.3-447.7,764.4-447.7,764.4z"/>
	<path d="M-464.4,738.1c3.1,0,5.6-2.5,5.6-5.6s-2.5-5.6-5.6-5.6s-5.6,2.5-5.6,5.6S-467.5,738.1-464.4,738.1z M-464.4,729
		c2,0,3.6,1.6,3.6,3.6c0,2-1.6,3.6-3.6,3.6s-3.6-1.6-3.6-3.6C-468,730.6-466.4,729-464.4,729z"/>
</g>
</svg>
