<?xml version="1.0" encoding="utf-8"?>
<!-- Generator: Adobe Illustrator 19.0.1, SVG Export Plug-In . SVG Version: 6.00 Build 0)  -->
<svg version="1.1" id="Слой_1" xmlns="http://www.w3.org/2000/svg" xmlns:xlink="http://www.w3.org/1999/xlink" x="0px" y="0px"
	 viewBox="-477 714.5 45 72.5" style="enable-background:new -477 714.5 45 72.5;" xml:space="preserve">
<g>
	<path d="M-432.5,726.7l-0.8-0.8l-10.1-10.1l-0.8-0.8c-0.4-0.3-0.8-0.5-1.3-0.5h-29c-1.4,0-2.5,1.1-2.5,2.5v36.5V770
		c0,1.4,1.1,2.5,2.5,2.5h40.1c1.4,0,2.5-1.1,2.5-2.5v-16.5V728C-432,727.5-432.2,727-432.5,726.7z M-435.6,726.5h-8.4v-8.4
		L-435.6,726.5z M-434,770c0,0.3-0.2,0.5-0.5,0.5h-40.1c-0.3,0-0.5-0.2-0.5-0.5v-14.5h41V770z M-475,753.5V717
		c0-0.3,0.2-0.5,0.5-0.5l28.6,0c0,0.1-0.1,0.3-0.1,0.4v11.6h11.6c0.1,0,0.3,0,0.4-0.1v25.1H-475z"/>
	<path d="M-464,766.5c2.2,0,4-1.8,4-4s-1.8-4-4-4s-4,1.8-4,4S-466.2,766.5-464,766.5z M-464,760.5c1.1,0,2,0.9,2,2s-0.9,2-2,2
		s-2-0.9-2-2S-465.1,760.5-464,760.5z"/>
	<path d="M-454,766.5c2.2,0,4-1.8,4-4s-1.8-4-4-4s-4,1.8-4,4S-456.2,766.5-454,766.5z M-454,760.5c1.1,0,2,0.9,2,2s-0.9,2-2,2
		s-2-0.9-2-2S-455.1,760.5-454,760.5z"/>
	<path d="M-444,766.5c2.2,0,4-1.8,4-4s-1.8-4-4-4s-4,1.8-4,4S-446.2,766.5-444,766.5z M-444,760.5c1.1,0,2,0.9,2,2s-0.9,2-2,2
		s-2-0.9-2-2S-445.1,760.5-444,760.5z"/>
</g>
</svg>
