<?xml version="1.0" encoding="utf-8"?>
<!-- Generator: Adobe Illustrator 19.0.1, SVG Export Plug-In . SVG Version: 6.00 Build 0)  -->
<svg version="1.1" id="Слой_1" xmlns="http://www.w3.org/2000/svg" xmlns:xlink="http://www.w3.org/1999/xlink" x="0px" y="0px"
	 viewBox="-477 714.5 45 72.5" style="enable-background:new -477 714.5 45 72.5;" xml:space="preserve">
<g>
	<path d="M-432.5,726.7l-0.8-0.8l0,0l-10.1-10.1l0,0l-0.8-0.8c-0.4-0.3-0.8-0.5-1.3-0.5h-29c-1.2,0-2.5,0.9-2.5,2.9v36.1V770v0.5
		c0,0.8,0.8,1.7,1.8,1.9c0.1,0,0.1,0,0.1,0c0.2,0,0.3,0,0.5,0h40.1c0.2,0,0.3,0,0.5,0c0,0,0.1,0,0.1,0c1-0.3,1.8-1.1,1.8-1.9V770
		v-16.5v-25C-432,727.7-432.1,727.2-432.5,726.7z M-441,735.5c0,7.2-5.8,13-13,13s-13-5.8-13-13s5.8-13,13-13c2.9,0,5.7,1,8,2.8v2.2
		v1h1h2C-441.7,730.6-441,733-441,735.5z M-442.5,726.5h-1.5v-1.7v-6.7l8.4,8.4H-442.5z M-474.5,770.5c-0.1,0-0.1,0-0.2,0
		c-0.2-0.1-0.3-0.2-0.3-0.4v-14.5h41V770c0,0.2-0.1,0.3-0.3,0.4c-0.1,0-0.1,0-0.2,0H-474.5z M-475,753.5v-36.1c0-0.2,0-0.9,0.5-0.9
		l28.6,0c0,0.1-0.1,0.3-0.1,0.4v5.9c-2.4-1.5-5.2-2.3-8-2.3c-8.3,0-15,6.7-15,15s6.7,15,15,15s15-6.7,15-15c0-2.5-0.6-4.8-1.8-7h6.4
		c0.1,0,0.3,0,0.4-0.1c0,0,0,0,0,0v25H-475z"/>
	<polygon points="-463.1,765.3 -466.1,758.4 -467.7,758.4 -467.7,768.5 -466.1,768.5 -466.1,761.6 -463.8,767.2 -462.4,767.2 
		-460.1,761.6 -460.1,768.5 -458.4,768.5 -458.4,758.4 -460.1,758.4 	"/>
	<path d="M-450.6,759.2c-0.3-0.3-0.7-0.5-1.1-0.6c-0.4-0.1-0.8-0.2-1.3-0.2h-2.9v10.1h1.6v-3.6h1.2c0.5,0,1-0.1,1.5-0.2
		s0.8-0.4,1.1-0.7c0.3-0.3,0.5-0.6,0.7-1c0.2-0.4,0.3-0.9,0.3-1.4c0-0.5-0.1-0.9-0.3-1.3C-450,759.8-450.3,759.5-450.6,759.2z
		 M-451.3,762.6c-0.1,0.3-0.2,0.5-0.4,0.6c-0.2,0.2-0.3,0.3-0.5,0.3c-0.2,0.1-0.4,0.1-0.6,0.1h-1.5v-4h1.2c0.4,0,0.8,0.1,1,0.2
		s0.5,0.3,0.6,0.5c0.1,0.2,0.2,0.4,0.3,0.6c0.1,0.2,0.1,0.4,0.1,0.6C-451.1,762-451.1,762.3-451.3,762.6z"/>
	<path d="M-442.4,758.4h-1.7l-4.4,6.4v1.3h4.4v2.3h1.7v-2.3h1.1v-1.3h-1.1V758.4z M-444,764.8h-2.9l2.9-4.5V764.8z"/>
	<path d="M-446.5,734.7l-11-7c-0.3-0.2-0.7-0.2-1,0c-0.3,0.2-0.5,0.5-0.5,0.9v14c0,0.4,0.2,0.7,0.5,0.9c0.2,0.1,0.3,0.1,0.5,0.1
		c0.2,0,0.4,0,0.5-0.2l11-7c0.3-0.2,0.5-0.5,0.5-0.8S-446.2,734.8-446.5,734.7z M-457,740.7v-10.4l8.1,5.2L-457,740.7z"/>
</g>
</svg>
