<?xml version="1.0" encoding="utf-8"?>
<!-- Generator: Adobe Illustrator 19.0.1, SVG Export Plug-In . SVG Version: 6.00 Build 0)  -->
<svg version="1.1" id="Слой_1" xmlns="http://www.w3.org/2000/svg" xmlns:xlink="http://www.w3.org/1999/xlink" x="0px" y="0px"
	 viewBox="-477 714.5 45 72.5" style="enable-background:new -477 714.5 45 72.5;" xml:space="preserve">
<g>
	<path d="M-432.5,726.7l-0.8-0.8l-10.1-10.1l-0.8-0.8c-0.4-0.3-0.8-0.5-1.3-0.5h-29c-1.4,0-2.5,1.1-2.5,2.5v36.5V770
		c0,1.4,1.1,2.5,2.5,2.5h40.1c1.4,0,2.5-1.1,2.5-2.5v-16.5V728C-432,727.5-432.2,727-432.5,726.7z M-435.6,726.5h-8.4v-8.4
		L-435.6,726.5z M-434,770c0,0.3-0.2,0.5-0.5,0.5h-40.1c-0.3,0-0.5-0.2-0.5-0.5v-14.5h41V770z M-475,753.5V717
		c0-0.3,0.2-0.5,0.5-0.5l28.6,0c0,0.1-0.1,0.3-0.1,0.4v11.6h11.6c0.1,0,0.3,0,0.4-0.1v25.1H-475z"/>
	<polygon points="-466.1,761.6 -463.8,767.2 -462.4,767.2 -460.1,761.6 -460.1,768.5 -458.4,768.5 -458.4,758.4 -460.1,758.4 
		-463.1,765.3 -466.1,758.4 -467.7,758.4 -467.7,768.5 -466.1,768.5 	"/>
	<path d="M-454.3,764.9h1.2c0.5,0,1-0.1,1.5-0.2s0.8-0.4,1.1-0.7c0.3-0.3,0.5-0.6,0.7-1c0.2-0.4,0.3-0.9,0.3-1.4
		c0-0.5-0.1-0.9-0.3-1.3c-0.2-0.4-0.5-0.7-0.8-1c-0.3-0.3-0.7-0.5-1.1-0.6c-0.4-0.1-0.8-0.2-1.3-0.2h-2.9v10.1h1.6L-454.3,764.9
		L-454.3,764.9z M-454.3,759.7h1.2c0.4,0,0.8,0.1,1,0.2s0.4,0.3,0.6,0.5c0.1,0.2,0.2,0.4,0.3,0.6c0,0.2,0.1,0.4,0.1,0.6
		c0,0.4-0.1,0.8-0.2,1c-0.1,0.3-0.2,0.5-0.4,0.6c-0.2,0.2-0.3,0.3-0.5,0.3c-0.2,0.1-0.4,0.1-0.6,0.1h-1.5V759.7z"/>
	<path d="M-445.4,767.4c-0.4,0-0.8,0-1,0c-0.2,0-0.4-0.1-0.6-0.1c-0.1,0-0.2-0.1-0.3-0.2s-0.1-0.1-0.2-0.2l-0.4,1.2
		c0.2,0.1,0.5,0.2,0.9,0.3c0.4,0.1,1,0.2,1.8,0.2c0.1,0,0.3,0,0.5,0c0.2,0,0.4-0.1,0.6-0.1c0.2-0.1,0.5-0.2,0.7-0.3s0.5-0.3,0.7-0.5
		c0.2-0.2,0.4-0.5,0.5-0.8c0.1-0.3,0.2-0.7,0.2-1.2c0-0.4-0.1-0.7-0.2-1c-0.1-0.3-0.3-0.5-0.5-0.7c-0.2-0.2-0.4-0.4-0.6-0.5
		c-0.2-0.1-0.4-0.2-0.6-0.2c0.2,0,0.3-0.1,0.5-0.2c0.2-0.1,0.4-0.3,0.5-0.4c0.2-0.2,0.3-0.4,0.4-0.6s0.2-0.5,0.2-0.8
		c0-0.5-0.1-0.9-0.3-1.3c-0.2-0.4-0.4-0.7-0.7-0.9c-0.3-0.2-0.6-0.4-1-0.5c-0.4-0.1-0.8-0.2-1.2-0.2c-0.6,0-1.1,0-1.4,0.1
		c-0.3,0.1-0.6,0.1-0.8,0.2l0.5,1.2c0.1,0,0.3-0.1,0.6-0.2s0.6-0.1,1-0.1c0.4,0,0.8,0,1,0.1c0.2,0.1,0.4,0.2,0.5,0.4
		c0.1,0.2,0.2,0.3,0.2,0.5c0,0.2,0,0.4,0,0.5c0,0.4-0.1,0.7-0.2,0.9c-0.1,0.2-0.3,0.4-0.5,0.5c-0.2,0.1-0.4,0.1-0.6,0.2
		c-0.2,0-0.4,0-0.6,0h-0.9l0,1.1h1.4c0.5,0,1,0.2,1.2,0.5c0.3,0.3,0.4,0.8,0.4,1.2c0,0.5-0.2,1-0.5,1.3
		C-444.3,767.2-444.8,767.4-445.4,767.4z"/>
	<path d="M-449.1,728.1c-3.9-3.1-4.8-6.3-4.9-6.7v-0.9c0-0.5-0.5-1-1-1s-1,0.5-1,1v1v8.4v9h-3.7c-3.9,0-6.3,2-6.3,5.1
		c0,3.5,2.2,5.7,5.7,5.7s6.3-2.8,6.3-6.3V732l0.3,0.2c0.3,0.3,0.9,0.7,1.5,1.2c2.3,1.7,6.2,4.6,5.2,7.8c0,0.1,0,0.2,0,0.3
		c0,0.4,0.3,0.8,0.7,1c0.1,0,0.2,0,0.3,0c0.4,0,0.8-0.3,1-0.7c1.6-5.4-0.4-9.4-1.8-11.3C-447.4,729.7-448.1,728.9-449.1,728.1z
		 M-456,743.4c0,2.4-1.9,4.3-4.3,4.3c-2.4,0-3.7-1.3-3.7-3.7c0-2.6,2.3-3.1,4.3-3.1h3.7V743.4z M-451,731.8
		c-0.6-0.4-1.1-0.8-1.4-1.1l-1.6-1.3v-3.5c0.8,1.2,2,2.5,3.6,3.8c0.9,0.7,1.5,1.3,1.9,2c0.7,1,1.4,2.3,1.8,4
		C-448,734-449.8,732.7-451,731.8z"/>
</g>
</svg>
