<?xml version="1.0" encoding="utf-8"?>
<!-- Generator: Adobe Illustrator 19.0.1, SVG Export Plug-In . SVG Version: 6.00 Build 0)  -->
<svg version="1.1" id="Слой_1" xmlns="http://www.w3.org/2000/svg" xmlns:xlink="http://www.w3.org/1999/xlink" x="0px" y="0px"
	 viewBox="-477 714.5 45 72.5" style="enable-background:new -477 714.5 45 72.5;" xml:space="preserve">
<g>
	<path d="M-432.5,726.7l-5.8-5.8l-5-5l0,0l-0.8-0.8c-0.4-0.3-0.8-0.5-1.3-0.5h-29c-1.4,0-2.5,1.1-2.5,2.5v36.5V770
		c0,1.4,1.1,2.5,2.5,2.5h40.1c1.4,0,2.5-1.1,2.5-2.5v-16.5V728C-432,727.5-432.2,727-432.5,726.7z M-444,726.5v-3.1v-5.3l8.4,8.4
		h-6.7H-444z M-459.5,745.7c-0.1-0.1-0.3-0.2-0.5-0.2c-0.5,0-0.9,0.4-1,0.9c-0.3,0.1-0.6,0.1-0.9,0.1h-1.1c0-0.5-0.5-1-1-1
		s-1,0.4-1,1h-0.6l0,0h-1.7c0.3-0.4,0.5-0.8,0.6-1.3c0.2,0.2,0.4,0.3,0.6,0.3c0.5,0,1-0.5,1-1s-0.5-1-1-1c-0.1,0-0.1,0-0.2,0
		c0.1-0.4,0.1-0.8,0.1-1.1l0.1-0.5c0-0.2,0.1-0.3,0.1-0.5c0.5-0.1,0.9-0.5,0.9-1c0-0.2-0.1-0.4-0.2-0.5c0.2-0.2,0.4-0.5,0.6-0.7
		c0.2,0.1,0.4,0.2,0.6,0.2c0.5,0,1-0.5,1-1c0,0,0,0,0-0.1c0.4-0.1,0.7-0.2,1.1-0.2c0.1,0,0.2,0,0.4,0l0.2,0c0.1,0,0.3,0,0.4,0.1
		c0,0,0,0.1,0,0.1c0,0.5,0.5,1,1,1c0.3,0,0.5-0.1,0.7-0.3c0.2,0.2,0.4,0.3,0.5,0.5c0,0,0,0.1,0.1,0.1c-0.2,0.2-0.3,0.4-0.3,0.7
		c0,0.5,0.5,1,1,1c0,0,0.1,0,0.1,0c0,0.1,0,0.1,0,0.1v0c0,0.2,0.1,0.5,0.1,0.7c0,0.4-0.1,0.8-0.2,1.1c0,0,0,0,0,0c-0.5,0-1,0.5-1,1
		c0,0.2,0.1,0.4,0.2,0.5C-459,745.3-459.2,745.5-459.5,745.7z M-457,738.8C-457,738.7-457,738.7-457,738.8c-0.6-0.8-1.4-1.5-2.3-1.9
		l2.1-2.1l2.8,2.8l-2.1,2.1C-456.6,739.3-456.8,739-457,738.8z M-453,736.1l-2.8-2.8l2.8-2.8c1.5-1.5,4.9-4.3,7-5.5v3.4
		c-1.4,1.9-3.2,4-4.2,4.9L-453,736.1z M-434,770c0,0.3-0.2,0.5-0.5,0.5h-40.1c-0.3,0-0.5-0.2-0.5-0.5v-14.5h41V770z M-475,753.5V717
		c0-0.3,0.2-0.5,0.5-0.5l28.6,0c0,0.1-0.1,0.3-0.1,0.4v5.8c-2.6,1.2-7,5-8.4,6.4l-7.2,7.2c-0.1,0-0.2,0-0.3,0c-3,0-5.5,2.1-6,5
		l-0.1,0.1l0,0.5c0,0.9-0.3,4-2.3,4.5c-0.5,0.1-0.9,0.6-0.8,1.2l0.1,0.9h7h0l0,0l2.1,0c3.4,0,6.1-2.7,6.1-6.1c0-0.2,0-0.4,0-0.6l7-7
		c1.2-1.2,3.6-4,5.1-6.2h9.2c0.1,0,0.3,0,0.4-0.1v25.1H-475z"/>
	<path d="M-465.1,764.9h1.2c0.5,0,1-0.1,1.4-0.2s0.8-0.4,1.1-0.7c0.3-0.3,0.5-0.6,0.7-1c0.2-0.4,0.3-0.9,0.3-1.4
		c0-0.5-0.1-0.9-0.3-1.3c-0.2-0.4-0.5-0.7-0.8-1c-0.3-0.3-0.7-0.5-1.1-0.6c-0.4-0.1-0.8-0.2-1.3-0.2h-2.9v10.1h1.6L-465.1,764.9
		L-465.1,764.9z M-465.1,759.7h1.2c0.4,0,0.8,0.1,1,0.2s0.5,0.3,0.6,0.5c0.1,0.2,0.2,0.4,0.3,0.6c0.1,0.2,0.1,0.4,0.1,0.6
		c0,0.4,0,0.8-0.1,1c-0.1,0.3-0.2,0.5-0.4,0.6c-0.2,0.2-0.3,0.3-0.5,0.3c-0.2,0.1-0.4,0.1-0.6,0.1h-1.5
		C-465.1,763.7-465.1,759.7-465.1,759.7z"/>
	<path d="M-456,767.3c-0.2,0-0.4,0-0.6,0c-0.2,0-0.4-0.1-0.6-0.1c-0.2-0.1-0.4-0.1-0.6-0.2c-0.2-0.1-0.4-0.1-0.5-0.2l-0.3,1.2
		c0.1,0.1,0.3,0.3,0.5,0.4c0.2,0.1,0.4,0.2,0.7,0.2c0.2,0,0.5,0.1,0.7,0.1c0.2,0,0.5,0,0.7,0c0.5,0,1-0.1,1.4-0.2
		c0.4-0.2,0.7-0.4,1-0.6c0.3-0.3,0.5-0.6,0.6-0.9c0.1-0.3,0.2-0.7,0.2-1.1c0-0.5-0.1-1-0.3-1.3c-0.2-0.3-0.5-0.6-0.8-0.9
		c-0.3-0.2-0.6-0.4-1-0.6c-0.4-0.2-0.7-0.3-1-0.5c-0.3-0.2-0.6-0.4-0.8-0.6c-0.2-0.2-0.3-0.5-0.3-0.9c0-0.2,0-0.3,0.1-0.5
		c0.1-0.2,0.2-0.3,0.3-0.4c0.1-0.1,0.3-0.2,0.4-0.3c0.2-0.1,0.3-0.1,0.5-0.2c0.3,0,0.6,0,0.8,0s0.4,0,0.5,0.1
		c0.1,0.1,0.2,0.1,0.3,0.1s0.1,0.1,0.2,0.1c0,0,0,0,0.1-0.1c0-0.1,0.1-0.2,0.2-0.3c0.1-0.1,0.1-0.3,0.2-0.4c0.1-0.1,0.1-0.3,0.2-0.4
		c-0.3-0.2-0.6-0.3-1-0.4c-0.4-0.1-0.8-0.1-1.3-0.1c-0.4,0-0.8,0.1-1.2,0.2c-0.4,0.1-0.7,0.3-1,0.5c-0.3,0.2-0.5,0.5-0.7,0.9
		c-0.2,0.3-0.3,0.7-0.3,1.2c0,0.5,0.1,0.9,0.3,1.2c0.2,0.3,0.5,0.6,0.8,0.8c0.3,0.2,0.7,0.5,1,0.6c0.4,0.2,0.7,0.4,1,0.5
		c0.3,0.2,0.6,0.4,0.8,0.6c0.2,0.2,0.3,0.5,0.3,0.8c0,0.5-0.2,0.9-0.4,1.2C-455,767.1-455.5,767.3-456,767.3z"/>
	<path d="M-446.6,768.5c0.3,0,0.6-0.1,0.9-0.2c0.3-0.1,0.6-0.3,1-0.5c0.3-0.2,0.7-0.5,0.9-0.9c0.3-0.4,0.5-0.9,0.7-1.5
		c0.2-0.6,0.3-1.3,0.3-2.1c0-0.6-0.1-1.2-0.3-1.8c-0.2-0.6-0.5-1.1-0.9-1.5c-0.4-0.4-1-0.8-1.6-1.1c-0.6-0.3-1.4-0.4-2.2-0.4h-3
		v10.1h3.8C-447.1,768.5-446.9,768.5-446.6,768.5z M-449.4,767.3v-7.6h1c0.8,0,1.4,0.1,1.9,0.3c0.5,0.2,0.9,0.5,1.2,0.8
		c0.3,0.3,0.5,0.7,0.6,1.1c0.1,0.4,0.1,0.8,0.1,1.2c0,1.3-0.3,2.4-0.7,3.1c-0.5,0.7-1.3,1.1-2.4,1.1
		C-447.8,767.3-449.4,767.3-449.4,767.3z"/>
	<circle cx="-462" cy="740.5" r="1"/>
	<circle cx="-460" cy="742.5" r="1"/>
	<circle cx="-464" cy="742.5" r="1"/>
	<circle cx="-462" cy="744.5" r="1"/>
</g>
</svg>
