<?xml version="1.0" encoding="utf-8"?>
<!-- Generator: Adobe Illustrator 19.0.1, SVG Export Plug-In . SVG Version: 6.00 Build 0)  -->
<svg version="1.1" id="Слой_1" xmlns="http://www.w3.org/2000/svg" xmlns:xlink="http://www.w3.org/1999/xlink" x="0px" y="0px"
	 viewBox="-477 714.5 45 72.5" style="enable-background:new -477 714.5 45 72.5;" xml:space="preserve">
<g>
	<path d="M-432.5,726.7l-0.8-0.8l-10.1-10.1l-0.8-0.8c-0.4-0.3-0.8-0.5-1.3-0.5h-29c-1.2,0-2.5,0.9-2.5,2.9v36.1V770v0.5
		c0,0.8,0.8,1.7,1.8,1.9c0.1,0,0.1,0,0.1,0c0.2,0,0.3,0,0.5,0h40.1c0.2,0,0.3,0,0.5,0c0,0,0.1,0,0.1,0c1-0.3,1.8-1.1,1.8-1.9V770
		v-16.5v-25C-432,727.7-432.1,727.1-432.5,726.7z M-435,739.5c-0.2,0-0.4,0.1-0.6,0.2l-0.6-0.6c0.1-0.2,0.2-0.4,0.2-0.6
		c0-0.5-0.5-1-1-1c-0.2,0-0.5,0.1-0.6,0.2l-0.6-0.6c0.1-0.2,0.3-0.4,0.3-0.6c0-0.5-0.5-1-1-1c-0.3,0-0.5,0.1-0.7,0.3l-0.6-0.6
		c0.2-0.2,0.3-0.4,0.3-0.7c0-0.5-0.5-1-1-1c-0.3,0-0.5,0.1-0.7,0.3l-0.6-0.5c0,0,0,0,0,0c0.2-0.2,0.4-0.5,0.4-0.8c0-0.5-0.5-1-1-1
		s-1,0.5-1,1c0,0.3,0.1,0.6,0.4,0.8c0,0-0.1,0-0.1,0.1l-0.5,0.5c-0.2-0.2-0.5-0.4-0.8-0.4c-0.5,0-1,0.5-1,1c0,0.3,0.2,0.6,0.5,0.8
		l-0.6,0.7c-0.2-0.3-0.5-0.5-0.8-0.5c-0.5,0-1,0.5-1,1c0,0.4,0.2,0.7,0.6,0.9l-0.6,0.7c-0.2-0.4-0.5-0.6-0.9-0.6c-0.5,0-1,0.5-1,1
		c0,0.4,0.3,0.8,0.7,0.9l-0.7,0.8c-0.1-0.4-0.5-0.8-0.9-0.8c-0.5,0-1,0.5-1,1c0,0.5,0.4,0.9,0.8,1l-0.8,0.9c-0.1-0.5-0.5-0.9-1-0.9
		c-0.5,0-1,0.5-1,1c0,0.5,0.4,1,1,1l-0.5,0.6l-4.7-4.7c-0.4-0.4-1-0.4-1.4,0l-6.4,5.5c0-0.1,0-0.1,0-0.2c0-0.5-0.5-1-1-1s-1,0.5-1,1
		s0.5,1,1,1c0,0,0,0,0,0l-1.1,0.9c-0.1-0.5-0.5-0.9-1-0.9c-0.5,0-1,0.5-1,1c0,0.5,0.3,0.8,0.7,1l-0.8,0.7c-0.1-0.4-0.5-0.6-0.9-0.6
		c-0.5,0-1,0.5-1,1c0,0.4,0.2,0.7,0.5,0.8l-0.7,0.6c-0.2-0.3-0.5-0.4-0.8-0.4c-0.5,0-1,0.5-1,1c0,0.3,0.1,0.5,0.3,0.7l-1.3,1.1v-2.8
		c0.5,0,1-0.5,1-1s-0.5-1-1-1v-2c0.5,0,1-0.5,1-1s-0.5-1-1-1v-2c0.5,0,1-0.5,1-1s-0.5-1-1-1v-2c0.5,0,1-0.5,1-1s-0.5-1-1-1v-2
		c0.5,0,1-0.5,1-1s-0.5-1-1-1v-2c0.5,0,1-0.5,1-1s-0.5-1-1-1v-2c0.5,0,1-0.5,1-1s-0.5-1-1-1v-2c0.5,0,1-0.5,1-1s-0.5-1-1-1v-2
		c0.5,0,1-0.5,1-1l0,0h2l0,0c0,0.5,0.5,1,1,1s1-0.5,1-1c0,0,0,0,0,0h2v0c0,0.5,0.5,1,1,1s1-0.5,1-1v0h2v0c0,0.5,0.5,1,1,1s1-0.5,1-1
		c0,0,0,0,0,0h2c0,0,0,0,0,0c0,0.5,0.4,1,1,1c0.5,0,1-0.5,1-1c0,0,0,0,0,0h2c0,0,0,0,0,0c0,0.5,0.5,1,1,1c0.6,0,1-0.5,1-1
		c0,0,0,0,0,0h2c0,0,0,0,0,0c0,0.5,0.5,1,1,1s1-0.5,1-1c0,0,0,0,0,0h2c0,0,0,0,0,0c0,0.5,0.5,1,1,1s1-0.5,1-1c0,0,0,0,0,0h0.1
		c0,0.1-0.1,0.3-0.1,0.4v3.6v4v4h2c0,0.5,0.5,1,1,1s1-0.5,1-1h2c0,0.5,0.5,1,1,1s1-0.5,1-1h2c0,0.5,0.5,1,1,1s1-0.5,1-1
		c0,0,0,0,0-0.1h0c0,0,0,0,0,0v0v4v4v4v0.7l-0.2-0.2c0.1-0.2,0.2-0.3,0.2-0.5C-434,740-434.5,739.5-435,739.5z M-435.6,726.5h-8.4
		v-8.4L-435.6,726.5z M-474.5,770.5c-0.1,0-0.1,0-0.2,0c-0.2-0.1-0.3-0.2-0.3-0.4v-14.5h41V770c0,0.2-0.1,0.3-0.3,0.4
		c-0.1,0-0.1,0-0.2,0H-474.5z M-473.3,753.5l14.1-12c0,0,0.1,0,0.1,0c0,0,0,0,0.1,0l10.2,10.2c0.4,0.4,1,0.4,1.4,0
		c0.4-0.4,0.4-1,0-1.4l-4.8-4.8l9.2-10l8.9,8.5v9.6H-473.3z"/>
	<path d="M-461.5,759.2c-0.3-0.3-0.7-0.5-1.1-0.6c-0.4-0.1-0.8-0.2-1.3-0.2h-2.9v10.1h1.6v-3.6h1.2c0.5,0,1-0.1,1.4-0.2
		s0.8-0.4,1.1-0.7c0.3-0.3,0.5-0.6,0.7-1c0.2-0.4,0.3-0.9,0.3-1.4c0-0.5-0.1-0.9-0.3-1.3C-460.9,759.8-461.1,759.5-461.5,759.2z
		 M-462.1,762.6c-0.1,0.3-0.2,0.5-0.4,0.6c-0.2,0.2-0.3,0.3-0.5,0.3c-0.2,0.1-0.4,0.1-0.6,0.1h-1.5v-4h1.2c0.4,0,0.8,0.1,1,0.2
		s0.4,0.3,0.6,0.5c0.1,0.2,0.2,0.4,0.3,0.6c0,0.2,0.1,0.4,0.1,0.6C-461.9,762-462,762.3-462.1,762.6z"/>
	<polygon points="-452.9,765.4 -456.8,758.4 -458.5,758.4 -458.5,768.5 -456.8,768.5 -456.8,761.5 -452.9,768.5 -451.2,768.5 
		-451.2,758.4 -452.9,758.4 	"/>
	<path d="M-444.7,764.4h1.7v2.5c-0.1,0.1-0.2,0.2-0.3,0.2c-0.2,0-0.3,0.1-0.5,0.1c-0.2,0-0.3,0-0.5,0.1c-0.2,0-0.3,0-0.4,0
		c-0.3,0-0.6-0.1-0.9-0.2c-0.3-0.2-0.6-0.4-0.8-0.7s-0.4-0.7-0.5-1.2c-0.1-0.5-0.2-1.1-0.2-1.8c0-0.7,0.1-1.3,0.2-1.8
		c0.1-0.5,0.3-0.9,0.6-1.2c0.2-0.3,0.5-0.5,0.8-0.7s0.6-0.2,1-0.2c0.3,0,0.6,0.1,0.9,0.2c0.3,0.1,0.5,0.3,0.8,0.6l1.1-1
		c-0.4-0.4-0.8-0.6-1.3-0.8c-0.5-0.2-1-0.3-1.5-0.3c-0.6,0-1.1,0.1-1.6,0.3c-0.5,0.2-1,0.5-1.3,1c-0.4,0.4-0.7,1-0.9,1.6
		c-0.2,0.6-0.3,1.4-0.3,2.2c0,0.9,0.1,1.6,0.3,2.2c0.2,0.6,0.5,1.2,0.9,1.6s0.8,0.8,1.3,1c0.5,0.2,1.1,0.3,1.7,0.3
		c0.3,0,0.6,0,0.9-0.1s0.6-0.1,0.9-0.2c0.3-0.1,0.6-0.3,0.8-0.4c0.3-0.2,0.5-0.4,0.7-0.7v-3.9h-3.3V764.4z"/>
	<circle cx="-473" cy="718.5" r="1"/>
	<circle cx="-469" cy="718.5" r="1"/>
	<circle cx="-465" cy="718.5" r="1"/>
	<circle cx="-461" cy="718.5" r="1"/>
	<circle cx="-457" cy="718.5" r="1"/>
	<circle cx="-453" cy="718.5" r="1"/>
	<circle cx="-449" cy="718.5" r="1"/>
	<circle cx="-447" cy="720.5" r="1"/>
	<circle cx="-451" cy="720.5" r="1"/>
	<circle cx="-455" cy="720.5" r="1"/>
	<circle cx="-459" cy="720.5" r="1"/>
	<circle cx="-463" cy="720.5" r="1"/>
	<circle cx="-467" cy="720.5" r="1"/>
	<circle cx="-471" cy="720.5" r="1"/>
	<circle cx="-473" cy="722.5" r="1"/>
	<circle cx="-469" cy="722.5" r="1"/>
	<circle cx="-465" cy="722.5" r="1"/>
	<circle cx="-461" cy="722.5" r="1"/>
	<circle cx="-457" cy="722.5" r="1"/>
	<circle cx="-453" cy="722.5" r="1"/>
	<circle cx="-449" cy="722.5" r="1"/>
	<circle cx="-447" cy="724.5" r="1"/>
	<circle cx="-451" cy="724.5" r="1"/>
	<circle cx="-455" cy="724.5" r="1"/>
	<circle cx="-459" cy="724.5" r="1"/>
	<circle cx="-463" cy="724.5" r="1"/>
	<circle cx="-467" cy="724.5" r="1"/>
	<circle cx="-471" cy="724.5" r="1"/>
	<circle cx="-473" cy="726.5" r="1"/>
	<circle cx="-461" cy="726.5" r="1"/>
	<circle cx="-457" cy="726.5" r="1"/>
	<circle cx="-453" cy="726.5" r="1"/>
	<circle cx="-449" cy="726.5" r="1"/>
	<circle cx="-447" cy="728.5" r="1"/>
	<circle cx="-451" cy="728.5" r="1"/>
	<circle cx="-455" cy="728.5" r="1"/>
	<circle cx="-459" cy="728.5" r="1"/>
	<circle cx="-457" cy="730.5" r="1"/>
	<circle cx="-453" cy="730.5" r="1"/>
	<circle cx="-449" cy="730.5" r="1"/>
	<circle cx="-445" cy="730.5" r="1"/>
	<circle cx="-441" cy="730.5" r="1"/>
	<circle cx="-439" cy="732.5" r="1"/>
	<circle cx="-435" cy="736.5" r="1"/>
	<circle cx="-437" cy="734.5" r="1"/>
	<circle cx="-435" cy="732.5" r="1"/>
	<circle cx="-437" cy="730.5" r="1"/>
	<circle cx="-447" cy="732.5" r="1"/>
	<circle cx="-451" cy="732.5" r="1"/>
	<circle cx="-455" cy="732.5" r="1"/>
	<circle cx="-459" cy="732.5" r="1"/>
	<path d="M-473,735.5c0.4,0,0.8-0.3,0.9-0.6c0.1,0.3,0.3,0.6,0.5,0.9c-0.2,0.2-0.4,0.5-0.4,0.8c0,0.5,0.5,1,1,1
		c0.3,0,0.6-0.2,0.8-0.4c0.3,0.2,0.5,0.4,0.8,0.5c-0.4,0.2-0.6,0.5-0.6,0.9c0,0.5,0.5,1,1,1s1-0.5,1-1c0-0.2-0.1-0.3-0.1-0.5
		c0.4,0.1,0.8,0.1,1.1,0.1s0.8,0,1.1-0.1c-0.1,0.1-0.1,0.3-0.1,0.5c0,0.5,0.5,1,1,1s1-0.5,1-1c0-0.4-0.3-0.8-0.6-0.9
		c0.3-0.1,0.6-0.3,0.8-0.5c0.2,0.2,0.5,0.4,0.8,0.4c0.5,0,1-0.5,1-1c0-0.3-0.2-0.6-0.4-0.8c0.2-0.3,0.3-0.6,0.5-0.9
		c0.1,0.4,0.5,0.7,0.9,0.7c0.5,0,1-0.5,1-1s-0.5-1-1-1c-0.2,0-0.4,0.1-0.5,0.2c0.1-0.4,0.1-0.7,0.1-1.1c0-0.4-0.1-0.9-0.1-1.3
		c0.2,0.1,0.4,0.2,0.6,0.2c0.5,0,1-0.5,1-1s-0.5-1-1-1c-0.5,0-0.8,0.3-1,0.7c-0.1-0.3-0.3-0.6-0.5-0.9c0.3-0.2,0.5-0.5,0.5-0.8
		c0-0.5-0.5-1-1-1c-0.4,0-0.7,0.2-0.8,0.5c-0.3-0.2-0.6-0.4-1-0.5c0.5-0.1,0.8-0.5,0.8-1c0-0.5-0.5-1-1-1s-1,0.5-1,1
		c0,0.3,0.1,0.5,0.3,0.7c-0.4-0.1-0.8-0.2-1.3-0.2s-0.9,0-1.3,0.2c0.1-0.2,0.3-0.4,0.3-0.7c0-0.5-0.5-1-1-1s-1,0.5-1,1
		c0,0.5,0.3,0.9,0.8,1c-0.3,0.1-0.7,0.3-1,0.5c-0.2-0.3-0.5-0.5-0.8-0.5c-0.5,0-1,0.5-1,1c0,0.4,0.2,0.7,0.5,0.8
		c-0.2,0.3-0.4,0.6-0.5,0.9c-0.1-0.4-0.5-0.7-1-0.7c-0.5,0-1,0.5-1,1s0.5,1,1,1c0.2,0,0.4-0.1,0.6-0.2c-0.1,0.4-0.1,0.8-0.1,1.3
		c0,0.4,0,0.8,0.1,1.1c-0.2-0.1-0.3-0.2-0.5-0.2c-0.5,0-1,0.5-1,1S-473.5,735.5-473,735.5z M-467,729c2,0,3.6,1.6,3.6,3.6
		c0,2-1.6,3.6-3.6,3.6s-3.6-1.6-3.6-3.6C-470.6,730.6-469,729-467,729z"/>
	<circle cx="-457" cy="734.5" r="1"/>
	<circle cx="-453" cy="734.5" r="1"/>
	<circle cx="-449" cy="734.5" r="1"/>
	<circle cx="-451" cy="736.5" r="1"/>
	<circle cx="-455" cy="736.5" r="1"/>
	<circle cx="-459" cy="736.5" r="1"/>
	<circle cx="-473" cy="738.5" r="1"/>
	<circle cx="-461" cy="738.5" r="1"/>
	<circle cx="-457" cy="738.5" r="1"/>
	<circle cx="-453" cy="738.5" r="1"/>
	<circle cx="-455" cy="740.5" r="1"/>
	<circle cx="-463" cy="740.5" r="1"/>
	<circle cx="-467" cy="740.5" r="1"/>
	<circle cx="-471" cy="740.5" r="1"/>
	<circle cx="-473" cy="742.5" r="1"/>
	<circle cx="-469" cy="742.5" r="1"/>
	<circle cx="-465" cy="742.5" r="1"/>
	<circle cx="-471" cy="744.5" r="1"/>
	<circle cx="-473" cy="746.5" r="1"/>
</g>
</svg>
