<?xml version="1.0" encoding="utf-8"?>
<!-- Generator: Adobe Illustrator 19.0.1, SVG Export Plug-In . SVG Version: 6.00 Build 0)  -->
<svg version="1.1" id="Слой_1" xmlns="http://www.w3.org/2000/svg" xmlns:xlink="http://www.w3.org/1999/xlink" x="0px" y="0px"
	 viewBox="-477 714.5 45 72.5" style="enable-background:new -477 714.5 45 72.5;" xml:space="preserve">
<g>
	<path d="M-432.5,726.7l-0.8-0.8l-10.1-10.1l-0.8-0.8c-0.4-0.3-0.8-0.5-1.3-0.5h-29c-1.2,0-2.5,0.9-2.5,2.9v36.1V770v0.5
		c0,0.8,0.8,1.7,1.8,1.9c0.1,0,0.1,0,0.1,0c0.2,0,0.3,0,0.5,0h40.1c0.2,0,0.3,0,0.5,0c0,0,0.1,0,0.1,0c1-0.3,1.8-1.1,1.8-1.9V770
		v-16.5v-25C-432,727.7-432.1,727.1-432.5,726.7z M-435.6,726.5h-8.4v-8.4L-435.6,726.5z M-474.5,770.5c-0.1,0-0.1,0-0.2,0
		c-0.2-0.1-0.3-0.2-0.3-0.4v-14.5h41V770c0,0.2-0.1,0.3-0.3,0.4c-0.1,0-0.1,0-0.2,0H-474.5z M-475,753.5v-36.1c0-0.2,0-0.9,0.5-0.9
		l28.6,0c0,0.1-0.1,0.3-0.1,0.4v11.6h11.6c0.1,0,0.3,0,0.4-0.1c0,0,0,0,0,0v25H-475z"/>
	<path d="M-461.5,759.2c-0.3-0.3-0.7-0.5-1.1-0.6c-0.4-0.1-0.8-0.2-1.3-0.2h-2.9v10.1h1.6v-3.6h1.2c0.5,0,1-0.1,1.4-0.2
		s0.8-0.4,1.1-0.7c0.3-0.3,0.5-0.6,0.7-1c0.2-0.4,0.3-0.9,0.3-1.4c0-0.5-0.1-0.9-0.3-1.3C-460.9,759.8-461.1,759.5-461.5,759.2z
		 M-462.1,762.6c-0.1,0.3-0.2,0.5-0.4,0.6c-0.2,0.2-0.3,0.3-0.5,0.3c-0.2,0.1-0.4,0.1-0.6,0.1h-1.5v-4h1.2c0.4,0,0.8,0.1,1,0.2
		s0.4,0.3,0.6,0.5c0.1,0.2,0.2,0.4,0.3,0.6c0,0.2,0.1,0.4,0.1,0.6C-461.9,762-462,762.3-462.1,762.6z"/>
	<path d="M-451.5,759.9c-0.4-0.5-1-0.8-1.6-1.1c-0.6-0.3-1.4-0.4-2.2-0.4h-3v10.1h3.8c0.1,0,0.3,0,0.6,0c0.3,0,0.6-0.1,0.9-0.2
		c0.3-0.1,0.6-0.3,1-0.5c0.3-0.2,0.6-0.5,0.9-0.9c0.3-0.4,0.5-0.9,0.7-1.5c0.2-0.6,0.3-1.3,0.3-2.1c0-0.6-0.1-1.2-0.3-1.8
		C-450.8,760.9-451.1,760.3-451.5,759.9z M-452.7,766.2c-0.5,0.7-1.3,1.1-2.4,1.1h-1.6v-7.6h1c0.8,0,1.4,0.1,1.9,0.3
		c0.5,0.2,0.9,0.5,1.2,0.8c0.3,0.3,0.5,0.7,0.6,1.1c0.1,0.4,0.1,0.8,0.1,1.2C-452,764.5-452.3,765.5-452.7,766.2z"/>
	<polygon points="-447.9,768.5 -446.2,768.5 -446.2,764 -442,764 -442,762.8 -446.2,762.8 -446.2,759.7 -441.6,759.7 -441.6,758.4 
		-447.9,758.4 	"/>
	<path d="M-445.1,737.5c-0.9,0-2,0.1-3.4,0.4c-1.8-1.9-3.7-4.8-5.1-7.6c1.3-5.6,0.7-6.4,0.4-6.8c-0.3-0.4-0.8-1.1-1.3-1.1
		c-0.2,0-0.8,0.1-1,0.2c-0.6,0.2-0.9,0.6-1.1,1.2c-0.7,1.7,0.3,4.5,1.3,6.6c-0.9,3.4-2.3,7.5-3.8,10.8c-3.8,1.7-5.8,3.4-6,5.1
		c-0.1,0.6,0.1,1.5,1.1,2.2c0.3,0.2,0.6,0.3,1,0.3l0,0c0.9,0,1.8-0.7,2.8-2.1c0.8-1,1.6-2.5,2.4-4.3c2.7-1.2,6-2.2,8.8-2.8
		c1.6,1.5,3,2.3,4.2,2.3c0.9,0,1.7-0.4,2.2-1.2c0.6-0.8,0.7-1.5,0.4-2.2C-442.6,737.8-443.5,737.5-445.1,737.5z M-463,747.1
		c-0.5-0.4-0.4-0.6-0.4-0.7c0.1-0.6,0.9-1.5,3.1-2.7C-461.9,746.7-462.8,747.1-463,747.1z M-454.8,724.2c0,0,1.1,1.1,0.1,3.2
		C-456.1,726-454.9,724.2-454.8,724.2z M-456.8,740.2c1-2.4,2-5.1,2.7-7.6c1.1,2,2.5,4,3.8,5.5
		C-452.5,738.7-454.7,739.4-456.8,740.2z M-443.9,739.8c-0.3,0.4-1,0.4-1.2,0.4c-0.5,0-0.7-0.3-1.5-0.9c0.7-0.1,1.3-0.1,1.8-0.1
		c0.9,0,1.1,0.1,1.2,0.2C-443.7,739.4-443.8,739.5-443.9,739.8z"/>
</g>
</svg>
