<?xml version="1.0" encoding="utf-8"?>
<!-- Generator: Adobe Illustrator 19.0.1, SVG Export Plug-In . SVG Version: 6.00 Build 0)  -->
<svg version="1.1" id="Слой_1" xmlns="http://www.w3.org/2000/svg" xmlns:xlink="http://www.w3.org/1999/xlink" x="0px" y="0px"
	 viewBox="-477 714.5 45 72.5" style="enable-background:new -477 714.5 45 72.5;" xml:space="preserve">
<g>
	<path d="M-432.5,726.7l-1.4-1.4l-9.5-9.5l0,0l-0.8-0.8c-0.4-0.4-0.8-0.6-1.3-0.6h-29c-1.2,0-2.5,0.9-2.5,2.9v36.1V770v0.5
		c0,0.8,0.8,1.7,1.8,1.9c0.1,0,0.1,0,0.1,0c0.2,0,0.3,0,0.5,0h40.1c0.2,0,0.3,0,0.5,0c0,0,0.1,0,0.1,0c1-0.3,1.8-1.1,1.8-1.9V770
		v-16.5v-25C-432,727.7-432.1,727.1-432.5,726.7z M-435.6,726.5h-8.4v-8.4l4.3,4.3L-435.6,726.5z M-474.5,770.5c-0.1,0-0.1,0-0.2,0
		c-0.2-0.1-0.3-0.2-0.3-0.4v-14.5h41V770c0,0.2-0.1,0.3-0.3,0.4c-0.1,0-0.1,0-0.2,0H-474.5z M-475,753.5v-36.1c0-0.2,0-0.9,0.5-0.9
		l28.6,0c0,0.1-0.1,0.3-0.1,0.4v11.4c-0.5-0.5-1.2-0.8-2-0.8c-0.5,0-1,0.5-1,1s0.5,1,1,1s1,0.5,1,1v4c0,1.2,0.5,2.3,1.4,3
		c-0.8,0.7-1.4,1.8-1.4,3v4c0,0.5-0.5,1-1,1s-1,0.5-1,1s0.5,1,1,1c1.6,0,3-1.3,3-3v-4c0-1.1,0.9-2,2-2c0.5,0,1-0.5,1-1s-0.5-1-1-1
		c-1.1,0-2-0.9-2-2v-4c0-0.8-0.3-1.5-0.8-2h11.4c0.1,0,0.3,0,0.4-0.1c0,0,0,0,0,0v25H-475z"/>
	<path d="M-458.1,765.9c0,0.5-0.2,0.8-0.5,1c-0.3,0.2-0.7,0.3-1.2,0.3c-0.2,0-0.4,0-0.6-0.1c-0.2-0.1-0.4-0.1-0.6-0.2
		c-0.2-0.1-0.4-0.1-0.6-0.2c-0.2-0.1-0.3-0.1-0.4-0.2l-0.7,1.1c0.2,0.1,0.4,0.3,0.7,0.4c0.3,0.1,0.5,0.2,0.8,0.3s0.6,0.2,0.8,0.2
		c0.3,0,0.5,0.1,0.7,0.1c0.4,0,0.8,0,1.2-0.1s0.7-0.2,1-0.4c0.3-0.2,0.5-0.5,0.7-0.8c0.2-0.3,0.3-0.7,0.3-1.2v-7.8h-1.7
		L-458.1,765.9L-458.1,765.9z"/>
	<path d="M-449.4,763.6c-0.3-0.2-0.6-0.4-1-0.6c-0.4-0.2-0.7-0.3-1-0.5s-0.6-0.4-0.8-0.6c-0.2-0.2-0.3-0.5-0.3-0.9
		c0-0.2,0-0.3,0.1-0.5s0.2-0.3,0.3-0.4s0.3-0.2,0.4-0.3c0.2-0.1,0.3-0.1,0.5-0.2c0.3,0,0.6,0,0.8,0c0.2,0,0.4,0,0.5,0.1
		s0.2,0.1,0.3,0.1s0.1,0.1,0.2,0.1c0,0,0,0,0.1-0.1c0-0.1,0.1-0.2,0.2-0.3c0.1-0.1,0.1-0.3,0.2-0.4c0.1-0.1,0.1-0.3,0.2-0.4
		c-0.3-0.2-0.6-0.3-1-0.4s-0.9-0.1-1.3-0.1c-0.4,0-0.8,0.1-1.2,0.2s-0.7,0.3-1,0.5s-0.5,0.5-0.7,0.9s-0.3,0.7-0.3,1.2
		c0,0.5,0.1,0.9,0.3,1.2c0.2,0.3,0.5,0.6,0.8,0.9s0.7,0.4,1,0.6c0.4,0.2,0.7,0.4,1,0.5c0.3,0.2,0.6,0.4,0.8,0.6
		c0.2,0.2,0.3,0.5,0.3,0.8c0,0.5-0.1,0.9-0.4,1.2c-0.3,0.3-0.7,0.4-1.3,0.4c-0.2,0-0.4,0-0.6,0c-0.2,0-0.4-0.1-0.6-0.1
		c-0.2,0-0.4-0.1-0.6-0.2c-0.2-0.1-0.4-0.1-0.5-0.2l-0.3,1.2c0.1,0.1,0.3,0.3,0.5,0.3s0.4,0.2,0.7,0.2c0.2,0,0.5,0.1,0.7,0.1
		c0.2,0,0.5,0,0.7,0c0.5,0,1-0.1,1.4-0.2c0.4-0.2,0.7-0.4,1-0.6c0.3-0.3,0.5-0.6,0.6-0.9c0.1-0.3,0.2-0.7,0.2-1.1
		c0-0.5-0.1-1-0.3-1.3C-448.8,764.1-449.1,763.8-449.4,763.6z"/>
	<path d="M-463,734.5v-4c0-0.5,0.5-1,1-1s1-0.5,1-1s-0.5-1-1-1c-1.6,0-3,1.3-3,3v4c0,1.1-0.9,2-2,2c-0.5,0-1,0.5-1,1s0.5,1,1,1
		c1.1,0,2,0.9,2,2v4c0,1.7,1.4,3,3,3c0.5,0,1-0.5,1-1s-0.5-1-1-1s-1-0.5-1-1v-4c0-1.2-0.5-2.3-1.4-3
		C-463.5,736.8-463,735.7-463,734.5z"/>
	<circle cx="-455" cy="734" r="1.5"/>
	<path d="M-455,739.5c-0.5,0-1,0.5-1,1v3c0,0.5,0.5,1,1,1s1-0.5,1-1v-3C-454,740-454.5,739.5-455,739.5z"/>
</g>
</svg>
