<?xml version="1.0" encoding="utf-8"?>
<!-- Generator: Adobe Illustrator 19.0.1, SVG Export Plug-In . SVG Version: 6.00 Build 0)  -->
<svg version="1.1" id="Слой_1" xmlns="http://www.w3.org/2000/svg" xmlns:xlink="http://www.w3.org/1999/xlink" x="0px" y="0px"
	 viewBox="-477 714.5 45 72.5" style="enable-background:new -477 714.5 45 72.5;" xml:space="preserve">
<g>
	<path d="M-432.5,726.7l-1.4-1.4l-9.5-9.5l0,0l-0.8-0.8c-0.4-0.4-0.8-0.6-1.3-0.6h-29c-1.2,0-2.5,0.9-2.5,2.9v36.1V770v0.5
		c0,0.8,0.8,1.7,1.8,1.9c0.1,0,0.1,0,0.1,0c0.2,0,0.3,0,0.5,0h40.1c0.2,0,0.3,0,0.5,0c0,0,0.1,0,0.1,0c1-0.3,1.9-1.1,1.9-1.9V770
		v-16.5v-25C-432,727.7-432.1,727.1-432.5,726.7z M-435.6,726.5h-8.4v-8.4l4.3,4.3L-435.6,726.5z M-474.5,770.5c-0.1,0-0.1,0-0.2,0
		c-0.2-0.1-0.3-0.2-0.3-0.4v-14.5h41V770c0,0.2-0.1,0.3-0.3,0.4c-0.1,0-0.1,0-0.2,0H-474.5z M-475,753.5v-36.1c0-0.2,0-0.9,0.5-0.9
		l28.6,0c0,0.1-0.1,0.3-0.1,0.4v11.6h11.6c0.1,0,0.3,0,0.4-0.1c0,0,0,0,0,0v25H-475z"/>
	<polygon points="-462.3,758.4 -464.2,762.5 -464.3,762.5 -466.1,758.4 -468,758.4 -465.3,763.6 -467.8,768.5 -465.9,768.5 
		-464.2,764.7 -464.1,764.7 -462.5,768.5 -460.6,768.5 -463.1,763.6 -460.4,758.4 	"/>
	<polygon points="-453.5,765.3 -456.5,758.4 -458.1,758.4 -458.1,768.5 -456.5,768.5 -456.5,761.6 -454.2,767.2 -452.8,767.2 
		-450.5,761.6 -450.5,768.5 -448.8,768.5 -448.8,758.4 -450.5,758.4 	"/>
	<polygon points="-444.6,758.4 -446.3,758.4 -446.3,768.5 -440,768.5 -440,767.3 -444.6,767.3 	"/>
	<path d="M-460.3,731.8c-0.4-0.4-1-0.4-1.4,0l-6,6c-0.4,0.4-0.4,1,0,1.4l6,6c0.2,0.2,0.4,0.3,0.7,0.3s0.5-0.1,0.7-0.3
		c0.4-0.4,0.4-1,0-1.4l-5.3-5.3l5.3-5.3C-459.9,732.8-459.9,732.2-460.3,731.8z"/>
	<path d="M-448.3,731.8c-0.4-0.4-1-0.4-1.4,0c-0.4,0.4-0.4,1,0,1.4l5.3,5.3l-5.3,5.3c-0.4,0.4-0.4,1,0,1.4c0.2,0.2,0.4,0.3,0.7,0.3
		s0.5-0.1,0.7-0.3l6-6c0.4-0.4,0.4-1,0-1.4L-448.3,731.8z"/>
	<path d="M-451.7,728.6c-0.5-0.2-1.1,0.1-1.3,0.6l-6,17c-0.2,0.5,0.1,1.1,0.6,1.3c0.1,0,0.2,0,0.3,0c0.4,0,0.8-0.3,0.9-0.7l6-17
		C-450.9,729.3-451.1,728.7-451.7,728.6z"/>
</g>
</svg>
