<?xml version="1.0" encoding="utf-8"?>
<!-- Generator: Adobe Illustrator 19.0.1, SVG Export Plug-In . SVG Version: 6.00 Build 0)  -->
<svg version="1.1" id="Слой_1" xmlns="http://www.w3.org/2000/svg" xmlns:xlink="http://www.w3.org/1999/xlink" x="0px" y="0px"
	 viewBox="-477 714.5 45 72.5" style="enable-background:new -477 714.5 45 72.5;" xml:space="preserve">
<g>
	<path d="M-432.5,726.7l-0.8-0.8l-10.1-10.1l-0.8-0.8c-0.4-0.3-0.8-0.5-1.3-0.5h-29c-1.4,0-2.5,1.1-2.5,2.5v36.5V770
		c0,1.4,1.1,2.5,2.5,2.5h40.1c1.4,0,2.5-1.1,2.5-2.5v-16.5V728C-432,727.5-432.2,727-432.5,726.7z M-435.6,726.5h-8.4v-8.4
		L-435.6,726.5z M-434,770c0,0.3-0.2,0.5-0.5,0.5h-40.1c-0.3,0-0.5-0.2-0.5-0.5v-14.5h41V770z M-475,753.5V717
		c0-0.3,0.2-0.5,0.5-0.5l28.6,0c0,0.1-0.1,0.3-0.1,0.4v11.6h11.6c0.1,0,0.3,0,0.4-0.1v25.1H-475z"/>
	<polygon points="-465.3,764 -461,764 -461,762.8 -465.3,762.8 -465.3,759.7 -460.6,759.7 -460.6,758.4 -466.9,758.4 -466.9,768.5 
		-465.3,768.5 	"/>
	<polygon points="-452.6,767.3 -457.2,767.3 -457.2,758.4 -458.9,758.4 -458.9,768.5 -452.6,768.5 	"/>
	<path d="M-448.9,766.4h3.8l0.7,2.1h1.7l-3.5-10.1h-1.6l-3.5,10.1h1.7L-448.9,766.4z M-447,761l1.5,4.3h-3L-447,761z"/>
	<path d="M-447.5,729.4l-0.7-0.7c-2.1-2.1-4.8-3.2-7.8-3.2s-5.7,1.1-7.8,3.2c-2.1,2.1-3.2,4.8-3.2,7.8s1.1,5.7,3.2,7.8
		c2.1,2.1,4.8,3.2,7.8,3.2s5.7-1.1,7.8-3.2l0.7-0.7l-7.1-7.1L-447.5,729.4z M-450.4,743.5c-1.6,1.3-3.5,2-5.6,2
		c-2.4,0-4.7-0.9-6.4-2.6c-1.7-1.7-2.6-4-2.6-6.4s0.9-4.7,2.6-6.4c1.7-1.7,4-2.6,6.4-2.6c2.1,0,4,0.7,5.6,2l-7,7L-450.4,743.5z"/>
	<circle cx="-457" cy="731.5" r="2"/>
	<path d="M-447,735.5h-3c-0.5,0-1,0.5-1,1s0.5,1,1,1h3c0.5,0,1-0.5,1-1S-446.5,735.5-447,735.5z"/>
	<path d="M-441,735.5h-2c-0.5,0-1,0.5-1,1s0.5,1,1,1h2c0.5,0,1-0.5,1-1S-440.5,735.5-441,735.5z"/>
</g>
</svg>
