<?xml version="1.0" encoding="utf-8"?>
<!-- Generator: Adobe Illustrator 19.0.1, SVG Export Plug-In . SVG Version: 6.00 Build 0)  -->
<svg version="1.1" id="Слой_1" xmlns="http://www.w3.org/2000/svg" xmlns:xlink="http://www.w3.org/1999/xlink" x="0px" y="0px"
	 viewBox="-477 714.5 45 72.5" style="enable-background:new -477 714.5 45 72.5;" xml:space="preserve">
<g>
	<path d="M-432.5,726.7l-1.4-1.4l-9.5-9.5l0,0l-0.8-0.8c-0.4-0.4-0.8-0.6-1.3-0.6h-29c-1.2,0-2.5,0.9-2.5,2.9v36.1V770v0.5
		c0,0.8,0.8,1.7,1.8,1.9c0.1,0,0.1,0,0.1,0c0.2,0,0.3,0,0.5,0h40.1c0.2,0,0.3,0,0.5,0c0,0,0.1,0,0.1,0c1-0.3,1.8-1.1,1.8-1.9V770
		v-16.5v-25C-432,727.7-432.1,727.1-432.5,726.7z M-435.6,726.5h-8.4v-8.4l4.3,4.3L-435.6,726.5z M-444.4,739.5l-6.8-1.8
		c0.1-0.4,0.2-0.8,0.2-1.2c0-1.1-0.4-2.1-1.2-2.8c-0.8-0.8-1.8-1.2-2.8-1.2c-0.4,0-0.7,0.1-1,0.2l-1.8-6.8c0.9-0.2,1.9-0.4,2.8-0.4
		c2.9,0,5.7,1.1,7.8,3.2c2.1,2.1,3.2,4.8,3.2,7.8C-444,737.5-444.1,738.5-444.4,739.5z M-445.6,742.3c-0.1,0.2-0.2,0.3-0.3,0.5
		c-0.1,0.1-0.2,0.3-0.3,0.4c-0.1,0.1-0.2,0.2-0.3,0.3c-0.2,0.3-0.4,0.5-0.7,0.7c-0.3,0.3-0.7,0.6-1,0.9c-0.1,0-0.1,0.1-0.2,0.1
		c-0.3,0.3-0.7,0.5-1.1,0.7c0,0,0,0,0,0l-1.7-6.3l6,1.6c-0.1,0.2-0.2,0.5-0.4,0.7C-445.6,742.1-445.6,742.2-445.6,742.3z
		 M-465.6,733.7l6.8,1.8c-0.1,0.3-0.1,0.7-0.1,1c0,1.1,0.4,2.1,1.2,2.8c0.8,0.8,1.8,1.2,2.8,1.2c0.6,0,1.3-0.2,1.8-0.5l1.8,6.8
		c-1.2,0.4-2.4,0.6-3.6,0.6c-2.9,0-5.7-1.1-7.8-3.2C-465.6,741.4-466.6,737.3-465.6,733.7z M-464.9,731.7c0.1-0.2,0.2-0.4,0.3-0.6
		c0.1-0.1,0.1-0.2,0.2-0.3c0.1-0.2,0.2-0.3,0.3-0.5c0.1-0.2,0.2-0.3,0.3-0.5c0.1-0.1,0.2-0.2,0.3-0.3c0.2-0.3,0.5-0.5,0.7-0.8
		c0.2-0.2,0.5-0.5,0.7-0.7c0.1-0.1,0.3-0.2,0.4-0.3c0.1-0.1,0.2-0.2,0.4-0.3c0.2-0.1,0.4-0.3,0.6-0.4c0,0,0.1-0.1,0.2-0.1
		c0.3-0.1,0.5-0.3,0.8-0.4l1.9,7.1L-464.9,731.7C-464.9,731.8-464.9,731.7-464.9,731.7z M-456.1,734.9L-456.1,734.9
		c0.4-0.3,0.8-0.4,1.1-0.4c0.5,0,1,0.2,1.4,0.6c0.4,0.4,0.6,0.9,0.6,1.4s-0.2,1-0.6,1.4c-0.8,0.8-2.1,0.8-2.8,0
		c-0.4-0.4-0.6-0.9-0.6-1.4c0-0.4,0.1-0.8,0.3-1.1l0-0.1c0.1-0.1,0.1-0.2,0.2-0.3c0,0,0,0,0,0c0,0,0,0,0.1,0
		C-456.3,735-456.2,734.9-456.1,734.9z M-474.5,770.5c-0.1,0-0.1,0-0.2,0c-0.2-0.1-0.3-0.2-0.3-0.4v-14.5h41V770
		c0,0.2-0.1,0.3-0.3,0.4c-0.1,0-0.1,0-0.2,0H-474.5z M-475,753.5v-36.1c0-0.2,0-0.9,0.5-0.9l28.6,0c0,0.1-0.1,0.3-0.1,0.4v10.2
		c-2.4-2.3-5.6-3.6-9-3.6c-1.1,0-2.3,0.2-3.4,0.5l0,0l-0.4,0.1c-0.7,0.2-1.3,0.5-2,0.8c0,0,0,0,0,0c-0.4,0.2-0.8,0.4-1.1,0.6
		c0,0-0.1,0.1-0.1,0.1c-0.3,0.2-0.6,0.4-0.9,0.7c-0.1,0.1-0.1,0.1-0.2,0.2c-0.4,0.3-0.7,0.6-1,0.9c-0.3,0.3-0.6,0.7-0.9,1
		c-0.1,0.1-0.1,0.2-0.2,0.2c-0.2,0.3-0.4,0.6-0.6,0.9c-0.1,0.1-0.1,0.2-0.1,0.2c-0.2,0.3-0.4,0.7-0.6,1c0,0.1,0,0.1-0.1,0.2
		c-0.2,0.4-0.3,0.8-0.5,1.1c0,0,0,0,0,0.1l-0.4,1l0,0c-1.1,4.3,0,9.2,3.4,12.5c2.5,2.5,5.7,3.8,9.2,3.8c1.4,0,2.8-0.3,4.2-0.7l0,0
		l0.6-0.3c0.9-0.4,1.7-0.8,2.5-1.4c0,0,0,0,0.1,0c0.3-0.2,0.6-0.4,0.9-0.7c0.3-0.3,0.6-0.5,0.9-0.8c0.3-0.3,0.6-0.7,0.9-1
		c0-0.1,0.1-0.1,0.1-0.2c0.2-0.3,0.5-0.6,0.7-0.9c0,0,0-0.1,0.1-0.1c0.5-0.8,0.9-1.6,1.2-2.5l0.4-1l0,0c0.3-1.1,0.5-2.3,0.5-3.5
		c0-2.9-1-5.7-2.8-8h10.4c0.1,0,0.3,0,0.4-0.1c0,0,0,0,0,0v25H-475z"/>
	<rect x="-463.7" y="758.4" width="1.7" height="10.1"/>
	<path d="M-454.9,763.6c-0.3-0.2-0.6-0.4-1-0.6c-0.4-0.2-0.7-0.3-1-0.5s-0.6-0.4-0.8-0.6c-0.2-0.2-0.3-0.5-0.3-0.9
		c0-0.2,0-0.3,0.1-0.5s0.2-0.3,0.3-0.4c0.1-0.1,0.3-0.2,0.4-0.3c0.2-0.1,0.3-0.1,0.5-0.2c0.3,0,0.6,0,0.8,0c0.2,0,0.4,0,0.5,0.1
		c0.1,0,0.2,0.1,0.3,0.1s0.1,0.1,0.2,0.1c0,0,0,0,0.1-0.1c0-0.1,0.1-0.2,0.2-0.3c0.1-0.1,0.1-0.3,0.2-0.4c0.1-0.1,0.1-0.3,0.2-0.4
		c-0.3-0.2-0.6-0.3-1-0.4c-0.4-0.1-0.9-0.1-1.3-0.1c-0.4,0-0.8,0.1-1.2,0.2c-0.4,0.1-0.7,0.3-1,0.5s-0.5,0.5-0.7,0.9
		c-0.2,0.3-0.3,0.7-0.3,1.2c0,0.5,0.1,0.9,0.3,1.2c0.2,0.3,0.5,0.6,0.8,0.9s0.7,0.4,1,0.6c0.4,0.2,0.7,0.4,1,0.5
		c0.3,0.2,0.6,0.4,0.8,0.6c0.2,0.2,0.3,0.5,0.3,0.8c0,0.5-0.2,0.9-0.4,1.2c-0.3,0.3-0.7,0.4-1.3,0.4c-0.2,0-0.4,0-0.6,0
		c-0.2,0-0.4-0.1-0.6-0.1c-0.2-0.1-0.4-0.1-0.6-0.2c-0.2-0.1-0.4-0.1-0.5-0.2l-0.3,1.2c0.1,0.1,0.3,0.3,0.5,0.3
		c0.2,0.1,0.4,0.2,0.7,0.2c0.2,0,0.5,0.1,0.7,0.1c0.2,0,0.5,0,0.7,0c0.5,0,1-0.1,1.4-0.2c0.4-0.2,0.7-0.4,1-0.6
		c0.3-0.3,0.5-0.6,0.6-0.9s0.2-0.7,0.2-1.1c0-0.5-0.1-1-0.3-1.3C-454.4,764.1-454.6,763.8-454.9,763.6z"/>
	<path d="M-445.1,759.6c-0.4-0.4-0.8-0.8-1.3-1c-0.5-0.2-1.1-0.3-1.7-0.3s-1.2,0.1-1.7,0.3c-0.5,0.2-0.9,0.5-1.3,1s-0.7,1-0.9,1.6
		c-0.2,0.7-0.3,1.4-0.3,2.2c0,0.9,0.1,1.6,0.3,2.2c0.2,0.6,0.5,1.2,0.9,1.6s0.8,0.8,1.3,1c0.5,0.2,1.1,0.3,1.7,0.3s1.2-0.1,1.7-0.3
		c0.5-0.2,1-0.5,1.3-1c0.4-0.4,0.7-1,0.9-1.6c0.2-0.6,0.3-1.4,0.3-2.2c0-0.8-0.1-1.6-0.3-2.2C-444.5,760.5-444.8,760-445.1,759.6z
		 M-445.8,765.2c-0.1,0.5-0.3,0.9-0.6,1.2c-0.2,0.3-0.5,0.5-0.8,0.7s-0.6,0.2-1,0.2c-0.3,0-0.6-0.1-0.9-0.2
		c-0.3-0.1-0.6-0.4-0.8-0.7c-0.2-0.3-0.4-0.7-0.6-1.2c-0.1-0.5-0.2-1.1-0.2-1.8c0-0.7,0.1-1.3,0.2-1.8c0.1-0.5,0.3-0.9,0.6-1.2
		s0.5-0.5,0.8-0.7s0.6-0.2,1-0.2c0.3,0,0.6,0.1,0.9,0.2c0.3,0.1,0.6,0.4,0.8,0.7c0.2,0.3,0.4,0.7,0.5,1.2c0.1,0.5,0.2,1.1,0.2,1.7
		C-445.6,764.1-445.7,764.7-445.8,765.2z"/>
</g>
</svg>
