<?xml version="1.0" encoding="utf-8"?>
<!-- Generator: Adobe Illustrator 19.0.1, SVG Export Plug-In . SVG Version: 6.00 Build 0)  -->
<svg version="1.1" id="Слой_1" xmlns="http://www.w3.org/2000/svg" xmlns:xlink="http://www.w3.org/1999/xlink" x="0px" y="0px"
	 viewBox="-477 714.5 45 72.5" style="enable-background:new -477 714.5 45 72.5;" xml:space="preserve">
<g>
	<path d="M-432.5,726.7l-0.8-0.8l0,0l-10.1-10.1l0,0l-0.8-0.8c-0.4-0.3-0.8-0.5-1.3-0.5h-29c-1.2,0-2.5,0.9-2.5,2.9v36.1V770v0.5
		c0,0.8,0.8,1.7,1.8,1.9c0.1,0,0.1,0,0.1,0c0.2,0,0.3,0,0.5,0h40.1c0.2,0,0.3,0,0.5,0c0,0,0.1,0,0.1,0c1-0.3,1.8-1.1,1.8-1.9V770
		v-16.5v-25C-432,727.7-432.1,727.2-432.5,726.7z M-444,718.1l8.4,8.4h-8.4V718.1z M-474.5,770.5c-0.1,0-0.1,0-0.2,0
		c-0.2-0.1-0.3-0.2-0.3-0.4v-14.5h41V770c0,0.2-0.1,0.3-0.3,0.4c-0.1,0-0.1,0-0.2,0H-474.5z M-475,753.5v-36.1c0-0.2,0-0.9,0.5-0.9
		l28.6,0c0,0.1-0.1,0.3-0.1,0.4v11.6h11.6c0.1,0,0.3,0,0.4-0.1c0,0,0,0,0,0v25H-475z"/>
	<polygon points="-463.9,759.8 -458.9,759.8 -459.1,760 -463.9,767.2 -463.9,768.5 -457.2,768.5 -457.2,767.2 -462.3,767.2 
		-462,767 -457.2,759.8 -457.2,758.4 -463.9,758.4 	"/>
	<rect x="-454.9" y="758.4" width="1.7" height="10.1"/>
	<path d="M-445.4,759.2c-0.3-0.3-0.7-0.5-1.1-0.6c-0.4-0.1-0.8-0.2-1.3-0.2h-2.9v10.1h1.6v-3.6h1.2c0.5,0,1-0.1,1.4-0.2
		c0.4-0.2,0.8-0.4,1.1-0.7c0.3-0.3,0.5-0.6,0.7-1c0.2-0.4,0.3-0.9,0.3-1.4c0-0.5-0.1-0.9-0.3-1.3
		C-444.8,759.8-445.1,759.5-445.4,759.2z M-446,762.6c-0.1,0.3-0.2,0.5-0.4,0.6c-0.2,0.2-0.3,0.3-0.5,0.3c-0.2,0.1-0.4,0.1-0.6,0.1
		h-1.5v-4h1.2c0.4,0,0.8,0.1,1,0.2s0.4,0.3,0.6,0.5c0.1,0.2,0.2,0.4,0.3,0.6c0,0.2,0.1,0.4,0.1,0.6C-445.9,762-446,762.3-446,762.6z
		"/>
	<path d="M-454,737.5h2v-2h-2v-2h2v-2h-2v-2h2v-2h-2v-2h2v-2h-2v-2h-2v2h-2v2h2v2h-2v2h2v2h-2v2h2v2h-2v2h2v2h-4v5c0,2.8,2.2,5,5,5
		s5-2.2,5-5v-5h-4V737.5z M-452,744.5c0,1.7-1.4,3-3,3s-3-1.3-3-3v-3h6V744.5z"/>
	<path d="M-456,745.5h2c0.5,0,1-0.5,1-1s-0.5-1-1-1h-2c-0.5,0-1,0.5-1,1S-456.5,745.5-456,745.5z"/>
</g>
</svg>
