<?xml version="1.0" encoding="utf-8"?>
<!-- Generator: Adobe Illustrator 19.0.1, SVG Export Plug-In . SVG Version: 6.00 Build 0)  -->
<svg version="1.1" id="Слой_1" xmlns="http://www.w3.org/2000/svg" xmlns:xlink="http://www.w3.org/1999/xlink" x="0px" y="0px"
	 viewBox="-477 714.5 45 72.5" style="enable-background:new -477 714.5 45 72.5;" xml:space="preserve">
<g>
	<path d="M-432.5,726.7l-1.4-1.4l-9.5-9.5l0,0l-0.8-0.8c-0.4-0.4-0.8-0.6-1.3-0.6h-29c-1.4,0-2.5,1.1-2.5,2.5v36.5V770
		c0,1.4,1.1,2.5,2.5,2.5h40.1c1.4,0,2.5-1.1,2.5-2.5v-16.5V728C-432,727.5-432.2,727-432.5,726.7z M-435.6,726.5h-8.4v-8.4
		L-435.6,726.5z M-434,770c0,0.3-0.2,0.5-0.5,0.5h-40.1c-0.3,0-0.5-0.2-0.5-0.5v-14.5h41V770z M-475,753.5V717
		c0-0.3,0.2-0.5,0.5-0.5l28.6,0c0,0.1-0.1,0.3-0.1,0.4v11.6h11.6c0.1,0,0.3,0,0.4-0.1v25.1H-475z"/>
	<path d="M-464.3,767.3c-0.2,0-0.4,0-0.6,0c-0.2,0-0.4-0.1-0.6-0.1c-0.2-0.1-0.4-0.1-0.6-0.2c-0.2-0.1-0.4-0.1-0.5-0.2l-0.3,1.2
		c0.2,0.1,0.3,0.3,0.5,0.4c0.2,0.1,0.4,0.2,0.7,0.2c0.2,0.1,0.5,0.1,0.7,0.1c0.2,0,0.5,0,0.7,0c0.5,0,1-0.1,1.4-0.2
		c0.4-0.1,0.7-0.4,1-0.6c0.3-0.3,0.5-0.6,0.6-0.9c0.1-0.3,0.2-0.7,0.2-1.1c0-0.5-0.1-1-0.3-1.3c-0.2-0.3-0.5-0.6-0.8-0.9
		c-0.3-0.2-0.6-0.4-1-0.6c-0.4-0.2-0.7-0.3-1-0.5c-0.3-0.2-0.6-0.4-0.8-0.6c-0.2-0.2-0.3-0.5-0.3-0.9c0-0.2,0-0.3,0.1-0.5
		c0.1-0.2,0.2-0.3,0.3-0.4s0.3-0.2,0.4-0.3c0.2-0.1,0.3-0.1,0.5-0.2c0.3,0,0.6,0,0.8,0c0.2,0,0.4,0,0.5,0.1c0.1,0.1,0.2,0.1,0.3,0.1
		s0.1,0.1,0.2,0.1c0,0,0,0,0.1-0.1c0-0.1,0.1-0.2,0.2-0.3c0.1-0.1,0.1-0.3,0.2-0.4c0.1-0.2,0.1-0.3,0.2-0.4c-0.3-0.2-0.6-0.3-1-0.4
		c-0.4-0.1-0.9-0.1-1.3-0.1c-0.4,0-0.8,0.1-1.2,0.2s-0.7,0.3-1,0.5c-0.3,0.2-0.5,0.5-0.7,0.9c-0.2,0.3-0.3,0.7-0.3,1.2
		c0,0.5,0.1,0.9,0.3,1.2c0.2,0.3,0.5,0.6,0.8,0.8s0.7,0.5,1,0.6s0.7,0.4,1,0.5c0.3,0.2,0.6,0.4,0.8,0.6s0.3,0.5,0.3,0.8
		c0,0.5-0.1,0.9-0.4,1.2C-463.3,767.1-463.7,767.3-464.3,767.3z"/>
	<polygon points="-454.5,768.5 -451.2,758.4 -453.1,758.4 -455.6,767.1 -457.9,758.4 -459.8,758.4 -456.6,768.5 	"/>
	<path d="M-448.1,767.3c0.4,0.4,0.8,0.8,1.3,1c0.5,0.2,1.1,0.3,1.7,0.3c0.3,0,0.6,0,0.9-0.1s0.6-0.1,0.9-0.2s0.6-0.3,0.8-0.4
		c0.3-0.2,0.5-0.4,0.7-0.6v-3.9h-3.3v1.1h1.7v2.5c-0.1,0.1-0.2,0.2-0.3,0.2c-0.2,0-0.3,0.1-0.5,0.1c-0.2,0-0.3,0-0.5,0.1
		c-0.2,0-0.3,0-0.4,0c-0.3,0-0.6-0.1-0.9-0.2c-0.3-0.2-0.6-0.4-0.8-0.7c-0.2-0.3-0.4-0.7-0.6-1.2c-0.1-0.5-0.2-1.1-0.2-1.8
		c0-0.7,0.1-1.3,0.2-1.8c0.1-0.5,0.3-0.9,0.6-1.2c0.2-0.3,0.5-0.5,0.8-0.7c0.3-0.1,0.6-0.2,1-0.2c0.3,0,0.6,0.1,0.9,0.2
		c0.3,0.1,0.5,0.3,0.8,0.6l1.1-1c-0.4-0.4-0.8-0.6-1.3-0.8s-1-0.3-1.5-0.3c-0.6,0-1.1,0.1-1.6,0.3c-0.5,0.2-1,0.5-1.3,1
		c-0.4,0.4-0.7,1-0.9,1.6c-0.2,0.7-0.3,1.4-0.3,2.2c0,0.8,0.1,1.6,0.3,2.2C-448.8,766.3-448.5,766.8-448.1,767.3z"/>
	<path d="M-443,733.5h-6v-4h-10v4h-6v-2h-6v6h6v-2h3.5c-4.6,2.6-7.5,7.6-7.5,13c0,0.5,0.5,1,1,1s1-0.5,1-1c0-5.3,3.2-10,8-12v3h10
		v-3c4.8,2,8,6.8,8,12c0,0.5,0.5,1,1,1s1-0.5,1-1c0-5.4-3-10.4-7.5-13h3.5v2h6v-6h-6V733.5z M-467,735.5h-2v-2h2V735.5z M-451,737.5
		h-6v-3.8v-2.3h6v2.3V737.5z M-441,733.5h2v2h-2V733.5z"/>
</g>
</svg>
