<?xml version="1.0" encoding="utf-8"?>
<!-- Generator: Adobe Illustrator 19.0.1, SVG Export Plug-In . SVG Version: 6.00 Build 0)  -->
<svg version="1.1" id="Слой_1" xmlns="http://www.w3.org/2000/svg" xmlns:xlink="http://www.w3.org/1999/xlink" x="0px" y="0px"
	 viewBox="-451 691 96 120" style="enable-background:new -451 691 96 120;" xml:space="preserve">
<path d="M-441,783v12c0,2.2,1.8,4,4,4h12c2.2,0,4-1.8,4-4s-1.8-4-4-4h-8v-8c0-2.2-1.8-4-4-4S-441,780.8-441,783z"/>
<path d="M-393,723v8c0,2.2,1.8,4,4,4h8c2.2,0,4-1.8,4-4s-1.8-4-4-4h-4v-4c0-2.2-1.8-4-4-4S-393,720.8-393,723z"/>
<path d="M-385,795c0,2.2,1.8,4,4,4h12c2.2,0,4-1.8,4-4v-12c0-2.2-1.8-4-4-4s-4,1.8-4,4v8h-8C-383.2,791-385,792.8-385,795z"/>
<path d="M-441,707v12c0,2.2,1.8,4,4,4s4-1.8,4-4v-8h8c2.2,0,4-1.8,4-4s-1.8-4-4-4h-12C-439.2,703-441,704.8-441,707z"/>
<path d="M-413,795c0,2.2,1.8,4,4,4h8c2.2,0,4-1.8,4-4s-1.8-4-4-4h-8C-411.2,791-413,792.8-413,795z"/>
<path d="M-413,707c0,2.2,1.8,4,4,4h8c2.2,0,4-1.8,4-4s-1.8-4-4-4h-8C-411.2,703-413,704.8-413,707z"/>
<path d="M-441,759v8c0,2.2,1.8,4,4,4s4-1.8,4-4v-8c0-2.2-1.8-4-4-4S-441,756.8-441,759z"/>
<path d="M-441,735v8c0,2.2,1.8,4,4,4s4-1.8,4-4v-8c0-2.2-1.8-4-4-4S-441,732.8-441,735z"/>
<path d="M-365,771v-8c0-2.2-1.8-4-4-4s-4,1.8-4,4v8c0,2.2,1.8,4,4,4S-365,773.2-365,771z"/>
<path d="M-365,747v-8c0-2.2-1.8-4-4-4s-4,1.8-4,4v8c0,2.2,1.8,4,4,4S-365,749.2-365,747z"/>
<path d="M-373.3,723.4c1.5-1.6,1.4-4.2-0.2-5.7l-9.4-8.6c-1.6-1.5-4.2-1.4-5.7,0.2c-1.5,1.6-1.4,4.2,0.2,5.7l9.4,8.6
	c0.8,0.7,1.7,1.1,2.7,1.1C-375.1,724.7-374,724.2-373.3,723.4z"/>
</svg>
