<?xml version="1.0" encoding="utf-8"?>
<!-- Generator: Adobe Illustrator 19.0.1, SVG Export Plug-In . SVG Version: 6.00 Build 0)  -->
<svg version="1.1" id="Слой_1" xmlns="http://www.w3.org/2000/svg" xmlns:xlink="http://www.w3.org/1999/xlink" x="0px" y="0px"
	 viewBox="-477 714.5 45 72.5" style="enable-background:new -477 714.5 45 72.5;" xml:space="preserve">
<g>
	<path d="M-432.5,726.7l-0.8-0.8l-10.1-10.1l-0.8-0.8c-0.4-0.3-0.8-0.5-1.3-0.5h-29c-1.2,0-2.5,0.9-2.5,2.9v36.1V770v0.5
		c0,0.8,0.8,1.7,1.8,1.9c0.1,0,0.1,0,0.1,0c0.2,0,0.3,0,0.5,0h40.1c0.2,0,0.3,0,0.5,0c0,0,0.1,0,0.1,0c1-0.3,1.8-1.1,1.8-1.9V770
		v-16.5v-25C-432,727.7-432.1,727.1-432.5,726.7z M-435.6,726.5h-8.4v-8.4L-435.6,726.5z M-474.5,770.5c-0.1,0-0.1,0-0.2,0
		c-0.2-0.1-0.3-0.2-0.3-0.4v-14.5h41V770c0,0.2-0.1,0.3-0.3,0.4c-0.1,0-0.1,0-0.2,0H-474.5z M-475,753.5v-36.1c0-0.2,0-0.9,0.5-0.9
		l28.6,0c0,0.1-0.1,0.3-0.1,0.4v11.6h11.6c0.1,0,0.3,0,0.4-0.1c0,0,0,0,0,0v25H-475z"/>
	<polygon points="-467.1,768.5 -460.8,768.5 -460.8,767.3 -465.4,767.3 -465.4,764 -461.2,764 -461.2,762.8 -465.4,762.8 
		-465.4,759.7 -460.8,759.7 -460.8,758.4 -467.1,758.4 	"/>
	<polygon points="-453.1,758.4 -455,762.5 -455.1,762.5 -456.9,758.4 -458.8,758.4 -456.1,763.6 -458.6,768.5 -456.7,768.5 
		-455,764.7 -454.9,764.7 -453.3,768.5 -451.4,768.5 -453.9,763.6 -451.2,758.4 	"/>
	<polygon points="-448.9,768.5 -442.6,768.5 -442.6,767.3 -447.2,767.3 -447.2,764 -443,764 -443,762.8 -447.2,762.8 -447.2,759.7 
		-442.6,759.7 -442.6,758.4 -448.9,758.4 	"/>
	<path d="M-443.7,729.5c-0.5-0.2-1.1,0.1-1.3,0.7l-5,16c-0.2,0.5,0.1,1.1,0.7,1.3c0.1,0,0.2,0,0.3,0c0.4,0,0.8-0.3,1-0.7l5-16
		C-442.9,730.3-443.2,729.7-443.7,729.5z"/>
	<circle cx="-453.5" cy="735" r="1.5"/>
	<circle cx="-453.5" cy="742" r="1.5"/>
	<path d="M-461,733.5h2c0.5,0,1-0.5,1-1s-0.5-1-1-1h-2c-3.9,0-7,3.1-7,7s3.1,7,7,7h2c0.5,0,1-0.5,1-1s-0.5-1-1-1h-2
		c-2.8,0-5-2.2-5-5S-463.8,733.5-461,733.5z"/>
</g>
</svg>
