<?xml version="1.0" encoding="utf-8"?>
<!-- Generator: Adobe Illustrator 19.0.1, SVG Export Plug-In . SVG Version: 6.00 Build 0)  -->
<svg version="1.1" id="Слой_1" xmlns="http://www.w3.org/2000/svg" xmlns:xlink="http://www.w3.org/1999/xlink" x="0px" y="0px"
	 viewBox="-449 688 100 125" style="enable-background:new -449 688 100 125;" xml:space="preserve">
<path d="M-353.6,789.2h-4.6c-8.3,0-15-6.7-15-15l0,0v-1.5c14.2-17.1,11.9-42.4-5.2-56.6s-42.4-11.9-56.6,5.2
	c-14.2,17.1-11.9,42.4,5.2,56.6c15.1,12.5,37,12.4,51.9-0.4c1.6,9.6,9.9,16.7,19.6,16.7h4.6c1.4,0,2.5-1.1,2.5-2.5
	C-351.1,790.3-352.3,789.2-353.6,789.2z M-404.1,718.2c5.8,0,10.5,4.8,10.4,10.6c0,5.8-4.8,10.5-10.6,10.4
	c-5.8,0-10.4-4.7-10.4-10.5C-414.6,722.9-409.9,718.2-404.1,718.2C-404.1,718.2-404.1,718.2-404.1,718.2L-404.1,718.2z
	 M-422.6,757.7c-5.8,0-10.5-4.7-10.5-10.5s4.7-10.5,10.5-10.5s10.5,4.7,10.5,10.5C-412.1,753-416.8,757.7-422.6,757.7z
	 M-404.1,776.2c-5.8,0-10.5-4.7-10.5-10.5c0-5.8,4.7-10.5,10.5-10.5c5.8,0,10.5,4.7,10.5,10.5c0,0,0,0,0,0
	C-393.6,771.5-398.3,776.2-404.1,776.2z M-385.6,757.7c-5.8,0-10.5-4.7-10.5-10.5s4.7-10.5,10.5-10.5c5.8,0,10.5,4.7,10.5,10.5
	C-375.1,753-379.8,757.7-385.6,757.7z"/>
</svg>
