<?xml version="1.0" encoding="utf-8"?>
<!-- Generator: Adobe Illustrator 19.0.1, SVG Export Plug-In . SVG Version: 6.00 Build 0)  -->
<svg version="1.1" id="Слой_1" xmlns="http://www.w3.org/2000/svg" xmlns:xlink="http://www.w3.org/1999/xlink" x="0px" y="0px"
	 viewBox="-449 701 100 100" style="enable-background:new -449 701 100 100;" xml:space="preserve">
<g>
	<path d="M-408.5,801c-3.4,0-4.1-3.7-4.1-3.7v-60.5c0-11,8.4-15,11.7-15c3.3,0,3.1-3.4,3.1-3.4h4.9c0,0,0,3.4,3.3,3.4
		c3.3,0,11.7,4,11.7,15v60.5c0,0-0.7,3.7-4.1,3.7"/>
	<path d="M-366.3,720.7c-2.3-3.8-15-12.2-21.7-12.1c0,0-3.3-1.2-0.7-2.7c1.2-0.6,2.4-0.8,6.3,1.1c3.4,1.6,11.5,3.7,12.6,1.3
		l-0.3-0.8c-5.4,0.6-10.6-8-25.1-6.4c-0.8,0.1-2.4,0.8-2.4,0.8l-3.7,0.3l-0.1,2.4l-1,0c-0.1-0.2,0,3.2,0,3.2s0.4-0.2,1,0.1l0.2,0.7
		c0,0,1.3,1.1,3.3,1.2v1.2h2.7c1.2,0,2.2,1,2.2,2.2s-0.8,2.2-2,2.2l-3,0v1.4c0,0-0.9,0.7,3,0.7c3.9,0,3.1-0.7,3.1-0.7
		s-0.3-2.3,4.6-1.9c5.4,0.4,13.2,2,19.4,8.3C-368,723.2-364,724.5-366.3,720.7z"/>
	<path d="M-424.7,760.2c-0.1,0-0.2,0-0.4,0c-0.7-0.2-1.1-0.9-0.9-1.6l11.3-41.6c1.2-4.5,4.2-5.3,5.8-5.1h13.6c0.7,0,1.3,0.6,1.3,1.3
		c0,0.7-0.6,1.3-1.3,1.3l-14,0c-0.2,0-2.1-0.2-2.9,3.1l-11.3,41.7C-423.6,759.8-424.2,760.2-424.7,760.2z"/>
	<path d="M-426.8,767l-5.4-1.5l-0.2-0.8c0,0,13.3-41.1,14.3-44c1-2.9,4.2-1.8,4.2-1.8s3.3,0.7,2.8,3.7c-0.6,3-9.8,45.2-9.8,45.2
		l-0.6,0.6L-426.8,767"/>
</g>
</svg>
