<?xml version="1.0" encoding="utf-8"?>
<!-- Generator: Adobe Illustrator 19.0.1, SVG Export Plug-In . SVG Version: 6.00 Build 0)  -->
<svg version="1.1" id="Слой_1" xmlns="http://www.w3.org/2000/svg" xmlns:xlink="http://www.w3.org/1999/xlink" x="0px" y="0px"
	 viewBox="-449 688 100 125" style="enable-background:new -449 688 100 125;" xml:space="preserve">
<path d="M-382.8,721.8c-19.2-12.7-10.5-25.1-10.5-25.1c-18.6,10.7-22.7,27.1-18.2,47.8c-6.7-5.4-7.7-11.9-7.5-20.3
	c-8.5,9.1-10.1,18.9-9.5,29.3c0.9,16.5,14.9,29.7,31.6,29.5c16.2-0.1,29.8-13.6,30.6-29.9C-365.7,739.4-371.5,729.3-382.8,721.8z
	 M-396.7,773.3c-2.9,0-5.7-0.6-8.2-1.6c-3.4-1.3-6.3-3.4-8.7-6c0.1,0,0.2,0,0.3,0c9.7-1.2,17.5-8.5,19.4-18c0.3,1.4,0.4,2.9,0.4,4.4
	c0,4.1-1.1,8-3,11.3c6.8-3.9,11.3-11.2,11.3-19.6c0-5.7-2.1-10.9-5.6-14.8c9.6,2.6,16.6,11.4,16.6,21.8
	C-374.1,763.2-384.2,773.3-396.7,773.3z"/>
</svg>
