<?xml version="1.0" encoding="utf-8"?>
<!-- Generator: Adobe Illustrator 19.0.1, SVG Export Plug-In . SVG Version: 6.00 Build 0)  -->
<svg version="1.1" id="Слой_1" xmlns="http://www.w3.org/2000/svg" xmlns:xlink="http://www.w3.org/1999/xlink" x="0px" y="0px"
	 viewBox="-449 688 100 125" style="enable-background:new -449 688 100 125;" xml:space="preserve">
<path d="M-362.9,714c5-1.4,8.5-5.1,8.5-9.4c0-5.5-5.8-10-13-10c-7.2,0-13,4.5-13,10c0,2.5,1.2,4.8,3.2,6.6l-14.6,13.8
	c-2.6-2.4-6-3.8-9.8-3.8c-4.9,0-9.1,2.4-11.8,6l-8.9-5.5c0.5-1,0.9-2,0.9-3.1c0.1-4.6-4.7-8.5-10.7-8.6s-11,3.5-11.1,8.1
	c-0.1,3.6,2.8,6.8,7,8c1.4,2.9,5.7,5.4,5.7,5.4c-1-1.3-1.1-3.6-1-4.8c3.1-0.1,5.9-1.3,7.7-3l9.1,5.6c-1,2-1.6,4.3-1.6,6.7
	c0,5.5,3,10.3,7.5,12.8l-3.9,8.5c-0.5,0-1,0-1.4,0c-6.9,0.2-12.3,4.6-12.2,9.8c0.1,5,5.2,9,11.5,9.3c0.1,1.4,0,4-1.1,5.5
	c0,0,4.9-2.9,6.5-6.2c4.7-1.4,8.1-5,8-9.2c-0.1-4.2-3.7-7.7-8.7-8.9l3.6-7.9c1.6,0.6,3.2,0.9,5,0.9c6.5,0,12-4.2,14-10.1l12.1,2.9
	c0.1,2.6,2.2,4.8,5.1,5.7c1,2.2,4.2,4,4.2,4c-0.7-1-0.8-2.7-0.7-3.6c4.1-0.2,7.4-2.8,7.5-6c0.1-3.4-3.5-6.3-7.9-6.4
	c-3.5-0.1-6.5,1.6-7.7,3.9l-12.1-2.9c0.1-0.7,0.2-1.5,0.2-2.3c0-3.5-1.2-6.6-3.2-9.1l15.1-14.2c1.9,1.1,4.1,1.8,6.5,1.9
	c0,1.4-0.1,4.2-1.3,5.7C-369.8,720.3-364.6,717.4-362.9,714z"/>
</svg>
