<?xml version="1.0" encoding="utf-8"?>
<!-- Generator: Adobe Illustrator 19.0.1, SVG Export Plug-In . SVG Version: 6.00 Build 0)  -->
<svg version="1.1" id="Слой_1" xmlns="http://www.w3.org/2000/svg" xmlns:xlink="http://www.w3.org/1999/xlink" x="0px" y="0px"
	 viewBox="-449 688 100 125" style="enable-background:new -449 688 100 125;" xml:space="preserve">
<path d="M-359.2,753.5c-3.5-1.5-7.4-0.5-9.8,2.2l-7.4-3.1c2.3-8.9-1-18.6-8.5-24.2l7.8-13.6c3.5,0.7,7.3-0.8,9.2-4.1
	c2.4-4.1,1-9.3-3.1-11.7s-9.3-1-11.7,3.1c-1.9,3.3-1.4,7.3,1,10l-7.8,13.6c-5-2.2-10.4-2.4-15.4-1l-2.9-6.8c2.7-2.4,3.8-6.3,2.3-9.8
	c-1.8-4.4-6.8-6.4-11.2-4.6s-6.4,6.8-4.6,11.2c1.5,3.5,5,5.5,8.6,5.2l2.8,6.8c-3.6,2-6.6,4.9-8.8,8.6c-2.8,4.8-3.6,10.2-2.8,15.3
	l-6.6,1.7c-2-3-5.7-4.6-9.4-3.6c-4.6,1.2-7.3,5.9-6.1,10.5s5.9,7.3,10.5,6.1c3.7-1,6.2-4.2,6.4-7.8l6.8-1.8
	c1.9,4.5,5.2,8.5,9.8,11.1c0.8,0.5,1.6,0.9,2.5,1.2c-0.3,1.2-0.7,2.4-1.5,3.6c-2.5,4-6.2,6.5-6.2,6.5s13.8-0.4,17.4-8.3
	c7.8-0.2,15.2-4.3,19.4-11.5c0.2-0.3,0.3-0.5,0.4-0.8l7.2,3.1c-0.3,3.6,1.7,7.1,5.2,8.6c4.4,1.8,9.4-0.2,11.2-4.5
	C-352.8,760.3-354.9,755.3-359.2,753.5z"/>
</svg>
