<?xml version="1.0" encoding="utf-8"?>
<!-- Generator: Adobe Illustrator 22.0.1, SVG Export Plug-In . SVG Version: 6.00 Build 0)  -->
<svg version="1.1"
	 id="Слой_1" xmlns:cc="http://creativecommons.org/ns#" xmlns:dc="http://purl.org/dc/elements/1.1/" xmlns:inkscape="http://www.inkscape.org/namespaces/inkscape" xmlns:rdf="http://www.w3.org/1999/02/22-rdf-syntax-ns#" xmlns:sodipodi="http://sodipodi.sourceforge.net/DTD/sodipodi-0.dtd" xmlns:svg="http://www.w3.org/2000/svg"
	 xmlns="http://www.w3.org/2000/svg" xmlns:xlink="http://www.w3.org/1999/xlink" x="0px" y="0px" viewBox="0 0 100 100"
	 style="enable-background:new 0 0 100 100;" xml:space="preserve">
<path d="M99.7,63.7C97.3,45.5,87.6,32,87.2,31.2c-0.2-0.3-0.5-0.7-0.8-0.8L85,29.7l-0.5-1.7c0-0.2-0.1-0.2-0.2-0.4
	c-0.1-0.2-1.1-2.1-3.9-3.2c-2.6-1.1-9.1-3.3-13-3.3c-1.3,0-2.4,0.2-3.1,0.8c-0.5,0.2-2.2,1.7-4.1,2.2c-0.3,0.1-0.7,0.1-1,0.1H40.4
	c-2.2,0-4.7-2-5.2-2.3c-0.8-0.5-1.8-0.8-3.1-0.8c-3.9,0-10.4,2.2-13,3.3c-2.8,1.1-3.8,3-3.9,3.2c-0.1,0.1-0.1,0.2-0.2,0.4l-0.5,1.8
	l-1.1,0.6c-0.3,0.2-0.5,0.5-0.7,0.8C12.4,32,2.7,45.5,0.3,63.7c-0.8,6.8,0.1,11.8,2.9,15c2.7,3.1,6.3,3.5,7.9,3.5h1.1
	c2.1,0,5-5,14.4-15.3c1-1,1.7-1.5,2.1-2c1.4-1.4,4.3-1.9,6.4-1.9H65c2.1,0,5.1,0.5,6.4,1.9c0.3,0.2,0.7,0.6,1.1,1
	c0.3,0.3,0.6,0.6,1,1C83.1,77.3,86,82.2,88,82.2h1.1c1.4,0,5-0.4,7.8-3.5C99.6,75.5,100.5,70.4,99.7,63.7z M32.3,61.4
	c-4.4,0-8-3.5-8-7.9c0-4.4,3.6-8,8-8c4.4,0,7.9,3.6,7.9,8C40.2,57.9,36.7,61.4,32.3,61.4z M40.6,36.1c0,0.6-0.5,1.1-1.1,1.1h-3.7
	v3.7c0,0.6-0.5,1.1-1.1,1.1h-2.4c-0.6,0-1.1-0.5-1.1-1.1v-3.7h-3.7c-0.6,0-1.1-0.5-1.1-1.1v-2.4c0-0.6,0.5-1.1,1.1-1.1h3.7v-3.7
	c0-0.7,0.5-1.1,1.1-1.1h2.4c0.6,0,1.1,0.5,1.1,1.1v3.7h3.7c0.6,0,1.1,0.5,1.1,1.1V36.1z M71.3,32.4c1.3,0,2.4,1.1,2.4,2.4
	c0,1.3-1.1,2.4-2.4,2.4c-1.3,0-2.4-1.1-2.4-2.4C69,33.5,70,32.4,71.3,32.4z M66.5,27.7c1.4,0,2.4,1.1,2.4,2.4c0,1.3-1.1,2.4-2.4,2.4
	c-1.3,0-2.4-1.1-2.4-2.4C64.2,28.8,65.2,27.7,66.5,27.7z M69,39.6c0,1.3-1.1,2.4-2.4,2.4c-1.3,0-2.4-1.1-2.4-2.4
	c0-1.3,1.1-2.4,2.4-2.4C67.9,37.2,69,38.3,69,39.6z M59.4,34.9c0-1.4,1.1-2.4,2.4-2.4c1.3,0,2.4,1.1,2.4,2.4c0,1.3-1.1,2.4-2.4,2.4
	C60.5,37.2,59.4,36.2,59.4,34.9z M69.2,61.4c-4.4,0-8-3.5-8-7.9c0-4.4,3.6-8,8-8c4.3,0,7.9,3.6,7.9,8C77.1,57.9,73.5,61.4,69.2,61.4
	z"/>
<path d="M83.6,25.2c-0.1,0.2-0.1,0.4-0.2,0.5c-0.3-0.3-0.7-0.7-1.1-1c-0.3-0.2-0.5-0.4-0.8-0.5c-0.3-0.2-0.6-0.3-1-0.5
	c-0.6-0.2-1.5-0.5-2.5-0.9c-1.1-0.4-2.2-0.8-3.4-1.1c-1.2-0.4-2.5-0.7-3.7-0.9c-0.6-0.1-1.2-0.2-1.8-0.2c-0.5-0.1-1-0.2-1.4-0.2
	c0.4-1,1.4-1.7,2.5-1.8c0.1,0,0.2,0.1,0.2,0.1c0.2,0,0.3,0,0.5,0.1l10.8,2.9C83.1,22.2,84,23.7,83.6,25.2z"/>
<path d="M31.6,20.4c-0.5,0-0.9,0.1-1.4,0.2c-0.6,0-1.1,0.2-1.8,0.2c-1.2,0.2-2.4,0.5-3.7,0.9c-1.2,0.3-2.4,0.7-3.4,1.1
	c-1.1,0.4-1.9,0.7-2.6,0.9c-0.3,0.2-0.7,0.3-0.9,0.5c-0.3,0.2-0.6,0.3-0.8,0.5c-0.5,0.3-0.9,0.7-1.2,1c-0.1-0.2-0.2-0.3-0.2-0.5
	c-0.4-1.4,0.5-3,2-3.4l10.8-2.9c0.2-0.1,0.3-0.1,0.5-0.1c0.1,0,0.2-0.1,0.2-0.1C30.1,18.8,31.1,19.4,31.6,20.4z"/>
<path d="M32.3,47.3c-3.4,0-6.2,2.7-6.2,6.2c0,3.4,2.7,6.2,6.2,6.2c3.4,0,6.2-2.7,6.2-6.2C38.4,50,35.6,47.3,32.3,47.3z M32.3,57.1
	c-2.1,0-3.7-1.6-3.7-3.7c0-2.1,1.7-3.7,3.7-3.7c2.1,0,3.7,1.7,3.7,3.7C35.9,55.5,34.3,57.1,32.3,57.1z"/>
<path d="M69.2,47.3c-3.4,0-6.2,2.7-6.2,6.2c0,3.4,2.7,6.2,6.2,6.2c3.4,0,6.1-2.7,6.1-6.2C75.3,50,72.5,47.3,69.2,47.3z M69.2,57.1
	c-2.1,0-3.7-1.6-3.7-3.7c0-2.1,1.7-3.7,3.7-3.7c2,0,3.7,1.7,3.7,3.7C72.8,55.5,71.2,57.1,69.2,57.1z"/>
</svg>
