<?xml version="1.0" encoding="utf-8"?>
<!-- Generator: Adobe Illustrator 22.0.1, SVG Export Plug-In . SVG Version: 6.00 Build 0)  -->
<svg version="1.1" id="Слой_1" xmlns="http://www.w3.org/2000/svg" xmlns:xlink="http://www.w3.org/1999/xlink" x="0px" y="0px"
	 viewBox="0 0 100 100" style="enable-background:new 0 0 100 100;" xml:space="preserve">
<path d="M85.9,35.9C85.9,16.1,69.8,0,50,0S14.1,16.1,14.1,35.9c0,17.2,12.5,32.1,29.2,35.3v6.2H33.2v13.4h10.1v9.1h13.4v-9.1h10.1
	V77.5H56.7v-6.2C73.5,68.1,85.9,53.1,85.9,35.9z M63.6,80.7v7H53.5v9.1h-7v-9.1H36.4v-7h10.1V68.5l-1.4-0.2
	C29.3,65.9,17.3,52,17.3,35.9C17.3,17.9,32,3.2,50,3.2s32.7,14.7,32.7,32.7c0,16.1-12,30-27.8,32.4l-1.4,0.2v12.2H63.6z"/>
<path d="M50,10.2c-14.2,0-25.7,11.5-25.7,25.7c0,14.2,11.5,25.7,25.7,25.7s25.7-11.5,25.7-25.7C75.7,21.8,64.2,10.2,50,10.2z
	 M50,58.4c-12.4,0-22.5-10.1-22.5-22.5c0-12.4,10.1-22.5,22.5-22.5s22.5,10.1,22.5,22.5C72.5,48.3,62.4,58.4,50,58.4z"/>
</svg>
