<?xml version="1.0" encoding="utf-8"?>
<!-- Generator: Adobe Illustrator 22.0.1, SVG Export Plug-In . SVG Version: 6.00 Build 0)  -->
<svg version="1.1" id="Слой_1" xmlns="http://www.w3.org/2000/svg" xmlns:xlink="http://www.w3.org/1999/xlink" x="0px" y="0px"
	 viewBox="0 0 100 100" style="enable-background:new 0 0 100 100;" xml:space="preserve">
<path d="M63.3,0v14.4h12L64.9,24.9C58,20,49.8,17.4,41.3,17.4c-11,0-21.4,4.3-29.2,12.1C-4,45.6-4,71.8,12.1,87.9
	c7.8,7.8,18.2,12.1,29.2,12.1c11,0,21.4-4.3,29.2-12.1c14.1-14.1,16-36.6,4.7-52.8l10.4-10.4v12H100V0H63.3z M96.6,33.4h-7.8V16.6
	L70.7,34.8l0.9,1.2c11.3,15,9.8,36.4-3.5,49.6c-7.2,7.2-16.7,11.1-26.8,11.1c-10.1,0-19.7-3.9-26.8-11.1
	c-14.8-14.8-14.8-38.9,0-53.7c7.2-7.2,16.7-11.1,26.8-11.1c8.3,0,16.2,2.6,22.8,7.6l1.2,0.9l18.1-18.1H66.6V3.3h30V33.4z"/>
<path d="M62.6,37.4c-5.7-5.7-13.3-8.8-21.3-8.8c-8.1,0-15.6,3.1-21.3,8.8c-11.8,11.8-11.8,30.9,0,42.7c5.7,5.7,13.3,8.8,21.3,8.8
	c8.1,0,15.6-3.1,21.3-8.8C74.4,68.3,74.4,49.1,62.6,37.4z M60.2,77.7c-5.1,5.1-11.8,7.9-19,7.9c-7.2,0-13.9-2.8-19-7.9
	c-10.5-10.5-10.5-27.5,0-38c5.1-5.1,11.8-7.9,19-7.9c7.2,0,13.9,2.8,19,7.9C70.7,50.2,70.7,67.2,60.2,77.7z"/>
</svg>
