<?xml version="1.0" encoding="utf-8"?>
<!-- Generator: Adobe Illustrator 19.0.1, SVG Export Plug-In . SVG Version: 6.00 Build 0)  -->
<svg version="1.1" id="Слой_1" xmlns="http://www.w3.org/2000/svg" xmlns:xlink="http://www.w3.org/1999/xlink" x="0px" y="0px"
	 viewBox="-467 711 64 80" style="enable-background:new -467 711 64 80;" xml:space="preserve">
<g>
	<polygon points="-447.3,763.4 -447.1,763.4 -446.1,757.8 -447.1,757.7 	"/>
	<path d="M-422.1,749.6c0.3,0.4,0.9,0.4,1.3,0.1l0.6-0.5c0.4-0.3,0.4-0.9,0.1-1.3l-17.8-21.2c-0.3-0.4-0.9-0.4-1.3-0.1l-0.6,0.5
		c-0.4,0.3-0.4,0.9-0.1,1.3l9.7,11.6l-6.2,1.9l-1.2-4l-1.4,0.4l1.2,4l-6.2,1.9l1.5-15c0-0.5-0.3-0.9-0.8-1l-0.8-0.1
		c-0.5,0-0.9,0.3-1,0.8l-2.7,27.6c0,0.5,0.3,1,0.8,1l0.8,0.1c0.5,0,1-0.3,1-0.8l1.2-11.7l6.5-2l1.2,4l1.4-0.4l-1.2-4l6.5-2
		L-422.1,749.6z"/>
	<polygon points="-420.8,749.9 -416.8,754.1 -416.6,753.9 -420,749.3 	"/>
	<path d="M-446.2,734.4l0.2-1.5c-1.1-0.9-2-2.1-2.5-3.5c-1.2-3.7,0.9-7.7,4.7-8.9c3.7-1.2,7.7,0.9,8.9,4.7c0.4,1.4,0.4,2.9,0,4.3
		l1,1.2c0.8-1.8,1-3.9,0.3-5.9c-1.4-4.5-6.1-7-10.6-5.6c-4.5,1.4-7,6.1-5.6,10.6C-449.1,731.8-447.8,733.4-446.2,734.4z"/>
	<path d="M-446.1,717.1c0.3,1,1.1,1.6,1.8,1.4c0.7-0.2,1-1.2,0.7-2.1l-0.6-2c-0.3-1-1.1-1.6-1.8-1.4c-0.7,0.2-1,1.2-0.7,2.1
		L-446.1,717.1z"/>
	<path d="M-433.4,747.3l0,0.1l-3.8,1.2l-1.1-3.4c-0.4-0.1-0.8-0.2-1.2-0.3l-3.5,1.1l-0.4,3.9c2-0.1,4,0.3,5.8,1.2l-6.4,5.2l-0.1,0.7
		c-0.1,0.7-0.4,1.3-1,1.6l-1,6.1l16.8-13.6C-430.4,749.5-431.8,748.3-433.4,747.3z"/>
	<path d="M-448.5,759.9l-6.2,5c-1-4.4,0.4-9.3,4.2-12.3c0.6-0.5,1.2-0.9,1.9-1.2l0.6-5.9c-2,0.6-4,1.6-5.8,3.1
		c-7.5,6.1-8.7,17.1-2.6,24.6l10.2-8.2l-2.4-0.2L-448.5,759.9z"/>
	<path d="M-421.4,751.2c-0.4,0-0.8-0.1-1.1-0.3l-1.6,2.7v-4.4l-3.4-4.1v21.4l7.8-13.7L-421.4,751.2
		C-421.4,751.2-421.4,751.2-421.4,751.2z"/>
	<path d="M-424.1,729.9l9.8,6.3l-5.6,9.9l0.8,0.9c0.4,0.4,0.6,1,0.5,1.6c0,0.1,0,0.2,0,0.2l0.6,0.9l8.3-14.7l-17.8-11.4v13.5
		l3.4,4.1L-424.1,729.9L-424.1,729.9z"/>
</g>
</svg>
