<?xml version="1.0" encoding="utf-8"?>
<!-- Generator: Adobe Illustrator 19.0.1, SVG Export Plug-In . SVG Version: 6.00 Build 0)  -->
<svg version="1.1"
	 id="Слой_1" xmlns:dc="http://purl.org/dc/elements/1.1/" xmlns:cc="http://creativecommons.org/ns#" xmlns:rdf="http://www.w3.org/1999/02/22-rdf-syntax-ns#" xmlns:svg="http://www.w3.org/2000/svg" xmlns:sodipodi="http://sodipodi.sourceforge.net/DTD/sodipodi-0.dtd" xmlns:inkscape="http://www.inkscape.org/namespaces/inkscape"
	 xmlns="http://www.w3.org/2000/svg" xmlns:xlink="http://www.w3.org/1999/xlink" x="0px" y="0px" viewBox="-483 731 32 40"
	 style="enable-background:new -483 731 32 40;" xml:space="preserve">
<g transform="translate(0,-1020.3622)">
	<path d="M-480,1759.4h9v5.5h-9V1759.4z"/>
	<path d="M-470,1759.4h1.9l-1.9,2.5V1759.4z"/>
	<path d="M-466.8,1759.4h1.8l-4.2,5.5h-0.8v-1.3L-466.8,1759.4z"/>
	<path d="M-463,1759.4h1c0,0,0,0,0,0c0,0,0,0,0,0h8v5.5h-1h-8V1759.4z"/>
	<path d="M-464,1759.7v2.5l-2.1,2.7h-1.8L-464,1759.7z"/>
	<path d="M-464,1763.8v1.1h-0.9L-464,1763.8z"/>
	<path d="M-478.5,1765.9h8.5v15h-8.5V1765.9z"/>
	<path d="M-469,1765.9h2.1l-2.1,2.6V1765.9z"/>
	<path d="M-465.7,1765.9h0.7v1.8l-4,5.2v-2.9L-465.7,1765.9z"/>
	<path d="M-464,1765.9h8.5v15h-8.5V1765.9z"/>
	<path d="M-465,1769.3v2.9l-4,5.2v-2.9L-465,1769.3z"/>
	<path d="M-465,1773.8v2.9l-3.2,4.2h-0.8v-1.8L-465,1773.8z"/>
	<path d="M-465,1778.3v2.5h-2L-465,1778.3z"/>
	<path d="M-472.2,1753.4c-0.3,0-0.7,0.1-1,0.3c-1.3,0.6-2,2-1.7,3.4c0.1,0.5,0.4,1,0.7,1.4h2.2c-0.9,0-1.8-0.7-2-1.6
		c-0.2-0.9,0.3-1.8,1.1-2.2c0.9-0.4,1.9-0.1,2.4,0.6c0,0,0,0,0,0l2.4,3.2h0.7h1.3h0l2.3-3.1l0.1-0.1l0,0c0,0,0,0,0,0
		c0.6-0.8,1.6-1,2.4-0.6c0.9,0.4,1.3,1.3,1.1,2.2c-0.2,0.9-1,1.6-1.9,1.6h2.2c0.3-0.4,0.6-0.9,0.7-1.4c0.3-1.4-0.4-2.8-1.7-3.4
		c-0.6-0.3-1.3-0.3-2-0.2l0,0c-0.6,0.2-1.2,0.5-1.6,1.1l0,0l-2.6,3.4l-2.6-3.4c-0.4-0.6-1-0.9-1.7-1.1l0,0
		C-471.6,1753.4-471.9,1753.3-472.2,1753.4L-472.2,1753.4z M-462,1759.4C-462,1759.4-462,1759.4-462,1759.4
		C-462,1759.4-462,1759.4-462,1759.4L-462,1759.4z"/>
</g>
</svg>
