<?xml version="1.0" encoding="utf-8"?>
  <!-- Generator: Adobe Illustrator 13.0.0, SVG Export Plug-In . SVG Version: 6.00 Build 14948)  -->
  <!DOCTYPE svg PUBLIC "-//W3C//DTD SVG 1.1//EN" "http://www.w3.org/Graphics/SVG/1.1/DTD/svg11.dtd">
<svg version="1.1"
	 id="svg2" inkscape:version="0.48.4 r9939" sodipodi:docname="search.svg" xmlns:dc="http://purl.org/dc/elements/1.1/" xmlns:cc="http://creativecommons.org/ns#" xmlns:rdf="http://www.w3.org/1999/02/22-rdf-syntax-ns#" xmlns:svg="http://www.w3.org/2000/svg" xmlns:sodipodi="http://sodipodi.sourceforge.net/DTD/sodipodi-0.dtd" xmlns:inkscape="http://www.inkscape.org/namespaces/inkscape"
	 xmlns="http://www.w3.org/2000/svg" xmlns:xlink="http://www.w3.org/1999/xlink" x="0px" y="0px" width="1200px" height="1200px"
	 viewBox="0 0 1200 1200" enable-background="new 0 0 1200 1200" xml:space="preserve">
<path d="M888.1875 514c10.667 10.667 14.333 19.667 11 27c-3.333 7.333 -12.333 11 -27 11c0 0 -84 0 -84 0c0 0 0 310 0 310c0 9.333 -0.333 16.333 -1 21c-0.667 4.667 -3.333 9 -8 13c-4.667 4 -12.333 6 -23 6c0 0 -204 0 -204 0c0 0 0 -310 0 -310c0 0 -204 0 -204 0c0 0 0 310 0 310c0 0 -194 0 -194 0c-18.667 0 -30.333 -3.333 -35 -10c-4.667 -6.667 -7 -16.667 -7 -30c0 0 0 -310 0 -310c0 0 -84 0 -84 0c-14.667 0 -23.667 -3.667 -27 -11c-3.333 -7.333 0.333 -16.333 11 -27c0 0 400 -402 400 -402c10.667 -10.667 23.333 -16 38 -16c14.667 0 27.333 5.333 38 16c0 0 400 402 400 402" />
</svg>
