<?xml version="1.0" encoding="utf-8"?>
<!-- Generator: Adobe Illustrator 19.0.1, SVG Export Plug-In . SVG Version: 6.00 Build 0)  -->
<svg version="1.1" id="Слой_1" xmlns="http://www.w3.org/2000/svg" xmlns:xlink="http://www.w3.org/1999/xlink" x="0px" y="0px"
	 viewBox="-454 694.5 90 112.5" style="enable-background:new -454 694.5 90 112.5;" xml:space="preserve">
<path d="M-387.6,724.3c-6.4,0-11.7,4.2-13.6,9.9c-1.4,0.8-3.5,0-3.5,0c-1.4-0.4-3.2-4.9-3.2-4.9c-4.2-9.5-9.4-10.7-9.4-10.7
	c-12.8-4.6-21.4,5.5-22.9,7.5c-1.5,1.9-6.7,8.4-2.8,19.3c3.9,10.9,14.8,12.3,16.2,12.4c1.5,0.1,7,0.1,7,0.1c3.6,1.7,3,3.1,3.8,3.3
	c0.8,0.2,2.6,0.5,2.1-3.2c-0.5-3.7-4.3-6.4-4.7-6.9c-0.5-0.5-6.1-2.6-8-3.3c-2-0.7-3.8-2.1-5-5.7c-1.2-3.6,0.8-7.8,4.7-9.8
	c4-1.9,7-0.2,7.3-0.1c0.3,0.1,3,2.4,3.9,3.2c1.4,1.1,3.5,1.1,3.5,1.1c2.8,0.4,1.8,1.4,6.8,4.4c2.7,1.6,4.1,2.7,4.8,3.3
	c2.2,5.1,7.2,8.6,13.1,8.6c7.9,0,14.3-6.4,14.3-14.3S-379.8,724.3-387.6,724.3z M-387.6,746.9c-4.6,0-8.4-3.7-8.4-8.4
	c0-4.6,3.7-8.4,8.4-8.4s8.4,3.8,8.4,8.4C-379.3,743.1-383,746.9-387.6,746.9z"/>
</svg>
