<?xml version="1.0" encoding="utf-8"?>
<!-- Generator: Adobe Illustrator 19.0.1, SVG Export Plug-In . SVG Version: 6.00 Build 0)  -->
<svg version="1.1" id="Слой_1" xmlns="http://www.w3.org/2000/svg" xmlns:xlink="http://www.w3.org/1999/xlink" x="0px" y="0px"
	 viewBox="-449 688 100 125" style="enable-background:new -449 688 100 125;" xml:space="preserve">
<path d="M-359.3,783c-1.8,0-3.2-1.4-3.2-3.2v-26.6H-421v26.6c0,1.8-1.4,3.2-3.2,3.2s-3.2-1.4-3.2-3.2v-29.8c0-1.8,1.4-3.2,3.2-3.2
	h64.8c1.8,0,3.2,1.4,3.2,3.2v29.8C-356.2,781.6-357.6,783-359.3,783z"/>
<path d="M-421.6,740.1h-2.5c-1.2,0-2.1-0.9-2.1-2.1s0.9-2.1,2.1-2.1h2.5c1.2,0,2.1,0.9,2.1,2.1S-420.5,740.1-421.6,740.1z"/>
<path d="M-370.2,740.1h-4.4c-1.2,0-2.1-0.9-2.1-2.1s0.9-2.1,2.1-2.1h4.4c1.2,0,2.1,0.9,2.1,2.1S-369.1,740.1-370.2,740.1z
	 M-383.1,740.1h-4.4c-1.2,0-2.1-0.9-2.1-2.1s0.9-2.1,2.1-2.1h4.4c1.2,0,2.1,0.9,2.1,2.1S-381.9,740.1-383.1,740.1z M-395.9,740.1
	h-4.4c-1.2,0-2.1-0.9-2.1-2.1s0.9-2.1,2.1-2.1h4.4c1.2,0,2.1,0.9,2.1,2.1S-394.8,740.1-395.9,740.1z M-408.8,740.1h-4.4
	c-1.2,0-2.1-0.9-2.1-2.1s0.9-2.1,2.1-2.1h4.4c1.2,0,2.1,0.9,2.1,2.1S-407.6,740.1-408.8,740.1z"/>
<path d="M-359.3,740.1h-2.5c-1.2,0-2.1-0.9-2.1-2.1s0.9-2.1,2.1-2.1h2.5c1.2,0,2.1,0.9,2.1,2.1S-358.2,740.1-359.3,740.1z"/>
<path d="M-359.3,729.1h-64.8c-1.8,0-3.2-1.4-3.2-3.2v-29.8c0-1.8,1.4-3.2,3.2-3.2s3.2,1.4,3.2,3.2v26.6h58.5v-26.6
	c0-1.8,1.4-3.2,3.2-3.2s3.2,1.4,3.2,3.2v29.8C-356.2,727.7-357.6,729.1-359.3,729.1z"/>
<path d="M-439.7,747.9c-0.3,0-0.5-0.1-0.8-0.2c-0.8-0.3-1.3-1.1-1.3-2v-15.5c0-0.9,0.5-1.6,1.3-2c0.8-0.3,1.7-0.1,2.3,0.5l7.8,7.8
	c0.8,0.8,0.8,2.2,0,3l-7.8,7.8C-438.6,747.7-439.2,747.9-439.7,747.9z M-437.6,735.3v5.3l2.7-2.7L-437.6,735.3z"/>
</svg>
