<?xml version="1.0" encoding="utf-8"?>
<!-- Generator: Adobe Illustrator 19.0.1, SVG Export Plug-In . SVG Version: 6.00 Build 0)  -->
<svg version="1.1" id="Слой_1" xmlns="http://www.w3.org/2000/svg" xmlns:xlink="http://www.w3.org/1999/xlink" x="0px" y="0px"
	 viewBox="-449 688 100 125" style="enable-background:new -449 688 100 125;" xml:space="preserve">
<path d="M-356.5,698h-65c-1.4,0-2.5,1.1-2.5,2.5s1.1,2.5,2.5,2.5h65c1.4,0,2.5-1.1,2.5-2.5S-355.1,698-356.5,698z"/>
<path d="M-421.5,718h55c1.4,0,2.5-1.1,2.5-2.5s-1.1-2.5-2.5-2.5h-55c-1.4,0-2.5,1.1-2.5,2.5S-422.9,718-421.5,718z"/>
<path d="M-356.5,728h-65c-1.4,0-2.5,1.1-2.5,2.5s1.1,2.5,2.5,2.5h65c1.4,0,2.5-1.1,2.5-2.5S-355.1,728-356.5,728z"/>
<path d="M-421.5,748h55c1.4,0,2.5-1.1,2.5-2.5s-1.1-2.5-2.5-2.5h-55c-1.4,0-2.5,1.1-2.5,2.5S-422.9,748-421.5,748z"/>
<path d="M-356.5,758h-65c-1.4,0-2.5,1.1-2.5,2.5v20c0,1.4,1.1,2.5,2.5,2.5h65c1.4,0,2.5-1.1,2.5-2.5v-20
	C-354,759.1-355.1,758-356.5,758z M-359,778h-60v-15h60V778z"/>
<path d="M-443.3,782.3c0.5,0.5,1.2,0.7,1.8,0.7s1.3-0.2,1.8-0.7l10-10c1-1,1-2.6,0-3.5l-10-10c-1-1-2.6-1-3.5,0c-1,1-1,2.6,0,3.5
	l8.2,8.2l-8.2,8.2C-444.2,779.7-444.2,781.3-443.3,782.3z"/>
</svg>
