<?xml version="1.0" encoding="utf-8"?>
<!-- Generator: Adobe Illustrator 19.0.1, SVG Export Plug-In . SVG Version: 6.00 Build 0)  -->
<svg version="1.1" id="Слой_1" xmlns="http://www.w3.org/2000/svg" xmlns:xlink="http://www.w3.org/1999/xlink" x="0px" y="0px"
	 viewBox="-449 688 100 125" style="enable-background:new -449 688 100 125;" xml:space="preserve">
<path d="M-403.8,718.6l0.3-1.1h20l-0.4,1.1c-1.8,0-3.2,0.4-4.2,1.2c-1,0.8-1.8,2.5-2.5,5l-7.5,26.2c-0.5,1.9-0.8,3.1-0.8,3.7
	c0,0.7,0.3,1.3,0.8,1.7c0.7,0.5,2.1,0.8,4.1,0.8l-0.3,1.1h-20.3l0.3-1.1c2,0,3.5-0.4,4.5-1.2c0.9-0.8,1.8-2.5,2.6-5.1l7.6-26.2
	c0.5-1.6,0.7-2.8,0.7-3.7c0-0.7-0.3-1.3-0.8-1.8C-400.3,719-401.7,718.8-403.8,718.6z"/>
</svg>
