<?xml version="1.0" encoding="utf-8"?>
<!-- Generator: Adobe Illustrator 19.0.1, SVG Export Plug-In . SVG Version: 6.00 Build 0)  -->
<svg version="1.1" id="Слой_1" xmlns="http://www.w3.org/2000/svg" xmlns:xlink="http://www.w3.org/1999/xlink" x="0px" y="0px"
	 viewBox="-467 719 64 64" style="enable-background:new -467 719 64 64;" xml:space="preserve">
<path d="M-423,719c-11,0-20,9-20,20c0,1.3,0.1,2.5,0.3,3.7L-467,767v12c0,2.2,1.8,4,4,4h4v-4h8v-8h8v-8h8l5.2-5.2
	c2.1,0.8,4.4,1.2,6.8,1.2c11,0,20-9,20-20C-403,727.9-412,719-423,719z M-417,739c-3.3,0-6-2.7-6-6s2.7-6,6-6s6,2.7,6,6
	S-413.7,739-417,739z"/>
</svg>
