<?xml version="1.0" encoding="utf-8"?>
<!-- Generator: Adobe Illustrator 19.0.1, SVG Export Plug-In . SVG Version: 6.00 Build 0)  -->
<svg version="1.1" id="Слой_1" xmlns="http://www.w3.org/2000/svg" xmlns:xlink="http://www.w3.org/1999/xlink" x="0px" y="0px"
	 viewBox="-110 251 778.9 1000" style="enable-background:new -110 251 778.9 1000;" xml:space="preserve">
<g>
	<path d="M663.6,487.7c13.3,77.3,4,149-28,215s-82,105-150,117c-44,8-87.3,8.7-130,2l-118,194l-70,12l-104,166
		c-9.3,18.7-24.7,29.3-46,32l-76,14c-8,2.7-15.3,1.3-22-4s-10.7-12.7-12-22l-16-98c-5.3-20-1.3-38.7,12-56l258-386
		c-16-33.3-28.7-73.3-38-120c-12-70.7,5.7-133,53-187s109-87.7,185-101c70.7-13.3,135.7,1.7,195,45S651.6,413,663.6,487.7
		L663.6,487.7 M537.6,563.7c20-29.3,27-61.7,21-97s-23-63-51-83c-28-21.3-58.7-28.7-92-22s-60,24.7-80,54c-5.3,8-9.3,15.7-12,23
		s-3,14-1,20s3.7,11.3,5,16s5.7,10.3,13,17s13.3,11.7,18,15s12,8.7,22,16s17.7,13,23,17c4,2.7,11.3,8,22,16s18.3,13.3,23,16
		s11,6.7,19,12s14.3,8,19,8s10.3-0.3,17-1s12.7-3.3,18-8S532.3,571.7,537.6,563.7L537.6,563.7"/>
</g>
</svg>
