<?xml version="1.0" encoding="utf-8"?>
<!-- Generator: Adobe Illustrator 19.0.1, SVG Export Plug-In . SVG Version: 6.00 Build 0)  -->
<svg version="1.1" id="Слой_1" xmlns="http://www.w3.org/2000/svg" xmlns:xlink="http://www.w3.org/1999/xlink" x="0px" y="0px"
	 viewBox="-449 688 100 125" style="enable-background:new -449 688 100 125;" xml:space="preserve">
<path d="M-371.9,700.9c-0.3,2.1-0.5,4.2-0.5,6.4l-1.8,7l-0.4,0.4h-0.9l-0.5-0.4c-0.1-3.6-0.3-5.7-0.5-6.3c-0.3-1.1-1.2-1.8-2.7-2
	c-0.6-0.1-3.2-0.1-7.9-0.1h-5.6c-0.1,1-0.1,4.9-0.1,11.7v23.9c0,6.7,0.2,11,0.5,13c0.1,0.8,0.6,1.3,1.4,1.6c0.4,0.1,2.1,0.3,4.9,0.4
	l0.4,0.4v2.8l-0.4,0.4c-2.8-0.2-7.1-0.3-13-0.3c-6,0-10.3,0.1-12.9,0.3l-0.4-0.4v-2.9l0.4-0.4c2.9-0.2,4.5-0.3,4.9-0.4
	c0.8-0.2,1.3-0.7,1.4-1.6c0.4-2,0.5-6.4,0.5-13v-23.9c0-6.9,0-10.8-0.1-11.7h-6c-5,0-7.9,0.2-8.8,0.5c-0.4,0.2-0.8,0.4-0.9,0.6
	c-0.3,0.4-0.5,1.3-0.6,2.7c-0.2,1.5-0.3,3-0.4,4.6l-0.4,0.4h-0.9l-0.5-0.4l-1.9-7.2c0-2-0.2-4.1-0.5-6.3l0.4-0.4
	c1.7,0.3,7.7,0.4,18.1,0.4h17c9.6,0,15.6-0.1,18.1-0.4L-371.9,700.9z"/>
<polygon points="-379.4,773.1 -379.4,777.3 -369.3,770.2 -379.4,763.1 -379.4,767.3 -428.4,767.3 -428.4,773.1 "/>
</svg>
