<?xml version="1.0" encoding="utf-8"?>
<!-- Generator: Adobe Illustrator 19.0.1, SVG Export Plug-In . SVG Version: 6.00 Build 0)  -->
<svg version="1.1" id="Слой_1" xmlns="http://www.w3.org/2000/svg" xmlns:xlink="http://www.w3.org/1999/xlink" x="0px" y="0px"
	 viewBox="-449 688 100 125" style="enable-background:new -449 688 100 125;" xml:space="preserve">
<path d="M-393.9,747.9c2.3,6.7,7.6,9.9,14.3,9.9h10.8c11.5,0,19.7-8.2,19.7-19.7s-8.2-19.7-19.7-19.7h-10.8c-8,0-11.7,3-14.3,9.9
	h23.9c7.4,0,11.1,4.9,11.1,9.9c0,4.9-3.6,9.9-11.1,9.9L-393.9,747.9L-393.9,747.9z M-404.1,747.9h-23.9c-7.4,0-11.1-4.9-11.1-9.9
	s3.6-9.9,11.1-9.9h23.9c-2.6-6.9-6.4-9.9-14.3-9.9h-10.8c-11.5,0-19.7,8.2-19.7,19.7s8.2,19.7,19.7,19.7h10.8
	C-411.7,757.7-406.5,754.5-404.1,747.9z M-388.6,762.9c-0.5,0.5-2.4,1.8-1,3.2l6.6,6.6c1.3,1.3,2.6-0.3,3.2-1c1.1-1.1,2.1-2,0.9-3.2
	l-6.5-6.5C-386.8,760.5-388,762.3-388.6,762.9z M-409.1,762.9c-1.1-1.1-2-2.2-3.2-0.9l-6.5,6.4c-1.4,1.3,0.3,2.6,0.9,3.3
	c1.1,1.1,2,2.2,3.2,0.9l6.5-6.4C-406.8,764.8-408.4,763.5-409.1,762.9z M-399,765c-1.6,0-3,0-3,1.6v9.2c0,1.6,1.3,1.6,3,1.6
	s3,0,3-1.6v-9.2C-396,765-397.4,765-399,765z M-388.6,713.1c0.7,0.7,1.8,2.3,3.2,0.9l6.5-6.4c1.3-1.3-0.2-2.6-0.9-3.3
	c-1.1-1.1-2-2.2-3.3-0.9l-6.5,6.5C-391,711.3-389,712.7-388.6,713.1z M-409.1,713.1c1.1-1.1,2.2-2,0.9-3.2l-6.4-6.5
	c-1.3-1.4-2.6,0.3-3.3,0.9c-1.1,1.1-2.2,2-0.9,3.2l6.4,6.5C-411,715.4-409.7,713.8-409.1,713.1z M-399,711c1.6,0,3,0,3-1.6v-9.2
	c0-1.6-1.3-1.6-3-1.6s-3,0-3,1.6v9.2C-402,711-400.6,711-399,711z"/>
</svg>
