<?xml version="1.0" encoding="utf-8"?>
<!-- Generator: Adobe Illustrator 19.0.1, SVG Export Plug-In . SVG Version: 6.00 Build 0)  -->
<svg version="1.1" id="Слой_1" xmlns="http://www.w3.org/2000/svg" xmlns:xlink="http://www.w3.org/1999/xlink" x="0px" y="0px"
	 viewBox="-449 725 100 52" style="enable-background:new -449 725 100 52;" xml:space="preserve">
<path d="M-374.5,726h-15.1c-1.3,0-2.6,0.1-3.8,0.3c-0.3,0-0.5,0.1-0.8,0.2c4.6,2.7,8.5,6.6,11,11.3h1.2h8.3
	c7.3,0,13.3,5.9,13.3,13.3c0,7.3-5.9,13.3-13.3,13.3h-9.5h-2h-1.9h0h-3.2c-3.3,0-6.3-1.2-8.6-3.2l0,0c0,0,0,0,0,0
	c-0.5-0.4-0.9-0.8-1.2-1.1c-0.7-0.8-1-1.3-1-1.3c0,0,0,0,0,0c0,0,0,0,0,0c-1.5-2.2-2.4-4.8-2.4-7.6c0-2.7,0.8-5.3,2.3-7.4
	c0-0.1,0.1-0.1,0.1-0.2c-1.7-1.5-4-2.4-6.4-2.4h-5c-1.3,3.1-2.1,6.4-2.1,10c0,3.5,0.7,6.9,2.1,10c0.2,0.6,0.5,1.1,0.8,1.7
	c0.2,0.5,0.5,0.9,0.7,1.3c0,0,0,0.1,0.1,0.1c0,0.1,0.1,0.2,0.1,0.2c2.8,4.5,6.9,8,11.9,10c0.6,0.2,1.2,0.5,1.9,0.7c0,0,0.1,0,0.1,0
	c0.1,0,0.2,0.1,0.3,0.1c0.3,0.1,0.5,0.2,0.8,0.2c0,0,0,0,0,0c2,0.5,4.1,0.8,6.3,0.8h15.1c13.8,0,25-11.2,25-25
	C-349.5,737.2-360.7,726-374.5,726z"/>
<path d="M-423.5,776h15.1c1.3,0,2.6-0.1,3.8-0.3c0.3,0,0.5-0.1,0.8-0.2c-4.6-2.7-8.5-6.6-11-11.3h-1.2h-8.3
	c-7.3,0-13.3-5.9-13.3-13.3c0-7.3,5.9-13.3,13.3-13.3h9.5h2h1.9h0h3.2c3.3,0,6.3,1.2,8.6,3.2l0,0c0,0,0,0,0,0
	c0.5,0.4,0.9,0.8,1.2,1.1c0.7,0.8,1,1.3,1,1.3c0,0,0,0,0,0c0,0,0,0,0,0c1.5,2.2,2.4,4.8,2.4,7.6c0,2.7-0.8,5.3-2.3,7.4
	c0,0.1-0.1,0.1-0.1,0.2c1.7,1.5,4,2.4,6.4,2.4h5c1.3-3.1,2.1-6.4,2.1-10c0-3.5-0.7-6.9-2.1-10c-0.2-0.6-0.5-1.1-0.8-1.7
	c-0.2-0.5-0.5-0.9-0.7-1.3c0,0,0-0.1-0.1-0.1c0-0.1-0.1-0.2-0.1-0.2c-2.8-4.5-6.9-8-11.9-10c-0.6-0.2-1.2-0.5-1.9-0.7
	c0,0-0.1,0-0.1,0c-0.1,0-0.2-0.1-0.3-0.1c-0.3-0.1-0.5-0.2-0.8-0.2c0,0,0,0,0,0c-2-0.5-4.1-0.8-6.3-0.8h-15.1c-13.8,0-25,11.2-25,25
	C-448.5,764.8-437.3,776-423.5,776z"/>
</svg>
