<?xml version="1.0" encoding="utf-8"?>
<!-- Generated by IcoMoon.io -->
<!DOCTYPE svg PUBLIC "-//W3C//DTD SVG 1.1//EN" "http://www.w3.org/Graphics/SVG/1.1/DTD/svg11.dtd">
<svg version="1.1" xmlns="http://www.w3.org/2000/svg" xmlns:xlink="http://www.w3.org/1999/xlink" width="1094" height="1024" viewBox="0 0 1094 1024">
<g id="icomoon-ignore">
</g>
<path d="M32.768 502.784v-191.488q0-55.296 19.456-106.496t56.32-89.088q36.864-39.936 86.016-61.44t103.424-21.504 104.448 21.504 84.992 61.44 56.32 89.088 20.48 106.496v151.552h462.848q14.336 0 24.576 10.24t10.24 25.6v402.432q0 9.216-5.12 15.36t-11.264 9.216-18.432 9.216q-11.264 5.12-35.84 12.288t-67.584 18.432-100.352 18.432-113.664 8.192q-158.72 0-317.44-57.344-17.408-6.144-26.624-13.312t-9.216-20.48v-402.432q0-15.36 10.24-25.6t25.6-10.24h46.080v-151.552q0-63.488-41.984-109.568-40.96-43.008-98.304-43.008t-97.28 43.008q-41.984 46.080-41.984 109.568v47.104l-61.44 73.728h61.44v70.656l-60.416 46.080z"></path>
</svg>
