<?xml version="1.0" encoding="utf-8"?>
<!-- Generated by IcoMoon.io -->
<!DOCTYPE svg PUBLIC "-//W3C//DTD SVG 1.1//EN" "http://www.w3.org/Graphics/SVG/1.1/DTD/svg11.dtd">
<svg version="1.1" xmlns="http://www.w3.org/2000/svg" xmlns:xlink="http://www.w3.org/1999/xlink" width="706" height="1024" viewBox="0 0 706 1024">
<g id="icomoon-ignore">
</g>
<path d="M-0.567 901.12v-402.432q0-14.336 10.24-24.576t25.6-9.216h459.776v-152.576q0-64.512-43.008-110.592-43.008-43.008-99.328-43.008t-100.352 43.008q-41.984 45.056-41.984 110.592v38.912h-129.024v-38.912q0-56.32 20.48-106.496t57.344-90.112q36.864-38.912 87.040-61.44t106.496-21.504 106.496 21.504 86.016 61.44q37.888 38.912 58.368 90.112t20.48 106.496v152.576h46.080q15.36 0 25.6 9.216t10.24 24.576v402.432q0 13.312-8.192 19.456t-27.648 14.336q-10.24 5.12-35.84 12.288t-67.584 19.456-100.352 17.408-113.664 8.192q-158.72 0-317.44-57.344-17.408-5.12-26.624-13.312t-9.216-20.48zM190.921 726.016q0 12.288 8.192 21.504l88.064 84.992q8.192 8.192 20.48 8.192 13.312 0 21.504-8.192l179.2-175.104q9.216-9.216 9.216-21.504t-9.216-21.504q-8.192-8.192-21.504-8.192t-20.48 8.192l-158.72 155.648-65.536-64.512q-9.216-9.216-21.504-9.216t-21.504 9.216q-8.192 8.192-8.192 20.48z"></path>
</svg>
