<?xml version="1.0" encoding="utf-8"?>
<!-- Generated by IcoMoon.io -->
<!DOCTYPE svg PUBLIC "-//W3C//DTD SVG 1.1//EN" "http://www.w3.org/Graphics/SVG/1.1/DTD/svg11.dtd">
<svg version="1.1" xmlns="http://www.w3.org/2000/svg" xmlns:xlink="http://www.w3.org/1999/xlink" width="706" height="1024" viewBox="0 0 706 1024">
<g id="icomoon-ignore">
</g>
<path d="M0 901.12v-402.432q0-15.36 10.24-25.6t24.576-10.24h47.104v-151.552q0-55.296 20.48-106.496t57.344-89.088q36.864-39.936 87.040-61.44t106.496-21.504q55.296 0 105.472 21.504t87.040 61.44q36.864 38.912 57.344 89.088t20.48 106.496v151.552h47.104q14.336 0 24.576 10.24t10.24 25.6v402.432q0 7.168-3.072 12.288t-7.168 8.192-10.24 7.168-14.336 6.144q-19.456 8.192-54.272 18.432t-113.664 24.576-150.528 14.336q-154.624 0-317.44-57.344-16.384-6.144-25.6-13.312t-9.216-20.48zM210.944 462.848h283.648v-151.552q0-64.512-43.008-109.568-40.96-43.008-98.304-44.032-59.392 1.024-100.352 44.032-41.984 45.056-41.984 109.568v151.552z"></path>
</svg>
