<?xml version="1.0" encoding="utf-8"?>
<!-- Generator: Adobe Illustrator 19.0.1, SVG Export Plug-In . SVG Version: 6.00 Build 0)  -->
<svg version="1.1" id="Слой_1" xmlns="http://www.w3.org/2000/svg" xmlns:xlink="http://www.w3.org/1999/xlink" x="0px" y="0px"
	 viewBox="-449 688 100 125" style="enable-background:new -449 688 100 125;" xml:space="preserve">
<g>
	<path d="M-419.6,750.4l-13.2,25.4c-0.4,0.8-0.1,1.8,0.7,2.2c0.5,0.3,1.2,0.2,1.7-0.1l12.2-9.1c0.1-0.1,0.2-0.2,0.4-0.2
		c0.8-0.3,1.8,0.1,2.1,0.9l5.7,14.1c0.3,0.8,1.3,1.2,2.1,0.9c0.6-0.2,1-0.8,1-1.4l1.8-26.1l-1.6-1.3l-8.2,1.2
		c-1.1,0.2-2.2-0.5-2.6-1.5L-419.6,750.4z"/>
</g>
<path d="M-373.6,726.1c0,14-11.4,25.4-25.4,25.4c-14,0-25.3-11.4-25.3-25.4c0-14,11.3-25.3,25.3-25.3
	C-384.9,700.7-373.6,712.1-373.6,726.1L-373.6,726.1z M-416.5,697.1l-3,7.7c-0.1,0.3-0.4,0.6-0.7,0.7l-7.7,3
	c-0.5,0.2-0.8,0.7-0.7,1.3l1.2,8.2c0,0.3,0,0.7-0.2,0.9l-5.2,6.5c-0.3,0.4-0.3,1,0,1.5l5.2,6.5c0.2,0.3,0.3,0.6,0.2,0.9l-1.2,8.2
	c-0.1,0.5,0.2,1.1,0.7,1.3l7.7,3c0.3,0.1,0.6,0.4,0.7,0.7l3,7.7c0.2,0.5,0.7,0.8,1.3,0.7l8.2-1.2c0.3-0.1,0.7,0,0.9,0.2l6.5,5.2
	c0.4,0.3,1,0.3,1.5,0l6.5-5.2c0.3-0.2,0.6-0.3,0.9-0.2l8.2,1.2c0.5,0.1,1.1-0.2,1.3-0.7l3-7.7c0.1-0.3,0.4-0.5,0.7-0.7l7.7-3
	c0.5-0.2,0.8-0.7,0.7-1.3l-1.2-8.2c-0.1-0.3,0-0.7,0.2-0.9l5.2-6.5c0.3-0.4,0.3-1.1,0-1.5l-5.2-6.5c-0.2-0.3-0.3-0.6-0.2-0.9
	l1.2-8.2c0.1-0.5-0.2-1.1-0.7-1.3l-7.7-3c-0.3-0.1-0.5-0.4-0.7-0.7l-3-7.7c-0.2-0.5-0.7-0.8-1.3-0.7l-8.2,1.2
	c-0.3,0.1-0.7,0-0.9-0.2l-6.5-5.2c-0.4-0.3-1-0.3-1.5,0l-6.5,5.2c-0.3,0.2-0.6,0.3-0.9,0.2l-8.2-1.2
	C-415.8,696.3-416.3,696.6-416.5,697.1z"/>
<g>
	<path d="M-392.6,757l1.6-1.3l8.2,1.2c1.1,0.2,2.2-0.5,2.6-1.5l2-5.1l13.2,25.4c0.3,0.5,0.2,1.2-0.1,1.7c-0.5,0.7-1.5,0.8-2.2,0.3
		l-12.2-9.1c-0.7-0.5-1.7-0.4-2.2,0.3c-0.1,0.1-0.1,0.2-0.2,0.4l-5.7,14.1c-0.2,0.6-0.8,1-1.4,1c-0.9,0.1-1.6-0.6-1.7-1.5
		L-392.6,757z"/>
</g>
</svg>
