<?xml version="1.0" encoding="utf-8"?>
<!-- Generator: Adobe Illustrator 19.0.1, SVG Export Plug-In . SVG Version: 6.00 Build 0)  -->
<svg version="1.1" id="Слой_1" xmlns="http://www.w3.org/2000/svg" xmlns:xlink="http://www.w3.org/1999/xlink" x="0px" y="0px"
	 viewBox="-449 688 100 125" style="enable-background:new -449 688 100 125;" xml:space="preserve">
<path d="M-366.9,708.1H-383v-9.5c0-2-1.6-3.7-3.7-3.7h-19.7c-5.6,0-10.2,4.6-10.2,10.2v16.1h-22.7c-2,0-3.7,1.6-3.7,3.7v39.5
	c0,2,1.6,3.7,3.7,3.7h2.9v9.5c0,1.5,0.9,2.8,2.3,3.4c0.5,0.2,0.9,0.3,1.4,0.3c1,0,1.9-0.4,2.6-1.1l12.1-12.1h51.2
	c5.6,0,10.2-4.6,10.2-10.2v-39.6C-356.6,712.7-361.2,708.1-366.9,708.1z M-406.4,702.2h16.1v5.9h-16.1c-1.6,0-2.9-1.3-2.9-2.9
	C-409.3,703.6-408,702.2-406.4,702.2z M-363.9,757.8c0,1.6-1.3,2.9-2.9,2.9h-52.7c-1,0-1.9,0.4-2.6,1.1l-6.9,6.9v-4.3
	c0-2-1.6-3.7-3.7-3.7h-2.9v-32.1h68.8c1,0,2-0.1,2.9-0.4C-363.9,728.2-363.9,757.8-363.9,757.8z M-366.9,721.2h-42.4V715
	c0.9,0.3,1.9,0.4,2.9,0.4h39.5c1.6,0,2.9,1.3,2.9,2.9C-363.9,719.9-365.2,721.2-366.9,721.2z"/>
</svg>
