<?xml version="1.0" encoding="utf-8"?>
<!-- Generator: Adobe Illustrator 19.0.1, SVG Export Plug-In . SVG Version: 6.00 Build 0)  -->
<svg version="1.1" id="Слой_1" xmlns="http://www.w3.org/2000/svg" xmlns:xlink="http://www.w3.org/1999/xlink" x="0px" y="0px"
	 viewBox="-449 688 100 125" style="enable-background:new -449 688 100 125;" xml:space="preserve">
<path d="M-365.3,731.8c0.1-0.5,0.1-0.9,0.1-1.4c0-5.3-3.6-9.8-8.4-11.2c-1.6-6.5-7.5-11.2-14.3-11.2c-4.4,0-8.4,2-11.1,5.1
	c-2.7-3.1-6.7-5.1-11.1-5.1c-6.8,0-12.7,4.7-14.3,11.2c-4.8,1.4-8.4,5.9-8.4,11.1c0,0.5,0,1,0.1,1.4c-5.4,1-9.4,5.8-9.4,11.4
	c0,4.6,2.6,8.6,6.6,10.5v10.6c0,1.5,0.9,2.8,2.3,3.4c0.5,0.2,0.9,0.3,1.4,0.3c1,0,1.9-0.4,2.6-1.1l12.1-12.1l51.1-0.1
	c0.2,0,0.4,0,0.6-0.1c5.6-1,9.6-5.8,9.6-11.4C-355.8,737.6-359.9,732.8-365.3,731.8z M-418.8,747.5c-1,0-1.9,0.4-2.6,1.1l-6.9,6.9
	v-4.4c0-1.8-1.3-3.3-3-3.6c-2.1-0.4-3.6-2.1-3.6-4.2c0-2.4,1.9-4.3,4.3-4.3c0.9,0,1.5,0.2,2.1,0.5c0.4,0.3,0.7,0.6,1.1,0.8
	c1.6,1,3.8,0.6,4.9-1c1.1-1.6,0.9-3.7-0.6-4.9c-0.4-0.3-0.7-0.6-1.1-0.8c-0.9-0.8-1.4-1.9-1.4-3.1c0-2.4,1.9-4.3,4.3-4.3
	c1.3,0,2.2,0.6,2.8,1c1.5,1.3,3.8,1.1,5.2-0.4c1.3-1.5,1.1-3.8-0.4-5.2c-0.9-0.8-2-1.4-3.2-1.9c1.2-2.6,3.8-4.3,6.8-4.3
	c4.1,0,7.4,3.3,7.4,7.4v24.7H-418.8z M-366.5,747.4l-28.9,0.1v-24.7c0-4.1,3.3-7.4,7.4-7.4c3,0,5.6,1.7,6.8,4.3
	c-1.1,0.5-2.2,1.1-3.2,1.9c-1.5,1.3-1.7,3.6-0.4,5.2c1.3,1.5,3.6,1.7,5.2,0.4c0.5-0.5,1.5-1,2.8-1c2.4,0,4.3,1.9,4.3,4.3
	c0,1.2-0.5,2.3-1.3,3.1c-0.4,0.3-0.8,0.5-1.1,0.8c-1,0.8-1.4,2.1-1.2,3.4c0.2,1.3,1,2.3,2.2,2.8c1.1,0.5,2.3,0.4,3.3-0.3
	c0.4-0.3,0.8-0.5,1.2-0.8c0.5-0.3,1.2-0.5,2.1-0.5c2.4,0,4.3,1.9,4.3,4.3C-363.2,745.2-364.5,746.9-366.5,747.4z"/>
</svg>
