<?xml version="1.0" encoding="utf-8"?>
<!-- Generator: Adobe Illustrator 19.0.1, SVG Export Plug-In . SVG Version: 6.00 Build 0)  -->
<svg version="1.1" id="Слой_1" xmlns="http://www.w3.org/2000/svg" xmlns:xlink="http://www.w3.org/1999/xlink" x="0px" y="0px"
	 viewBox="-449 688 100 125" style="enable-background:new -449 688 100 125;" xml:space="preserve">
<path d="M-359.5,708h-79c-2,0-3.7,1.6-3.7,3.7v39.5c0,2,1.6,3.7,3.7,3.7h2.9v9.5c0,1.5,0.9,2.8,2.3,3.4c0.5,0.2,0.9,0.3,1.4,0.3
	c1,0,1.9-0.4,2.6-1.1l12.1-12.1h57.7c2,0,3.7-1.6,3.7-3.7v-39.5C-355.8,709.6-357.5,708-359.5,708z M-363.2,727.8h-12.4v-12.5h12.4
	V727.8z M-415.1,727.8v-12.5h32.2v12.4L-415.1,727.8L-415.1,727.8z M-422.4,715.3v12.4h-12.4v-12.4H-422.4z M-418.8,747.5
	c-1,0-1.9,0.4-2.6,1.1l-6.9,6.9v-4.3c0-2-1.6-3.7-3.7-3.7h-2.9v-12.4h32.2v12.4H-418.8z M-395.3,747.5v-12.4h32.2v12.4H-395.3z"/>
</svg>
