<?xml version="1.0" encoding="utf-8"?>
<!-- Generator: Adobe Illustrator 19.0.1, SVG Export Plug-In . SVG Version: 6.00 Build 0)  -->
<svg version="1.1" id="Слой_1" xmlns="http://www.w3.org/2000/svg" xmlns:xlink="http://www.w3.org/1999/xlink" x="0px" y="0px"
	 viewBox="-449 688 100 125" style="enable-background:new -449 688 100 125;" xml:space="preserve">
<path d="M-438.5,754.8h2.9v9.5c0,1.5,0.9,2.8,2.3,3.4c0.5,0.2,0.9,0.3,1.4,0.3c1,0,1.9-0.4,2.6-1.1l12.1-12.1h57.7
	c2,0,3.7-1.6,3.7-3.7v-39.4c0-2-1.6-3.7-3.7-3.7h-59.3h-0.1l-7.6,0.2c-0.8,0-1.6,0.3-2.2,0.8l-12.1,9.8c-0.9,0.7-1.4,1.7-1.4,2.9
	c0,1.1,0.5,2.2,1.4,2.9l4.1,3.2h-1.8c-2,0-3.7,1.6-3.7,3.7v19.8C-442.2,753.2-440.5,754.8-438.5,754.8z M-434.8,735.1h8.5
	c0,0,0,0,0.1,0h47c2,0,3.7-1.6,3.7-3.7c0-2-1.6-3.7-3.7-3.7H-425l-7.6-6.1l7.7-6.1l6.3-0.2h55.5v32.2h-55.7c-1,0-1.9,0.4-2.6,1.1
	l-6.9,6.9v-4.3c0-2-1.6-3.7-3.7-3.7h-2.9v-12.4H-434.8z"/>
</svg>
