<?xml version="1.0" encoding="utf-8"?>
<!-- Generator: Adobe Illustrator 19.0.1, SVG Export Plug-In . SVG Version: 6.00 Build 0)  -->
<svg version="1.1" id="Слой_1" xmlns="http://www.w3.org/2000/svg" xmlns:xlink="http://www.w3.org/1999/xlink" x="0px" y="0px"
	 viewBox="-449 688 100 125" style="enable-background:new -449 688 100 125;" xml:space="preserve">
<path d="M-359.5,708h-79c-2,0-3.7,1.6-3.7,3.7v39.5c0,2,1.6,3.7,3.7,3.7h2.9v9.5c0,1.5,0.9,2.8,2.3,3.4c0.5,0.2,0.9,0.3,1.4,0.3
	c1,0,1.9-0.4,2.6-1.1l12.1-12.1h11.7c4.9,0,9.4-1.5,13.2-4.1c3.9,2.6,8.4,4.1,13.2,4.1c12.9,0,23.4-10.5,23.4-23.4v-19.8
	C-355.8,709.6-357.5,708-359.5,708z M-363.2,731.4c0,8.9-7.2,16.1-16.1,16.1c-2.7,0-5.3-0.7-7.7-2c3-3.9,4.8-8.8,4.8-14.1
	c0-2.7-0.4-5.3-1.3-7.8c-0.7-1.9-2.8-2.9-4.7-2.2c-1.9,0.7-2.9,2.8-2.2,4.7c0.6,1.7,0.9,3.5,0.9,5.4c0,8.9-7.2,16.1-16.1,16.1h-13.2
	c-1,0-1.9,0.4-2.6,1.1l-6.9,6.9v-4.3c0-2-1.6-3.7-3.7-3.7h-2.9v-32.3h71.7C-363.2,715.3-363.2,731.4-363.2,731.4z"/>
</svg>
