<?xml version="1.0" encoding="utf-8"?>
<!-- Generator: Adobe Illustrator 22.0.1, SVG Export Plug-In . SVG Version: 6.00 Build 0)  -->
<svg version="1.1" id="Слой_1" xmlns="http://www.w3.org/2000/svg" xmlns:xlink="http://www.w3.org/1999/xlink" x="0px" y="0px"
	 viewBox="0 0 100 100" style="enable-background:new 0 0 100 100;" xml:space="preserve">
<path d="M70.2,43.3c0.2,0.1,0.5,0.1,0.7,0.1c0.5,0,1.1-0.2,1.4-0.6l9.3-9.3h13c3.1,0,5.5-2.4,5.5-5.5V8.4c0-3.1-2.4-5.5-5.5-5.5
	H47.1c-3.1,0-5.5,2.4-5.5,5.5v19.7c0,0.5,0.1,1.2,0.2,1.7H5.5c-3.1,0-5.5,2.4-5.5,5.5V55c0,3.1,2.4,5.5,5.5,5.5h13l9.3,9.3
	c0.4,0.4,0.8,0.6,1.4,0.6c0.2,0,0.5,0,0.7-0.1c0.7-0.3,1.3-1.1,1.3-1.9v-7.9h10.7c-0.1,0.4-0.2,0.9-0.2,1.5v19.7
	c0,3.1,2.4,5.5,5.5,5.5h21.7V95c0,0.8,0.5,1.6,1.3,1.9c0.2,0.1,0.5,0.1,0.7,0.1c0.5,0,1.1-0.2,1.4-0.6l9.3-9.3h13
	c3.1,0,5.5-2.4,5.5-5.5V62c0-3.1-2.4-5.5-5.5-5.5H58.2c0.1-0.5,0.2-0.9,0.2-1.5V35.2c0-0.5-0.1-1.2-0.2-1.7h10.7v8
	C68.9,42.3,69.4,43,70.2,43.3z M96.1,62v19.7c0,0.8-0.6,1.5-1.5,1.5H80.8c-0.5,0-1.1,0.2-1.4,0.6L73,90.2v-5.1c0-1.1-0.9-2-2-2H47.2
	c-0.8,0-1.5-0.6-1.5-1.5V62c0-0.7,0.6-1.5,1.4-1.5h5.8c0.1,0,0.1,0,0.2,0h41.5C95.5,60.4,96.1,61.1,96.1,62z M47.2,56.4
	c-0.1,0-0.1,0-0.2,0H29.2c-1.1,0-2,0.9-2,2v5.1L20.8,57c-0.4-0.4-0.8-0.6-1.4-0.6H5.5c-0.8,0-1.5-0.6-1.5-1.5V35.2
	c0-0.8,0.6-1.5,1.5-1.5h47.4c0.8,0,1.5,0.6,1.5,1.5v19.7c0,0.8-0.6,1.5-1.4,1.5C53,56.4,47.2,56.4,47.2,56.4z M47.2,29.6
	c-0.8,0-1.5-0.6-1.5-1.5V8.4c0-0.8,0.6-1.5,1.5-1.5h47.4c0.8,0,1.5,0.6,1.5,1.5v19.7c0,0.8-0.6,1.5-1.5,1.5H80.8
	c-0.5,0-1.1,0.2-1.4,0.6L73,36.7v-5.1c0-1.1-0.9-2-2-2C70.9,29.6,47.2,29.6,47.2,29.6z"/>
<path d="M52.8,16.7h36.1c1.1,0,2-0.9,2-2s-0.9-2-2-2H52.8c-1.1,0-2,0.9-2,2C50.8,15.7,51.7,16.7,52.8,16.7z"/>
<path d="M90.9,22.9c0-1.1-0.9-2-2-2H52.8c-1.1,0-2,0.9-2,2c0,1.1,0.9,2,2,2h36.1C90.1,24.9,90.9,23.9,90.9,22.9z"/>
<path d="M52.8,66.2c-1.1,0-2,0.9-2,2s0.9,2,2,2h36.1c1.1,0,2-0.9,2-2s-0.9-2-2-2H52.8z"/>
<path d="M88.9,74.4H52.8c-1.1,0-2,0.9-2,2c0,1.1,0.9,2,2,2h36.1c1.1,0,2-0.9,2-2C90.9,75.3,90.1,74.4,88.9,74.4z"/>
<path d="M47.3,39.5H11.1c-1.1,0-2,0.9-2,2s0.9,2,2,2h36.1c1.1,0,2-0.9,2-2C49.3,40.4,48.4,39.5,47.3,39.5z"/>
<path d="M47.3,47.6H11.1c-1.1,0-2,0.9-2,2s0.9,2,2,2h36.1c1.1,0,2-0.9,2-2C49.3,48.6,48.4,47.6,47.3,47.6z"/>
</svg>
