<?xml version="1.0" encoding="utf-8"?>
<!-- Generator: Adobe Illustrator 19.0.1, SVG Export Plug-In . SVG Version: 6.00 Build 0)  -->
<svg version="1.1" id="Слой_1" xmlns="http://www.w3.org/2000/svg" xmlns:xlink="http://www.w3.org/1999/xlink" x="0px" y="0px"
	 viewBox="-449 688 100 125" style="enable-background:new -449 688 100 125;" xml:space="preserve">
<path d="M-442.1,751.9c0,0.1,0.1,0.2,0.1,0.3c0,0.1,0.1,0.3,0.1,0.4c0,0.1,0.1,0.2,0.2,0.3c0.1,0.1,0.1,0.2,0.2,0.3
	c0.1,0.2,0.3,0.4,0.4,0.5l0,0l0,0c0.2,0.2,0.3,0.3,0.5,0.4c0.1,0.1,0.2,0.1,0.3,0.2c0.1,0.1,0.2,0.1,0.3,0.2s0.2,0.1,0.4,0.1
	c0.1,0,0.2,0.1,0.3,0.1c0.2,0,0.5,0.1,0.7,0.1h2.9v9.5c0,1.5,0.9,2.8,2.3,3.4c0.5,0.2,0.9,0.3,1.4,0.3c1,0,1.9-0.4,2.6-1.1
	l12.1-12.1h57.7c0.2,0,0.5,0,0.7-0.1c0.1,0,0.2-0.1,0.3-0.1s0.3-0.1,0.4-0.1c0.1-0.1,0.2-0.1,0.3-0.2c0.1-0.1,0.2-0.1,0.3-0.2
	c0.2-0.1,0.4-0.3,0.5-0.4l0,0l0,0c0.2-0.2,0.3-0.3,0.4-0.5c0.1-0.1,0.1-0.2,0.2-0.3c0.1-0.1,0.1-0.2,0.2-0.3
	c0.1-0.1,0.1-0.3,0.1-0.4c0-0.1,0.1-0.2,0.1-0.3c0-0.2,0.1-0.5,0.1-0.7v-39.5c0-0.2,0-0.5-0.1-0.7c0-0.1-0.1-0.2-0.1-0.3
	c0-0.1-0.1-0.3-0.1-0.4c0-0.1-0.1-0.2-0.2-0.3c-0.1-0.1-0.1-0.2-0.2-0.3c-0.1-0.2-0.3-0.4-0.4-0.5l0,0l0,0c-0.2-0.2-0.3-0.3-0.5-0.4
	c-0.1-0.1-0.2-0.1-0.3-0.2c-0.1-0.1-0.2-0.1-0.3-0.2c-0.1,0-0.2-0.1-0.4-0.1c-0.1,0-0.2-0.1-0.3-0.1c-0.1-0.2-0.3-0.2-0.6-0.2l0,0
	h-79l0,0c-0.2,0-0.5,0-0.7,0.1c-0.1,0-0.2,0.1-0.3,0.1s-0.2,0.1-0.4,0.1c-0.1,0.1-0.2,0.1-0.3,0.2c-0.1,0.1-0.2,0.1-0.3,0.2
	c-0.2,0.1-0.4,0.3-0.5,0.4l0,0l0,0c-0.2,0.2-0.3,0.3-0.4,0.5c-0.1,0.1-0.1,0.2-0.2,0.3c-0.1,0.1-0.1,0.2-0.2,0.3
	c-0.1,0.2-0.2,0.3-0.2,0.4c0,0.1-0.1,0.2-0.1,0.3c0,0.2-0.1,0.5-0.1,0.7v39.5C-442.2,751.4-442.1,751.6-442.1,751.9z M-369,736.5
	v-10.2l5.9-5.9v21.8L-369,736.5z M-421.7,734.3v-5.9h45.4v5.9H-421.7z M-374.2,721.2h-49.6l-5.9-5.9h61.3L-374.2,721.2z M-429,726.3
	v10.1l-5.9,5.9v-21.8L-429,726.3z M-418.8,747.5c-1,0-1.9,0.4-2.6,1.1l-6.9,6.9v-4.3c0-1.4-0.8-2.6-1.9-3.2l6.3-6.3h49.6l5.9,5.9
	L-418.8,747.5L-418.8,747.5z"/>
</svg>
