<?xml version="1.0" encoding="utf-8"?>
<!-- Generator: Adobe Illustrator 19.0.1, SVG Export Plug-In . SVG Version: 6.00 Build 0)  -->
<svg version="1.1" id="Слой_1" xmlns="http://www.w3.org/2000/svg" xmlns:xlink="http://www.w3.org/1999/xlink" x="0px" y="0px"
	 viewBox="-449 688 100 125" style="enable-background:new -449 688 100 125;" xml:space="preserve">
<path d="M-379.2,754.8c2,0,3.7-1.6,3.7-3.7c0-2-1.6-3.7-3.7-3.7h-6.6c-2,0-3.7,1.6-3.7,3.7c0,2,1.6,3.7,3.7,3.7H-379.2z"/>
<path d="M-359.5,740.9c-2,0-3.7,1.6-3.7,3.7v2.9h-2.9c-2,0-3.7,1.6-3.7,3.7c0,2,1.6,3.7,3.7,3.7h6.6c2,0,3.7-1.6,3.7-3.7v-6.6
	C-355.8,742.6-357.5,740.9-359.5,740.9z"/>
<path d="M-359.5,708h-79c-2,0-3.7,1.6-3.7,3.7v39.5c0,2,1.6,3.7,3.7,3.7h2.9v9.5c0,1.5,0.9,2.8,2.3,3.4c0.5,0.2,0.9,0.3,1.4,0.3
	c1,0,1.9-0.4,2.6-1.1l12.1-12.1h18.2c2,0,3.7-1.6,3.7-3.7c0-2-1.6-3.7-3.7-3.7h-19.8c-1,0-1.9,0.4-2.6,1.1l-6.9,6.9v-4.3
	c0-2-1.6-3.7-3.7-3.7h-2.9v-32.2h71.7v16.1c0,2,1.6,3.7,3.7,3.7c2,0,3.7-1.6,3.7-3.7v-19.7C-355.8,709.6-357.5,708-359.5,708z"/>
</svg>
