<?xml version="1.0" encoding="utf-8"?>
<!-- Generator: Adobe Illustrator 19.0.1, SVG Export Plug-In . SVG Version: 6.00 Build 0)  -->
<svg version="1.1" id="Слой_1" xmlns:sketch="http://www.bohemiancoding.com/sketch/ns"
	 xmlns="http://www.w3.org/2000/svg" xmlns:xlink="http://www.w3.org/1999/xlink" x="0px" y="0px" viewBox="-484 732.5 30 37.5"
	 style="enable-background:new -484 732.5 30 37.5;" xml:space="preserve">
<title>chat_019-message_thread-conversation-bubble-talk</title>
<desc>Created with Sketch.</desc>
<g sketch:type="MSPage">
	<g transform="translate(-405.000000, -90.000000)" sketch:type="MSArtboardGroup">
		<g id="XMLID_1_">
			<g>
				<path d="M-52,833.5v-6h-24v6h5.5c0.3,0,0.5,0.2,0.5,0.5v3l3.1-3.3c0.1-0.1,0.2-0.2,0.4-0.2H-52z M-51,827v7
					c0,0.3-0.2,0.5-0.5,0.5h-14.8l-2.2,2.3l-1.7,1.8c-0.3,0.3-0.9,0.1-0.9-0.3v-1.7v-2h-5.5c-0.3,0-0.5-0.2-0.5-0.5v-7
					c0-0.3,0.2-0.5,0.5-0.5h25C-51.2,826.5-51,826.7-51,827z"/>
				<path d="M-51,837v7c0,0.3-0.2,0.5-0.5,0.5H-57v3.7c0,0.5-0.5,0.7-0.9,0.3l-3.9-4.1h-14.8c-0.3,0-0.5-0.2-0.5-0.5v-7
					c0-0.3,0.2-0.5,0.5-0.5h4.5v1h-4v6h14.5c0.1,0,0.3,0.1,0.4,0.2l3.1,3.3v-3c0-0.3,0.2-0.5,0.5-0.5h5.5v-6h-15.8l1-1h15.3
					C-51.2,836.5-51,836.7-51,837z"/>
			</g>
		</g>
	</g>
</g>
</svg>
