<?xml version="1.0" encoding="utf-8"?>
<!-- Generator: Adobe Illustrator 19.0.1, SVG Export Plug-In . SVG Version: 6.00 Build 0)  -->
<svg version="1.1" id="Слой_1" xmlns="http://www.w3.org/2000/svg" xmlns:xlink="http://www.w3.org/1999/xlink" x="0px" y="0px"
	 viewBox="-449 688 100 125" style="enable-background:new -449 688 100 125;" xml:space="preserve">
<path d="M-359.5,708h-79c-2,0-3.7,1.6-3.7,3.7v39.5c0,2,1.6,3.7,3.7,3.7h2.9v9.5c0,1.5,0.9,2.8,2.3,3.4c0.5,0.2,0.9,0.3,1.4,0.3
	c1,0,1.9-0.4,2.6-1.1l12.1-12.1h57.7c2,0,3.7-1.6,3.7-3.7v-6.6V738v-26.3C-355.8,709.6-357.5,708-359.5,708z M-363.2,729.2l-0.3-0.3
	c-1.4-1.4-3.7-1.4-5.2,0l-4,4l-2.9-2.9v-5.1c0-1-0.4-1.9-1.1-2.6l-5.5-5.5v-1.4h19V729.2z M-363.2,747.5h-25.6v-2.9
	c0-1-0.4-1.9-1.1-2.6l-4-4l4-4c1.4-1.4,1.4-3.7,0-5.2c-1.4-1.4-3.7-1.4-5.2,0l-6.6,6.6c-1.4,1.4-1.4,3.7,0,5.2l5.5,5.5v1.4h-22.6
	c-1,0-1.9,0.4-2.6,1.1l-6.9,6.9v-4.3c0-2-1.6-3.7-3.7-3.7h-2.9v-32.2h8l2.9,2.9l-4,4c-0.7,0.7-1.1,1.6-1.1,2.6v6.6
	c0,2,1.6,3.7,3.7,3.7s3.7-1.6,3.7-3.7v-5.1l5.5-5.5c1.4-1.4,1.4-3.7,0-5.2l-0.3-0.3h27v2.9c0,1,0.4,1.9,1.1,2.6l5.5,5.5v5.1
	c0,1,0.4,1.9,1.1,2.6l6.6,6.6c1.4,1.4,3.7,1.4,5.2,0l4-4l2.9,2.9v5.1v2.9H-363.2z"/>
</svg>
