<?xml version="1.0" encoding="utf-8"?>
<!-- Generator: Adobe Illustrator 19.0.1, SVG Export Plug-In . SVG Version: 6.00 Build 0)  -->
<svg version="1.1" id="Слой_1" xmlns="http://www.w3.org/2000/svg" xmlns:xlink="http://www.w3.org/1999/xlink" x="0px" y="0px"
	 viewBox="-449 688 100 125" style="enable-background:new -449 688 100 125;" xml:space="preserve">
<path d="M-359.5,721.2h-32.9c-1.6,0-2.9-1.3-2.9-2.9l0,0l0,0c0-5.6-4.6-10.2-10.2-10.2h-33c-2,0-3.7,1.6-3.7,3.7v39.5
	c0,2,1.6,3.7,3.7,3.7h2.9v9.5c0,1.5,0.9,2.8,2.3,3.4c0.5,0.2,0.9,0.3,1.4,0.3c1,0,1.9-0.4,2.6-1.1l12.1-12.1h11.7
	c1.6,0,2.9,1.3,2.9,2.9c0,5.6,4.6,10.2,10.2,10.2h32.9c2,0,3.7-1.6,3.7-3.7v-39.6C-355.8,722.8-357.5,721.2-359.5,721.2z
	 M-405.6,747.5h-13.2c-1,0-1.9,0.4-2.6,1.1l-6.9,6.9v-4.3c0-2-1.6-3.7-3.7-3.7h-2.9v-32.2h29.3c1.6,0,2.9,1.3,2.9,2.9l0,0v29.7
	C-403.6,747.7-404.6,747.5-405.6,747.5z M-363.2,760.7h-29.2c-1.6,0-2.9-1.3-2.9-2.9l0,0v-29.7c0.9,0.3,1.9,0.4,2.9,0.4h29.3v32.2
	H-363.2z"/>
</svg>
