<?xml version="1.0" encoding="utf-8"?>
<!-- Generator: Adobe Illustrator 19.0.1, SVG Export Plug-In . SVG Version: 6.00 Build 0)  -->
<svg version="1.1" id="Слой_1" xmlns="http://www.w3.org/2000/svg" xmlns:xlink="http://www.w3.org/1999/xlink" x="0px" y="0px"
	 viewBox="-449 688 100 125" style="enable-background:new -449 688 100 125;" xml:space="preserve">
<path d="M-425.3,729.2c-1.4,0-2.6,0.1-3.7,0c-12.6-1.4-18.9-14.6-12.1-25.3c4.5-7.1,13.2-10.5,21.1-8.3c9,2.5,13.8,11.3,11.1,20.2
	c-0.2,0.7-0.4,1.3-0.7,2.2c7-2.2,13.8-2,20.8,0.4c-0.1-0.4-0.1-0.5-0.2-0.7c-2.4-6.1-2-11.9,2.4-17c4.4-5.1,10.1-6.6,16.6-5.4
	c7.6,1.4,13.8,7.6,15.1,14.8c1.8,9.9-5.3,18.7-15.5,19.1c-1.1,0-2.3,0-3.6,0c5.3,7.7,7.5,16.1,5.8,25.3c-1.8,9.3-6.7,16.5-14.7,21.4
	c-12.6,7.8-28.9,5.8-39.3-4.4C-432.1,761.8-435.9,744.3-425.3,729.2z M-417.8,754.4c-1.1-0.8-2-1.5-3-2.1c-1.9-1.1-3.8-1.5-6-0.9
	c-1.3,0.4-1.7,1-1.4,2.4c1.5,7.2,4.9,13.2,10.8,17.7c17.4,13.5,42.4,3.8,46.5-17.9c0.2-1.2-0.2-1.7-1.3-2.1
	c-2.4-0.8-4.6-0.2-6.7,1.1c-0.9,0.6-1.7,1.2-2.7,1.9c0.4-2.4,0.9-4.5,1.2-6.7c0.6-4.5,0.9-8.9-0.7-13.2c-1.2-3.3-3.5-5.2-7.1-5.4
	c-3.4-0.2-6.6,0.8-9.6,2.2c-1.2,0.6-2.2,0.6-3.5,0c-1.9-0.8-3.9-1.5-5.9-1.9c-6.2-1.4-10.3,1.2-11.5,7.5c-0.5,2.6-0.5,5.4-0.4,8
	C-418.9,748.1-418.2,751.2-417.8,754.4z"/>
<path d="M-403.7,747.3c-0.5,1.4-0.8,3-1.5,4.3c-1.2,2.1-3.3,2.2-4.9,0.5c-2.3-2.4-2.7-7.7-0.7-10.4c1.3-1.8,3.2-1.9,4.8-0.3
	C-404.5,743-404,745.1-403.7,747.3z"/>
<path d="M-387.5,746.3c-0.3,2.2-0.8,4.1-2.2,5.7c-1.6,1.9-3.7,1.7-5-0.3c-1.8-2.8-1.5-7.8,0.8-10.2c1.6-1.8,3.8-1.7,5,0.5
	C-388.2,743.3-388,744.9-387.5,746.3z"/>
<path d="M-399.8,760.2c-1.8-0.5-3.5-0.9-5-1.6c-1.8-0.9-1.7-2.5-0.1-3.7c2.5-1.7,7.8-1.7,10.3,0c1.6,1.1,1.7,2.8-0.1,3.7
	C-396.3,759.4-398,759.7-399.8,760.2z"/>
</svg>
