<?xml version="1.0" encoding="utf-8"?>
<!-- Generator: Adobe Illustrator 19.0.1, SVG Export Plug-In . SVG Version: 6.00 Build 0)  -->
<svg version="1.1" id="Слой_1" xmlns="http://www.w3.org/2000/svg" xmlns:xlink="http://www.w3.org/1999/xlink" x="0px" y="0px"
	 viewBox="-449 688 100 125" style="enable-background:new -449 688 100 125;" xml:space="preserve">
<g>
	<g>
		<path d="M-399,718.9l-49.5,16.9l49.5,16.9v2.3l-25.1-8.6v13.3c0,0,16.2,10.1,25.1,10.1c5.9,0,14.9-4.4,20.4-7.4
			c-0.2-0.2-0.3-0.5-0.3-0.8c0-0.4,0.2-0.8,0.6-1v-14.2l-19.2-10.1c-0.3-0.1-0.4-0.5-0.2-0.8c0.1-0.3,0.5-0.4,0.8-0.2l19.4,10.2
			c0.2,0.1,0.4,0.3,0.4,0.5v14.5c0.3,0.2,0.5,0.4,0.6,0.7c1.7-1,2.7-1.6,2.7-1.6v-13.3l24.4-8.3v-2.3L-399,718.9z"/>
		<path d="M-375.6,762.9c-0.2-0.3-0.5-0.9-1-1.1c-0.1,0.6-0.6,1-1.2,1c-0.3,0-0.5-0.1-0.7-0.3c-0.4,0.8,0,1.7,0,1.7s2.7,6.9,5.5,9.4
			c2.8,2.6,6.5,3.6,6.5,3.6l2-2.3c0,0-3.2-1.8-5.9-4.4C-373.3,768.1-374.3,765.2-375.6,762.9z"/>
	</g>
</g>
</svg>
