<?xml version="1.0" encoding="utf-8"?>
<!-- Generator: Adobe Illustrator 19.0.1, SVG Export Plug-In . SVG Version: 6.00 Build 0)  -->
<svg version="1.1" id="Layer_1" xmlns="http://www.w3.org/2000/svg" xmlns:xlink="http://www.w3.org/1999/xlink" x="0px" y="0px"
	 viewBox="-550 550.9 32 32" style="enable-background:new -550 550.9 32 32;" xml:space="preserve">
<g id="news">
	<path d="M-521,550.9h-22c-1.7,0-3,1.3-3,3v2h-1c-1.7,0-3,1.3-3,3v20c0,2.2,1.8,4,4,4h24c2.2,0,4-1.8,4-4v-25
		C-518,552.2-519.3,550.9-521,550.9z M-520,578.9c0,1.1-0.9,2-2,2h-24c-1.1,0-2-0.9-2-2v-20c0-0.6,0.4-1,1-1h1v20c0,0.6,0.4,1,1,1
		s1-0.4,1-1v-24c0-0.6,0.4-1,1-1h22c0.6,0,1,0.4,1,1V578.9z"/>
	<path d="M-530.5,563.9h8c0.3,0,0.5-0.2,0.5-0.5s-0.2-0.5-0.5-0.5h-8c-0.3,0-0.5,0.2-0.5,0.5S-530.8,563.9-530.5,563.9z"/>
	<path d="M-530.5,560.9h8c0.3,0,0.5-0.2,0.5-0.5s-0.2-0.5-0.5-0.5h-8c-0.3,0-0.5,0.2-0.5,0.5S-530.8,560.9-530.5,560.9z"/>
	<path d="M-530.5,557.9h8c0.3,0,0.5-0.2,0.5-0.5s-0.2-0.5-0.5-0.5h-8c-0.3,0-0.5,0.2-0.5,0.5S-530.8,557.9-530.5,557.9z"/>
	<path d="M-533.5,577.9h-8c-0.3,0-0.5,0.2-0.5,0.5c0,0.3,0.2,0.5,0.5,0.5h8c0.3,0,0.5-0.2,0.5-0.5
		C-533,578.1-533.2,577.9-533.5,577.9z"/>
	<path d="M-533.5,574.9h-8c-0.3,0-0.5,0.2-0.5,0.5c0,0.3,0.2,0.5,0.5,0.5h8c0.3,0,0.5-0.2,0.5-0.5
		C-533,575.1-533.2,574.9-533.5,574.9z"/>
	<path d="M-533.5,571.9h-8c-0.3,0-0.5,0.2-0.5,0.5c0,0.3,0.2,0.5,0.5,0.5h8c0.3,0,0.5-0.2,0.5-0.5
		C-533,572.1-533.2,571.9-533.5,571.9z"/>
	<path d="M-522.5,577.9h-8c-0.3,0-0.5,0.2-0.5,0.5c0,0.3,0.2,0.5,0.5,0.5h8c0.3,0,0.5-0.2,0.5-0.5
		C-522,578.1-522.2,577.9-522.5,577.9z"/>
	<path d="M-522.5,574.9h-8c-0.3,0-0.5,0.2-0.5,0.5c0,0.3,0.2,0.5,0.5,0.5h8c0.3,0,0.5-0.2,0.5-0.5
		C-522,575.1-522.2,574.9-522.5,574.9z"/>
	<path d="M-522.5,571.9h-8c-0.3,0-0.5,0.2-0.5,0.5c0,0.3,0.2,0.5,0.5,0.5h8c0.3,0,0.5-0.2,0.5-0.5
		C-522,572.1-522.2,571.9-522.5,571.9z"/>
	<path d="M-522.5,565.9h-19c-0.3,0-0.5,0.2-0.5,0.5s0.2,0.5,0.5,0.5h19c0.3,0,0.5-0.2,0.5-0.5S-522.2,565.9-522.5,565.9z"/>
	<path d="M-522.5,568.9h-19c-0.3,0-0.5,0.2-0.5,0.5c0,0.3,0.2,0.5,0.5,0.5h19c0.3,0,0.5-0.2,0.5-0.5
		C-522,569.1-522.2,568.9-522.5,568.9z"/>
	<path d="M-541,563.9h7c0.6,0,1-0.4,1-1v-7c0-0.6-0.4-1-1-1h-7c-0.6,0-1,0.4-1,1v7C-542,563.4-541.6,563.9-541,563.9z M-540,556.9h5
		v5h-5V556.9z"/>
</g>
</svg>
