<?xml version="1.0" encoding="utf-8"?>
<!-- Generator: Adobe Illustrator 19.0.1, SVG Export Plug-In . SVG Version: 6.00 Build 0)  -->
<svg version="1.1" id="Layer_1" xmlns="http://www.w3.org/2000/svg" xmlns:xlink="http://www.w3.org/1999/xlink" x="0px" y="0px"
	 viewBox="-550 550.9 32 32" style="enable-background:new -550 550.9 32 32;" xml:space="preserve">
<g id="note">
	<path d="M-518.6,558.4l-6-6c-0.4-0.4-0.9-0.6-1.4-0.6h-21c-1.7,0-3,1.3-3,3v24c0,1.7,1.3,3,3,3h26c1.7,0,3-1.3,3-3v-19
		C-518,559.3-518.2,558.8-518.6,558.4z M-520,578.9c0,0.6-0.4,1-1,1h-26c-0.6,0-1-0.4-1-1v-24c0-0.6,0.4-1,1-1h20v4h0
		c0,1.7,1.3,3,3,3h1h3V578.9z M-523,559.9h-1c-1.1,0-2-0.9-2-2h0v-4l6,6H-523z"/>
	<path d="M-534.5,558.9h5c0.3,0,0.5-0.2,0.5-0.5s-0.2-0.5-0.5-0.5h-5c-0.3,0-0.5,0.2-0.5,0.5C-535,558.6-534.8,558.9-534.5,558.9z"
		/>
	<path d="M-534.5,561.9h5c0.3,0,0.5-0.2,0.5-0.5s-0.2-0.5-0.5-0.5h-5c-0.3,0-0.5,0.2-0.5,0.5S-534.8,561.9-534.5,561.9z"/>
	<path d="M-535,564.4c0,0.3,0.2,0.5,0.5,0.5h12c0.3,0,0.5-0.2,0.5-0.5s-0.2-0.5-0.5-0.5h-12C-534.8,563.9-535,564.1-535,564.4z"/>
	<path d="M-522.5,569.9h-23c-0.3,0-0.5,0.2-0.5,0.5c0,0.3,0.2,0.5,0.5,0.5h23c0.3,0,0.5-0.2,0.5-0.5
		C-522,570.1-522.2,569.9-522.5,569.9z"/>
	<path d="M-522.5,572.9h-23c-0.3,0-0.5,0.2-0.5,0.5c0,0.3,0.2,0.5,0.5,0.5h23c0.3,0,0.5-0.2,0.5-0.5
		C-522,573.1-522.2,572.9-522.5,572.9z"/>
	<path d="M-522.5,575.9h-23c-0.3,0-0.5,0.2-0.5,0.5c0,0.3,0.2,0.5,0.5,0.5h23c0.3,0,0.5-0.2,0.5-0.5
		C-522,576.1-522.2,575.9-522.5,575.9z"/>
	<path d="M-522.5,566.9h-23c-0.3,0-0.5,0.2-0.5,0.5c0,0.3,0.2,0.5,0.5,0.5h23c0.3,0,0.5-0.2,0.5-0.5S-522.2,566.9-522.5,566.9z"/>
	<path d="M-545,564.9h7c0.6,0,1-0.4,1-1v-6c0-0.6-0.4-1-1-1h-7c-0.6,0-1,0.4-1,1v6C-546,564.4-545.6,564.9-545,564.9z M-544,558.9h5
		v4h-5V558.9z"/>
</g>
</svg>
