<?xml version="1.0" encoding="utf-8"?>
<!-- Generator: Adobe Illustrator 19.0.1, SVG Export Plug-In . SVG Version: 6.00 Build 0)  -->
<svg version="1.1" id="Слой_1" xmlns:sketch="http://www.bohemiancoding.com/sketch/ns"
	 xmlns="http://www.w3.org/2000/svg" xmlns:xlink="http://www.w3.org/1999/xlink" x="0px" y="0px" viewBox="-491 743 16 16"
	 style="enable-background:new -491 743 16 16;" xml:space="preserve">
<rect x="-485" y="746" sketch:type="MSShapeGroup" width="10" height="3">
</rect>
<rect x="-485" y="753" sketch:type="MSShapeGroup" width="10" height="3">
</rect>
<path sketch:type="MSShapeGroup" d="M-489.2,745.5l-1.1,1.1l-0.7-0.8l1.9-1.6h1.1v5.9h-1.2V745.5z"/>
<path sketch:type="MSShapeGroup" d="M-491,756.7l2.2-2.1c0.1-0.1,0.2-0.2,0.3-0.4c0.1-0.1,0.2-0.3,0.2-0.5c0-0.2-0.1-0.4-0.2-0.5
	c-0.1-0.1-0.3-0.2-0.5-0.2c-0.2,0-0.4,0.1-0.5,0.2c-0.1,0.1-0.2,0.3-0.2,0.5l-1.2-0.1c0-0.3,0.1-0.6,0.2-0.8
	c0.1-0.2,0.3-0.4,0.4-0.6c0.2-0.2,0.4-0.3,0.6-0.3c0.2-0.1,0.5-0.1,0.8-0.1c0.3,0,0.5,0,0.7,0.1c0.2,0.1,0.4,0.2,0.6,0.3
	c0.2,0.1,0.3,0.3,0.4,0.6c0.1,0.2,0.1,0.5,0.1,0.8c0,0.2,0,0.4-0.1,0.5c0,0.2-0.1,0.3-0.2,0.4s-0.1,0.2-0.2,0.3
	c-0.1,0.1-0.2,0.2-0.3,0.3l-1.7,1.5h2.5v1.1h-4V756.7z"/>
</svg>
