<?xml version="1.0" encoding="utf-8"?>
<!-- Generator: Adobe Illustrator 19.0.1, SVG Export Plug-In . SVG Version: 6.00 Build 0)  -->
<svg version="1.1" id="Слой_1" xmlns="http://www.w3.org/2000/svg" xmlns:xlink="http://www.w3.org/1999/xlink" x="0px" y="0px"
	 viewBox="-451 691 96 120" style="enable-background:new -451 691 96 120;" xml:space="preserve">
<path d="M-448,740.3c-0.3,0-0.6-0.1-0.9-0.2c-1-0.5-1.3-1.7-0.8-2.7l21.8-40.8c0.7-1.3,2.8-1.3,3.5,0l10.7,20.1
	c0.5,1,0.1,2.2-0.8,2.7c-1,0.5-2.2,0.2-2.7-0.8l-9-16.8l-20,37.5C-446.6,740-447.3,740.3-448,740.3z"/>
<path d="M-424,728.5h-12c-1.1,0-2-0.9-2-2c0-1.1,0.9-2,2-2h12c1.1,0,2,0.9,2,2C-422,727.6-422.9,728.5-424,728.5z"/>
<path d="M-432,724.5h12v4h-12V724.5z"/>
<path d="M-368,740.5h-16c-1.1,0-2-0.9-2-2c0-1.1,0.9-2,2-2h16c4.4,0,8-3.6,8-8c0-4.4-3.6-8-8-8h-9c-1.1,0-2-0.9-2-2c0-1.1,0.9-2,2-2
	h1.1c4.4,0,8-3.6,8-8c0-4.5-3.6-8-8-8h-12v16c0,1.1-0.9,2-2,2c-1.1,0-2-0.9-2-2v-18c0-1.1,0.9-2,2-2h14c6.6,0,12,5.4,12,12
	c0,3.1-1.2,5.9-3.1,8.1c6.2,0.5,11.1,5.7,11.1,12C-356,735.1-361.4,740.5-368,740.5z"/>
<path d="M-383.6,782.4c-0.8,0-1.6-0.5-1.9-1.3l-11.9-30.4c-0.4-1,0.1-2.2,1.1-2.6c1-0.4,2.2,0.1,2.6,1.1l11.9,30.4
	c0.4,1-0.1,2.2-1.1,2.6C-383.1,782.4-383.3,782.4-383.6,782.4z"/>
<path d="M-402.4,753.3c-8.7,0-16.4-5.3-19.6-13.4c-2-5.2-1.9-11,0.3-16.1s6.4-9.1,11.6-11.2c2.5-1,5-1.4,7.7-1.4
	c8.7,0,16.4,5.3,19.6,13.4c4.2,10.8-1.1,23.1-12,27.3C-397.2,752.8-399.7,753.3-402.4,753.3z M-402.4,715.2c-2.1,0-4.2,0.4-6.2,1.2
	c-4.3,1.7-7.6,4.9-9.4,9c-1.8,4.2-1.9,8.8-0.3,13c2.6,6.6,8.8,10.9,15.9,10.9c2.1,0,4.2-0.4,6.2-1.2c8.8-3.4,13.1-13.3,9.7-22.1
	C-389.1,719.4-395.3,715.2-402.4,715.2z"/>
</svg>
