<?xml version="1.0" encoding="utf-8"?>
<!-- Generator: Adobe Illustrator 19.0.1, SVG Export Plug-In . SVG Version: 6.00 Build 0)  -->
<svg version="1.1" id="Слой_1" xmlns="http://www.w3.org/2000/svg" xmlns:xlink="http://www.w3.org/1999/xlink" x="0px" y="0px"
	 viewBox="-449 688 100 125" style="enable-background:new -449 688 100 125;" xml:space="preserve">
<path d="M-381.6,787.9c-0.1,3.9,2.2,7.9,7.2,11.8h30.7C-367.3,795.8-374.3,792.7-381.6,787.9z M-434.1,744l42.1,6.5l-1.9,12.3
	l-42.1-6.5L-434.1,744z M-411.8,711.6c0.3-2.3,2.5-3.9,4.8-3.5c2.3,0.3,3.9,2.5,3.5,4.8c-0.3,2.2-2.5,3.9-4.7,3.4
	C-410.6,716-412.1,713.9-411.8,711.6z M-388.7,770.1l3.8-24.1c-10.3-3.1-20.2-8.6-19.4-14c0.8-6,7.9-10.4,9.2-17.8
	c1.2-8.4-4.9-13.5-10.7-14.3c-5.6-0.9-12.9,2.1-14.2,10.4c-1.2,7.6,4.2,13.8,3.2,19.8c-0.8,5.4-11.9,7.6-22.6,7.4l-3.7,23.4
	c-2.1,13.3-0.8,29.8,6.1,38.8h15.1c-4.2-6.1-6-18.1-4.9-24.4c1.5,11.4,5.6,19.6,9.8,24.4h19.5c-3.7-5.8-5.3-11.4-6.2-17.2
	c1.9,5.8,4.5,11.4,9.5,17.2h14.1C-385.8,795.1-391.4,787.7-388.7,770.1z"/>
</svg>
