<?xml version="1.0" encoding="utf-8"?>
<!-- Generator: Adobe Illustrator 19.0.1, SVG Export Plug-In . SVG Version: 6.00 Build 0)  -->
<svg version="1.1" id="Слой_1" xmlns="http://www.w3.org/2000/svg" xmlns:xlink="http://www.w3.org/1999/xlink" x="0px" y="0px"
	 viewBox="-449 688 100 125" style="enable-background:new -449 688 100 125;" xml:space="preserve">
<path d="M-382.4,749.3c-2,5.7-7.5,9.8-13.9,9.8s-11.8-4.1-13.9-9.8c-10.9,1.6-21.7,5-32,10.4c4.3,19.9,22,34.9,43.2,34.9
	c22.1,0,40.3-16.2,43.6-37.3C-364.1,753.3-373.1,750.7-382.4,749.3z"/>
<path d="M-396.1,729.6c6.6,0,12.2,4.3,14.1,10.3c9.2,1.2,18.3,3.7,27.1,7.3c-1.7-22.8-20.7-40.8-44-40.8
	c-24.1,0-43.7,19.4-44.1,43.4c10.6-5,21.6-8.3,32.8-9.8C-408.4,734-402.8,729.6-396.1,729.6z"/>
<circle cx="-396.1" cy="744.4" r="8.5"/>
</svg>
