<?xml version="1.0" encoding="utf-8"?>
<!-- Generator: Adobe Illustrator 22.0.1, SVG Export Plug-In . SVG Version: 6.00 Build 0)  -->
<svg version="1.1" id="Слой_1" xmlns="http://www.w3.org/2000/svg" xmlns:xlink="http://www.w3.org/1999/xlink" x="0px" y="0px"
	 viewBox="0 0 100 100" style="enable-background:new 0 0 100 100;" xml:space="preserve">
<rect x="91.1" y="91.1" width="8.9" height="8.9"/>
<polygon points="85.6,72.2 85.6,81.1 91.1,81.1 91.1,91.1 76.7,91.1 76.7,100 53.3,100 53.3,91.1 63.3,91.1 63.3,81.1 57.8,81.1 
	57.8,72.2 67.8,72.2 67.8,81.1 76.7,81.1 76.7,67.8 85.6,67.8 85.6,60 76.7,60 76.7,53.3 100,53.3 100,72.2 "/>
<rect x="53.3" y="53.3" width="16.7" height="14.5"/>
<path d="M0,53.3V100h46.7V53.3H0z M40,93.3H6.7V60H40V93.3z"/>
<rect x="14.4" y="67.8" width="17.8" height="17.8"/>
<path d="M53.3,0v46.7H100V0H53.3z M93.3,40H60V6.7h33.3V40z"/>
<rect x="67.8" y="14.4" width="17.8" height="17.8"/>
<path d="M0,0v46.7h46.7V0H0z M40,40H6.7V6.7H40V40z"/>
<rect x="14.4" y="14.4" width="17.8" height="17.8"/>
</svg>
