<?xml version="1.0" encoding="utf-8"?>
<!-- Generator: Adobe Illustrator 19.0.1, SVG Export Plug-In . SVG Version: 6.00 Build 0)  -->
<svg version="1.1" id="Слой_1" xmlns="http://www.w3.org/2000/svg" xmlns:xlink="http://www.w3.org/1999/xlink" x="0px" y="0px"
	 viewBox="-449 688 100 125" style="enable-background:new -449 688 100 125;" xml:space="preserve">
<polygon points="-364,718 -384,718 -389,718 -389,713 -389,693 -409,693 -409,748 -364,748 "/>
<polygon points="-384,693 -384,713 -364,713 "/>
<path d="M-364,768L-364,768v-5h5l-10-10l-10,10h5v5c0,2.8-2.2,5-5,5h-5v10h5C-370.7,783-364,776.3-364,768z"/>
<polygon points="-434,723 -426.5,715.5 -419,723 -414,718 -421.5,710.5 -414,703 -419,698 -426.5,705.5 -434,698 -439,703 
	-431.5,710.5 -439,718 "/>
<path d="M-409,753h-5v-5v-20h-20v55h45v-30H-409z M-394,778h-35v-45h10v25h25V778z"/>
</svg>
