<?xml version="1.0" encoding="utf-8"?>
<!-- Generator: Adobe Illustrator 22.0.1, SVG Export Plug-In . SVG Version: 6.00 Build 0)  -->
<svg version="1.1" id="Слой_1" xmlns="http://www.w3.org/2000/svg" xmlns:xlink="http://www.w3.org/1999/xlink" x="0px" y="0px"
	 viewBox="0 0 1000 1000" style="enable-background:new 0 0 1000 1000;" xml:space="preserve">
<path d="M804.2,0.1H196C88.2,0.1,0,88.3,0,196v608.2c0,107.8,88.2,196,196,196h608.2c107.8,0,196-88.2,196-196V196
	C1000.1,88.3,911.9,0.1,804.2,0.1z M739.1,686.3c-10.5,21-24.6,38.3-42.4,52.1c-21,16.5-44,28.1-69.3,35.2
	c-25.1,7-57,10.5-95.8,10.5H308.2V225.7h197.3c41,0,72.1,1.5,93.2,4.7c21.1,3.1,41,9.6,59.4,19.6c20,10.8,34.9,25.2,44.8,43.2
	c9.9,18,14.9,38.8,14.9,62.3c0,27.3-6.8,51.5-20.5,72.7c-13.6,21.3-32.4,36.9-56.3,47v2.9c34.5,7.3,62.1,22,82.8,44.4
	c20.8,22.4,31.1,52.6,31.1,90.5C754.8,640.9,749.6,665.3,739.1,686.3z"/>
<path d="M610.4,610.6c0,13.4-2.9,25.5-8.8,36.1c-5.9,10.6-15.1,18.7-27.9,24.2c-14.4,6.3-28.8,9.6-42.8,10.1
	c-13.9,0.5-39.2,0.8-75.7,0.8h-7.6V541.9h25.9c25,0,44.9,0.1,59.8,0.5c14.8,0.4,26.6,2.2,35.1,5.5c14,5,24.5,12.3,31.5,22.2
	C607,579.8,610.4,593.3,610.4,610.6z"/>
<path d="M575.2,383.7c0,12.2-2.2,22.9-6.4,32.3c-4.2,9.2-12,16.5-23.2,21.8c-10.3,4.7-20.2,7.3-29.8,7.8c-9.6,0.5-26.5,0.8-50.5,0.8
	h-17.7V328.1h9.8c25,0,43.8,0.1,56.4,0.5c12.7,0.4,23.6,2.5,32.8,6.7c9.9,4.2,17,11.1,21.6,20.6
	C572.9,365.4,575.2,374.6,575.2,383.7z"/>
</svg>
