<?xml version="1.0" encoding="utf-8"?>
<!-- Generator: Adobe Illustrator 22.0.1, SVG Export Plug-In . SVG Version: 6.00 Build 0)  -->
<svg version="1.1" id="Слой_1" xmlns="http://www.w3.org/2000/svg" xmlns:xlink="http://www.w3.org/1999/xlink" x="0px" y="0px"
	 viewBox="0 0 1000 1000" style="enable-background:new 0 0 1000 1000;" xml:space="preserve">
<path d="M859.3,0H140.7C62.8,0,0,62.8,0,140.7v718.6C0,937.2,62.8,1000,140.7,1000h718.6c77.9,0,140.7-62.8,140.7-140.7V140.7
	C1000,62.8,937.2,0,859.3,0z M522.4,102.2c113.5,0,205.8,92.3,205.8,205.8c0,113.5-92.3,205.7-205.8,205.7
	c-113.5,0-205.8-92.3-205.8-205.7C316.6,194.5,408.9,102.2,522.4,102.2z M720.7,796.6c23.5,23.5,23.5,61.7,0,85.3
	c-23.6,23.6-61.7,23.6-85.2,0L522.3,768.8l-113,113.1c-11.8,11.8-27.2,17.7-42.6,17.7c-15.4,0-30.8-5.9-42.6-17.7
	c-23.6-23.6-23.5-61.7,0-85.3l115-115.1c-41.9-9.6-82.3-26.1-119.5-49.5c-28.1-17.7-36.6-54.9-18.8-83.1
	c11.1-17.6,29.8-27.6,49.1-28.2c0.7,0,1.5,0,2.2,0c10.9,0,21.9,3,31.8,9.3c84.2,53,192.8,53,277.1,0c28.2-17.8,65.4-9.2,83.2,19
	c17.8,28.2,9.2,65.4-19,83.1c-37.2,23.4-77.6,39.9-119.5,49.5L720.7,796.6z"/>
<path d="M607.6,308c0,47-38.2,85.2-85.2,85.2c-47,0-85.2-38.2-85.2-85.2c0-46.2,37.1-84,83-85.2c0.7,0,1.5,0,2.2,0
	C569.4,222.8,607.6,261,607.6,308z"/>
</svg>
