<?xml version="1.0" encoding="utf-8"?>
<!-- Generator: Adobe Illustrator 22.0.1, SVG Export Plug-In . SVG Version: 6.00 Build 0)  -->
<svg version="1.1" id="Слой_1" xmlns="http://www.w3.org/2000/svg" xmlns:xlink="http://www.w3.org/1999/xlink" x="0px" y="0px"
	 viewBox="0 0 1001 1000" style="enable-background:new 0 0 1001 1000;" xml:space="preserve">
<path d="M368.4,396.5c0,21-10.7,62.1-37.9,93.3c-23.9,27.3-61.1,36.5-97.4,36.5c-124.9,0-176.2-144.4-176.2-242.1
	c0-38,3.8-77.3,28.5-107.9c23.3-29.2,63.9-48.1,101.7-48.1C307.6,128.3,368.4,291.5,368.4,396.5z"/>
<path d="M469.1,1000h-377C41.2,1000,0,971.9,0,921.1v-52.7c30-40.8,77.9-59,98.8-66.6c61-20.4,139.5-23.4,152.6-23.4
	c14.5,0,21.7,0,33.3,1.5c110.5,78.8,189.6,119.3,190.4,193.8C475.3,988.1,471.2,992.6,469.1,1000z"/>
<path d="M235.4,737.6c-55.5,3.8-169.6-5.7-235.4,46.9V526.3c39.8,33.1,93.9,58.2,159.8,58.2c14.6,0,30.5-1.5,46.5-2.9
	c-7.3,17.5-14.5,32.1-14.5,56.9C191.8,683.7,215,711.3,235.4,737.6z"/>
<path d="M815.8,263.2V78.9h-78.9v184.2H552.6v77.3h184.2v185.8h78.9V340.5H1000v580.6c0,50.9-41.2,78.9-92.1,78.9H554.1
	c8.8-20.5,11.7-44.7,11.7-71.6c0-100.6-83.5-163.1-147.4-217.1l-52.3-40.7c-15.9-13.1-37.7-30.6-37.7-62.7
	c0-32.1,21.8-52.6,40.7-71.5c61-48,117.8-99.1,117.8-207c0-98.5-53.2-153.7-88.8-184.7h89l81.6-65.8h-307
	c-76.2,1.4-167,12.9-249.8,81.4c-3.9,3.3-8.1,7.2-11.7,10.7v-79C0,26.3,41.2,0,92.1,0h815.8c50.9,0,92.1,26.3,92.1,92.1v171.1H815.8
	z"/>
</svg>
