<?xml version="1.0" encoding="utf-8"?>
<!-- Generator: Adobe Illustrator 22.0.1, SVG Export Plug-In . SVG Version: 6.00 Build 0)  -->
<svg version="1.1" id="Слой_1" xmlns="http://www.w3.org/2000/svg" xmlns:xlink="http://www.w3.org/1999/xlink" x="0px" y="0px"
	 viewBox="0 0 1231 1000" style="enable-background:new 0 0 1231 1000;" xml:space="preserve">
<path d="M1104.9,248.9c0.5,9.6,0.7,20.5,0.7,32.7c0,67.5-9.8,135.1-29.5,202.8c-19.7,67.7-49.8,132.5-90.2,194.3
	c-40.5,61.9-88.7,116.7-144.6,164.5c-55.9,47.8-123.1,85.8-201.7,114.3c-78.5,28.4-162.7,42.6-252.5,42.6
	C247,1000,118,962.2,0,886.5c20.9,2.3,41,3.5,60.2,3.5c117.1,0,221.6-36.1,313.7-108.2c-54.6-1-103.5-17.8-146.6-50.4
	c-43.2-32.6-72.9-74.3-89.2-125c16.1,3.1,31.9,4.6,47.6,4.6c22.5,0,44.7-2.9,66.5-8.8c-58.3-11.7-106.6-40.7-145-87
	c-38.4-46.4-57.6-99.9-57.6-160.5v-3.1c35.8,19.8,73.9,30.3,114.4,31.6c-34.5-23-61.9-53-82.1-90c-20.2-37-30.3-77-30.3-120.1
	c0-45.4,11.4-87.7,34.2-126.9C149.1,123.8,225.9,186,316,232.5C406.2,279,503,304.9,606.3,310c-4.4-18.4-6.6-37.5-6.6-57.5
	c0-69.7,24.7-129.2,74-178.5C723,24.7,782.5,0,852.2,0c73,0,134.4,26.6,184.4,79.7c57.1-11.3,110.5-31.8,160.3-61.4
	c-19.2,60.4-56.2,107-110.9,139.8c50.3-6,98.7-19.2,145.1-39.7C1196.8,169.4,1154.7,212.9,1104.9,248.9z"/>
</svg>
