<?xml version="1.0" encoding="utf-8"?>
<!-- Generator: Adobe Illustrator 22.0.1, SVG Export Plug-In . SVG Version: 6.00 Build 0)  -->
<svg version="1.1" id="Слой_1" xmlns="http://www.w3.org/2000/svg" xmlns:xlink="http://www.w3.org/1999/xlink" x="0px" y="0px"
	 viewBox="0 0 1000 1000" style="enable-background:new 0 0 1000 1000;" xml:space="preserve">
<path d="M1000,182.6v634.8c0,101.2-81.5,182.6-182.6,182.6H675.5V609.1h146.1l6.7-140.8H675.5V365.5c0-38.8,8.1-62.2,58.9-62.2
	c46.9,0,89.8,0.4,89.8,0.4l3.3-131.4c0,0-42.1-5.5-99.1-5.5c-140.7,0-201.8,86.8-201.8,181.2v120.3H423.3v140.8h103.4V1000H182.6
	C81.4,1000,0,918.6,0,817.4V182.6C0,81.4,81.4,0,182.6,0h634.8C918.5,0,1000,81.5,1000,182.6z"/>
</svg>
