<?xml version="1.0" encoding="utf-8"?>
<!-- Generator: Adobe Illustrator 22.0.1, SVG Export Plug-In . SVG Version: 6.00 Build 0)  -->
<svg version="1.1" id="Слой_1" xmlns="http://www.w3.org/2000/svg" xmlns:xlink="http://www.w3.org/1999/xlink" x="0px" y="0px"
	 viewBox="0 0 100 100" style="enable-background:new 0 0 100 100;" xml:space="preserve">
<path d="M50,0C22.4,0,0,22.4,0,50s22.4,50,50,50s50-22.4,50-50S77.6,0,50,0z M70.4,40.1c0,0.2-0.1,0.5-0.1,0.7
	C70,41.9,69.8,43,69.6,44c-0.7,3.3-1.4,6.6-2.1,9.9c-0.4,1.2-0.6,2.4-0.8,3.6c-0.5,2.1-0.8,4.3-1.3,6.4c-0.5,2.1-1,4.3-1.4,6.4
	c-1.1,2.5-2.6,3-4.9,1.3c-3.1-2.1-6.1-4.4-9.1-6.7c-0.2-0.1-0.4-0.2-0.6-0.4L48,66c-1.1,1.2-2.3,2.3-3.3,3.3
	c-0.1,0.1-0.4,0.4-0.5,0.5c0,0.1-0.1,0.2-0.2,0.4c-0.1,0.1-0.2,0.2-0.4,0.4c-0.1,0.1-0.2,0.2-0.4,0.4c-0.8,0.6-2,1.7-3.9,1.7h-0.7
	c-0.7,0-3.2-0.2-4.2-3.3c-0.4-1.4-0.8-2.9-1.3-4.3c-0.2-0.6-0.4-1.2-0.6-1.8L30.9,58l-1.2-3.8c-0.1-0.4-0.1-0.7-0.1-1.1
	c-3.2-1.1-6.6-2-9.9-3.1c-0.1,0-0.2,0-0.4-0.1c-0.5-0.5-1.3-1-1.3-1.4c-0.1-0.5,0.5-1.2,1-1.6c1.1-0.7,2.4-1.2,3.6-1.7
	c1.4-0.6,2.7-1.2,4.3-1.6c6.2-2.5,12.5-4.9,18.7-7.3c3-1.2,6.1-2.4,9.1-3.6c1.2-0.5,2.4-1.1,3.6-1.6c1.9-0.7,3.9-1.4,5.8-2.1
	c1.2-0.5,2.3-1,3.5-1.4c0.4-0.1,0.6-0.1,1-0.2c2.1-0.7,3.2-0.1,3.7,2c0.1,0.2,0.1,0.4,0.1,0.6C71.6,33.5,70.9,36.9,70.4,40.1z"/>
<path d="M62.3,35.4c-0.1,0.2-0.2,0.7-0.5,1c-2.9,2.7-5.8,5.4-8.7,8c-2.3,2.1-4.7,4.2-6.9,6.2c-0.8,0.8-1.8,1.7-2.6,2.5
	c-0.4,0.4-0.6,0.6-1,1c-0.5,0.5-1.1,1.1-1.7,1.6c-0.1,0.1-0.2,0.2-0.4,0.4c-0.1,0.1-0.1,0.1-0.2,0.2c-0.2,0.2-0.5,0.5-0.7,0.7
	c-0.1,0.2-0.2,0.6,0.1,0.8c0,0.4-0.1,0.8-0.1,1.2c-0.2,3.5-0.5,6.9-0.7,10.4c-0.8,0.1-1.3-0.4-1.6-1.2c-0.6-2-1.3-4.1-1.9-6.1
	c-1-2.9-1.8-5.7-2.7-8.6c0.2-0.1,0.4-0.1,0.5-0.2c6.9-4.3,13.7-8.7,20.6-13c2.4-1.4,4.8-3,6.9-4.5C61.2,35.4,61.8,35.6,62.3,35.4z"
	/>
<path d="M46.7,62.9c-1.4,1.4-2.9,2.7-4.3,4.2c-0.1,0.1-0.2,0.2-0.4,0.4l0.1-1c0.2-2,0.4-4.3,0.5-6.6C43.9,60.9,45.3,61.9,46.7,62.9z
	"/>
</svg>
