<?xml version="1.0" encoding="utf-8"?>
<!-- Generator: Adobe Illustrator 22.0.1, SVG Export Plug-In . SVG Version: 6.00 Build 0)  -->
<svg version="1.1" id="Слой_1" xmlns="http://www.w3.org/2000/svg" xmlns:xlink="http://www.w3.org/1999/xlink" x="0px" y="0px"
	 viewBox="0 0 64 64" style="enable-background:new 0 0 64 64;" xml:space="preserve">
<path d="M46,8c-5.5,0-10,4.5-10,10s4.5,10,10,10s10-4.5,10-10S51.5,8,46,8z M46,24c-3.3,0-6-2.7-6-6s2.7-6,6-6s6,2.7,6,6
	S49.3,24,46,24z"/>
<path d="M28.4,48c0,4.7-3.8,8.4-8.4,8.4c-4.5,0-8.2-3.6-8.4-8l4.5,3C17,52,18,52.3,19,52.3h0c1.7,0,3.4-0.8,4.4-2.3
	c1.6-2.4,1-5.7-1.5-7.3l-4.1-2.8c0.7-0.2,1.4-0.3,2.2-0.3C24.7,39.6,28.4,43.3,28.4,48z"/>
<path d="M64,10.7v42.7C64,59.2,59.2,64,53.3,64H10.7C4.8,64,0,59.2,0,53.3V40.6l7.6,5.1c-0.7,4,0.4,8.2,3.5,11.2
	c4.9,4.9,12.9,4.9,17.9,0c3-3,4.2-7.2,3.5-11.1L48,31.9c2.9-0.4,5.7-1.7,7.9-4c5.5-5.5,5.5-14.3,0-19.8c-5.5-5.5-14.3-5.5-19.8,0
	c-2.2,2.2-3.5,5-4,7.9L19.3,35.4c-2,0.1-4,0.7-5.7,1.7L0,28V10.7C0,4.8,4.8,0,10.7,0h42.7C59.2,0,64,4.8,64,10.7z"/>
</svg>
