<?xml version="1.0" encoding="utf-8"?>
<!-- Generator: Adobe Illustrator 19.0.1, SVG Export Plug-In . SVG Version: 6.00 Build 0)  -->
<svg version="1.1" id="Слой_1" xmlns:sketch="http://www.bohemiancoding.com/sketch/ns"
	 xmlns="http://www.w3.org/2000/svg" xmlns:xlink="http://www.w3.org/1999/xlink" x="0px" y="0px" viewBox="-469 713 60 75"
	 style="enable-background:new -469 713 60 75;" xml:space="preserve">
<path sketch:type="MSShapeGroup" d="M-443,721h8v-8h-8V721z"/>
<path sketch:type="MSShapeGroup" d="M-417,713v8h3v1c0,0.6,0.4,1,1,1s1-0.4,1-1v-1h3v-8H-417"/>
<path sketch:type="MSShapeGroup" d="M-456,716h-2c-0.6,0-1,0.4-1,1s0.4,1,1,1h2c0.6,0,1-0.4,1-1S-455.4,716-456,716"/>
<path sketch:type="MSShapeGroup" d="M-450,716h-2c-0.6,0-1,0.4-1,1s0.4,1,1,1h2c0.6,0,1-0.4,1-1S-449.4,716-450,716"/>
<path sketch:type="MSShapeGroup" d="M-452,768h-2c-0.6,0-1,0.4-1,1s0.4,1,1,1h2c0.6,0,1-0.4,1-1S-451.4,768-452,768"/>
<path sketch:type="MSShapeGroup" d="M-446,768h-2c-0.6,0-1,0.4-1,1s0.4,1,1,1h2c0.6,0,1-0.4,1-1S-445.4,768-446,768"/>
<path sketch:type="MSShapeGroup" d="M-458,768h-2c-0.6,0-1,0.4-1,1s0.4,1,1,1h2c0.6,0,1-0.4,1-1S-457.4,768-458,768"/>
<path sketch:type="MSShapeGroup" d="M-464,726c0-0.6-0.4-1-1-1s-1,0.4-1,1v2c0,0.6,0.4,1,1,1s1-0.4,1-1V726"/>
<path sketch:type="MSShapeGroup" d="M-465,731c-0.6,0-1,0.4-1,1v2c0,0.6,0.4,1,1,1s1-0.4,1-1v-2C-464,731.4-464.4,731-465,731"/>
<path sketch:type="MSShapeGroup" d="M-464,764v-2c0-0.6-0.4-1-1-1s-1,0.4-1,1v2c0,0.6,0.4,1,1,1S-464,764.6-464,764"/>
<path sketch:type="MSShapeGroup" d="M-466,722c0,0.6,0.4,1,1,1s1-0.4,1-1v-1h3v-8h-8v8h3V722"/>
<path sketch:type="MSShapeGroup" d="M-465,755c-0.6,0-1,0.4-1,1v2c0,0.6,0.4,1,1,1s1-0.4,1-1v-2C-464,755.4-464.4,755-465,755"/>
<path sketch:type="MSShapeGroup" d="M-464,750c0-0.6-0.4-1-1-1s-1,0.4-1,1v2c0,0.6,0.4,1,1,1s1-0.4,1-1V750"/>
<path sketch:type="MSShapeGroup" d="M-413,757c0.6,0,1-0.4,1-1v-2c0-0.6-0.4-1-1-1s-1,0.4-1,1v2C-414,756.6-413.6,757-413,757"/>
<path sketch:type="MSShapeGroup" d="M-414,748v2c0,0.6,0.4,1,1,1s1-0.4,1-1v-2c0-0.6-0.4-1-1-1S-414,747.4-414,748"/>
<path sketch:type="MSShapeGroup" d="M-412,738c0-0.6-0.4-1-1-1s-1,0.4-1,1v1h-3v8h8v-8h-3V738"/>
<path sketch:type="MSShapeGroup" d="M-414,762c0,0.6,0.4,1,1,1s1-0.4,1-1v-2c0-0.6-0.4-1-1-1s-1,0.4-1,1V762"/>
<path sketch:type="MSShapeGroup" d="M-420,716h-2c-0.6,0-1,0.4-1,1s0.4,1,1,1h2c0.6,0,1-0.4,1-1S-419.4,716-420,716"/>
<path sketch:type="MSShapeGroup" d="M-434,768h-1v-3h-8v8h8v-3h1c0.6,0,1-0.4,1-1S-433.4,768-434,768"/>
<path sketch:type="MSShapeGroup" d="M-414,734c0,0.6,0.4,1,1,1s1-0.4,1-1v-2c0-0.6-0.4-1-1-1s-1,0.4-1,1V734"/>
<path sketch:type="MSShapeGroup" d="M-413,729c0.6,0,1-0.4,1-1v-2c0-0.6-0.4-1-1-1s-1,0.4-1,1v2C-414,728.6-413.6,729-413,729"/>
<path sketch:type="MSShapeGroup" d="M-432,716h-2c-0.6,0-1,0.4-1,1s0.4,1,1,1h2c0.6,0,1-0.4,1-1S-431.4,716-432,716"/>
<path sketch:type="MSShapeGroup" d="M-422,768h-2c-0.6,0-1,0.4-1,1s0.4,1,1,1h2c0.6,0,1-0.4,1-1S-421.4,768-422,768"/>
<path sketch:type="MSShapeGroup" d="M-428,768h-2c-0.6,0-1,0.4-1,1s0.4,1,1,1h2c0.6,0,1-0.4,1-1S-427.4,768-428,768"/>
<path sketch:type="MSShapeGroup" d="M-444,716h-2c-0.6,0-1,0.4-1,1s0.4,1,1,1h2c0.6,0,1-0.4,1-1S-443.4,716-444,716"/>
<path sketch:type="MSShapeGroup" d="M-426,716h-2c-0.6,0-1,0.4-1,1s0.4,1,1,1h2c0.6,0,1-0.4,1-1S-425.4,716-426,716"/>
<path sketch:type="MSShapeGroup" d="M-463,747h2v-8h-3v-1c0-0.6-0.4-1-1-1s-1,0.4-1,1v1h-3v8H-463"/>
<path sketch:type="MSShapeGroup" d="M-469,773h8v-8h-8V773z"/>
<path sketch:type="MSShapeGroup" d="M-415,765h-2v3h-1c-0.6,0-1,0.4-1,1s0.4,1,1,1h1v3h8v-8H-415"/>
</svg>
