<?xml version="1.0" encoding="utf-8"?>
<!-- Generator: Adobe Illustrator 22.0.1, SVG Export Plug-In . SVG Version: 6.00 Build 0)  -->
<svg version="1.1" id="Слой_1" xmlns="http://www.w3.org/2000/svg" xmlns:xlink="http://www.w3.org/1999/xlink" x="0px" y="0px"
	 viewBox="0 0 64 64" style="enable-background:new 0 0 64 64;" xml:space="preserve">
<path d="M36.1,1h7.8v5.2h-7.8V1z"/>
<path d="M46.4,1h7.8v5.2h-7.8V1z"/>
<path d="M56.8,1h5.2v7.8h-5.2V1z"/>
<path d="M36.1,19.1h5.2v7.8h-5.2V19.1z"/>
<path d="M43.8,21.7h7.8v5.2h-7.8V21.7z"/>
<path d="M54.2,21.7h7.8v5.2h-7.8V21.7z"/>
<path d="M36.1,8.8h5.2v7.8h-5.2V8.8z"/>
<path d="M56.8,11.3h5.2v7.8h-5.2V11.3z"/>
<path d="M56.8,42.3v15.5H41.3V42.3H56.8z M61.9,37.2H36.1V63h25.8V37.2z"/>
<path d="M22,49V1h-8v48H4l14,14l14-14H22z"/>
</svg>
