<?xml version="1.0" encoding="utf-8"?>
<!-- Generator: Adobe Illustrator 22.0.1, SVG Export Plug-In . SVG Version: 6.00 Build 0)  -->
<svg version="1.1" id="Слой_1" xmlns="http://www.w3.org/2000/svg" xmlns:xlink="http://www.w3.org/1999/xlink" x="0px" y="0px"
	 viewBox="0 0 64 64" style="enable-background:new 0 0 64 64;" xml:space="preserve">
<path d="M55.8,6.2v15.5H40.3V6.2H55.8z M60.9,1H35.1v25.8h25.8V1z"/>
<path d="M35.1,37.2h7.8v5.2h-7.8V37.2z"/>
<path d="M45.4,37.2h7.8v5.2h-7.8V37.2z"/>
<path d="M55.8,37.2h5.2v7.8h-5.2V37.2z"/>
<path d="M35.1,55.3h5.2V63h-5.2V55.3z"/>
<path d="M42.8,57.8h7.8V63h-7.8V57.8z"/>
<path d="M53.2,57.8h7.8V63h-7.8V57.8z"/>
<path d="M35.1,44.9h5.2v7.8h-5.2V44.9z"/>
<path d="M55.8,47.5h5.2v7.8h-5.2V47.5z"/>
<path d="M20.5,49V1h-8v48h-10l14,14l14-14H20.5z"/>
</svg>
