<?xml version="1.0" encoding="utf-8"?>
<!-- Generator: Adobe Illustrator 19.0.1, SVG Export Plug-In . SVG Version: 6.00 Build 0)  -->
<svg version="1.1" id="Слой_1" xmlns="http://www.w3.org/2000/svg" xmlns:xlink="http://www.w3.org/1999/xlink" x="0px" y="0px"
	 viewBox="-449 688 100 125" style="enable-background:new -449 688 100 125;" xml:space="preserve">
<path d="M-432.6,738.2l3.5,3.5l6.6-6.6l6.6,6.6l3.5-3.5l-10.1-10.1L-432.6,738.2z M-405.6,738.2l3.5,3.5l6.6-6.6l6.6,6.6l3.5-3.5
	l-10.1-10.1L-405.6,738.2z M-361.2,762.4L-361.2,762.4c0.8-1.3,1.6-2.6,2.3-4c0,0,0-0.1,0.1-0.1c0.2-0.4,0.4-0.9,0.6-1.3
	c0-0.1,0-0.1,0.1-0.2c0.4-0.9,0.8-1.7,1.1-2.6c0-0.1,0.1-0.1,0.1-0.2c0.1-0.4,0.3-0.8,0.4-1.2c0.1-0.2,0.2-0.4,0.2-0.7
	c0.1-0.4,0.2-0.7,0.3-1.1c0.1-0.4,0.2-0.7,0.3-1.1c0.1-0.4,0.2-0.9,0.3-1.3c0.1-0.4,0.2-0.8,0.3-1.1c0.1-0.3,0.1-0.5,0.2-0.8
	c0.1-0.4,0.2-0.9,0.2-1.3c0-0.2,0.1-0.4,0.1-0.6c0.1-0.6,0.2-1.3,0.2-1.9c0-0.2,0-0.4,0.1-0.6c0-0.5,0.1-1,0.1-1.5
	c0-0.2,0-0.4,0-0.6c0-0.7,0.1-1.4,0.1-2.1c0-0.8,0-1.6-0.1-2.4c0-0.2,0-0.3,0-0.5c0-0.6-0.1-1.2-0.1-1.8c0-0.1,0-0.3-0.1-0.4
	c-0.1-0.6-0.1-1.3-0.2-1.9c0-0.1,0-0.2-0.1-0.3c-0.1-0.7-0.2-1.3-0.4-2c0-0.1,0-0.1,0-0.2c-0.1-0.7-0.3-1.4-0.5-2.1c0,0,0,0,0-0.1
	c-0.6-2.2-1.3-4.3-2.2-6.3l0,0c-6.9-16-22.7-27.1-41.2-27.1c-9,0-17.4,2.6-24.4,7.2l-0.1,0.1c-0.4,0.3-0.9,0.6-1.3,0.9
	c-0.5,0.3-0.9,0.7-1.4,1l0,0c-0.6,0.4-1.1,0.9-1.6,1.3c0,0-0.1,0-0.1,0.1c-0.5,0.4-1,0.9-1.5,1.3l-0.1,0.1c-0.5,0.4-1,0.9-1.4,1.4
	c-0.1,0.1-0.1,0.1-0.2,0.2c-0.4,0.5-0.9,0.9-1.3,1.4c-0.1,0.1-0.1,0.1-0.2,0.2c-0.4,0.5-0.8,0.9-1.2,1.4c-0.1,0.1-0.1,0.2-0.2,0.3
	c-0.4,0.5-0.7,0.9-1.1,1.4c-0.1,0.1-0.2,0.2-0.3,0.4c-0.3,0.5-0.7,0.9-1,1.4c-0.1,0.1-0.2,0.3-0.3,0.4c-0.3,0.5-0.6,0.9-0.9,1.4
	c-0.1,0.2-0.2,0.4-0.3,0.5c-0.3,0.4-0.5,0.9-0.8,1.3c-0.1,0.2-0.2,0.4-0.3,0.6c-0.2,0.4-0.5,0.9-0.7,1.3c-0.1,0.2-0.2,0.5-0.3,0.7
	c-0.2,0.4-0.4,0.9-0.6,1.3c-0.1,0.3-0.2,0.5-0.3,0.8c-0.2,0.4-0.3,0.8-0.5,1.3c-0.1,0.3-0.2,0.6-0.3,0.9c-0.1,0.4-0.3,0.8-0.4,1.2
	c-0.1,0.3-0.2,0.6-0.3,1c-0.1,0.4-0.2,0.8-0.3,1.2c-0.1,0.3-0.2,0.7-0.2,1.1c0,0.1-0.1,0.5-0.2,0.9s-0.1,0.8-0.2,1.2
	c-0.1,0.4-0.1,0.7-0.2,1.1c-0.1,0.4-0.1,0.8-0.2,1.2c0,0.3-0.1,0.7-0.1,1c0,0.5-0.1,1-0.1,1.5c0,0.3,0,0.5-0.1,0.8
	c0,0.7,0,1.4,0,2.2c0,0.9,0,1.9,0.1,2.8c0,0.3,0,0.5,0.1,0.8c0.1,0.7,0.1,1.4,0.2,2.1c0,0.3,0.1,0.5,0.1,0.8
	c0.1,0.9,0.3,1.8,0.5,2.7l0,0c0.2,0.9,0.4,1.8,0.6,2.6c0.1,0.2,0.1,0.5,0.2,0.7c0.2,0.7,0.4,1.4,0.6,2c0.1,0.2,0.1,0.4,0.2,0.6
	c0.6,1.7,1.3,3.4,2.1,5c0.1,0.1,0.2,0.3,0.2,0.4c0.4,0.7,0.7,1.4,1.1,2.1c0.1,0.1,0.1,0.2,0.2,0.3c1,1.6,2,3.1,3.1,4.6
	c0.1,0.1,0.1,0.1,0.2,0.2c0.6,0.7,1.1,1.4,1.7,2.1l0,0c1.3,1.4,2.6,2.8,4.1,4l0,0c2.2,1.9,4.5,3.6,7,5l0,0c2,3.5,5.8,5.8,10.1,5.8
	h4.2c0.7,0,1.4-0.1,2-0.2l0,0c0.8,0.1,1.6,0.2,2.5,0.3c0.3,0,0.6,0.1,0.9,0.1s0.6,0,0.8,0c0.6,0,1.3,0,2,0c0.7,0,1.4,0,2.1-0.1
	c0.2,0,0.4,0,0.6,0c0.5,0,1-0.1,1.5-0.1c0.2,0,0.4,0,0.6-0.1c0.7-0.1,1.3-0.2,2-0.3c0.1,0,0.1,0,0.2,0c0.6-0.1,1.2-0.2,1.8-0.3
	c0.2,0,0.4-0.1,0.6-0.1c0.5-0.1,0.9-0.2,1.4-0.3c0.2-0.1,0.4-0.1,0.6-0.2c0.6-0.2,1.2-0.3,1.9-0.5c0.1,0,0.2-0.1,0.4-0.1
	c0.5-0.2,1-0.3,1.5-0.5c0.2-0.1,0.5-0.2,0.7-0.3c0.4-0.2,0.8-0.3,1.2-0.5c0.2-0.1,0.5-0.2,0.7-0.3c0.6-0.2,1.1-0.5,1.6-0.7
	c0.2-0.1,0.4-0.2,0.5-0.3c0.4-0.2,0.8-0.4,1.2-0.6c0.2-0.1,0.5-0.3,0.7-0.4c0.3-0.2,0.7-0.4,1-0.6c0.2-0.1,0.5-0.3,0.7-0.4
	c0.5-0.3,1-0.6,1.5-1l20.2,7.9L-361.2,762.4L-361.2,762.4z M-400.6,771.1c0,3-2,5.6-4.8,6.4l0,0c-0.6,0.2-1.2,0.3-1.8,0.3h-4.2
	c-2.9,0-5.3-1.8-6.3-4.4c-0.3-0.7-0.4-1.4-0.4-2.2v-11c1.8,1,3.7,1.7,5.8,2v7.7h5v-7.6c2.4-0.3,4.7-1.1,6.7-2.3
	C-400.6,760-400.6,771.1-400.6,771.1z M-369.3,771.8L-369.3,771.8l-5.4-2.1l0,0l0,0l0,0c-0.1,0.1-0.3,0.2-0.4,0.3
	c-0.6,0.5-1.2,0.9-1.9,1.3c-0.1,0.1-0.3,0.2-0.4,0.3c-0.7,0.5-1.5,0.9-2.2,1.3c-0.3,0.2-0.6,0.3-0.9,0.5c-0.3,0.1-0.5,0.3-0.8,0.4
	c-0.4,0.2-0.8,0.4-1.2,0.6c-0.2,0.1-0.5,0.2-0.7,0.3c-1.5,0.6-2.9,1.2-4.5,1.6c-0.2,0.1-0.4,0.1-0.6,0.2c-0.5,0.1-1,0.3-1.4,0.4
	c-0.3,0.1-0.5,0.1-0.7,0.1c-0.5,0.1-1,0.2-1.5,0.3c-0.1,0-0.1,0-0.2,0c-1.2,0.2-2.4,0.4-3.6,0.5c-0.1,0-0.1,0-0.2,0
	c-0.5,0-1.1,0.1-1.6,0.1c-0.1,0-0.2,0-0.3,0c1.4-1.9,2.3-4.3,2.3-6.9v-15.5c1.5-2,2.6-4.2,3.2-6.7h-5.4c-0.6,1.7-1.5,3.3-2.8,4.6
	c-2.3,2.4-5.4,3.9-9,3.9c-3.3,0-6.3-1.3-8.5-3.4c-1.5-1.4-2.6-3.1-3.2-5.1h-5.4c0.6,2.7,1.9,5.2,3.6,7.3v13.8l0,0
	c-0.6-0.4-1.1-0.9-1.7-1.3c-0.1-0.1-0.2-0.2-0.3-0.2c-0.5-0.4-0.9-0.8-1.3-1.2c-0.1-0.1-0.2-0.2-0.3-0.3c-0.4-0.4-0.8-0.8-1.2-1.2
	c-0.1-0.1-0.2-0.2-0.3-0.3c-0.4-0.5-0.9-1-1.3-1.5l-0.1-0.1c-0.9-1.1-1.8-2.3-2.6-3.5c-0.1-0.1-0.1-0.2-0.2-0.3
	c-0.3-0.5-0.6-1-0.9-1.5c-0.1-0.2-0.2-0.3-0.3-0.5c-0.3-0.5-0.5-0.9-0.7-1.4c-0.1-0.2-0.2-0.4-0.3-0.6c-0.2-0.5-0.5-0.9-0.7-1.4
	c-0.1-0.2-0.2-0.4-0.2-0.5c-0.2-0.6-0.5-1.2-0.7-1.8c0-0.1-0.1-0.2-0.1-0.3c-0.3-0.7-0.5-1.4-0.7-2.1c0-0.1-0.1-0.3-0.1-0.4
	c-0.2-0.5-0.3-1.1-0.5-1.7c-0.1-0.2-0.1-0.5-0.2-0.7c-0.1-0.5-0.2-0.9-0.3-1.4c-0.1-0.3-0.1-0.5-0.1-0.8c-0.1-0.5-0.1-0.9-0.2-1.4
	c0-0.3-0.1-0.5-0.1-0.8c-0.1-0.5-0.1-1-0.1-1.5c0-0.2,0-0.5-0.1-0.7c0-0.7-0.1-1.5-0.1-2.3c0-0.7,0-1.3,0.1-2c0-0.2,0-0.4,0-0.7
	c0-0.4,0.1-0.9,0.1-1.3c0-0.3,0.1-0.5,0.1-0.8c0-0.4,0.1-0.8,0.1-1.2c0-0.3,0.1-0.5,0.1-0.8c0.1-0.4,0.1-0.7,0.2-1.1
	c0.1-0.3,0.1-0.6,0.2-0.8c0.1-0.4,0.2-0.7,0.2-1c0.1-0.3,0.1-0.6,0.2-0.8c0.1-0.3,0.2-0.7,0.3-1s0.2-0.6,0.3-0.8
	c0.1-0.3,0.2-0.7,0.3-1c0.1-0.3,0.2-0.5,0.3-0.8c0.1-0.3,0.2-0.6,0.4-1c0.1-0.3,0.2-0.5,0.3-0.8s0.3-0.6,0.4-0.9
	c0.1-0.3,0.2-0.5,0.4-0.8c0.2-0.3,0.3-0.6,0.5-0.9c0.1-0.3,0.3-0.5,0.4-0.8c0.2-0.3,0.3-0.6,0.5-0.9c0.1-0.2,0.3-0.5,0.4-0.7
	c0.2-0.3,0.4-0.6,0.6-0.9c0.2-0.2,0.3-0.5,0.5-0.7c0.2-0.3,0.4-0.6,0.6-0.9c0.2-0.2,0.3-0.4,0.5-0.7c0.2-0.3,0.5-0.6,0.7-0.9
	c0.2-0.2,0.3-0.4,0.5-0.6c0.3-0.3,0.6-0.7,0.8-1c0.1-0.2,0.3-0.3,0.4-0.5c0.4-0.4,0.8-0.9,1.2-1.3c0.2-0.2,0.4-0.4,0.6-0.5
	c0.3-0.3,0.5-0.5,0.8-0.7c0.2-0.2,0.4-0.4,0.6-0.6c0.3-0.2,0.5-0.4,0.8-0.7c0.2-0.2,0.5-0.4,0.7-0.6c0.3-0.2,0.5-0.4,0.8-0.6
	c0.2-0.2,0.5-0.4,0.7-0.5c0.3-0.2,0.5-0.4,0.8-0.6c0.3-0.2,0.5-0.3,0.8-0.5s0.5-0.3,0.8-0.5c0.3-0.2,0.5-0.3,0.8-0.5
	c0.3-0.2,0.5-0.3,0.8-0.5c0.3-0.2,0.6-0.3,0.8-0.4c0.3-0.1,0.6-0.3,0.8-0.4c0.3-0.1,0.6-0.3,0.9-0.4c0.3-0.1,0.6-0.3,0.8-0.4
	c0.3-0.1,0.6-0.3,0.9-0.4c0.3-0.1,0.6-0.2,0.9-0.3c0.3-0.1,0.6-0.2,0.9-0.3c0.3-0.1,0.6-0.2,0.9-0.3c0.3-0.1,0.6-0.2,0.9-0.3
	c0.3-0.1,0.6-0.2,0.9-0.3c0.3-0.1,0.6-0.2,0.9-0.3c0.3-0.1,0.6-0.1,0.9-0.2c0.3-0.1,0.6-0.1,1-0.2c0.3-0.1,0.6-0.1,0.9-0.2
	c0.3-0.1,0.6-0.1,1-0.2c0.3,0,0.7-0.1,1-0.1c0.3,0,0.6-0.1,1-0.1c1.3-0.1,2.7-0.2,4-0.2c17.1,0,31.7,10.8,37.4,25.9
	c0.2,0.5,0.3,1,0.5,1.4c0,0.1,0.1,0.2,0.1,0.3c0.1,0.4,0.3,0.9,0.4,1.3c0,0.2,0.1,0.3,0.1,0.5c0.1,0.4,0.2,0.8,0.3,1.2
	c0.1,0.2,0.1,0.4,0.1,0.6c0.1,0.4,0.2,0.7,0.2,1.1c0.1,0.3,0.1,0.5,0.1,0.8c0.1,0.3,0.1,0.7,0.2,1c0,0.3,0.1,0.6,0.1,0.9
	s0.1,0.6,0.1,0.9c0,0.4,0.1,0.8,0.1,1.2c0,0.2,0,0.5,0.1,0.7c0,0.6,0,1.3,0,2c0,0.8,0,1.5-0.1,2.3c0,0.2,0,0.4,0,0.7
	c0,0.5-0.1,1.1-0.1,1.6c0,0.2-0.1,0.5-0.1,0.7c-0.1,0.5-0.2,1.1-0.2,1.6c0,0.2-0.1,0.4-0.1,0.6c-0.1,0.6-0.3,1.3-0.4,1.9
	c0,0.1,0,0.1,0,0.2c-0.5,2.2-1.3,4.4-2.2,6.5v0.1c-0.3,0.7-0.6,1.3-0.9,2l0,0l0,0c-1,1.9-2.1,3.8-3.4,5.5l0,0l0,0l1.9,5.6l0,0
	l2.5,7.3L-369.3,771.8z"/>
</svg>
