<?xml version="1.0" encoding="utf-8"?>
<!-- Generator: Adobe Illustrator 19.0.1, SVG Export Plug-In . SVG Version: 6.00 Build 0)  -->
<svg version="1.1" id="Слой_1" xmlns="http://www.w3.org/2000/svg" xmlns:xlink="http://www.w3.org/1999/xlink" x="0px" y="0px"
	 viewBox="-449 688 100 125" style="enable-background:new -449 688 100 125;" xml:space="preserve">
<g>
	<path d="M-399,695.7c-23.3,0-42.3,18.9-42.3,42.3c0,9.4,3,18,8.2,25l-6.7,15.6c-0.1,0.3-0.1,0.6,0.1,0.8c0.2,0.2,0.5,0.2,0.8,0.1
		l15.8-6.7c6.8,4.7,15.1,7.5,24,7.5c23.4,0,42.3-18.9,42.3-42.3C-356.7,714.7-375.7,695.7-399,695.7z M-372.8,726.4
		c0.3-0.3,0.7-0.5,1.2-0.5s0.9,0.2,1.2,0.5c0.3,0.3,0.5,0.7,0.5,1.2v3l-0.5,10c0,0.7-0.4,1-1.1,1c-0.9,0-1.1-0.5-1.2-1l-0.5-10v-3
		C-373.3,727.1-373.2,726.7-372.8,726.4z M-427.6,726.4c0.3-0.3,0.7-0.5,1.2-0.5c0.5,0,0.9,0.2,1.2,0.5c0.3,0.3,0.5,0.7,0.5,1.2v3
		l-0.5,10c0,0.7-0.4,1-1.1,1c-0.9,0-1.1-0.5-1.2-1l-0.5-10v-3C-428.1,727.1-428,726.7-427.6,726.4z M-427.8,744.2
		c0.4-0.4,0.8-0.6,1.4-0.6c0.5,0,1,0.2,1.4,0.6c0.4,0.4,0.6,0.8,0.6,1.4c0,0.5-0.2,1-0.6,1.4c-0.4,0.4-0.8,0.6-1.4,0.6
		s-1-0.2-1.4-0.6c-0.4-0.4-0.6-0.8-0.6-1.4C-428.3,745.1-428.1,744.6-427.8,744.2z M-404.4,734.9c-0.2,0.2-0.5,0.4-0.8,0.4h-2.5
		l-0.7,4.3h2.2c0.3,0,0.6,0.1,0.8,0.4c0.2,0.2,0.4,0.5,0.4,0.8c0,0.3-0.1,0.6-0.4,0.8c-0.2,0.2-0.5,0.4-0.8,0.4h-2.5l-0.7,4.6
		c0,0.3-0.2,0.5-0.4,0.7c-0.2,0.2-0.5,0.3-0.8,0.3s-0.6-0.1-0.8-0.3c-0.2-0.2-0.4-0.5-0.4-0.7c0-0.1,0.1-0.8,0.7-4.6h-3.5l-0.7,4.6
		c0,0.3-0.2,0.5-0.4,0.7c-0.2,0.2-0.5,0.3-0.8,0.3s-0.6-0.1-0.8-0.3c-0.2-0.2-0.4-0.5-0.4-0.7c0-0.1,0.1-0.8,0.7-4.6h-2.2
		c-0.3,0-0.6-0.1-0.8-0.4c-0.2-0.2-0.4-0.5-0.4-0.8s0.1-0.6,0.4-0.8c0.2-0.2,0.5-0.4,0.8-0.4h2.5l0.7-4.3h-2.2
		c-0.3,0-0.6-0.1-0.8-0.4c-0.2-0.2-0.4-0.5-0.4-0.8c0-0.3,0.1-0.6,0.4-0.8c0.2-0.2,0.5-0.4,0.8-0.4h2.5l0.7-4.6
		c0-0.3,0.2-0.5,0.4-0.7c0.2-0.2,0.5-0.3,0.8-0.3c0.3,0,0.6,0.1,0.8,0.3c0.2,0.2,0.3,0.4,0.3,0.6c0,0.2,0,0.3,0,0.4l-0.1,0.5
		c0,0.3-0.1,0.7-0.2,1.3l-0.4,2.4h3.5l0.7-4.6c0-0.3,0.2-0.5,0.4-0.7c0.2-0.2,0.5-0.3,0.8-0.3c0.3,0,0.6,0.1,0.8,0.3
		c0.2,0.2,0.3,0.4,0.3,0.6c0,0.2,0,0.3,0,0.4l-0.1,0.5c0,0.3-0.1,0.7-0.2,1.3l-0.4,2.4h2.2c0.3,0,0.6,0.1,0.8,0.4
		c0.2,0.2,0.4,0.5,0.4,0.8C-404.1,734.3-404.2,734.6-404.4,734.9z M-396.1,741.6v6.7c0,0.3,0.1,0.6,0.2,0.7c0.3,0.3,0.8,0.4,1.5,0.4
		h0.5c0.3,0,0.6,0.1,0.8,0.4c0.2,0.2,0.4,0.5,0.4,0.8s-0.1,0.6-0.4,0.8c-0.2,0.2-0.5,0.4-0.8,0.4h-0.4c-1.4,0-2.4-0.2-3.1-0.7
		c-0.8-0.6-1.3-1.6-1.3-3v-6.4c0-0.6-0.1-1-0.3-1.3c-0.4-0.5-1.2-0.8-2.4-1c-0.7-0.1-1.1-0.6-1.1-1.3c0-0.8,0.4-1.2,1.1-1.4
		c0.7-0.1,1.2-0.3,1.5-0.4c0.4-0.2,0.6-0.3,0.8-0.5c0.2-0.3,0.4-0.7,0.4-1.4V728c0-2,0.9-3.3,2.7-3.6c0.5-0.1,1.1-0.2,1.7-0.2h0.4
		c0.3,0,0.6,0.1,0.8,0.4c0.2,0.2,0.4,0.5,0.4,0.8c0,0.3-0.1,0.6-0.4,0.8c-0.2,0.2-0.5,0.4-0.8,0.4h-0.5c-1,0-1.5,0.3-1.6,0.8
		c0,0.1,0,0.3,0,0.4v6.7c0,1.7-0.8,2.9-2.5,3.6C-396.9,738.7-396.1,739.9-396.1,741.6z M-383.5,747c-0.4,0.4-0.8,0.6-1.4,0.6
		c-0.5,0-1-0.2-1.4-0.6c-0.4-0.4-0.6-0.8-0.6-1.4c0-0.5,0.2-1,0.6-1.4c0.4-0.4,0.8-0.6,1.4-0.6c0.5,0,1,0.2,1.4,0.6
		c0.4,0.4,0.6,0.8,0.6,1.4C-382.9,746.1-383.1,746.6-383.5,747z M-380.6,736.5c-1.1,0.8-1.9,1.6-2.4,2.4c-0.3,0.4-0.4,0.9-0.4,1.4
		c0,0.5-0.2,0.9-0.5,1.2c-0.3,0.2-0.6,0.4-1,0.4c-0.4,0-0.7-0.1-1-0.4c-0.3-0.3-0.4-0.6-0.4-0.9c0-2,1-3.8,2.9-5.3
		c1.2-1,2-1.7,2.3-2.1c0.3-0.4,0.5-0.9,0.5-1.4c0-2.1-1.4-3.1-4.2-3.1c-1.5,0-2.8,0.3-3.8,1c-0.6,0.4-1.3,0.4-1.8-0.1
		c-0.3-0.3-0.4-0.6-0.4-0.9c0-0.6,0.3-1,0.8-1.3c1.6-1,3.4-1.5,5.4-1.5c2.1,0,3.8,0.5,5,1.6c1.3,1.1,1.9,2.5,1.9,4.3
		C-377.7,733.5-378.7,735.1-380.6,736.5z M-370.2,747c-0.4,0.4-0.8,0.6-1.4,0.6c-0.5,0-1-0.2-1.4-0.6c-0.4-0.4-0.6-0.8-0.6-1.4
		c0-0.5,0.2-1,0.6-1.4c0.4-0.4,0.8-0.6,1.4-0.6c0.5,0,1,0.2,1.4,0.6c0.4,0.4,0.6,0.8,0.6,1.4C-369.7,746.1-369.9,746.6-370.2,747z"
		/>
	<polygon points="-414.5,739.5 -410.9,739.5 -410.2,735.2 -413.8,735.2 	"/>
</g>
</svg>
