<?xml version="1.0" encoding="utf-8"?>
<!-- Generator: Adobe Illustrator 19.0.1, SVG Export Plug-In . SVG Version: 6.00 Build 0)  -->
<svg version="1.1" id="Слой_1" xmlns="http://www.w3.org/2000/svg" xmlns:xlink="http://www.w3.org/1999/xlink" x="0px" y="0px"
	 viewBox="-449 688 100 125" style="enable-background:new -449 688 100 125;" xml:space="preserve">
<path d="M-361.2,762.4c4.6-7.1,7.2-15.4,7.2-24.4c0-24.9-20.1-45-45-45s-45,20.1-45,45s20.1,45,45,45c9.3,0,17.9-2.8,25.1-7.6
	l19.9,7.6L-361.2,762.4L-361.2,762.4z M-369.3,771.8L-369.3,771.8l-5.4-2.1l0,0c-0.1,0-0.1,0.1-0.2,0.1l0,0
	c-0.8,0.6-1.6,1.1-2.4,1.7l-0.1,0.1c-0.8,0.5-1.7,1-2.5,1.5l0,0c-5.7,3.1-12.2,4.9-19.1,4.9c-22.1,0-40-17.9-40-40s17.9-40,40-40
	s40,17.9,40,40c0,6.5-1.6,12.7-4.4,18.1l0,0c-1,1.9-2.1,3.8-3.4,5.5l0,0l1.9,5.6l0,0l2.5,7.3L-369.3,771.8z M-408.9,755
	c-2.8,0-5,2.2-5,5s2.2,5,5,5c2.8,0,5-2.2,5-5S-406.1,755-408.9,755z M-423.9,724.7c-7.3,0-13.3,6-13.3,13.3s6,13.3,13.3,13.3
	c7.3,0,13.3-6,13.3-13.3S-416.6,724.7-423.9,724.7z M-433.4,736.7c0-1.1,0.9-2,2-2s2,0.9,2,2c0,1.1-0.9,2-2,2
	S-433.4,737.8-433.4,736.7z M-427.4,747c-1.7,0-3.1-1.4-3.1-3.1c0-1.7,1.4-3.1,3.1-3.1c1.7,0,3.1,1.4,3.1,3.1
	C-424.2,745.6-425.6,747-427.4,747z M-420.5,740.8c-2.8,0-5-2.2-5-5s2.2-5,5-5s5,2.2,5,5S-417.8,740.8-420.5,740.8z M-394.5,724.7
	c-7.3,0-13.3,6-13.3,13.3s6,13.3,13.3,13.3s13.3-6,13.3-13.3S-387.2,724.7-394.5,724.7z M-403.7,736.7c0-1.1,0.9-2,2-2
	c1.1,0,2,0.9,2,2c0,1.1-0.9,2-2,2C-402.8,738.7-403.7,737.8-403.7,736.7z M-397.7,747c-1.7,0-3.1-1.4-3.1-3.1c0-1.7,1.4-3.1,3.1-3.1
	c1.7,0,3.1,1.4,3.1,3.1C-394.5,745.6-395.9,747-397.7,747z M-390.8,740.8c-2.8,0-5-2.2-5-5s2.2-5,5-5c2.8,0,5,2.2,5,5
	S-388.1,740.8-390.8,740.8z"/>
</svg>
