<?xml version="1.0" encoding="utf-8"?>
<!-- Generator: Adobe Illustrator 19.0.1, SVG Export Plug-In . SVG Version: 6.00 Build 0)  -->
<svg version="1.1" id="Слой_1" xmlns="http://www.w3.org/2000/svg" xmlns:xlink="http://www.w3.org/1999/xlink" x="0px" y="0px"
	 viewBox="-449 688 100 125" style="enable-background:new -449 688 100 125;" xml:space="preserve">
<path d="M-361.2,762.4c4.6-7.1,7.2-15.4,7.2-24.4c0-24.9-20.1-45-45-45s-45,20.1-45,45s20.1,45,45,45c9.3,0,17.9-2.8,25.1-7.6
	l19.9,7.6L-361.2,762.4L-361.2,762.4z M-369.3,771.8L-369.3,771.8l-5.4-2.1l0,0c-0.1,0-0.1,0.1-0.2,0.1l0,0
	c-0.8,0.6-1.6,1.1-2.4,1.7l-0.1,0.1c-0.8,0.5-1.7,1-2.5,1.5l0,0c-5.7,3.1-12.2,4.9-19.1,4.9c-22.1,0-40-17.9-40-40s17.9-40,40-40
	s40,17.9,40,40c0,6.5-1.6,12.7-4.4,18.1l0,0c-1,1.9-2.1,3.8-3.4,5.5l0,0l1.9,5.6l0,0l2.5,7.3L-369.3,771.8z M-411.5,755
	c-3.4,0-6.4-1.7-8.1-4.4h-5.6c2.2,5.5,7.5,9.4,13.7,9.4s11.6-3.9,13.7-9.4h-5.6C-405.1,753.3-408.1,755-411.5,755z M-396.5,729.9
	c-2.8,0-5,2.2-5,5c0,2.8,2.2,5,5,5s5-2.2,5-5C-391.5,732.1-393.7,729.9-396.5,729.9z M-420.5,734.9c0-2.8-2.2-5-5-5s-5,2.2-5,5
	c0,2.8,2.2,5,5,5S-420.5,737.6-420.5,734.9z"/>
</svg>
