<?xml version="1.0" encoding="utf-8"?>
<!-- Generator: Adobe Illustrator 19.0.1, SVG Export Plug-In . SVG Version: 6.00 Build 0)  -->
<svg version="1.1" id="Слой_1" xmlns="http://www.w3.org/2000/svg" xmlns:xlink="http://www.w3.org/1999/xlink" x="0px" y="0px"
	 viewBox="-449 688 100 125" style="enable-background:new -449 688 100 125;" xml:space="preserve">
<path d="M-402,750.2c-3,0-5.7,1.3-7.6,3.4c-1.8-2.1-4.6-3.4-7.6-3.4c-5.6,0-10.1,4.5-10.1,10.1h5c0-2.8,2.3-5.1,5.1-5.1
	c2.7,0,5,2.2,5.1,4.9c0,0.1,0,0.1,0,0.2h5c0-0.1,0-0.1,0-0.2c0.1-2.7,2.3-4.9,5.1-4.9s5.1,2.3,5.1,5.1h5
	C-391.9,754.7-396.4,750.2-402,750.2z M-395.5,735.7l-6.6-6.6l-3.5,3.5l10.1,10.1l10.1-10.1l-3.6-3.4L-395.5,735.7z M-412.4,732.7
	l-3.5-3.5l-6.6,6.6l-6.6-6.6l-3.5,3.5l10.1,10.1L-412.4,732.7z M-361.2,762.4c4.6-7.1,7.2-15.4,7.2-24.4c0-24.9-20.1-45-45-45
	s-45,20.1-45,45s20.1,45,45,45c9.3,0,17.9-2.8,25.1-7.6l19.9,7.6L-361.2,762.4L-361.2,762.4z M-369.3,771.8L-369.3,771.8l-5.4-2.1
	l0,0c-0.1,0-0.1,0.1-0.2,0.1l0,0c-0.8,0.6-1.6,1.1-2.4,1.7l-0.1,0.1c-0.8,0.5-1.7,1-2.5,1.5l0,0c-5.7,3.1-12.2,4.9-19.1,4.9
	c-22.1,0-40-17.9-40-40s17.9-40,40-40s40,17.9,40,40c0,6.5-1.6,12.7-4.4,18.1l0,0c-1,1.9-2.1,3.8-3.4,5.5l0,0l1.9,5.6l0,0l2.5,7.3
	L-369.3,771.8z"/>
</svg>
