<?xml version="1.0" encoding="utf-8"?>
<!-- Generator: Adobe Illustrator 19.0.1, SVG Export Plug-In . SVG Version: 6.00 Build 0)  -->
<svg version="1.1" id="Слой_1" xmlns="http://www.w3.org/2000/svg" xmlns:xlink="http://www.w3.org/1999/xlink" x="0px" y="0px"
	 viewBox="-449 688 100 125" style="enable-background:new -449 688 100 125;" xml:space="preserve">
<path d="M-392.5,735.7l-6.6-6.6l-3.5,3.5l10.1,10.1l10.1-10.1l-3.6-3.4L-392.5,735.7z M-354,738c0-24.9-20.1-45-45-45
	s-45,20.1-45,45c0,13.2,5.7,25,14.7,33.3c1.3,1.2,2.7,2.3,4.1,3.3c3.5,2.5,7.3,4.5,11.4,5.9c4.6,1.6,9.6,2.5,14.8,2.5
	s10.2-0.9,14.8-2.5c3.7-1.3,7.1-3,10.2-5.1l20,7.6l-7.2-20.6C-356.6,755.4-354,747-354,738z M-422,755.5c0-1.4,1.1-2.5,2.5-2.5h25
	c1.4,0,2.5,1.1,2.5,2.5s-1.1,2.5-2.5,2.5h-25C-420.9,758-422,756.9-422,755.5z M-369.3,771.8l-5.4-2.1c-0.1,0-0.1,0.1-0.2,0.1
	c-1.6,1.2-3.3,2.3-5,3.3c-5.7,3.1-12.2,4.9-19.1,4.9c-3.6,0-7.1-0.5-10.4-1.4c0,0-2-0.4-4.6-1.6c-1-0.4-2-0.9-3-1.4V763h5v2.5
	c0,1.4,1.1,2.5,2.5,2.5s2.5-1.1,2.5-2.5V763h12.5c4.1,0,7.5-3.4,7.5-7.5s-3.4-7.5-7.5-7.5h-25c-4.1,0-7.5,3.4-7.5,7.5
	c0,3.2,2.1,6,5,7.1v8.1c-0.4-0.3-0.8-0.5-1.1-0.8c-1.4-1-2.6-2.1-3.9-3.3c-7.4-7.3-12-17.4-12-28.6c0-22.1,17.9-40,40-40
	s40,17.9,40,40c0,6.5-1.6,12.7-4.4,18.1c-1,1.9-2.1,3.8-3.4,5.5l2,5.6l2.5,7.3L-369.3,771.8z M-421.5,735.7l-6.6-6.6l-3.5,3.5
	l10.1,10.1l10.1-10.1l-3.5-3.5L-421.5,735.7z"/>
</svg>
