<?xml version="1.0" encoding="utf-8"?>
<!-- Generator: Adobe Illustrator 19.0.1, SVG Export Plug-In . SVG Version: 6.00 Build 0)  -->
<svg version="1.1" id="Слой_1" xmlns="http://www.w3.org/2000/svg" xmlns:xlink="http://www.w3.org/1999/xlink" x="0px" y="0px"
	 viewBox="-449 688 100 125" style="enable-background:new -449 688 100 125;" xml:space="preserve">
<path d="M-394.5,724.7c-6.5,0-11.9,4.6-13,10.8h-3.3c-1.2-6.1-6.6-10.8-13-10.8c-7.3,0-13.3,6-13.3,13.3s6,13.3,13.3,13.3
	c6.5,0,11.9-4.6,13-10.8h3.3c1.2,6.1,6.6,10.8,13,10.8c7.3,0,13.3-6,13.3-13.3S-387.2,724.7-394.5,724.7z M-423.9,746.3
	c-4.6,0-8.3-3.7-8.3-8.3s3.7-8.3,8.3-8.3s8.3,3.7,8.3,8.3S-419.3,746.3-423.9,746.3z M-394.5,746.3c-4.6,0-8.3-3.7-8.3-8.3
	s3.7-8.3,8.3-8.3s8.3,3.7,8.3,8.3S-390,746.3-394.5,746.3z M-424,762.5h30v-5h-30V762.5z M-361.2,762.4c4.6-7.1,7.2-15.4,7.2-24.4
	c0-24.9-20.1-45-45-45s-45,20.1-45,45s20.1,45,45,45c9.3,0,17.9-2.8,25.1-7.6l19.9,7.6L-361.2,762.4L-361.2,762.4z M-369.3,771.8
	L-369.3,771.8l-5.4-2.1l0,0c-0.1,0-0.1,0.1-0.2,0.1l0,0c-0.8,0.6-1.6,1.1-2.4,1.7l-0.1,0.1c-0.8,0.5-1.7,1-2.5,1.5l0,0
	c-5.7,3.1-12.2,4.9-19.1,4.9c-22.1,0-40-17.9-40-40s17.9-40,40-40s40,17.9,40,40c0,6.5-1.6,12.7-4.4,18.1l0,0
	c-1,1.9-2.1,3.8-3.4,5.5l0,0l1.9,5.6l0,0l2.5,7.3L-369.3,771.8z"/>
</svg>
