<?xml version="1.0" encoding="utf-8"?>
<!-- Generator: Adobe Illustrator 19.0.1, SVG Export Plug-In . SVG Version: 6.00 Build 0)  -->
<svg version="1.1" id="Слой_1" xmlns="http://www.w3.org/2000/svg" xmlns:xlink="http://www.w3.org/1999/xlink" x="0px" y="0px"
	 viewBox="-449 688 100 125" style="enable-background:new -449 688 100 125;" xml:space="preserve">
<path d="M-361.2,762.4c4.6-7.1,7.2-15.4,7.2-24.4c0-24.9-20.1-45-45-45s-45,20.1-45,45s20.1,45,45,45c9.3,0,17.9-2.8,25.1-7.6
	l19.9,7.6L-361.2,762.4L-361.2,762.4z M-399,698c17.9,0,33.2,11.9,38.2,28.2h-13.5c-0.6-0.9-1.3-1.7-2.1-2.3
	c-1.7-1.4-3.9-2.2-6.2-2.2h-1.7h-13c-3.7,0-7,2.1-8.7,5.2c-1.4-0.4-2.8-0.6-4.3-0.6c-1.6,0-3.2,0.3-4.6,0.8c-0.5-1.2-1.2-2.2-2-3
	c-1.2-1.3-2.8-2.1-4.5-2.3c-0.2,0-0.5,0-0.7,0h-12.2c-0.4,0-0.8,0.1-1.2,0.1C-429.3,707.8-415.3,698-399,698z M-377.9,726.5
	l-11.1,19.2c-0.3,0-0.6,0-1,0c-0.1,0-0.2,0-0.3,0c-0.1,0-0.2,0-0.4,0c-2.3-0.1-4.5-0.8-6.5-1.9l0,0l11.2-19.2h1.7h1.7
	c1.6,0,3.1,0.5,4.3,1.6C-378.1,726.3-378,726.4-377.9,726.5z M-418.5,726.7l-11,19c-0.3,0-0.6-0.1-0.9-0.2c-1.2-0.3-2.3-0.9-3.5-1.7
	c-0.1-0.1-0.2-0.2-0.3-0.2l11-18.9h1c0.1,0,0.2,0,0.4,0c1.2,0.1,2.1,0.8,2.7,1.4C-418.9,726.2-418.7,726.4-418.5,726.7z
	 M-369.3,771.8L-369.3,771.8l-5.4-2.1l0,0c-0.1,0-0.1,0.1-0.2,0.1l0,0c-0.8,0.6-1.6,1.1-2.4,1.7l-0.1,0.1c-0.8,0.5-1.7,1-2.5,1.5
	l0,0c-5.7,3.1-12.2,4.9-19.1,4.9c-20.3,0-37.1-15.2-39.7-34.8c0.9,1.2,1.9,2.2,3,3c1.4,1,2.9,1.8,4.5,2.2c0.9,0.2,1.9,0.4,2.9,0.4
	c7.7,0,14-7.5,14.2-16.8c1.2-0.5,2.4-0.8,3.7-0.8c1.1,0,2.1,0.2,3.1,0.5c0.1,6.3,3.5,11.7,8.5,14.6c2.3,1.4,5,2.2,7.9,2.3
	c0.3,0,0.5,0,0.8,0c9.5,0,17.2-7.7,17.2-17.2l0,0c0,0,0,0,0-0.1c0-0.1,0-0.2,0-0.3h13.2c0.4,2.2,0.6,4.5,0.6,6.8
	c0,6.5-1.6,12.7-4.4,18.1l0,0c-1,1.9-2.1,3.8-3.4,5.5l0,0l1.9,5.6l0,0l2.5,7.3L-369.3,771.8z M-426.3,754c0,9.2,7.5,16.8,16.8,16.8
	s16.7-7.6,16.7-16.8v-2.5h-33.5V754z M-398.1,756.5c-1.1,5.3-5.9,9.3-11.5,9.3s-10.3-4-11.5-9.3H-398.1z"/>
</svg>
