<?xml version="1.0" encoding="utf-8"?>
<!-- Generator: Adobe Illustrator 19.0.1, SVG Export Plug-In . SVG Version: 6.00 Build 0)  -->
<svg version="1.1" id="Слой_1" xmlns="http://www.w3.org/2000/svg" xmlns:xlink="http://www.w3.org/1999/xlink" x="0px" y="0px"
	 viewBox="-449 688 100 125" style="enable-background:new -449 688 100 125;" xml:space="preserve">
<path d="M-415.9,741.7l3.5-3.5l-10.1-10.1l-10.1,10.1l3.5,3.5l6.6-6.6L-415.9,741.7z M-405.6,738.2l3.5,3.5l6.6-6.6l6.6,6.6l3.5-3.5
	l-10.1-10.1L-405.6,738.2z M-403.7,754c-2.7,0-4.9-2.2-5-4.9h-2.6c-0.1,2.7-2.3,4.9-5,4.9c-2.7,0-4.9-2.2-5-4.9h-6
	c0.2,9.6,8,17.2,17.6,17.2c9.6,0,17.4-7.7,17.6-17.2h-6.8C-398.8,751.9-401,754-403.7,754z M-361.2,762.4c4.6-7.1,7.2-15.4,7.2-24.4
	c0-24.9-20.1-45-45-45s-45,20.1-45,45s20.1,45,45,45c9.3,0,17.9-2.8,25.1-7.6l19.9,7.6L-361.2,762.4L-361.2,762.4z M-369.3,771.8
	L-369.3,771.8l-5.4-2.1l0,0c-0.1,0-0.1,0.1-0.2,0.1l0,0c-0.8,0.6-1.6,1.1-2.4,1.7l-0.1,0.1c-0.8,0.5-1.7,1-2.5,1.5l0,0
	c-5.7,3.1-12.2,4.9-19.1,4.9c-22.1,0-40-17.9-40-40s17.9-40,40-40s40,17.9,40,40c0,6.5-1.6,12.7-4.4,18.1l0,0
	c-1,1.9-2.1,3.8-3.4,5.5l0,0l1.9,5.6l0,0l2.5,7.3L-369.3,771.8z"/>
</svg>
