<?xml version="1.0" encoding="utf-8"?>
<!-- Generator: Adobe Illustrator 19.0.1, SVG Export Plug-In . SVG Version: 6.00 Build 0)  -->
<svg version="1.1" id="Слой_1" xmlns="http://www.w3.org/2000/svg" xmlns:xlink="http://www.w3.org/1999/xlink" x="0px" y="0px"
	 viewBox="-449 688 100 125" style="enable-background:new -449 688 100 125;" xml:space="preserve">
<path d="M-354,744.3c0-24.9-20.1-45-45-45s-45,20.1-45,45c0,24.9,20.1,45,45,45c9.3,0,17.9-2.8,25.1-7.6l19.9,7.6l-7.2-20.6
	C-356.6,761.6-354,753.3-354,744.3z M-369.3,778.1l-5.4-2.1c-0.1,0-0.1,0.1-0.2,0.1c-0.8,0.6-1.6,1.1-2.4,1.7l-0.1,0.1
	c-0.8,0.5-1.7,1-2.5,1.5c-2.8,1.5-5.9,2.8-9.1,3.6c-3.2,0.8-6.5,1.3-10,1.3c-22.1,0-40-17.9-40-40c0-22.1,17.9-40,40-40
	s40,17.9,40,40c0,6.5-1.6,12.7-4.4,18.1c-1,1.9-2.1,3.8-3.4,5.5l1.9,5.6l2.5,7.3L-369.3,778.1z"/>
<path d="M-396.5,736.2c-2.8,0-5,2.2-5,5s2.2,5,5,5s5-2.2,5-5C-391.5,738.4-393.7,736.2-396.5,736.2z"/>
<path d="M-420.5,741.2c0-2.8-2.2-5-5-5s-5,2.2-5,5s2.2,5,5,5S-420.5,743.9-420.5,741.2z"/>
</svg>
