<?xml version="1.0" encoding="utf-8"?>
<!-- Generator: Adobe Illustrator 19.0.1, SVG Export Plug-In . SVG Version: 6.00 Build 0)  -->
<svg version="1.1" id="Слой_1" xmlns="http://www.w3.org/2000/svg" xmlns:xlink="http://www.w3.org/1999/xlink" x="0px" y="0px"
	 viewBox="-449 688 100 125" style="enable-background:new -449 688 100 125;" xml:space="preserve">
<g>
	<path d="M-362.9,742l-4.9-5.2l2.6-6.7c0.3-0.7-0.1-1.6-0.8-1.9l-6.5-2.9l-0.2-7.1c0-0.8-0.7-1.4-1.5-1.5l-7.1-0.2l-2.9-6.5
		c-0.3-0.7-1.2-1.1-1.9-0.8l-6.7,2.6l-5.2-4.9c-0.6-0.6-1.5-0.6-2.1,0l-5.2,4.9l-6.7-2.6c-0.7-0.3-1.6,0.1-1.9,0.8l-2.9,6.5
		l-7.1,0.2c-0.8,0-1.4,0.7-1.5,1.5l-0.2,7.1l-6.5,2.9c-0.7,0.3-1.1,1.2-0.8,1.9l2.6,6.7l-4.8,5.2c-0.6,0.6-0.6,1.5,0,2.1l4.9,5.2
		l-2.6,6.7c-0.3,0.7,0.1,1.6,0.8,1.9l6.5,2.9l0.2,7.1c0,0.8,0.7,1.4,1.5,1.5l7.1,0.2l2.9,6.5c0.3,0.7,1.2,1.1,1.9,0.8l6.7-2.6
		l5.2,4.9c0.3,0.3,0.7,0.4,1,0.4s0.7-0.1,1-0.4l5.2-4.9l6.7,2.6c0.7,0.3,1.4,0,1.8-0.6l21.6-32.3
		C-362.4,743.2-362.4,742.5-362.9,742z M-383.4,769.4l-1.1-3.5l3.9-3.6c0.4-0.3,0.6-0.9,0.5-1.4l-1.1-6.6l6.5-1.5
		c0.5-0.1,0.9-0.5,1.1-1l1.8-5l3.7-0.3L-383.4,769.4z M-386.2,773.5l-6.4-2.5c-0.5-0.2-1.2-0.1-1.6,0.3l-4.8,4.6l-4.8-4.6
		c-0.3-0.3-0.7-0.4-1-0.4c-0.2,0-0.4,0-0.5,0.1l-6.2,2.4l-2.7-6.1c-0.2-0.5-0.8-0.9-1.3-0.9l-6.7-0.2l-0.2-6.7
		c0-0.6-0.4-1.1-0.9-1.3l-6.1-2.7l2.4-6.2c0.2-0.5,0.1-1.2-0.3-1.6l-4.6-4.7l4.6-4.8c0.4-0.4,0.5-1,0.3-1.6l-2.4-6.2l6.1-2.7
		c0.5-0.2,0.9-0.8,0.9-1.3l0.2-6.7l6.7-0.2c0.6,0,1.1-0.4,1.3-0.9l2.7-6.1l6.2,2.4c0.5,0.2,1.2,0.1,1.6-0.3l4.8-4.6l4.8,4.6
		c0.4,0.4,1,0.5,1.6,0.3l6.2-2.4l2.7,6.1c0.2,0.5,0.8,0.9,1.3,0.9l6.7,0.2l0.2,6.7c0,0.6,0.4,1.1,0.9,1.3l6.1,2.7l-2.6,6.2
		c-0.2,0.5-0.1,1.2,0.3,1.6l4.7,5l-0.1,0.2l-7,0.6c-0.6,0.1-1.1,0.4-1.3,1l-1.9,5.2l-7.1,1.6c-0.8,0.2-1.3,0.9-1.1,1.7l1.2,7.2
		l-4,3.7c-0.4,0.4-0.6,1-0.4,1.6l2.2,6.7L-386.2,773.5z"/>
</g>
</svg>
