<?xml version="1.0" encoding="utf-8"?>
<!-- Generator: Adobe Illustrator 22.0.1, SVG Export Plug-In . SVG Version: 6.00 Build 0)  -->
<svg version="1.1" id="Слой_1" xmlns="http://www.w3.org/2000/svg" xmlns:xlink="http://www.w3.org/1999/xlink" x="0px" y="0px"
	 viewBox="0 0 100 100" style="enable-background:new 0 0 100 100;" xml:space="preserve">
<circle cx="14.5" cy="28.1" r="9"/>
<path d="M21,37c-1.8,1.3-4.1,2.1-6.5,2.1S9.8,38.4,8,37C3.3,39.4,0,44.3,0,50c0,8,6.5,31,14.5,31S29,58,29,50
	C29,44.3,25.7,39.4,21,37z"/>
<circle cx="50" cy="28.1" r="9"/>
<path d="M56.5,37c-1.8,1.3-4.1,2.1-6.5,2.1c-2.4,0-4.7-0.8-6.5-2.1c-4.7,2.4-8,7.3-8,12.9c0,8,6.5,31,14.5,31s14.5-23,14.5-31
	C64.5,44.3,61.2,39.4,56.5,37z"/>
<circle cx="85.5" cy="28.1" r="9"/>
<path d="M92,37.1c-1.8,1.3-4.1,2.1-6.5,2.1s-4.7-0.8-6.5-2.1c-4.7,2.4-8,7.3-8,12.9c0,8,6.5,31,14.5,31S100,58,100,50
	C100,44.4,96.7,39.5,92,37.1z"/>
</svg>
