<?xml version="1.0" encoding="utf-8"?>
<!-- Generator: Adobe Illustrator 22.0.1, SVG Export Plug-In . SVG Version: 6.00 Build 0)  -->
<svg version="1.1"
	 id="Слой_1" xmlns:cc="http://creativecommons.org/ns#" xmlns:dc="http://purl.org/dc/elements/1.1/" xmlns:inkscape="http://www.inkscape.org/namespaces/inkscape" xmlns:rdf="http://www.w3.org/1999/02/22-rdf-syntax-ns#" xmlns:sodipodi="http://sodipodi.sourceforge.net/DTD/sodipodi-0.dtd" xmlns:svg="http://www.w3.org/2000/svg"
	 xmlns="http://www.w3.org/2000/svg" xmlns:xlink="http://www.w3.org/1999/xlink" x="0px" y="0px" viewBox="0 0 100 100"
	 style="enable-background:new 0 0 100 100;" xml:space="preserve">
<path d="M60.7,2.5L28.3,13.6C32.2,5.5,40.5,0,50,0C53.9,0,57.5,0.9,60.7,2.5z"/>
<path d="M69.2,9.6L25.9,24.3v-0.2c0-2.7,0.4-5.2,1.2-7.7L63.4,4.1C65.6,5.6,67.6,7.4,69.2,9.6z"/>
<path d="M73.7,19.9L28.1,35.4c-1-2.9-1.8-5.9-2.1-8.7l44.5-15.2C72.1,14.1,73.2,16.9,73.7,19.9z"/>
<path d="M74.1,24.1c0,3.7-0.9,7.8-2.4,11.9l-19-6.4L74,22.2C74.1,22.9,74.1,23.5,74.1,24.1z"/>
<path d="M70.8,38.2c-0.7,1.6-1.6,3.2-2.5,4.8l-27.4-9.4l8.2-2.8L70.8,38.2z"/>
<path d="M67.1,44.9c-1.1,1.6-2.4,3.2-3.8,4.5L29,37.8c0-0.1,0-0.1-0.1-0.2l8.3-2.8L67.1,44.9z"/>
<path d="M61.3,51.3c-3.4,2.8-7.2,4.5-11.3,4.5c-8.1,0-15.2-6.7-19.6-15L61.3,51.3z"/>
<path d="M68.2,49.2C63.4,55.5,57,59.9,50,59.9c-7,0-13.4-4.4-18.2-10.7C16.2,55.6,5.4,68.8,5.4,77.8c0,12.2,20,22.2,44.6,22.2
	s44.6-9.9,44.6-22.2C94.6,68.8,83.8,55.6,68.2,49.2z"/>
</svg>
