<?xml version="1.0" encoding="utf-8"?>
<!-- Generator: Adobe Illustrator 22.0.1, SVG Export Plug-In . SVG Version: 6.00 Build 0)  -->
<svg version="1.1"
	 id="Слой_1" xmlns:cc="http://creativecommons.org/ns#" xmlns:dc="http://purl.org/dc/elements/1.1/" xmlns:inkscape="http://www.inkscape.org/namespaces/inkscape" xmlns:rdf="http://www.w3.org/1999/02/22-rdf-syntax-ns#" xmlns:sodipodi="http://sodipodi.sourceforge.net/DTD/sodipodi-0.dtd" xmlns:svg="http://www.w3.org/2000/svg"
	 xmlns="http://www.w3.org/2000/svg" xmlns:xlink="http://www.w3.org/1999/xlink" x="0px" y="0px" viewBox="0 0 100 100"
	 style="enable-background:new 0 0 100 100;" xml:space="preserve">
<path d="M94.3,78c0,12.1-19.8,22-44.3,22S5.7,90.2,5.7,78c0-8.9,10.8-22.1,26.2-28.4c4.8,6.2,11.2,10.6,18.1,10.6
	s13.3-4.4,18.1-10.6C83.5,55.9,94.3,69.1,94.3,78z"/>
<path d="M74.7,41.7v7.2H71v-1.7h-5.4c-4.2,5.3-9.6,9-15.6,9c-6,0-11.5-3.8-15.7-9.1h-5.9v1.7h-3.7v-7.2h3.7v1.8h3.4
	c-3.6-5.8-5.7-12.8-5.7-18.7c0-0.4,0-0.9,0-1.3c-0.1-0.3-0.1-0.6-0.1-0.9V6.1C26,2.7,28.8,0,32.1,0h35.7C71.2,0,74,2.7,74,6.1v16.4
	c0,0.3,0,0.6-0.1,0.9c0,0.4,0,0.9,0,1.3c0,5.9-2.2,12.9-5.8,18.8H71v-1.8H74.7z"/>
</svg>
