<?xml version="1.0" encoding="utf-8"?>
<!-- Generator: Adobe Illustrator 22.0.1, SVG Export Plug-In . SVG Version: 6.00 Build 0)  -->
<svg version="1.1"
	 id="Слой_1" xmlns:cc="http://creativecommons.org/ns#" xmlns:dc="http://purl.org/dc/elements/1.1/" xmlns:inkscape="http://www.inkscape.org/namespaces/inkscape" xmlns:rdf="http://www.w3.org/1999/02/22-rdf-syntax-ns#" xmlns:sodipodi="http://sodipodi.sourceforge.net/DTD/sodipodi-0.dtd" xmlns:svg="http://www.w3.org/2000/svg"
	 xmlns="http://www.w3.org/2000/svg" xmlns:xlink="http://www.w3.org/1999/xlink" x="0px" y="0px" viewBox="0 0 100 100"
	 style="enable-background:new 0 0 100 100;" xml:space="preserve">
<path d="M72.9,24.2C60.4,24.2,50.3,14,50.3,1.6c0-0.5,0-1.1,0.1-1.6H50C36.7,0,25.9,10.8,25.9,24.1S36.7,55.8,50,55.8
	c13.3,0,24.1-18.4,24.1-31.7C73.7,24.1,73.3,24.2,72.9,24.2z M44.6,24.1l-1.8,1.8l-1.5-1.5l-1.5,1.5l-1.8-1.8l1.5-1.5L38,21l1.8-1.8
	l1.6,1.6l1.6-1.6l1.8,1.8l-1.6,1.6L44.6,24.1z"/>
<path d="M94.6,77.8c0,12.2-20,22.2-44.6,22.2S5.4,90.1,5.4,77.8c0-9,10.9-22.2,26.4-28.6C36.6,55.5,43,59.9,50,59.9
	c7,0,13.4-4.4,18.2-10.7C83.8,55.6,94.6,68.8,94.6,77.8z"/>
</svg>
