<?xml version="1.0" encoding="utf-8"?>
<!-- Generator: Adobe Illustrator 22.0.1, SVG Export Plug-In . SVG Version: 6.00 Build 0)  -->
<svg version="1.1" id="Слой_1" xmlns="http://www.w3.org/2000/svg" xmlns:xlink="http://www.w3.org/1999/xlink" x="0px" y="0px"
	 viewBox="0 0 100 100" style="enable-background:new 0 0 100 100;" xml:space="preserve">
<path d="M73.2,17.4H61.7v18.7H43v16.5h16.4c-2.9,2-6.1,3.1-9.4,3.1c-13.3,0-24.1-18.4-24.1-31.7C25.9,10.8,36.7,0,50,0
	C61,0,70.3,7.4,73.2,17.4z"/>
<path class="st0" d="M94.6,77.8c0,12.3-20,22.2-44.6,22.2S5.4,90.1,5.4,77.8c0-9,10.8-22.3,26.4-28.6C36.6,55.5,43,59.9,50,59.9
	c4.2,0,8.1-1.6,11.7-4.2V71h16.6V54.6C88.2,61.5,94.6,70.9,94.6,77.8z"/>
<polygon points="94.6,38.3 94.6,50.5 76,50.5 76,69.1 63.8,69.1 63.8,50.5 45.3,50.5 45.3,38.3 63.8,38.3 63.8,19.8 76,19.8 
	76,38.3 "/>
</svg>
