<?xml version="1.0" encoding="utf-8"?>
<!-- Generator: Adobe Illustrator 22.0.1, SVG Export Plug-In . SVG Version: 6.00 Build 0)  -->
<svg version="1.1"
	 id="Слой_1" xmlns:cc="http://creativecommons.org/ns#" xmlns:dc="http://purl.org/dc/elements/1.1/" xmlns:inkscape="http://www.inkscape.org/namespaces/inkscape" xmlns:rdf="http://www.w3.org/1999/02/22-rdf-syntax-ns#" xmlns:sodipodi="http://sodipodi.sourceforge.net/DTD/sodipodi-0.dtd" xmlns:svg="http://www.w3.org/2000/svg"
	 xmlns="http://www.w3.org/2000/svg" xmlns:xlink="http://www.w3.org/1999/xlink" x="0px" y="0px" viewBox="0 0 100 100"
	 style="enable-background:new 0 0 100 100;" xml:space="preserve">
<path d="M94.6,77.8c0,12.2-20,22.2-44.6,22.2S5.4,90.1,5.4,77.8c0-9,10.8-22.3,26.4-28.6C36.6,55.5,43,59.9,50,59.9
	c7,0,13.4-4.4,18.2-10.7C83.8,55.6,94.6,68.8,94.6,77.8z"/>
<path d="M50,0C36.7,0,25.9,10.8,25.9,24.1c0,13.3,10.8,31.7,24.1,31.7s24.1-18.4,24.1-31.7C74.1,10.8,63.3,0,50,0z M40.2,33.3
	c-3.9,0-7.1-3.2-7.1-7.1c0-3.9,3.2-9.3,7.1-9.3c3.9,0,7.1,5.4,7.1,9.3C47.3,30.1,44.1,33.3,40.2,33.3z M60.6,33.3
	c-3.9,0-7.1-3.2-7.1-7.1c0-3.9,3.2-9.3,7.1-9.3c3.9,0,7.1,5.4,7.1,9.3C67.7,30.1,64.5,33.3,60.6,33.3z"/>
</svg>
