<?xml version="1.0" encoding="utf-8"?>
<!-- Generator: Adobe Illustrator 22.0.1, SVG Export Plug-In . SVG Version: 6.00 Build 0)  -->
<svg version="1.1" id="Слой_1" xmlns="http://www.w3.org/2000/svg" xmlns:xlink="http://www.w3.org/1999/xlink" x="0px" y="0px"
	 viewBox="0 0 100 100" style="enable-background:new 0 0 100 100;" xml:space="preserve">
<path d="M43,36.1v16.5h16.4c-2.9,2-6.1,3.1-9.4,3.1c-13.3,0-24.1-18.4-24.1-31.7C25.9,10.8,36.7,0,50,0s24.1,10.8,24.1,24.1
	c0,3.8-0.9,8-2.4,12H43z"/>
<path class="st0" d="M94.6,77.8c0,12.3-20,22.2-44.6,22.2S5.4,90.1,5.4,77.8c0-9,10.8-22.3,26.4-28.6C36.6,55.5,43,59.9,50,59.9
	c5.6,0,10.8-2.8,15.2-7.2h10C86.9,59.7,94.6,70.2,94.6,77.8z"/>
<rect x="45.3" y="38.3" width="49.3" height="12.2"/>
</svg>
