<?xml version="1.0" encoding="utf-8"?>
<!-- Generator: Adobe Illustrator 22.0.1, SVG Export Plug-In . SVG Version: 6.00 Build 0)  -->
<svg version="1.1" id="Слой_1" xmlns="http://www.w3.org/2000/svg" xmlns:xlink="http://www.w3.org/1999/xlink" x="0px" y="0px"
	 viewBox="0 0 100 100" style="enable-background:new 0 0 100 100;" xml:space="preserve">
<path d="M83.5,57.2c-3,3.9-7,6.7-11.4,6.7c-4.4,0-8.3-2.8-11.4-6.7C51,61.2,44.3,69.4,44.3,75c0,7.6,12.5,13.8,27.8,13.8
	S100,82.7,100,75C100,69.4,93.2,61.2,83.5,57.2z"/>
<path d="M87.2,41.5c0,8.3-6.7,19.8-15,19.8s-15-11.5-15-19.8s6.7-15,15-15S87.2,33.2,87.2,41.5z"/>
<path d="M41,75.3c0-6.2,7.4-15.4,18.2-19.8c-2.9-2.4-6.4-4.5-10.2-6c-3.8,4.9-8.7,8.3-14.2,8.3c-5.4,0-10.4-3.4-14.2-8.3
	C8.5,54.3,0,64.6,0,71.6c0,9.5,15.5,17.2,34.7,17.2c6,0,11.7-0.8,16.6-2.1C45,84,41,79.8,41,75.3z"/>
<path d="M53.5,29.9c0,10.4-8.4,24.6-18.7,24.6S16,40.2,16,29.9s8.4-18.7,18.7-18.7S53.5,19.5,53.5,29.9z"/>
</svg>
