<?xml version="1.0" encoding="utf-8"?>
<!-- Generator: Adobe Illustrator 22.0.1, SVG Export Plug-In . SVG Version: 6.00 Build 0)  -->
<svg version="1.1" id="Слой_1" xmlns="http://www.w3.org/2000/svg" xmlns:xlink="http://www.w3.org/1999/xlink" x="0px" y="0px"
	 viewBox="0 0 100 100" style="enable-background:new 0 0 100 100;" xml:space="preserve">
<path d="M59.4,30.5c0.1,0.1,0.3,0.1,0.4,0.1c0.3,0,0.6-0.1,0.8-0.4l5.6-5.6H74c1.8,0,3.3-1.5,3.3-3.3V9.5c0-1.8-1.5-3.3-3.3-3.3
	H45.4c-1.8,0-3.3,1.5-3.3,3.3v11.9c0,0.3,0.1,0.7,0.1,1H20.3c-1.8,0-3.3,1.5-3.3,3.3v11.9c0,1.8,1.5,3.3,3.3,3.3h7.8l5.6,5.6
	c0.3,0.3,0.5,0.4,0.8,0.4c0.1,0,0.3,0,0.4-0.1c0.4-0.2,0.8-0.6,0.8-1.1v-4.8h6.5c-0.1,0.3-0.1,0.6-0.1,0.9v11.9
	c0,1.8,1.5,3.3,3.3,3.3h13.1v4.8c0,0.5,0.3,1,0.8,1.1c0.1,0.1,0.3,0.1,0.4,0.1c0.3,0,0.6-0.1,0.8-0.4l5.6-5.6H74
	c1.8,0,3.3-1.5,3.3-3.3V41.8c0-1.8-1.5-3.3-3.3-3.3H52.1c0.1-0.3,0.1-0.6,0.1-0.9V25.6c0-0.3-0.1-0.7-0.1-1h6.5v4.8
	C58.6,29.9,58.9,30.3,59.4,30.5z M75,41.8v11.9c0,0.5-0.4,0.9-0.9,0.9h-8.3c-0.3,0-0.6,0.1-0.8,0.4l-3.9,3.9v-3.1
	c0-0.6-0.6-1.2-1.2-1.2H45.5c-0.5,0-0.9-0.4-0.9-0.9V41.8c0-0.4,0.4-0.9,0.8-0.9h3.5c0.1,0,0.1,0,0.1,0h25
	C74.6,40.8,75,41.3,75,41.8z M45.5,38.4c-0.1,0-0.1,0-0.1,0H34.6c-0.6,0-1.2,0.6-1.2,1.2v3.1l-3.9-3.9c-0.3-0.3-0.5-0.4-0.8-0.4
	h-8.4c-0.5,0-0.9-0.4-0.9-0.9V25.6c0-0.5,0.4-0.9,0.9-0.9h28.6c0.5,0,0.9,0.4,0.9,0.9v11.9c0,0.5-0.4,0.9-0.8,0.9
	C49,38.4,45.5,38.4,45.5,38.4z M45.5,22.3c-0.5,0-0.9-0.4-0.9-0.9V9.5c0-0.5,0.4-0.9,0.9-0.9h28.6C74.6,8.6,75,9,75,9.5v11.9
	c0,0.5-0.4,0.9-0.9,0.9h-8.3c-0.3,0-0.6,0.1-0.8,0.4l-3.9,3.9v-3.1c0-0.6-0.6-1.2-1.2-1.2C59.8,22.3,45.5,22.3,45.5,22.3z"/>
<path d="M48.9,14.4h21.8c0.6,0,1.2-0.6,1.2-1.2S71.3,12,70.7,12H48.9c-0.6,0-1.2,0.6-1.2,1.2C47.7,13.9,48.2,14.4,48.9,14.4z"/>
<path d="M71.9,18.2c0-0.6-0.6-1.2-1.2-1.2H48.9c-0.6,0-1.2,0.6-1.2,1.2c0,0.6,0.6,1.2,1.2,1.2h21.8C71.4,19.4,71.9,18.8,71.9,18.2z"
	/>
<path d="M48.9,44.3c-0.6,0-1.2,0.6-1.2,1.2s0.6,1.2,1.2,1.2h21.8c0.6,0,1.2-0.6,1.2-1.2s-0.6-1.2-1.2-1.2H48.9z"/>
<path d="M70.7,49.3H48.9c-0.6,0-1.2,0.6-1.2,1.2c0,0.6,0.6,1.2,1.2,1.2h21.8c0.6,0,1.2-0.6,1.2-1.2C71.9,49.8,71.4,49.3,70.7,49.3z"
	/>
<path d="M45.6,28.2H23.7c-0.6,0-1.2,0.6-1.2,1.2c0,0.6,0.6,1.2,1.2,1.2h21.8c0.6,0,1.2-0.6,1.2-1.2C46.8,28.7,46.2,28.2,45.6,28.2z"
	/>
<path d="M45.6,33.1H23.7c-0.6,0-1.2,0.6-1.2,1.2s0.6,1.2,1.2,1.2h21.8c0.6,0,1.2-0.6,1.2-1.2C46.8,33.7,46.2,33.1,45.6,33.1z"/>
<path d="M23.8,67.6c0,4.6-3.7,11-8.3,11s-8.3-6.4-8.3-11s3.7-8.3,8.3-8.3S23.8,62.9,23.8,67.6z"/>
<path d="M30.9,86.1c0,4.3-6.9,7.7-15.4,7.7S0,90.4,0,86.1c0-3.1,3.7-7.7,9.1-9.9c1.7,2.2,3.9,3.7,6.3,3.7s4.6-1.5,6.3-3.7
	C27.2,78.4,30.9,83,30.9,86.1z"/>
<path d="M95.4,63.2c0,2.9-2.4,7-5.3,7s-5.3-4.1-5.3-7s2.4-5.3,5.3-5.3S95.4,60.3,95.4,63.2z"/>
<path d="M100,75c0,2.7-4.4,4.9-9.8,4.9c-5.4,0-9.8-2.2-9.8-4.9c0-2,2.4-4.9,5.8-6.3c1.1,1.4,2.5,2.4,4,2.4s3-1,4-2.4
	C97.6,70.2,100,73.1,100,75z"/>
</svg>
