<?xml version="1.0" encoding="utf-8"?>
<!-- Generator: Adobe Illustrator 19.0.1, SVG Export Plug-In . SVG Version: 6.00 Build 0)  -->
<svg version="1.1" id="Слой_1" xmlns="http://www.w3.org/2000/svg" xmlns:xlink="http://www.w3.org/1999/xlink" x="0px" y="0px"
	 viewBox="-449 688 100 125" style="enable-background:new -449 688 100 125;" xml:space="preserve">
<path d="M-399,688c-27.6,0-50,22.4-50,50c0,27.6,22.4,50,50,50c27.6,0,50-22.4,50-50C-349,710.4-371.4,688.1-399,688z M-441,738
	c0-8.9,2.8-17.2,7.6-24c0,4,1.5,9,6.3,14.8c5.6,6.7,11.5,9.5,20.8,15.1c9.3,5.6,7.8,8.1,5.6,10.7c-2.2,2.5-7.6,11.8,0.8,16.8
	c6.5,3.9,7.6,4.2,6.5,7.6c-0.1,0.2-0.2,0.4-0.3,0.6c-1.8,0.2-3.5,0.4-5.4,0.4C-422.2,780-440.9,761.2-441,738z M-380.3,775.5
	c1.9-2.8,3.9-6.5,5.7-11.4c3.9-10.9,5.9-25.2-1.7-23.5c-6.7,1.5-14.9,3.1-18.8,3.6c-3.9,0.6-8.7-3.4-14-6.2s-8.4-7.6-4.2-10.7
	c4.2-3.1,12.6,7.6,15.4,4.2c2.8-3.4,0.8-6.5,4.5-13.7c3.6-7.3,4-6,6.7-12.1c1.4-3.1,1.1-5.7,0.3-7.8c17,5.4,29.3,21.2,29.4,40
	C-357.1,754.5-366.6,768.7-380.3,775.5z"/>
</svg>
